<?xml version="1.0" encoding="UTF-8" standalone="no"?>
<svg
   xmlns:dc="http://purl.org/dc/elements/1.1/"
   xmlns:cc="http://creativecommons.org/ns#"
   xmlns:rdf="http://www.w3.org/1999/02/22-rdf-syntax-ns#"
   xmlns:svg="http://www.w3.org/2000/svg"
   xmlns="http://www.w3.org/2000/svg"
   xmlns:sodipodi="http://sodipodi.sourceforge.net/DTD/sodipodi-0.dtd"
   xmlns:inkscape="http://www.inkscape.org/namespaces/inkscape"
   id="svg2"
   version="1.1"
   inkscape:version="0.47 r22583"
   width="2778.394"
   height="2399.5164"
   sodipodi:docname="lcd7.svg">
  <metadata
     id="metadata24">
    <rdf:RDF>
      <cc:Work
         rdf:about="">
        <dc:format>image/svg+xml</dc:format>
        <dc:type
           rdf:resource="http://purl.org/dc/dcmitype/StillImage" />
        <dc:title></dc:title>
      </cc:Work>
    </rdf:RDF>
  </metadata>
  <defs
     id="defs22">
    <inkscape:perspective
       sodipodi:type="inkscape:persp3d"
       inkscape:vp_x="0 : 0.5 : 1"
       inkscape:vp_y="0 : 1000 : 0"
       inkscape:vp_z="1 : 0.5 : 1"
       inkscape:persp3d-origin="0.5 : 0.33333333 : 1"
       id="perspective26" />
  </defs>
  <sodipodi:namedview
     pagecolor="#ffffff"
     bordercolor="#666666"
     borderopacity="1"
     objecttolerance="10"
     gridtolerance="10"
     guidetolerance="10"
     inkscape:pageopacity="0"
     inkscape:pageshadow="2"
     inkscape:window-width="1592"
     inkscape:window-height="1097"
     id="namedview20"
     showgrid="false"
     inkscape:zoom="0.1767767"
     inkscape:cx="2044.1188"
     inkscape:cy="996.94837"
     inkscape:window-x="0"
     inkscape:window-y="0"
     inkscape:window-maximized="0"
     inkscape:current-layer="svg2" />
  <g
     id="g3738"
     transform="translate(4752.0938,-2122.3774)">
    <rect
       transform="matrix(0.79240719,-0.6099925,0,1,0,0)"
       style="fill:#000000;fill-opacity:0.1254902;stroke:none"
       id="rect3612"
       width="1064.7935"
       height="1750"
       x="-3555.5581"
       y="603.02966" />
    <path
       style="fill:#000000;fill-opacity:0.62926827;stroke:none"
       id="path18"
       d="m -2695.6339,3443.8009 q 43.5,-550.4861 53.25,-556.9916 23.25,-38.8978 55.5,-19.7238 32.25,19.1741 33,30.0968 0.75,10.9226 -15.375,216.8356 -16.125,205.913 -26.25,231.7071 -10.125,25.7942 -42.75,78.9089 -32.625,53.1146 -44.625,58.3521 -12,5.2376 -12.75,-39.1851 z m 111.75,-711.0247 447,-345.0992 q 20.25,-15.5884 25.125,-9.3411 4.875,6.2472 3,24.6906 -1.875,18.4433 -30.375,84.8825 -28.5,66.4393 -37.875,77.6561 -9.375,11.2168 -178.125,140.12 -179.25,141.9861 -186,139.1822 -13.5,3.3923 -37.875,-18.3439 -24.375,-21.7362 -27.375,-37.9268 -3,-16.1906 1.125,-28.866 4.125,-12.6754 21.375,-26.9544 z m -160.5,1452.5523 q 39.75,-608.5994 48.75,-632.0276 9,-23.4281 21.75,-21.243 12.75,2.1851 34.5,15.942 21.75,13.7569 25.5,17.3702 3.75,3.6132 5.625,15.1699 1.875,11.5566 -13.875,228.1809 -15.75,216.6243 -19.5,234.511 -3.75,17.8868 -9.75,32.0055 -6,14.1188 -30.75,67.1713 -24.75,53.0525 -36.75,64.79 -12,11.7376 -18.375,9.645 -6.375,-2.0925 -7.125,-31.5152 z m 156,-810.0883 q 21.75,-30.743 191.625,-161.0123 169.875,-130.2692 180.75,-130.1407 10.875,0.1284 21,5.3342 10.125,5.2058 18.375,14.855 8.25,9.6492 11.625,16.5511 3.375,6.902 2.25,17.268 -1.125,10.366 -6,22.1188 -4.875,11.7527 -15,28.5469 -10.125,16.7942 -33,43.9033 -22.875,27.1091 -195,157.1104 -172.125,130.0013 -182.25,132.2955 -10.125,2.2941 -24,2.9751 -13.875,0.6809 -22.125,-14.9683 -8.25,-15.6491 -6,-30.8812 2.25,-15.232 19.125,-44.2224 16.875,-28.9903 38.625,-59.7334 z" />
  </g>
  <g
     id="g3730"
     transform="translate(4752.0938,-2122.3774)">
    <rect
       transform="matrix(0.79240719,-0.6099925,0,1,0,0)"
       y="-389.82538"
       x="-5183.2095"
       height="1750"
       width="1064.7935"
       id="rect3660"
       style="fill:#000000;fill-opacity:0.1254902;stroke:none" />
    <path
       style="fill:#000000;fill-opacity:0.62926827"
       id="path6"
       d="m -3985.5101,3443.8885 q 43.5,-550.4862 53.25,-556.9917 23.25,-38.8978 55.5,-19.7237 32.25,19.174 33,30.0967 0.75,10.9226 -15.375,216.8356 -16.125,205.913 -26.25,231.7072 -10.125,25.7941 -42.75,78.9088 -32.625,53.1146 -44.625,58.3521 -12,5.2376 -12.75,-39.185 z m 546.75,-877.8864 q 53.25,-124.9917 70.875,-146.0594 17.625,-21.0676 28.875,-4.7279 11.25,16.3398 -28.5,557.9392 -6,62.6188 -19.5,93.5111 -13.5,30.8922 -30.75,27.1712 -17.25,-3.721 -32.625,-15.8853 -15.375,-12.1644 -19.5,-22.989 -4.125,-10.8246 10.125,-236.7942 14.25,-225.9696 14.625,-231.2583 0.375,-5.2887 2.625,-11.0207 2.25,-5.732 3.75,-9.8867 z m -86.25,1192.3949 q 33,-479.4033 35.625,-494.424 2.625,-15.0207 17.25,-43.779 14.625,-28.7582 40.125,-69.3881 25.5,-40.6298 35.625,-46.424 10.125,-5.7942 15.375,6.1644 5.25,11.9586 -17.625,332.0677 -22.875,320.1091 -35.625,354.424 -12.75,34.3149 -26.25,35.7071 -13.5,1.3923 -35.25,-18.8646 -21.75,-20.2569 -24.75,-24.4475 -3,-4.1907 -3.75,-9.6133 -0.75,-5.4227 -0.75,-21.4227 z m -353.25,-383.0693 q 21.75,-30.743 191.625,-161.0123 169.875,-130.2692 180.75,-130.1407 10.875,0.1284 21,5.3342 10.125,5.2059 18.375,14.855 8.25,9.6492 11.625,16.5511 3.375,6.902 2.25,17.268 -1.125,10.366 -6,22.1188 -4.875,11.7527 -15,28.5469 -10.125,16.7942 -33,43.9033 -22.875,27.1091 -195,157.1104 -172.125,130.0013 -182.25,132.2955 -10.125,2.2941 -24,2.9751 -13.875,0.6809 -22.125,-14.9683 -8.25,-15.6491 -6,-30.8812 2.25,-15.232 19.125,-44.2224 16.875,-28.9903 38.625,-59.7334 z" />
  </g>
  <g
     id="g3734"
     transform="translate(4752.0938,-2122.3774)">
    <rect
       transform="matrix(0.79240719,-0.6099925,0,1,0,0)"
       y="106.60232"
       x="-4369.3838"
       height="1750"
       width="1064.7935"
       id="rect3666"
       style="fill:#000000;fill-opacity:0.1254902;stroke:none" />
    <path
       style="fill:#000000;fill-opacity:0.62926827"
       id="path8"
       d="m -3340.5683,3443.8799 q 43.5,-550.4861 53.25,-556.9917 23.25,-38.8977 55.5,-19.7237 32.25,19.1741 33,30.0967 0.75,10.9227 -15.375,216.8357 -16.125,205.9129 -26.25,231.7071 -10.125,25.7942 -42.75,78.9088 -32.625,53.1147 -44.625,58.3522 -12,5.2376 -12.75,-39.1851 z m 111.75,-711.0248 446.9999,-345.0991 q 20.25,-15.5884 25.125,-9.3411 4.875,6.2472 3,24.6906 -1.875,18.4434 -30.375,84.8826 -28.5,66.4392 -37.875,77.656 -9.375,11.2169 -178.125,140.1201 -179.2499,141.986 -185.9999,139.1821 -13.5,3.3923 -37.875,-18.3439 -24.375,-21.7362 -27.375,-37.9268 -3,-16.1907 1.125,-28.8661 4.125,-12.6754 21.375,-26.9544 z m 348.7499,1025.5335 q 33,-479.4033 35.625,-494.424 2.625,-15.0208 17.25,-43.779 14.625,-28.7583 40.125,-69.3881 25.5,-40.6299 35.625,-46.424 10.125,-5.7942 15.375,6.1643 5.25,11.9586 -17.625,332.0677 -22.875,320.1091 -35.625,354.424 -12.75,34.3149 -26.25,35.7072 -13.5,1.3922 -35.25,-18.8647 -21.75,-20.2569 -24.75,-24.4475 -3,-4.1906 -3.75,-9.6133 -0.75,-5.4226 -0.75,-21.4226 z m -405.7499,342.8449 q 4.5,-5.964 10.875,-12.3715 6.375,-6.4074 175.1249,-134.3106 165.75,-129.5938 175.875,-133.388 10.125,-3.7942 18,-3.8563 7.875,-0.062 29.625,22.1947 21.75,22.2569 21.75,42.7569 0,20.5 -20.625,43.3771 -20.625,22.8771 -226.125,177.0703 -206.9999,163.3479 -231.3749,176.1117 -24.375,12.7638 -18.375,-19.855 6,-32.6188 33.375,-92.192 27.375,-59.5732 31.875,-65.5373 z m 52.5,-725.9143 q 21.75,-30.7431 191.6249,-161.0122 169.875,-130.2693 180.75,-130.1408 10.875,0.1285 21,5.3343 10.125,5.2058 18.375,14.855 8.25,9.6491 11.625,16.5511 3.375,6.9019 2.25,17.2679 -1.125,10.366 -6,22.1188 -4.875,11.7528 -15,28.547 -10.125,16.7941 -33,43.9032 -22.875,27.1092 -195,157.1104 -172.1249,130.0012 -182.2499,132.2954 -10.125,2.2942 -24,2.9751 -13.875,0.681 -22.125,-14.9682 -8.25,-15.6492 -6,-30.8812 2.25,-15.2321 19.125,-44.2224 16.875,-28.9903 38.625,-59.7334 z" />
  </g>
  <g
     id="g3726"
     transform="translate(4752.0938,-2122.3774)">
    <rect
       transform="matrix(0.79240719,-0.6099925,0,1,0,0)"
       y="-886.25293"
       x="-5997.0352"
       height="1750"
       width="1064.7935"
       id="rect3672"
       style="fill:#000000;fill-opacity:0.1254902;stroke:none" />
    <path
       style="fill:#000000;fill-opacity:0.62926827"
       id="path4"
       d="m -4522.962,3375.163 q 21.75,-30.7431 191.625,-161.0123 169.875,-130.2693 180.75,-130.1408 10.875,0.1285 21,5.3343 10.125,5.2058 18.375,14.855 8.25,9.6491 11.625,16.5511 3.375,6.9019 2.25,17.2679 -1.125,10.366 -6,22.1188 -4.875,11.7528 -15,28.547 -10.125,16.7941 -33,43.9033 -22.875,27.1091 -195,157.1103 -172.125,130.0013 -182.25,132.2955 -10.125,2.2942 -24,2.9751 -13.875,0.6809 -22.125,-14.9682 -8.25,-15.6492 -6,-30.8813 2.25,-15.232 19.125,-44.2223 16.875,-28.9903 38.625,-59.7334 z" />
  </g>
</svg>
