<?xml version="1.0"?>
<svg xmlns="http://www.w3.org/2000/svg"
     version="1.1" width="676" height="293.5">
  <path d="m 169.25,0.5 0,33.75 33.75,0 -33.75,-33.75 z m -168.75,0 168.75,0 33.75,33.75 0,258.75 -202.5,0 0,-292.5 z"
	style="fill:#cacaca;stroke:#000;stroke-miterlimit:2"/>
  <path d="m 405.5,0.5 0,33.75 33.75,0 -33.75,-33.75 z m -168.75,0 168.75,0 33.75,33.75 0,258.75 -202.5,0 0,-292.5 z"
	style="fill:#cacaca;stroke:#000;stroke-miterlimit:2"/>
  <path d="m 641.75,0.5 0,33.75 33.75,0 -33.75,-33.75 z m -168.75,0 168.75,0 33.75,33.75 0,258.75 -202.5,0 0,-292.5 z"
	style="fill:#cacaca;stroke:#000;stroke-miterlimit:2" />
  <rect x="4" y="110" width="191" height="61"
	fill="#fff"/>
  <rect x="240" y="110" width="191" height="61"
	fill="#fff"/>
  <path d="m 476,81 195.33295,0 0,118.0525 -142.48436,0 0,18.51173 -52.84859,0 0,-136.56423 z"
	fill="#fff"/>
  <path d="m 348.825,67.831 -0.14115,10.77234 -7.5,2.8125 -7.5,-2.8125 -7.5,2.8125 -7.5,-2.8125 -7.5,2.8125 -7.5,-2.8125 -7.16726,18.05589 -7.79523,-2.53021 -7.79523,2.8125 -7.79522,-2.8125 -7.79523,2.8125 -7.79523,-2.8125 -7.79523,2.8125 -7.79522,-2.8125"
	style="stroke:#555;stroke-width:2;stroke-linecap:round;stroke-linejoin:round"/>
  <path d="m 357.81605,202.952 7e-5,11.95298 -8.25775,2.8125 -8.25776,-2.8125 -8.25775,2.8125 -8.25775,-2.8125 -8.25775,2.8125 -8.25775,-2.8125 -8.25775,2.8125 -8.25775,-2.8125 -8.25776,2.8125 -8.25775,-2.8125 -8.25775,2.8125 -8.25775,-2.8125 -8.25777,2.8125 -8.25776,-2.8125"
	style="stroke:#555;stroke-width:2;stroke-linecap:round;stroke-linejoin:round"/>
  <path d="m 241.65729,51.61391 8.11784,-2.8125 8.11784,2.8125 8.11786,-2.8125 8.11786,2.8125 8.11786,-2.8125 8.11786,2.8125 8.11786,-2.67136 5.05002,17.77361 7.5,-2.8125 7.5,2.8125 7.5,-2.8125 7.5,2.8125 7.5,-2.8125 7.5,2.8125 -0.14115,11.47001 -7.5,2.8125 -7.5,-2.8125 -7.5,2.8125 -7.5,-2.8125 -7.5,2.8125 -7.5,-2.8125 -7.16726,18.05589 -7.79523,-2.53021 -7.79523,2.8125 -7.79522,-2.8125 -7.79523,2.8125 -7.79523,-2.8125 -7.79523,2.8125 -7.79522,-2.8125 0,-42.09794 z"
       style="fill:#ffff00;fill-opacity:1;stroke:none" />
  <path d="m 249.69579,199.185 8.32115,2.8125 8.32113,-2.8125 8.32114,2.8125 8.32114,-2.8125 8.32113,2.8125 8.32114,-2.8125 8.32114,2.8125 8.32113,-2.8125 8.32114,2.8125 8.32114,-2.8125 8.32113,2.8125 8.32114,-2.8125 8.32113,2.8125 4e-4,12.57431 -8.32117,2.8125 -8.32116,-2.8125 -8.32117,2.8125 -8.32117,-2.8125 -8.32116,2.8125 -8.32117,-2.8125 -8.32117,2.8125 -8.32116,-2.8125 -8.32117,2.8125 -8.32117,-2.8125 -8.32117,2.8125 -8.32116,-2.8125 -8.32117,2.8125 -8.32117,-2.8125 0,-12.57431 8.32116,-2.8125 z"
       style="fill:#ffff00;fill-opacity:1;stroke:none" />
  <text style="font-size:12px;font-weight:bold;font-family:Courier;fill:#000"><tspan
     x="6" y="16">&lt;!doctype html&gt;</tspan><tspan
     x="6" y="31">&lt;html&gt;</tspan><tspan
     x="6" y="46">&lt;head&gt;...&lt;/head&gt;</tspan><tspan
     x="6" y="61">&lt;body&gt;</tspan><tspan
     x="6" y="76">...</tspan><tspan
     x="6" y="91">&lt;script&gt;</tspan><tspan
     x="6" y="106">var user = {</tspan><tspan
     x="6" y="121">&quot;handle&quot;:&quot;Alice&quot;,</tspan><tspan
     x="6" y="136">&quot;uid&quot;:22250,</tspan><tspan
     x="6" y="151">&quot;nonce&quot;:</tspan><tspan
     x="6" y="166">&quot;eq0bkxssYmUNSk93bVLHyA==&quot;</tspan><tspan
     x="6" y="181">};</tspan><tspan
     x="6" y="196">&lt;/script&gt;</tspan><tspan
     x="6" y="211">...</tspan><tspan
     x="6" y="226">&lt;/body&gt;&lt;/html&gt;</tspan></text>
  <text style="font-size:12px;font-weight:bold;font-family:Courier;fill:#000"><tspan
     x="242.25" y="16">&lt;!doctype html&gt;</tspan><tspan
     x="242.25" y="31">&lt;html&gt;&lt;head&gt;...&lt;/head&gt;</tspan><tspan
     x="242.25" y="46">&lt;body&gt;...</tspan><tspan
     x="242.25" y="61">&lt;span&gt;{}</tspan><tspan
     x="242.25" y="76">#f{font-family:</tspan><tspan
     x="242.25" y="91">'&lt;/span&gt;&lt;script&gt;</tspan><tspan
     x="242.25" y="106">var user = {</tspan><tspan
     x="242.25" y="121">&quot;handle&quot;:&quot;Alice&quot;,</tspan><tspan
     x="242.25" y="136">&quot;uid&quot;:22250,</tspan><tspan
     x="242.25" y="151">&quot;nonce&quot;:</tspan><tspan
     x="242.25" y="166">&quot;eq0bkxssYmUNSk93bVLHyA==&quot;</tspan><tspan
     x="242.25" y="181">};</tspan><tspan
     x="242.25" y="196">&lt;/script&gt;</tspan><tspan
     x="242.25" y="211">&lt;span&gt;';}&lt;/span&gt;</tspan><tspan
     x="242.25" y="226">...</tspan><tspan
     x="242.25" y="241">&lt;/body&gt;&lt;/html&gt;</tspan></text>
  <text style="font-size:12px;font-weight:bold;font-family:Courier;fill:#000"><tspan
     x="478.5" y="16">&lt;!doctype html&gt;</tspan><tspan
     x="478.5" y="31">&lt;html&gt;&lt;head&gt;...&lt;/head&gt;</tspan><tspan
     x="478.5" y="46">&lt;body&gt;...</tspan><tspan
     x="478.5" y="61">&lt;span&gt;{}</tspan><tspan
     x="478.5" y="76">#f{font-family:</tspan><tspan
     x="478.5" y="91">'&lt;/span&gt;&lt;script&gt;</tspan><tspan
     x="478.5" y="106">var user = {</tspan><tspan
     x="478.5" y="121">&quot;handle&quot;:&quot;Alice&quot;,</tspan><tspan
     x="478.5" y="136">&quot;uid&quot;:22250,</tspan><tspan
     x="478.5" y="151">&quot;nonce&quot;:</tspan><tspan
     x="478.5" y="166">&quot;eq0bkxssYmUNSk93bVLHyA==&quot;</tspan><tspan
     x="478.5" y="181">};</tspan><tspan
     x="478.5" y="196">&lt;/script&gt;</tspan><tspan
     x="478.5" y="211">&lt;span&gt;';}&lt;/span&gt;</tspan><tspan
     x="478.5" y="226">...</tspan><tspan
     x="478.5" y="241">&lt;/body&gt;&lt;/html&gt;</tspan></text>
  <path d="m 544.14749,207.76145 51.15083,0 m -118.8648,29.22905 106.68603,0 m -106.68603,-14.12737 22.89609,0 m -22.89609,-164.65699 68.68827,0 m -68.68827,-16.075972 69.17542,0.48715 m -69.17542,-15.101676 161.24693,-0.48715 m -161.24693,-15.101676 114.9676,0.48715"
	stroke="#000"/>
</svg>
