<?xml version="1.0" encoding="UTF-8" standalone="no"?>
<!-- Created with Inkscape (http://www.inkscape.org/) -->

<svg
   xmlns:dc="http://purl.org/dc/elements/1.1/"
   xmlns:cc="http://creativecommons.org/ns#"
   xmlns:rdf="http://www.w3.org/1999/02/22-rdf-syntax-ns#"
   xmlns:svg="http://www.w3.org/2000/svg"
   xmlns="http://www.w3.org/2000/svg"
   xmlns:sodipodi="http://sodipodi.sourceforge.net/DTD/sodipodi-0.dtd"
   xmlns:inkscape="http://www.inkscape.org/namespaces/inkscape"
   width="360"
   height="720"
   id="svg2"
   version="1.1"
   inkscape:version="0.47 r22583"
   sodipodi:docname="all.svg">
  <defs
     id="defs4">
    <inkscape:perspective
       sodipodi:type="inkscape:persp3d"
       inkscape:vp_x="0 : 526.18109 : 1"
       inkscape:vp_y="0 : 1000 : 0"
       inkscape:vp_z="744.09448 : 526.18109 : 1"
       inkscape:persp3d-origin="372.04724 : 350.78739 : 1"
       id="perspective10" />
    <inkscape:perspective
       id="perspective3014"
       inkscape:persp3d-origin="0.5 : 0.33333333 : 1"
       inkscape:vp_z="1 : 0.5 : 1"
       inkscape:vp_y="0 : 1000 : 0"
       inkscape:vp_x="0 : 0.5 : 1"
       sodipodi:type="inkscape:persp3d" />
    <inkscape:perspective
       id="perspective3145"
       inkscape:persp3d-origin="0.5 : 0.33333333 : 1"
       inkscape:vp_z="1 : 0.5 : 1"
       inkscape:vp_y="0 : 1000 : 0"
       inkscape:vp_x="0 : 0.5 : 1"
       sodipodi:type="inkscape:persp3d" />
    <inkscape:perspective
       id="perspective3428"
       inkscape:persp3d-origin="0.5 : 0.33333333 : 1"
       inkscape:vp_z="1 : 0.5 : 1"
       inkscape:vp_y="0 : 1000 : 0"
       inkscape:vp_x="0 : 0.5 : 1"
       sodipodi:type="inkscape:persp3d" />
    <inkscape:perspective
       id="perspective3561"
       inkscape:persp3d-origin="0.5 : 0.33333333 : 1"
       inkscape:vp_z="1 : 0.5 : 1"
       inkscape:vp_y="0 : 1000 : 0"
       inkscape:vp_x="0 : 0.5 : 1"
       sodipodi:type="inkscape:persp3d" />
  </defs>
  <sodipodi:namedview
     id="base"
     pagecolor="#ffffff"
     bordercolor="#666666"
     borderopacity="1.0"
     inkscape:pageopacity="0.0"
     inkscape:pageshadow="2"
     inkscape:zoom="0.77405264"
     inkscape:cx="390.64181"
     inkscape:cy="355.66594"
     inkscape:document-units="in"
     inkscape:current-layer="layer1"
     showgrid="true"
     showguides="true"
     inkscape:window-width="1408"
     inkscape:window-height="1147"
     inkscape:window-x="3"
     inkscape:window-y="0"
     inkscape:window-maximized="0"
     units="in"
     inkscape:showpageshadow="false" />
  <metadata
     id="metadata7">
    <rdf:RDF>
      <cc:Work
         rdf:about="">
        <dc:format>image/svg+xml</dc:format>
        <dc:type
           rdf:resource="http://purl.org/dc/dcmitype/StillImage" />
        <dc:title />
      </cc:Work>
    </rdf:RDF>
  </metadata>
  <g
     inkscape:label="Layer 1"
     inkscape:groupmode="layer"
     id="layer1"
     transform="translate(-230.25,-197.36037)">
    <g
       transform="matrix(0.9375,0,0,-0.9375,110.73291,896.35983)"
       id="g2993">
      <path
         id="path11497"
         style="fill:#a8b5e6;fill-opacity:1;fill-rule:nonzero;stroke:none"
         d="m 139.6786,562.6169 359.6126,0 0,24.77332 -359.6126,0 0,-24.77332 z" />
      <text
         style="font-size:9.58966923px"
         y="-624.93091"
         x="149.54655"
         transform="scale(1,-1)"
         id="text11765">
        <tspan
           style="font-size:12.78622532px;font-variant:normal;font-weight:normal;writing-mode:lr-tb;fill:#1d1916;fill-opacity:1;fill-rule:nonzero;stroke:none;font-family:Palatino;-inkscape-font-specification:Palatino-Roman"
           x="149.54655 157.53795 161.53365 167.92676 174.31987 179.91385 186.30696 189.50351 193.49921 200.69147 208.68286 215.07597 218.27252 222.26822 229.46046 235.85358 239.05014 244.64412 248.63982 253.43465 257.43036 264.62259 271.81485 275.01141 282.20364 286.19934 289.3959 294.98987 302.18213 308.57526 313.37009 319.76318 325.35715 329.35284 335.74597 340.5408 346.13477 349.33133 354.92532 362.11755 369.30981 379.69861 386.89087 390.08743 397.27969 403.67279 407.66849 414.86075 425.24954 428.44611"
           y="-624.93091"
           sodipodi:role="line"
           id="tspan11767">Please type the string of characters shown below,</tspan>
      </text>
      <text
         style="font-size:9.58966923px"
         y="-624.93091"
         x="431.64267"
         transform="scale(1,-1)"
         id="text11771">
        <tspan
           style="font-size:12.78622532px;font-variant:normal;font-weight:normal;writing-mode:lr-tb;fill:#1d1916;fill-opacity:1;fill-rule:nonzero;stroke:none;font-family:Palatino;-inkscape-font-specification:Palatino-Roman"
           x="431.64267 435.63837 442.83063 449.23013"
           y="-624.93091"
           sodipodi:role="line"
           id="tspan11773">then press</tspan>
      </text>
      <text
         style="font-size:9.58966923px"
         y="-606.55066"
         x="115.9828"
         transform="scale(1,-1)"
         id="text11777">
        <tspan
           style="font-size:12.78622532px;font-variant:normal;font-weight:normal;writing-mode:lr-tb;fill:#1d1916;fill-opacity:1;fill-rule:nonzero;stroke:none;font-family:Palatino;-inkscape-font-specification:Palatino-Roman"
           x="149.54655 158.3371 166.32848 174.31987 183.90955 192.70007 203.08888 206.28543"
           sodipodi:role="line"
           id="tspan11779">RETURN.</tspan>
      </text>
      <text
         style="font-size:9.58966923px"
         y="-606.55066"
         x="211.04572"
         transform="scale(1,-1)"
         id="text11783">
        <tspan
           style="font-size:12.78622532px;font-variant:normal;font-weight:normal;writing-mode:lr-tb;fill:#1d1916;fill-opacity:1;fill-rule:nonzero;stroke:none;font-family:Palatino;-inkscape-font-specification:Palatino-Roman"
           x="211.04572 219.83624 227.0285 235.0199 238.21646 246.20782 253.40009 260.59235 263.78891 267.78461 270.98114 278.1734 284.56653 291.75876 298.15189 301.34845 305.34415 312.53638 315.73294 326.9209 333.314 337.30969 342.90366 350.09592 353.29248 361.28387 369.27527 377.26666 383.65976 388.45459 391.65115 398.04428 405.23651 413.22791 416.42447 420.42017 427.61243 438.00122 444.39435"
           y="-606.55066"
           sodipodi:role="line"
           id="tspan11785">You don’t have to match upper and lower case.</tspan>
      </text>
      <text
         style="font-size:9.58966923px"
         y="-568.21094"
         x="222.79208"
         transform="scale(1,-1)"
         id="text11795">
        <tspan
           style="font-size:19.17933846px;font-style:normal;font-variant:normal;font-weight:normal;font-stretch:normal;writing-mode:lr-tb;fill:#1d1916;fill-opacity:1;fill-rule:nonzero;stroke:none;font-family:'7 Segment';-inkscape-font-specification:'7 Segment'"
           x="222.79208 233.18153 243.57098 253.96042 264.34988 273.93954 284.32898 294.71844 305.10788 315.49734 325.08701 335.47644 345.86591 356.25534 366.64478 376.23447 386.6239 397.01337 407.4028"
           y="-568.21094"
           sodipodi:role="line"
           id="tspan11797">FA4A 5A8A A-65 A9-5</tspan>
      </text>
    </g>
    <g
       transform="matrix(0.9375,0,0,-0.9375,123.375,1040.5615)"
       id="g3061">
      <text
         style="font-size:9.60000038px"
         y="-652.40002"
         x="198.26816"
         transform="scale(1,-1)"
         id="text4223">
        <tspan
           style="font-size:12.80000019px;font-variant:normal;font-weight:normal;writing-mode:lr-tb;fill:#1d1916;fill-opacity:1;fill-rule:nonzero;stroke:none;font-family:Palatino;-inkscape-font-specification:Palatino-Roman"
           x="198.26816 205.99936 209.72417 215.85536 222.25536 227.68001 234.26688 237.46689 243.14752 246.87231 250.59712 256.27777 263.8656 267.06561 274.05313 282.26562 285.46561 291.8656 295.59042 299.8656 303.06561 310.05313 315.06561 318.26559 322.44098 329.89056 336.66562 339.8656 345.54626 352.99585 359.12704 364.5517 370.26434 373.46432 381.15842 387.55841 398.23361 405.68323 411.10785"
           y="-652.40002"
           sodipodi:role="line"
           id="tspan4225">Please click on all of the chess pawns.</tspan>
      </text>
      <path
         id="path4235"
         d="m 174,630.8 c 0,-88 0,-176 0,-264 88,0 176,0 264,0 0,88 0,176 0,264 -88,0 -176,0 -264,0 z m 4,-4 c 85.33334,0 170.66666,0 256,0 0,-85.33334 0,-170.66666 0,-256 -85.33334,0 -170.66666,0 -256,0 0,85.33334 0,170.66666 0,256 z"
         style="fill:#d2b48c;fill-opacity:1;fill-rule:nonzero;stroke:none" />
      <path
         id="path4251"
         style="fill:#a2846c;fill-opacity:1;fill-rule:nonzero;stroke:none"
         d="m 178,594.8 32,0 0,32 -32,0 0,-32 z" />
      <path
         id="path4275"
         style="fill:#000000;fill-opacity:1;fill-rule:nonzero;stroke:none"
         d="m 210,594.8 32,0 0,32 -32,0 0,-32 z" />
      <path
         id="path4299"
         style="fill:#a2846c;fill-opacity:1;fill-rule:nonzero;stroke:none"
         d="m 242,594.8 32,0 0,32 -32,0 0,-32 z" />
      <path
         id="path4323"
         style="fill:#000000;fill-opacity:1;fill-rule:nonzero;stroke:none"
         d="m 274,594.8 32,0 0,32 -32,0 0,-32 z" />
      <path
         id="path4347"
         style="fill:#a2846c;fill-opacity:1;fill-rule:nonzero;stroke:none"
         d="m 306,594.8 32,0 0,32 -32,0 0,-32 z" />
      <path
         id="path4371"
         style="fill:#000000;fill-opacity:1;fill-rule:nonzero;stroke:none"
         d="m 338,594.8 32,0 0,32 -32,0 0,-32 z" />
      <path
         id="path4395"
         style="fill:#a2846c;fill-opacity:1;fill-rule:nonzero;stroke:none"
         d="m 370,594.8 32,0 0,32 -32,0 0,-32 z" />
      <path
         id="path4419"
         style="fill:#000000;fill-opacity:1;fill-rule:nonzero;stroke:none"
         d="m 402,594.8 32,0 0,32 -32,0 0,-32 z" />
      <path
         id="path4443"
         style="fill:#000000;fill-opacity:1;fill-rule:nonzero;stroke:none"
         d="m 178,562.8 32,0 0,32 -32,0 0,-32 z" />
      <path
         id="path4467"
         style="fill:#a2846c;fill-opacity:1;fill-rule:nonzero;stroke:none"
         d="m 210,562.8 32,0 0,32 -32,0 0,-32 z" />
      <path
         id="path4491"
         style="fill:#000000;fill-opacity:1;fill-rule:nonzero;stroke:none"
         d="m 242,562.8 32,0 0,32 -32,0 0,-32 z" />
      <path
         d="m 252.28828,570.8703 c -0.0703,0.35937 -0.10547,0.72266 -0.10546,1.08984 -1e-5,1.01563 0.26171,1.98828 0.78515,2.91797 0.52344,0.92969 1.25,1.64453 2.17969,2.14453 0.24218,0.13281 0.48828,0.24609 0.73828,0.33985 -0.1875,0.18749 -0.34766,0.39843 -0.48047,0.63281 -0.26563,0.47656 -0.39844,0.97655 -0.39844,1.5 0,0.53124 0.13281,1.03515 0.39844,1.51172 0.27343,0.47655 0.65234,0.84764 1.13672,1.11328 0.17187,0.0937 0.35156,0.17186 0.53906,0.23438 -0.16407,0.11717 -0.29688,0.26951 -0.39843,0.45703 -0.14064,0.24217 -0.21095,0.49608 -0.21094,0.76172 -10e-6,0.27342 0.0664,0.53123 0.19922,0.77343 0.14062,0.24218 0.33593,0.42968 0.58593,0.5625 0.25,0.1328 0.5039,0.19921 0.76172,0.19922 0.25781,-10e-6 0.50781,-0.0664 0.75,-0.19922 0.24999,-0.13282 0.44531,-0.32032 0.58594,-0.5625 0.14843,-0.2422 0.22265,-0.50001 0.22266,-0.77343 -1e-5,-0.26564 -0.0703,-0.51955 -0.21094,-0.76172 -0.10157,-0.18752 -0.23438,-0.34377 -0.39844,-0.46875 0.17187,-0.0547 0.35546,-0.12892 0.55078,-0.22266 0.47656,-0.26564 0.84765,-0.63673 1.11328,-1.11328 0.27343,-0.47657 0.41015,-0.98048 0.41016,-1.51172 -1e-5,-0.52345 -0.12892,-1.02344 -0.38672,-1.5 -0.14063,-0.23438 -0.3047,-0.44532 -0.49219,-0.63281 0.24218,-0.10157 0.48437,-0.21485 0.72657,-0.33985 0.92967,-0.5 1.65624,-1.21484 2.17968,-2.14453 0.53124,-0.92969 0.79687,-1.90234 0.79688,-2.91797 -10e-6,-0.36718 -0.0391,-0.73047 -0.11719,-1.08984 l -11.46094,0"
         style="font-size:24px;font-variant:normal;font-weight:normal;writing-mode:lr-tb;fill:#a2846c;fill-opacity:1;fill-rule:nonzero;stroke:none;font-family:DejaVuSansMono;-inkscape-font-specification:DejaVuSansMono"
         id="path6814" />
      <path
         id="path4515"
         style="fill:#a2846c;fill-opacity:1;fill-rule:nonzero;stroke:none"
         d="m 274,562.8 32,0 0,32 -32,0 0,-32 z" />
      <path
         d="m 284.28827,570.8703 c -0.0703,0.35937 -0.10547,0.72266 -0.10547,1.08984 0,1.01563 0.26172,1.98828 0.78516,2.91797 0.52343,0.92969 1.24999,1.64453 2.17968,2.14453 0.24219,0.13281 0.48828,0.24609 0.73829,0.33985 -0.18751,0.18749 -0.34767,0.39843 -0.48047,0.63281 -0.26563,0.47656 -0.39845,0.97655 -0.39844,1.5 -1e-5,0.53124 0.13281,1.03515 0.39844,1.51172 0.27343,0.47655 0.65234,0.84764 1.13672,1.11328 0.17186,0.0937 0.35155,0.17186 0.53906,0.23438 -0.16407,0.11717 -0.29688,0.26951 -0.39844,0.45703 -0.14063,0.24217 -0.21094,0.49608 -0.21094,0.76172 0,0.27342 0.0664,0.53123 0.19922,0.77343 0.14062,0.24218 0.33593,0.42968 0.58594,0.5625 0.24999,0.1328 0.5039,0.19921 0.76172,0.19922 0.2578,-10e-6 0.5078,-0.0664 0.75,-0.19922 0.24999,-0.13282 0.4453,-0.32032 0.58594,-0.5625 0.14842,-0.2422 0.22264,-0.50001 0.22265,-0.77343 -1e-5,-0.26564 -0.0703,-0.51955 -0.21094,-0.76172 -0.10157,-0.18752 -0.23438,-0.34377 -0.39843,-0.46875 0.17186,-0.0547 0.35546,-0.12892 0.55078,-0.22266 0.47655,-0.26564 0.84764,-0.63673 1.11328,-1.11328 0.27343,-0.47657 0.41015,-0.98048 0.41016,-1.51172 -10e-6,-0.52345 -0.12892,-1.02344 -0.38672,-1.5 -0.14064,-0.23438 -0.3047,-0.44532 -0.49219,-0.63281 0.24218,-0.10157 0.48436,-0.21485 0.72656,-0.33985 0.92968,-0.5 1.65624,-1.21484 2.17969,-2.14453 0.53124,-0.92969 0.79686,-1.90234 0.79687,-2.91797 -1e-5,-0.36718 -0.0391,-0.73047 -0.11718,-1.08984 l -11.46094,0"
         style="font-size:24px;font-variant:normal;font-weight:normal;writing-mode:lr-tb;fill:#000000;fill-opacity:1;fill-rule:nonzero;stroke:none;font-family:DejaVuSansMono;-inkscape-font-specification:DejaVuSansMono"
         id="path6817" />
      <path
         id="path4539"
         style="fill:#000000;fill-opacity:1;fill-rule:nonzero;stroke:none"
         d="m 306,562.8 32,0 0,32 -32,0 0,-32 z" />
      <path
         id="path4563"
         style="fill:#a2846c;fill-opacity:1;fill-rule:nonzero;stroke:none"
         d="m 338,562.8 32,0 0,32 -32,0 0,-32 z" />
      <path
         id="path4587"
         style="fill:#000000;fill-opacity:1;fill-rule:nonzero;stroke:none"
         d="m 370,562.8 32,0 0,32 -32,0 0,-32 z" />
      <path
         id="path4611"
         style="fill:#a2846c;fill-opacity:1;fill-rule:nonzero;stroke:none"
         d="m 402,562.8 32,0 0,32 -32,0 0,-32 z" />
      <path
         id="path4635"
         style="fill:#a2846c;fill-opacity:1;fill-rule:nonzero;stroke:none"
         d="m 178,530.8 32,0 0,32 -32,0 0,-32 z" />
      <path
         id="path4659"
         style="fill:#000000;fill-opacity:1;fill-rule:nonzero;stroke:none"
         d="m 210,530.8 32,0 0,32 -32,0 0,-32 z" />
      <path
         id="path4683"
         style="fill:#a2846c;fill-opacity:1;fill-rule:nonzero;stroke:none"
         d="m 242,530.8 32,0 0,32 -32,0 0,-32 z" />
      <path
         id="path4707"
         style="fill:#000000;fill-opacity:1;fill-rule:nonzero;stroke:none"
         d="m 274,530.8 32,0 0,32 -32,0 0,-32 z" />
      <path
         id="path4731"
         style="fill:#a2846c;fill-opacity:1;fill-rule:nonzero;stroke:none"
         d="m 306,530.8 32,0 0,32 -32,0 0,-32 z" />
      <path
         id="path4755"
         style="fill:#000000;fill-opacity:1;fill-rule:nonzero;stroke:none"
         d="m 338,530.8 32,0 0,32 -32,0 0,-32 z" />
      <path
         id="path4779"
         style="fill:#a2846c;fill-opacity:1;fill-rule:nonzero;stroke:none"
         d="m 370,530.8 32,0 0,32 -32,0 0,-32 z" />
      <path
         id="path4803"
         style="fill:#000000;fill-opacity:1;fill-rule:nonzero;stroke:none"
         d="m 402,530.8 32,0 0,32 -32,0 0,-32 z" />
      <path
         d="m 412.28827,538.8703 c -0.0703,0.35937 -0.10547,0.72266 -0.10547,1.08984 0,1.01563 0.26172,1.98828 0.78516,2.91797 0.52343,0.92969 1.24999,1.64453 2.17968,2.14453 0.24219,0.13281 0.48828,0.24609 0.73829,0.33985 -0.18751,0.18749 -0.34767,0.39843 -0.48047,0.63281 -0.26563,0.47656 -0.39845,0.97655 -0.39844,1.5 -1e-5,0.53124 0.13281,1.03515 0.39844,1.51172 0.27343,0.47655 0.65234,0.84764 1.13672,1.11328 0.17186,0.0937 0.35155,0.17186 0.53906,0.23438 -0.16407,0.11717 -0.29688,0.26951 -0.39844,0.45703 -0.14063,0.24217 -0.21094,0.49608 -0.21094,0.76172 0,0.27342 0.0664,0.53123 0.19922,0.77343 0.14062,0.24218 0.33593,0.42968 0.58594,0.5625 0.24999,0.1328 0.5039,0.19921 0.76172,0.19922 0.2578,-10e-6 0.5078,-0.0664 0.75,-0.19922 0.24999,-0.13282 0.4453,-0.32032 0.58594,-0.5625 0.14842,-0.2422 0.22264,-0.50001 0.22265,-0.77343 -1e-5,-0.26564 -0.0703,-0.51955 -0.21094,-0.76172 -0.10157,-0.18752 -0.23438,-0.34377 -0.39843,-0.46875 0.17186,-0.0547 0.35546,-0.12892 0.55078,-0.22266 0.47655,-0.26564 0.84764,-0.63673 1.11328,-1.11328 0.27343,-0.47657 0.41015,-0.98048 0.41016,-1.51172 -10e-6,-0.52345 -0.12892,-1.02344 -0.38672,-1.5 -0.14064,-0.23438 -0.3047,-0.44532 -0.49219,-0.63281 0.24218,-0.10157 0.48436,-0.21485 0.72656,-0.33985 0.92968,-0.5 1.65624,-1.21484 2.17969,-2.14453 0.53124,-0.92969 0.79686,-1.90234 0.79687,-2.91797 -1e-5,-0.36718 -0.0391,-0.73047 -0.11718,-1.08984 l -11.46094,0"
         style="font-size:24px;font-variant:normal;font-weight:normal;writing-mode:lr-tb;fill:#a2846c;fill-opacity:1;fill-rule:nonzero;stroke:none;font-family:DejaVuSansMono;-inkscape-font-specification:DejaVuSansMono"
         id="path6820" />
      <path
         id="path4827"
         style="fill:#000000;fill-opacity:1;fill-rule:nonzero;stroke:none"
         d="m 178,498.8 32,0 0,32 -32,0 0,-32 z" />
      <path
         id="path4851"
         style="fill:#a2846c;fill-opacity:1;fill-rule:nonzero;stroke:none"
         d="m 210,498.8 32,0 0,32 -32,0 0,-32 z" />
      <path
         id="path4875"
         style="fill:#000000;fill-opacity:1;fill-rule:nonzero;stroke:none"
         d="m 242,498.8 32,0 0,32 -32,0 0,-32 z" />
      <path
         id="path4899"
         style="fill:#a2846c;fill-opacity:1;fill-rule:nonzero;stroke:none"
         d="m 274,498.8 32,0 0,32 -32,0 0,-32 z" />
      <path
         id="path4923"
         style="fill:#000000;fill-opacity:1;fill-rule:nonzero;stroke:none"
         d="m 306,498.8 32,0 0,32 -32,0 0,-32 z" />
      <path
         d="m 316.28827,506.8703 c -0.0703,0.35937 -0.10547,0.72266 -0.10547,1.08984 0,1.01563 0.26172,1.98828 0.78516,2.91797 0.52343,0.92969 1.24999,1.64453 2.17968,2.14453 0.24219,0.13281 0.48828,0.24609 0.73829,0.33985 -0.18751,0.18749 -0.34767,0.39843 -0.48047,0.63281 -0.26563,0.47656 -0.39845,0.97655 -0.39844,1.5 -1e-5,0.53124 0.13281,1.03515 0.39844,1.51172 0.27343,0.47655 0.65234,0.84764 1.13672,1.11328 0.17186,0.0937 0.35155,0.17186 0.53906,0.23438 -0.16407,0.11717 -0.29688,0.26951 -0.39844,0.45703 -0.14063,0.24217 -0.21094,0.49608 -0.21094,0.76172 0,0.27342 0.0664,0.53123 0.19922,0.77343 0.14062,0.24218 0.33593,0.42968 0.58594,0.5625 0.24999,0.1328 0.5039,0.19921 0.76172,0.19922 0.2578,-10e-6 0.5078,-0.0664 0.75,-0.19922 0.24999,-0.13282 0.4453,-0.32032 0.58594,-0.5625 0.14842,-0.2422 0.22264,-0.50001 0.22265,-0.77343 -1e-5,-0.26564 -0.0703,-0.51955 -0.21094,-0.76172 -0.10157,-0.18752 -0.23438,-0.34377 -0.39843,-0.46875 0.17186,-0.0547 0.35546,-0.12892 0.55078,-0.22266 0.47655,-0.26564 0.84764,-0.63673 1.11328,-1.11328 0.27343,-0.47657 0.41015,-0.98048 0.41016,-1.51172 -10e-6,-0.52345 -0.12892,-1.02344 -0.38672,-1.5 -0.14064,-0.23438 -0.3047,-0.44532 -0.49219,-0.63281 0.24218,-0.10157 0.48436,-0.21485 0.72656,-0.33985 0.92968,-0.5 1.65624,-1.21484 2.17969,-2.14453 0.53124,-0.92969 0.79686,-1.90234 0.79687,-2.91797 -1e-5,-0.36718 -0.0391,-0.73047 -0.11718,-1.08984 l -11.46094,0"
         style="font-size:24px;font-variant:normal;font-weight:normal;writing-mode:lr-tb;fill:#a2846c;fill-opacity:1;fill-rule:nonzero;stroke:none;font-family:DejaVuSansMono;-inkscape-font-specification:DejaVuSansMono"
         id="path6811" />
      <path
         id="path4947"
         style="fill:#a2846c;fill-opacity:1;fill-rule:nonzero;stroke:none"
         d="m 338,498.8 32,0 0,32 -32,0 0,-32 z" />
      <path
         id="path4971"
         style="fill:#000000;fill-opacity:1;fill-rule:nonzero;stroke:none"
         d="m 370,498.8 32,0 0,32 -32,0 0,-32 z" />
      <path
         id="path4995"
         style="fill:#a2846c;fill-opacity:1;fill-rule:nonzero;stroke:none"
         d="m 402,498.8 32,0 0,32 -32,0 0,-32 z" />
      <path
         d="m 412.28827,506.8703 c -0.0703,0.35937 -0.10547,0.72266 -0.10547,1.08984 0,1.01563 0.26172,1.98828 0.78516,2.91797 0.52343,0.92969 1.24999,1.64453 2.17968,2.14453 0.24219,0.13281 0.48828,0.24609 0.73829,0.33985 -0.18751,0.18749 -0.34767,0.39843 -0.48047,0.63281 -0.26563,0.47656 -0.39845,0.97655 -0.39844,1.5 -1e-5,0.53124 0.13281,1.03515 0.39844,1.51172 0.27343,0.47655 0.65234,0.84764 1.13672,1.11328 0.17186,0.0937 0.35155,0.17186 0.53906,0.23438 -0.16407,0.11717 -0.29688,0.26951 -0.39844,0.45703 -0.14063,0.24217 -0.21094,0.49608 -0.21094,0.76172 0,0.27342 0.0664,0.53123 0.19922,0.77343 0.14062,0.24218 0.33593,0.42968 0.58594,0.5625 0.24999,0.1328 0.5039,0.19921 0.76172,0.19922 0.2578,-10e-6 0.5078,-0.0664 0.75,-0.19922 0.24999,-0.13282 0.4453,-0.32032 0.58594,-0.5625 0.14842,-0.2422 0.22264,-0.50001 0.22265,-0.77343 -1e-5,-0.26564 -0.0703,-0.51955 -0.21094,-0.76172 -0.10157,-0.18752 -0.23438,-0.34377 -0.39843,-0.46875 0.17186,-0.0547 0.35546,-0.12892 0.55078,-0.22266 0.47655,-0.26564 0.84764,-0.63673 1.11328,-1.11328 0.27343,-0.47657 0.41015,-0.98048 0.41016,-1.51172 -10e-6,-0.52345 -0.12892,-1.02344 -0.38672,-1.5 -0.14064,-0.23438 -0.3047,-0.44532 -0.49219,-0.63281 0.24218,-0.10157 0.48436,-0.21485 0.72656,-0.33985 0.92968,-0.5 1.65624,-1.21484 2.17969,-2.14453 0.53124,-0.92969 0.79686,-1.90234 0.79687,-2.91797 -1e-5,-0.36718 -0.0391,-0.73047 -0.11718,-1.08984 l -11.46094,0"
         style="font-size:24px;font-variant:normal;font-weight:normal;writing-mode:lr-tb;fill:#000000;fill-opacity:1;fill-rule:nonzero;stroke:none;font-family:DejaVuSansMono;-inkscape-font-specification:DejaVuSansMono"
         id="path6808" />
      <path
         id="path5019"
         style="fill:#a2846c;fill-opacity:1;fill-rule:nonzero;stroke:none"
         d="m 178,466.8 32,0 0,32 -32,0 0,-32 z" />
      <path
         id="path5043"
         style="fill:#000000;fill-opacity:1;fill-rule:nonzero;stroke:none"
         d="m 210,466.8 32,0 0,32 -32,0 0,-32 z" />
      <path
         id="path5067"
         style="fill:#a2846c;fill-opacity:1;fill-rule:nonzero;stroke:none"
         d="m 242,466.8 32,0 0,32 -32,0 0,-32 z" />
      <path
         id="path5091"
         style="fill:#000000;fill-opacity:1;fill-rule:nonzero;stroke:none"
         d="m 274,466.8 32,0 0,32 -32,0 0,-32 z" />
      <path
         id="path5115"
         style="fill:#a2846c;fill-opacity:1;fill-rule:nonzero;stroke:none"
         d="m 306,466.8 32,0 0,32 -32,0 0,-32 z" />
      <path
         id="path5139"
         style="fill:#000000;fill-opacity:1;fill-rule:nonzero;stroke:none"
         d="m 338,466.8 32,0 0,32 -32,0 0,-32 z" />
      <path
         id="path5163"
         style="fill:#a2846c;fill-opacity:1;fill-rule:nonzero;stroke:none"
         d="m 370,466.8 32,0 0,32 -32,0 0,-32 z" />
      <path
         id="path5187"
         style="fill:#000000;fill-opacity:1;fill-rule:nonzero;stroke:none"
         d="m 402,466.8 32,0 0,32 -32,0 0,-32 z" />
      <path
         id="path5211"
         style="fill:#000000;fill-opacity:1;fill-rule:nonzero;stroke:none"
         d="m 178,434.8 32,0 0,32 -32,0 0,-32 z" />
      <path
         id="path5235"
         style="fill:#a2846c;fill-opacity:1;fill-rule:nonzero;stroke:none"
         d="m 210,434.8 32,0 0,32 -32,0 0,-32 z" />
      <path
         d="m 220.28828,442.8703 c -0.0703,0.35937 -0.10547,0.72266 -0.10546,1.08984 -1e-5,1.01563 0.26171,1.98828 0.78515,2.91797 0.52344,0.92969 1.25,1.64453 2.17969,2.14453 0.24218,0.13281 0.48828,0.24609 0.73828,0.33985 -0.1875,0.18749 -0.34766,0.39843 -0.48047,0.63281 -0.26563,0.47656 -0.39844,0.97655 -0.39844,1.5 0,0.53124 0.13281,1.03515 0.39844,1.51172 0.27343,0.47655 0.65234,0.84764 1.13672,1.11328 0.17187,0.0937 0.35156,0.17186 0.53906,0.23438 -0.16407,0.11717 -0.29688,0.26951 -0.39843,0.45703 -0.14064,0.24217 -0.21095,0.49608 -0.21094,0.76172 -1e-5,0.27342 0.0664,0.53123 0.19922,0.77343 0.14062,0.24218 0.33593,0.42968 0.58593,0.5625 0.25,0.1328 0.5039,0.19921 0.76172,0.19922 0.25781,-1e-5 0.50781,-0.0664 0.75,-0.19922 0.24999,-0.13282 0.44531,-0.32032 0.58594,-0.5625 0.14843,-0.2422 0.22265,-0.50001 0.22266,-0.77343 -1e-5,-0.26564 -0.0703,-0.51955 -0.21094,-0.76172 -0.10157,-0.18752 -0.23438,-0.34377 -0.39844,-0.46875 0.17187,-0.0547 0.35546,-0.12892 0.55078,-0.22266 0.47656,-0.26564 0.84765,-0.63673 1.11328,-1.11328 0.27343,-0.47657 0.41015,-0.98048 0.41016,-1.51172 -1e-5,-0.52345 -0.12892,-1.02344 -0.38672,-1.5 -0.14063,-0.23438 -0.3047,-0.44532 -0.49219,-0.63281 0.24218,-0.10157 0.48437,-0.21485 0.72657,-0.33985 0.92967,-0.5 1.65624,-1.21484 2.17968,-2.14453 0.53124,-0.92969 0.79687,-1.90234 0.79688,-2.91797 -1e-5,-0.36718 -0.0391,-0.73047 -0.11719,-1.08984 l -11.46094,0"
         style="font-size:24px;font-variant:normal;font-weight:normal;writing-mode:lr-tb;fill:#000000;fill-opacity:1;fill-rule:nonzero;stroke:none;font-family:DejaVuSansMono;-inkscape-font-specification:DejaVuSansMono"
         id="path6802" />
      <path
         id="path5259"
         style="fill:#000000;fill-opacity:1;fill-rule:nonzero;stroke:none"
         d="m 242,434.8 32,0 0,32 -32,0 0,-32 z" />
      <path
         id="path5283"
         style="fill:#a2846c;fill-opacity:1;fill-rule:nonzero;stroke:none"
         d="m 274,434.8 32,0 0,32 -32,0 0,-32 z" />
      <path
         id="path5307"
         style="fill:#000000;fill-opacity:1;fill-rule:nonzero;stroke:none"
         d="m 306,434.8 32,0 0,32 -32,0 0,-32 z" />
      <path
         d="m 316.28827,442.8703 c -0.0703,0.35937 -0.10547,0.72266 -0.10547,1.08984 0,1.01563 0.26172,1.98828 0.78516,2.91797 0.52343,0.92969 1.24999,1.64453 2.17968,2.14453 0.24219,0.13281 0.48828,0.24609 0.73829,0.33985 -0.18751,0.18749 -0.34767,0.39843 -0.48047,0.63281 -0.26563,0.47656 -0.39845,0.97655 -0.39844,1.5 -1e-5,0.53124 0.13281,1.03515 0.39844,1.51172 0.27343,0.47655 0.65234,0.84764 1.13672,1.11328 0.17186,0.0937 0.35155,0.17186 0.53906,0.23438 -0.16407,0.11717 -0.29688,0.26951 -0.39844,0.45703 -0.14063,0.24217 -0.21094,0.49608 -0.21094,0.76172 0,0.27342 0.0664,0.53123 0.19922,0.77343 0.14062,0.24218 0.33593,0.42968 0.58594,0.5625 0.24999,0.1328 0.5039,0.19921 0.76172,0.19922 0.2578,-1e-5 0.5078,-0.0664 0.75,-0.19922 0.24999,-0.13282 0.4453,-0.32032 0.58594,-0.5625 0.14842,-0.2422 0.22264,-0.50001 0.22265,-0.77343 -1e-5,-0.26564 -0.0703,-0.51955 -0.21094,-0.76172 -0.10157,-0.18752 -0.23438,-0.34377 -0.39843,-0.46875 0.17186,-0.0547 0.35546,-0.12892 0.55078,-0.22266 0.47655,-0.26564 0.84764,-0.63673 1.11328,-1.11328 0.27343,-0.47657 0.41015,-0.98048 0.41016,-1.51172 -10e-6,-0.52345 -0.12892,-1.02344 -0.38672,-1.5 -0.14064,-0.23438 -0.3047,-0.44532 -0.49219,-0.63281 0.24218,-0.10157 0.48436,-0.21485 0.72656,-0.33985 0.92968,-0.5 1.65624,-1.21484 2.17969,-2.14453 0.53124,-0.92969 0.79686,-1.90234 0.79687,-2.91797 -1e-5,-0.36718 -0.0391,-0.73047 -0.11718,-1.08984 l -11.46094,0"
         style="font-size:24px;font-variant:normal;font-weight:normal;writing-mode:lr-tb;fill:#a2846c;fill-opacity:1;fill-rule:nonzero;stroke:none;font-family:DejaVuSansMono;-inkscape-font-specification:DejaVuSansMono"
         id="path6805" />
      <path
         id="path5331"
         style="fill:#a2846c;fill-opacity:1;fill-rule:nonzero;stroke:none"
         d="m 338,434.8 32,0 0,32 -32,0 0,-32 z" />
      <path
         id="path5355"
         style="fill:#000000;fill-opacity:1;fill-rule:nonzero;stroke:none"
         d="m 370,434.8 32,0 0,32 -32,0 0,-32 z" />
      <path
         id="path5379"
         style="fill:#a2846c;fill-opacity:1;fill-rule:nonzero;stroke:none"
         d="m 402,434.8 32,0 0,32 -32,0 0,-32 z" />
      <path
         id="path5403"
         style="fill:#a2846c;fill-opacity:1;fill-rule:nonzero;stroke:none"
         d="m 178,402.8 32,0 0,32 -32,0 0,-32 z" />
      <path
         id="path5427"
         style="fill:#000000;fill-opacity:1;fill-rule:nonzero;stroke:none"
         d="m 210,402.8 32,0 0,32 -32,0 0,-32 z" />
      <path
         id="path5451"
         style="fill:#a2846c;fill-opacity:1;fill-rule:nonzero;stroke:none"
         d="m 242,402.8 32,0 0,32 -32,0 0,-32 z" />
      <path
         id="path5475"
         style="fill:#000000;fill-opacity:1;fill-rule:nonzero;stroke:none"
         d="m 274,402.8 32,0 0,32 -32,0 0,-32 z" />
      <path
         id="path5499"
         style="fill:#a2846c;fill-opacity:1;fill-rule:nonzero;stroke:none"
         d="m 306,402.8 32,0 0,32 -32,0 0,-32 z" />
      <path
         id="path5523"
         style="fill:#000000;fill-opacity:1;fill-rule:nonzero;stroke:none"
         d="m 338,402.8 32,0 0,32 -32,0 0,-32 z" />
      <path
         id="path5547"
         style="fill:#a2846c;fill-opacity:1;fill-rule:nonzero;stroke:none"
         d="m 370,402.8 32,0 0,32 -32,0 0,-32 z" />
      <path
         id="path5571"
         style="fill:#000000;fill-opacity:1;fill-rule:nonzero;stroke:none"
         d="m 402,402.8 32,0 0,32 -32,0 0,-32 z" />
      <path
         id="path5595"
         style="fill:#000000;fill-opacity:1;fill-rule:nonzero;stroke:none"
         d="m 178,370.8 32,0 0,32 -32,0 0,-32 z" />
      <path
         id="path5619"
         style="fill:#a2846c;fill-opacity:1;fill-rule:nonzero;stroke:none"
         d="m 210,370.8 32,0 0,32 -32,0 0,-32 z" />
      <path
         id="path5643"
         style="fill:#000000;fill-opacity:1;fill-rule:nonzero;stroke:none"
         d="m 242,370.8 32,0 0,32 -32,0 0,-32 z" />
      <path
         id="path5667"
         style="fill:#a2846c;fill-opacity:1;fill-rule:nonzero;stroke:none"
         d="m 274,370.8 32,0 0,32 -32,0 0,-32 z" />
      <path
         id="path5691"
         style="fill:#000000;fill-opacity:1;fill-rule:nonzero;stroke:none"
         d="m 306,370.8 32,0 0,32 -32,0 0,-32 z" />
      <path
         id="path5715"
         style="fill:#a2846c;fill-opacity:1;fill-rule:nonzero;stroke:none"
         d="m 338,370.8 32,0 0,32 -32,0 0,-32 z" />
      <path
         id="path5739"
         style="fill:#000000;fill-opacity:1;fill-rule:nonzero;stroke:none"
         d="m 370,370.8 32,0 0,32 -32,0 0,-32 z" />
      <path
         id="path5763"
         style="fill:#a2846c;fill-opacity:1;fill-rule:nonzero;stroke:none"
         d="m 402,370.8 32,0 0,32 -32,0 0,-32 z" />
    </g>
    <g
       transform="matrix(0.9375,0,0,-0.9375,117.75,1368.3415)"
       id="g3381">
      <text
         style="font-size:9.60000038px"
         y="-652.40002"
         x="144.01855"
         transform="scale(1,-1)"
         id="text7673">
        <tspan
           style="font-size:12.80000019px;font-variant:normal;font-weight:normal;writing-mode:lr-tb;fill:#1d1916;fill-opacity:1;fill-rule:nonzero;stroke:none;font-family:Palatino;-inkscape-font-specification:Palatino-Roman"
           x="144.01855 151.8624 159.312 165.61856 168.81856 172.54335 178.94336 183.99936 191.11871 197.61856 200.81856 204.54335 215.8432 222.24319 229.36256 236.01855 239.21855 246.20607 254.41856 257.61856 261.79391 269.2435 276.01855 279.21854 282.94336 289.07455 293.33694 297.61853 300.81854 311.49374 317.89374 324.01855 327.21854 333.61853 339.04318 344.46783 350.599 361.89886 368.97983 372.70462 378.83582 387.21729 390.41727 394.67966 399.73566 406.72318 418.41727 421.61728 425.7926 436.46783 444.01727 447.21729 454.20477 459.21729 462.41727 466.59262 474.04224"
           y="-652.40002"
           sodipodi:role="line"
           id="tspan7675">The large image on the left was assembled from two of the</tspan>
      </text>
      <text
         style="font-size:9.60000038px"
         y="-634"
         x="144.01855"
         transform="scale(1,-1)"
         id="text7679">
        <tspan
           style="font-size:12.80000019px;font-variant:normal;font-weight:normal;writing-mode:lr-tb;fill:#1d1916;fill-opacity:1;fill-rule:nonzero;stroke:none;font-family:Palatino;-inkscape-font-specification:Palatino-Roman"
           x="144.01855 149.44319 160.74304 167.14304 170.86784 175.21729"
           y="-634"
           sodipodi:role="line"
           id="tspan7681">small</tspan>
      </text>
      <text
         style="font-size:9.60000038px"
         y="-634"
         x="178.41856"
         transform="scale(1,-1)"
         id="text7685">
        <tspan
           style="font-size:12.80000019px;font-variant:normal;font-weight:normal;writing-mode:lr-tb;fill:#1d1916;fill-opacity:1;fill-rule:nonzero;stroke:none;font-family:Palatino;-inkscape-font-specification:Palatino-Roman"
           x="178.41856 182.14336 193.44319 199.8432 206.96255 213.09377 219.21855 222.41856 229.40608 237.61856 240.81856 244.99391 252.44351 259.21854 262.41855 267.47455 271.19934 278.3187 285.76831 289.94366 293.61853 296.81854 303.80606 311.25568 317.61853 320.81854 325.08093 330.13693 337.12445 348.81854 352.01855 356.19391 363.64349 370.41855 373.61853 377.88095 381.60574 386.66174 392.0864 396.81726 400.01727 405.07324 412.06079 423.21729 426.41727 432.81726 440.26685 448.81726 452.01727 459.00476 466.45438"
           y="-634"
           sodipodi:role="line"
           id="tspan7687">images on the right: one from the first row and one</tspan>
      </text>
      <text
         style="font-size:9.60000038px"
         y="-615.59998"
         x="144.01855"
         transform="scale(1,-1)"
         id="text7691">
        <tspan
           style="font-size:12.80000019px;font-variant:normal;font-weight:normal;writing-mode:lr-tb;fill:#1d1916;fill-opacity:1;fill-rule:nonzero;stroke:none;font-family:Palatino;-inkscape-font-specification:Palatino-Roman"
           x="144.01855 148.28096 153.33696 160.32448 172.01855 175.21855 179.39392 186.84352 193.61856"
           y="-615.59998"
           sodipodi:role="line"
           id="tspan7693">from the</tspan>
      </text>
      <text
         style="font-size:9.60000038px"
         y="-615.59998"
         x="196.81856"
         transform="scale(1,-1)"
         id="text7697">
        <tspan
           style="font-size:12.80000019px;font-variant:normal;font-weight:normal;writing-mode:lr-tb;fill:#1d1916;fill-opacity:1;fill-rule:nonzero;stroke:none;font-family:Palatino;-inkscape-font-specification:Palatino-Roman"
           x="196.81856 202.24319 208.3744 214.05504 221.04256 228.49216 236.31039 240.01727"
           y="-615.59998"
           sodipodi:role="line"
           id="tspan7699">second.</tspan>
      </text>
      <text
         style="font-size:9.60000038px"
         y="-615.59998"
         x="243.21855"
         transform="scale(1,-1)"
         id="text7703">
        <tspan
           style="font-size:12.80000019px;font-variant:normal;font-weight:normal;writing-mode:lr-tb;fill:#1d1916;fill-opacity:1;fill-rule:nonzero;stroke:none;font-family:Palatino;-inkscape-font-specification:Palatino-Roman"
           x="243.21855 250.94975 254.67456 260.80576 267.20575 272.63037 279.21725 282.41727 288.0979 291.82269 295.54752 301.22815 308.81598 312.01599 319.00351 327.21597 330.41599 334.59134 342.04095 348.81598 352.01599 356.19135 366.86655 374.41599 377.61597 383.04062 394.34045 400.74048 404.46527 408.8147 412.01471 415.7395 427.03934 433.43933 440.55872 446.68991 452.8147 456.01471 460.19006 467.63965 474.03967"
           y="-615.59998"
           sodipodi:role="line"
           id="tspan7705">Please click on the two small images that</tspan>
      </text>
      <text
         style="font-size:9.60000038px"
         y="-597.20001"
         x="144.01855"
         transform="scale(1,-1)"
         id="text7709">
        <tspan
           style="font-size:12.80000019px;font-variant:normal;font-weight:normal;writing-mode:lr-tb;fill:#1d1916;fill-opacity:1;fill-rule:nonzero;stroke:none;font-family:Palatino;-inkscape-font-specification:Palatino-Roman"
           x="144.01855 155.31841 161.7184 168.83775 175.21855 178.41856 186.13696 194.41856 197.61856 201.79391 209.24352 216.01855"
           y="-597.20001"
           sodipodi:role="line"
           id="tspan7711">make up the</tspan>
      </text>
      <text
         style="font-size:9.60000038px"
         y="-597.20001"
         x="219.21855"
         transform="scale(1,-1)"
         id="text7715">
        <tspan
           style="font-size:12.80000019px;font-variant:normal;font-weight:normal;writing-mode:lr-tb;fill:#1d1916;fill-opacity:1;fill-rule:nonzero;stroke:none;font-family:Palatino;-inkscape-font-specification:Palatino-Roman"
           x="219.21855 222.94336 229.34335 234.39935 241.51872 248.01855 251.21855 258.20609 265.65567 271.78687"
           y="-597.20001"
           sodipodi:role="line"
           id="tspan7717">large one.</tspan>
      </text>
      <path
         id="path7837"
         d="m 143.6,568.4 c 0,-26.13334 0,-52.26666 0,-78.4 26.13334,0 52.26666,0 78.4,0 0,26.13334 0,52.26666 0,78.4 -26.13334,0 -52.26666,0 -78.4,0 z m 3.2,-3.2 c 24,0 48,0 72,0 0,-24 0,-48 0,-72 -24,0 -48,0 -72,0 0,24 0,48 0,72 z"
         style="fill:#d2b48c;fill-opacity:1;fill-rule:nonzero;stroke:none" />
      <path
         id="path7855"
         style="fill:#000000;fill-opacity:1;fill-rule:nonzero;stroke:none"
         d="m 182.8,529.2 18,0 0,-18 -18,0 0,18 z m -18,18 18,0 0,-18 -18,0 0,18 z" />
      <path
         id="path7857"
         style="fill:#000000;fill-opacity:1;fill-rule:nonzero;stroke:none"
         d="m 164.8,529.2 18,0 0,-18 -18,0 0,18 z m 18,18 18,0 0,-18 -18,0 0,18 z" />
      <path
         id="path7861"
         style="fill:#000000;fill-opacity:1;fill-rule:nonzero;stroke:none"
         d="m 146.8,565.2 18,0 0,-54 -18,0 0,54 z m 54,-18 18,0 0,-54 -18,0 0,54 z" />
      <path
         id="path7871"
         d="m 296.4,574 c 0,-14.13334 0,-28.26666 0,-42.4 14.13334,0 28.26666,0 42.4,0 0,14.13334 0,28.26666 0,42.4 -14.13334,0 -28.26666,0 -42.4,0 z m 3.2,-3.2 c 12,0 24,0 36,0 0,-12 0,-24 0,-36 -12,0 -24,0 -36,0 0,12 0,24 0,36 z"
         style="fill:#d2b48c;fill-opacity:1;fill-rule:nonzero;stroke:none" />
      <path
         id="path7905"
         d="m 343.6,574 c 0,-14.13334 0,-28.26666 0,-42.4 14.13334,0 28.26666,0 42.4,0 0,14.13334 0,28.26666 0,42.4 -14.13334,0 -28.26666,0 -42.4,0 z m 3.2,-3.2 c 12,0 24,0 36,0 0,-12 0,-24 0,-36 -12,0 -24,0 -36,0 0,12 0,24 0,36 z"
         style="fill:#d2b48c;fill-opacity:1;fill-rule:nonzero;stroke:none" />
      <path
         id="path7923"
         style="fill:#000000;fill-opacity:1;fill-rule:nonzero;stroke:none"
         d="m 364.8,552.8 9,0 0,-9 -9,0 0,9 z m -9,9 9,0 0,-9 -9,0 0,9 z" />
      <path
         id="path7939"
         d="m 390.8,574 c 0,-14.13334 0,-28.26666 0,-42.4 14.13334,0 28.26666,0 42.4,0 0,14.13334 0,28.26666 0,42.4 -14.13334,0 -28.26666,0 -42.4,0 z m 3.2,-3.2 c 12,0 24,0 36,0 0,-12 0,-24 0,-36 -12,0 -24,0 -36,0 0,12 0,24 0,36 z"
         style="fill:#d2b48c;fill-opacity:1;fill-rule:nonzero;stroke:none" />
      <path
         id="path7959"
         style="fill:#000000;fill-opacity:1;fill-rule:nonzero;stroke:none"
         d="m 403,552.8 9,0 0,-9 -9,0 0,9 z m 9,9 9,0 0,-9 -9,0 0,9 z" />
      <path
         id="path7973"
         d="m 438,574 c 0,-14.13334 0,-28.26666 0,-42.4 14.13334,0 28.26666,0 42.4,0 0,14.13334 0,28.26666 0,42.4 -14.13334,0 -28.26666,0 -42.4,0 z m 3.2,-3.2 c 12,0 24,0 36,0 0,-12 0,-24 0,-36 -12,0 -24,0 -36,0 0,12 0,24 0,36 z"
         style="fill:#d2b48c;fill-opacity:1;fill-rule:nonzero;stroke:none" />
      <path
         id="path7991"
         style="fill:#000000;fill-opacity:1;fill-rule:nonzero;stroke:none"
         d="m 459.2,552.8 9,0 0,-9 -9,0 0,9 z m -9,9 9,0 0,-9 -9,0 0,9 z" />
      <path
         id="path7993"
         style="fill:#000000;fill-opacity:1;fill-rule:nonzero;stroke:none"
         d="m 450.2,552.8 9,0 0,-9 -9,0 0,9 z m 9,9 9,0 0,-9 -9,0 0,9 z" />
      <path
         id="path8007"
         d="m 296.4,526.8 c 0,-14.13334 0,-28.26666 0,-42.4 14.13334,0 28.26666,0 42.4,0 0,14.13334 0,28.26666 0,42.4 -14.13334,0 -28.26666,0 -42.4,0 z m 3.2,-3.2 c 12,0 24,0 36,0 0,-12 0,-24 0,-36 -12,0 -24,0 -36,0 0,12 0,24 0,36 z"
         style="fill:#d2b48c;fill-opacity:1;fill-rule:nonzero;stroke:none" />
      <path
         id="path8041"
         d="m 343.6,526.8 c 0,-14.13334 0,-28.26666 0,-42.4 14.13334,0 28.26666,0 42.4,0 0,14.13334 0,28.26666 0,42.4 -14.13334,0 -28.26666,0 -42.4,0 z m 3.2,-3.2 c 12,0 24,0 36,0 0,-12 0,-24 0,-36 -12,0 -24,0 -36,0 0,12 0,24 0,36 z"
         style="fill:#d2b48c;fill-opacity:1;fill-rule:nonzero;stroke:none" />
      <path
         id="path8063"
         style="fill:#000000;fill-opacity:1;fill-rule:nonzero;stroke:none"
         d="m 346.8,496.6 27,0 0,-9 -27,0 0,9 z m 9,27 27,0 0,-9 -27,0 0,9 z" />
      <path
         id="path8075"
         d="m 390.8,526.8 c 0,-14.13334 0,-28.26666 0,-42.4 14.13334,0 28.26666,0 42.4,0 0,14.13334 0,28.26666 0,42.4 -14.13334,0 -28.26666,0 -42.4,0 z m 3.2,-3.2 c 12,0 24,0 36,0 0,-12 0,-24 0,-36 -12,0 -24,0 -36,0 0,12 0,24 0,36 z"
         style="fill:#d2b48c;fill-opacity:1;fill-rule:nonzero;stroke:none" />
      <path
         id="path8099"
         style="fill:#000000;fill-opacity:1;fill-rule:nonzero;stroke:none"
         d="m 394,523.6 9,0 0,-27 -9,0 0,27 z m 27,-9 9,0 0,-27 -9,0 0,27 z" />
      <path
         id="path8109"
         d="m 438,526.8 c 0,-14.13334 0,-28.26666 0,-42.4 14.13334,0 28.26666,0 42.4,0 0,14.13334 0,28.26666 0,42.4 -14.13334,0 -28.26666,0 -42.4,0 z m 3.2,-3.2 c 12,0 24,0 36,0 0,-12 0,-24 0,-36 -12,0 -24,0 -36,0 0,12 0,24 0,36 z"
         style="fill:#d2b48c;fill-opacity:1;fill-rule:nonzero;stroke:none" />
      <path
         id="path8125"
         style="fill:#ffffff;fill-opacity:1;fill-rule:nonzero;stroke:none"
         d="m 441.2,487.6 36,0 0,36 -36,0 0,-36 z" />
      <path
         id="path8131"
         style="fill:#000000;fill-opacity:1;fill-rule:nonzero;stroke:none"
         d="m 441.2,496.6 27,0 0,-9 -27,0 0,9 z m 9,27 27,0 0,-9 -27,0 0,9 z" />
      <path
         id="path8133"
         style="fill:#000000;fill-opacity:1;fill-rule:nonzero;stroke:none"
         d="m 441.2,523.6 9,0 0,-27 -9,0 0,27 z m 27,-9 9,0 0,-27 -9,0 0,27 z" />
    </g>
    <g
       id="g3599"
       transform="matrix(0.75,0,0,0.75,-102.375,-32.555027)">
      <path
         id="path9764"
         style="fill:#a8b5e6;fill-opacity:1;fill-rule:nonzero;stroke:none"
         d="m 450,377.36201 467,0 0,-31 -467,0 0,31 z" />
      <text
         style="font-size:12px"
         y="322.36163"
         x="466.43442"
         id="text10114">
        <tspan
           style="font-size:16px;font-variant:normal;font-weight:normal;writing-mode:lr-tb;fill:#1d1916;fill-opacity:1;fill-rule:nonzero;stroke:none;font-family:Palatino;-inkscape-font-specification:Palatino-Roman"
           x="466.43442 476.09842 480.75443 488.41843 496.41843 503.19922 511.4328 515.43286 520.65204 529.55121 539.16882 547.43445 551.43445 559.43445 564.09045 569.43445 573.43445 578.65363 587.96564 596.43445 600.43445 613.77844 622.51282 628.83282 638.60559 645.43445 649.43445 656.21527 665.52722 674.26166 687.60565 697.43445 701.43445 710.28564 717.94965 722.60565 731.34003 744.68408 749.43445 753.43445 758.65369 767.96564 775.62964 785.43445 789.43445 799.05206 805.37201 813.03601 819.81683"
           y="322.36163"
           sodipodi:role="line"
           id="tspan10116">Please type all the words shown below, then press RETURN.</tspan>
      </text>
      <text
         style="font-size:12px"
         y="366.36203"
         x="509"
         id="text10126">
        <tspan
           style="font-size:20px;font-style:italic;font-variant:normal;writing-mode:lr-tb;fill:#1d1916;fill-opacity:1;fill-rule:nonzero;stroke:none;font-family:Palatino;-inkscape-font-specification:Palatino-Italic"
           x="509 514.55603 523.43201 537.99799 542.99799 552.99799 561.87402 572.99799 582.99799"
           y="366.36203"
           sodipodi:role="line"
           id="tspan10128">low hang</tspan>
      </text>
      <text
         style="font-size:12px"
         y="366.36203"
         x="630"
         id="text10138">
        <tspan
           style="font-size:20px;font-style:italic;font-variant:normal;writing-mode:lr-tb;fill:#1d1916;fill-opacity:1;fill-rule:nonzero;stroke:none;font-family:Palatino;-inkscape-font-specification:Palatino-Italic"
           x="630 644.44397 653 658 663.55603 669.112 674.66797 682.99799 687.99799 696.87402 702.43005 711.30603 722.43005 730.99597"
           y="366.36203"
           sodipodi:role="line"
           id="tspan10140">we life alone</tspan>
      </text>
      <text
         style="font-size:12px"
         y="366.36203"
         x="818"
         id="text10158">
        <tspan
           style="font-size:20px;font-style:italic;font-variant:normal;writing-mode:lr-tb;fill:#1d1916;fill-opacity:1;fill-rule:nonzero;stroke:none;font-family:Palatino;-inkscape-font-specification:Palatino-Italic"
           x="818 823.55603 829.112 840.23596 849 854 862.14398 871.02002 878.80396"
           y="366.36203"
           sodipodi:role="line"
           id="tspan10160">line cost</tspan>
      </text>
    </g>
  </g>
</svg>
