<?xml version="1.0" encoding="UTF-8" standalone="no"?>
<?xml-stylesheet type="text/css" href="r/fonts.css"?>
<svg xmlns="http://www.w3.org/2000/svg" version="1.1" viewBox="0 0 559 351">
<g style="font:10px Cabin">
  <text x="290.03088" y="346.55698">Page Load</text>
  <text x="290.04083" y="158.47826">Page Load</text>
  <text style="text-anchor:middle;text-align:center" transform="rotate(-90)" x="-264.32193" y="9.5">Log likelihood (IMDB)</text>
  <text style="text-anchor:middle;text-align:center" transform="rotate(-90)" x="-69.856163" y="9.5">Log likelihood (Facebook)</text>
</g>
<g style="font:8px Cabin">
  <text x="91.443596" y="287.02545">Log likelihood (IMDB)</text>
  <text x="91.443596" y="297.69711">Visits to IMDB</text>
  <text x="91.443596" y="307.80737">Visits to other sites</text>
  <text x="399.55405" y="103.14533">Log likelihood (Facebook)</text>
  <text x="399.55405" y="112.47561">Visits to Facebook</text>
  <text x="399.55405" y="120.84454">Visits to other sites</text>
  <g style="text-anchor:end;text-align:end">
    <text x="27.506756" y="324.26398">0</text>
    <text x="27.506756" y="307.05399">5</text>
    <text x="27.506756" y="289.806">10</text>
    <text x="27.506756" y="272.60898">15</text>
    <text x="27.506756" y="255.42601">20</text>
    <text x="27.506756" y="237.99001">25</text>
    <text x="27.506756" y="220.89403">30</text>
    <text x="27.506756" y="203.80701">35</text>
    <text x="27.506756" y="131.4077">0</text>
    <text x="27.506756" y="113.734">5</text>
    <text x="27.506756" y="96.137001">10</text>
    <text x="27.506756" y="78.176003">15</text>
    <text x="27.506756" y="60.692001">20</text>
    <text x="27.506756" y="43.056999">25</text>
    <text x="27.506756" y="25.259998">30</text>
    <text x="27.506756" y="7.7119999">35</text>
  </g>
  <g style="text-anchor:middle;text-align:center">
    <text x="61.387062" y="142.99501">16</text>
    <text x="88.610756" y="142.99501">32</text>
    <text x="115.5892" y="142.99501">48</text>
    <text x="142.8129" y="142.99501">64</text>
    <text x="170.03659" y="142.99501">80</text>
    <text x="197.01501" y="142.99501">96</text>
    <text x="224.23874" y="142.99501">112</text>
    <text x="251.21716" y="142.99501">128</text>
    <text x="278.44089" y="142.99501">144</text>
    <text x="305.41931" y="142.99501">160</text>
    <text x="332.64301" y="142.99501">176</text>
    <text x="359.62146" y="142.99501">192</text>
    <text x="386.84515" y="142.99501">208</text>
    <text x="414.06885" y="142.99501">224</text>
    <text x="441.04727" y="142.99501">240</text>
    <text x="468.27097" y="142.99501">256</text>
    <text x="495.49466" y="142.99501">272</text>
    <text x="522.47308" y="142.99501">288</text>
    <text x="549.69678" y="142.99501">304</text>
    <text x="61.822762" y="334.647">11</text>
    <text x="88.535507" y="334.647">22</text>
    <text x="115.99004" y="334.647">33</text>
    <text x="142.93179" y="334.647">44</text>
    <text x="169.70816" y="334.647">55</text>
    <text x="196.88589" y="334.647">66</text>
    <text x="223.91464" y="334.647">77</text>
    <text x="251.00403" y="334.647">88</text>
    <text x="278.19562" y="334.647">99</text>
    <text x="305.17404" y="334.647">110</text>
    <text x="332.1525" y="334.647">121</text>
    <text x="359.13092" y="334.647">132</text>
    <text x="386.35461" y="334.647">143</text>
    <text x="413.33307" y="334.647">154</text>
    <text x="440.31149" y="334.647">165</text>
    <text x="467.53522" y="334.647">176</text>
    <text x="494.51364" y="334.647">187</text>
    <text x="521.49207" y="334.647">198</text>
    <text x="548.71576" y="334.647">209</text>
  </g>
</g>
<path fill="none" stroke="#000" stroke-width="0.662" stroke-linecap="round" stroke-linejoin="round" d="m36.167,128.73,0-123.75m-5.6278,123.75,5.6278,0m-5.6278-17.679,5.6278,0m-5.6278-17.675,5.6278,0m-5.6278-17.679,5.6278,0m-5.6278-17.681,5.6278,0m-5.6278-17.681,5.6278,0m-5.6278-17.674,5.6278,0m-5.6278-17.681,5.6278,0m0,123.75,513.58,0m-488.15,5.6278,0-5.6278m27.12,5.6278,0-5.6278m27.121,5.6278,0-5.6278m27.12,5.6278,0-5.6278m27.121,5.6278,0-5.6278m27.12,5.6278,0-5.6278m27.12,5.6278,0-5.6278m27.116,5.6278,0-5.6278m27.121,5.6278,0-5.6278m27.12,5.6278,0-5.6278m27.12,5.6278,0-5.6278m27.121,5.6278,0-5.6278m27.12,5.6278,0-5.6278m27.121,5.6278,0-5.6278m27.12,5.6278,0-5.6278m27.121,5.6278,0-5.6278m27.12,5.6278,0-5.6278m27.121,5.6278,0-5.6278m27.114,5.6278,0-5.6278M37.161,321.7v-120.77m-5.6278,120.77h5.6278m-5.6278-17.25h5.6278m-5.6278-17.25h5.6278m-5.6278-17.257h5.6278m-5.6278-17.25h5.6278m-5.6278-17.25h5.6278m-5.6278-17.256h5.6278m-5.6278-17.252h5.6278m0,120.77h511.57m-486.98,5.6278v-5.6278m27.057,5.6278v-5.6278m27.053,5.6278v-5.6278m27.053,5.6278v-5.6278m27.052,5.6278v-5.6278m27.059,5.6278v-5.6278m27.053,5.6278v-5.6278m27.052,5.6278v-5.6278m27.053,5.6278v-5.6278m27.059,5.6278v-5.6278m27.052,5.6278v-5.6278m27.053,5.6278v-5.6278m27.053,5.6278v-5.6278m27.057,5.6278v-5.6278m27.053,5.6278v-5.6278m27.053,5.6278v-5.6278m27.052,5.6278v-5.6278m27.059,5.6278v-5.6278m27.053,5.6278v-5.6278"/>
<path fill="none" stroke="#000080" stroke-width="0.662" stroke-linecap="round" d="m369.26,101.15h25.822M55.617,285.03h31.119"/>
<path fill="#000080" d="m382.17,99.821,1.3242,1.3242-1.3242,1.3242-1.3242-1.3242,1.3242-1.3242zM71.177,283.04l1.9863,1.9863-1.9863,1.9863-1.9863-1.9863,1.9863-1.9863z"/>
<path fill="#f0f" d="m380.19,107.53h3.9726v3.9726h-3.9726zM69.19,292.95h3.9726v3.9726h-3.9726z"/>
<path fill="none" stroke="#000" stroke-width="0.662" stroke-linecap="round" d="m369.26,117.88h25.822M55.617,304.85h31.119"/>
<path fill="none" stroke="#000" stroke-width="0.662" stroke-linecap="round" d="m37.161,221.64,24.592,0m9.8375,0,36.892,0m9.8388,0,14.757,0m9.8388,0,59.03,0m9.8335,0,22.138,0m9.8388,0,46.73,0m9.8388,0,31.971,0m9.8388,0,39.349,0m9.8388,0,95.921,0m9.8388,0,14.757,0m9.8388,0,27.053,0m-512.57-177.77h25.425m8.4722,0,23.732,0m6.7812,0,10.17,0m6.7812,0,59.32,0m6.7812,0,42.374,0m6.7812,0,49.156,0m5.0849,0,45.762,0m6.7826,0,42.374,0m6.7812,0,66.101,0m6.7812,0,10.169,0m6.7812,0,71.186,0"/>
<path fill="#f0f" d="m 48.161,41.897 0,3.96875 14.125,0 0,-3.96875 z m 86.4375,0 0,3.96875 20.90625,0 0,-3.96875 z m 54.25,0 0,3.96875 29.375,0 0,-3.96875 z m 55.90625,0 0,3.96875 17.53125,0 0,-3.96875 z m 42.375,0 0,3.96875 26.03125,0 0,-3.96875 z m 66.125,0 0,3.96875 17.53125,0 0,-3.96875 z m 130.5,0 0,3.96875 39.5625,0 0,-3.96875 z m 42.375,0 0,3.96875 17.53125,0 0,-3.96875 z m -483.15625,177.75 0,3.96875 21.1875,0 0,-3.96875 z m 29.5,0 0,3.96875 11.34375,0 0,-3.96875 z m 46.71875,0 0,3.96875 6.4375,0 0,-3.96875 z m 9.84375,0 0,3.96875 6.4375,0 0,-3.96875 z m 14.75,0 0,3.96875 4,0 0,-3.96875 z m 32,0 0,3.96875 23.625,0 0,-3.96875 z m 54.09375,0 0,3.96875 3.96875,0 0,-3.96875 z m 14.75,0 0,3.96875 11.375,0 0,-3.96875 z m 34.4375,0 0,3.96875 13.8125,0 0,-3.96875 z m 22.125,0 0,3.96875 3.96875,0 0,-3.96875 z m 46.75,0 0,3.96875 3.96875,0 0,-3.96875 z m 46.71875,0 0,3.96875 40.875,0 0,-3.96875 z m 41.8125,0 0,3.96875 53.15625,0 0,-3.96875 z m 59.03125,0 0,3.96875 18.71875,0 0,-3.96875 z m 31.96875,0 0,3.96875 3.96875,0 0,-3.96875 z m 19.6875,0 0,3.96875 3.96875,0 0,-3.96875 z"/>
<path fill="none" stroke="#000080" stroke-linejoin="round" stroke-linecap="round" stroke-width="0.662" d="m42.075,220.98,2.463,5.0478,2.4564,9.2336,2.463-12.828m22.133,27.326,2.463,0,2.4564-0.82233,2.463,1.454,2.4564-4.1222,2.463-12.647,2.4564-12.653,2.4617,0,2.4577-13.739,4.9194,0m22.134,36.1,2.4617,12.3m22.134-34.217,2.4617-1.7585,2.4577-12.425,9.8375,0,2.4577,5.3842,2.4617,1.4023,2.4577,3.1609,2.4617,16.237,2.4564,0.0358,2.463,0.76538,2.4564-13.247,2.463,0,2.4564,11.975,2.4617-11.975,2.4577,13.739,2.4617,0.95739,2.4577-0.95739m22.134-27.477,9.8375,0m22.139,25.005,2.4577,1.4328,2.4617,1.3136,2.4564-14.013,9.8388,0,2.4577-13.739,2.4617,13.739,2.4564,10.035,2.463,9.4561,2.4564,11.98,2.463,14.411,2.4564,9.2323m22.139-33.395,2.4564-8.6219,2.463-12.425,2.4564,0,2.463-14.411,9.8322,0m22.139,0,19.676,0,2.4577,0.1867,2.4564,3.1596,2.463-3.3462m22.134,46.358,2.4617,10.821,2.4564-3.1913,2.463,0.32045,2.4564,0.3721,2.463,1.3454,2.4564,15.14,2.463,0.80247,2.4564-2.3955,2.4617,1.8777,2.4577-2.4206,2.4617,0.99315,2.4577,3.7912,2.4564-12.425,2.463,0,2.4564-2.3637,2.4617-3.9832,2.4577-0.35091,2.4617-12.119,2.4577,16.903,2.4617-9.2641,2.4577,0.80246,2.4617-12.425,2.4564,6.9573,2.463-12.514,2.4564-2.9066,2.463,16.004,2.4564,0.80115,2.4617,17.577,2.4577-14.018,2.4617,1.593,2.4577-12.425,2.4617-12.822,2.4577-3.1913,2.4564-0.77069m22.139,46.129,2.4564,0.22776m22.139-54.819,7.3758,0,2.4577-14.411,2.4617,0,2.4577,13.739m-500.31-198.19,1.698-10.412l1.691,0.03575,1.6963,10.971,1.6976,17.681,1.691,7.9598,1.6963,17.127,1.6963,7.7121,1.6923,18.156,1.6963,0.68858,1.6963-13.796m16.946-66.5,5.0902,0,1.691,1.397,1.6963-1.397,1.6976,0,1.691,15.543,1.6963-0.03575,1.6976,0.03575m15.253-11.695,1.691-1.4328m15.26,14.24,1.691-11.845,1.6963-0.45022,1.6976,6.331,1.691-8.2762,1.6963,0,1.6976,2.8656,1.691,12.829,1.6963,8.8761,1.6963,7.5572,1.6923,12.534,1.6963,13.18,1.6963,13.76,1.6923-0.24366,1.6963,10.293,1.6963-2.7822,1.691-10.496,1.6976-18.642,1.6963-11.131,1.6963-18.642,1.6923-11.272,1.6963-9.7037,1.6963-1.397,10.17,0,1.691,5.2809,1.6963,1.4328m15.255,23.045,1.6963,10.314,1.6963,21.492,1.6923,7.7121,1.6963,17.613,1.6963,1.4328,1.6923,0.23306,1.6963,0.39859,1.6963,6.5535,1.691-7.9187,1.6976-6.8806,1.6963,7.8472,1.691-7.9187,1.6963,1.4368,1.6976,6.482,1.691-10.733,1.6963-18.643,1.6976-11.126,1.691-18.647,1.6963-17.608,1.6963-11.799m15.255,0,3.3886,0,1.6963,17.644,1.6963,12.534,1.691,15.373,1.6976,15.586,1.6963,10.127,1.691,15.198,1.6963,1.4328,1.6976,2.4471,1.691-5.6027,1.6963-6.1032,1.6976-17.209,1.691-13.217,1.6963-15.828,1.6963-9.2125,1.6976-11.514,1.691-9.709,1.6963,6.3005,1.6963-8.2458,5.0849,0m15.255,56.366,1.691,15.792,1.6963,0.3721,1.6976,0.50186,1.691,5.6226,1.6963,4.3354,1.6976-5.359,1.6963,2.4471,1.691-0.55353,1.6963-7.6711,1.6976-16.175,1.691-13.796,1.6963-7.7333,1.6963-10.645,1.6923-13.092,1.6963-10.412,11.866,0m15.255,0,1.6963,0,1.691,2.4153,1.6963,1.4328,1.6976,9.2959,1.691,13.568,1.6963,8.2299,1.6963,15.197,1.6923,4.3407,1.6963,15.796,1.6963,2.5968,1.6923,2.1982,1.6963,0.0888,1.6963-10.48,1.6923-9.2072,1.6963-13.098,1.6963-16.248,1.691-10.494,1.6976-15.632,3.3926,0m15.255,0,27.12,0,1.691,1.397,1.6976-1.397,16.95,0,1.6923,1.397,1.6963-1.397,1.6963,0,1.6923,1.397,1.6963-0.59589,1.6963-0.80114m15.255,0,1.6963,0m15.253,15.647,1.6923,9.5395,1.6963,15.129,1.6963,13.423,1.6976-1.5824,1.691,14.116,1.6963-3.0682,1.6963-2.6947,1.6923,5.9496,1.6963,2.8179,1.6963,10.976,1.6923,5.0492,1.6963,0.24365,1.6963-5.9695,1.691-6.9627,1.6976,0,1.6963,2.1214,1.691,3.5687,1.6976-2.4524,1.6963,0.33105,1.691,2.4524,1.6963-16.248,1.6976-10.681,1.691-13.796,1.6963,0,1.6963,1.1017,1.6976-1.7638,1.691,20.892,1.6963,11.385,1.6976,17.996,1.691-2.7835,1.6963,0.4767,1.6963-5.2968,1.6923-17.613,1.6963-16.248,1.6963-11.307,1.6923-10.225,1.6963-13.423"/>
<path fill="#000080" d="m37.878,11.022-1.3438,1.3125,1.3438,1.3438,0.8125-0.8125,0.875,0.84375,1.3125-1.3125-1.3125-1.3438-0.84375,0.84375-0.84375-0.875zm32.188,0.03125-1.3125,1.3438,1.3125,1.3125,0.84375-0.84375,0.84375,0.84375,0.84375-0.84375,0.875,0.84375,0.84375-0.84375,0.84375,0.84375,1.3125-1.3125-1.3125-1.3438-0.84375,0.84375-0.84375-0.84375-0.875,0.84375-0.84375-0.84375-0.84375,0.875-0.84375-0.875zm8.4688,0-1.3125,1.3438,1.3125,1.3125,0.875-0.84375,0.84375,0.84375,1.3125-1.3125-1.3125-1.3438-0.84375,0.84375-0.875-0.84375zm76.281,0-1.3125,1.3438,1.3125,1.3125,0.84375-0.84375,0.84375,0.84375,0.84375-0.84375,0.875,0.84375,0.84375-0.84375,0.84375,0.84375,0.84375-0.84375,0.84375,0.84375,0.84375-0.84375,0.84375,0.84375,0.875-0.84375,0.84375,0.84375,1.3125-1.3125-1.3125-1.3438-0.84375,0.84375-0.875-0.84375-0.84375,0.875-0.84375-0.875-0.84375,0.875-0.84375-0.875-0.84375,0.84375-0.84375-0.84375-0.875,0.84375-0.84375-0.84375-0.84375,0.875-0.84375-0.875zm62.719,0-1.3125,1.3438,1.3125,1.3125,1.3125-1.3125-1.3125-1.3438zm15.25,0-1.3125,1.3438,1.3125,1.3125,0.84375-0.84375,0.84375,0.84375,0.84375-0.84375,0.84375,0.84375,1.3438-1.3125-1.3438-1.3438-0.84375,0.84375-0.84375-0.84375-0.84375,0.875-0.84375-0.875zm33.906,0-1.3438,1.3438,1.3438,1.3125,0.84375-0.84375,0.84375,0.84375,0.84375-0.84375,0.84375,0.84375,0.84375-0.84375,0.875,0.84375,1.3125-1.3125-1.3125-1.3438-0.875,0.84375-0.84375-0.84375-0.84375,0.875-0.84375-0.875-0.84375,0.875-0.84375-0.875zm45.75,0-1.3125,1.3438,1.3125,1.3125,0.84375-0.84375,0.875,0.84375,0.84375-0.84375,0.84375,0.84375,0.84375-0.84375,0.84375,0.84375,0.84375-0.84375,0.84375,0.84375,0.84375-0.84375,0.84375,0.84375,0.875-0.84375,0.84375,0.84375,0.84375-0.84375,0.84375,0.84375,1.3125-1.3125-1.3125-1.3438-0.84375,0.875-0.84375-0.875-0.84375,0.84375-0.875-0.84375-0.84375,0.84375-0.84375-0.84375-0.84375,0.875-0.84375-0.875-0.84375,0.875-0.84375-0.875-0.84375,0.84375-0.84375-0.84375-0.875,0.84375-0.84375-0.84375zm27.125,0-1.3125,1.3438,1.3125,1.3125,0.84375-0.84375,0.84375,0.84375,1.3438-1.3125-1.3438-1.3438-0.84375,0.84375-0.84375-0.84375zm30.5,0-1.3125,1.3438,1.3125,1.3125,0.84375-0.84375,0.875,0.84375,0.84375-0.84375,0.84375,0.84375,1.3125-1.3125-1.3125-1.3438-0.84375,0.875-0.84375-0.875-0.875,0.84375-0.84375-0.84375zm18.656,0-1.3125,1.3438,1.3125,1.3125,0.84375-0.84375,0.84375,0.84375,0.875-0.84375,0.84375,0.84375,0.84375-0.84375,0.84375,0.84375,0.84375-0.84375,0.84375,0.84375,0.84375-0.84375,0.84375,0.84375,0.84375-0.84375,0.875,0.84375,0.84375-0.84375,0.84375,0.84375,0.84375-0.84375,0.84375,0.84375,0.84375-0.84375,0.84375,0.84375,0.84375-0.84375,0.84375,0.84375,0.875-0.84375,0.84375,0.84375,0.84375-0.84375,0.84375,0.84375,0.84375-0.84375,0.84375,0.84375,0.84375-0.84375,0.84375,0.84375,0.84375-0.84375,0.875,0.84375,0.84375-0.84375,0.84375,0.84375,1.3125-1.3125-1.3125-1.3438-0.84375,0.875-0.84375-0.875-0.875,0.84375-0.84375-0.84375-0.84375,0.84375-0.84375-0.84375-0.84375,0.875-0.84375-0.875-0.84375,0.875-0.84375-0.875-0.84375,0.84375-0.875-0.84375-0.84375,0.84375-0.84375-0.84375-0.84375,0.875-0.84375-0.875-0.84375,0.875-0.84375-0.875-0.84375,0.84375-0.84375-0.84375-0.875,0.84375-0.84375-0.84375-0.84375,0.875-0.84375-0.875-0.84375,0.875-0.84375-0.875-0.84375,0.84375-0.84375-0.84375-0.84375,0.84375-0.875-0.84375-0.84375,0.84375-0.84375-0.84375zm30.5,0-1.3125,1.3438,1.3125,1.3125,0.875-0.84375,0.84375,0.84375,0.84375-0.84375,0.84375,0.84375,0.84375-0.84375,0.84375,0.84375,0.84375-0.84375,0.84375,0.84375,0.84375-0.84375,0.875,0.84375,0.84375-0.84375,0.84375,0.84375,0.84375-0.84375,0.84375,0.84375,0.84375-0.84375,0.84375,0.84375,0.875-0.84375,0.84375,0.84375,0.84375-0.84375,0.84375,0.84375,1.3125-1.3125-1.3125-1.3438-0.84375,0.84375-0.84375-0.84375-0.84375,0.84375-0.875-0.84375-0.84375,0.875-0.84375-0.875-0.84375,0.875-0.84375-0.875-0.84375,0.84375-0.84375-0.84375-0.875,0.84375-0.84375-0.84375-0.84375,0.875-0.84375-0.875-0.84375,0.875-0.84375-0.875-0.84375,0.84375-0.84375-0.84375-0.84375,0.84375-0.875-0.84375zm20.344,0-1.3125,1.3438,1.3125,1.3125,0.84375-0.84375,0.875,0.84375,1.3125-1.3125-1.3125-1.3438-0.875,0.84375-0.84375-0.84375zm6.7812,0-1.25,1.25-0.4375-0.4375-1.125,1.1562-0.5625-0.5625-1.3438,1.3125,1.3438,1.3438,1.125-1.1562,0.5625,0.5625,1.25-1.25,0.4375,0.4375,1.3438-1.3125-1.3438-1.3438zm15.25,0-1.3125,1.3438,1.3125,1.3125,0.875-0.84375,0.84375,0.84375,1.3125-1.3125-1.3125-1.3438-0.84375,0.84375-0.875-0.84375zm-384.75,1.4062-1.3125,1.3125,1.3125,1.3438,1.3125-1.3438-1.3125-1.3125zm76.281,0-1.3438,1.3125,1.3438,1.3438,1.3125-1.3438-1.3125-1.3125zm264.41,0-1.3125,1.3125,1.3125,1.3438,1.3125-1.3438-1.3125-1.3125zm20.344,0-1.3125,1.3125,1.3125,1.3438,1.3125-1.3438-1.3125-1.3125zm-174.59,0.53125-1.3125,1.3438,1.3125,1.3125,1.3438-1.3125-1.3438-1.3438zm-161.03,0.46875-1.3125,1.3438,1.3125,1.3125,1.3438-1.3125-1.3438-1.3438zm22.062,0-1.3438,1.3438,1.3438,1.3125,0.84375-0.84375,0.84375,0.84375,1.3125-1.3125-1.3125-1.3438-0.84375,0.875-0.84375-0.875zm218.66,0-1.3438,1.3438,1.3438,1.3125,1.3125-1.3125-1.3125-1.3438zm-242.41,1.4375-1.3125,1.3438,1.3125,1.3125,1.3438-1.3125-1.3438-1.3438zm244.09,0-1.3438,1.3438,1.3438,1.3125,1.3125-1.3125-1.3125-1.3438zm-223.75,0.53125-1.0625,1.0625-0.625-0.625-1.3125,1.3125,1.3125,1.3438,1.0625-1.0938,0.625,0.625,1.3438-1.3125-1.3438-1.3125zm6.7812,0.90625-1.3125,1.3438,1.3125,1.3125,1.3438-1.3125-1.3438-1.3438zm39,0-1.3438,1.3438,1.3438,1.3125,1.3125-1.3125-1.3125-1.3438zm1.6875,1.4375-1.3125,1.3125,1.3125,1.3438,1.3125-1.3438-1.3125-1.3125zm96.625,1.5312-1.3438,1.3125,1.3438,1.3438,1.3125-1.3438-1.3125-1.3125zm-228.84,2.125-1.3125,1.3438,1.3125,1.3125,1.3438-1.3125-1.3438-1.3438zm274.59,0.03125-1.3125,1.3438,1.3125,1.3125,1.3125-1.3125-1.3125-1.3438zm-188.12,0.28125-1.3438,1.3438,1.3438,1.3125,1.3125-1.3125-1.3125-1.3438zm-81.375,0.28125-1.3125,1.3438,1.3125,1.3125,1.3125-1.3125-1.3125-1.3438zm110.19,0.125-1.3438,1.3438,1.3438,1.3125,1.3125-1.3125-1.3125-1.3438zm389.84,0-1.3438,1.3438,1.3438,1.3125,1.3125-1.3125-1.3125-1.3438zm-279.69,0.5625-1.3125,1.3125,1.3125,1.3438,1.3438-1.3438-1.3438-1.3125zm-45.75,0.15625-1.3438,1.3125,1.3438,1.3125,1.3125-1.3125-1.3125-1.3125zm130.5,1.3438-1.3125,1.3125,1.3125,1.3438,1.3438-1.3438-1.3438-1.3125zm-262.72,2.3438-0.875,0.875-0.8125-0.8125-1.3438,1.3125,1.3438,1.3125,0.84375-0.84375,0.84375,0.8125,0.84375-0.8125,0.84375,0.84375,1.3438-1.3125-1.3438-1.3125-0.8125,0.8125-0.875-0.875zm284.75,0.125-1.3125,1.3438,1.3125,1.3125,1.3125-1.3125-1.3125-1.3438zm110.19,0.03125-1.3438,1.3125,1.3438,1.3438,1.3125-1.3438-1.3125-1.3125zm-361.03,1-1.3438,1.3438,1.3438,1.3125,1.3125-1.3125-1.3125-1.3438zm120.34,1-1.3438,1.3125,1.3438,1.3438,1.3125-1.3438-1.3125-1.3125zm-108.5,0.46875-1.3125,1.3125,1.3125,1.3125,1.3438-1.3125-1.3438-1.3125zm20.344,4.25-1.3125,1.3125,1.3125,1.3438,1.3438-1.3438-1.3438-1.3125zm110.19,0.8125-1.3125,1.3125,1.3125,1.3125,1.3125-1.3125-1.3125-1.3125zm49.156,0.3125-1.3438,1.3438,1.3438,1.3125,1.3125-1.3125-1.3125-1.3438zm230.5,1.0312-1.3125,1.3125,1.3125,1.3438,1.3438-1.3438-1.3438-1.3125zm-59.312,0.65625-1.3125,1.3125,1.3125,1.3438,1.3125-1.3438-1.3125-1.3125zm-113.56,0.9375-1.3125,1.3438,1.3125,1.3125,1.3125-1.3125-1.3125-1.3438zm-18.656,0.59375-1.3125,1.3125,1.3125,1.3438,1.3438-1.3438-1.3438-1.3125zm-216.94,0.28125-1.3438,1.3125,1.3438,1.3125,1.3125-1.3125-1.3125-1.3125zm-88.156,1.6562-1.3125,1.3125,1.3125,1.3438,1.3438-1.3438-1.3438-1.3125zm171.19,0.75-1.3125,1.3438,1.3125,1.3125,1.3438-1.3125-1.3438-1.3438zm-30.5,0.34375-1.3125,1.3438,1.3125,1.3125,1.3125-1.3125-1.3125-1.3438zm55.938,0.4375-1.3125,1.3125,1.3125,1.3438,1.3125-1.3438-1.3125-1.3125zm67.812,3.9688-1.3438,1.3125,1.3438,1.3438,1.3125-1.3438-1.3125-1.3125zm-174.59,0.40625-1.3125,1.3125,1.3125,1.3125,1.3125-1.3125-1.3125-1.3125zm405.09,0.1875-1.3125,1.3438,1.3125,1.3125,1.3438-1.3125-1.3438-1.3438zm-188.12,0.1875-1.3438,1.3438,1.3438,1.3125,1.3125-1.3125-1.3125-1.3438zm-305.13,1.6875-1.3125,1.3125,1.3125,1.3125,1.3438-1.3125-1.3438-1.3125zm478,0.625-1.3125,1.3125,1.3125,1.3438,1.3125-1.3438-1.3125-1.3125zm-5.0938,0.65625-1.3125,1.3438,1.3125,1.3125,0.84375-0.84375,0.84375,0.84375,1.3438-1.3125-1.3438-1.3438-0.84375,0.84375-0.84375-0.84375zm3.4062,1.125-1.3438,1.3125,1.3438,1.3125,1.3125-1.3125-1.3125-1.3125zm-335.62,1.0312-1.3125,1.3438,1.3125,1.3125,1.3438-1.3125-1.3438-1.3438zm296.62,0.25-1.3125,1.3438,1.3125,1.3125,1.3438-1.3125-1.3438-1.3438zm-333.91,0.71875-1.3125,1.3125,1.3125,1.3125,1.3125-1.3125-1.3125-1.3125zm157.62,0.84375-1.3125,1.3438,1.3125,1.3125,1.3438-1.3125-1.3438-1.3438zm59.344,0.5-1.3438,1.3438,1.3438,1.3125,1.3125-1.3125-1.3125-1.3438zm-123.75,3.1875-1.3125,1.3125,1.3125,1.3438,1.3438-1.3438-1.3438-1.3125zm294.94,0.5-1.3125,1.3125,1.3125,1.3438,1.3125-1.3438-1.3125-1.3125zm-401.72,1.0312-1.3125,1.3125,1.3125,1.3125,1.3125-1.3125-1.3125-1.3125zm77.969,0.96875-1.3125,1.3125,1.3125,1.3438,1.3438-1.3438-1.3438-1.3125zm44.062,0.15625-1.3125,1.3125,1.3125,1.3438,1.3438-1.3438-1.3438-1.3125zm94.938,1.9375-1.3438,1.3125,1.3438,1.3125,1.3125-1.3125-1.3125-1.3125zm164.41,1.5625-1.3125,1.3125,1.3125,1.3125,1.3125-1.3125-1.3125-1.3125zm-369.5,0.4375-1.3438,1.3125,1.3438,1.3438,1.3125-1.3438-1.3125-1.3125zm339,0-1.3438,1.3438,1.3438,1.3125,1.3125-1.3125-1.3125-1.3438zm-439,1.5938-1.3438,1.3125,1.3438,1.3438,1.3125-1.3438-1.3125-1.3125zm437.28,0-1.3125,1.3125,1.3125,1.3438,1.3438-1.3438-1.3438-1.3125zm-130.5,0.71875-1.3125,1.3438,1.3125,1.3125,1.3125-1.3125-1.3125-1.3438zm10.156,1-1.3125,1.3438,1.3125,1.3125,1.3438-1.3125-1.3438-1.3438zm-59.312,0.21875-1.3125,1.3125,1.3125,1.3438,1.3438-1.3438-1.3438-1.3125zm-16.938,0.6875-1.3438,1.3125,1.3438,1.3438,1.3125-1.3438-1.3125-1.3125zm237.28,1.7812-1.3125,1.3125,1.3125,1.3125,1.3438-1.3125-1.3438-1.3125zm-313.56,1.0312-1.3125,1.3125,1.3125,1.3438,1.3125-1.3438-1.3125-1.3125zm-74.594,1.0625-1.3125,1.3438,1.3125,1.3125,1.3438-1.3125-1.3438-1.3438zm354.25,0.25-1.3125,1.3438,1.3125,1.3125,1.3438-1.3125-1.3438-1.3438zm-247.47,0.625-1.3125,1.3438,1.3125,1.3125,1.3438-1.3125-1.3438-1.3438zm11.875,0.3125-1.3125,1.3125,1.3125,1.3438,1.3438-1.3438-1.3438-1.3125zm-206.78,0.03125-1.3125,1.3125,1.3125,1.3125,1.3125-1.3125-1.3125-1.3125zm139,0.09375-1.3438,1.3438,1.3438,1.3125,1.3125-1.3125-1.3125-1.3438zm347.47,0.75-1.3438,1.3125,1.3438,1.3438,1.3125-1.3438-1.3125-1.3125zm-20.344,0.09375-1.3438,1.3125,1.3438,1.3125,1.3125-1.3125-1.3125-1.3125zm-25.438,0.8125-1.3125,1.3125,1.3125,1.3125,1.3438-1.3125-1.3438-1.3125zm-127.12,1.4688-1.3125,1.3125,1.3125,1.3438,1.3438-1.3438-1.3438-1.3125zm125.44,1.5938-1.3125,1.3125,1.3125,1.3438,1.3125-1.3438-1.3125-1.3125zm5.0938,0.1875-1.3438,1.3125,1.3438,1.3438,1.3125-1.3438-1.3125-1.3125zm-439,0.03125-1.3438,1.3438,1.3438,1.3125,1.3125-1.3125-1.3125-1.3438zm135.59,2.7812-1.3438,1.3125,1.3438,1.3438,1.3125-1.3438-1.3125-1.3125zm305.09,0-1.3125,1.3125,1.3125,1.3438,1.3125-1.3438-1.3125-1.3125zm32.188,0.25-1.3125,1.3125,1.3125,1.3438,1.3438-1.3438-1.3438-1.3125zm-171.19,0.75-1.3125,1.3125,1.3125,1.3438,1.3438-1.3438-1.3438-1.3125zm-210.19,0.5-1.3125,1.3438,1.3125,1.3125,1.3438-1.3125-1.3438-1.3438zm100.03,0.5-1.3438,1.3125,1.3438,1.3125,1.3125-1.3125-1.3125-1.3125zm57.625,0.5625-1.3438,1.3438,1.3438,1.3125,1.3125-1.3125-1.3125-1.3438zm-13.562,0.3125-1.3438,1.3438,1.3438,1.3125,0.65625-0.65625,1.0312,1.0312,0.59375-0.59375,1.0938,1.0938,1.3438-1.3125-1.3438-1.3438-0.59375,0.59375-1.0938-1.0938-0.65625,0.6875-1.0312-1.0625zm213.56,0.46875-1.3125,1.3125,1.3125,1.3438,0.84375-0.875,0.84375,0.875,1.3438-1.3438-1.3438-1.3125-0.84375,0.84375-0.84375-0.84375zm-145.75,0.25-1.3438,1.3125,1.3438,1.3438,1.3125-1.3438-1.3125-1.3125zm-216.97,0.90625-0.96875,0.96875-0.71875-0.71875-1.3438,1.3125,1.3438,1.3125,0.96875-0.9375,0.71875,0.71875,1.3125-1.3438-1.3125-1.3125zm366.12,0.96875-1.3438,1.3125,1.3438,1.3125,1.3125-1.3125-1.3125-1.3125zm-147.47,0.3125-1.3438,1.3438,1.3438,1.3125,0.8125-0.8125,0.875,0.90625,1.3125-1.3125-1.3125-1.3438-0.8125,0.8125-0.875-0.90625zm150.84,0.78125-1.3125,1.3438,1.3125,1.3125,0.6875-0.6875,1,1.0312,1.3438-1.3438-1.3438-1.3125-0.6875,0.6875-1-1.0312zm-211.88,1.7812-1.3125,1.3438,1.3125,1.3125,1.3438-1.3125-1.3438-1.3438zm-88.125,0.21875-1.3438,1.3125,1.3438,1.3125,1.3125-1.3125-1.3125-1.3125zm298.31,0.46875-1.3438,1.3125,1.3438,1.3438,1.3125-1.3438-1.3125-1.3125zm-254.25,0.3125-1.3125,1.3438,1.3125,1.3125,1.3125-1.3125-1.3125-1.3438zm259.31,0-1.3125,1.3438,1.3125,1.3125,1.3438-1.3125-1.3438-1.3438zm-218.62,0.0312-1.3438,1.3125,1.3438,1.3438,1.3125-1.3438-1.3125-1.3125zm6.7812,0.875-1.1562,1.125-0.5625-0.5625-1.3125,1.3125,1.3125,1.3125,1.125-1.125,0.59375,0.59375,1.3125-1.3438-1.3125-1.3125zm200,0.0625-1.3125,1.3125,1.3125,1.3125,1.3125-1.3125-1.3125-1.3125zm-450.88,0.0312-1.3125,1.3125,1.3125,1.3125,0.5-0.5,1.1875,1.1875,1.3438-1.3125-1.3438-1.3125-0.5,0.5-1.1875-1.1875zm483.06,0.3125-1.3125,1.3125,1.3125,1.3125,1.3438-1.3125-1.3438-1.3125zm-37.281,0.3125-1.3125,1.3438,1.3125,1.3125,1.3438-1.3125-1.3438-1.3438zm-291.53,0.4063-1.3125,1.3125,1.3125,1.3125,1.3125-1.3125-1.3125-1.3125zm-3.375,0.0625-1.3438,1.3125,1.3438,1.3438,1.3125-1.3438-1.3125-1.3125zm-57.656,0.5625-1.3125,1.3438,1.3125,1.3125,1.3438-1.3125-1.3438-1.3438zm62.719,0.8125-1.3125,1.3125,1.3125,1.3125,1.3438-1.3125-1.3438-1.3125zm89.844,0.90625-1.3438,1.3125,1.3438,1.3438,1.3125-1.3438-1.3125-1.3125zm-154.25,1.0625-1.3125,1.3438,1.3125,1.3125,1.3125-1.3125-1.3125-1.3438zm110.19,0.6875-1.3438,1.3125,1.3438,1.3438,1.3125-1.3438-1.3125-1.3125zm277.97,0-1.3125,1.3125,1.3125,1.3438,0.625-0.625,1.0625,1.0938,1.3438-1.3438-1.3438-1.3125-0.625,0.625-1.0625-1.0938zm-32.219,0.5625-1.3125,1.3125,1.3125,1.3438,0.75-0.75,0.96875,0.96875,1.3125-1.3125-1.3125-1.3125-0.71875,0.71875-1-0.96875zm-250.84,1.1562-1.3125,1.3125,1.3125,1.3438,1.3125-1.3438-1.3125-1.3125zm-55.938,0.4375-1.3125,1.3125,1.3125,1.3125,1.3125-1.3125-1.3125-1.3125zm337.31,0.625-1.3438,1.3125,1.3438,1.3438,1.3125-1.3438-1.3125-1.3125zm-328.84,0.0625-1.3125,1.3125,1.3125,1.3438,1.3438-1.3438-1.3438-1.3125zm49.156,0.3125-1.3125,1.3125,1.3125,1.3438,1.3438-1.3438-1.3438-1.3125zm-55.938,0.40625-1.3125,1.3438,1.3125,1.3125,0.75-0.71875,0.96875,0.96875,0.625-0.65625,1.0625,1.0312,1.3125-1.3125-1.3125-1.3125-0.65625,0.625-1.0312-1.0313-0.75,0.71875-0.96875-0.96875zm10.188,0.25-1.3438,1.3125,1.3438,1.3438,1.3125-1.3438-1.3125-1.3125zm5.0938,0-1.3438,1.3125,1.3438,1.3438,1.3125-1.3438-1.3125-1.3125zm42.344,1.7813-1.3125,1.3125,1.3125,1.3438,1.3438-1.3438-1.3438-1.3125zm-52.531,5.1562-1.3125,1.3438,1.3125,1.3125,1.3125-1.3125-1.3125-1.3438zm-105.94,98.688-1.9688,2,1.9688,1.9688,1.25-1.2188,1.2188,1.2188,1.25-1.2188,1.2188,1.2188,1.9688-1.9688-1.9688-2-1.2188,1.2188-1.25-1.2188-1.2188,1.25-1.25-1.25zm56.594,0-2,2,2,1.9688,1.2188-1.2188,1.2188,1.2188,1.25-1.2188,1.2188,1.2188,1.2188-1.2188,1.25,1.2188,1.2188-1.2188,1.2188,1.2188,2-1.9688-2-2-1.2188,1.25-1.2188-1.25-1.25,1.2188-1.2188-1.2188-1.2188,1.2188-1.25-1.2188-1.2188,1.25-1.2188-1.25zm63.938,0-2,2,2,1.9688,1.2188-1.2188,1.25,1.2188,1.2188-1.2188,1.2188,1.2188,1.2188-1.2188,1.25,1.2188,1.25-1.2188,1.2188,1.2188,1.9688-1.9688-1.9688-2-1.2188,1.2188-1.25-1.2188-1.25,1.2188-1.2188-1.2188-1.2188,1.25-1.2188-1.25-1.25,1.25-1.2188-1.25zm51.656,0-2,2,2,1.9688,1.9688-1.9688-1.9688-2zm46.719,0-1.9688,2,1.9688,1.9688,1.25-1.2188,1.2188,1.2188,1.2188-1.2188,1.2188,1.2188,1.25-1.2188,1.2188,1.2188,1.25-1.2188,1.2188,1.2188,1.9688-1.9688-1.9688-2-1.2188,1.2188-1.25-1.2188-1.2188,1.25-1.25-1.25-1.2188,1.25-1.2188-1.25-1.2188,1.2188-1.25-1.2188zm31.969,0-1.9688,2,1.9688,1.9688,1.2188-1.2188,1.25,1.2188,1.2188-1.2188,1.25,1.2188,1.2188-1.2188,1.2188,1.2188,1.25-1.2188,1.2188,1.2188,1.25-1.2188,1.2188,1.2188,1.2188-1.2188,1.25,1.2188,1.2188-1.2188,1.2188,1.2188,1.25-1.2188,1.2188,1.2188,1.125-1.125,1.3438,1.3125,1.9688-1.9688-1.9688-2-1.1562,1.1562-1.3125-1.3438-1.2188,1.2188-1.25-1.2188-1.2188,1.25-1.2188-1.25-1.25,1.25-1.2188-1.25-1.2188,1.2188-1.25-1.2188-1.2188,1.25-1.25-1.25-1.2188,1.25-1.2188-1.25-1.25,1.25-1.2188-1.25-1.25,1.2188-1.2188-1.2188zm27.062,0-2,2,2,1.9688,2-1.9688-2-2zm162.31,0-1.9688,2,1.9688,1.9688,1.25-1.2188,1.2188,1.2188,2-1.9688-2-2-1.2188,1.25-1.25-1.25zm-164.78,3.3438-1.9688,2,1.9688,1.9688,2-1.9688-2-2zm-206.59,2.0625-1.9688,1.9688,1.9688,2,0.53125-0.53125,1.9375,1.9062,1.9688-1.9688-1.9688-2-0.53125,0.53125-1.9375-1.9062zm4.9375,4.5625-2,1.9688,2,2,1.9688-2-1.9688-1.9687zm-19.688,2.4688-2,1.9688,2,2,2-2-2-1.9688zm-103.31,1.3125-1.9688,2,1.9688,1.9688,2-1.9688-2-2zm44.281,0-2,1.9688,2,2,1.25-1.25,1.2188,1.25,1.9688-2-1.9688-1.9688-1.2188,1.2188-1.25-1.2188zm88.531,0-1.9688,1.9688,1.9688,2,1.25-1.25,1.2188,1.25,2-2-2-1.9688-1.2188,1.2188-1.25-1.2188zm7.4062,0-2,1.9688,2,2,1.9688-2-1.9688-1.9688zm68.844,0-1.9688,1.9688,1.9688,2,1.2188-1.25,1.25,1.25,1.25-1.25,1.2188,1.25,1.2188-1.25,1.2188,1.25,1.2188-1.25,1.25,1.25,2-2-2-1.9688-1.25,1.2188-1.2188-1.2188-1.2188,1.2188-1.2188-1.2188-1.2188,1.2188-1.25-1.2188-1.25,1.2188-1.2188-1.2188zm14.75,0-1.9688,1.9688,1.9688,2,2-2-2-1.9688zm270.56,0-2,1.9688,2,2,1.9688-2-1.9688-1.9688zm-393.53,0.4375-1.9688,2,1.9688,1.9688,2-1.9688-2-2zm162.34,0.21875-2,2,2,1.9688,1.2188-1.2188,1.2188,1.2188,2-1.9688-2-2-1.2188,1.25-1.2188-1.25zm216.44,0-2,2,2,1.9688,1.2188-1.2188,1.2188,1.2188,1.2188-1.2188,1.25,1.2188,2-1.9688-2-2-1.25,1.25-1.2188-1.25-1.2188,1.25-1.2188-1.25zm-472.22,0.8125-2,1.9688,2,2,1.9688-2-1.9688-1.9688zm-4.9375,3.5938-1.9688,1.9688,1.9688,2,2-2-2-1.9688zm430.41,4.0625-1.5938,1.625-0.875-0.84375-1.9688,1.9688,1.9688,2,1.625-1.625,0.84375,0.84375,2-1.9688-2-2zm-206.59,0.90625-2,2,2,1.9688,2-1.9688-2-2zm-24.594,1.2188-1.9688,2,1.9688,1.9688,0.5-0.5,1.9688,1.9375,0.5625-0.5625,1.9062,1.875,1.9688-1.9688-1.9688-2-0.59375,0.59375-1.875-1.9062-0.5,0.53125-1.9688-1.9688zm-63.938,0.71875-2,2,2,1.9688,1.9688-1.9688-1.9688-2zm-12.312,0.46875-1.9688,2,1.9688,1.9688,1.2188-1.1875,1.25,1.2188,0.84375-0.84375,1.625,1.625,1.9688-2-1.9688-1.9688-0.875,0.84375-1.5938-1.625-1.2188,1.2188-1.25-1.25zm-83.625,0.21875-1.9688,1.9688,1.9688,2,2-2-2-1.9688zm218.91,0.4375-2,2,2,1.9688,1.9688-1.9688-1.9688-2zm167.25,0-2,2,2,1.9688,1.9688-1.9688-1.9688-2zm-285.31,0.625-1.9688,2,1.9688,2,0.75-0.75,1.7188,1.6875,1.7188-1.6875,0.75,0.75,1.9688-2-1.9688-2-1.7188,1.7188-0.75-0.75-0.75,0.75-1.7188-1.7188zm-137.72,0.5625-2,2,2,1.9688,1.9688-1.9688-1.9688-2zm405.81,2.0938-2,2,2,1.9688,1.9688-1.9688-1.9688-2zm-2.4688,2.9062-1.9688,2,1.9688,1.9688,2-1.9688-2-2zm-179.53,0.21875-2,1.9688,2,2,1.9688-2-1.9688-1.9688zm29.5,2.2188-1.9688,1.9688,1.9688,2,2-2-2-1.9688zm-182,0.625-1.9688,2,1.9688,2,2-2-2-2zm327.12,2.5-2,2,2,1.9688,1.9688-1.9688-1.9688-2zm-364,0.4375-2,2,2,2,1.9688-2-1.9688-2zm386.13,0.625-1.9688,2,1.9688,1.9688,2-1.9688-2-2zm-391.06,2.0625-1.625,1.625-0.8125-0.8125-1.25,1.25-1.2188-1.25-2,2,2,1.9688,1.2188-1.2188,1.25,1.2188,1.625-1.625,0.8125,0.8125,0.5-0.5,1.9688,1.9375,2-1.9688-2-2-0.5,0.5-1.9688-1.9375zm359.09,0.875-2,1.9688,2,2,2-2-2-1.9688zm-162.34,2.625-1.9688,1.9688,1.9688,2,2-2-2-1.9688zm174.62,0.34375-1.9688,1.9688,1.9688,2,2-2-2-1.9688zm7.4062,0.5625-2,2,2,1.9688,0.8125-0.8125,1.625,1.625,2-1.9688-2-2-0.8125,0.84375-1.625-1.6562zm-63.969,0.25-1.9688,1.9688,1.9688,2,2-2-2-1.9688zm-270.53,2.0312-2,2,2,1.9688,1.9688-1.9688-1.9688-2zm319.72,1.8125-1.9688,2,1.9688,1.9688,0.84375-0.8125,1.625,1.625,2-2-2-1.9688-0.84375,0.8125-1.625-1.625zm22.156,0.28125-2,1.9688,2,2,1.9688-2-1.9688-1.9688zm2.4375,1.5938-1.9688,1.9688,1.9688,2,2-2-2-1.9688zm-68.844,1.9062-2,1.9688,2,2,1.0625-1.0625,1.375,1.375,1.0312-1.0312,1.4375,1.4062,0.5625-0.53125,1.9062,1.875,1.9688-1.9688-1.9688-2-0.5625,0.5625-1.9062-1.9062-1.0625,1.0312-1.4062-1.4062-1.0625,1.0625-1.375-1.375zm36.875,0.6875-1.4062,1.4062-1.0312-1.0312-2,1.9688,2,2,1.4062-1.4062,1.0312,1.0312,2-1.9688-2-2zm-39.344,2.5-2,1.9688,2,2,2-2-2-1.9688zm34.438,1.8438-2,2,2,1.9688,1.9688-1.9688-1.9688-2zm9.8438,0.4375-2,2,2,2,1.9688-2-1.9688-2zm-162.34,0.15625-1.9688,2,1.9688,1.9688,2-1.9688-2-2zm147.56,1.7812-1.9688,1.9688,1.9688,2,1.25-1.25,1.2188,1.25,2-2-2-1.9688-1.2188,1.2188-1.25-1.2188zm36.906,3.0938-2,2,2,2,2-2-2-2zm-182,4.375-2,1.9688,2,2,1.9688-2-1.9688-1.9688zm218.91,0.125-2,2,2,1.9688,1.0938-1.0938,1.3438,1.3438,2-2-2-1.9688-1.0938,1.0938-1.3438-1.3438zm-81.188,0.0312-1.9688,2,1.9688,1.9688,0.75-0.75,1.7188,1.75,2-2-2-1.9688-0.71875,0.75-1.75-1.75zm-4.9062,0.5625-2,1.9688,2,2,1.9688-2-1.9688-1.9688zm-4.9375,1.5625-1.9688,2,1.9688,2,0.84375-0.84375,1.625,1.625,2-1.9688-2-2-0.8125,0.84375-1.6562-1.6562zm7.4062,0.31255-2,1.9688,2,2,1.9688-2-1.9688-1.9688zm7.375,2.3438-2,2,2,1.9688,1.9688-1.9688-1.9688-2zM258.21,43.439l1.3242,1.3242-1.3242,1.3242-1.3242-1.3242,1.3242-1.3242zM529.05,219.66l1.9863,1.9863-1.9863,1.9863-1.9863-1.9863,1.9863-1.9863z"/>
</svg>
