<?xml version="1.0" encoding="UTF-8" standalone="no"?>
<!-- Generated by graphviz version 2.28.0 (20111025.1818)
 -->
<!-- Title: G Pages: 1 -->
<svg xmlns:rdf="http://www.w3.org/1999/02/22-rdf-syntax-ns#" xmlns="http://www.w3.org/2000/svg" height="518" width="656" version="1.1" xmlns:cc="http://creativecommons.org/ns#" xmlns:dc="http://purl.org/dc/elements/1.1/" viewBox="0 0 524.8 415.02551">
<metadata>
<rdf:RDF>
<cc:Work rdf:about="">
<dc:format>image/svg+xml</dc:format>
<dc:type rdf:resource="http://purl.org/dc/dcmitype/StillImage"/>
<dc:title/>
</cc:Work>
</rdf:RDF>
</metadata>
<path opacity="0.4" style="baseline-shift:baseline;block-progression:tb;color:#000000;direction:ltr;text-indent:0;text-align:start;enable-background:accumulate;text-transform:none;" fill="#b64035" d="m174.03,69.884c-0.0655,0.74097-0.11579,1.4869-0.17527,2.2284-8.8216-0.54024-18.755-0.73919-28.418-0.60091-9.725,0.13917-19.148,0.59569-26.84,1.4272l0.4006,4.006c14.939-1.6148,37.07-1.938,54.507-0.87632-0.0598,0.73312-0.10867,1.4708-0.17527,2.2033,4.1115-1.0298,8.2288-2.0644,12.319-3.1798-3.8937-1.6866-7.7174-3.5364-11.618-5.2078z"/>
<path opacity="0.6" style="baseline-shift:baseline;block-progression:tb;color:#000000;direction:ltr;text-indent:0;text-align:start;enable-background:accumulate;text-transform:none;" fill="#b64035" d="m232.94,30.875c-24.892-0.0619-51.804,4.0492-74.612,9.7898s-41.393,12.947-50.276,19.755l2.4537,3.1798c7.7719-5.9566,26.299-13.385,48.824-19.054,22.524-5.6692,49.169-9.7253,73.611-9.6646,48.146,0.11973,114.04,19.454,140.79,34.727-0.23117,0.71719-0.47259,1.4352-0.70106,2.1532,4.2383-0.13052,8.4796-0.20829,12.719-0.30045-3.4096-2.5261-6.6753-5.2272-10.115-7.7116-0.21562,0.65848-0.43579,1.3193-0.65098,1.978-28.34-15.899-93.26-34.731-142.03-34.852z"/>
<path opacity="0.7" style="baseline-shift:baseline;block-progression:tb;color:#000000;direction:ltr;text-indent:0;text-align:start;enable-background:accumulate;text-transform:none;" fill="#000" d="m107.38,94.346-3.1297,0.80121c8.7244,34.897,28.14,112.58,38.583,154.36l-2.5288,0.62594,7.0106,10.616,1.1517-12.644-2.5038,0.62595c-10.44-41.8-29.86-119.51-38.58-154.4z"/>
<path opacity="0.3" style="baseline-shift:baseline;block-progression:tb;color:#000000;direction:ltr;text-indent:0;text-align:start;enable-background:accumulate;text-transform:none;" fill="#000" d="m113.69,90.765-2.5789,1.9029c25.913,34.551,90.795,121.03,121.86,162.44l-2.1032,1.5523,10.566,7.0857-3.8308-12.118-2.0781,1.5523c-31.07-41.41-95.93-127.86-121.84-162.42z"/>
<path opacity="0.2" style="baseline-shift:baseline;block-progression:tb;color:#000000;direction:ltr;text-indent:0;text-align:start;enable-background:accumulate;text-transform:none;" fill="#b64035" d="m129.41,78.948c-4.1115,1.0298-8.2288,2.0644-12.319,3.1798,3.8936,1.6866,7.7174,3.5113,11.618,5.1828,0.0649-0.73488,0.11625-1.4679,0.17526-2.2033,17.709,1.0847,40.474,0.78138,55.809-0.87632l-0.46-4.008c-14.938,1.6147-37.572,1.9625-55.008,0.90136,0.0593-0.727,0.10922-1.4519,0.17526-2.1783z"/>
<path opacity="0.8" style="baseline-shift:baseline;block-progression:tb;color:#000000;direction:ltr;text-indent:0;text-align:start;enable-background:accumulate;text-transform:none;" fill="#b64035" d="M367.85,1.606c-50.56,0.1423-124.21,10.225-159.64,58.363l3.2549,2.3786c34.01-46.202,106.39-56.57,156.41-56.711,48.536-0.13661,99.006,20.727,122.81,46.019-0.63882,0.45605-1.281,0.90778-1.9279,1.352,3.4866,2.4258,6.9218,4.9321,10.441,7.311-1.2661-4.051-2.357-8.1699-3.6305-12.218-0.53735,0.39051-1.0662,0.78434-1.6024,1.1768-24.83-26.761-76.19-47.812-126.11-47.672z"/>
<path opacity="0.5" style="baseline-shift:baseline;block-progression:tb;color:#000000;direction:ltr;text-indent:0;text-align:start;enable-background:accumulate;text-transform:none;" fill="#000" d="M195.36,94.346c-8.72,34.894-28.14,112.6-38.58,154.38l-2.5038-0.62595,1.1517,12.644,7.0106-10.616-2.5288-0.62594c10.444-41.775,29.859-119.46,38.583-154.36l-3.1297-0.80121z"/>
<path opacity="0.5" style="baseline-shift:baseline;block-progression:tb;color:#000000;direction:ltr;text-indent:0;text-align:start;enable-background:accumulate;text-transform:none;" fill="#000" d="m213.69,90.765-2.5789,1.9029c25.509,34.013,88.355,117.78,119.96,159.92l-2.1032,1.5774,10.566,7.0857-3.8308-12.118-2.0531,1.5523c-31.61-42.13-94.46-125.91-119.97-159.92z"/>
<path opacity="0.6" style="baseline-shift:baseline;block-progression:tb;color:#000000;direction:ltr;text-indent:0;text-align:start;enable-background:accumulate;text-transform:none;" fill="#b64035" d="m200.87,48.577c-25.977,0-54.133,8.2986-74.112,15.649-0.33252-0.85005-0.6915-1.7309-1.0265-2.654-2.997,2.6444-6.2311,5.3135-9.6896,8.2625,3.7768-0.08501,8.3232-0.30805,12.719-0.37557-0.18615-0.51193-0.38135-1.022-0.57587-1.5273,19.743-7.2561,47.602-15.348,72.685-15.348,29.676,0,63.565,11.365,83,19.204l1.5023-3.7056c-19.67-7.937-53.8-19.504-84.49-19.504z"/>
<path opacity="0.4" style="baseline-shift:baseline;block-progression:tb;color:#000000;direction:ltr;text-indent:0;text-align:start;enable-background:accumulate;text-transform:none;" fill="#b64035" d="m230.09,72.788c-3.9863,1.4432-7.9898,2.8099-11.993,4.2063,3.9866,1.4414,8.0316,2.7222,11.993,4.2314v-2.2033h53.23v-4.006h-53.23v-2.2284z"/>
<path opacity="0.15" style="baseline-shift:baseline;block-progression:tb;color:#000000;direction:ltr;text-indent:0;text-align:start;enable-background:accumulate;text-transform:none;" fill="#000" d="M295.36,94.346c-8.72,34.894-28.14,112.6-38.58,154.38l-2.5038-0.62595,1.1517,12.644,7.0106-10.616-2.5288-0.62594c10.444-41.775,29.859-119.46,38.583-154.36l-3.1297-0.80121z"/>
<path opacity="0.3" style="baseline-shift:baseline;block-progression:tb;color:#000000;direction:ltr;text-indent:0;text-align:start;enable-background:accumulate;text-transform:none;" fill="#000" d="m307.38,94.346-3.1297,0.80121c8.5432,34.173,27.198,108.81,37.782,151.15l-2.5538,0.62594,7.0106,10.641,1.1517-12.669-2.4787,0.62595c-10.58-42.34-29.24-117.01-37.78-151.18z"/>
<path opacity="0.7" style="baseline-shift:baseline;block-progression:tb;color:#000000;direction:ltr;text-indent:0;text-align:start;enable-background:accumulate;text-transform:none;" fill="#000" d="m313.69,90.765-2.5789,1.9029c25.909,34.545,90.764,120.99,121.83,162.42-0.69295,0.52402-1.3739,1.0687-2.0781,1.5774,3.4955,2.4,7.0231,4.7549,10.566,7.0857-1.3312-4.0255-2.49-8.0961-3.8308-12.118-0.69906,0.5055-1.3901,1.0319-2.0781,1.5523-31.06-41.42-95.92-127.87-121.83-162.42z"/>
<path style="baseline-shift:baseline;block-progression:tb;color:#000000;direction:ltr;text-indent:0;text-align:start;enable-background:accumulate;text-transform:none;" fill="#b64035" d="m330.09,72.788c-3.9847,1.4361-7.982,2.8441-11.993,4.2063,3.9745,1.473,8.037,2.7098,11.993,4.2314v-2.2033h52.93v-4.006h-52.93v-2.2284z"/>
<path style="baseline-shift:baseline;block-progression:tb;color:#000000;direction:ltr;text-indent:0;text-align:start;enable-background:accumulate;text-transform:none;" fill="#000" d="m407.38,94.346-3.1297,0.80121c8.7244,34.897,28.139,112.58,38.583,154.36-0.83815,0.2137-1.6854,0.43425-2.5288,0.62594,2.357,3.5257,4.6796,7.0729,7.0106,10.616,0.37639-4.2196,0.76819-8.4251,1.1517-12.644-0.83539,0.19042-1.6735,0.38913-2.5038,0.60091-10.44-41.8-29.86-119.48-38.58-154.37z"/>
<path opacity="0.2" style="baseline-shift:baseline;block-progression:tb;color:#000000;direction:ltr;text-indent:0;text-align:start;enable-background:accumulate;text-transform:none;" fill="#b64035" d="m371.25,23.489c-33.123-0.15134-64.843,6.084-90.812,14.146-24.844,7.7131-44.362,17.022-55.008,24.211-0.44824-0.66428-0.89142-1.3304-1.327-2.003-2.5085,3.4225-5.0538,6.8291-7.6115,10.215,4.0924-1.0877,8.2018-2.1396,12.294-3.2299-0.35709-0.55092-0.73558-1.0825-1.1017-1.6275,10.058-6.7878,29.379-16.088,53.931-23.711,25.646-7.962,57.029-14.17,89.635-14.021,65.284,0.2983,88.817,21.933,116.65,38.984l2.1032-3.4552c-27.39-16.789-52.56-39.206-118.74-39.508z"/>
<path opacity="0.4" style="baseline-shift:baseline;block-progression:tb;color:#000000;direction:ltr;text-indent:0;text-align:start;enable-background:accumulate;text-transform:none;" fill="#b64035" d="m401.05,48.301c-25.958-0.003-54.052,8.2781-74.037,15.624-0.24283-0.62751-0.4959-1.2456-0.72609-1.8778-3.18,2.8058-6.4515,5.5243-9.6896,8.2625,4.2404-0.09218,8.4786-0.30678,12.719-0.37557-0.27668-0.76088-0.58234-1.5241-0.87632-2.2784,19.75-7.254,47.534-15.376,72.609-15.373,29.649,0.0039,63.635,11.685,83.075,19.529l1.5023-3.7056c-19.65-7.93-53.88-19.801-84.57-19.805z"/>
<path opacity="0.4" style="baseline-shift:baseline;block-progression:tb;color:#000000;direction:ltr;text-indent:0;text-align:start;enable-background:accumulate;text-transform:none;" fill="#b64035" d="m430.09,72.788c-3.9863,1.4432-7.9898,2.8099-11.993,4.2063,3.9866,1.4414,8.0316,2.7222,11.993,4.2314v-2.2033h52.93v-4.006h-52.93v-2.2284z"/>
<path opacity="0.7" style="baseline-shift:baseline;block-progression:tb;color:#000000;direction:ltr;text-indent:0;text-align:start;enable-background:accumulate;text-transform:none;" fill="#000" d="M486.22,87.085c-41.46,33.165-162.82,130.24-213.34,170.66l-1.6274-2.028-6.7602,10.791,11.993-4.2314-1.6274-2.028c50.52-40.4,171.89-137.51,213.35-170.68l-1.978-2.4787z"/>
<path opacity="0.3" style="baseline-shift:baseline;block-progression:tb;color:#000000;direction:ltr;text-indent:0;text-align:start;enable-background:accumulate;text-transform:none;" fill="#000" d="m495.36,94.346c-8.723,34.892-28.138,112.58-38.583,154.36-0.83032-0.21158-1.6683-0.41102-2.5038-0.60091,0.38174,4.2191,0.77665,8.4244,1.1517,12.644,2.357-3.5256,4.6158-7.116,7.0106-10.616-0.8433-0.19222-1.6907-0.41204-2.5288-0.62594,10.444-41.775,29.859-119.46,38.583-154.36l-3.1297-0.80121z"/>
<rect stroke-linejoin="miter" stroke-dasharray="none" fill-rule="evenodd" stroke-dashoffset="14.99999404" height="21.852" width="21.043" stroke="#0060ff" stroke-linecap="square" stroke-miterlimit="4" y="266.08" x="140.85" stroke-width="5.6886" fill="#FFF"/>
<path stroke-linejoin="miter" fill="#FFF" fill-rule="evenodd" stroke-dashoffset="14.99999404" transform="matrix(0.80120755,0,0,0.80120755,-52.921091,-83.990274)" stroke="#0067ff" stroke-linecap="square" stroke-miterlimit="4" stroke-dasharray="none" stroke-width="7.0999999" d="m390.93,467.48-11.07-5.7574-11.019,5.8553,2.0548-12.307-8.9736-8.6699,12.34-1.849,5.4726-11.214,5.5717,11.165,12.356,1.7396-8.8965,8.7491z"/>
<path stroke-linejoin="miter" d="m409.11,474.55c0.50647,1.4181-1.6617,1.3824-2.357,0.8418-1.8842-1.4649-0.94513-4.3224,0.67344-5.5558,2.8952-2.2064,6.9812-0.6901,8.7546,2.1887,2.6026,4.2247,0.44479,9.6824-3.7039,11.953-5.5295,3.0269-12.399,0.20466-15.152-5.2191-3.4642-6.8253,0.0326-15.124,6.7343-18.351,8.1167-3.9081,17.853,0.26811,21.55,8.2496,4.3562,9.4059-0.50255,20.585-9.7648,24.749-10.694,4.8067-23.319-0.73627-27.948-11.28-5.2591-11.98,0.96949-26.054,12.795-31.146,13.267-5.7126,28.79,1.2024,34.345,14.31,6.167,14.552-1.4349,31.527-15.826,37.544" fill-rule="evenodd" transform="matrix(0.64307562,0,0,0.68102561,86.677121,-47.098189)" stroke="#2169ea" stroke-linecap="butt" stroke-miterlimit="4" stroke-dasharray="none" stroke-width="4.84275246" fill="#FFF"/>
<path style="text-align:start;" fill="#0067ff" d="m468.81,276.86c-0.54172-0.23992-1.1487-0.47989-1.8209-0.71983-0.55478-0.1982-1.4196-0.38077-2.5943-0.5477-0.53518-0.073-1.3282-0.0782-2.379-0.0156v-2.8793c0.46991-0.073,0.94962-0.11474,1.4391-0.12519,1.0573,0.00001,2.1472,0.18259,3.2698,0.5477,1.6839,0.54249,3.2437,1.3249,4.6796,2.3473v2.4099c-0.49603,0.2504-1.0312,0.64682-1.6056,1.1893-1.0834,1.0224-1.8666,1.8778-2.3496,2.5664-0.94637,1.3458-1.6643,2.1595-2.1538,2.4412-1.4424,0.83459-2.6955,1.2519-3.7593,1.2519h-1.2531v-2.8793h0.97898c1.4815,0,2.6433-0.37556,3.4852-1.1267,0.67876-0.60507,1.3967-1.4605,2.1538-2.5664,0.6135-0.89718,1.2498-1.5283,1.909-1.8935m-16.379,8.4658-3.2307,0,0-2.8793,3.0349,0c0.96594,0,1.5958-0.54248,1.8895-1.6274,0.10442-0.37556,0.15664-0.75112,0.15664-1.1267,0-0.71983-0.17622-1.424-0.52866-2.1126l-3.0349-5.9464c-0.32634-0.63636-0.4895-1.3771-0.4895-2.2221,0-0.36511,0.0326-0.7198,0.0979-1.0641,0.20233-1.231,0.64287-2.0708,1.3216-2.5194l7.2935-4.851v2.9106l-5.825,3.9121c-0.46338,0.31298-0.76361,0.67811-0.90067,1.0954-0.0392,0.11476-0.0587,0.30255-0.0587,0.56335,0,0.33385,0.10116,0.69376,0.30349,1.0797l5.7075,11.032c0.14358,0.27124,0.33937,0.4799,0.5874,0.62594,0.28063,0.16692,0.62981,0.25038,1.0475,0.25038h0.86151v2.8793h-1.2923c-0.42424,0-0.82563-0.12518-1.2042-0.37557-0.67225-0.44858-1.116-0.88674-1.3314-1.3145l-0.94962-1.8778c-0.13706,0.4799-0.26107,0.86068-0.37202,1.1423-0.62003,1.617-1.648,2.4255-3.0838,2.4255m-6.1774-1.3458c-0.50255,0.89717-1.2498,1.3458-2.2419,1.3458h-0.88109v-2.8793h0.34264c0.64614,0.00001,1.1128-0.2295,1.4-0.68853,0.31979-0.51117,0.4797-1.3197,0.4797-2.4255v-3.3957h1.8013v3.3957c0,1.1058,0.15991,1.9144,0.47971,2.4255,0.28717,0.45904,0.75382,0.68854,1.4,0.68853h0.53843v2.8793h-1.0769c-0.97899,0-1.7263-0.44859-2.2419-1.3458m0.4895,3.693,1.4685,0,0,2.3473-1.4685,0,0-2.3473m-2.4475,0,1.4685,0,0,2.3473-1.4685,0,0-2.3473m-8.3508-4.9762c0.79624,0.43815,1.4424,0.65724,1.9384,0.65724,0.28716,0,0.49928-0.11477,0.63634-0.34428,0.34591-0.59464,0.51886-1.1945,0.51887-1.7996-0.00001-0.25037-0.0196-0.47988-0.0587-0.68853-0.13706-0.91805-0.39812-1.4658-0.78318-1.6431-0.26108-0.12518-0.54173-0.18778-0.84194-0.18778-0.38507,0-0.66572,0.14083-0.84193,0.4225-0.44381,0.7094-0.66572,1.4188-0.66572,2.1282,0,0.41731,0.0326,0.9024,0.0979,1.4553m4.288,1.8152c-0.0979,0.14606-0.18928,0.26079-0.27412,0.34426-0.86805,0.83458-1.5468,1.2519-2.0363,1.2519-1.1813,0-2.2321-0.40687-3.1524-1.2206-0.32634-0.2921-0.73425-0.0313-1.2237,0.78244-0.16318,0.27124-0.24476,0.81893-0.24476,1.6431v5.7117h-1.958v-5.7117c0-1.8048,0.3916-3.2392,1.1748-4.3034,0.42422-0.57376,0.93003-0.86065,1.5174-0.86067-0.0131-0.43814-0.0195-0.86588-0.0195-1.2832-0.00001-1.544,0.52864-3.0045,1.586-4.3816,0.50255-0.65723,1.054-0.98583,1.6545-0.98585,0.4699,0.00002,0.97898,0.1878,1.5272,0.56335,1.1095,0.7407,1.7948,2.0448,2.0559,3.9121,0.0979,0.69897,0.27738,1.278,0.53845,1.737,0.248,0.45904,0.71466,0.68854,1.4,0.68854h0.73425v2.8793h-1.2727c-1.1422,0-1.8111-0.25559-2.0069-0.76678"/>
<ellipse d="m 36,-218 c 0,9.94113 -8.058875,18 -18,18 -9.9411255,0 -18,-8.05887 -18,-18 0,-9.94113 8.0588745,-18 18,-18 9.941125,0 18,8.05887 18,18 z" rx="18" ry="18" stroke="#000" transform="translate(83.370829,295.00323)" cy="-218" cx="18" stroke-width="1" fill="#FFF"/>
<text font-size="28.84347153px" font-weight="500" style="writing-mode:lr-tb;text-anchor:middle;text-align:center;" font-style="italic" line-height="125%" font-stretch="normal" font-variant="normal" y="85.396675" x="100.26688" font-family="URW Chancery L">1</text>
<ellipse d="m 136,-218 c 0,9.94113 -8.05887,18 -18,18 -9.94113,0 -18,-8.05887 -18,-18 0,-9.94113 8.05887,-18 18,-18 9.94113,0 18,8.05887 18,18 z" rx="18" ry="18" stroke="#000" transform="translate(83.370829,295.00323)" cy="-218" cx="118" stroke-width="1" fill="#FFF"/>
<text font-size="28.84347153px" font-weight="500" style="writing-mode:lr-tb;text-anchor:middle;text-align:center;" font-style="italic" line-height="125%" font-stretch="normal" font-variant="normal" y="85.007286" x="200.26689" font-family="URW Chancery L">2</text>
<ellipse d="m 336,-218 c 0,9.94113 -8.05887,18 -18,18 -9.94113,0 -18,-8.05887 -18,-18 0,-9.94113 8.05887,-18 18,-18 9.94113,0 18,8.05887 18,18 z" rx="18" ry="18" stroke="#000" transform="translate(83.370829,295.00323)" cy="-218" cx="318" stroke-width="1" fill="#FFF"/>
<text font-size="28.84347153px" font-weight="500" style="writing-mode:lr-tb;text-anchor:middle;text-align:center;" font-style="italic" line-height="125%" font-stretch="normal" font-variant="normal" y="85.079391" x="400.15152" font-family="URW Chancery L">4</text>
<ellipse d="m 436,-218 c 0,9.94113 -8.05887,18 -18,18 -9.94113,0 -18,-8.05887 -18,-18 0,-9.94113 8.05887,-18 18,-18 9.94113,0 18,8.05887 18,18 z" rx="18" ry="18" stroke="#000" transform="translate(83.370829,295.00323)" cy="-218" cx="418" stroke-width="1" fill="#FFF"/>
<text font-size="28.84347153px" font-weight="500" style="writing-mode:lr-tb;text-anchor:middle;text-align:center;" font-style="italic" line-height="125%" font-stretch="normal" font-variant="normal" y="86.11776" x="498.59396" font-family="URW Chancery L">5</text>
<ellipse d="m 236,-218 c 0,9.94113 -8.05887,18 -18,18 -9.94113,0 -18,-8.05887 -18,-18 0,-9.94113 8.05887,-18 18,-18 9.94113,0 18,8.05887 18,18 z" rx="18" ry="18" stroke="#000" transform="translate(83.370829,295.00323)" cy="-218" cx="218" stroke-width="1" fill="#FFF"/>
<text font-size="28.84347153px" font-weight="500" style="writing-mode:lr-tb;text-anchor:middle;text-align:center;" font-style="italic" line-height="125%" font-stretch="normal" font-variant="normal" y="85.20919" x="300.58414" font-family="URW Chancery L">3</text>
<path style="text-align:start;" fill="#0067ff" d="m230.19,353.26c-0.54172-0.23993-1.1487-0.47989-1.8209-0.71983-0.55477-0.19821-1.4196-0.38078-2.5943-0.5477-0.53519-0.073-1.3282-0.0782-2.379-0.0156v-2.8793c0.46992-0.073,0.94963-0.11473,1.4391-0.12519,1.0573,0.00002,2.1473,0.18259,3.2698,0.54771,1.6838,0.54249,3.2437,1.3249,4.6796,2.3473v2.4099c-0.49603,0.25039-1.0312,0.64683-1.6056,1.1893-1.0834,1.0224-1.8666,1.8778-2.3496,2.5664-0.94637,1.3458-1.6643,2.1595-2.1538,2.4412-1.4424,0.83459-2.6955,1.2519-3.7593,1.2519h-1.2531v-2.8793h0.97899c1.4815,0.00001,2.6433-0.37556,3.4852-1.1267,0.67877-0.60507,1.3967-1.4605,2.1538-2.5664,0.61351-0.89718,1.2498-1.5283,1.909-1.8935m-16.379,8.4658-3.2307,0,0-2.8793,3.0349,0c0.96594,0.00001,1.5958-0.54248,1.8895-1.6274,0.10442-0.37556,0.15663-0.75112,0.15663-1.1267,0-0.71983-0.17622-1.424-0.52865-2.1126l-3.0349-5.9464c-0.32634-0.63636-0.48951-1.3771-0.48951-2.2221,0-0.36511,0.0326-0.71981,0.0979-1.0641,0.20233-1.231,0.64287-2.0708,1.3216-2.5194l7.2935-4.851v2.9106l-5.825,3.9121c-0.46339,0.31298-0.76362,0.67811-0.90067,1.0954-0.0392,0.11477-0.0587,0.30255-0.0587,0.56335,0,0.33385,0.10116,0.69376,0.30348,1.0797l5.7075,11.032c0.14358,0.27124,0.33937,0.47989,0.5874,0.62593,0.28063,0.16692,0.6298,0.25039,1.0475,0.25038h0.86151v2.8793h-1.2923c-0.42424,0-0.82563-0.12518-1.2042-0.37556-0.67225-0.44859-1.1161-0.88675-1.3314-1.3145l-0.94962-1.8778c-0.13707,0.4799-0.26108,0.86068-0.37202,1.1423-0.62003,1.617-1.648,2.4255-3.0838,2.4255m-6.1774-1.3458c-0.50255,0.89717-1.2498,1.3458-2.2419,1.3458h-0.88109v-2.8793h0.34264c0.64614,0.00001,1.1128-0.22951,1.4-0.68854,0.31979-0.51117,0.4797-1.3197,0.4797-2.4255v-3.3957h1.8013v3.3957c0,1.1058,0.15991,1.9144,0.47971,2.4255,0.28717,0.45903,0.75382,0.68855,1.4,0.68854h0.53843v2.8793h-1.0769c-0.97899,0-1.7263-0.44859-2.2419-1.3458m0.4895,3.693,1.4685,0,0,2.3473-1.4685,0,0-2.3473m-2.4475,0,1.4685,0,0,2.3473-1.4685,0,0-2.3473m-8.3508-4.9762c0.79624,0.43815,1.4424,0.65724,1.9384,0.65724,0.28717,0,0.49928-0.11477,0.63635-0.34428,0.3459-0.59464,0.51886-1.1945,0.51887-1.7996-0.00001-0.25037-0.0196-0.47988-0.0587-0.68853-0.13706-0.91805-0.39813-1.4658-0.78319-1.6431-0.26107-0.12518-0.54172-0.18778-0.84193-0.18778-0.38508,0-0.66573,0.14083-0.84194,0.4225-0.44381,0.7094-0.66572,1.4188-0.66571,2.1282-0.00001,0.4173,0.0326,0.9024,0.0979,1.4553m4.288,1.8152c-0.0979,0.14606-0.18928,0.2608-0.27412,0.34427-0.86804,0.83458-1.5468,1.2519-2.0363,1.2519-1.1813,0-2.2321-0.40687-3.1524-1.2206-0.32634-0.2921-0.73425-0.0313-1.2237,0.78244-0.16317,0.27124-0.24475,0.81893-0.24475,1.6431v5.7117h-1.958v-5.7117c0-1.8048,0.3916-3.2392,1.1748-4.3034,0.42423-0.57377,0.93004-0.86066,1.5174-0.86067-0.0131-0.43814-0.0196-0.86588-0.0196-1.2832-0.00001-1.544,0.52865-3.0045,1.586-4.3816,0.50255-0.65723,1.054-0.98583,1.6545-0.98585,0.46991,0.00002,0.97899,0.1878,1.5272,0.56335,1.1095,0.7407,1.7948,2.0448,2.0559,3.9121,0.0979,0.69898,0.27738,1.278,0.53846,1.737,0.24799,0.45904,0.71465,0.68854,1.4,0.68854h0.73425v2.8793h-1.2727c-1.1422,0-1.8111-0.25559-2.0069-0.76678"/>
<path stroke-linejoin="miter" fill="#FFF" fill-rule="evenodd" stroke-dashoffset="14.99999404" transform="matrix(0.80120755,0,0,0.80120755,-33.102181,-8.0466089)" stroke="#0067ff" stroke-linecap="square" stroke-miterlimit="4" stroke-dasharray="none" stroke-width="7.0999999" d="m390.93,467.48-11.07-5.7574-11.019,5.8553,2.0548-12.307-8.9736-8.6699,12.34-1.849,5.4726-11.214,5.5717,11.165,12.356,1.7396-8.8965,8.7491z"/>
<rect stroke-linejoin="miter" stroke-dasharray="none" fill-rule="evenodd" stroke-dashoffset="14.99999404" height="21.852" width="21.043" stroke="#0060ff" stroke-linecap="square" stroke-miterlimit="4" y="344.73" x="319.1" stroke-width="5.6886" fill="#FFF"/>
<path stroke-linejoin="miter" fill="#FFF" fill-rule="evenodd" stroke-dashoffset="14.99999404" transform="matrix(0.80120755,0,0,0.80120755,83.766799,-8.0466089)" stroke="#0067ff" stroke-linecap="square" stroke-miterlimit="4" stroke-dasharray="none" stroke-width="7.0999999" d="m390.93,467.48-11.07-5.7574-11.019,5.8553,2.0548-12.307-8.9736-8.6699,12.34-1.849,5.4726-11.214,5.5717,11.165,12.356,1.7396-8.8965,8.7491z"/>
<path stroke-linejoin="miter" fill="#FFF" fill-rule="evenodd" stroke-dashoffset="14.99999404" transform="matrix(0.80120755,0,0,0.80120755,142.20125,-8.0466089)" stroke="#0067ff" stroke-linecap="square" stroke-miterlimit="4" stroke-dasharray="none" stroke-width="7.0999999" d="m390.93,467.48-11.07-5.7574-11.019,5.8553,2.0548-12.307-8.9736-8.6699,12.34-1.849,5.4726-11.214,5.5717,11.165,12.356,1.7396-8.8965,8.7491z"/>
<path stroke-linejoin="miter" d="m409.11,474.55c0.50647,1.4181-1.6617,1.3824-2.357,0.8418-1.8842-1.4649-0.94513-4.3224,0.67344-5.5558,2.8952-2.2064,6.9812-0.6901,8.7546,2.1887,2.6026,4.2247,0.44479,9.6824-3.7039,11.953-5.5295,3.0269-12.399,0.20466-15.152-5.2191-3.4642-6.8253,0.0326-15.124,6.7343-18.351,8.1167-3.9081,17.853,0.26811,21.55,8.2496,4.3562,9.4059-0.50255,20.585-9.7648,24.749-10.694,4.8067-23.319-0.73627-27.948-11.28-5.2591-11.98,0.96949-26.054,12.795-31.146,13.267-5.7126,28.79,1.2024,34.345,14.31,6.167,14.552-1.4349,31.527-15.826,37.544" fill-rule="evenodd" transform="matrix(0.64307562,0,0,0.68102561,240.23395,30.186131)" stroke="#2169ea" stroke-linecap="butt" stroke-miterlimit="4" stroke-dasharray="none" stroke-width="4.84275246" fill="#FFF"/>
<text style="writing-mode:lr-tb;letter-spacing:0px;text-anchor:start;word-spacing:0px;text-align:start;" font-weight="normal" xml:space="preserve" font-size="8.01207542px" font-style="normal" font-stretch="normal" font-variant="normal" y="360.54141" x="0.6042949" font-family="Cabin" line-height="125%" fill="#000000"><tspan font-size="19.22898102px" y="360.54141" x="0.6042949">Observed output</tspan></text>
<text style="writing-mode:lr-tb;letter-spacing:0px;text-anchor:start;word-spacing:0px;text-align:start;" font-weight="normal" xml:space="preserve" font-size="19.22898102px" font-style="normal" font-stretch="normal" font-variant="normal" y="408.76968" x="0.6042949" font-family="Cabin" line-height="125%" fill="#000000"><tspan x="0.6042949" y="408.76968">Most probable state sequence</tspan></text>
<text style="writing-mode:lr-tb;letter-spacing:0px;text-anchor:start;word-spacing:0px;text-align:start;" font-weight="normal" xml:space="preserve" font-size="19.22898102px" font-style="normal" font-stretch="normal" font-variant="normal" y="411.17331" x="299.3678" font-family="Cabin" line-height="125%" fill="#000000"><tspan font-size="32.0483017px" font-style="italic" font-stretch="normal" font-variant="normal" y="411.17331" x="299.3678" font-family="URW Chancery L">4 3 2 5 3 2</tspan></text>
<text style="writing-mode:lr-tb;letter-spacing:0px;text-anchor:start;word-spacing:0px;text-align:start;" font-weight="normal" xml:space="preserve" font-size="19.22898102px" font-style="normal" font-stretch="normal" font-variant="normal" y="72.099838" x="0.6042949" font-family="Cabin" line-height="125%" fill="#000000"><tspan x="0.6042949" y="72.099838">Hidden</tspan><tspan x="0.6042949" y="96.136063">states</tspan></text>
<text style="writing-mode:lr-tb;letter-spacing:0px;text-anchor:start;word-spacing:0px;text-align:start;" font-weight="normal" xml:space="preserve" font-size="19.22898102px" font-style="normal" font-stretch="normal" font-variant="normal" y="269.52316" x="0.6042949" font-family="Cabin" line-height="125%" fill="#000000"><tspan x="0.6042949" y="269.52316">Output</tspan><tspan x="0.6042949" y="293.55939">symbols</tspan></text>
</svg>
