<?xml version="1.0" encoding="UTF-8" standalone="no"?>
<?xml-stylesheet type="text/css" href="r/fonts.css"?>
<svg xmlns:rdf="http://www.w3.org/1999/02/22-rdf-syntax-ns#" xmlns="http://www.w3.org/2000/svg" height="100%" width="100%" version="1.1" xmlns:cc="http://creativecommons.org/ns#" xmlns:xlink="http://www.w3.org/1999/xlink" viewBox="0 0 773.5 346" xmlns:dc="http://purl.org/dc/elements/1.1/">
<metadata>
<rdf:RDF>
<cc:Work rdf:about="">
<dc:format>image/svg+xml</dc:format>
<dc:type rdf:resource="http://purl.org/dc/dcmitype/StillImage"/>
<dc:title/>
</cc:Work>
</rdf:RDF>
</metadata>
<defs>
<marker id="AsG" overflow="visible" orient="auto">
<path d="M5.2312,2.4202-1.3244,0.0096078,5.2312-2.401c-1.0743,1.4233-1.0412,3.3705-3.6E-7,4.8212z" fill="#19a61b"/>
</marker>
<marker id="AeG" overflow="visible" orient="auto">
<path d="M-5.2312-2.4202,1.3244-0.0096078-5.2312,2.401c1.0743-1.4233,1.0412-3.3705,3.6E-7-4.8212z" fill="#19a61b"/>
</marker>
<linearGradient id="lg1" x2="0.5" x1="0.5" y2="1">
<stop stop-color="#fff" offset="0"/>
<stop stop-color="#fcfcd8" offset="1"/>
</linearGradient>
<linearGradient id="lg2" x2="0.5" y1="1" x1="0.5">
<stop stop-color="#f0eec3" offset="0"/>
<stop stop-color="#fbfbfa" offset="1"/>
</linearGradient>
<linearGradient id="lg3" y1="0.5" y2="0.5">
<stop stop-color="#565f6b" offset="0"/>
<stop stop-color="#b8bdc6" offset="0.10274"/>
<stop stop-color="#d6dde6" offset="0.5"/>
<stop stop-color="#b8bdc6" offset="0.89726"/>
<stop stop-color="#565f6b" offset="1"/>
</linearGradient>
<radialGradient id="rg2" cy="0.1" cx="0.1" r="0.65">
<stop stop-color="#909090" offset="0"/>
<stop stop-color="#666" offset="1"/>
</radialGradient>
<filter id="f1">
<feFlood flood-opacity="0.5"/>
<feComposite operator="in" in2="SourceGraphic"/>
<feGaussianBlur stdDeviation="2"/>
<feOffset result="result1" dx="1" dy="1"/>
<feComposite operator="over" in2="result1" in="SourceGraphic"/>
</filter>
</defs>
<g filter="url(#f1)">
<rect height="10.38" width="108.25" y="299.63" x="649.19" fill="url(#lg3)"/>
<path stroke="#90908e" stroke-linecap="square" d="m728.53,310.75,0-5.9316m-25.209,5.9316,0-5.9316m-25.209,5.9316,0-5.9316m-28.175,5.9316,106.77,0" fill="none"/>
<path stroke="#b8bdc6" stroke-linecap="square" d="m661.8,303.34,81.559,0" fill="none"/>
<rect height="2.9658" width="19.278" stroke="#a8a8a6" y="300.37" x="676.63" fill="#888b8e"/>
<rect height="2.9658" width="8.8973" stroke="#a8a8a6" y="300.37" x="715.18" fill="#888b8e"/>
<path stroke="#888b8e" d="m672.18,301.86a1.4829,1.4829,0,0,1,-2.9658,0,1.4829,1.4829,0,1,1,2.9658,0z" fill="#4e4e4e"/>
</g>
<g id="router">
<path stroke="#7d7d7d" stroke-width="2" d="m58.23,150.37,8.2121-8.2121,49.273,0,8.2121,8.2121,0,19.162-65.697,0z" fill="#e1e1e1"/>
<g stroke="#9c9c9c" stroke-width="0.68434">
<path d="m63.705,150.37,5.4747-5.4748,45.167,0,5.4748,5.4748z" fill="#bdbdbd"/>
<path d="m61.652,153.1,58.854,0c0.37692,0,0.68434,0.30741,0.68434,0.68435v12.318c0,0.37954-0.30742,0.68434-0.68434,0.68434h-58.854c-0.37693,0-0.68434-0.3048-0.68434-0.68434v-12.318c0-0.37694,0.30742-0.68435,0.68434-0.68435" fill="#bdbdbd"/>
<g fill="#515151">
<path d="m87.658,154.47,4.2798,0c0.37692,0,0.68435,0.30741,0.68435,0.68434v2.7374c0,0.37953-0.30743,0.68434-0.68435,0.68434h-4.2798c-0.37692,0-0.68434-0.30481-0.68434-0.68434v-2.7374c0-0.37693,0.30742-0.68434,0.68434-0.68434"/>
<path d="m87.658,161.32,4.2798,0c0.37692,0,0.68435,0.30741,0.68435,0.68435v2.7374c0,0.37954-0.30743,0.68435-0.68435,0.68435h-4.2798c-0.37692,0-0.68434-0.30481-0.68434-0.68435v-2.7374c0-0.37694,0.30742-0.68435,0.68434-0.68435"/>
<path d="m95.868,154.47,4.2798,0c0.37692,0,0.68435,0.30741,0.68435,0.68434v2.7374c0,0.37953-0.30743,0.68434-0.68435,0.68434h-4.2798c-0.37693,0-0.68435-0.30481-0.68435-0.68434v-2.7374c0-0.37693,0.30742-0.68434,0.68435-0.68434"/>
<path d="m95.868,161.32,4.2798,0c0.37692,0,0.68435,0.30741,0.68435,0.68435v2.7374c0,0.37954-0.30743,0.68435-0.68435,0.68435h-4.2798c-0.37693,0-0.68435-0.30481-0.68435-0.68435v-2.7374c0-0.37694,0.30742-0.68435,0.68435-0.68435"/>
<path d="m63.02,154.47,4.2798,0c0.37692,0,0.68434,0.30741,0.68434,0.68434v2.7374c0,0.37953-0.30742,0.68434-0.68434,0.68434h-4.2798c-0.37693,0-0.68434-0.30481-0.68434-0.68434v-2.7374c0-0.37693,0.30742-0.68434,0.68434-0.68434"/>
<path d="m63.02,161.32,4.2798,0c0.37692,0,0.68434,0.30741,0.68434,0.68435v2.7374c0,0.37954-0.30742,0.68435-0.68434,0.68435h-4.2798c-0.37693,0-0.68434-0.30481-0.68434-0.68435v-2.7374c0-0.37694,0.30742-0.68435,0.68434-0.68435"/>
<path d="m71.233,154.47,4.2798,0c0.37692,0,0.68434,0.30741,0.68434,0.68434v2.7374c0,0.37953-0.30742,0.68434-0.68434,0.68434h-4.2798c-0.37693,0-0.68434-0.30481-0.68434-0.68434v-2.7374c0-0.37693,0.30742-0.68434,0.68434-0.68434"/>
<path d="m71.233,161.32,4.2798,0c0.37692,0,0.68434,0.30741,0.68434,0.68435v2.7374c0,0.37954-0.30742,0.68435-0.68434,0.68435h-4.2798c-0.37693,0-0.68434-0.30481-0.68434-0.68435v-2.7374c0-0.37694,0.30742-0.68435,0.68434-0.68435"/>
<path d="m79.445,154.47,4.2798,0c0.37692,0,0.68434,0.30741,0.68434,0.68434v2.7374c0,0.37953-0.30742,0.68434-0.68434,0.68434h-4.2798c-0.37692,0-0.68434-0.30481-0.68434-0.68434v-2.7374c0-0.37693,0.30742-0.68434,0.68434-0.68434"/>
<path d="m79.445,161.32,4.2798,0c0.37692,0,0.68434,0.30741,0.68434,0.68435v2.7374c0,0.37954-0.30742,0.68435-0.68434,0.68435h-4.2798c-0.37692,0-0.68434-0.30481-0.68434-0.68435v-2.7374c0-0.37694,0.30742-0.68435,0.68434-0.68435"/>
</g>
<g stroke="#7d7d7d">
<path d="m105.45,155.84c0,0.91428-1.3687,0.91428-1.3687,0,0-0.91155,1.3687-0.91155,1.3687,0" fill="#00c700"/>
<path d="m105.45,158.58c0,0.91428-1.3687,0.91428-1.3687,0,0-0.91154,1.3687-0.91154,1.3687,0" fill="#c51900"/>
<path d="m105.45,161.32c0,0.91429-1.3687,0.91429-1.3687,0,0-0.91154,1.3687-0.91154,1.3687,0" fill="#00c700"/>
<path d="m105.45,164.05c0,0.91428-1.3687,0.91428-1.3687,0,0-0.91155,1.3687-0.91155,1.3687,0" fill="#00c700"/>
<path d="m111.61,154.47,1.3687,0,0,10.95-1.3687,0z" fill="#9c9c9c"/>
<path d="m114.35,154.47,1.3687,0,0,10.95-1.3687,0z" fill="#9c9c9c"/>
<path d="m117.09,154.47,1.3687,0,0,10.95-1.3687,0z" fill="#9c9c9c"/>
</g>
</g>
</g>
<g>
<g filter="url(#f1)">
<rect height="2.9658" width="34.106" stroke="#cfcead" y="316.26" x="19.136" fill="#fcfcd8"/>
<rect height="44.487" width="59.316" stroke="#e8e8e1" y="271.77" x="6.5316" fill="url(#lg2)"/>
<rect height="38.555" width="50.418" stroke="#9d9d9b" y="274.74" x="10.981" fill="url(#rg2)"/>
<rect height="4.4487" width="34.106" stroke="#cfcead" y="322.19" x="19.136" fill="#f7f7e6"/>
<rect height="11.863" width="53.384" stroke="#adadac" y="326.84" x="9.4975" fill="#adadac"/>
<path stroke="#e7e7cb" d="m22.843,320.71,26.692,0" fill="none"/>
<path stroke-linejoin="bevel" stroke="#b2b199" d="m9.4975,326.84,10.38,11.863,32.624,0,10.38-11.863z" fill="url(#lg1)"/>
</g>
</g>
<use y="0" x="152.68881" xlink:href="#router"/>
<use y="0" x="261.68081" xlink:href="#router"/>
<use y="0" x="370.67381" xlink:href="#router"/>
<use y="0" x="512" xlink:href="#router"/>
<g style="marker-start:url(#AsG);marker-end:url(#AeG);" stroke-width="3" stroke="#19a61b" fill="none">
<path d="m610,179.42,76,108.5"/>
<path d="m371.02,133s21.138-16.588,36.879-16.588,36.879,16.589,36.879,16.589"/>
<path d="m476.76,133s35.612-22.588,62.131-22.588,62.131,22.589,62.131,22.589"/>
<path d="m75,291c51.967-18.659,26-69.507,26-110"/>
<path d="m102.76,133s35.612-22.588,62.131-22.588,62.131,22.589,62.131,22.589"/>
<path d="m263.02,133s21.138-16.588,36.879-16.588,36.879,16.589,36.879,16.589"/>
<path marker-start="none" d="m591.44,41.236,39,0"/>
</g>
<g font-size="18px" font-family="Cabin">
<text y="259.848620" x="16.900071">Alice</text>
<text y="336.06915" x="686.87915">Bob</text>
<text y="45.806053" x="647.14819" xml:space="preserve">Secure channel</text>
</g>
</svg>
