<?xml version="1.0" encoding="UTF-8" standalone="no"?>
<!-- Created with Inkscape (http://www.inkscape.org/) -->

<svg
   xmlns:dc="http://purl.org/dc/elements/1.1/"
   xmlns:cc="http://creativecommons.org/ns#"
   xmlns:rdf="http://www.w3.org/1999/02/22-rdf-syntax-ns#"
   xmlns:svg="http://www.w3.org/2000/svg"
   xmlns="http://www.w3.org/2000/svg"
   xmlns:xlink="http://www.w3.org/1999/xlink"
   xmlns:sodipodi="http://sodipodi.sourceforge.net/DTD/sodipodi-0.dtd"
   xmlns:inkscape="http://www.inkscape.org/namespaces/inkscape"
   width="261.89999"
   height="225.89999"
   id="svg3406"
   version="1.1"
   inkscape:version="0.48.3.1 r9886"
   sodipodi:docname="dataflow-cloud.svg">
  <sodipodi:namedview
     id="base"
     pagecolor="#ffffff"
     bordercolor="#666666"
     borderopacity="1.0"
     inkscape:pageopacity="0.0"
     inkscape:pageshadow="2"
     inkscape:zoom="1"
     inkscape:cx="46.350268"
     inkscape:cy="22.026159"
     inkscape:document-units="px"
     inkscape:current-layer="layer1"
     showgrid="false"
     units="in"
     showguides="true"
     inkscape:guide-bbox="true"
     inkscape:window-width="1500"
     inkscape:window-height="1021"
     inkscape:window-x="0"
     inkscape:window-y="27"
     inkscape:window-maximized="0" />
  <defs
     id="defs3408">
    <inkscape:path-effect
       effect="spiro"
       id="path-effect4176"
       is_visible="true" />
    <linearGradient
       gradientTransform="translate(7.0721537,7.1504076)"
       y2="209.88333"
       x2="420.57245"
       y1="564.73291"
       x1="332.04541"
       gradientUnits="userSpaceOnUse"
       id="linearGradient28105"
       xlink:href="#linearGradient24132"
       inkscape:collect="always" />
    <linearGradient
       id="linearGradient8367">
      <stop
         id="stop8369"
         offset="0"
         style="stop-color:#000000;stop-opacity:1;" />
      <stop
         id="stop8371"
         offset="1"
         style="stop-color:#000000;stop-opacity:0;" />
    </linearGradient>
    <linearGradient
       id="linearGradient9358">
      <stop
         id="stop9360"
         offset="0"
         style="stop-color:#ffffff;stop-opacity:1;" />
      <stop
         id="stop9362"
         offset="1"
         style="stop-color:#cecbd9;stop-opacity:0.74257427;" />
    </linearGradient>
    <linearGradient
       id="linearGradient24132">
      <stop
         id="stop24134"
         offset="0"
         style="stop-color:#000000;stop-opacity:0.78431374;" />
      <stop
         id="stop24136"
         offset="1"
         style="stop-color:#727272;stop-opacity:0.78431374;" />
    </linearGradient>
    <inkscape:perspective
       sodipodi:type="inkscape:persp3d"
       inkscape:vp_x="0 : 0.5 : 1"
       inkscape:vp_y="0 : 1000 : 0"
       inkscape:vp_z="1 : 0.5 : 1"
       inkscape:persp3d-origin="0.5 : 0.33333333 : 1"
       id="perspective3829" />
    <inkscape:perspective
       sodipodi:type="inkscape:persp3d"
       inkscape:vp_x="0 : 0.5 : 1"
       inkscape:vp_y="0 : 1000 : 0"
       inkscape:vp_z="1 : 0.5 : 1"
       inkscape:persp3d-origin="0.5 : 0.33333333 : 1"
       id="perspective3804" />
    <inkscape:perspective
       sodipodi:type="inkscape:persp3d"
       inkscape:vp_x="0 : 0.5 : 1"
       inkscape:vp_y="0 : 1000 : 0"
       inkscape:vp_z="1 : 0.5 : 1"
       inkscape:persp3d-origin="0.5 : 0.33333333 : 1"
       id="perspective2890" />
    <inkscape:perspective
       id="perspective2880"
       inkscape:persp3d-origin="372.04724 : 350.78739 : 1"
       inkscape:vp_z="744.09448 : 526.18109 : 1"
       inkscape:vp_y="0 : 1000 : 0"
       inkscape:vp_x="0 : 526.18109 : 1"
       sodipodi:type="inkscape:persp3d" />
  </defs>
  <metadata
     id="metadata3411">
    <rdf:RDF>
      <cc:Work
         rdf:about="">
        <dc:format>image/svg+xml</dc:format>
        <dc:type
           rdf:resource="http://purl.org/dc/dcmitype/StillImage" />
        <dc:title />
      </cc:Work>
    </rdf:RDF>
  </metadata>
  <g
     inkscape:label="Layer 1"
     inkscape:groupmode="layer"
     id="layer1"
     transform="translate(0,-826.4609)">
    <rect
       style="fill:#d0d0d0;fill-opacity:1;stroke:none"
       id="rect3543"
       width="98.479584"
       height="44.343098"
       x="75.816147"
       y="924.0835" />
    <path
       style="fill:none;stroke:#a9a9a9;stroke-width:6;stroke-linecap:butt;stroke-linejoin:miter;stroke-miterlimit:4;stroke-opacity:1;stroke-dasharray:none"
       d="m 75,988.62432 147,0"
       id="path5972"
       inkscape:connector-curvature="0" />
    <rect
       style="fill:#d0d0d0;fill-opacity:1;stroke:none"
       id="rect5887"
       width="164.89032"
       height="44.397839"
       x="75.816132"
       y="1007.9631" />
    <g
       id="g3480"
       transform="matrix(0.20447227,0,0,0.20447227,146.88632,927.72051)"
       inkscape:tile-cx="111.49999"
       inkscape:tile-cy="97.499998"
       inkscape:tile-w="24.640248"
       inkscape:tile-h="37.782999"
       inkscape:tile-x0="99.17987"
       inkscape:tile-y0="78.608498">
      <path
         style="fill:#c4c4c4;fill-opacity:1;fill-rule:evenodd;stroke:none"
         id="path2554"
         d="m 69.154537,13.793991 -4.917,19.529001 c 6.965,-13.793001 18.027,-24.1720008 30.729,-33.3230008157894 C 85.679537,10.788991 77.212537,21.578992 72.022537,32.367992 80.763537,20.075991 92.508537,13.247991 105.75554,8.7409912 88.137537,24.446992 74.153257,41.300268 63.500257,58.235268 l -8.467,-3.687 c 1.501,-13.521 6.60928,-27.369276 14.12128,-40.754277 z"
         inkscape:connector-curvature="0" />
      <path
         style="fill:#757575;fill-opacity:1;fill-rule:evenodd;stroke:none"
         id="path2536"
         d="m 62.663507,57.403168 5.80803,2.96282 c -0.546,3.823 0.273,12.292 4.096,14.476 16.936,10.515999 32.914003,21.987999 39.197003,33.460002 22.398,40.42601 -15.706003,77.84601 -48.620003,74.29501 17.891,-13.248 23.081,-40.42501 16.389,-70.06201 -2.731,-11.609 -6.966,-22.125003 -14.478,-34.007002 -3.25421,-5.83246 -2.11803,-13.06582 -2.39203,-21.12482 z"
         inkscape:connector-curvature="0" />
      <path
         style="fill:#000000;fill-opacity:1;stroke:none"
         id="path2538"
         d="m 59.867537,56.404988 12.018,1.639 c -3.551,11.745 6.966,19.939 10.38,21.852 7.64801,4.233999 15.02301,8.603999 20.896013,13.929999 11.063,10.106003 17.345,24.310003 17.345,39.333003 0,14.886 -6.829,29.226 -18.301,38.786 -10.789003,9.014 -25.675013,12.838 -40.152013,12.838 -9.014,0 -17.072,-0.409 -25.812,-3.278 -19.939,-6.692 -34.8260005,-23.763 -36.05500045,-44.25 -1.093,-15.979 2.45799995,-28.134 14.88700045,-40.835003 6.418,-6.692 19.393,-14.34 28.271,-20.485999 4.371,-3.005 9.014,-11.473 0.136,-27.451 l 1.776,-1.366 13.15659,8.81203 -11.10759,-4.57803 c 0.956,1.366 3.551,7.512 4.098,9.287 1.229,5.053 0.683,9.971 -0.41,12.155 -5.599,10.106999 -15.159,12.837999 -22.124,18.573999 -12.292,10.106003 -25.6760005,18.164003 -24.1740005,45.888003 0.683,13.657 11.3360005,30.319 27.3140005,38.104 9.014,4.371 19.394,6.146 29.91,6.692 9.423,0.41 27.45101,-5.19 37.28401,-13.384 10.516003,-8.74 16.389003,-21.988 16.389003,-35.508 0,-13.658 -5.463,-26.632 -15.706003,-35.783003 -5.873,-5.326 -15.56901,-11.745 -21.57801,-15.16 -6.009,-3.413999 -13.521,-12.973999 -11.063,-22.123999 z"
         inkscape:connector-curvature="0" />
      <path
         style="fill:#000000;fill-opacity:1;stroke:none"
         id="path2540"
         d="m 56.180537,76.617988 c -1.229,6.282999 -2.595,17.617999 -8.058,21.851999 -2.322,1.638003 -4.644,3.278003 -7.102,4.916003 -9.833,6.693 -19.667,12.974 -24.173,29.09 -0.956,3.415 -0.136,7.102 0.684,10.516 2.458,9.833 9.423,20.486 14.886,26.769 0,0.273 1.093,0.956 1.093,1.229 4.507,5.327 5.873,6.829 22.944,10.652 l -0.41,1.913 c -10.243,-2.731 -18.71,-5.189 -24.037,-11.336 0,-0.136 -0.956,-1.093 -0.956,-1.093 -5.736,-6.556 -12.702,-17.481 -15.296,-27.724 -0.956,-4.098 -1.775,-7.238 -0.683,-11.473 4.643,-16.661 14.75,-23.217 24.993,-30.182 2.322,-1.502 5.053,-2.869003 7.238,-4.644003 4.233,-3.14 6.554,-12.701 8.877,-20.484999 z"
         inkscape:connector-curvature="0" />
      <path
         style="fill:#000000;fill-opacity:1;stroke:none"
         id="path2542"
         d="m 60.547787,102.56573 c 0.137,7.102 -0.55625,10.66475 1.21875,15.71875 1.092,3.004 4.782,7.1015 5.875,11.0625 1.502,5.327 3.138,11.19901 3,14.75001 0,4.09799 -0.25625,11.74249 -2.03125,19.93749 -1.35362,6.77108 -4.47323,12.58153 -9.71875,15.875 -5.37327,-1.10644 -11.68224,-2.99521 -15.40625,-6.1875 -7.238,-6.282 -13.64875,-16.7865 -14.46875,-25.9375 -0.682,-7.51099 6.27275,-18.5885 15.96875,-24.1875 8.194,-4.78 10.1,-10.22775 11.875,-18.96875 -2.458,7.648 -4.7665,14.05925 -12.6875,18.15625 -11.472,6.009 -17.3585,16.09626 -16.8125,25.65625 0.819,12.291 5.7415,20.6195 15.4375,27.3125 4.097,2.868 11.75125,5.89875 16.53125,6.71875 l 0,-0.625 c 3.62493,-0.67888 8.31818,-6.63267 10.65625,-14.6875 2.049,-7.238 2.85675,-16.502 2.71875,-22.37499 -0.137,-3.414 -1.643,-10.80801 -4.375,-17.50001 -1.502,-3.687 -3.8095,-7.37375 -5.3125,-9.96875 -1.637,-2.597 -1.64875,-8.195 -2.46875,-14.75 z"
         inkscape:connector-curvature="0" />
      <path
         style="fill:#000000;fill-opacity:1;stroke:none"
         id="path2544"
         d="m 59.735287,129.34698 c 0.136,4.78 2.056,10.90451 2.875,17.18751 0.684,4.64399 0.387,9.30824 0.25,13.40624 -0.13495,4.74323 -1.7152,13.24218 -3.875,17.375 -2.03673,-0.93403 -2.83294,-1.99922 -4.15625,-3.71875 -1.638,-2.322 -2.75075,-4.644 -3.84375,-7.375 -0.819,-2.049 -1.7765,-4.394 -2.1875,-7.125 -0.546,-4.097 -0.393,-10.5065 4.25,-17.06249 3.551,-5.19001 4.36475,-5.58476 5.59375,-11.59376 -1.64,5.326 -2.8625,5.869 -6.6875,10.37501 -4.233,4.917 -4.9375,12.15924 -4.9375,18.03124 0,2.459 0.9805,5.18725 1.9375,7.78125 1.092,2.732 2.02925,5.452 3.53125,7.5 2.25796,3.32082 5.14798,5.20922 6.5625,5.5625 0.009,0.002 0.022,-0.002 0.0312,0 0.0303,0.007 0.0649,0.0255 0.0937,0.0312 l 0,-0.15625 c 2.64982,-2.95437 4.24444,-5.88934 4.78125,-8.84375 0.683,-3.551 0.84,-7.10975 1.25,-11.34375 0.409,-3.551 0.11225,-8.334 -0.84375,-13.24999 -1.365,-6.146 -3.669,-12.41226 -4.625,-16.78126 z"
         inkscape:connector-curvature="0" />
      <path
         style="fill:#000000;fill-opacity:1;stroke:none"
         id="path2550"
         d="m 60.140537,70.881988 c 0.137,7.101 0.683,20.349999 2.595,25.538999 0.546,1.775 5.599,9.560003 9.149,18.983003 2.459,6.556 3.005,12.565 3.415,14.34 1.639,7.785 -0.41,20.896 -3.142,33.324 -1.365,6.692 -6.009,15.023 -11.335,18.301 l -1.092,1.912 c 3.005,-0.137 10.379,-7.375 12.974,-16.389 4.371,-15.296 6.146,-22.398 4.098,-39.333 -0.273,-1.64 -0.956,-7.238 -3.551,-13.248 -3.824,-9.151 -9.287,-17.891003 -9.969,-19.667003 -1.23,-2.867 -2.869,-15.294999 -3.142,-23.761999 z"
         inkscape:connector-curvature="0" />
      <path
         style="fill:#000000;fill-opacity:1;stroke:none"
         id="path2552"
         d="m 62.703047,61.169248 c -0.40515,7.29812 -0.51351,9.98574 0.85149,15.31174 1.502,5.872999 9.151,14.339999 12.292,24.037002 6.009,18.574 4.507,42.884 0.136,61.867 -1.638,6.691 -9.424,16.389 -17.208,19.529 l 5.736,1.366 c 3.141,-0.137 11.198,-7.648 14.34,-16.252 5.052,-13.521 6.009,-29.636 3.96,-46.571 -0.137,-1.639 -2.869,-16.252 -5.463,-22.398003 -3.688,-9.15 -10.244,-17.344999 -10.926,-19.118999 -1.228,-3.005 -3.92651,-9.24362 -3.71849,-17.77074 z"
         inkscape:connector-curvature="0" />
      <rect
         style="fill:#000000;fill-opacity:1;stroke:none"
         id="rect2556"
         y="56.033073"
         x="58.361118"
         height="126.01891"
         width="0.550412" />
    </g>
    <use
       x="0"
       y="0"
       inkscape:tiled-clone-of="#g3480"
       xlink:href="#g3480"
       id="use3501"
       transform="translate(63.793535,-49.528529)"
       width="270"
       height="360" />
    <use
       x="0"
       y="0"
       inkscape:tiled-clone-of="#g3480"
       xlink:href="#g3480"
       transform="translate(8.234103,-49.528529)"
       id="use3503"
       width="270"
       height="360" />
    <path
       style="fill:none;stroke:#000000;stroke-width:4;stroke-linecap:butt;stroke-linejoin:miter;stroke-miterlimit:4;stroke-opacity:1;stroke-dasharray:none"
       d="m 147.51963,941.46386 c -4.95367,-9.68844 -19.39253,-35.12339 4.58475,-35.12339"
       id="path3507"
       inkscape:connector-curvature="0"
       sodipodi:nodetypes="cc" />
    <path
       style="fill:none;stroke:#000000;stroke-width:2;stroke-linecap:butt;stroke-linejoin:miter;stroke-miterlimit:4;stroke-opacity:1;stroke-dasharray:none"
       d="m 182.81583,906.03214 24.80887,0"
       id="path3509"
       inkscape:connector-curvature="0"
       sodipodi:nodetypes="cc" />
    <text
       xml:space="preserve"
       style="font-size:12px;font-style:normal;font-variant:normal;font-weight:normal;font-stretch:normal;text-align:center;line-height:125%;letter-spacing:0px;word-spacing:0px;text-anchor:middle;fill:#000000;fill-opacity:1;stroke:none;font-family:Nimbus Sans L;-inkscape-font-specification:Nimbus Sans L"
       x="34"
       y="184"
       id="text5028"
       sodipodi:linespacing="125%"
       transform="translate(0,692.3609)"><tspan
         sodipodi:role="line"
         id="tspan5030"
         x="34"
         y="184" /></text>
    <g
       inkscape:tile-y0="78.608498"
       inkscape:tile-x0="99.17987"
       inkscape:tile-h="37.782999"
       inkscape:tile-w="24.640248"
       inkscape:tile-cy="97.499998"
       inkscape:tile-cx="111.49999"
       transform="matrix(0.20447227,0,0,0.20447227,146.88632,1011.5432)"
       id="g5048">
      <path
         inkscape:connector-curvature="0"
         d="m 69.154537,13.793991 -4.917,19.529001 c 6.965,-13.793001 18.027,-24.1720008 30.729,-33.3230008157894 C 85.679537,10.788991 77.212537,21.578992 72.022537,32.367992 80.763537,20.075991 92.508537,13.247991 105.75554,8.7409912 88.137537,24.446992 74.153257,41.300268 63.500257,58.235268 l -8.467,-3.687 c 1.501,-13.521 6.60928,-27.369276 14.12128,-40.754277 z"
         id="path5050"
         style="fill:#c4c4c4;fill-opacity:1;fill-rule:evenodd;stroke:none" />
      <path
         inkscape:connector-curvature="0"
         d="m 62.663507,57.403168 5.80803,2.96282 c -0.546,3.823 0.273,12.292 4.096,14.476 16.936,10.515999 32.914003,21.987999 39.197003,33.460002 22.398,40.42601 -15.706003,77.84601 -48.620003,74.29501 17.891,-13.248 23.081,-40.42501 16.389,-70.06201 -2.731,-11.609 -6.966,-22.125003 -14.478,-34.007002 -3.25421,-5.83246 -2.11803,-13.06582 -2.39203,-21.12482 z"
         id="path5052"
         style="fill:#757575;fill-opacity:1;fill-rule:evenodd;stroke:none" />
      <path
         inkscape:connector-curvature="0"
         d="m 59.867537,56.404988 12.018,1.639 c -3.551,11.745 6.966,19.939 10.38,21.852 7.64801,4.233999 15.02301,8.603999 20.896013,13.929999 11.063,10.106003 17.345,24.310003 17.345,39.333003 0,14.886 -6.829,29.226 -18.301,38.786 -10.789003,9.014 -25.675013,12.838 -40.152013,12.838 -9.014,0 -17.072,-0.409 -25.812,-3.278 -19.939,-6.692 -34.8260005,-23.763 -36.05500045,-44.25 -1.093,-15.979 2.45799995,-28.134 14.88700045,-40.835003 6.418,-6.692 19.393,-14.34 28.271,-20.485999 4.371,-3.005 9.014,-11.473 0.136,-27.451 l 1.776,-1.366 13.15659,8.81203 -11.10759,-4.57803 c 0.956,1.366 3.551,7.512 4.098,9.287 1.229,5.053 0.683,9.971 -0.41,12.155 -5.599,10.106999 -15.159,12.837999 -22.124,18.573999 -12.292,10.106003 -25.6760005,18.164003 -24.1740005,45.888003 0.683,13.657 11.3360005,30.319 27.3140005,38.104 9.014,4.371 19.394,6.146 29.91,6.692 9.423,0.41 27.45101,-5.19 37.28401,-13.384 10.516003,-8.74 16.389003,-21.988 16.389003,-35.508 0,-13.658 -5.463,-26.632 -15.706003,-35.783003 -5.873,-5.326 -15.56901,-11.745 -21.57801,-15.16 -6.009,-3.413999 -13.521,-12.973999 -11.063,-22.123999 z"
         id="path5054"
         style="fill:#000000;fill-opacity:1;stroke:none" />
      <path
         inkscape:connector-curvature="0"
         d="m 56.180537,76.617988 c -1.229,6.282999 -2.595,17.617999 -8.058,21.851999 -2.322,1.638003 -4.644,3.278003 -7.102,4.916003 -9.833,6.693 -19.667,12.974 -24.173,29.09 -0.956,3.415 -0.136,7.102 0.684,10.516 2.458,9.833 9.423,20.486 14.886,26.769 0,0.273 1.093,0.956 1.093,1.229 4.507,5.327 5.873,6.829 22.944,10.652 l -0.41,1.913 c -10.243,-2.731 -18.71,-5.189 -24.037,-11.336 0,-0.136 -0.956,-1.093 -0.956,-1.093 -5.736,-6.556 -12.702,-17.481 -15.296,-27.724 -0.956,-4.098 -1.775,-7.238 -0.683,-11.473 4.643,-16.661 14.75,-23.217 24.993,-30.182 2.322,-1.502 5.053,-2.869003 7.238,-4.644003 4.233,-3.14 6.554,-12.701 8.877,-20.484999 z"
         id="path5056"
         style="fill:#000000;fill-opacity:1;stroke:none" />
      <path
         inkscape:connector-curvature="0"
         d="m 60.547787,102.56573 c 0.137,7.102 -0.55625,10.66475 1.21875,15.71875 1.092,3.004 4.782,7.1015 5.875,11.0625 1.502,5.327 3.138,11.19901 3,14.75001 0,4.09799 -0.25625,11.74249 -2.03125,19.93749 -1.35362,6.77108 -4.47323,12.58153 -9.71875,15.875 -5.37327,-1.10644 -11.68224,-2.99521 -15.40625,-6.1875 -7.238,-6.282 -13.64875,-16.7865 -14.46875,-25.9375 -0.682,-7.51099 6.27275,-18.5885 15.96875,-24.1875 8.194,-4.78 10.1,-10.22775 11.875,-18.96875 -2.458,7.648 -4.7665,14.05925 -12.6875,18.15625 -11.472,6.009 -17.3585,16.09626 -16.8125,25.65625 0.819,12.291 5.7415,20.6195 15.4375,27.3125 4.097,2.868 11.75125,5.89875 16.53125,6.71875 l 0,-0.625 c 3.62493,-0.67888 8.31818,-6.63267 10.65625,-14.6875 2.049,-7.238 2.85675,-16.502 2.71875,-22.37499 -0.137,-3.414 -1.643,-10.80801 -4.375,-17.50001 -1.502,-3.687 -3.8095,-7.37375 -5.3125,-9.96875 -1.637,-2.597 -1.64875,-8.195 -2.46875,-14.75 z"
         id="path5058"
         style="fill:#000000;fill-opacity:1;stroke:none" />
      <path
         inkscape:connector-curvature="0"
         d="m 59.735287,129.34698 c 0.136,4.78 2.056,10.90451 2.875,17.18751 0.684,4.64399 0.387,9.30824 0.25,13.40624 -0.13495,4.74323 -1.7152,13.24218 -3.875,17.375 -2.03673,-0.93403 -2.83294,-1.99922 -4.15625,-3.71875 -1.638,-2.322 -2.75075,-4.644 -3.84375,-7.375 -0.819,-2.049 -1.7765,-4.394 -2.1875,-7.125 -0.546,-4.097 -0.393,-10.5065 4.25,-17.06249 3.551,-5.19001 4.36475,-5.58476 5.59375,-11.59376 -1.64,5.326 -2.8625,5.869 -6.6875,10.37501 -4.233,4.917 -4.9375,12.15924 -4.9375,18.03124 0,2.459 0.9805,5.18725 1.9375,7.78125 1.092,2.732 2.02925,5.452 3.53125,7.5 2.25796,3.32082 5.14798,5.20922 6.5625,5.5625 0.009,0.002 0.022,-0.002 0.0312,0 0.0303,0.007 0.0649,0.0255 0.0937,0.0312 l 0,-0.15625 c 2.64982,-2.95437 4.24444,-5.88934 4.78125,-8.84375 0.683,-3.551 0.84,-7.10975 1.25,-11.34375 0.409,-3.551 0.11225,-8.334 -0.84375,-13.24999 -1.365,-6.146 -3.669,-12.41226 -4.625,-16.78126 z"
         id="path5060"
         style="fill:#000000;fill-opacity:1;stroke:none" />
      <path
         inkscape:connector-curvature="0"
         d="m 60.140537,70.881988 c 0.137,7.101 0.683,20.349999 2.595,25.538999 0.546,1.775 5.599,9.560003 9.149,18.983003 2.459,6.556 3.005,12.565 3.415,14.34 1.639,7.785 -0.41,20.896 -3.142,33.324 -1.365,6.692 -6.009,15.023 -11.335,18.301 l -1.092,1.912 c 3.005,-0.137 10.379,-7.375 12.974,-16.389 4.371,-15.296 6.146,-22.398 4.098,-39.333 -0.273,-1.64 -0.956,-7.238 -3.551,-13.248 -3.824,-9.151 -9.287,-17.891003 -9.969,-19.667003 -1.23,-2.867 -2.869,-15.294999 -3.142,-23.761999 z"
         id="path5062"
         style="fill:#000000;fill-opacity:1;stroke:none" />
      <path
         inkscape:connector-curvature="0"
         d="m 62.703047,61.169248 c -0.40515,7.29812 -0.51351,9.98574 0.85149,15.31174 1.502,5.872999 9.151,14.339999 12.292,24.037002 6.009,18.574 4.507,42.884 0.136,61.867 -1.638,6.691 -9.424,16.389 -17.208,19.529 l 5.736,1.366 c 3.141,-0.137 11.198,-7.648 14.34,-16.252 5.052,-13.521 6.009,-29.636 3.96,-46.571 -0.137,-1.639 -2.869,-16.252 -5.463,-22.398003 -3.688,-9.15 -10.244,-17.344999 -10.926,-19.118999 -1.228,-3.005 -3.92651,-9.24362 -3.71849,-17.77074 z"
         id="path5064"
         style="fill:#000000;fill-opacity:1;stroke:none" />
      <rect
         width="0.550412"
         height="126.01891"
         x="58.361118"
         y="56.033073"
         id="rect5066"
         style="fill:#000000;fill-opacity:1;stroke:none" />
    </g>
    <g
       transform="matrix(0.31076732,0,0,0.31076732,149.99304,994.92216)"
       id="layer1-9">
      <path
         inkscape:connector-curvature="0"
         d="m 213.68103,174.15884 c -6.45969,-1.27342 -15.88908,-6.74824 -20.43814,-11.86665 -4.45633,-5.01406 -8.41905,-12.62065 -9.41523,-18.07287 -0.35172,-1.925 -1.01443,-3.97637 -1.4727,-4.5586 -1.41938,-1.80334 -0.14883,-13.10401 2.0261,-18.0208 1.13734,-2.57116 2.0797,-6.08013 2.09412,-7.79771 0.0144,-1.71759 0.85915,-4.92289 1.87717,-7.12289 l 1.85095,-4 1.15683,2.90452 1.15682,2.90452 2.716,-2.49363 c 10.78584,-9.902779 25.30635,-13.221709 39.08445,-8.933479 7.00044,2.17878 18.38173,9.912149 21.3043,14.475869 l 2.01225,3.1422 -0.63258,-2.83378 c -1.08415,-4.85669 1.06927,-2.01934 2.69583,3.55202 3.90684,13.38191 4.24066,16.62218 2.55322,24.78284 -3.89488,18.83609 -14.59275,30.30705 -31.60069,33.88433 -5.99805,1.26158 -10.76644,1.27678 -16.9687,0.0541 z"
         id="path4467"
         style="fill:#000000" />
      <path
         inkscape:connector-curvature="0"
         d="m 234.55051,153.63007 c 1.43086,-0.71972 4.09525,-3.00981 5.92088,-5.08909 l 3.31933,-3.7805 -0.69352,3.47942 -0.69353,3.47942 1.72329,-2.4555 c 1.04431,-1.48804 1.93973,-5.23102 2.27264,-9.5 0.32224,-4.13221 0.88381,-6.52773 1.35837,-5.7945 1.81037,2.79717 2.69098,0.87543 2.69098,-5.87244 0,-6.18971 0.19472,-6.96085 1.48687,-5.88846 1.29383,1.07379 1.34852,0.83715 0.42127,-1.82276 -1.28926,-3.69839 -8.81133,-10.85295 -12.34212,-11.73912 -3.15744,-0.79247 -2.3764,-2.42722 1.15967,-2.42722 3.23904,0 2.54188,-0.76262 -2.40128,-2.62674 l -3.82441,-1.44222 5,0.50559 5,0.5056 -6.5,-3.210859 c -5.9301,-2.92935 -7.33292,-3.21176 -15.99999,-3.22111 -8.27307,-0.009 -10.25371,0.34284 -15.3359,2.72374 -6.82604,3.197869 -13.90799,8.534359 -13.3896,10.089519 0.53853,1.61557 11.05057,1.15561 13.83676,-0.60544 1.31381,-0.8304 3.47655,-1.83591 4.80611,-2.23446 l 2.41737,-0.72464 -2.16737,2.75537 c -1.19206,1.51546 -2.16737,3.56917 -2.16737,4.56381 0,2.5022 3.79648,4.92184 7.7225,4.92184 4.72977,0 4.26274,1.86058 -1.4725,5.86628 -2.38454,1.66544 -3.25,3.03423 -3.25,5.14008 0,2.50983 -0.34513,2.84654 -2.74899,2.68191 -2.17772,-0.14914 -2.8171,0.29075 -3.07676,2.11678 -0.40083,2.81873 1.37877,5.10356 5.23933,6.72681 2.37028,0.99662 3.90568,0.94338 8.22449,-0.28521 4.83871,-1.3765 5.53437,-1.36367 7.83603,0.14443 2.86067,1.87439 3.30778,3.60892 0.93026,3.60892 -0.87759,0 -2.97386,0.98139 -4.65836,2.18086 -1.90625,1.35737 -5.09998,2.34981 -8.458,2.62828 l -5.39527,0.44742 3.30363,2.05448 c 7.0253,4.36895 13.94302,5.09866 19.90519,2.09971 z"
         id="path4462"
         style="fill:#b2b2b2;fill-opacity:1" />
    </g>
    <g
       id="g5204"
       transform="matrix(0.00518603,0,0,-0.00518603,245.53572,1052.2316)">
      <path
         inkscape:connector-curvature="0"
         d="m 1206.25,4191.25 c 221.27,0.4 400.44,179.56 400,401 0.44,220.57 -178.73,399.75 -400,400 -220.719,-0.25 -399.91,-179.43 -400,-400 0.09,-221.44 179.281,-400.6 400,-401"
         style="fill:#000000;fill-opacity:1;fill-rule:nonzero;stroke:none"
         id="path5206" />
      <path
         inkscape:connector-curvature="0"
         d="m 1147.25,1653.25 0,-1386 C 1147.5,15 770.16,15 770.25,267.25 l 0,1376 -507,0 542,1880 -84,0 -315,-1061 c -75.449,-231 -392.9492,-136 -320,112 l 350,1152 c 37.051,130.88 203.18,363.75 491,364 l 265,0 285,0 c 285.25,-0.25 452.12,-235.08 495,-364 l 350,-1151 c 70.25,-247.75 -244.75,-350.25 -320,-109 l -315,1057 -91,0 546,-1880 -507,0 0,-1378 c -0.25,-250.25 -376.02,-249 -376,0 l 0,1388 -112,0"
         style="fill:#000000;fill-opacity:1;fill-rule:nonzero;stroke:none"
         id="path5208" />
    </g>
    <g
       id="g5871"
       transform="matrix(0.07270719,0,0,0.07270719,122.51402,917.92915)">
      <path
         d="m -348.03125,519.14204 c -0.1157,0.0224 -0.23816,0.0597 -0.34375,0.125 -0.62546,0.38656 -1.125,1.81371 -1.125,3.15625 0,2.55436 -3.10442,6.39768 -5.25,6.5 -0.6875,0.0328 -3.5,0.46034 -6.25,0.96875 -13.57803,2.51025 -45.66148,4.91744 -71,5.3125 l -9.875,0.15625 c 0.18723,0.63488 0.39205,1.1102 0.625,1.34375 1.63821,1.64241 1.53211,35.36317 -0.125,39.5 -0.62436,1.55865 -0.8306,3.28951 -0.46875,3.875 0.81936,1.32575 28.60378,0.24763 31.34375,-1.21875 1.02034,-0.54607 7.05298,-1 13.40625,-1 6.35326,0 13.49836,-0.44117 15.84375,-0.96875 2.34539,-0.52759 6.95,-1.46845 10.25,-2.09375 14.13122,-2.67765 16.37139,-3.32928 23.5,-6.8125 l 7.5,-3.65625 0.28125,-5.625 c 0.24973,-4.73172 -0.39338,-7.38524 -4.21875,-16.96875 -4.93767,-12.37008 -6.35024,-21.03306 -3.5,-21.625 1.88445,-0.39136 3.9375,3.63904 3.9375,7.75 -0.063,-5.48031 -2.87764,-8.87338 -4.5312,-8.71875 z m 53.27798,-90.27098 c -8.24922,0 -12.66874,7.58196 -15.15625,26 -0.92853,6.875 -2.13651,14.92702 -2.65625,17.90625 -0.51975,2.97923 -0.9375,7.90218 -0.9375,10.9375 0,4.2119 -0.50749,6.06149 -2.09375,7.75 0.006,0.1168 -1.08053,0.89046 -0.90625,1.96875 0,-2.47563 3.93966,-1.87452 4.9375,0.75 0.48106,1.26526 2.93842,4.72314 5.46875,7.6875 2.53034,2.96436 4.58667,5.85463 4.59375,6.4375 0.007,0.58287 1.10322,3.3125 2.40625,6.0625 2.01125,4.24466 2.47268,4.69786 3.09375,3 0.40237,-1.1 2.42662,-5.6 4.5,-10 2.07338,-4.4 4.27218,-9.575 4.875,-11.5 2.28185,-7.28662 4.125,-20.00809 4.125,-28.375 0,-7.03773 0.29597,-8.81449 1.59375,-9.3125 1.10389,-0.4236 1.86495,-0.16962 2.375,0.90625 -0.60441,-8.44926 -1.91662,-14.40956 -4.1875,-19.3125 -3.79753,-8.19906 -6.76988,-10.90625 -12.03125,-10.90625 z M -353.05113,297.118 c -0.0137,0.34892 -0.051,0.68128 -0.0625,1.03125 -0.21221,6.48601 -0.80722,12.62248 -1.34375,13.625 -0.53653,1.00252 -1.4755,6.05727 -2.0625,11.21875 -1.27309,11.19419 -4.35431,21.43068 -7.5,24.875 -1.25578,1.375 -3.73923,5.38018 -5.5,8.90625 -3.6735,7.35643 -11.04563,15.59076 -19,21.21875 -3.025,2.1403 -7.975,5.93622 -11,8.4375 -6.37318,5.26978 -13.81469,9.26336 -25.90625,13.90625 -4.73062,1.81644 -12.86875,5.22069 -18.09375,7.53125 -12.87601,5.69394 -33.39557,13.00042 -39.4375,14.0625 -10.4371,1.83469 -33.97994,20.99663 -38.625,31.4375 -1.7456,3.92365 -3.06582,10.3221 -3.90625,17.3125 2.6709,-13.91872 3.36511,-16.48212 5.46875,-19.78125 7.48067,-11.73193 32.57496,-30.43677 38.3125,-28.5625 0.92213,0.30123 4.08259,5.14573 7,10.78125 3.55943,6.87571 7.43611,12.55275 11.78125,17.25 l 6.46875,7 -0.4375,-7.5 c -0.23538,-4.125 -1.00421,-13.48709 -1.71875,-20.8125 -1.39818,-14.33404 -1.21139,-15.12205 3.59375,-15.15625 1.52653,-0.0109 2.74398,1.68593 5.1875,7.21875 1.76078,3.9869 3.9339,9.81682 4.8125,12.9375 0.87859,3.12069 2.81835,7.21361 4.3125,9.09375 3.90883,4.91862 8.87213,9.71875 10.03125,9.71875 2.43923,0 2.8497,-32.94152 0.46875,-37.5 -0.57455,-1.1 -1.30341,-3.72126 -1.625,-5.8125 -0.67834,-4.41103 1.01332,-5.71856 4.75,-3.71875 3.33607,1.78541 15.97756,12.19844 23.9375,19.71875 5.18501,4.89864 7.1067,6.17134 7.75,5.15625 1.02518,-1.61759 1.00782,-15.88541 -0.0312,-32.34375 -0.48821,-7.73298 -0.38283,-12.84213 0.28125,-14.34375 1.20246,-2.71904 7.42462,-6.15625 11.125,-6.15625 6.55457,0 19.36613,9.34444 25.375,18.5 l 2.625,4 0.3125,-3.84375 c 0.43794,-5.32543 -3.72116,-19.45848 -6.8125,-23.15625 -2.88962,-3.45649 -7,-11.27964 -7,-13.3125 0,-3.17694 2.90529,-9.20278 5.6875,-11.78125 2.15836,-2.0003 3.63433,-2.40625 8.8125,-2.40625 6.04283,0 14.1971,1.15855 17.75,2.53125 1.37694,0.532 1.75,0.16298 1.75,-1.78125 0,-3.32864 -5.63173,-7.07895 -14,-9.3125 -3.575,-0.9542 -6.89628,-2.07556 -7.375,-2.5 -1.3428,-1.19054 1.19539,-19.7963 3.15625,-23.15625 1.6304,-2.79372 1.99068,-2.95098 6.71875,-2.4375 2.75,0.29865 6.35,0.8182 8,1.15625 l 3,0.625 -4,-3.59375 c -2.2,-1.9716 -5.90177,-4.42026 -8.21875,-5.46875 -2.8209,-1.27654 -4.29813,-2.55978 -4.8125,-4.8125 z m 3.95099,-36.53232 c -0.36447,2.62316 -0.67778,5.68729 -0.875,8.84375 -0.40986,6.55953 -1.20624,13.05293 -1.75,14.4375 -0.26938,0.68591 -0.56491,2.62936 -0.8125,5.1875 1.37873,-7.32932 2.31198,-8.15625 8.65625,-8.15625 2.95766,0 5.375,-0.41597 5.375,-0.90625 0,-0.99492 -7.22585,-4.09375 -9.53125,-4.09375 -1.76805,0 -1.81925,-0.38957 -1.5,-10 0.0679,-2.04398 0.22368,-3.78334 0.4375,-5.3125 z m 3.12289,-18.09059 c -0.015,0.33041 -0.0547,0.68155 -0.0625,1 -0.0939,3.85 -0.87644,8.6066 -1.71875,10.5625 -0.37909,0.88029 -0.73244,2.62291 -1.09375,4.84375 0.85534,-4.1106 2.47934,-5.90347 5.09375,-5.9375 1.49838,-0.0195 3.76624,-0.62494 5.0625,-1.34375 2.3521,-1.3043 2.35564,-1.31167 -2.125,-3.9375 -3.32489,-1.94851 -4.79526,-3.1562 -5.15625,-5.1875 z m 4.59163,-25.36252 c -0.11346,0.93895 -0.1875,1.80151 -0.1875,2.5625 0,2.06317 -0.36288,4.19625 -0.8125,4.71875 -1.11512,1.29588 -2.43551,6.9865 -3.15625,12.6875 0.53959,-2.60723 1.25176,-6.1 1.59375,-7.75 0.79393,-3.83046 3.14499,-6.5 5.6875,-6.5 1.80998,0 1.74916,-0.20824 -0.65625,-2.4375 -1.70443,-1.57962 -2.44245,-2.07427 -2.46875,-3.28125 z m 36.85121,-59.90094 c -10.95737,9.04985 -23.41607,23.36688 -26.34375,32.125 -0.55682,1.66574 -1.58639,3.7174 -2.3125,4.5625 -2.91693,3.39491 -6.70979,14.07373 -7.96875,21.53125 0.21152,-0.90582 0.52412,-2.09257 0.96875,-3.75 3.02694,-11.28345 6.34766,-17.8125 9.03125,-17.8125 0.83633,0 1.11814,-0.86989 0.8125,-2.46875 -0.70611,-3.69378 3.54339,-10.41356 15.03125,-23.75 1.76589,-2.05005 4.38587,-4.21889 5.8125,-4.8125 1.42664,-0.5936 3.22664,-2.49411 4,-4.21875 0.19349,-0.43149 0.5259,-0.90968 0.96875,-1.40625 z m 61.85643,-16.0913 c -0.37613,0.0259 -0.62511,0.0791 -0.75,0.15625 -0.51135,0.31604 -7.65727,1.00804 -15.875,1.53125 -13.58744,0.86508 -21.72736,2.40419 -26.4375,5.03125 -0.95504,0.53267 -2.67867,0.96875 -3.84375,0.96875 -2.02572,0 -4.9184,1.28307 -8.25,3.4375 3.47662,-1.97732 7.16021,-3.40673 8.8125,-3 1.07972,0.26579 2.65472,-0.10277 3.5,-0.8125 3.26183,-2.73878 12.89176,-4.73812 27.3125,-5.65625 8.15986,-0.51952 15.18744,-1.12389 15.59375,-1.375 0.81931,-0.50637 26.58718,2.82568 33.34375,4.3125 2.36081,0.51951 6.94618,1.46664 10.21875,2.125 0.81814,0.16459 1.64757,0.34757 2.4375,0.53125 -11.42496,-3.02891 -40.7086,-7.61814 -46.0625,-7.25 z"
         style="fill:#929292;fill-opacity:1"
         id="path5698"
         inkscape:connector-curvature="0" />
      <path
         inkscape:connector-curvature="0"
         id="path5614"
         d="m -493.25,650.71172 c -0.72116,-0.72163 -1.25,-3.78039 -1.25,-7.22982 0,-3.28845 -0.42255,-7.36095 -0.93899,-9.05 -0.51645,-1.68905 -1.45493,-6.446 -2.08552,-10.571 -3.1101,-20.34467 -5.76341,-33.49384 -8.0708,-39.99698 -1.07389,-3.02666 -2.64864,-7.75302 -3.49944,-10.50302 -0.8508,-2.75 -3.36408,-9.61244 -5.58507,-15.24987 -2.22099,-5.63743 -4.34332,-12.83789 -4.71628,-16.00103 -0.37297,-3.16313 -1.04118,-6.3386 -1.48493,-7.0566 -0.44374,-0.718 -1.17781,-3.64253 -1.63126,-6.49897 -2.114,-13.31696 -5.42082,-25.69353 -6.86488,-25.69353 -0.34899,0 -1.69179,2.3625 -2.984,5.25 -1.2922,2.8875 -3.35077,7.5 -4.5746,10.25 -4.03323,9.06292 -5.04654,13.38388 -3.86976,16.50151 1.48947,3.94606 0.0656,5.02974 -4.50561,3.42906 -3.51225,-1.22988 -3.67602,-1.48655 -3.42072,-5.36115 0.26378,-4.00309 0.21352,-4.06942 -3.08333,-4.06942 -1.84331,0 -3.64757,-0.2961 -4.00947,-0.65799 -1.245,-1.245 1.57395,-3.34201 4.49256,-3.34201 1.74697,0 3.8826,-0.95959 5.30806,-2.38505 3.26934,-3.26934 3.50438,-4.22165 10.02437,-40.61495 2.27414,-12.6938 3.5094,-17.2396 5.96682,-21.95817 1.30096,-2.49801 2.61138,-5.67871 2.91204,-7.06823 0.66962,-3.0946 17.58391,-19.63052 26.86853,-26.26747 4.13741,-2.95756 10.83292,-6.34463 17.47928,-8.84227 5.92515,-2.22662 13.473,-5.09023 16.773,-6.36358 5.93269,-2.28921 7.88903,-3.07123 24.5,-9.79359 4.675,-1.89194 12.85102,-5.10729 18.16893,-7.1452 5.31791,-2.03792 12.51791,-5.67162 16,-8.07489 3.48209,-2.40327 8.61687,-5.94405 11.41062,-7.86841 2.79376,-1.92435 8.92118,-7.53571 13.61649,-12.46969 7.37801,-7.75302 9.36218,-10.65077 14.61583,-21.34542 6.58642,-13.40772 6.6695,-13.76881 9.73338,-42.30308 0.82679,-7.7 1.97297,-17.825 2.54706,-22.5 0.57409,-4.675 1.39816,-11.875 1.83127,-16 0.4331,-4.125 1.29179,-10.2 1.90819,-13.5 0.6164,-3.3 1.845,-10.275 2.73021,-15.5 0.88521,-5.225 1.99285,-10.85 2.46141,-12.5 0.46857,-1.65 1.5774,-6.30724 2.46408,-10.34942 3.88381,-17.70553 13.62362,-34.44903 29.35517,-50.46382 9.35649,-9.52495 16.85996,-14.35943 26.65736,-17.17533 3.3,-0.94846 7.68725,-2.34779 9.74943,-3.10963 2.06219,-0.76183 10.75393,-1.83041 19.31497,-2.37461 8.56105,-0.5442 15.8738,-1.16983 16.25057,-1.39029 0.82584,-0.48321 24.2714,2.61791 32.68503,4.32321 13.88671,2.81461 16.32599,3.51674 25.4401,7.32268 20.6401,8.61907 30.03474,15.07938 31.58136,21.71721 0.32037,1.375 1.63758,3.79903 2.92712,5.38674 l 2.34461,2.88674 3.63674,-3.63674 c 2.0002,-2.00021 4.05257,-3.63674 4.56081,-3.63674 0.50824,0 3.4088,-3.11415 6.4457,-6.92034 4.49455,-5.63309 6.85257,-7.58618 12.67695,-10.5 10.12993,-5.06779 14.94806,-4.95116 24.32844,0.58891 10.57395,6.24499 13.24291,8.54874 15.6395,13.49944 1.90571,3.93667 2.12051,5.6832 1.69632,13.79283 -0.56711,10.84202 -2.36762,14.65793 -13.23012,28.03916 l -6.49417,8 -0.0267,9.2689 c -0.0243,8.44701 0.24424,9.77658 3.02864,14.99443 4.32114,8.09764 6.5857,10.23364 10.86899,10.25198 4.47037,0.0191 7.02587,1.43451 5.44479,3.01559 -2.00702,2.00702 -19.39825,2.44902 -24.94923,0.6341 -2.70593,-0.88472 -6.89332,-1.91354 -9.30531,-2.28626 -5.10776,-0.78929 -10.73316,-5.22167 -12.74836,-10.04474 -0.73475,-1.75848 -1.75294,-3.45498 -2.26266,-3.77001 -0.50972,-0.31502 -2.5307,1.61224 -4.49108,4.2828 -1.96037,2.67057 -5.41057,6.07737 -7.66711,7.57068 -2.31704,1.53335 -4.72141,4.19565 -5.52407,6.1167 -1.60833,3.84928 -1.85865,16.15367 -0.43669,21.46583 2.37422,8.86961 6.21511,22.04347 8.01774,27.5 3.47113,10.50703 3.62463,14.75924 0.71095,19.69344 -5.77452,9.77892 -13.61352,14.30722 -23.41942,13.52854 -13.0042,-1.03266 -21.60635,-6.94876 -24.7815,-17.04338 -0.96756,-3.07613 -1.49019,-6.29398 -1.16141,-7.15079 0.76393,-1.99077 4.80297,-3.52781 9.27038,-3.52781 3.17145,0 3.67179,0.40841 5.46407,4.46016 1.6545,3.74027 2.53492,4.56559 5.45473,5.11335 5.55242,1.04163 6.45989,-0.44261 6.45989,-10.56568 0,-13.82783 -5.19005,-27.34594 -14.01656,-36.50783 -2.64934,-2.75 -7.27769,-8.27272 -10.28523,-12.27272 -3.00753,-3.99999 -7.56263,-9.11627 -10.12244,-11.3695 -4.15463,-3.65705 -4.83782,-3.9433 -6.36498,-2.66687 -0.94094,0.78645 -3.93119,3.33243 -6.645,5.65772 -7.5984,6.51059 -20.69612,12.35203 -28.06579,12.51703 -5.86033,0.13121 -6.00745,0.0694 -6.32021,-2.6549 -0.17611,-1.53409 0.59345,-4.68409 1.71015,-7 2.62408,-5.44209 5.07648,-15.95292 5.09528,-21.83809 0.0262,-8.21049 -2.92559,-18.64135 -6.65962,-23.5332 -1.87844,-2.4609 -4.53672,-6.80651 -5.90729,-9.65691 -3.74568,-7.79002 -5.91054,-10.02682 -8.9629,-9.26073 -3.6605,0.91873 -11.43896,9.35745 -11.5285,12.50707 -0.0402,1.41411 -0.93997,3.9211 -1.99949,5.5711 -5.43632,8.46602 -9.96294,20.61751 -11.92049,32 -0.47295,2.75 -1.74667,8.15 -2.83051,12 -4.67919,16.6215 -6.51792,53.09115 -3.69925,73.37166 0.81245,5.84559 1.96086,14.45334 2.55204,19.12834 0.59118,4.675 1.47441,10.525 1.96275,13 0.48833,2.475 1.40218,7.65 2.03078,11.5 0.62859,3.85 1.52861,8.575 2.00004,10.5 0.47143,1.925 1.38155,6.425 2.02249,10 0.64093,3.575 1.76169,8.3 2.49057,10.5 0.72887,2.2 1.58992,6.025 1.91343,8.5 0.32352,2.475 1.19954,5.85 1.94673,7.5 1.9281,4.2578 3.6763,9.43111 4.56201,13.5 0.41903,1.925 1.76424,6.2 2.98937,9.5 1.22512,3.3 2.44477,6.9 2.71033,8 0.94823,3.92774 6.54605,22.06333 7.87095,25.5 0.74212,1.925 1.88201,5.3 2.53308,7.5 0.65107,2.2 1.57878,4.78179 2.06157,5.73731 1.7392,3.44219 3.84788,10.30986 3.86214,12.57843 0.008,1.27366 0.53127,3.28125 1.16282,4.4613 0.63155,1.18006 2.83714,9.58798 4.90131,18.68426 2.06417,9.09629 4.72703,19.0137 5.91747,22.0387 2.04783,5.2037 3.94843,13.98271 5.95357,27.5 0.48951,3.3 1.4025,8.21764 2.02885,10.92808 1.41023,6.10257 0.23095,7.60547 -8.32832,10.61381 -3.20691,1.12714 -6.79609,2.66124 -7.97595,3.40911 -3.67623,2.33025 -15.57821,6.70869 -17.31784,6.3708 -0.91123,-0.17699 -2.53571,-1.8968 -3.60995,-3.8218 -1.07425,-1.925 -3.17777,-4.89574 -4.6745,-6.60165 -1.49672,-1.70592 -4.40465,-7.44611 -6.46206,-12.756 -2.05741,-5.30988 -5.50477,-12.00203 -7.6608,-14.87143 -2.15603,-2.8694 -3.92005,-5.70752 -3.92005,-6.30692 0,-1.57083 -5.68125,-6.78876 -6.30055,-5.78671 -0.28597,0.4627 -1.22008,3.5432 -2.07581,6.84556 -0.85572,3.30235 -4.42067,12.52318 -7.9221,20.49072 -3.50143,7.96753 -6.62075,16.06143 -6.93182,17.98643 -1.09696,6.78824 -3.99204,15.22232 -5.86976,17.10004 -1.04498,1.04498 -3.28312,1.89996 -4.97364,1.89996 -3.65999,0 -17.79244,-4.59042 -19.92632,-6.47236 -0.825,-0.72759 -4.96255,-2.54345 -9.19455,-4.03525 -12.60091,-4.44187 -13.48806,-7.40216 -5.02175,-16.75685 9.50924,-10.50705 14.44861,-18.90323 12.35323,-20.99861 -0.43452,-0.43452 -2.97381,0.43051 -5.64287,1.92228 -2.66907,1.49177 -6.68462,3.03707 -8.92346,3.43401 -2.23883,0.39693 -6.7706,1.2585 -10.0706,1.91459 -3.3,0.65609 -8.25,1.6325 -11,2.16979 -2.75,0.53729 -11.3,1.29808 -19,1.69063 -13.68983,0.69792 -19.5,1.95013 -19.5,4.20265 0,0.61621 0.95515,2.46177 2.12256,4.10124 1.16741,1.63948 2.49204,4.40895 2.94362,6.15437 0.45158,1.74543 1.22504,4.74851 1.71879,6.67351 0.49376,1.925 1.68584,5.0208 2.64906,6.87955 1.70499,3.29016 1.69531,3.43555 -0.36603,5.49689 -1.91153,1.91154 -3.81593,2.20707 -19.59267,3.04045 l -17.47533,0.92311 0,5.38718 c 0,2.96295 0.51207,7.4208 1.13794,9.90635 1.69653,6.73752 0.42748,7.55657 -13.09038,8.44861 -13.32977,0.87963 -19.71435,2.24683 -35.04756,7.5051 -0.825,0.28292 -2.0625,-0.0485 -2.75,-0.73642 z M -483,644.8609 c 3.19721,-1.1 6.89724,-2 8.22229,-2 3.9653,0 6.27771,-1.79763 6.27771,-4.8802 0,-4.2478 3.09965,-6.51939 7.85772,-5.75854 2.84376,0.45473 4.24731,0.21712 5.15128,-0.87211 0.68339,-0.82343 2.64843,-1.8652 4.36676,-2.31504 3.521,-0.92177 3.33392,0.91881 2.05052,-20.17411 -0.62625,-10.29262 0.51212,-23.76058 2.7685,-32.7538 1.33006,-5.30121 1.59428,-30.72453 0.44425,-42.7462 -1.23813,-12.94267 -4.72809,-25.89999 -10.18837,-37.82681 -2.72693,-5.95639 -7.62227,-10.59347 -13.99406,-13.25577 -2.61665,-1.09331 -3.40592,-1.8681 -2.66141,-2.61261 1.40857,-1.40857 4.59567,-0.47499 10.98368,3.21737 5.47327,3.16362 6.32476,4.46782 12.06378,18.47782 3.93972,9.61757 7.15735,22.70668 7.15735,29.1156 0,2.74142 0.5625,5.54834 1.25,6.2376 1.63821,1.64241 1.528,35.34389 -0.12911,39.48072 -0.62436,1.55865 -0.83913,3.31296 -0.47728,3.89845 0.81936,1.32575 28.62977,0.22687 31.36974,-1.23951 1.02034,-0.54607 7.05329,-0.99286 13.40656,-0.99286 6.35326,0 13.47035,-0.43166 15.81574,-0.95924 2.34539,-0.52759 6.96435,-1.47085 10.26435,-2.09615 14.13122,-2.67765 16.37139,-3.32683 23.5,-6.81005 l 7.5,-3.6647 0.2963,-5.61416 c 0.24973,-4.73172 -0.41711,-7.40142 -4.24248,-16.98493 -4.93767,-12.37008 -6.33234,-21.0304 -3.4821,-21.62234 1.88445,-0.39136 3.92828,3.64281 3.92828,7.75377 0,1.59945 1.85919,7.09077 4.13153,12.20294 8.72192,19.62205 5.66918,36.04581 -9.80697,52.76148 -7.81162,8.43728 -8.06612,10.4369 -1.57456,12.37143 2.6125,0.77855 6.4375,2.12302 8.5,2.98772 3.32339,1.39332 4.11973,1.40564 7,0.10829 1.7875,-0.80514 4.03594,-2.0164 4.99654,-2.69168 1.29526,-0.91054 2.20336,-0.94251 3.51446,-0.12371 0.97236,0.60725 3.17062,0.89821 4.88504,0.64659 1.71441,-0.25162 3.42196,0.0358 3.79456,0.63862 0.37259,0.60287 1.51132,1.09612 2.53052,1.09612 1.40887,0 2.01288,-1.0188 2.51968,-4.25 0.67415,-4.29815 3.63113,-13.222 5.46003,-16.47779 2.98437,-5.31274 7.56268,-16.81384 9.65937,-24.26518 2.94547,-10.46774 3.51264,-30.63893 0.8898,-31.6454 -0.825,-0.31659 -1.50277,-1.31496 -1.50616,-2.21862 -0.003,-0.90365 -0.71804,-2.99301 -1.58811,-4.64301 -0.87007,-1.65 -2.73147,-5.85329 -4.13646,-9.34064 -1.40498,-3.48734 -4.21937,-8.44683 -6.25419,-11.02107 -4.3601,-5.51594 -6.01508,-8.42485 -6.01508,-10.57255 0,-2.47563 3.9263,-1.88978 4.92414,0.73474 0.48106,1.26526 2.94492,4.72587 5.47525,7.69023 2.53034,2.96436 4.6064,5.86665 4.61348,6.44952 0.007,0.58287 1.07898,3.30977 2.38201,6.05977 2.01125,4.24466 2.47967,4.69786 3.10074,3 0.40237,-1.1 2.42799,-5.6 4.50137,-10 2.07338,-4.4 4.26301,-9.575 4.86583,-11.5 2.28185,-7.28662 4.13718,-20.01426 4.13718,-28.38117 0,-7.03773 0.30314,-8.79792 1.60092,-9.29593 2.749,-1.05489 3.47901,1.83616 3.07484,12.1771 -0.62285,15.93579 -2.93575,26.16184 -8.31876,36.77979 -4.74301,9.35556 -8.42305,20.72827 -7.35383,22.72613 0.53083,0.99186 1.26897,5.07241 1.64031,9.06788 0.58015,6.24225 1.2474,8.12018 4.74176,13.34535 7.88359,11.78847 13.5529,21.63721 16.89622,29.35219 1.85884,4.2894 4.6057,9.02491 6.10414,10.52336 1.49845,1.49844 3.38073,4.29514 4.18285,6.21487 0.80211,1.91974 1.86504,3.49043 2.36206,3.49043 0.49703,0 3.01694,-0.90585 5.59982,-2.013 4.09888,-1.75699 4.60625,-2.2975 3.98941,-4.25 -2.49282,-7.89058 -1.40518,-10.737 4.1027,-10.737 2.71089,0 3.37756,-0.39476 3.37756,-2 0,-2.81763 3.51505,-6 6.62723,-6 2.55038,0 2.60997,-0.13895 2.03724,-4.75 -1.24666,-10.03691 -3.61972,-20.97041 -5.69742,-26.25 -1.19044,-3.025 -3.8533,-12.94241 -5.91747,-22.0387 -2.06417,-9.09628 -4.26976,-17.5042 -4.90131,-18.68426 -0.63155,-1.18005 -1.14827,-3.27048 -1.14827,-4.64538 0,-1.37491 -1.07557,-5.11699 -2.39016,-8.31575 -1.31459,-3.19875 -3.09085,-8.06591 -3.94723,-10.81591 -0.85639,-2.75 -2.70046,-8.375 -4.09794,-12.5 -4.65077,-13.72789 -5.56467,-16.75532 -5.56467,-18.43387 0,-0.916 -0.74639,-3.1056 -1.65864,-4.86579 -1.56955,-3.02843 -2.3603,-5.5413 -4.31123,-13.70034 -0.4603,-1.925 -1.83584,-5.975 -3.05678,-9 -1.22093,-3.025 -2.79863,-8.425 -3.506,-12 -0.70737,-3.575 -1.76449,-7.85 -2.34916,-9.5 -1.03622,-2.92432 -3.53235,-14.9414 -5.19287,-25 -0.45399,-2.75 -1.28261,-7.475 -1.84139,-10.5 -1.24815,-6.75698 -3.39356,-21.34151 -5.63197,-38.28627 -2.65588,-20.10502 -0.97478,-53.40731 3.64284,-72.1642 1.08991,-4.42724 2.6702,-11.14545 3.51175,-14.92935 1.94261,-8.73461 5.94905,-19.93706 9.01538,-25.20804 1.30794,-2.24832 2.37807,-5.09706 2.37807,-6.33053 0,-4.09341 6.98357,-13.11461 13.3256,-17.21366 4.56215,-2.94866 6.44681,-4.93758 8.15083,-8.60174 1.97115,-4.23856 3.00319,-5.14484 9.32225,-8.18628 l 7.10571,-3.42006 10.85005,1.05301 c 8.31396,0.80687 12.07335,1.6729 16.0837,3.7051 9.53961,4.83409 17.95996,14.25728 15.14339,16.94692 -0.89507,0.85473 -1.47184,0.65731 -2.3351,-0.79925 -2.4572,-4.14601 -9.23851,-10.82706 -12.86993,-12.67967 -4.02677,-2.0543 -14.71944,-3.80347 -23.56634,-3.8551 -9.40234,-0.0549 -16.32384,4.95561 -16.72746,12.10906 -0.18964,3.36093 0.51558,5.35443 3.63148,10.26548 2.12675,3.35202 3.87109,6.58734 3.87632,7.18959 0.005,0.60226 0.95738,1.95226 2.11591,3 1.15852,1.04775 2.89611,3.47999 3.8613,5.40499 2.13701,4.26212 5.03774,16.90719 5.01751,21.87267 -0.0196,4.81454 -2.52965,15.46896 -5.04321,21.40711 -3.08696,7.29278 -1.21953,8.34786 8.27097,4.67301 9.51803,-3.6855 15.66744,-7.18691 19.0561,-10.85032 1.83276,-1.98136 4.18316,-4.08491 5.22312,-4.67456 1.83631,-1.04119 1.82764,-1.17433 -0.30069,-4.61804 -1.20533,-1.95026 -2.19151,-4.52767 -2.19151,-5.72756 0,-1.1999 -0.72512,-3.58385 -1.61137,-5.29768 -2.08742,-4.03661 -1.44063,-9.80701 1.92267,-17.15343 2.29969,-5.02317 4.92213,-7.7311 6.22516,-6.42807 0.24761,0.24761 -0.73897,2.8907 -2.1924,5.87354 -3.66108,7.5135 -4.12442,13.47337 -1.45435,18.70715 1.16066,2.27508 2.11029,5.06449 2.11029,6.19869 0,2.51529 7.09634,10.41063 12.33571,13.72464 2.4041,1.52063 4.53167,3.99946 5.70036,6.64149 1.02555,2.31843 4.89836,7.35094 8.60623,11.18334 5.2418,5.41785 7.95423,9.41519 12.19238,17.96802 5.37677,10.85063 5.45651,11.14258 5.8719,21.5 0.35099,8.75161 0.11889,11.0828 -1.39389,14 -1.70109,3.28031 -2.10571,3.49047 -6.44613,3.34819 -6.0162,-0.19722 -8.70679,-1.72156 -10.46464,-5.92868 -1.17898,-2.8217 -1.95637,-3.41951 -4.44672,-3.41951 -3.71875,0 -4.61811,1.96118 -2.87437,6.26796 3.68111,9.09182 11.38991,13.73474 22.7936,13.7283 8.0252,-0.005 11.5304,-1.84753 16.56429,-8.70937 4.23704,-5.77563 4.41769,-8.60157 1.18324,-18.51002 -1.30792,-4.0067 -2.92977,-9.94259 -3.6041,-13.19086 -0.67434,-3.24827 -2.1086,-7.96479 -3.18724,-10.48116 -2.56104,-5.97465 -3.56977,-19.70252 -1.86521,-25.38363 2.8489,-9.49502 3.96783,-10.98199 11.86923,-15.77326 4.07133,-2.46878 7.2844,-9.59963 6.73536,-14.94796 -1.06443,-10.36883 -2.51652,-15.98772 -6.33157,-24.5 -2.44656,-5.45886 -3.67765,-9.3766 -3.12889,-9.95714 1.51259,-1.60019 3.54321,1.40701 7.39887,10.95714 5.33985,13.22635 6.46087,16.6756 6.47704,19.929 0.0141,2.83836 0.70286,5.49403 3.69385,14.24254 1.5627,4.57084 6.28863,8.83269 10.93403,9.86033 1.58767,0.35122 4.58328,1.27523 6.65691,2.05336 4.44177,1.66676 11.72976,1.8781 11.72976,0.34014 0,-0.59105 -1.8,-4.49114 -4,-8.66688 -3.82943,-7.26848 -4,-7.98586 -4,-16.82277 l 0,-9.23053 7.85347,-9.8526 c 10.80021,-13.54943 11.4538,-14.99551 11.95022,-26.43997 0.45208,-10.42232 -0.68413,-14.33236 -5.05621,-17.39996 -12.31251,-8.63888 -14.15379,-9.50785 -20.15138,-9.51028 -4.90249,-0.002 -6.97631,0.59734 -12.22635,3.53334 -3.47735,1.94464 -7.54723,5.20714 -9.04417,7.25 -1.49695,2.04285 -6.0076,6.95863 -10.02365,10.92395 -4.01606,3.96531 -7.30193,7.90281 -7.30193,8.75 0,4.24616 -5.77744,-1.47925 -7.52746,-7.45967 -2.04557,-6.99044 -5.51834,-11.83594 -11.17368,-15.59046 -6.44876,-4.28125 -20.32734,-10.52986 -29.68336,-13.36444 -10.53957,-3.19316 -46.5557,-8.81813 -48.55399,-7.58312 -0.51135,0.31604 -7.65334,1.00269 -15.87107,1.5259 -13.58744,0.86508 -21.71673,2.41657 -26.42687,5.04363 -0.95504,0.53267 -2.68969,0.96849 -3.85477,0.96849 -9.26042,0 -36.64871,26.91726 -41.1796,40.47138 -0.55682,1.66574 -1.6065,3.72006 -2.33261,4.56516 -3.54902,4.13058 -8.39659,19.03266 -8.39659,25.81225 0,2.06317 -0.36787,4.17871 -0.81749,4.70121 -1.5388,1.78824 -3.51407,11.94635 -3.68487,18.95 -0.0939,3.85 -0.85986,8.60028 -1.70217,10.55618 -0.88075,2.04519 -1.84808,8.62361 -2.27664,15.48259 -0.40986,6.55953 -1.19009,13.05925 -1.73385,14.44382 -0.54377,1.38458 -1.1623,7.82415 -1.37452,14.31016 -0.21221,6.48601 -0.82483,12.61298 -1.36136,13.6155 -0.53653,1.00252 -1.45578,6.04578 -2.04278,11.20726 -1.27309,11.19419 -4.36594,21.44017 -7.51163,24.88449 -1.25578,1.375 -3.72388,5.38496 -5.48465,8.91103 -3.6735,7.35643 -11.05567,15.59985 -19.01004,21.22784 -3.025,2.1403 -7.975,5.93795 -11,8.43923 -6.37318,5.26978 -13.80732,9.26075 -25.89888,13.90364 -4.73062,1.81644 -12.87612,5.19309 -18.10112,7.50365 -12.87601,5.69394 -33.40209,13.02426 -39.44402,14.08634 -10.4371,1.83469 -33.96877,20.9874 -38.61383,31.42827 -4.78839,10.76306 -6.60723,40.09641 -3.06435,49.4205 1.03278,2.71808 2.42946,8.0104 3.10373,11.76073 0.67427,3.75032 1.62926,7.85244 2.12221,9.11582 0.49294,1.26338 0.89626,3.46117 0.89626,4.88398 0,1.42281 0.48563,4.43914 1.07917,6.70295 0.59355,2.26381 1.53741,5.91602 2.09747,8.11602 0.56006,2.2 1.42443,4.78139 1.92082,5.73643 0.4964,0.95504 0.90254,2.66489 0.90254,3.79966 0,1.13478 0.62699,3.27838 1.3933,4.76357 4.53743,8.79391 13.7792,40.36435 15.57361,53.20034 2.02956,14.51811 3.2366,21.76057 4.09505,24.571 0.51592,1.68905 0.93804,4.95155 0.93804,7.25 0,2.29845 0.37955,4.179 0.84345,4.179 0.4639,0 3.45934,-0.9 6.65655,-2 z m 294.66008,-410.23992 c -2.69768,-2.69768 -0.21482,-15.03437 3.297,-16.38198 4.52448,-1.73621 10.89918,4.21101 10.31352,9.6219 -0.40497,3.74145 -3.06771,3.09113 -3.89444,-0.95114 -0.38821,-1.89813 -1.52636,-4.05113 -2.52923,-4.78445 -2.67959,-1.95936 -4.34693,0.86665 -4.34693,7.3677 0,5.48875 -0.88362,7.08427 -2.83992,5.12797 z m 28.52742,-5.40591 c -0.96152,-0.96153 -0.84959,-3.2303 0.37735,-7.64862 0.7836,-2.82178 1.9198,-4.20745 4.43241,-5.40564 3.10867,-1.48242 3.57606,-1.48189 5.84779,0.007 2.93361,1.92217 6.45836,11.29007 4.85228,12.89615 -1.60318,1.60318 -2.8158,0.23167 -4.21561,-4.76795 -0.71094,-2.53923 -1.93256,-4.86236 -2.71471,-5.1625 -2.10971,-0.80957 -4.47837,2.09121 -5.167,6.32775 -0.58802,3.61756 -1.99799,5.16871 -3.41251,3.7542 z m -297.81396,410.04828 c 0.20544,-0.17391 0.10707,-1.0106 -0.21862,-1.85932 -0.89166,-2.32365 -6.65492,-2.07233 -6.65492,0.2902 0,1.00834 0.29181,2.12514 0.64846,2.48179 0.57885,0.57886 5.27673,-0.10991 6.22508,-0.91267 z m 11.73485,-0.82431 c 0.79022,-2.05927 -1.3821,-5.57814 -3.44357,-5.57814 -2.43187,0 -4.16482,1.95564 -4.16482,4.7 0,1.9658 0.51313,2.3 3.53138,2.3 2.13027,0 3.74787,-0.56414 4.07701,-1.42186 z M -428.5,613.43348 c 0,-3.30534 4.64642,-6.8933 8.04629,-6.21332 1.73979,0.34796 3.45189,-0.19556 5.26637,-1.67185 2.64051,-2.14836 2.6636,-2.26775 1.29335,-6.68741 -0.76734,-2.475 -2.53693,-6.49317 -3.93243,-8.92927 l -2.53727,-4.42926 -11.31816,0.25054 c -6.22498,0.1378 -11.74778,0.6706 -12.27288,1.184 -1.06891,1.04508 -2.11498,24.99697 -1.19628,27.39106 0.46093,1.20117 2.32644,1.53293 8.61963,1.53293 7.8361,0 8.03138,-0.059 8.03138,-2.42742 z m 110.9682,1.17742 c -0.0175,-0.6875 -0.67843,-2.10427 -1.46875,-3.14838 -1.18814,-1.5697 -1.70207,-1.67835 -2.96819,-0.62756 -0.84219,0.69896 -1.53126,2.11573 -1.53126,3.14838 0,1.41951 0.73188,1.87756 3,1.87756 1.7503,0 2.98675,-0.52071 2.9682,-1.25 z M -419.5,612.79135 c 0,-1.57185 -0.53864,-1.9927 -2.23978,-1.75 -3.32375,0.4742 -3.61588,3.81955 -0.33354,3.81955 1.93548,0 2.57332,-0.51297 2.57332,-2.06955 z m 9.66813,0.49201 c 0.78366,-2.04219 -2.0484,-4.87425 -4.09059,-4.09059 -0.86765,0.33295 -1.57754,1.74448 -1.57754,3.13675 0,2.04184 0.48954,2.53138 2.53138,2.53138 1.39227,0 2.8038,-0.70989 3.13675,-1.57754 z M -328.5,611.27757 c 0,-0.87084 -0.53438,-1.40521 -1.1875,-1.1875 -1.85422,0.61807 -2.16176,2.77083 -0.39583,2.77083 0.87083,0 1.58333,-0.7125 1.58333,-1.58333 z m 88.39928,-17.2537 c 0.75465,-1.22105 -2.26574,-5.16297 -3.95598,-5.16297 -1.74849,0 -1.90743,3.13587 -0.2433,4.8 1.3919,1.3919 3.45325,1.57008 4.19928,0.36297 z m 10.76306,-7.83833 c -0.40911,-4.63408 -1.21029,-5.59604 -4.297,-5.1593 -2.01531,0.28514 -2.41167,0.98052 -2.67843,4.69906 -0.4737,6.60333 0.0602,7.35774 4.02011,5.68004 3.01703,-1.27824 3.26468,-1.71566 2.95532,-5.2198 z M -531.91005,496.3259 c 1.48616,-4.27021 1.91254,-13.465 0.6244,-13.465 -0.74586,0 -4.26803,14.01131 -4.23158,16.83333 0.0336,2.60435 2.24821,0.53643 3.60718,-3.36833 z"
         style="fill:#000000;fill-opacity:1" />
    </g>
    <g
       transform="matrix(0.07270719,0,0,0.07270719,122.51402,1001.9539)"
       id="g5875">
      <path
         inkscape:connector-curvature="0"
         id="path5877"
         style="fill:#929292;fill-opacity:1"
         d="m -348.03125,519.14204 c -0.1157,0.0224 -0.23816,0.0597 -0.34375,0.125 -0.62546,0.38656 -1.125,1.81371 -1.125,3.15625 0,2.55436 -3.10442,6.39768 -5.25,6.5 -0.6875,0.0328 -3.5,0.46034 -6.25,0.96875 -13.57803,2.51025 -45.66148,4.91744 -71,5.3125 l -9.875,0.15625 c 0.18723,0.63488 0.39205,1.1102 0.625,1.34375 1.63821,1.64241 1.53211,35.36317 -0.125,39.5 -0.62436,1.55865 -0.8306,3.28951 -0.46875,3.875 0.81936,1.32575 28.60378,0.24763 31.34375,-1.21875 1.02034,-0.54607 7.05298,-1 13.40625,-1 6.35326,0 13.49836,-0.44117 15.84375,-0.96875 2.34539,-0.52759 6.95,-1.46845 10.25,-2.09375 14.13122,-2.67765 16.37139,-3.32928 23.5,-6.8125 l 7.5,-3.65625 0.28125,-5.625 c 0.24973,-4.73172 -0.39338,-7.38524 -4.21875,-16.96875 -4.93767,-12.37008 -6.35024,-21.03306 -3.5,-21.625 1.88445,-0.39136 3.9375,3.63904 3.9375,7.75 -0.063,-5.48031 -2.87764,-8.87338 -4.5312,-8.71875 z m 53.27798,-90.27098 c -8.24922,0 -12.66874,7.58196 -15.15625,26 -0.92853,6.875 -2.13651,14.92702 -2.65625,17.90625 -0.51975,2.97923 -0.9375,7.90218 -0.9375,10.9375 0,4.2119 -0.50749,6.06149 -2.09375,7.75 0.006,0.1168 -1.08053,0.89046 -0.90625,1.96875 0,-2.47563 3.93966,-1.87452 4.9375,0.75 0.48106,1.26526 2.93842,4.72314 5.46875,7.6875 2.53034,2.96436 4.58667,5.85463 4.59375,6.4375 0.007,0.58287 1.10322,3.3125 2.40625,6.0625 2.01125,4.24466 2.47268,4.69786 3.09375,3 0.40237,-1.1 2.42662,-5.6 4.5,-10 2.07338,-4.4 4.27218,-9.575 4.875,-11.5 2.28185,-7.28662 4.125,-20.00809 4.125,-28.375 0,-7.03773 0.29597,-8.81449 1.59375,-9.3125 1.10389,-0.4236 1.86495,-0.16962 2.375,0.90625 -0.60441,-8.44926 -1.91662,-14.40956 -4.1875,-19.3125 -3.79753,-8.19906 -6.76988,-10.90625 -12.03125,-10.90625 z M -353.05113,297.118 c -0.0137,0.34892 -0.051,0.68128 -0.0625,1.03125 -0.21221,6.48601 -0.80722,12.62248 -1.34375,13.625 -0.53653,1.00252 -1.4755,6.05727 -2.0625,11.21875 -1.27309,11.19419 -4.35431,21.43068 -7.5,24.875 -1.25578,1.375 -3.73923,5.38018 -5.5,8.90625 -3.6735,7.35643 -11.04563,15.59076 -19,21.21875 -3.025,2.1403 -7.975,5.93622 -11,8.4375 -6.37318,5.26978 -13.81469,9.26336 -25.90625,13.90625 -4.73062,1.81644 -12.86875,5.22069 -18.09375,7.53125 -12.87601,5.69394 -33.39557,13.00042 -39.4375,14.0625 -10.4371,1.83469 -33.97994,20.99663 -38.625,31.4375 -1.7456,3.92365 -3.06582,10.3221 -3.90625,17.3125 2.6709,-13.91872 3.36511,-16.48212 5.46875,-19.78125 7.48067,-11.73193 32.57496,-30.43677 38.3125,-28.5625 0.92213,0.30123 4.08259,5.14573 7,10.78125 3.55943,6.87571 7.43611,12.55275 11.78125,17.25 l 6.46875,7 -0.4375,-7.5 c -0.23538,-4.125 -1.00421,-13.48709 -1.71875,-20.8125 -1.39818,-14.33404 -1.21139,-15.12205 3.59375,-15.15625 1.52653,-0.0109 2.74398,1.68593 5.1875,7.21875 1.76078,3.9869 3.9339,9.81682 4.8125,12.9375 0.87859,3.12069 2.81835,7.21361 4.3125,9.09375 3.90883,4.91862 8.87213,9.71875 10.03125,9.71875 2.43923,0 2.8497,-32.94152 0.46875,-37.5 -0.57455,-1.1 -1.30341,-3.72126 -1.625,-5.8125 -0.67834,-4.41103 1.01332,-5.71856 4.75,-3.71875 3.33607,1.78541 15.97756,12.19844 23.9375,19.71875 5.18501,4.89864 7.1067,6.17134 7.75,5.15625 1.02518,-1.61759 1.00782,-15.88541 -0.0312,-32.34375 -0.48821,-7.73298 -0.38283,-12.84213 0.28125,-14.34375 1.20246,-2.71904 7.42462,-6.15625 11.125,-6.15625 6.55457,0 19.36613,9.34444 25.375,18.5 l 2.625,4 0.3125,-3.84375 c 0.43794,-5.32543 -3.72116,-19.45848 -6.8125,-23.15625 -2.88962,-3.45649 -7,-11.27964 -7,-13.3125 0,-3.17694 2.90529,-9.20278 5.6875,-11.78125 2.15836,-2.0003 3.63433,-2.40625 8.8125,-2.40625 6.04283,0 14.1971,1.15855 17.75,2.53125 1.37694,0.532 1.75,0.16298 1.75,-1.78125 0,-3.32864 -5.63173,-7.07895 -14,-9.3125 -3.575,-0.9542 -6.89628,-2.07556 -7.375,-2.5 -1.3428,-1.19054 1.19539,-19.7963 3.15625,-23.15625 1.6304,-2.79372 1.99068,-2.95098 6.71875,-2.4375 2.75,0.29865 6.35,0.8182 8,1.15625 l 3,0.625 -4,-3.59375 c -2.2,-1.9716 -5.90177,-4.42026 -8.21875,-5.46875 -2.8209,-1.27654 -4.29813,-2.55978 -4.8125,-4.8125 z m 3.95099,-36.53232 c -0.36447,2.62316 -0.67778,5.68729 -0.875,8.84375 -0.40986,6.55953 -1.20624,13.05293 -1.75,14.4375 -0.26938,0.68591 -0.56491,2.62936 -0.8125,5.1875 1.37873,-7.32932 2.31198,-8.15625 8.65625,-8.15625 2.95766,0 5.375,-0.41597 5.375,-0.90625 0,-0.99492 -7.22585,-4.09375 -9.53125,-4.09375 -1.76805,0 -1.81925,-0.38957 -1.5,-10 0.0679,-2.04398 0.22368,-3.78334 0.4375,-5.3125 z m 3.12289,-18.09059 c -0.015,0.33041 -0.0547,0.68155 -0.0625,1 -0.0939,3.85 -0.87644,8.6066 -1.71875,10.5625 -0.37909,0.88029 -0.73244,2.62291 -1.09375,4.84375 0.85534,-4.1106 2.47934,-5.90347 5.09375,-5.9375 1.49838,-0.0195 3.76624,-0.62494 5.0625,-1.34375 2.3521,-1.3043 2.35564,-1.31167 -2.125,-3.9375 -3.32489,-1.94851 -4.79526,-3.1562 -5.15625,-5.1875 z m 4.59163,-25.36252 c -0.11346,0.93895 -0.1875,1.80151 -0.1875,2.5625 0,2.06317 -0.36288,4.19625 -0.8125,4.71875 -1.11512,1.29588 -2.43551,6.9865 -3.15625,12.6875 0.53959,-2.60723 1.25176,-6.1 1.59375,-7.75 0.79393,-3.83046 3.14499,-6.5 5.6875,-6.5 1.80998,0 1.74916,-0.20824 -0.65625,-2.4375 -1.70443,-1.57962 -2.44245,-2.07427 -2.46875,-3.28125 z m 36.85121,-59.90094 c -10.95737,9.04985 -23.41607,23.36688 -26.34375,32.125 -0.55682,1.66574 -1.58639,3.7174 -2.3125,4.5625 -2.91693,3.39491 -6.70979,14.07373 -7.96875,21.53125 0.21152,-0.90582 0.52412,-2.09257 0.96875,-3.75 3.02694,-11.28345 6.34766,-17.8125 9.03125,-17.8125 0.83633,0 1.11814,-0.86989 0.8125,-2.46875 -0.70611,-3.69378 3.54339,-10.41356 15.03125,-23.75 1.76589,-2.05005 4.38587,-4.21889 5.8125,-4.8125 1.42664,-0.5936 3.22664,-2.49411 4,-4.21875 0.19349,-0.43149 0.5259,-0.90968 0.96875,-1.40625 z m 61.85643,-16.0913 c -0.37613,0.0259 -0.62511,0.0791 -0.75,0.15625 -0.51135,0.31604 -7.65727,1.00804 -15.875,1.53125 -13.58744,0.86508 -21.72736,2.40419 -26.4375,5.03125 -0.95504,0.53267 -2.67867,0.96875 -3.84375,0.96875 -2.02572,0 -4.9184,1.28307 -8.25,3.4375 3.47662,-1.97732 7.16021,-3.40673 8.8125,-3 1.07972,0.26579 2.65472,-0.10277 3.5,-0.8125 3.26183,-2.73878 12.89176,-4.73812 27.3125,-5.65625 8.15986,-0.51952 15.18744,-1.12389 15.59375,-1.375 0.81931,-0.50637 26.58718,2.82568 33.34375,4.3125 2.36081,0.51951 6.94618,1.46664 10.21875,2.125 0.81814,0.16459 1.64757,0.34757 2.4375,0.53125 -11.42496,-3.02891 -40.7086,-7.61814 -46.0625,-7.25 z" />
      <path
         style="fill:#000000;fill-opacity:1"
         d="m -493.25,650.71172 c -0.72116,-0.72163 -1.25,-3.78039 -1.25,-7.22982 0,-3.28845 -0.42255,-7.36095 -0.93899,-9.05 -0.51645,-1.68905 -1.45493,-6.446 -2.08552,-10.571 -3.1101,-20.34467 -5.76341,-33.49384 -8.0708,-39.99698 -1.07389,-3.02666 -2.64864,-7.75302 -3.49944,-10.50302 -0.8508,-2.75 -3.36408,-9.61244 -5.58507,-15.24987 -2.22099,-5.63743 -4.34332,-12.83789 -4.71628,-16.00103 -0.37297,-3.16313 -1.04118,-6.3386 -1.48493,-7.0566 -0.44374,-0.718 -1.17781,-3.64253 -1.63126,-6.49897 -2.114,-13.31696 -5.42082,-25.69353 -6.86488,-25.69353 -0.34899,0 -1.69179,2.3625 -2.984,5.25 -1.2922,2.8875 -3.35077,7.5 -4.5746,10.25 -4.03323,9.06292 -5.04654,13.38388 -3.86976,16.50151 1.48947,3.94606 0.0656,5.02974 -4.50561,3.42906 -3.51225,-1.22988 -3.67602,-1.48655 -3.42072,-5.36115 0.26378,-4.00309 0.21352,-4.06942 -3.08333,-4.06942 -1.84331,0 -3.64757,-0.2961 -4.00947,-0.65799 -1.245,-1.245 1.57395,-3.34201 4.49256,-3.34201 1.74697,0 3.8826,-0.95959 5.30806,-2.38505 3.26934,-3.26934 3.50438,-4.22165 10.02437,-40.61495 2.27414,-12.6938 3.5094,-17.2396 5.96682,-21.95817 1.30096,-2.49801 2.61138,-5.67871 2.91204,-7.06823 0.66962,-3.0946 17.58391,-19.63052 26.86853,-26.26747 4.13741,-2.95756 10.83292,-6.34463 17.47928,-8.84227 5.92515,-2.22662 13.473,-5.09023 16.773,-6.36358 5.93269,-2.28921 7.88903,-3.07123 24.5,-9.79359 4.675,-1.89194 12.85102,-5.10729 18.16893,-7.1452 5.31791,-2.03792 12.51791,-5.67162 16,-8.07489 3.48209,-2.40327 8.61687,-5.94405 11.41062,-7.86841 2.79376,-1.92435 8.92118,-7.53571 13.61649,-12.46969 7.37801,-7.75302 9.36218,-10.65077 14.61583,-21.34542 6.58642,-13.40772 6.6695,-13.76881 9.73338,-42.30308 0.82679,-7.7 1.97297,-17.825 2.54706,-22.5 0.57409,-4.675 1.39816,-11.875 1.83127,-16 0.4331,-4.125 1.29179,-10.2 1.90819,-13.5 0.6164,-3.3 1.845,-10.275 2.73021,-15.5 0.88521,-5.225 1.99285,-10.85 2.46141,-12.5 0.46857,-1.65 1.5774,-6.30724 2.46408,-10.34942 3.88381,-17.70553 13.62362,-34.44903 29.35517,-50.46382 9.35649,-9.52495 16.85996,-14.35943 26.65736,-17.17533 3.3,-0.94846 7.68725,-2.34779 9.74943,-3.10963 2.06219,-0.76183 10.75393,-1.83041 19.31497,-2.37461 8.56105,-0.5442 15.8738,-1.16983 16.25057,-1.39029 0.82584,-0.48321 24.2714,2.61791 32.68503,4.32321 13.88671,2.81461 16.32599,3.51674 25.4401,7.32268 20.6401,8.61907 30.03474,15.07938 31.58136,21.71721 0.32037,1.375 1.63758,3.79903 2.92712,5.38674 l 2.34461,2.88674 3.63674,-3.63674 c 2.0002,-2.00021 4.05257,-3.63674 4.56081,-3.63674 0.50824,0 3.4088,-3.11415 6.4457,-6.92034 4.49455,-5.63309 6.85257,-7.58618 12.67695,-10.5 10.12993,-5.06779 14.94806,-4.95116 24.32844,0.58891 10.57395,6.24499 13.24291,8.54874 15.6395,13.49944 1.90571,3.93667 2.12051,5.6832 1.69632,13.79283 -0.56711,10.84202 -2.36762,14.65793 -13.23012,28.03916 l -6.49417,8 -0.0267,9.2689 c -0.0243,8.44701 0.24424,9.77658 3.02864,14.99443 4.32114,8.09764 6.5857,10.23364 10.86899,10.25198 4.47037,0.0191 7.02587,1.43451 5.44479,3.01559 -2.00702,2.00702 -19.39825,2.44902 -24.94923,0.6341 -2.70593,-0.88472 -6.89332,-1.91354 -9.30531,-2.28626 -5.10776,-0.78929 -10.73316,-5.22167 -12.74836,-10.04474 -0.73475,-1.75848 -1.75294,-3.45498 -2.26266,-3.77001 -0.50972,-0.31502 -2.5307,1.61224 -4.49108,4.2828 -1.96037,2.67057 -5.41057,6.07737 -7.66711,7.57068 -2.31704,1.53335 -4.72141,4.19565 -5.52407,6.1167 -1.60833,3.84928 -1.85865,16.15367 -0.43669,21.46583 2.37422,8.86961 6.21511,22.04347 8.01774,27.5 3.47113,10.50703 3.62463,14.75924 0.71095,19.69344 -5.77452,9.77892 -13.61352,14.30722 -23.41942,13.52854 -13.0042,-1.03266 -21.60635,-6.94876 -24.7815,-17.04338 -0.96756,-3.07613 -1.49019,-6.29398 -1.16141,-7.15079 0.76393,-1.99077 4.80297,-3.52781 9.27038,-3.52781 3.17145,0 3.67179,0.40841 5.46407,4.46016 1.6545,3.74027 2.53492,4.56559 5.45473,5.11335 5.55242,1.04163 6.45989,-0.44261 6.45989,-10.56568 0,-13.82783 -5.19005,-27.34594 -14.01656,-36.50783 -2.64934,-2.75 -7.27769,-8.27272 -10.28523,-12.27272 -3.00753,-3.99999 -7.56263,-9.11627 -10.12244,-11.3695 -4.15463,-3.65705 -4.83782,-3.9433 -6.36498,-2.66687 -0.94094,0.78645 -3.93119,3.33243 -6.645,5.65772 -7.5984,6.51059 -20.69612,12.35203 -28.06579,12.51703 -5.86033,0.13121 -6.00745,0.0694 -6.32021,-2.6549 -0.17611,-1.53409 0.59345,-4.68409 1.71015,-7 2.62408,-5.44209 5.07648,-15.95292 5.09528,-21.83809 0.0262,-8.21049 -2.92559,-18.64135 -6.65962,-23.5332 -1.87844,-2.4609 -4.53672,-6.80651 -5.90729,-9.65691 -3.74568,-7.79002 -5.91054,-10.02682 -8.9629,-9.26073 -3.6605,0.91873 -11.43896,9.35745 -11.5285,12.50707 -0.0402,1.41411 -0.93997,3.9211 -1.99949,5.5711 -5.43632,8.46602 -9.96294,20.61751 -11.92049,32 -0.47295,2.75 -1.74667,8.15 -2.83051,12 -4.67919,16.6215 -6.51792,53.09115 -3.69925,73.37166 0.81245,5.84559 1.96086,14.45334 2.55204,19.12834 0.59118,4.675 1.47441,10.525 1.96275,13 0.48833,2.475 1.40218,7.65 2.03078,11.5 0.62859,3.85 1.52861,8.575 2.00004,10.5 0.47143,1.925 1.38155,6.425 2.02249,10 0.64093,3.575 1.76169,8.3 2.49057,10.5 0.72887,2.2 1.58992,6.025 1.91343,8.5 0.32352,2.475 1.19954,5.85 1.94673,7.5 1.9281,4.2578 3.6763,9.43111 4.56201,13.5 0.41903,1.925 1.76424,6.2 2.98937,9.5 1.22512,3.3 2.44477,6.9 2.71033,8 0.94823,3.92774 6.54605,22.06333 7.87095,25.5 0.74212,1.925 1.88201,5.3 2.53308,7.5 0.65107,2.2 1.57878,4.78179 2.06157,5.73731 1.7392,3.44219 3.84788,10.30986 3.86214,12.57843 0.008,1.27366 0.53127,3.28125 1.16282,4.4613 0.63155,1.18006 2.83714,9.58798 4.90131,18.68426 2.06417,9.09629 4.72703,19.0137 5.91747,22.0387 2.04783,5.2037 3.94843,13.98271 5.95357,27.5 0.48951,3.3 1.4025,8.21764 2.02885,10.92808 1.41023,6.10257 0.23095,7.60547 -8.32832,10.61381 -3.20691,1.12714 -6.79609,2.66124 -7.97595,3.40911 -3.67623,2.33025 -15.57821,6.70869 -17.31784,6.3708 -0.91123,-0.17699 -2.53571,-1.8968 -3.60995,-3.8218 -1.07425,-1.925 -3.17777,-4.89574 -4.6745,-6.60165 -1.49672,-1.70592 -4.40465,-7.44611 -6.46206,-12.756 -2.05741,-5.30988 -5.50477,-12.00203 -7.6608,-14.87143 -2.15603,-2.8694 -3.92005,-5.70752 -3.92005,-6.30692 0,-1.57083 -5.68125,-6.78876 -6.30055,-5.78671 -0.28597,0.4627 -1.22008,3.5432 -2.07581,6.84556 -0.85572,3.30235 -4.42067,12.52318 -7.9221,20.49072 -3.50143,7.96753 -6.62075,16.06143 -6.93182,17.98643 -1.09696,6.78824 -3.99204,15.22232 -5.86976,17.10004 -1.04498,1.04498 -3.28312,1.89996 -4.97364,1.89996 -3.65999,0 -17.79244,-4.59042 -19.92632,-6.47236 -0.825,-0.72759 -4.96255,-2.54345 -9.19455,-4.03525 -12.60091,-4.44187 -13.48806,-7.40216 -5.02175,-16.75685 9.50924,-10.50705 14.44861,-18.90323 12.35323,-20.99861 -0.43452,-0.43452 -2.97381,0.43051 -5.64287,1.92228 -2.66907,1.49177 -6.68462,3.03707 -8.92346,3.43401 -2.23883,0.39693 -6.7706,1.2585 -10.0706,1.91459 -3.3,0.65609 -8.25,1.6325 -11,2.16979 -2.75,0.53729 -11.3,1.29808 -19,1.69063 -13.68983,0.69792 -19.5,1.95013 -19.5,4.20265 0,0.61621 0.95515,2.46177 2.12256,4.10124 1.16741,1.63948 2.49204,4.40895 2.94362,6.15437 0.45158,1.74543 1.22504,4.74851 1.71879,6.67351 0.49376,1.925 1.68584,5.0208 2.64906,6.87955 1.70499,3.29016 1.69531,3.43555 -0.36603,5.49689 -1.91153,1.91154 -3.81593,2.20707 -19.59267,3.04045 l -17.47533,0.92311 0,5.38718 c 0,2.96295 0.51207,7.4208 1.13794,9.90635 1.69653,6.73752 0.42748,7.55657 -13.09038,8.44861 -13.32977,0.87963 -19.71435,2.24683 -35.04756,7.5051 -0.825,0.28292 -2.0625,-0.0485 -2.75,-0.73642 z M -483,644.8609 c 3.19721,-1.1 6.89724,-2 8.22229,-2 3.9653,0 6.27771,-1.79763 6.27771,-4.8802 0,-4.2478 3.09965,-6.51939 7.85772,-5.75854 2.84376,0.45473 4.24731,0.21712 5.15128,-0.87211 0.68339,-0.82343 2.64843,-1.8652 4.36676,-2.31504 3.521,-0.92177 3.33392,0.91881 2.05052,-20.17411 -0.62625,-10.29262 0.51212,-23.76058 2.7685,-32.7538 1.33006,-5.30121 1.59428,-30.72453 0.44425,-42.7462 -1.23813,-12.94267 -4.72809,-25.89999 -10.18837,-37.82681 -2.72693,-5.95639 -7.62227,-10.59347 -13.99406,-13.25577 -2.61665,-1.09331 -3.40592,-1.8681 -2.66141,-2.61261 1.40857,-1.40857 4.59567,-0.47499 10.98368,3.21737 5.47327,3.16362 6.32476,4.46782 12.06378,18.47782 3.93972,9.61757 7.15735,22.70668 7.15735,29.1156 0,2.74142 0.5625,5.54834 1.25,6.2376 1.63821,1.64241 1.528,35.34389 -0.12911,39.48072 -0.62436,1.55865 -0.83913,3.31296 -0.47728,3.89845 0.81936,1.32575 28.62977,0.22687 31.36974,-1.23951 1.02034,-0.54607 7.05329,-0.99286 13.40656,-0.99286 6.35326,0 13.47035,-0.43166 15.81574,-0.95924 2.34539,-0.52759 6.96435,-1.47085 10.26435,-2.09615 14.13122,-2.67765 16.37139,-3.32683 23.5,-6.81005 l 7.5,-3.6647 0.2963,-5.61416 c 0.24973,-4.73172 -0.41711,-7.40142 -4.24248,-16.98493 -4.93767,-12.37008 -6.33234,-21.0304 -3.4821,-21.62234 1.88445,-0.39136 3.92828,3.64281 3.92828,7.75377 0,1.59945 1.85919,7.09077 4.13153,12.20294 8.72192,19.62205 5.66918,36.04581 -9.80697,52.76148 -7.81162,8.43728 -8.06612,10.4369 -1.57456,12.37143 2.6125,0.77855 6.4375,2.12302 8.5,2.98772 3.32339,1.39332 4.11973,1.40564 7,0.10829 1.7875,-0.80514 4.03594,-2.0164 4.99654,-2.69168 1.29526,-0.91054 2.20336,-0.94251 3.51446,-0.12371 0.97236,0.60725 3.17062,0.89821 4.88504,0.64659 1.71441,-0.25162 3.42196,0.0358 3.79456,0.63862 0.37259,0.60287 1.51132,1.09612 2.53052,1.09612 1.40887,0 2.01288,-1.0188 2.51968,-4.25 0.67415,-4.29815 3.63113,-13.222 5.46003,-16.47779 2.98437,-5.31274 7.56268,-16.81384 9.65937,-24.26518 2.94547,-10.46774 3.51264,-30.63893 0.8898,-31.6454 -0.825,-0.31659 -1.50277,-1.31496 -1.50616,-2.21862 -0.003,-0.90365 -0.71804,-2.99301 -1.58811,-4.64301 -0.87007,-1.65 -2.73147,-5.85329 -4.13646,-9.34064 -1.40498,-3.48734 -4.21937,-8.44683 -6.25419,-11.02107 -4.3601,-5.51594 -6.01508,-8.42485 -6.01508,-10.57255 0,-2.47563 3.9263,-1.88978 4.92414,0.73474 0.48106,1.26526 2.94492,4.72587 5.47525,7.69023 2.53034,2.96436 4.6064,5.86665 4.61348,6.44952 0.007,0.58287 1.07898,3.30977 2.38201,6.05977 2.01125,4.24466 2.47967,4.69786 3.10074,3 0.40237,-1.1 2.42799,-5.6 4.50137,-10 2.07338,-4.4 4.26301,-9.575 4.86583,-11.5 2.28185,-7.28662 4.13718,-20.01426 4.13718,-28.38117 0,-7.03773 0.30314,-8.79792 1.60092,-9.29593 2.749,-1.05489 3.47901,1.83616 3.07484,12.1771 -0.62285,15.93579 -2.93575,26.16184 -8.31876,36.77979 -4.74301,9.35556 -8.42305,20.72827 -7.35383,22.72613 0.53083,0.99186 1.26897,5.07241 1.64031,9.06788 0.58015,6.24225 1.2474,8.12018 4.74176,13.34535 7.88359,11.78847 13.5529,21.63721 16.89622,29.35219 1.85884,4.2894 4.6057,9.02491 6.10414,10.52336 1.49845,1.49844 3.38073,4.29514 4.18285,6.21487 0.80211,1.91974 1.86504,3.49043 2.36206,3.49043 0.49703,0 3.01694,-0.90585 5.59982,-2.013 4.09888,-1.75699 4.60625,-2.2975 3.98941,-4.25 -2.49282,-7.89058 -1.40518,-10.737 4.1027,-10.737 2.71089,0 3.37756,-0.39476 3.37756,-2 0,-2.81763 3.51505,-6 6.62723,-6 2.55038,0 2.60997,-0.13895 2.03724,-4.75 -1.24666,-10.03691 -3.61972,-20.97041 -5.69742,-26.25 -1.19044,-3.025 -3.8533,-12.94241 -5.91747,-22.0387 -2.06417,-9.09628 -4.26976,-17.5042 -4.90131,-18.68426 -0.63155,-1.18005 -1.14827,-3.27048 -1.14827,-4.64538 0,-1.37491 -1.07557,-5.11699 -2.39016,-8.31575 -1.31459,-3.19875 -3.09085,-8.06591 -3.94723,-10.81591 -0.85639,-2.75 -2.70046,-8.375 -4.09794,-12.5 -4.65077,-13.72789 -5.56467,-16.75532 -5.56467,-18.43387 0,-0.916 -0.74639,-3.1056 -1.65864,-4.86579 -1.56955,-3.02843 -2.3603,-5.5413 -4.31123,-13.70034 -0.4603,-1.925 -1.83584,-5.975 -3.05678,-9 -1.22093,-3.025 -2.79863,-8.425 -3.506,-12 -0.70737,-3.575 -1.76449,-7.85 -2.34916,-9.5 -1.03622,-2.92432 -3.53235,-14.9414 -5.19287,-25 -0.45399,-2.75 -1.28261,-7.475 -1.84139,-10.5 -1.24815,-6.75698 -3.39356,-21.34151 -5.63197,-38.28627 -2.65588,-20.10502 -0.97478,-53.40731 3.64284,-72.1642 1.08991,-4.42724 2.6702,-11.14545 3.51175,-14.92935 1.94261,-8.73461 5.94905,-19.93706 9.01538,-25.20804 1.30794,-2.24832 2.37807,-5.09706 2.37807,-6.33053 0,-4.09341 6.98357,-13.11461 13.3256,-17.21366 4.56215,-2.94866 6.44681,-4.93758 8.15083,-8.60174 1.97115,-4.23856 3.00319,-5.14484 9.32225,-8.18628 l 7.10571,-3.42006 10.85005,1.05301 c 8.31396,0.80687 12.07335,1.6729 16.0837,3.7051 9.53961,4.83409 17.95996,14.25728 15.14339,16.94692 -0.89507,0.85473 -1.47184,0.65731 -2.3351,-0.79925 -2.4572,-4.14601 -9.23851,-10.82706 -12.86993,-12.67967 -4.02677,-2.0543 -14.71944,-3.80347 -23.56634,-3.8551 -9.40234,-0.0549 -16.32384,4.95561 -16.72746,12.10906 -0.18964,3.36093 0.51558,5.35443 3.63148,10.26548 2.12675,3.35202 3.87109,6.58734 3.87632,7.18959 0.005,0.60226 0.95738,1.95226 2.11591,3 1.15852,1.04775 2.89611,3.47999 3.8613,5.40499 2.13701,4.26212 5.03774,16.90719 5.01751,21.87267 -0.0196,4.81454 -2.52965,15.46896 -5.04321,21.40711 -3.08696,7.29278 -1.21953,8.34786 8.27097,4.67301 9.51803,-3.6855 15.66744,-7.18691 19.0561,-10.85032 1.83276,-1.98136 4.18316,-4.08491 5.22312,-4.67456 1.83631,-1.04119 1.82764,-1.17433 -0.30069,-4.61804 -1.20533,-1.95026 -2.19151,-4.52767 -2.19151,-5.72756 0,-1.1999 -0.72512,-3.58385 -1.61137,-5.29768 -2.08742,-4.03661 -1.44063,-9.80701 1.92267,-17.15343 2.29969,-5.02317 4.92213,-7.7311 6.22516,-6.42807 0.24761,0.24761 -0.73897,2.8907 -2.1924,5.87354 -3.66108,7.5135 -4.12442,13.47337 -1.45435,18.70715 1.16066,2.27508 2.11029,5.06449 2.11029,6.19869 0,2.51529 7.09634,10.41063 12.33571,13.72464 2.4041,1.52063 4.53167,3.99946 5.70036,6.64149 1.02555,2.31843 4.89836,7.35094 8.60623,11.18334 5.2418,5.41785 7.95423,9.41519 12.19238,17.96802 5.37677,10.85063 5.45651,11.14258 5.8719,21.5 0.35099,8.75161 0.11889,11.0828 -1.39389,14 -1.70109,3.28031 -2.10571,3.49047 -6.44613,3.34819 -6.0162,-0.19722 -8.70679,-1.72156 -10.46464,-5.92868 -1.17898,-2.8217 -1.95637,-3.41951 -4.44672,-3.41951 -3.71875,0 -4.61811,1.96118 -2.87437,6.26796 3.68111,9.09182 11.38991,13.73474 22.7936,13.7283 8.0252,-0.005 11.5304,-1.84753 16.56429,-8.70937 4.23704,-5.77563 4.41769,-8.60157 1.18324,-18.51002 -1.30792,-4.0067 -2.92977,-9.94259 -3.6041,-13.19086 -0.67434,-3.24827 -2.1086,-7.96479 -3.18724,-10.48116 -2.56104,-5.97465 -3.56977,-19.70252 -1.86521,-25.38363 2.8489,-9.49502 3.96783,-10.98199 11.86923,-15.77326 4.07133,-2.46878 7.2844,-9.59963 6.73536,-14.94796 -1.06443,-10.36883 -2.51652,-15.98772 -6.33157,-24.5 -2.44656,-5.45886 -3.67765,-9.3766 -3.12889,-9.95714 1.51259,-1.60019 3.54321,1.40701 7.39887,10.95714 5.33985,13.22635 6.46087,16.6756 6.47704,19.929 0.0141,2.83836 0.70286,5.49403 3.69385,14.24254 1.5627,4.57084 6.28863,8.83269 10.93403,9.86033 1.58767,0.35122 4.58328,1.27523 6.65691,2.05336 4.44177,1.66676 11.72976,1.8781 11.72976,0.34014 0,-0.59105 -1.8,-4.49114 -4,-8.66688 -3.82943,-7.26848 -4,-7.98586 -4,-16.82277 l 0,-9.23053 7.85347,-9.8526 c 10.80021,-13.54943 11.4538,-14.99551 11.95022,-26.43997 0.45208,-10.42232 -0.68413,-14.33236 -5.05621,-17.39996 -12.31251,-8.63888 -14.15379,-9.50785 -20.15138,-9.51028 -4.90249,-0.002 -6.97631,0.59734 -12.22635,3.53334 -3.47735,1.94464 -7.54723,5.20714 -9.04417,7.25 -1.49695,2.04285 -6.0076,6.95863 -10.02365,10.92395 -4.01606,3.96531 -7.30193,7.90281 -7.30193,8.75 0,4.24616 -5.77744,-1.47925 -7.52746,-7.45967 -2.04557,-6.99044 -5.51834,-11.83594 -11.17368,-15.59046 -6.44876,-4.28125 -20.32734,-10.52986 -29.68336,-13.36444 -10.53957,-3.19316 -46.5557,-8.81813 -48.55399,-7.58312 -0.51135,0.31604 -7.65334,1.00269 -15.87107,1.5259 -13.58744,0.86508 -21.71673,2.41657 -26.42687,5.04363 -0.95504,0.53267 -2.68969,0.96849 -3.85477,0.96849 -9.26042,0 -36.64871,26.91726 -41.1796,40.47138 -0.55682,1.66574 -1.6065,3.72006 -2.33261,4.56516 -3.54902,4.13058 -8.39659,19.03266 -8.39659,25.81225 0,2.06317 -0.36787,4.17871 -0.81749,4.70121 -1.5388,1.78824 -3.51407,11.94635 -3.68487,18.95 -0.0939,3.85 -0.85986,8.60028 -1.70217,10.55618 -0.88075,2.04519 -1.84808,8.62361 -2.27664,15.48259 -0.40986,6.55953 -1.19009,13.05925 -1.73385,14.44382 -0.54377,1.38458 -1.1623,7.82415 -1.37452,14.31016 -0.21221,6.48601 -0.82483,12.61298 -1.36136,13.6155 -0.53653,1.00252 -1.45578,6.04578 -2.04278,11.20726 -1.27309,11.19419 -4.36594,21.44017 -7.51163,24.88449 -1.25578,1.375 -3.72388,5.38496 -5.48465,8.91103 -3.6735,7.35643 -11.05567,15.59985 -19.01004,21.22784 -3.025,2.1403 -7.975,5.93795 -11,8.43923 -6.37318,5.26978 -13.80732,9.26075 -25.89888,13.90364 -4.73062,1.81644 -12.87612,5.19309 -18.10112,7.50365 -12.87601,5.69394 -33.40209,13.02426 -39.44402,14.08634 -10.4371,1.83469 -33.96877,20.9874 -38.61383,31.42827 -4.78839,10.76306 -6.60723,40.09641 -3.06435,49.4205 1.03278,2.71808 2.42946,8.0104 3.10373,11.76073 0.67427,3.75032 1.62926,7.85244 2.12221,9.11582 0.49294,1.26338 0.89626,3.46117 0.89626,4.88398 0,1.42281 0.48563,4.43914 1.07917,6.70295 0.59355,2.26381 1.53741,5.91602 2.09747,8.11602 0.56006,2.2 1.42443,4.78139 1.92082,5.73643 0.4964,0.95504 0.90254,2.66489 0.90254,3.79966 0,1.13478 0.62699,3.27838 1.3933,4.76357 4.53743,8.79391 13.7792,40.36435 15.57361,53.20034 2.02956,14.51811 3.2366,21.76057 4.09505,24.571 0.51592,1.68905 0.93804,4.95155 0.93804,7.25 0,2.29845 0.37955,4.179 0.84345,4.179 0.4639,0 3.45934,-0.9 6.65655,-2 z m 294.66008,-410.23992 c -2.69768,-2.69768 -0.21482,-15.03437 3.297,-16.38198 4.52448,-1.73621 10.89918,4.21101 10.31352,9.6219 -0.40497,3.74145 -3.06771,3.09113 -3.89444,-0.95114 -0.38821,-1.89813 -1.52636,-4.05113 -2.52923,-4.78445 -2.67959,-1.95936 -4.34693,0.86665 -4.34693,7.3677 0,5.48875 -0.88362,7.08427 -2.83992,5.12797 z m 28.52742,-5.40591 c -0.96152,-0.96153 -0.84959,-3.2303 0.37735,-7.64862 0.7836,-2.82178 1.9198,-4.20745 4.43241,-5.40564 3.10867,-1.48242 3.57606,-1.48189 5.84779,0.007 2.93361,1.92217 6.45836,11.29007 4.85228,12.89615 -1.60318,1.60318 -2.8158,0.23167 -4.21561,-4.76795 -0.71094,-2.53923 -1.93256,-4.86236 -2.71471,-5.1625 -2.10971,-0.80957 -4.47837,2.09121 -5.167,6.32775 -0.58802,3.61756 -1.99799,5.16871 -3.41251,3.7542 z m -297.81396,410.04828 c 0.20544,-0.17391 0.10707,-1.0106 -0.21862,-1.85932 -0.89166,-2.32365 -6.65492,-2.07233 -6.65492,0.2902 0,1.00834 0.29181,2.12514 0.64846,2.48179 0.57885,0.57886 5.27673,-0.10991 6.22508,-0.91267 z m 11.73485,-0.82431 c 0.79022,-2.05927 -1.3821,-5.57814 -3.44357,-5.57814 -2.43187,0 -4.16482,1.95564 -4.16482,4.7 0,1.9658 0.51313,2.3 3.53138,2.3 2.13027,0 3.74787,-0.56414 4.07701,-1.42186 z M -428.5,613.43348 c 0,-3.30534 4.64642,-6.8933 8.04629,-6.21332 1.73979,0.34796 3.45189,-0.19556 5.26637,-1.67185 2.64051,-2.14836 2.6636,-2.26775 1.29335,-6.68741 -0.76734,-2.475 -2.53693,-6.49317 -3.93243,-8.92927 l -2.53727,-4.42926 -11.31816,0.25054 c -6.22498,0.1378 -11.74778,0.6706 -12.27288,1.184 -1.06891,1.04508 -2.11498,24.99697 -1.19628,27.39106 0.46093,1.20117 2.32644,1.53293 8.61963,1.53293 7.8361,0 8.03138,-0.059 8.03138,-2.42742 z m 110.9682,1.17742 c -0.0175,-0.6875 -0.67843,-2.10427 -1.46875,-3.14838 -1.18814,-1.5697 -1.70207,-1.67835 -2.96819,-0.62756 -0.84219,0.69896 -1.53126,2.11573 -1.53126,3.14838 0,1.41951 0.73188,1.87756 3,1.87756 1.7503,0 2.98675,-0.52071 2.9682,-1.25 z M -419.5,612.79135 c 0,-1.57185 -0.53864,-1.9927 -2.23978,-1.75 -3.32375,0.4742 -3.61588,3.81955 -0.33354,3.81955 1.93548,0 2.57332,-0.51297 2.57332,-2.06955 z m 9.66813,0.49201 c 0.78366,-2.04219 -2.0484,-4.87425 -4.09059,-4.09059 -0.86765,0.33295 -1.57754,1.74448 -1.57754,3.13675 0,2.04184 0.48954,2.53138 2.53138,2.53138 1.39227,0 2.8038,-0.70989 3.13675,-1.57754 z M -328.5,611.27757 c 0,-0.87084 -0.53438,-1.40521 -1.1875,-1.1875 -1.85422,0.61807 -2.16176,2.77083 -0.39583,2.77083 0.87083,0 1.58333,-0.7125 1.58333,-1.58333 z m 88.39928,-17.2537 c 0.75465,-1.22105 -2.26574,-5.16297 -3.95598,-5.16297 -1.74849,0 -1.90743,3.13587 -0.2433,4.8 1.3919,1.3919 3.45325,1.57008 4.19928,0.36297 z m 10.76306,-7.83833 c -0.40911,-4.63408 -1.21029,-5.59604 -4.297,-5.1593 -2.01531,0.28514 -2.41167,0.98052 -2.67843,4.69906 -0.4737,6.60333 0.0602,7.35774 4.02011,5.68004 3.01703,-1.27824 3.26468,-1.71566 2.95532,-5.2198 z M -531.91005,496.3259 c 1.48616,-4.27021 1.91254,-13.465 0.6244,-13.465 -0.74586,0 -4.26803,14.01131 -4.23158,16.83333 0.0336,2.60435 2.24821,0.53643 3.60718,-3.36833 z"
         id="path5879"
         inkscape:connector-curvature="0" />
    </g>
    <path
       style="fill:none;stroke:#000000;stroke-width:1px;stroke-linecap:butt;stroke-linejoin:miter;stroke-opacity:1"
       d="m 201.20645,1039.3609 -25.5,0"
       id="path5881"
       inkscape:connector-curvature="0" />
    <path
       style="fill:none;stroke:#000000;stroke-width:6;stroke-linecap:butt;stroke-linejoin:miter;stroke-miterlimit:4;stroke-opacity:1;stroke-dasharray:none"
       d="m 143.20645,1038.8609 -30.5,0"
       id="path5883"
       inkscape:connector-curvature="0" />
    <path
       style="fill:none;stroke:#000000;stroke-width:1px;stroke-linecap:butt;stroke-linejoin:miter;stroke-opacity:1"
       d="m 86.206452,967.01249 0,41.82581"
       id="path5905"
       inkscape:connector-curvature="0"
       inkscape:tile-cx="96"
       inkscape:tile-cy="234.5"
       inkscape:tile-w="0"
       inkscape:tile-h="81"
       inkscape:tile-x0="96"
       inkscape:tile-y0="194"
       sodipodi:nodetypes="cc" />
    <use
       x="0"
       y="0"
       inkscape:tiled-clone-of="#path5905"
       xlink:href="#path5905"
       id="use5945"
       transform="translate(18.937637,4.2651364e-7)"
       width="270"
       height="360" />
    <use
       x="0"
       y="0"
       inkscape:tiled-clone-of="#path5905"
       xlink:href="#path5905"
       id="use5947"
       transform="translate(15.781364,4.2651364e-7)"
       width="270"
       height="360" />
    <use
       x="0"
       y="0"
       inkscape:tiled-clone-of="#path5905"
       xlink:href="#path5905"
       id="use5949"
       transform="translate(12.625092,4.2651364e-7)"
       width="270"
       height="360" />
    <use
       x="0"
       y="0"
       inkscape:tiled-clone-of="#path5905"
       xlink:href="#path5905"
       id="use5951"
       transform="translate(9.4688187,4.2651364e-7)"
       width="270"
       height="360" />
    <use
       x="0"
       y="0"
       inkscape:tiled-clone-of="#path5905"
       xlink:href="#path5905"
       id="use5953"
       transform="translate(6.3125458,4.2651364e-7)"
       width="270"
       height="360" />
    <use
       x="0"
       y="0"
       inkscape:tiled-clone-of="#path5905"
       xlink:href="#path5905"
       id="use5955"
       transform="translate(3.1562729,4.2651364e-7)"
       width="270"
       height="360" />
    <path
       id="path3157"
       style="fill:#000000"
       d="m 225.85248,981.5456 c 3.40496,-1.85882 7.80984,-3.42937 12.33375,-4.14603 3.01781,-1.9473 6.96734,-4.93992 9.35911,-5.8896 1.63986,1.0821 5.28836,7.08177 7.6757,2.66965 1.21843,-1.44057 -2.62035,-4.51308 -1.68661,-2.01135 -2.30246,-3.34822 -7.624,-7.03317 -11.10029,-3.45977 -3.3722,1.94522 -6.63533,4.28266 -10.61699,4.53298 -2.96064,1.88368 -9.23736,0.5648 -8.59096,5.6446 -0.35689,1.17108 2.46153,6.09125 2.62629,2.65952 z m 9.42037,9.63845 c 2.15018,-1.03704 2.09999,-2.1647 -0.21898,-4.92068 l -1.88341,-2.23831 2.80808,-0.72724 c 5.37019,-1.39086 6.24917,-1.30364 7.81083,0.77518 l 1.4819,1.97266 -1.60591,2.59842 c -1.90591,3.08383 -2.38941,3.32343 -6.72809,3.33431 -2.91997,0.007 -3.1244,-0.0902 -1.66442,-0.79434 z m 7.06117,-0.0774 c 4.28793,-4.52241 4.2871,-4.51908 1.87247,-7.44846 -1.59282,-1.93235 -2.78343,-2.66743 -4.32045,-2.66743 -1.16694,0 -2.3034,0.29397 -2.52546,0.65327 -0.22206,0.35929 -2.25021,0.88399 -4.50699,1.1659 -3.68164,0.46005 -4.28191,0.79197 -5.84208,3.23038 -1.27754,1.99671 -1.53054,2.97598 -0.95367,3.69116 1.63583,2.02807 5.00283,3.09515 9.76671,3.09515 4.1453,0 5.12382,-0.25861 6.50947,-1.71997 z"
       inkscape:connector-curvature="0" />
    <path
       inkscape:connector-curvature="0"
       id="path3541"
       d="m 143.20645,954.61201 -30.5,0"
       style="fill:none;stroke:#000000;stroke-width:6;stroke-linecap:butt;stroke-linejoin:miter;stroke-miterlimit:4;stroke-opacity:1;stroke-dasharray:none" />
    <g
       id="g4160"
       transform="translate(0,-0.49999859)">
      <path
         inkscape:connector-curvature="0"
         sodipodi:nodetypes="cccccccccccccccccsccccccccscccccscccccccccccccccccccccccsccccccccccccccccccccccscccccccccccccccccccccccccccccccccccccc"
         id="path2960"
         d="m 175.18319,839.88152 c 0,0 -0.51872,1.43395 -0.4499,2.35361 0.21376,2.53791 2.09316,4.89503 4.49906,6.2763 l 1.06853,0.47399 0.4499,0.65378 0.86233,1.12777 0.82482,0.81722 1.33098,0.84992 1.40596,0.7355 1.57467,0.60475 2.54947,0.55572 1.40596,0.21247 2.41824,0.0654 2.39951,-0.049 2.45105,-0.57614 2.6104,-0.96025 1.31222,-0.67012 c 0.2064,0.99967 0.35867,2.10276 1.12656,2.88067 1.68919,1.71122 6.73659,2.34235 8.01958,-0.17336 l 0.8351,1.59491 1.29904,1.1904 1.6967,0.90147 1.59066,0.53164 1.17974,0.20803 1.86902,0.18492 1.76299,0.0578 c 0,0 2.04134,-0.33517 2.30645,-0.21959 0.26511,0.11557 2.00158,-0.19648 2.00158,-0.19648 l 2.31972,-0.63565 1.77623,-0.79745 1.29904,-0.80902 0.38647,-0.3216 c 0.16445,4.48553 6.42332,5.23311 10.16039,3.88999 l 2.45575,-0.8826 0.22495,0.31054 c 5.76349,2.15313 11.22535,-2.05804 15.54052,-5.01777 0.31935,-0.24353 0.91856,-0.76819 0.91856,-0.76819 l -0.4874,0.9153 -1.44345,1.79789 -1.98709,1.73252 -3.22433,2.10845 -2.36201,1.3239 -1.74338,0.73551 -1.89336,0.67012 -1.51843,0.37593 -1.4997,0.16344 -1.38721,-0.049 -1.57467,-0.26151 -0.80608,-0.31055 -0.71235,0.7355 -1.42471,1.38929 -1.181,0.76819 -1.14352,0.5884 -1.31222,0.53937 -1.06853,0.24517 -1.34972,0.21248 c 0,0 -1.01229,0.0981 -1.14351,0.0981 -0.13123,0 -1.44346,-0.049 -1.44346,-0.049 l -1.40595,-0.11441 -1.63091,-0.27786 -2.13706,-0.47399 -1.96834,-0.60475 -2.08082,-0.76819 -1.29348,-0.37592 -1.25599,-0.21248 -1.55593,-0.0817 -1.06852,-0.0981 -1.49969,0.21248 -1.55593,0.26151 -1.4247,0.4413 -1.2185,0.47399 -1.4247,0.32689 -1.72465,0.21248 -1.31223,0.0327 -1.21849,-0.22882 -1.38721,-0.2942 -1.55593,-0.75185 -0.89981,-0.84992 -0.33743,-0.63743 c 0,0 -1.66841,0.60475 -1.74339,0.60475 -0.075,0 -1.49969,0.17979 -1.49969,0.17979 l -1.23724,0.0163 -2.21204,-0.11441 -1.91211,-0.26151 -1.68715,-0.60475 -1.9121,-0.84992 -1.4622,-1.07874 -1.19975,-1.35659 -0.67486,-1.43832 -0.63736,0.68647 -1.16226,0.80088 -1.10602,0.40862 -1.61217,0.40861 -1.59342,0.13076 -2.04332,0 -2.08082,-0.27786 -2.13706,-0.65378 -2.71818,-1.25853 -1.40596,-1.17681 -0.63737,-1.19315 -0.14997,-1.04605 0.2812,-1.52004 0.73109,-2.46802 0.54364,-1.16046 0.13122,-1.25853 -0.37492,-1.27487 -1.16226,-1.56908 -0.82483,-0.68647 -0.52489,-0.68647 -0.2062,-0.83357 0.28119,-0.8826 0.88106,-0.93164 1.18101,-0.71916 1.49969,-0.80088 2.24953,-0.75185 1.83712,-0.47399 1.48094,-0.22882 0,1e-5 z"
         style="fill:#e6e6e6;fill-opacity:1;stroke:none" />
      <path
         inkscape:connector-curvature="0"
         sodipodi:nodetypes="csscc"
         id="path2908"
         d="m 199.95034,864.3589 c 2.39583,3.00031 7.33734,2.93831 10.76789,1.70933 3.4897,-1.25017 7.15763,-1.47663 10.73592,-0.0314 5.15651,2.08265 12.26939,3.34983 17.03875,-0.361 2.00383,-1.66963 3.72538,-4.06352 5.59454,-5.83666"
         style="fill:none;stroke:#000000;stroke-width:0.5;stroke-linecap:butt;stroke-linejoin:miter;stroke-miterlimit:4;stroke-opacity:1;stroke-dasharray:none" />
      <path
         inkscape:connector-curvature="0"
         sodipodi:nodetypes="csc"
         id="path2906"
         d="m 184.20014,858.28419 c 0.82582,5.19315 7.85278,7.32096 13.14999,6.61406 1.97721,-0.26385 3.75066,-1.02107 5.30167,-2.08359"
         style="fill:none;stroke:#000000;stroke-width:0.5;stroke-linecap:butt;stroke-linejoin:miter;stroke-miterlimit:4;stroke-opacity:1;stroke-dasharray:none" />
      <path
         inkscape:connector-curvature="0"
         sodipodi:nodetypes="ccccccccccccccccccccccccccccccccccccszccccccccscccccccccccccccsccccccccccccccccccccccccccccscccccccccccccc"
         id="path3739"
         d="m 203.85275,827.20062 -2.895,0.3317 -3.06202,0.90609 -2.02279,1.07599 -1.61452,1.25397 -0.79798,-0.29125 -1.63308,-0.29933 -1.66092,-0.12944 -1.83721,-0.0728 -2.08774,0.17799 -2.66303,0.5744 -1.88361,0.7362 -1.23408,0.59058 -1.86505,1.22161 -1.94856,1.796 -0.97428,1.70702 -0.45466,1.63421 -0.11135,1.33487 -0.23197,0.17798 0.3062,-0.0485 c 0,0 -0.5142,1.43457 -0.44538,2.35423 0.21376,2.53791 2.09434,4.89667 4.50024,6.27793 l 1.06707,0.47732 0.44538,0.6553 0.86293,1.12453 0.82582,0.8171 1.33616,0.84947 1.4011,0.7362 1.57741,0.60676 2.55168,0.55013 1.40111,0.21843 2.42178,0.0647 2.39394,-0.0485 2.44962,-0.58249 2.61663,-0.95464 1.30832,-0.67148 c 0.2064,0.99967 0.30123,2.13729 0.98205,2.97816 1.67534,2.06915 6.24847,1.97746 7.61944,0.5006 1.37098,-1.47686 0.54746,-0.76856 0.54746,-0.76856 l 0.83509,1.59375 1.29904,1.18925 1.69803,0.898 1.58668,0.53395 1.17842,0.21035 1.87433,0.18607 1.76298,0.0566 c 0,0 2.03604,-0.33401 2.30115,-0.21843 0.26511,0.11557 2.00423,-0.20226 2.00423,-0.20226 l 2.31972,-0.63103 1.77226,-0.80092 1.29903,-0.80901 0.38972,-0.32361 c 0.16444,4.48554 6.42326,5.23448 10.16034,3.89135 l 2.45889,-0.88182 0.22269,0.31552 c 5.76349,2.15312 11.22691,-2.06425 15.54208,-5.02397 0.3064,-0.23366 0.84554,-0.70475 0.89077,-0.7443 l 0.29692,-0.54203 0.62168,-1.66657 0.10207,-1.1488 -0.0928,-1.39959 -0.49178,-1.58566 c 0,0 -0.90876,-1.31011 -0.965,-1.35915 -0.0562,-0.049 -1.06706,-1.00317 -1.06706,-1.00317 l -0.48251,-0.2508 -0.0557,-1.20542 -0.21341,-1.12453 -0.38043,-1.57758 -0.87222,-1.82027 -0.63096,-0.89801 -1.07634,-1.28633 -1.57741,-1.13262 -1.5774,-0.70384 -1.85577,-0.22652 -1.33616,0.20225 -2.00423,0.33979 -1.69803,-0.11326 -1.28976,-0.46923 -1.39183,-0.70384 -1.46605,-1.00318 -1.8001,-1.11644 -1.11346,-0.50158 -1.10419,-0.10518 -1.25264,0.20226 -1.23409,0.43686 -1.37327,0.89801 -0.57529,0.63103 -1.76298,-2.05489 -2.06918,-1.35915 -2.37539,-0.99508 -1.60524,-0.46114 c 0,0 -2.71832,-0.2101 -2.75582,-0.23461 -0.0375,-0.0245 -2.86716,0.4045 -2.86716,0.4045 l -2.31971,0.95464 -1.28048,0.83328 -1.57741,-1.10834 -1.30832,-0.76048 -1.19697,-0.52585 -2.07846,-0.77666 -1.96712,-0.44495 -2.17125,-0.31552 -1.49389,-0.0243 z m 56.26694,28.06465 -0.4361,0.54204 0.21341,-0.13753 0.22269,-0.40451 z"
         style="fill:#ffffff;fill-opacity:1;stroke:none" />
      <path
         inkscape:connector-curvature="0"
         sodipodi:nodetypes="cssc"
         id="path2910"
         d="m 240.72159,863.46187 c 5.60581,2.44601 13.27223,-2.76342 16.1932,-4.91373 2.60244,-1.91581 6.04473,-6.02001 4.27823,-10.19921 -0.52079,-1.2321 -1.42865,-2.34312 -2.65604,-3.1014"
         style="fill:none;stroke:#000000;stroke-width:0.5;stroke-linecap:butt;stroke-linejoin:miter;stroke-miterlimit:4;stroke-opacity:1;stroke-dasharray:none" />
      <path
         inkscape:connector-curvature="0"
         id="path2896"
         d="m 191.94136,835.07709 c 0.96958,-5.98831 8.99094,-8.66312 15.14495,-7.6601 3.47534,0.63503 6.9283,2.12171 9.35121,4.42404"
         style="fill:none;stroke:#000000;stroke-width:0.5;stroke-linecap:butt;stroke-linejoin:miter;stroke-miterlimit:4;stroke-opacity:1;stroke-dasharray:none" />
      <path
         inkscape:connector-curvature="0"
         sodipodi:nodetypes="cc"
         id="path2898"
         d="m 215.64219,831.12448 c 5.26894,-3.95397 14.13676,-1.76817 17.49459,3.63229"
         style="fill:none;stroke:#000000;stroke-width:0.5;stroke-linecap:butt;stroke-linejoin:miter;stroke-miterlimit:4;stroke-opacity:1;stroke-dasharray:none" />
      <path
         inkscape:connector-curvature="0"
         sodipodi:nodetypes="ccc"
         id="path2902"
         d="m 175.11142,839.80834 c -0.0794,-6.15226 7.32559,-9.83134 13.76148,-9.79997 1.82942,-0.0363 3.67567,0.18247 5.40142,0.72316"
         style="fill:none;stroke:#000000;stroke-width:0.5;stroke-linecap:butt;stroke-linejoin:miter;stroke-miterlimit:4;stroke-opacity:1;stroke-dasharray:none" />
      <path
         inkscape:connector-curvature="0"
         sodipodi:nodetypes="czzc"
         id="path2904"
         d="m 184.41223,859.39369 c -3.96912,4.87826 -17.65752,1.53881 -17.21228,-3.2624 0.44524,-4.80122 3.78082,-5.77059 -0.38849,-9.66631 -4.16931,-3.89572 6.12202,-6.42082 9.75351,-6.85742"
         style="fill:none;stroke:#000000;stroke-width:0.5;stroke-linecap:butt;stroke-linejoin:miter;stroke-miterlimit:4;stroke-opacity:1;stroke-dasharray:none" />
      <path
         inkscape:connector-curvature="0"
         sodipodi:nodetypes="cssc"
         id="path2912"
         d="m 258.43094,846.17212 c 0.91267,-4.88755 -3.68202,-12.09299 -9.51623,-10.5696 -4.51765,1.17962 -6.81158,-1.33259 -9.81953,-3.23529 -2.03393,-1.28658 -5.07194,0.13696 -6.53897,1.69281"
         style="fill:none;stroke:#000000;stroke-width:0.5;stroke-linecap:butt;stroke-linejoin:miter;stroke-miterlimit:4;stroke-opacity:1;stroke-dasharray:none" />
      <path
         inkscape:connector-curvature="0"
         sodipodi:nodetypes="cc"
         id="path2946"
         d="m 180.27651,848.94587 c 4.74302,6.4264 14.61023,7.30168 21.63298,3.32851"
         style="fill:none;stroke:#000000;stroke-width:0.5;stroke-linecap:butt;stroke-linejoin:miter;stroke-miterlimit:4;stroke-opacity:1;stroke-dasharray:none" />
      <path
         inkscape:connector-curvature="0"
         id="path2948"
         d="m 211.02927,855.04814 c 1.94677,5.05494 9.25596,5.07928 14.2576,4.28297 2.23889,-0.41357 4.40378,-1.26347 6.10285,-2.61871"
         style="fill:none;stroke:#000000;stroke-width:0.5;stroke-linecap:butt;stroke-linejoin:miter;stroke-miterlimit:4;stroke-opacity:1;stroke-dasharray:none" />
    </g>
    <path
       style="fill:none;stroke:#000000;stroke-width:1px;stroke-linecap:butt;stroke-linejoin:miter;stroke-opacity:1"
       d="m 237.63386,906.53214 c 30.69095,0 4.80679,-40.6429 4.80679,-40.6429"
       id="path4179"
       inkscape:connector-curvature="0"
       sodipodi:nodetypes="cc" />
    <text
       xml:space="preserve"
       style="font-size:9px;font-style:normal;font-variant:normal;font-weight:normal;font-stretch:normal;text-align:center;line-height:125%;letter-spacing:0px;word-spacing:0px;text-anchor:middle;fill:#000000;fill-opacity:1;stroke:none;font-family:TeXGyreTermes;-inkscape-font-specification:TeXGyreTermes"
       x="37.756096"
       y="991.46234"
       id="text4229"
       sodipodi:linespacing="125%"><tspan
         sodipodi:role="line"
         id="tspan4231"
         x="37.756096"
         y="991.46234"
         style="font-style:italic;-inkscape-font-specification:TeXGyreTermes Italic">Censor</tspan></text>
    <text
       xml:space="preserve"
       style="font-size:9px;font-style:normal;font-variant:normal;font-weight:normal;font-stretch:normal;text-align:center;line-height:125%;letter-spacing:0px;word-spacing:0px;text-anchor:middle;fill:#000000;fill-opacity:1;stroke:none;font-family:TeXGyreTermes;-inkscape-font-specification:TeXGyreTermes"
       x="38.215096"
       y="850.1369"
       id="text4245"
       sodipodi:linespacing="125%"><tspan
         sodipodi:role="line"
         id="tspan4247"
         x="38.215096"
         y="850.1369">Censored sites</tspan></text>
    <g
       id="g3490">
      <text
         sodipodi:linespacing="125%"
         id="text4239"
         y="894.37445"
         x="38.162437"
         style="font-size:9px;font-style:normal;font-variant:normal;font-weight:normal;font-stretch:normal;text-align:center;line-height:125%;letter-spacing:0px;word-spacing:0px;text-anchor:middle;fill:#000000;fill-opacity:1;stroke:none;font-family:TeXGyreTermes;-inkscape-font-specification:TeXGyreTermes"
         xml:space="preserve"><tspan
           id="tspan4243"
           y="894.37445"
           x="38.162437"
           sodipodi:role="line">Existing Tor</tspan></text>
      <text
         sodipodi:linespacing="125%"
         id="text3076"
         y="905.65259"
         x="38.126507"
         style="font-size:9px;font-style:normal;font-variant:normal;font-weight:normal;font-stretch:normal;text-align:center;line-height:125%;letter-spacing:0px;word-spacing:0px;text-anchor:middle;fill:#000000;fill-opacity:1;stroke:none;font-family:TeXGyreTermes;-inkscape-font-specification:TeXGyreTermes"
         xml:space="preserve"><tspan
           y="905.65259"
           x="38.126507"
           id="tspan3078"
           sodipodi:role="line">network</tspan></text>
    </g>
    <g
       id="g3496">
      <text
         sodipodi:linespacing="125%"
         id="text4233"
         y="943.60907"
         x="38.152092"
         style="font-size:9px;font-style:normal;font-variant:normal;font-weight:normal;font-stretch:normal;text-align:center;line-height:125%;letter-spacing:0px;word-spacing:0px;text-anchor:middle;fill:#000000;fill-opacity:1;stroke:none;font-family:TeXGyreTermes;-inkscape-font-specification:TeXGyreTermes"
         xml:space="preserve"><tspan
           id="tspan4237"
           y="943.60907"
           x="38.152092"
           sodipodi:role="line">StegoTorus</tspan></text>
      <text
         sodipodi:linespacing="125%"
         id="text3084"
         y="954.86963"
         x="38.156361"
         style="font-size:9px;font-style:normal;font-variant:normal;font-weight:normal;font-stretch:normal;text-align:center;line-height:125%;letter-spacing:0px;word-spacing:0px;text-anchor:middle;fill:#000000;fill-opacity:1;stroke:none;font-family:TeXGyreTermes;-inkscape-font-specification:TeXGyreTermes"
         xml:space="preserve"><tspan
           y="954.86963"
           x="38.156361"
           id="tspan3086"
           sodipodi:role="line">server</tspan></text>
    </g>
    <g
       id="g3502">
      <text
         sodipodi:linespacing="125%"
         id="text4219"
         y="1027.5339"
         x="38.152092"
         style="font-size:10px;font-style:normal;font-variant:normal;font-weight:normal;font-stretch:normal;text-align:center;line-height:125%;letter-spacing:0px;word-spacing:0px;text-anchor:middle;fill:#000000;fill-opacity:1;stroke:none;font-family:Gillius ADF No2;-inkscape-font-specification:Gillius ADF No2"
         xml:space="preserve"><tspan
           style="font-size:9px;font-style:normal;font-variant:normal;font-weight:normal;font-stretch:normal;text-align:center;text-anchor:middle;font-family:TeXGyreTermes;-inkscape-font-specification:TeXGyreTermes"
           id="tspan4223"
           y="1027.5339"
           x="38.152092"
           sodipodi:role="line">StegoTorus</tspan></text>
      <text
         sodipodi:linespacing="125%"
         id="text3090"
         y="1038.767"
         x="38.127186"
         style="font-size:9px;font-style:normal;font-variant:normal;font-weight:normal;font-stretch:normal;text-align:center;line-height:125%;letter-spacing:0px;word-spacing:0px;text-anchor:middle;fill:#000000;fill-opacity:1;stroke:none;font-family:TeXGyreTermes;-inkscape-font-specification:TeXGyreTermes"
         xml:space="preserve"><tspan
           y="1038.767"
           x="38.127186"
           id="tspan3092"
           sodipodi:role="line">client</tspan></text>
    </g>
  </g>
</svg>
