<?xml version="1.0" encoding="UTF-8" standalone="no"?>
<!-- Created with Inkscape (http://www.inkscape.org/) -->

<svg
   xmlns:dc="http://purl.org/dc/elements/1.1/"
   xmlns:cc="http://creativecommons.org/ns#"
   xmlns:rdf="http://www.w3.org/1999/02/22-rdf-syntax-ns#"
   xmlns:svg="http://www.w3.org/2000/svg"
   xmlns="http://www.w3.org/2000/svg"
   xmlns:sodipodi="http://sodipodi.sourceforge.net/DTD/sodipodi-0.dtd"
   xmlns:inkscape="http://www.inkscape.org/namespaces/inkscape"
   id="svg3609"
   version="1.1"
   inkscape:version="0.47 r22583"
   width="330"
   height="368.64804"
   xml:space="preserve"
   sodipodi:docname="chessboard.svg"><metadata
     id="metadata3615"><rdf:RDF><cc:Work
         rdf:about=""><dc:format>image/svg+xml</dc:format><dc:type
           rdf:resource="http://purl.org/dc/dcmitype/StillImage" /><dc:title></dc:title></cc:Work></rdf:RDF></metadata><defs
     id="defs3613" /><sodipodi:namedview
     pagecolor="#ffffff"
     bordercolor="#666666"
     borderopacity="1"
     objecttolerance="10"
     gridtolerance="10"
     guidetolerance="10"
     inkscape:pageopacity="0"
     inkscape:pageshadow="2"
     inkscape:window-width="1343"
     inkscape:window-height="1147"
     id="namedview3611"
     showgrid="false"
     inkscape:zoom="1.5459295"
     inkscape:cx="183.11935"
     inkscape:cy="249.1268"
     inkscape:window-x="0"
     inkscape:window-y="0"
     inkscape:window-maximized="0"
     inkscape:current-layer="g3619" /><g
     id="g3619"
     inkscape:groupmode="layer"
     inkscape:label="chessboard-raw"
     transform="matrix(1.25,0,0,-1.25,-217.5,827.14803)"><text
       id="text4223"
       transform="scale(1,-1)"
       x="198.26816"
       y="-652.40002"
       style="font-size:9.60000038px"><tspan
         id="tspan4225"
         sodipodi:role="line"
         y="-652.40002"
         x="198.26816 205.99936 209.72417 215.85536 222.25536 227.68001 234.26688 237.46689 243.14752 246.87231 250.59712 256.27777 263.8656 267.06561 274.05313 282.26562 285.46561 291.8656 295.59042 299.8656 303.06561 310.05313 315.06561 318.26559 322.44098 329.89056 336.66562 339.8656 345.54626 352.99585 359.12704 364.5517 370.26434 373.46432 381.15842 387.55841 398.23361 405.68323 411.10785"
         style="font-size:12.80000019px;font-variant:normal;font-weight:normal;writing-mode:lr-tb;fill:#1d1916;fill-opacity:1;fill-rule:nonzero;stroke:none;font-family:Palatino;-inkscape-font-specification:Palatino-Roman">Please click on all of the chess pawns.</tspan></text>
<path
       style="fill:#d2b48c;fill-opacity:1;fill-rule:nonzero;stroke:none"
       d="m 174,630.8 c 0,-88 0,-176 0,-264 88,0 176,0 264,0 0,88 0,176 0,264 -88,0 -176,0 -264,0 z m 4,-4 c 85.33334,0 170.66666,0 256,0 0,-85.33334 0,-170.66666 0,-256 -85.33334,0 -170.66666,0 -256,0 0,85.33334 0,170.66666 0,256 z"
       id="path4235" /><path
       d="m 178,594.8 32,0 0,32 -32,0 0,-32 z"
       style="fill:#a2846c;fill-opacity:1;fill-rule:nonzero;stroke:none"
       id="path4251" /><path
       d="m 210,594.8 32,0 0,32 -32,0 0,-32 z"
       style="fill:#000000;fill-opacity:1;fill-rule:nonzero;stroke:none"
       id="path4275" /><path
       d="m 242,594.8 32,0 0,32 -32,0 0,-32 z"
       style="fill:#a2846c;fill-opacity:1;fill-rule:nonzero;stroke:none"
       id="path4299" /><path
       d="m 274,594.8 32,0 0,32 -32,0 0,-32 z"
       style="fill:#000000;fill-opacity:1;fill-rule:nonzero;stroke:none"
       id="path4323" /><path
       d="m 306,594.8 32,0 0,32 -32,0 0,-32 z"
       style="fill:#a2846c;fill-opacity:1;fill-rule:nonzero;stroke:none"
       id="path4347" /><path
       d="m 338,594.8 32,0 0,32 -32,0 0,-32 z"
       style="fill:#000000;fill-opacity:1;fill-rule:nonzero;stroke:none"
       id="path4371" /><path
       d="m 370,594.8 32,0 0,32 -32,0 0,-32 z"
       style="fill:#a2846c;fill-opacity:1;fill-rule:nonzero;stroke:none"
       id="path4395" /><path
       d="m 402,594.8 32,0 0,32 -32,0 0,-32 z"
       style="fill:#000000;fill-opacity:1;fill-rule:nonzero;stroke:none"
       id="path4419" /><path
       d="m 178,562.8 32,0 0,32 -32,0 0,-32 z"
       style="fill:#000000;fill-opacity:1;fill-rule:nonzero;stroke:none"
       id="path4443" /><path
       d="m 210,562.8 32,0 0,32 -32,0 0,-32 z"
       style="fill:#a2846c;fill-opacity:1;fill-rule:nonzero;stroke:none"
       id="path4467" /><path
       d="m 242,562.8 32,0 0,32 -32,0 0,-32 z"
       style="fill:#000000;fill-opacity:1;fill-rule:nonzero;stroke:none"
       id="path4491" /><path
       id="path6814"
       style="font-size:24px;font-variant:normal;font-weight:normal;writing-mode:lr-tb;fill:#a2846c;fill-opacity:1;fill-rule:nonzero;stroke:none;font-family:DejaVuSansMono;-inkscape-font-specification:DejaVuSansMono"
       d="m 252.28828,570.8703 c -0.0703,0.35937 -0.10547,0.72266 -0.10546,1.08984 -1e-5,1.01563 0.26171,1.98828 0.78515,2.91797 0.52344,0.92969 1.25,1.64453 2.17969,2.14453 0.24218,0.13281 0.48828,0.24609 0.73828,0.33985 -0.1875,0.18749 -0.34766,0.39843 -0.48047,0.63281 -0.26563,0.47656 -0.39844,0.97655 -0.39844,1.5 0,0.53124 0.13281,1.03515 0.39844,1.51172 0.27343,0.47655 0.65234,0.84764 1.13672,1.11328 0.17187,0.0937 0.35156,0.17186 0.53906,0.23438 -0.16407,0.11717 -0.29688,0.26951 -0.39843,0.45703 -0.14064,0.24217 -0.21095,0.49608 -0.21094,0.76172 -10e-6,0.27342 0.0664,0.53123 0.19922,0.77343 0.14062,0.24218 0.33593,0.42968 0.58593,0.5625 0.25,0.1328 0.5039,0.19921 0.76172,0.19922 0.25781,-10e-6 0.50781,-0.0664 0.75,-0.19922 0.24999,-0.13282 0.44531,-0.32032 0.58594,-0.5625 0.14843,-0.2422 0.22265,-0.50001 0.22266,-0.77343 -1e-5,-0.26564 -0.0703,-0.51955 -0.21094,-0.76172 -0.10157,-0.18752 -0.23438,-0.34377 -0.39844,-0.46875 0.17187,-0.0547 0.35546,-0.12892 0.55078,-0.22266 0.47656,-0.26564 0.84765,-0.63673 1.11328,-1.11328 0.27343,-0.47657 0.41015,-0.98048 0.41016,-1.51172 -1e-5,-0.52345 -0.12892,-1.02344 -0.38672,-1.5 -0.14063,-0.23438 -0.3047,-0.44532 -0.49219,-0.63281 0.24218,-0.10157 0.48437,-0.21485 0.72657,-0.33985 0.92967,-0.5 1.65624,-1.21484 2.17968,-2.14453 0.53124,-0.92969 0.79687,-1.90234 0.79688,-2.91797 -10e-6,-0.36718 -0.0391,-0.73047 -0.11719,-1.08984 l -11.46094,0" /><path
       d="m 274,562.8 32,0 0,32 -32,0 0,-32 z"
       style="fill:#a2846c;fill-opacity:1;fill-rule:nonzero;stroke:none"
       id="path4515" /><path
       id="path6817"
       style="font-size:24px;font-variant:normal;font-weight:normal;writing-mode:lr-tb;fill:#000000;fill-opacity:1;fill-rule:nonzero;stroke:none;font-family:DejaVuSansMono;-inkscape-font-specification:DejaVuSansMono"
       d="m 284.28827,570.8703 c -0.0703,0.35937 -0.10547,0.72266 -0.10547,1.08984 0,1.01563 0.26172,1.98828 0.78516,2.91797 0.52343,0.92969 1.24999,1.64453 2.17968,2.14453 0.24219,0.13281 0.48828,0.24609 0.73829,0.33985 -0.18751,0.18749 -0.34767,0.39843 -0.48047,0.63281 -0.26563,0.47656 -0.39845,0.97655 -0.39844,1.5 -1e-5,0.53124 0.13281,1.03515 0.39844,1.51172 0.27343,0.47655 0.65234,0.84764 1.13672,1.11328 0.17186,0.0937 0.35155,0.17186 0.53906,0.23438 -0.16407,0.11717 -0.29688,0.26951 -0.39844,0.45703 -0.14063,0.24217 -0.21094,0.49608 -0.21094,0.76172 0,0.27342 0.0664,0.53123 0.19922,0.77343 0.14062,0.24218 0.33593,0.42968 0.58594,0.5625 0.24999,0.1328 0.5039,0.19921 0.76172,0.19922 0.2578,-10e-6 0.5078,-0.0664 0.75,-0.19922 0.24999,-0.13282 0.4453,-0.32032 0.58594,-0.5625 0.14842,-0.2422 0.22264,-0.50001 0.22265,-0.77343 -1e-5,-0.26564 -0.0703,-0.51955 -0.21094,-0.76172 -0.10157,-0.18752 -0.23438,-0.34377 -0.39843,-0.46875 0.17186,-0.0547 0.35546,-0.12892 0.55078,-0.22266 0.47655,-0.26564 0.84764,-0.63673 1.11328,-1.11328 0.27343,-0.47657 0.41015,-0.98048 0.41016,-1.51172 -10e-6,-0.52345 -0.12892,-1.02344 -0.38672,-1.5 -0.14064,-0.23438 -0.3047,-0.44532 -0.49219,-0.63281 0.24218,-0.10157 0.48436,-0.21485 0.72656,-0.33985 0.92968,-0.5 1.65624,-1.21484 2.17969,-2.14453 0.53124,-0.92969 0.79686,-1.90234 0.79687,-2.91797 -1e-5,-0.36718 -0.0391,-0.73047 -0.11718,-1.08984 l -11.46094,0" /><path
       d="m 306,562.8 32,0 0,32 -32,0 0,-32 z"
       style="fill:#000000;fill-opacity:1;fill-rule:nonzero;stroke:none"
       id="path4539" /><path
       d="m 338,562.8 32,0 0,32 -32,0 0,-32 z"
       style="fill:#a2846c;fill-opacity:1;fill-rule:nonzero;stroke:none"
       id="path4563" /><path
       d="m 370,562.8 32,0 0,32 -32,0 0,-32 z"
       style="fill:#000000;fill-opacity:1;fill-rule:nonzero;stroke:none"
       id="path4587" /><path
       d="m 402,562.8 32,0 0,32 -32,0 0,-32 z"
       style="fill:#a2846c;fill-opacity:1;fill-rule:nonzero;stroke:none"
       id="path4611" /><path
       d="m 178,530.8 32,0 0,32 -32,0 0,-32 z"
       style="fill:#a2846c;fill-opacity:1;fill-rule:nonzero;stroke:none"
       id="path4635" /><path
       d="m 210,530.8 32,0 0,32 -32,0 0,-32 z"
       style="fill:#000000;fill-opacity:1;fill-rule:nonzero;stroke:none"
       id="path4659" /><path
       d="m 242,530.8 32,0 0,32 -32,0 0,-32 z"
       style="fill:#a2846c;fill-opacity:1;fill-rule:nonzero;stroke:none"
       id="path4683" /><path
       d="m 274,530.8 32,0 0,32 -32,0 0,-32 z"
       style="fill:#000000;fill-opacity:1;fill-rule:nonzero;stroke:none"
       id="path4707" /><path
       d="m 306,530.8 32,0 0,32 -32,0 0,-32 z"
       style="fill:#a2846c;fill-opacity:1;fill-rule:nonzero;stroke:none"
       id="path4731" /><path
       d="m 338,530.8 32,0 0,32 -32,0 0,-32 z"
       style="fill:#000000;fill-opacity:1;fill-rule:nonzero;stroke:none"
       id="path4755" /><path
       d="m 370,530.8 32,0 0,32 -32,0 0,-32 z"
       style="fill:#a2846c;fill-opacity:1;fill-rule:nonzero;stroke:none"
       id="path4779" /><path
       d="m 402,530.8 32,0 0,32 -32,0 0,-32 z"
       style="fill:#000000;fill-opacity:1;fill-rule:nonzero;stroke:none"
       id="path4803" /><path
       id="path6820"
       style="font-size:24px;font-variant:normal;font-weight:normal;writing-mode:lr-tb;fill:#a2846c;fill-opacity:1;fill-rule:nonzero;stroke:none;font-family:DejaVuSansMono;-inkscape-font-specification:DejaVuSansMono"
       d="m 412.28827,538.8703 c -0.0703,0.35937 -0.10547,0.72266 -0.10547,1.08984 0,1.01563 0.26172,1.98828 0.78516,2.91797 0.52343,0.92969 1.24999,1.64453 2.17968,2.14453 0.24219,0.13281 0.48828,0.24609 0.73829,0.33985 -0.18751,0.18749 -0.34767,0.39843 -0.48047,0.63281 -0.26563,0.47656 -0.39845,0.97655 -0.39844,1.5 -1e-5,0.53124 0.13281,1.03515 0.39844,1.51172 0.27343,0.47655 0.65234,0.84764 1.13672,1.11328 0.17186,0.0937 0.35155,0.17186 0.53906,0.23438 -0.16407,0.11717 -0.29688,0.26951 -0.39844,0.45703 -0.14063,0.24217 -0.21094,0.49608 -0.21094,0.76172 0,0.27342 0.0664,0.53123 0.19922,0.77343 0.14062,0.24218 0.33593,0.42968 0.58594,0.5625 0.24999,0.1328 0.5039,0.19921 0.76172,0.19922 0.2578,-10e-6 0.5078,-0.0664 0.75,-0.19922 0.24999,-0.13282 0.4453,-0.32032 0.58594,-0.5625 0.14842,-0.2422 0.22264,-0.50001 0.22265,-0.77343 -1e-5,-0.26564 -0.0703,-0.51955 -0.21094,-0.76172 -0.10157,-0.18752 -0.23438,-0.34377 -0.39843,-0.46875 0.17186,-0.0547 0.35546,-0.12892 0.55078,-0.22266 0.47655,-0.26564 0.84764,-0.63673 1.11328,-1.11328 0.27343,-0.47657 0.41015,-0.98048 0.41016,-1.51172 -10e-6,-0.52345 -0.12892,-1.02344 -0.38672,-1.5 -0.14064,-0.23438 -0.3047,-0.44532 -0.49219,-0.63281 0.24218,-0.10157 0.48436,-0.21485 0.72656,-0.33985 0.92968,-0.5 1.65624,-1.21484 2.17969,-2.14453 0.53124,-0.92969 0.79686,-1.90234 0.79687,-2.91797 -1e-5,-0.36718 -0.0391,-0.73047 -0.11718,-1.08984 l -11.46094,0" /><path
       d="m 178,498.8 32,0 0,32 -32,0 0,-32 z"
       style="fill:#000000;fill-opacity:1;fill-rule:nonzero;stroke:none"
       id="path4827" /><path
       d="m 210,498.8 32,0 0,32 -32,0 0,-32 z"
       style="fill:#a2846c;fill-opacity:1;fill-rule:nonzero;stroke:none"
       id="path4851" /><path
       d="m 242,498.8 32,0 0,32 -32,0 0,-32 z"
       style="fill:#000000;fill-opacity:1;fill-rule:nonzero;stroke:none"
       id="path4875" /><path
       d="m 274,498.8 32,0 0,32 -32,0 0,-32 z"
       style="fill:#a2846c;fill-opacity:1;fill-rule:nonzero;stroke:none"
       id="path4899" /><path
       d="m 306,498.8 32,0 0,32 -32,0 0,-32 z"
       style="fill:#000000;fill-opacity:1;fill-rule:nonzero;stroke:none"
       id="path4923" /><path
       id="path6811"
       style="font-size:24px;font-variant:normal;font-weight:normal;writing-mode:lr-tb;fill:#a2846c;fill-opacity:1;fill-rule:nonzero;stroke:none;font-family:DejaVuSansMono;-inkscape-font-specification:DejaVuSansMono"
       d="m 316.28827,506.8703 c -0.0703,0.35937 -0.10547,0.72266 -0.10547,1.08984 0,1.01563 0.26172,1.98828 0.78516,2.91797 0.52343,0.92969 1.24999,1.64453 2.17968,2.14453 0.24219,0.13281 0.48828,0.24609 0.73829,0.33985 -0.18751,0.18749 -0.34767,0.39843 -0.48047,0.63281 -0.26563,0.47656 -0.39845,0.97655 -0.39844,1.5 -1e-5,0.53124 0.13281,1.03515 0.39844,1.51172 0.27343,0.47655 0.65234,0.84764 1.13672,1.11328 0.17186,0.0937 0.35155,0.17186 0.53906,0.23438 -0.16407,0.11717 -0.29688,0.26951 -0.39844,0.45703 -0.14063,0.24217 -0.21094,0.49608 -0.21094,0.76172 0,0.27342 0.0664,0.53123 0.19922,0.77343 0.14062,0.24218 0.33593,0.42968 0.58594,0.5625 0.24999,0.1328 0.5039,0.19921 0.76172,0.19922 0.2578,-10e-6 0.5078,-0.0664 0.75,-0.19922 0.24999,-0.13282 0.4453,-0.32032 0.58594,-0.5625 0.14842,-0.2422 0.22264,-0.50001 0.22265,-0.77343 -1e-5,-0.26564 -0.0703,-0.51955 -0.21094,-0.76172 -0.10157,-0.18752 -0.23438,-0.34377 -0.39843,-0.46875 0.17186,-0.0547 0.35546,-0.12892 0.55078,-0.22266 0.47655,-0.26564 0.84764,-0.63673 1.11328,-1.11328 0.27343,-0.47657 0.41015,-0.98048 0.41016,-1.51172 -10e-6,-0.52345 -0.12892,-1.02344 -0.38672,-1.5 -0.14064,-0.23438 -0.3047,-0.44532 -0.49219,-0.63281 0.24218,-0.10157 0.48436,-0.21485 0.72656,-0.33985 0.92968,-0.5 1.65624,-1.21484 2.17969,-2.14453 0.53124,-0.92969 0.79686,-1.90234 0.79687,-2.91797 -1e-5,-0.36718 -0.0391,-0.73047 -0.11718,-1.08984 l -11.46094,0" /><path
       d="m 338,498.8 32,0 0,32 -32,0 0,-32 z"
       style="fill:#a2846c;fill-opacity:1;fill-rule:nonzero;stroke:none"
       id="path4947" /><path
       d="m 370,498.8 32,0 0,32 -32,0 0,-32 z"
       style="fill:#000000;fill-opacity:1;fill-rule:nonzero;stroke:none"
       id="path4971" /><path
       d="m 402,498.8 32,0 0,32 -32,0 0,-32 z"
       style="fill:#a2846c;fill-opacity:1;fill-rule:nonzero;stroke:none"
       id="path4995" /><path
       id="path6808"
       style="font-size:24px;font-variant:normal;font-weight:normal;writing-mode:lr-tb;fill:#000000;fill-opacity:1;fill-rule:nonzero;stroke:none;font-family:DejaVuSansMono;-inkscape-font-specification:DejaVuSansMono"
       d="m 412.28827,506.8703 c -0.0703,0.35937 -0.10547,0.72266 -0.10547,1.08984 0,1.01563 0.26172,1.98828 0.78516,2.91797 0.52343,0.92969 1.24999,1.64453 2.17968,2.14453 0.24219,0.13281 0.48828,0.24609 0.73829,0.33985 -0.18751,0.18749 -0.34767,0.39843 -0.48047,0.63281 -0.26563,0.47656 -0.39845,0.97655 -0.39844,1.5 -1e-5,0.53124 0.13281,1.03515 0.39844,1.51172 0.27343,0.47655 0.65234,0.84764 1.13672,1.11328 0.17186,0.0937 0.35155,0.17186 0.53906,0.23438 -0.16407,0.11717 -0.29688,0.26951 -0.39844,0.45703 -0.14063,0.24217 -0.21094,0.49608 -0.21094,0.76172 0,0.27342 0.0664,0.53123 0.19922,0.77343 0.14062,0.24218 0.33593,0.42968 0.58594,0.5625 0.24999,0.1328 0.5039,0.19921 0.76172,0.19922 0.2578,-10e-6 0.5078,-0.0664 0.75,-0.19922 0.24999,-0.13282 0.4453,-0.32032 0.58594,-0.5625 0.14842,-0.2422 0.22264,-0.50001 0.22265,-0.77343 -1e-5,-0.26564 -0.0703,-0.51955 -0.21094,-0.76172 -0.10157,-0.18752 -0.23438,-0.34377 -0.39843,-0.46875 0.17186,-0.0547 0.35546,-0.12892 0.55078,-0.22266 0.47655,-0.26564 0.84764,-0.63673 1.11328,-1.11328 0.27343,-0.47657 0.41015,-0.98048 0.41016,-1.51172 -10e-6,-0.52345 -0.12892,-1.02344 -0.38672,-1.5 -0.14064,-0.23438 -0.3047,-0.44532 -0.49219,-0.63281 0.24218,-0.10157 0.48436,-0.21485 0.72656,-0.33985 0.92968,-0.5 1.65624,-1.21484 2.17969,-2.14453 0.53124,-0.92969 0.79686,-1.90234 0.79687,-2.91797 -1e-5,-0.36718 -0.0391,-0.73047 -0.11718,-1.08984 l -11.46094,0" /><path
       d="m 178,466.8 32,0 0,32 -32,0 0,-32 z"
       style="fill:#a2846c;fill-opacity:1;fill-rule:nonzero;stroke:none"
       id="path5019" /><path
       d="m 210,466.8 32,0 0,32 -32,0 0,-32 z"
       style="fill:#000000;fill-opacity:1;fill-rule:nonzero;stroke:none"
       id="path5043" /><path
       d="m 242,466.8 32,0 0,32 -32,0 0,-32 z"
       style="fill:#a2846c;fill-opacity:1;fill-rule:nonzero;stroke:none"
       id="path5067" /><path
       d="m 274,466.8 32,0 0,32 -32,0 0,-32 z"
       style="fill:#000000;fill-opacity:1;fill-rule:nonzero;stroke:none"
       id="path5091" /><path
       d="m 306,466.8 32,0 0,32 -32,0 0,-32 z"
       style="fill:#a2846c;fill-opacity:1;fill-rule:nonzero;stroke:none"
       id="path5115" /><path
       d="m 338,466.8 32,0 0,32 -32,0 0,-32 z"
       style="fill:#000000;fill-opacity:1;fill-rule:nonzero;stroke:none"
       id="path5139" /><path
       d="m 370,466.8 32,0 0,32 -32,0 0,-32 z"
       style="fill:#a2846c;fill-opacity:1;fill-rule:nonzero;stroke:none"
       id="path5163" /><path
       d="m 402,466.8 32,0 0,32 -32,0 0,-32 z"
       style="fill:#000000;fill-opacity:1;fill-rule:nonzero;stroke:none"
       id="path5187" /><path
       d="m 178,434.8 32,0 0,32 -32,0 0,-32 z"
       style="fill:#000000;fill-opacity:1;fill-rule:nonzero;stroke:none"
       id="path5211" /><path
       d="m 210,434.8 32,0 0,32 -32,0 0,-32 z"
       style="fill:#a2846c;fill-opacity:1;fill-rule:nonzero;stroke:none"
       id="path5235" /><path
       id="path6802"
       style="font-size:24px;font-variant:normal;font-weight:normal;writing-mode:lr-tb;fill:#000000;fill-opacity:1;fill-rule:nonzero;stroke:none;font-family:DejaVuSansMono;-inkscape-font-specification:DejaVuSansMono"
       d="m 220.28828,442.8703 c -0.0703,0.35937 -0.10547,0.72266 -0.10546,1.08984 -1e-5,1.01563 0.26171,1.98828 0.78515,2.91797 0.52344,0.92969 1.25,1.64453 2.17969,2.14453 0.24218,0.13281 0.48828,0.24609 0.73828,0.33985 -0.1875,0.18749 -0.34766,0.39843 -0.48047,0.63281 -0.26563,0.47656 -0.39844,0.97655 -0.39844,1.5 0,0.53124 0.13281,1.03515 0.39844,1.51172 0.27343,0.47655 0.65234,0.84764 1.13672,1.11328 0.17187,0.0937 0.35156,0.17186 0.53906,0.23438 -0.16407,0.11717 -0.29688,0.26951 -0.39843,0.45703 -0.14064,0.24217 -0.21095,0.49608 -0.21094,0.76172 -1e-5,0.27342 0.0664,0.53123 0.19922,0.77343 0.14062,0.24218 0.33593,0.42968 0.58593,0.5625 0.25,0.1328 0.5039,0.19921 0.76172,0.19922 0.25781,-1e-5 0.50781,-0.0664 0.75,-0.19922 0.24999,-0.13282 0.44531,-0.32032 0.58594,-0.5625 0.14843,-0.2422 0.22265,-0.50001 0.22266,-0.77343 -1e-5,-0.26564 -0.0703,-0.51955 -0.21094,-0.76172 -0.10157,-0.18752 -0.23438,-0.34377 -0.39844,-0.46875 0.17187,-0.0547 0.35546,-0.12892 0.55078,-0.22266 0.47656,-0.26564 0.84765,-0.63673 1.11328,-1.11328 0.27343,-0.47657 0.41015,-0.98048 0.41016,-1.51172 -1e-5,-0.52345 -0.12892,-1.02344 -0.38672,-1.5 -0.14063,-0.23438 -0.3047,-0.44532 -0.49219,-0.63281 0.24218,-0.10157 0.48437,-0.21485 0.72657,-0.33985 0.92967,-0.5 1.65624,-1.21484 2.17968,-2.14453 0.53124,-0.92969 0.79687,-1.90234 0.79688,-2.91797 -1e-5,-0.36718 -0.0391,-0.73047 -0.11719,-1.08984 l -11.46094,0" /><path
       d="m 242,434.8 32,0 0,32 -32,0 0,-32 z"
       style="fill:#000000;fill-opacity:1;fill-rule:nonzero;stroke:none"
       id="path5259" /><path
       d="m 274,434.8 32,0 0,32 -32,0 0,-32 z"
       style="fill:#a2846c;fill-opacity:1;fill-rule:nonzero;stroke:none"
       id="path5283" /><path
       d="m 306,434.8 32,0 0,32 -32,0 0,-32 z"
       style="fill:#000000;fill-opacity:1;fill-rule:nonzero;stroke:none"
       id="path5307" /><path
       id="path6805"
       style="font-size:24px;font-variant:normal;font-weight:normal;writing-mode:lr-tb;fill:#a2846c;fill-opacity:1;fill-rule:nonzero;stroke:none;font-family:DejaVuSansMono;-inkscape-font-specification:DejaVuSansMono"
       d="m 316.28827,442.8703 c -0.0703,0.35937 -0.10547,0.72266 -0.10547,1.08984 0,1.01563 0.26172,1.98828 0.78516,2.91797 0.52343,0.92969 1.24999,1.64453 2.17968,2.14453 0.24219,0.13281 0.48828,0.24609 0.73829,0.33985 -0.18751,0.18749 -0.34767,0.39843 -0.48047,0.63281 -0.26563,0.47656 -0.39845,0.97655 -0.39844,1.5 -1e-5,0.53124 0.13281,1.03515 0.39844,1.51172 0.27343,0.47655 0.65234,0.84764 1.13672,1.11328 0.17186,0.0937 0.35155,0.17186 0.53906,0.23438 -0.16407,0.11717 -0.29688,0.26951 -0.39844,0.45703 -0.14063,0.24217 -0.21094,0.49608 -0.21094,0.76172 0,0.27342 0.0664,0.53123 0.19922,0.77343 0.14062,0.24218 0.33593,0.42968 0.58594,0.5625 0.24999,0.1328 0.5039,0.19921 0.76172,0.19922 0.2578,-1e-5 0.5078,-0.0664 0.75,-0.19922 0.24999,-0.13282 0.4453,-0.32032 0.58594,-0.5625 0.14842,-0.2422 0.22264,-0.50001 0.22265,-0.77343 -1e-5,-0.26564 -0.0703,-0.51955 -0.21094,-0.76172 -0.10157,-0.18752 -0.23438,-0.34377 -0.39843,-0.46875 0.17186,-0.0547 0.35546,-0.12892 0.55078,-0.22266 0.47655,-0.26564 0.84764,-0.63673 1.11328,-1.11328 0.27343,-0.47657 0.41015,-0.98048 0.41016,-1.51172 -10e-6,-0.52345 -0.12892,-1.02344 -0.38672,-1.5 -0.14064,-0.23438 -0.3047,-0.44532 -0.49219,-0.63281 0.24218,-0.10157 0.48436,-0.21485 0.72656,-0.33985 0.92968,-0.5 1.65624,-1.21484 2.17969,-2.14453 0.53124,-0.92969 0.79686,-1.90234 0.79687,-2.91797 -1e-5,-0.36718 -0.0391,-0.73047 -0.11718,-1.08984 l -11.46094,0" /><path
       d="m 338,434.8 32,0 0,32 -32,0 0,-32 z"
       style="fill:#a2846c;fill-opacity:1;fill-rule:nonzero;stroke:none"
       id="path5331" /><path
       d="m 370,434.8 32,0 0,32 -32,0 0,-32 z"
       style="fill:#000000;fill-opacity:1;fill-rule:nonzero;stroke:none"
       id="path5355" /><path
       d="m 402,434.8 32,0 0,32 -32,0 0,-32 z"
       style="fill:#a2846c;fill-opacity:1;fill-rule:nonzero;stroke:none"
       id="path5379" /><path
       d="m 178,402.8 32,0 0,32 -32,0 0,-32 z"
       style="fill:#a2846c;fill-opacity:1;fill-rule:nonzero;stroke:none"
       id="path5403" /><path
       d="m 210,402.8 32,0 0,32 -32,0 0,-32 z"
       style="fill:#000000;fill-opacity:1;fill-rule:nonzero;stroke:none"
       id="path5427" /><path
       d="m 242,402.8 32,0 0,32 -32,0 0,-32 z"
       style="fill:#a2846c;fill-opacity:1;fill-rule:nonzero;stroke:none"
       id="path5451" /><path
       d="m 274,402.8 32,0 0,32 -32,0 0,-32 z"
       style="fill:#000000;fill-opacity:1;fill-rule:nonzero;stroke:none"
       id="path5475" /><path
       d="m 306,402.8 32,0 0,32 -32,0 0,-32 z"
       style="fill:#a2846c;fill-opacity:1;fill-rule:nonzero;stroke:none"
       id="path5499" /><path
       d="m 338,402.8 32,0 0,32 -32,0 0,-32 z"
       style="fill:#000000;fill-opacity:1;fill-rule:nonzero;stroke:none"
       id="path5523" /><path
       d="m 370,402.8 32,0 0,32 -32,0 0,-32 z"
       style="fill:#a2846c;fill-opacity:1;fill-rule:nonzero;stroke:none"
       id="path5547" /><path
       d="m 402,402.8 32,0 0,32 -32,0 0,-32 z"
       style="fill:#000000;fill-opacity:1;fill-rule:nonzero;stroke:none"
       id="path5571" /><path
       d="m 178,370.8 32,0 0,32 -32,0 0,-32 z"
       style="fill:#000000;fill-opacity:1;fill-rule:nonzero;stroke:none"
       id="path5595" /><path
       d="m 210,370.8 32,0 0,32 -32,0 0,-32 z"
       style="fill:#a2846c;fill-opacity:1;fill-rule:nonzero;stroke:none"
       id="path5619" /><path
       d="m 242,370.8 32,0 0,32 -32,0 0,-32 z"
       style="fill:#000000;fill-opacity:1;fill-rule:nonzero;stroke:none"
       id="path5643" /><path
       d="m 274,370.8 32,0 0,32 -32,0 0,-32 z"
       style="fill:#a2846c;fill-opacity:1;fill-rule:nonzero;stroke:none"
       id="path5667" /><path
       d="m 306,370.8 32,0 0,32 -32,0 0,-32 z"
       style="fill:#000000;fill-opacity:1;fill-rule:nonzero;stroke:none"
       id="path5691" /><path
       d="m 338,370.8 32,0 0,32 -32,0 0,-32 z"
       style="fill:#a2846c;fill-opacity:1;fill-rule:nonzero;stroke:none"
       id="path5715" /><path
       d="m 370,370.8 32,0 0,32 -32,0 0,-32 z"
       style="fill:#000000;fill-opacity:1;fill-rule:nonzero;stroke:none"
       id="path5739" /><path
       d="m 402,370.8 32,0 0,32 -32,0 0,-32 z"
       style="fill:#a2846c;fill-opacity:1;fill-rule:nonzero;stroke:none"
       id="path5763" /></g></svg>