<?xml version="1.0" encoding="UTF-8" standalone="no"?>
<!-- Created with Inkscape (http://www.inkscape.org/) -->

<svg
   xmlns:dc="http://purl.org/dc/elements/1.1/"
   xmlns:cc="http://creativecommons.org/ns#"
   xmlns:rdf="http://www.w3.org/1999/02/22-rdf-syntax-ns#"
   xmlns:svg="http://www.w3.org/2000/svg"
   xmlns="http://www.w3.org/2000/svg"
   xmlns:sodipodi="http://sodipodi.sourceforge.net/DTD/sodipodi-0.dtd"
   xmlns:inkscape="http://www.inkscape.org/namespaces/inkscape"
   id="svg7059"
   version="1.1"
   inkscape:version="0.47 r22583"
   width="421"
   height="221.64803"
   xml:space="preserve"
   sodipodi:docname="matching-raw.pdf"><metadata
     id="metadata7065"><rdf:RDF><cc:Work
         rdf:about=""><dc:format>image/svg+xml</dc:format><dc:type
           rdf:resource="http://purl.org/dc/dcmitype/StillImage" /><dc:title></dc:title></cc:Work></rdf:RDF></metadata><defs
     id="defs7063" /><sodipodi:namedview
     pagecolor="#ffffff"
     bordercolor="#666666"
     borderopacity="1"
     objecttolerance="10"
     gridtolerance="10"
     guidetolerance="10"
     inkscape:pageopacity="0"
     inkscape:pageshadow="2"
     inkscape:window-width="1252"
     inkscape:window-height="1147"
     id="namedview7061"
     showgrid="false"
     inkscape:zoom="1.2248411"
     inkscape:cx="174.26701"
     inkscape:cy="55.171548"
     inkscape:window-x="0"
     inkscape:window-y="0"
     inkscape:window-maximized="0"
     inkscape:current-layer="g7069" /><g
     id="g7069"
     inkscape:groupmode="layer"
     inkscape:label="matching-raw"
     transform="matrix(1.25,0,0,-1.25,-179.5,827.14803)"><text
       id="text7673"
       transform="scale(1,-1)"
       x="144.01855"
       y="-652.40002"
       style="font-size:9.60000038px"><tspan
         id="tspan7675"
         sodipodi:role="line"
         y="-652.40002"
         x="144.01855 151.8624 159.312 165.61856 168.81856 172.54335 178.94336 183.99936 191.11871 197.61856 200.81856 204.54335 215.8432 222.24319 229.36256 236.01855 239.21855 246.20607 254.41856 257.61856 261.79391 269.2435 276.01855 279.21854 282.94336 289.07455 293.33694 297.61853 300.81854 311.49374 317.89374 324.01855 327.21854 333.61853 339.04318 344.46783 350.599 361.89886 368.97983 372.70462 378.83582 387.21729 390.41727 394.67966 399.73566 406.72318 418.41727 421.61728 425.7926 436.46783 444.01727 447.21729 454.20477 459.21729 462.41727 466.59262 474.04224"
         style="font-size:12.80000019px;font-variant:normal;font-weight:normal;writing-mode:lr-tb;fill:#1d1916;fill-opacity:1;fill-rule:nonzero;stroke:none;font-family:Palatino;-inkscape-font-specification:Palatino-Roman">The large image on the left was assembled from two of the</tspan></text>
<text
       id="text7679"
       transform="scale(1,-1)"
       x="144.01855"
       y="-634"
       style="font-size:9.60000038px"><tspan
         id="tspan7681"
         sodipodi:role="line"
         y="-634"
         x="144.01855 149.44319 160.74304 167.14304 170.86784 175.21729"
         style="font-size:12.80000019px;font-variant:normal;font-weight:normal;writing-mode:lr-tb;fill:#1d1916;fill-opacity:1;fill-rule:nonzero;stroke:none;font-family:Palatino;-inkscape-font-specification:Palatino-Roman">small </tspan></text>
<text
       id="text7685"
       transform="scale(1,-1)"
       x="178.41856"
       y="-634"
       style="font-size:9.60000038px"><tspan
         id="tspan7687"
         sodipodi:role="line"
         y="-634"
         x="178.41856 182.14336 193.44319 199.8432 206.96255 213.09377 219.21855 222.41856 229.40608 237.61856 240.81856 244.99391 252.44351 259.21854 262.41855 267.47455 271.19934 278.3187 285.76831 289.94366 293.61853 296.81854 303.80606 311.25568 317.61853 320.81854 325.08093 330.13693 337.12445 348.81854 352.01855 356.19391 363.64349 370.41855 373.61853 377.88095 381.60574 386.66174 392.0864 396.81726 400.01727 405.07324 412.06079 423.21729 426.41727 432.81726 440.26685 448.81726 452.01727 459.00476 466.45438"
         style="font-size:12.80000019px;font-variant:normal;font-weight:normal;writing-mode:lr-tb;fill:#1d1916;fill-opacity:1;fill-rule:nonzero;stroke:none;font-family:Palatino;-inkscape-font-specification:Palatino-Roman">images on the right: one from the first row and one</tspan></text>
<text
       id="text7691"
       transform="scale(1,-1)"
       x="144.01855"
       y="-615.59998"
       style="font-size:9.60000038px"><tspan
         id="tspan7693"
         sodipodi:role="line"
         y="-615.59998"
         x="144.01855 148.28096 153.33696 160.32448 172.01855 175.21855 179.39392 186.84352 193.61856"
         style="font-size:12.80000019px;font-variant:normal;font-weight:normal;writing-mode:lr-tb;fill:#1d1916;fill-opacity:1;fill-rule:nonzero;stroke:none;font-family:Palatino;-inkscape-font-specification:Palatino-Roman">from the </tspan></text>
<text
       id="text7697"
       transform="scale(1,-1)"
       x="196.81856"
       y="-615.59998"
       style="font-size:9.60000038px"><tspan
         id="tspan7699"
         sodipodi:role="line"
         y="-615.59998"
         x="196.81856 202.24319 208.3744 214.05504 221.04256 228.49216 236.31039 240.01727"
         style="font-size:12.80000019px;font-variant:normal;font-weight:normal;writing-mode:lr-tb;fill:#1d1916;fill-opacity:1;fill-rule:nonzero;stroke:none;font-family:Palatino;-inkscape-font-specification:Palatino-Roman">second. </tspan></text>
<text
       id="text7703"
       transform="scale(1,-1)"
       x="243.21855"
       y="-615.59998"
       style="font-size:9.60000038px"><tspan
         id="tspan7705"
         sodipodi:role="line"
         y="-615.59998"
         x="243.21855 250.94975 254.67456 260.80576 267.20575 272.63037 279.21725 282.41727 288.0979 291.82269 295.54752 301.22815 308.81598 312.01599 319.00351 327.21597 330.41599 334.59134 342.04095 348.81598 352.01599 356.19135 366.86655 374.41599 377.61597 383.04062 394.34045 400.74048 404.46527 408.8147 412.01471 415.7395 427.03934 433.43933 440.55872 446.68991 452.8147 456.01471 460.19006 467.63965 474.03967"
         style="font-size:12.80000019px;font-variant:normal;font-weight:normal;writing-mode:lr-tb;fill:#1d1916;fill-opacity:1;fill-rule:nonzero;stroke:none;font-family:Palatino;-inkscape-font-specification:Palatino-Roman">Please click on the two small images that</tspan></text>
<text
       id="text7709"
       transform="scale(1,-1)"
       x="144.01855"
       y="-597.20001"
       style="font-size:9.60000038px"><tspan
         id="tspan7711"
         sodipodi:role="line"
         y="-597.20001"
         x="144.01855 155.31841 161.7184 168.83775 175.21855 178.41856 186.13696 194.41856 197.61856 201.79391 209.24352 216.01855"
         style="font-size:12.80000019px;font-variant:normal;font-weight:normal;writing-mode:lr-tb;fill:#1d1916;fill-opacity:1;fill-rule:nonzero;stroke:none;font-family:Palatino;-inkscape-font-specification:Palatino-Roman">make up the </tspan></text>
<text
       id="text7715"
       transform="scale(1,-1)"
       x="219.21855"
       y="-597.20001"
       style="font-size:9.60000038px"><tspan
         id="tspan7717"
         sodipodi:role="line"
         y="-597.20001"
         x="219.21855 222.94336 229.34335 234.39935 241.51872 248.01855 251.21855 258.20609 265.65567 271.78687"
         style="font-size:12.80000019px;font-variant:normal;font-weight:normal;writing-mode:lr-tb;fill:#1d1916;fill-opacity:1;fill-rule:nonzero;stroke:none;font-family:Palatino;-inkscape-font-specification:Palatino-Roman">large one.</tspan></text>
<path
       style="fill:#d2b48c;fill-opacity:1;fill-rule:nonzero;stroke:none"
       d="m 143.6,568.4 c 0,-26.13334 0,-52.26666 0,-78.4 26.13334,0 52.26666,0 78.4,0 0,26.13334 0,52.26666 0,78.4 -26.13334,0 -52.26666,0 -78.4,0 z m 3.2,-3.2 c 24,0 48,0 72,0 0,-24 0,-48 0,-72 -24,0 -48,0 -72,0 0,24 0,48 0,72 z"
       id="path7837" /><path
       d="m 182.8,529.2 18,0 0,-18 -18,0 0,18 z m -18,18 18,0 0,-18 -18,0 0,18 z"
       style="fill:#000000;fill-opacity:1;fill-rule:nonzero;stroke:none"
       id="path7855" /><path
       d="m 164.8,529.2 18,0 0,-18 -18,0 0,18 z m 18,18 18,0 0,-18 -18,0 0,18 z"
       style="fill:#000000;fill-opacity:1;fill-rule:nonzero;stroke:none"
       id="path7857" /><path
       d="m 146.8,565.2 18,0 0,-54 -18,0 0,54 z m 54,-18 18,0 0,-54 -18,0 0,54 z"
       style="fill:#000000;fill-opacity:1;fill-rule:nonzero;stroke:none"
       id="path7861" /><path
       style="fill:#d2b48c;fill-opacity:1;fill-rule:nonzero;stroke:none"
       d="m 296.4,574 c 0,-14.13334 0,-28.26666 0,-42.4 14.13334,0 28.26666,0 42.4,0 0,14.13334 0,28.26666 0,42.4 -14.13334,0 -28.26666,0 -42.4,0 z m 3.2,-3.2 c 12,0 24,0 36,0 0,-12 0,-24 0,-36 -12,0 -24,0 -36,0 0,12 0,24 0,36 z"
       id="path7871" /><path
       style="fill:#d2b48c;fill-opacity:1;fill-rule:nonzero;stroke:none"
       d="m 343.6,574 c 0,-14.13334 0,-28.26666 0,-42.4 14.13334,0 28.26666,0 42.4,0 0,14.13334 0,28.26666 0,42.4 -14.13334,0 -28.26666,0 -42.4,0 z m 3.2,-3.2 c 12,0 24,0 36,0 0,-12 0,-24 0,-36 -12,0 -24,0 -36,0 0,12 0,24 0,36 z"
       id="path7905" /><path
       d="m 364.8,552.8 9,0 0,-9 -9,0 0,9 z m -9,9 9,0 0,-9 -9,0 0,9 z"
       style="fill:#000000;fill-opacity:1;fill-rule:nonzero;stroke:none"
       id="path7923" /><path
       style="fill:#d2b48c;fill-opacity:1;fill-rule:nonzero;stroke:none"
       d="m 390.8,574 c 0,-14.13334 0,-28.26666 0,-42.4 14.13334,0 28.26666,0 42.4,0 0,14.13334 0,28.26666 0,42.4 -14.13334,0 -28.26666,0 -42.4,0 z m 3.2,-3.2 c 12,0 24,0 36,0 0,-12 0,-24 0,-36 -12,0 -24,0 -36,0 0,12 0,24 0,36 z"
       id="path7939" /><path
       d="m 403,552.8 9,0 0,-9 -9,0 0,9 z m 9,9 9,0 0,-9 -9,0 0,9 z"
       style="fill:#000000;fill-opacity:1;fill-rule:nonzero;stroke:none"
       id="path7959" /><path
       style="fill:#d2b48c;fill-opacity:1;fill-rule:nonzero;stroke:none"
       d="m 438,574 c 0,-14.13334 0,-28.26666 0,-42.4 14.13334,0 28.26666,0 42.4,0 0,14.13334 0,28.26666 0,42.4 -14.13334,0 -28.26666,0 -42.4,0 z m 3.2,-3.2 c 12,0 24,0 36,0 0,-12 0,-24 0,-36 -12,0 -24,0 -36,0 0,12 0,24 0,36 z"
       id="path7973" /><path
       d="m 459.2,552.8 9,0 0,-9 -9,0 0,9 z m -9,9 9,0 0,-9 -9,0 0,9 z"
       style="fill:#000000;fill-opacity:1;fill-rule:nonzero;stroke:none"
       id="path7991" /><path
       d="m 450.2,552.8 9,0 0,-9 -9,0 0,9 z m 9,9 9,0 0,-9 -9,0 0,9 z"
       style="fill:#000000;fill-opacity:1;fill-rule:nonzero;stroke:none"
       id="path7993" /><path
       style="fill:#d2b48c;fill-opacity:1;fill-rule:nonzero;stroke:none"
       d="m 296.4,526.8 c 0,-14.13334 0,-28.26666 0,-42.4 14.13334,0 28.26666,0 42.4,0 0,14.13334 0,28.26666 0,42.4 -14.13334,0 -28.26666,0 -42.4,0 z m 3.2,-3.2 c 12,0 24,0 36,0 0,-12 0,-24 0,-36 -12,0 -24,0 -36,0 0,12 0,24 0,36 z"
       id="path8007" /><path
       style="fill:#d2b48c;fill-opacity:1;fill-rule:nonzero;stroke:none"
       d="m 343.6,526.8 c 0,-14.13334 0,-28.26666 0,-42.4 14.13334,0 28.26666,0 42.4,0 0,14.13334 0,28.26666 0,42.4 -14.13334,0 -28.26666,0 -42.4,0 z m 3.2,-3.2 c 12,0 24,0 36,0 0,-12 0,-24 0,-36 -12,0 -24,0 -36,0 0,12 0,24 0,36 z"
       id="path8041" /><path
       d="m 346.8,496.6 27,0 0,-9 -27,0 0,9 z m 9,27 27,0 0,-9 -27,0 0,9 z"
       style="fill:#000000;fill-opacity:1;fill-rule:nonzero;stroke:none"
       id="path8063" /><path
       style="fill:#d2b48c;fill-opacity:1;fill-rule:nonzero;stroke:none"
       d="m 390.8,526.8 c 0,-14.13334 0,-28.26666 0,-42.4 14.13334,0 28.26666,0 42.4,0 0,14.13334 0,28.26666 0,42.4 -14.13334,0 -28.26666,0 -42.4,0 z m 3.2,-3.2 c 12,0 24,0 36,0 0,-12 0,-24 0,-36 -12,0 -24,0 -36,0 0,12 0,24 0,36 z"
       id="path8075" /><path
       d="m 394,523.6 9,0 0,-27 -9,0 0,27 z m 27,-9 9,0 0,-27 -9,0 0,27 z"
       style="fill:#000000;fill-opacity:1;fill-rule:nonzero;stroke:none"
       id="path8099" /><path
       style="fill:#d2b48c;fill-opacity:1;fill-rule:nonzero;stroke:none"
       d="m 438,526.8 c 0,-14.13334 0,-28.26666 0,-42.4 14.13334,0 28.26666,0 42.4,0 0,14.13334 0,28.26666 0,42.4 -14.13334,0 -28.26666,0 -42.4,0 z m 3.2,-3.2 c 12,0 24,0 36,0 0,-12 0,-24 0,-36 -12,0 -24,0 -36,0 0,12 0,24 0,36 z"
       id="path8109" /><path
       d="m 441.2,487.6 36,0 0,36 -36,0 0,-36 z"
       style="fill:#ffffff;fill-opacity:1;fill-rule:nonzero;stroke:none"
       id="path8125" /><path
       d="m 441.2,496.6 27,0 0,-9 -27,0 0,9 z m 9,27 27,0 0,-9 -27,0 0,9 z"
       style="fill:#000000;fill-opacity:1;fill-rule:nonzero;stroke:none"
       id="path8131" /><path
       d="m 441.2,523.6 9,0 0,-27 -9,0 0,27 z m 27,-9 9,0 0,-27 -9,0 0,27 z"
       style="fill:#000000;fill-opacity:1;fill-rule:nonzero;stroke:none"
       id="path8133" /></g></svg>