<?xml version="1.0" encoding="UTF-8" standalone="no"?>
<!-- Created with Inkscape (http://www.inkscape.org/) -->

<svg
   xmlns:dc="http://purl.org/dc/elements/1.1/"
   xmlns:cc="http://creativecommons.org/ns#"
   xmlns:rdf="http://www.w3.org/1999/02/22-rdf-syntax-ns#"
   xmlns:svg="http://www.w3.org/2000/svg"
   xmlns="http://www.w3.org/2000/svg"
   xmlns:sodipodi="http://sodipodi.sourceforge.net/DTD/sodipodi-0.dtd"
   xmlns:inkscape="http://www.inkscape.org/namespaces/inkscape"
   id="svg3282"
   version="1.1"
   inkscape:version="0.48.3.1 r9886"
   width="643.80096"
   height="545.21045"
   xml:space="preserve"
   sodipodi:docname="architecture.svg"><metadata
     id="metadata3288"><rdf:RDF><cc:Work
         rdf:about=""><dc:format>image/svg+xml</dc:format><dc:type
           rdf:resource="http://purl.org/dc/dcmitype/StillImage" /><dc:title></dc:title></cc:Work></rdf:RDF></metadata><defs
     id="defs3286"><clipPath
       clipPathUnits="userSpaceOnUse"
       id="clipPath3298"><path
         d="M 0,0 642,0 642,545 0,545 0,0 z"
         id="path3300"
         inkscape:connector-curvature="0" /></clipPath><clipPath
       clipPathUnits="userSpaceOnUse"
       id="clipPath3308"><path
         d="m 0.3769291,0.7147217 640.9962009,0 0,543.3205983 -640.9962009,0 0,-543.3205983 z"
         id="path3310"
         inkscape:connector-curvature="0" /></clipPath></defs><sodipodi:namedview
     pagecolor="#ffffff"
     bordercolor="#666666"
     borderopacity="1"
     objecttolerance="10"
     gridtolerance="10"
     guidetolerance="10"
     inkscape:pageopacity="0"
     inkscape:pageshadow="2"
     inkscape:window-width="1233"
     inkscape:window-height="953"
     id="namedview3284"
     showgrid="false"
     inkscape:zoom="1"
     inkscape:cx="386.03369"
     inkscape:cy="237.66201"
     inkscape:window-x="0"
     inkscape:window-y="27"
     inkscape:window-maximized="0"
     inkscape:current-layer="g3290"
     fit-margin-top="0"
     fit-margin-left="0"
     fit-margin-right="0"
     fit-margin-bottom="0" /><g
     id="g3290"
     inkscape:groupmode="layer"
     inkscape:label="architecture"
     transform="matrix(1.25,0,0,-1.25,-1.9223674,658.48595)"><path
       inkscape:connector-curvature="0"
       id="path3314"
       style="fill:none;stroke:#cccccc;stroke-width:11.79266834;stroke-linecap:butt;stroke-linejoin:miter;stroke-miterlimit:10;stroke-opacity:1;stroke-dasharray:none"
       d="m 231.53682,457.02733 0.98313,-320.31239" /><path
       d="m 225.2113,470.01947 c -2.84426,5.20807 -5.24731,11.94588 -6.344,18.86583 -2.97981,4.61596 -7.55871,10.65712 -9.01209,14.31558 1.65602,2.5084 10.83636,8.08914 4.08498,11.7409 -2.20404,1.86366 -6.9055,-4.00828 -3.07766,-2.58002 -5.12305,-3.52186 -10.76159,-11.66169 -5.29388,-16.97891 2.97641,-5.15817 6.55301,-10.14955 6.93609,-16.23988 2.88228,-4.52853 0.86434,-14.12941 8.63716,-13.14082 1.79181,-0.54584 9.32049,3.76519 4.0694,4.01732 z m 14.74831,14.40923 c -1.58682,3.28911 -3.31235,3.21225 -7.52949,-0.33472 l -3.42473,-2.88091 -1.11284,4.29513 c -2.12823,8.21435 -1.99477,9.5589 1.18606,11.94749 l 3.01856,2.26669 3.97607,-2.45633 c 4.71866,-2.91522 5.08527,-3.65491 5.10174,-10.29132 0.0119,-4.46644 -0.13814,-4.77913 -1.21537,-2.54603 z m -0.11835,10.80083 c -6.92003,6.55899 -6.91495,6.55762 -11.39722,2.8642 -2.95688,-2.43631 -4.0815,-4.25758 -4.0815,-6.60847 0,-1.78511 0.44977,-3.52348 0.99957,-3.86296 0.54963,-0.33973 1.35245,-3.44193 1.78397,-6.89404 0.70392,-5.63135 1.21174,-6.54954 4.94302,-8.93611 3.0553,-1.95409 4.55364,-2.34105 5.64799,-1.4587 3.10317,2.50218 4.73601,7.65228 4.73601,14.93933 0,6.3406 -0.39576,7.83741 -2.63184,9.95675 z"
       style="fill:#000000;fill-opacity:1;fill-rule:nonzero;stroke:none"
       id="path3316"
       inkscape:connector-curvature="0" /><path
       inkscape:connector-curvature="0"
       id="path3320"
       style="fill:none;stroke:#999999;stroke-width:1.96541989;stroke-linecap:butt;stroke-linejoin:miter;stroke-miterlimit:10;stroke-opacity:1;stroke-dasharray:none"
       d="m 515.59583,437.37628 -123.84587,0 -52.09372,-17.68596 0,-282.97538 88.46123,0 0,35.37182 87.47836,0" /><path
       inkscape:connector-curvature="0"
       id="path3324"
       style="fill:none;stroke:#999999;stroke-width:1.96541989;stroke-linecap:butt;stroke-linejoin:miter;stroke-miterlimit:10;stroke-opacity:1;stroke-dasharray:none"
       d="m 2.5206039,525.80605 176.9225061,0 0.98287,-389.09111 -88.461225,0 0,35.37182 -88.4612541,0" /><path
       inkscape:connector-curvature="0"
       id="path3328"
       style="fill:none;stroke:#000000;stroke-width:1.96541989;stroke-linecap:butt;stroke-linejoin:miter;stroke-miterlimit:10;stroke-opacity:1;stroke-dasharray:none"
       d="m 162.73378,225.14472 194.61466,0" /><path
       inkscape:connector-curvature="0"
       id="path3332"
       style="fill:none;stroke:#000000;stroke-width:1.96541989;stroke-linecap:butt;stroke-linejoin:miter;stroke-miterlimit:10;stroke-opacity:1;stroke-dasharray:none"
       d="m 162.73378,172.08676 194.61466,0" /><path
       inkscape:connector-curvature="0"
       id="path3336"
       style="fill:none;stroke:#000000;stroke-width:1.96541989;stroke-linecap:butt;stroke-linejoin:miter;stroke-miterlimit:10;stroke-opacity:1;stroke-dasharray:none"
       d="m 162.73378,384.3184 194.61466,0" /><path
       inkscape:connector-curvature="0"
       id="path3340"
       style="fill:none;stroke:#000000;stroke-width:1.96541989;stroke-linecap:butt;stroke-linejoin:miter;stroke-miterlimit:10;stroke-opacity:1;stroke-dasharray:none"
       d="m 357.34844,230.19788 c 0,0 -57.30282,11.70817 -88.46123,12.63275 -36.70812,1.08928 -106.15343,-11.79052 -106.15343,-11.79052" /><path
       inkscape:connector-curvature="0"
       id="path3344"
       style="fill:none;stroke:#000000;stroke-width:1.96541989;stroke-linecap:butt;stroke-linejoin:miter;stroke-miterlimit:10;stroke-opacity:1;stroke-dasharray:none"
       d="m 357.34844,220.09182 c 0,0 -57.30282,-11.70842 -88.46123,-12.633 -36.70812,-1.08929 -106.15343,11.79052 -106.15343,11.79052" /><path
       inkscape:connector-curvature="0"
       id="path3348"
       style="fill:none;stroke:#000000;stroke-width:1.96541989;stroke-linecap:butt;stroke-linejoin:miter;stroke-miterlimit:10;stroke-opacity:1;stroke-dasharray:none"
       d="m 392.73308,228.37657 c 17.6922,0 35.38439,14.69741 36.36726,29.39433" /><path
       inkscape:connector-curvature="0"
       id="path3352"
       style="fill:none;stroke:#000000;stroke-width:1.96541989;stroke-linecap:butt;stroke-linejoin:miter;stroke-miterlimit:10;stroke-opacity:1;stroke-dasharray:none"
       d="m 392.73308,178.0889 c 14.31442,9.6201 27.25208,29.93798 36.36726,54.58932" /><path
       inkscape:connector-curvature="0"
       id="path3356"
       style="fill:none;stroke:#000000;stroke-width:1.96541989;stroke-linecap:butt;stroke-linejoin:miter;stroke-miterlimit:10;stroke-opacity:1;stroke-dasharray:none"
       d="m 127.34925,228.37657 c -17.69222,0 -36.488911,14.69741 -36.488911,29.39433" /><path
       inkscape:connector-curvature="0"
       id="path3360"
       style="fill:none;stroke:#000000;stroke-width:1.96541989;stroke-linecap:butt;stroke-linejoin:miter;stroke-miterlimit:10;stroke-opacity:1;stroke-dasharray:none"
       d="m 127.34925,178.0889 c -14.31462,9.6201 -28.356524,29.93798 -36.488911,54.58932" /><path
       inkscape:connector-curvature="0"
       id="path3364"
       style="fill:none;stroke:#000000;stroke-width:1.96541989;stroke-linecap:butt;stroke-linejoin:miter;stroke-miterlimit:10;stroke-opacity:1;stroke-dasharray:none"
       d="m 374.05777,472.74819 c -72.29428,0 -64.2473,-81.89895 -213.54286,-81.89895" /><path
       inkscape:connector-curvature="0"
       id="path3368"
       style="fill:none;stroke:#000000;stroke-width:1.96541989;stroke-linecap:butt;stroke-linejoin:miter;stroke-miterlimit:10;stroke-opacity:1;stroke-dasharray:none"
       d="m 374.05777,490.43415 c -87.37231,0 -72.92223,-93.01774 -213.64899,-93.01774" /><path
       inkscape:connector-curvature="0"
       id="path3372"
       style="fill:none;stroke:#000000;stroke-width:11.79266834;stroke-linecap:butt;stroke-linejoin:miter;stroke-miterlimit:10;stroke-opacity:1;stroke-dasharray:none"
       d="m 55.597341,154.40085 0,53.05797" /><path
       inkscape:connector-curvature="0"
       id="path3376"
       style="fill:none;stroke:#000000;stroke-width:11.79266834;stroke-linecap:butt;stroke-linejoin:miter;stroke-miterlimit:10;stroke-opacity:1;stroke-dasharray:none"
       d="m 462.51899,154.40085 0,53.05797" /><path
       inkscape:connector-curvature="0"
       id="path3380"
       style="fill:#000000;fill-opacity:1;fill-rule:nonzero;stroke:#000000;stroke-width:0.98269767;stroke-linecap:butt;stroke-linejoin:miter;stroke-miterlimit:10;stroke-opacity:1;stroke-dasharray:none"
       d="m 127.34925,366.6324 35.38448,0 0,35.37196 -35.38448,0 0,-35.37196 z" /><path
       inkscape:connector-curvature="0"
       id="path3384"
       style="fill:#666666;fill-opacity:1;fill-rule:nonzero;stroke:#000000;stroke-width:0.98269767;stroke-linecap:butt;stroke-linejoin:miter;stroke-miterlimit:10;stroke-opacity:1;stroke-dasharray:none"
       d="m 127.34925,313.57451 35.38448,0 0,35.37193 -35.38448,0 0,-35.37193 z" /><path
       inkscape:connector-curvature="0"
       id="path3388"
       style="fill:#999999;fill-opacity:1;fill-rule:nonzero;stroke:#000000;stroke-width:0.98269767;stroke-linecap:butt;stroke-linejoin:miter;stroke-miterlimit:10;stroke-opacity:1;stroke-dasharray:none"
       d="m 127.34925,260.51678 35.38448,0 0,35.37194 -35.38448,0 0,-35.37194 z" /><path
       inkscape:connector-curvature="0"
       id="path3392"
       style="fill:#cccccc;fill-opacity:1;fill-rule:nonzero;stroke:#000000;stroke-width:0.98269767;stroke-linecap:butt;stroke-linejoin:miter;stroke-miterlimit:10;stroke-opacity:1;stroke-dasharray:none"
       d="m 127.34925,207.45882 35.38448,0 0,35.37191 -35.38448,0 0,-35.37191 z" /><path
       inkscape:connector-curvature="0"
       id="path3396"
       style="fill:#ffffff;fill-opacity:1;fill-rule:nonzero;stroke:#000000;stroke-width:0.98269767;stroke-linecap:butt;stroke-linejoin:miter;stroke-miterlimit:10;stroke-opacity:1;stroke-dasharray:none"
       d="m 127.34925,154.40085 35.38448,0 0,35.37194 -35.38448,0 0,-35.37194 z" /><path
       inkscape:connector-curvature="0"
       id="path3400"
       style="fill:#000000;fill-opacity:1;fill-rule:nonzero;stroke:#000000;stroke-width:0.98269767;stroke-linecap:butt;stroke-linejoin:miter;stroke-miterlimit:10;stroke-opacity:1;stroke-dasharray:none"
       d="m 357.34844,366.6324 35.38454,0 0,35.37196 -35.38454,0 0,-35.37196 z" /><path
       inkscape:connector-curvature="0"
       id="path3404"
       style="fill:#666666;fill-opacity:1;fill-rule:nonzero;stroke:#000000;stroke-width:0.98269767;stroke-linecap:butt;stroke-linejoin:miter;stroke-miterlimit:10;stroke-opacity:1;stroke-dasharray:none"
       d="m 357.34844,313.57451 35.38454,0 0,35.37193 -35.38454,0 0,-35.37193 z" /><path
       inkscape:connector-curvature="0"
       id="path3408"
       style="fill:#999999;fill-opacity:1;fill-rule:nonzero;stroke:#000000;stroke-width:0.98269767;stroke-linecap:butt;stroke-linejoin:miter;stroke-miterlimit:10;stroke-opacity:1;stroke-dasharray:none"
       d="m 357.34844,260.51678 35.38454,0 0,35.37194 -35.38454,0 0,-35.37194 z" /><path
       inkscape:connector-curvature="0"
       id="path3412"
       style="fill:#cccccc;fill-opacity:1;fill-rule:nonzero;stroke:#000000;stroke-width:0.98269767;stroke-linecap:butt;stroke-linejoin:miter;stroke-miterlimit:10;stroke-opacity:1;stroke-dasharray:none"
       d="m 357.34844,207.45882 35.38454,0 0,35.37191 -35.38454,0 0,-35.37191 z" /><path
       inkscape:connector-curvature="0"
       id="path3416"
       style="fill:#ffffff;fill-opacity:1;fill-rule:nonzero;stroke:#000000;stroke-width:0.98269767;stroke-linecap:butt;stroke-linejoin:miter;stroke-miterlimit:10;stroke-opacity:1;stroke-dasharray:none"
       d="m 357.34844,154.40085 35.38454,0 0,35.37194 -35.38454,0 0,-35.37194 z" /><path
       d="m 374.05772,455.06222 141.53799,0 0,70.74383 -141.53799,0 0,-70.74383 z"
       style="fill:#cccccc;fill-opacity:1;fill-rule:nonzero;stroke:none"
       id="path3418"
       inkscape:connector-curvature="0" /><path
       d="m 428.1175,207.4588 53.07675,0 0,159.17359 -53.07675,0 0,-159.17359 z"
       style="fill:#cccccc;fill-opacity:1;fill-rule:nonzero;stroke:none"
       id="path3420"
       inkscape:connector-curvature="0" /><path
       d="m 3.5034899,101.34301 70.7689941,0 0,53.0579 -70.7689941,0 0,-53.0579 z"
       style="fill:#cccccc;fill-opacity:1;fill-rule:nonzero;stroke:none"
       id="path3422"
       inkscape:connector-curvature="0" /><path
       d="m 38.888007,207.4588 53.07674,0 0,159.17359 -53.07674,0 0,-159.17359 z"
       style="fill:#cccccc;fill-opacity:1;fill-rule:nonzero;stroke:none"
       id="path3424"
       inkscape:connector-curvature="0" /><path
       d="m 445.80961,101.34301 70.76904,0 0,53.0579 -70.76904,0 0,-53.0579 z"
       style="fill:#cccccc;fill-opacity:1;fill-rule:nonzero;stroke:none"
       id="path3426"
       inkscape:connector-curvature="0" /><path
       d="m 21.195761,384.31837 88.461229,0 0,53.05788 -88.461229,0 0,-53.05788 z"
       style="fill:#e6e6e6;fill-opacity:1;fill-rule:nonzero;stroke:none"
       id="path3428"
       inkscape:connector-curvature="0" /><path
       d="m 21.195761,455.06222 88.461229,0 0,53.0579 -88.461229,0 0,-53.0579 z"
       style="fill:#e6e6e6;fill-opacity:1;fill-rule:nonzero;stroke:none"
       id="path3430"
       inkscape:connector-curvature="0" /><path
       d="m 401.57904,384.31837 53.07673,0 0,35.37193 -53.07673,0 0,-35.37193 z"
       style="fill:#e6e6e6;fill-opacity:1;fill-rule:nonzero;stroke:none"
       id="path3432"
       inkscape:connector-curvature="0" /><path
       d="m 462.51904,384.31837 53.07671,0 0,35.37193 -53.07671,0 0,-35.37193 z"
       style="fill:#e6e6e6;fill-opacity:1;fill-rule:nonzero;stroke:none"
       id="path3434"
       inkscape:connector-curvature="0" /><text
       id="text3438"
       transform="scale(1.0001778,-0.99982224)"
       x="248.08217"
       y="-501.80289"
       style="font-size:29.59189987px"><tspan
         id="tspan3440"
         sodipodi:role="line"
         y="-501.80289"
         x="248.08217 261.19153 269.918 279.74509 287.39056 297.21768"
         style="font-size:19.6541996px;font-variant:normal;writing-mode:lr-tb;fill:#000000;fill-opacity:1;fill-rule:nonzero;stroke:none;font-family:Nimbus Roman No9 L;-inkscape-font-specification:NimbusRomNo9L-ReguItal">Censor</tspan></text>
<text
       id="text3444"
       transform="scale(1.0001778,-0.99982224)"
       x="378.14105"
       y="-491.66272"
       style="font-size:29.59189987px"><tspan
         id="tspan3446"
         sodipodi:role="line"
         y="-491.66272"
         x="378.14105 392.33136 402.15848 410.88492 419.61139 429.43851 437.08398 446.91107 453.45593 462.18237 476.92307 484.56854 490.03238 495.49625 504.22272"
         style="font-size:19.6541996px;font-variant:normal;writing-mode:lr-tb;fill:#000000;fill-opacity:1;fill-rule:nonzero;stroke:none;font-family:Nimbus Roman No9 L;-inkscape-font-specification:NimbusRomNo9L-Regu">Uncensoredsites</tspan></text>
<text
       id="text3450"
       transform="scale(1.0001778,-0.99982224)"
       x="389.7756"
       y="-474.01364"
       style="font-size:29.59189987px"><tspan
         id="tspan3452"
         sodipodi:role="line"
         y="-474.01364"
         x="389.7756 396.32043 406.14752 414.87402 423.60046 433.23105 447.97168 453.43552 459.98038"
         style="font-size:19.6541996px;font-variant:normal;writing-mode:lr-tb;fill:#000000;fill-opacity:1;fill-rule:nonzero;stroke:none;font-family:Nimbus Roman No9 L;-inkscape-font-specification:NimbusRomNo9L-Regu">(decoytraffic)</tspan></text>
<text
       id="text3468"
       transform="scale(1.0001778,-0.99982224)"
       x="40.514721"
       y="-414.06781"
       style="font-size:29.59189987px"><tspan
         id="tspan3470"
         sodipodi:role="line"
         y="-414.06781"
         x="40.514721 51.442459 61.269558 66.733429 72.197296 80.628944"
         style="font-size:19.6541996px;font-variant:normal;writing-mode:lr-tb;fill:#000000;fill-opacity:1;fill-rule:nonzero;stroke:none;font-family:Nimbus Roman No9 L;-inkscape-font-specification:NimbusRomNo9L-Regu">Policy</tspan></text>
<text
       id="text3474"
       transform="scale(1.0001778,-0.99982224)"
       x="37.64677"
       y="-394.41388"
       style="font-size:29.59189987px"><tspan
         id="tspan3476"
         sodipodi:role="line"
         y="-394.41388"
         x="37.64677 49.655487 59.48259 69.309692 74.77356 84.600662"
         style="font-size:19.6541996px;font-variant:normal;writing-mode:lr-tb;fill:#000000;fill-opacity:1;fill-rule:nonzero;stroke:none;font-family:Nimbus Roman No9 L;-inkscape-font-specification:NimbusRomNo9L-Regu">Engine</tspan></text>
<text
       id="text3480"
       transform="scale(1.0001778,-0.99982224)"
       x="26.806273"
       y="-484.07983"
       style="font-size:29.59189987px"><tspan
         id="tspan3482"
         sodipodi:role="line"
         y="-484.07983"
         x="26.806273 39.915623 49.44791 58.980198 67.706657 74.251511 79.715378 88.147026 97.974129"
         style="font-size:19.6541996px;font-variant:normal;writing-mode:lr-tb;fill:#000000;fill-opacity:1;fill-rule:nonzero;stroke:none;font-family:Nimbus Roman No9 L;-inkscape-font-specification:NimbusRomNo9L-Regu">Covertext</tspan></text>
<text
       id="text3486"
       transform="scale(1.0001778,-0.99982224)"
       x="29.107044"
       y="-464.26309"
       style="font-size:29.59189987px"><tspan
         id="tspan3488"
         sodipodi:role="line"
         y="-464.26309"
         x="29.107044 43.297375 52.023842 57.487709 66.214172 76.041275 84.767738 92.413223"
         style="font-size:19.6541996px;font-variant:normal;writing-mode:lr-tb;fill:#000000;fill-opacity:1;fill-rule:nonzero;stroke:none;font-family:Nimbus Roman No9 L;-inkscape-font-specification:NimbusRomNo9L-Regu">Database</tspan></text>
<text
       id="text3492"
       transform="scale(1.0001778,-0.99982224)"
       x="408.72427"
       y="-396.45572"
       style="font-size:29.59189987px"><tspan
         id="tspan3494"
         sodipodi:role="line"
         y="-396.45572"
         x="408.72427 417.45071 427.82816 437.65524"
         style="font-size:19.6541996px;font-variant:normal;writing-mode:lr-tb;fill:#000000;fill-opacity:1;fill-rule:nonzero;stroke:none;font-family:Nimbus Roman No9 L;-inkscape-font-specification:NimbusRomNo9L-Regu">ctdb</tspan></text>
<text
       id="text3498"
       transform="scale(1.0001778,-0.99982224)"
       x="464.91681"
       y="-397.70349"
       style="font-size:29.59189987px"><tspan
         id="tspan3500"
         sodipodi:role="line"
         y="-397.70349"
         x="464.91681 474.7439 484.57101 494.94839 503.6749"
         style="font-size:19.6541996px;font-variant:normal;writing-mode:lr-tb;fill:#000000;fill-opacity:1;fill-rule:nonzero;stroke:none;font-family:Nimbus Roman No9 L;-inkscape-font-specification:NimbusRomNo9L-Regu">polen</tspan></text>
<text
       id="text3504"
       transform="scale(1.0001778,-0.99982224)"
       x="25.213232"
       y="-130.27412"
       style="font-size:29.59189987px"><tspan
         id="tspan3506"
         sodipodi:role="line"
         y="-130.27412"
         x="25.213232 35.649612 45.476715"
         style="font-size:19.6541996px;font-variant:normal;writing-mode:lr-tb;fill:#000000;fill-opacity:1;fill-rule:nonzero;stroke:none;font-family:Nimbus Roman No9 L;-inkscape-font-specification:NimbusRomNo9L-Regu">Tor</tspan></text>
<text
       id="text3510"
       transform="scale(1.0001778,-0.99982224)"
       x="16.782021"
       y="-110.487"
       style="font-size:29.59189987px"><tspan
         id="tspan3512"
         sodipodi:role="line"
         y="-110.487"
         x="16.782021 25.508486 30.972353 36.436222 45.162685 54.989788"
         style="font-size:19.6541996px;font-variant:normal;writing-mode:lr-tb;fill:#000000;fill-opacity:1;fill-rule:nonzero;stroke:none;font-family:Nimbus Roman No9 L;-inkscape-font-specification:NimbusRomNo9L-Regu">client</tspan></text>
<text
       id="text3516"
       transform="scale(1.0001778,-0.99982224)"
       x="92.478111"
       y="-112.6546"
       style="font-size:29.59189987px"><tspan
         id="tspan3518"
         sodipodi:role="line"
         y="-112.6546"
         x="92.478111 103.40584 108.86971 117.30136 127.12847 136.95557 147.39194 157.21904 163.76389 173.59099"
         style="font-size:19.6541996px;font-variant:normal;writing-mode:lr-tb;fill:#000000;fill-opacity:1;fill-rule:nonzero;stroke:none;font-family:Nimbus Roman No9 L;-inkscape-font-specification:NimbusRomNo9L-Regu">StegoTorus</tspan></text>
<text
       id="text3522"
       transform="scale(1.0001778,-0.99982224)"
       x="115.02221"
       y="-90.833046"
       style="font-size:29.59189987px"><tspan
         id="tspan3524"
         sodipodi:role="line"
         y="-90.833046"
         x="115.02221 123.74867 129.21254 134.67641 143.40286 153.22997"
         style="font-size:19.6541996px;font-variant:normal;writing-mode:lr-tb;fill:#000000;fill-opacity:1;fill-rule:nonzero;stroke:none;font-family:Nimbus Roman No9 L;-inkscape-font-specification:NimbusRomNo9L-Regu">client</tspan></text>
<text
       id="text3528"
       transform="scale(1.0001778,-0.99982224)"
       x="338.71967"
       y="-112.6546"
       style="font-size:29.59189987px"><tspan
         id="tspan3530"
         sodipodi:role="line"
         y="-112.6546"
         x="338.71967 349.6474 355.1113 363.54294 373.37003 383.19714 393.63351 403.46063 410.00546 419.83258"
         style="font-size:19.6541996px;font-variant:normal;writing-mode:lr-tb;fill:#000000;fill-opacity:1;fill-rule:nonzero;stroke:none;font-family:Nimbus Roman No9 L;-inkscape-font-specification:NimbusRomNo9L-Regu">StegoTorus</tspan></text>
<text
       id="text3534"
       transform="scale(1.0001778,-0.99982224)"
       x="359.2392"
       y="-93.096825"
       style="font-size:29.59189987px"><tspan
         id="tspan3536"
         sodipodi:role="line"
         y="-93.096825"
         x="359.2392 366.88467 375.61115 382.15601 391.68829 400.41473"
         style="font-size:19.6541996px;font-variant:normal;writing-mode:lr-tb;fill:#000000;fill-opacity:1;fill-rule:nonzero;stroke:none;font-family:Nimbus Roman No9 L;-inkscape-font-specification:NimbusRomNo9L-Regu">server</tspan></text>
<text
       id="text3540"
       transform="scale(1.0001778,-0.99982224)"
       x="467.85867"
       y="-130.27412"
       style="font-size:29.59189987px"><tspan
         id="tspan3542"
         sodipodi:role="line"
         y="-130.27412"
         x="467.85867 478.29507 488.12219"
         style="font-size:19.6541996px;font-variant:normal;writing-mode:lr-tb;fill:#000000;fill-opacity:1;fill-rule:nonzero;stroke:none;font-family:Nimbus Roman No9 L;-inkscape-font-specification:NimbusRomNo9L-Regu">Tor</tspan></text>
<text
       id="text3546"
       transform="scale(1.0001778,-0.99982224)"
       x="456.15512"
       y="-112.52144"
       style="font-size:29.59189987px"><tspan
         id="tspan3548"
         sodipodi:role="line"
         y="-112.52144"
         x="456.15512 465.98224 472.5271 477.99094 487.81805 497.64514"
         style="font-size:19.6541996px;font-variant:normal;writing-mode:lr-tb;fill:#000000;fill-opacity:1;fill-rule:nonzero;stroke:none;font-family:Nimbus Roman No9 L;-inkscape-font-specification:NimbusRomNo9L-Regu">bridge</tspan></text>
<text
       id="text3552"
       transform="matrix(0,0.99982224,1.0001778,0,0,0)"
       x="248.33105"
       y="69.983322"
       style="font-size:29.59189987px"><tspan
         id="tspan3554"
         sodipodi:role="line"
         y="69.983322"
         x="248.33105 261.4404 271.26749 281.0946 290.92169 300.74881 306.21268 316.03976"
         style="font-size:19.6541996px;font-variant:normal;writing-mode:lr-tb;fill:#000000;fill-opacity:1;fill-rule:nonzero;stroke:none;font-family:Nimbus Roman No9 L;-inkscape-font-specification:NimbusRomNo9L-Regu">Chopping</tspan></text>
<text
       id="text3558"
       transform="matrix(0,0.99982224,1.0001778,0,0,0)"
       x="248.33096"
       y="459.13913"
       style="font-size:29.59189987px"><tspan
         id="tspan3560"
         sodipodi:role="line"
         y="459.13913"
         x="248.33096 261.44031 271.2674 281.09451 290.9216 300.74869 306.21259 316.03967"
         style="font-size:19.6541996px;font-variant:normal;writing-mode:lr-tb;fill:#000000;fill-opacity:1;fill-rule:nonzero;stroke:none;font-family:Nimbus Roman No9 L;-inkscape-font-specification:NimbusRomNo9L-Regu">Chopping</tspan></text>
<text
       id="text3618"
       transform="matrix(0,0.99982224,1.0001778,0,0,0)"
       x="418.53378"
       y="149.01408"
       style="font-size:29.59189987px"><tspan
         id="tspan3620"
         sodipodi:role="line"
         y="149.01408"
         x="418.53378 428.09549 432.87634 440.254 448.76669 456.40231 465.00098 473.59964 482.1983 487.92502 495.56064 504.1593 512.67194"
         style="font-size:17.19733429px;font-variant:normal;writing-mode:lr-tb;fill:#000000;fill-opacity:1;fill-rule:nonzero;stroke:none;font-family:Nimbus Roman No9 L;-inkscape-font-specification:NimbusRomNo9L-Regu">Steganography</tspan></text>
<text
       xml:space="preserve"
       style="font-size:41.3357811px;font-style:normal;font-weight:normal;line-height:125%;letter-spacing:0px;word-spacing:0px;fill:#000000;fill-opacity:1;stroke:none;font-family:Sans"
       x="399.87503"
       y="155.35477"
       id="text4024"
       sodipodi:linespacing="125%"
       transform="matrix(0,1,1,0,0,0)"><tspan
         sodipodi:role="line"
         id="tspan4026"
         x="399.87503"
         y="155.35477"
         style="font-size:41.3357811px;font-style:normal;font-variant:normal;font-weight:normal;font-stretch:normal;font-family:Nimbus Roman No9 L;-inkscape-font-specification:Nimbus Roman No9 L">}</tspan></text>
</g></svg>