<?xml version="1.0" encoding="UTF-8" standalone="no"?>
<!-- Created with Inkscape (http://www.inkscape.org/) -->
<svg xmlns:rdf="http://www.w3.org/1999/02/22-rdf-syntax-ns#" xmlns="http://www.w3.org/2000/svg" xml:space="preserve" version="1.1" xmlns:cc="http://creativecommons.org/ns#" xmlns:dc="http://purl.org/dc/elements/1.1/" viewBox="0 0 533.34 495.77"><metadata><rdf:RDF><cc:Work rdf:about=""><dc:format>image/svg+xml</dc:format><dc:type rdf:resource="http://purl.org/dc/dcmitype/StillImage"/><dc:title/></cc:Work></rdf:RDF></metadata><defs>
</defs><path d="m433.97,8.843,5.805,0,0-5.8432-5.805,0,0,5.8432z" fill-rule="nonzero" fill="#000"/><path d="m439.78,27.11c0-1.6136-1.3057-2.9217-2.9162-2.9217-1.6106,0-2.9162,1.3081-2.9162,2.9217,0,1.6135,1.3056,2.9216,2.9162,2.9216,1.6105,0,2.9162-1.3081,2.9162-2.9216z" fill-rule="nonzero" fill="#000"/><path stroke-linejoin="miter" d="m439.78,45.377c0-1.6134-1.3057-2.9216-2.9161-2.9216-1.6107,0-2.9161,1.3081-2.9161,2.9216,0,1.6134,1.3054,2.9216,2.9161,2.9216,1.6104,0,2.9161-1.3081,2.9161-2.9216z" stroke="#000" stroke-linecap="butt" stroke-miterlimit="10" stroke-dasharray="none" stroke-width="1.09113777" fill="none"/><text transform="scale(0.99906547,1.0009354)" font-size="21.02869987px" y="11.924072" x="452.61966"><tspan style="" fill-rule="nonzero" font-size="17.45837784px" font-variant="normal" y="11.924072" x="452.61966 462.06461 469.81613 477.56766 485.31918 494.04837 502.77756 511.50674" font-family="Nimbus Roman No9 L" fill="#000000">Facebook</tspan></text>
<text transform="scale(0.99906547,1.0009354)" font-size="21.02869987px" y="30.554289" x="452.61966"><tspan style="" fill-rule="nonzero" font-size="17.45837784px" font-variant="normal" y="30.554289" x="452.61966 462.32651 467.1799 480.76254 485.616 490.46939 498.22092" font-family="Nimbus Roman No9 L" fill="#000000">Similar</tspan></text>
<text transform="scale(0.99906547,1.0009354)" font-size="21.02869987px" y="51.369354" x="452.61966"><tspan style="" fill-rule="nonzero" font-size="17.45837784px" font-variant="normal" y="51.369354" x="452.61966 465.22458 470.07803 478.80722 486.55875" font-family="Nimbus Roman No9 L" fill="#000000">Other</tspan></text>
<text transform="matrix(0,-1.0009356,0.99906527,0,0,0)" font-size="26.28587532px" y="14.905089" x="-365.22812"><tspan style="" fill-rule="nonzero" font-size="21.82297134px" font-variant="normal" y="14.905089" x="-365.22812 -353.09457 -342.18307 -336.1163 -328.84924 -322.78244 -313.09305 -296.72583 -290.65903 -279.74756 -268.83606 -261.56903 -250.65753 -243.39047 -232.47899 -221.56752 -211.87813 -200.96663 -194.89983 -188.83305 -182.76625 -176.69948" font-family="Nimbus Roman No9 L" fill="#000000">Shiftedlog-probability</tspan></text>
<text transform="scale(0.99906547,1.0009354)" font-size="21.02869987px" y="492.84888" x="27.423685"><tspan style="" font-weight="normal" fill-rule="nonzero" font-size="17.45837784px" font-variant="normal" y="492.84888" x="27.423685" font-family="Nimbus Roman No9 L" fill="#000000">−</tspan></text>
<text transform="scale(0.99906547,1.0009354)" font-size="21.02869987px" y="492.84888" x="38.526848"><tspan style="" fill-rule="nonzero" font-size="17.45837784px" font-variant="normal" y="492.84888" x="38.526848 47.256035 55.985222 64.714409 69.079002 77.808189 86.537376" font-family="Nimbus Roman No9 L" fill="#000000">300,000</tspan></text>
<text transform="scale(0.99906547,1.0009354)" font-size="21.02869987px" y="337.33231" x="36.15274"><tspan style="" font-weight="normal" fill-rule="nonzero" font-size="17.45837784px" font-variant="normal" y="337.33231" x="36.15274" font-family="Nimbus Roman No9 L" fill="#000000">−</tspan></text>
<text transform="scale(0.99906547,1.0009354)" font-size="21.02869987px" y="337.33231" x="47.257652"><tspan style="" fill-rule="nonzero" font-size="17.45837784px" font-variant="normal" y="337.33231" x="47.257652 55.986839 64.716026 69.08062 77.809807 86.538994" font-family="Nimbus Roman No9 L" fill="#000000">10,000</tspan></text>
<text transform="scale(0.99906547,1.0009354)" font-size="21.02869987px" y="200.33911" x="57.975548"><tspan style="" font-weight="normal" fill-rule="nonzero" font-size="17.45837784px" font-variant="normal" y="200.33911" x="57.975548" font-family="Nimbus Roman No9 L" fill="#000000">−</tspan></text>
<text transform="scale(0.99906547,1.0009354)" font-size="21.02869987px" y="200.33911" x="69.080452"><tspan style="" fill-rule="nonzero" font-size="17.45837784px" font-variant="normal" y="200.33911" x="69.080452 77.809639 86.538841" font-family="Nimbus Roman No9 L" fill="#000000">500</tspan></text>
<text transform="scale(0.99906547,1.0009354)" font-size="21.02869987px" y="153.09024" x="86.539513"><tspan style="" fill-rule="nonzero" font-size="17.45837784px" font-variant="normal" y="153.09024" x="86.539513" font-family="Nimbus Roman No9 L" fill="#000000">0</tspan></text>
<text transform="scale(0.99906547,1.0009354)" font-size="21.02869987px" y="105.81673" x="69.081291"><tspan style="" fill-rule="nonzero" font-size="17.45837784px" font-variant="normal" y="105.81673" x="69.081291 77.810478 86.539665" font-family="Nimbus Roman No9 L" fill="#000000">500</tspan></text>
<text transform="scale(0.99906547,1.0009354)" font-size="21.02869987px" y="42.421265" x="55.987648"><tspan style="" fill-rule="nonzero" font-size="17.45837784px" font-variant="normal" y="42.421265" x="55.987648 64.716835 69.081429 77.810616 86.539803" font-family="Nimbus Roman No9 L" fill="#000000">2,000</tspan></text>
<path stroke-linejoin="miter" d="m102.48,487.3,9.8658,0" stroke="#000" stroke-linecap="round" stroke-miterlimit="10" stroke-dasharray="none" stroke-width="0.54556888" fill="none"/><path stroke-linejoin="miter" d="m102.48,331.64,9.8658,0" stroke="#000" stroke-linecap="round" stroke-miterlimit="10" stroke-dasharray="none" stroke-width="0.54556888" fill="none"/><path stroke-linejoin="miter" d="m102.48,194.51,9.8658,0" stroke="#000" stroke-linecap="round" stroke-miterlimit="10" stroke-dasharray="none" stroke-width="0.54556888" fill="none"/><path stroke-linejoin="miter" d="m102.48,147.2,9.8658,0" stroke="#000" stroke-linecap="round" stroke-miterlimit="10" stroke-dasharray="none" stroke-width="0.54556888" fill="none"/><path stroke-linejoin="miter" d="m102.48,99.877,9.8658,0" stroke="#000" stroke-linecap="round" stroke-miterlimit="10" stroke-dasharray="none" stroke-width="0.54556888" fill="none"/><path stroke-linejoin="miter" d="m102.48,36.448,9.8658,0" stroke="#000" stroke-linecap="round" stroke-miterlimit="10" stroke-dasharray="none" stroke-width="0.54556888" fill="none"/><path stroke-linejoin="miter" d="m112.35,457.08,420.99,0" stroke="#fafafa" stroke-linecap="butt" stroke-miterlimit="10" stroke-dasharray="none" stroke-width="1.63673413" fill="none"/><path stroke-linejoin="miter" d="m112.35,302.12,420.99,0" stroke="#fafafa" stroke-linecap="butt" stroke-miterlimit="10" stroke-dasharray="none" stroke-width="1.63673413" fill="none"/><path stroke-linejoin="miter" d="m112.35,162.79,420.99,0" stroke="#fafafa" stroke-linecap="butt" stroke-miterlimit="10" stroke-dasharray="none" stroke-width="1.63673413" fill="none"/><path stroke-linejoin="miter" d="m112.35,131.6,420.99,0" stroke="#fafafa" stroke-linecap="butt" stroke-miterlimit="10" stroke-dasharray="none" stroke-width="1.63673413" fill="none"/><path stroke-linejoin="miter" d="m112.35,57.964,301.07,0" stroke="#fafafa" stroke-linecap="butt" stroke-miterlimit="10" stroke-dasharray="none" stroke-width="1.63673413" fill="none"/><path stroke-linejoin="miter" d="m112.35,487.3,420.99,0" stroke="#CCC" stroke-linecap="butt" stroke-miterlimit="10" stroke-dasharray="none" stroke-width="0.54556888" fill="none"/><path stroke-linejoin="miter" d="m112.35,331.64,420.99,0" stroke="#CCC" stroke-linecap="butt" stroke-miterlimit="10" stroke-dasharray="none" stroke-width="0.54556888" fill="none"/><path stroke-linejoin="miter" d="m112.35,194.51,420.99,0" stroke="#CCC" stroke-linecap="butt" stroke-miterlimit="10" stroke-dasharray="none" stroke-width="0.54556888" fill="none"/><path stroke-linejoin="miter" d="m112.35,147.2,420.99,0" stroke="#CCC" stroke-linecap="butt" stroke-miterlimit="10" stroke-dasharray="none" stroke-width="0.54556888" fill="none"/><path stroke-linejoin="miter" d="m112.35,99.877,420.99,0" stroke="#CCC" stroke-linecap="butt" stroke-miterlimit="10" stroke-dasharray="none" stroke-width="0.54556888" fill="none"/><path stroke-linejoin="miter" d="m112.35,36.448,301.07,0" stroke="#CCC" stroke-linecap="butt" stroke-miterlimit="10" stroke-dasharray="none" stroke-width="0.54556888" fill="none"/><path d="m116.33,34.81,5.8323,0,0-5.8159-5.8323,0,0,5.8159z" fill-rule="nonzero" fill="#000"/><path d="m123.22,35.465,5.8323,0,0-5.8159-5.8323,0,0,5.8159z" fill-rule="nonzero" fill="#000"/><path d="m130.15,37.021,5.805,0,0-5.8432-5.805,0,0,5.8432z" fill-rule="nonzero" fill="#000"/><path d="m137.04,37.458,5.805,0,0-5.816-5.805,0,0,5.816z" fill-rule="nonzero" fill="#000"/><path d="m143.94,38.223,5.8051,0,0-5.816-5.8051,0,0,5.816z" fill-rule="nonzero" fill="#000"/><path d="m150.83,38.55,5.8323,0,0-5.816-5.8323,0,0,5.816z" fill-rule="nonzero" fill="#000"/><path d="m157.75,38.878,5.805,0,0-5.816-5.805,0,0,5.816z" fill-rule="nonzero" fill="#000"/><path d="m164.65,39.452,5.805,0,0-5.8159-5.805,0,0,5.8159z" fill-rule="nonzero" fill="#000"/><path d="m171.54,40.899,5.805,0,0-5.8159-5.805,0,0,5.8159z" fill-rule="nonzero" fill="#000"/><path d="m178.44,40.981,5.8323,0,0-5.816-5.8323,0,0,5.816z" fill-rule="nonzero" fill="#000"/><path d="m185.34,42.209,5.8323,0,0-5.8432-5.8323,0,0,5.8432z" fill-rule="nonzero" fill="#000"/><path d="m192.26,43.848,5.805,0,0-5.8159-5.805,0,0,5.8159z" fill-rule="nonzero" fill="#000"/><path d="m199.15,44.011,5.805,0,0-5.8159-5.805,0,0,5.8159z" fill-rule="nonzero" fill="#000"/><path d="m206.05,46.442,5.8323,0,0-5.8432-5.8323,0,0,5.8432z" fill-rule="nonzero" fill="#000"/><path d="m212.94,53.896,5.8323,0,0-5.8432-5.8323,0,0,5.8432z" fill-rule="nonzero" fill="#000"/><path d="m219.87,62.387,5.805,0,0-5.8432-5.805,0,0,5.8432z" fill-rule="nonzero" fill="#000"/><path d="m226.76,80.6,5.805,0,0-5.8432-5.805,0,0,5.8432z" fill-rule="nonzero" fill="#000"/><path d="m233.66,82.101,5.805,0,0-5.8159-5.805,0,0,5.8159z" fill-rule="nonzero" fill="#000"/><path d="m240.55,82.948,5.8323,0,0-5.8159-5.8323,0,0,5.8159z" fill-rule="nonzero" fill="#000"/><path d="m378.59,340.87,5.805,0,0-5.8432-5.805,0,0,5.8432z" fill-rule="nonzero" fill="#000"/><path d="m253.28,191.76c0-1.6135-1.3056-2.9216-2.9162-2.9216-1.6105,0-2.9161,1.3081-2.9161,2.9216,0,1.6136,1.3056,2.9217,2.9161,2.9217,1.6106,0,2.9162-1.3081,2.9162-2.9217z" fill-rule="nonzero" fill="#000"/><path d="m260.17,211.09c0-1.6136-1.3056-2.9216-2.9162-2.9216-1.6105,0-2.9161,1.308-2.9161,2.9216,0,1.6135,1.3056,2.9216,2.9161,2.9216,1.6106,0,2.9162-1.3081,2.9162-2.9216z" fill-rule="nonzero" fill="#000"/><path d="m267.1,212.15c0-1.6135-1.3056-2.9216-2.9162-2.9216-1.6105,0-2.9161,1.3081-2.9161,2.9216,0,1.6136,1.3056,2.9216,2.9161,2.9216,1.6106,0,2.9162-1.308,2.9162-2.9216z" fill-rule="nonzero" fill="#000"/><path d="m273.99,221.46c0-1.6136-1.3056-2.9217-2.9162-2.9217-1.6105,0-2.9162,1.3081-2.9162,2.9217,0,1.6135,1.3057,2.9216,2.9162,2.9216,1.6106,0,2.9162-1.3081,2.9162-2.9216z" fill-rule="nonzero" fill="#000"/><path d="m280.89,231.16c0-1.6135-1.3056-2.9216-2.9162-2.9216-1.6105,0-2.9161,1.3081-2.9161,2.9216,0,1.6136,1.3056,2.9217,2.9161,2.9217,1.6106,0,2.9162-1.3081,2.9162-2.9217z" fill-rule="nonzero" fill="#000"/><path stroke-linejoin="miter" d="m287.78,258.65c0-1.6137-1.3057-2.9216-2.9164-2.9216-1.6104,0-2.9161,1.3078-2.9161,2.9216,0,1.6134,1.3057,2.9216,2.9161,2.9216,1.6107,0,2.9164-1.3081,2.9164-2.9216z" stroke="#000" stroke-linecap="butt" stroke-miterlimit="10" stroke-dasharray="none" stroke-width="1.09113777" fill="none"/><path stroke-linejoin="miter" d="m294.7,259.75c0-1.6134-1.3057-2.9216-2.9161-2.9216s-2.9161,1.3081-2.9161,2.9216c0,1.6134,1.3057,2.9216,2.9161,2.9216s2.9161-1.3081,2.9161-2.9216z" stroke="#000" stroke-linecap="butt" stroke-miterlimit="10" stroke-dasharray="none" stroke-width="1.09113777" fill="none"/><path stroke-linejoin="miter" d="m301.6,275.86c0-1.6134-1.3057-2.9216-2.9161-2.9216-1.6107,0-2.9164,1.3081-2.9164,2.9216,0,1.6137,1.3057,2.9218,2.9164,2.9218,1.6104,0,2.9161-1.3081,2.9161-2.9218z" stroke="#000" stroke-linecap="butt" stroke-miterlimit="10" stroke-dasharray="none" stroke-width="1.09113777" fill="none"/><path stroke-linejoin="miter" d="m308.49,294.48c0-1.6135-1.3057-2.9216-2.9161-2.9216-1.6107,0-2.9164,1.3081-2.9164,2.9216,0,1.6136,1.3057,2.9216,2.9164,2.9216,1.6104,0,2.9161-1.3081,2.9161-2.9216z" stroke="#000" stroke-linecap="butt" stroke-miterlimit="10" stroke-dasharray="none" stroke-width="1.09113777" fill="none"/><path stroke-linejoin="miter" d="m315.39,302.15c0-1.6135-1.3054-2.9216-2.9161-2.9216-1.6104,0-2.9161,1.308-2.9161,2.9216s1.3057,2.9216,2.9161,2.9216c1.6107,0,2.9161-1.3081,2.9161-2.9216z" stroke="#000" stroke-linecap="butt" stroke-miterlimit="10" stroke-dasharray="none" stroke-width="1.09113777" fill="none"/><path stroke-linejoin="miter" d="m322.28,307.45c0-1.6135-1.3057-2.9216-2.9161-2.9216s-2.9161,1.3081-2.9161,2.9216c0,1.6136,1.3057,2.9216,2.9161,2.9216s2.9161-1.3081,2.9161-2.9216z" stroke="#000" stroke-linecap="butt" stroke-miterlimit="10" stroke-dasharray="none" stroke-width="1.09113777" fill="none"/><path stroke-linejoin="miter" d="m329.21,309.96c0-1.6136-1.3057-2.9216-2.9161-2.9216-1.6107,0-2.9164,1.3081-2.9164,2.9216,0,1.6136,1.3057,2.9216,2.9164,2.9216,1.6104,0,2.9161-1.3081,2.9161-2.9216z" stroke="#000" stroke-linecap="butt" stroke-miterlimit="10" stroke-dasharray="none" stroke-width="1.09113777" fill="none"/><path stroke-linejoin="miter" d="m336.1,310.97c0-1.6135-1.3057-2.9216-2.9164-2.9216-1.6104,0-2.9161,1.308-2.9161,2.9216s1.3057,2.9216,2.9161,2.9216c1.6107,0,2.9164-1.308,2.9164-2.9216z" stroke="#000" stroke-linecap="butt" stroke-miterlimit="10" stroke-dasharray="none" stroke-width="1.09113777" fill="none"/><path stroke-linejoin="miter" d="m343,315.5c0-1.6135-1.3057-2.9216-2.9161-2.9216s-2.9161,1.3081-2.9161,2.9216,1.3057,2.9216,2.9161,2.9216,2.9161-1.3081,2.9161-2.9216z" stroke="#000" stroke-linecap="butt" stroke-miterlimit="10" stroke-dasharray="none" stroke-width="1.09113777" fill="none"/><path stroke-linejoin="miter" d="m349.89,319.6c0-1.6135-1.3057-2.9216-2.9161-2.9216s-2.9161,1.308-2.9161,2.9216,1.3057,2.9216,2.9161,2.9216,2.9161-1.3081,2.9161-2.9216z" stroke="#000" stroke-linecap="butt" stroke-miterlimit="10" stroke-dasharray="none" stroke-width="1.09113777" fill="none"/><path stroke-linejoin="miter" d="m356.82,331.72c0-1.6136-1.3057-2.9216-2.9164-2.9216-1.6104,0-2.9161,1.3081-2.9161,2.9216s1.3057,2.9216,2.9161,2.9216c1.6107,0,2.9164-1.3081,2.9164-2.9216z" stroke="#000" stroke-linecap="butt" stroke-miterlimit="10" stroke-dasharray="none" stroke-width="1.09113777" fill="none"/><path stroke-linejoin="miter" d="m363.71,333.69c0-1.6135-1.3057-2.9216-2.9164-2.9216-1.6104,0-2.9161,1.3081-2.9161,2.9216,0,1.6136,1.3057,2.9217,2.9161,2.9217,1.6107,0,2.9164-1.3081,2.9164-2.9217z" stroke="#000" stroke-linecap="butt" stroke-miterlimit="10" stroke-dasharray="none" stroke-width="1.09113777" fill="none"/><path stroke-linejoin="miter" d="m370.61,333.71c0-1.6135-1.3054-2.9216-2.9161-2.9216-1.6104,0-2.9161,1.3081-2.9161,2.9216,0,1.6136,1.3057,2.9217,2.9161,2.9217,1.6107,0,2.9161-1.3081,2.9161-2.9217z" stroke="#000" stroke-linecap="butt" stroke-miterlimit="10" stroke-dasharray="none" stroke-width="1.09113777" fill="none"/><path stroke-linejoin="miter" d="m377.5,334.92c0-1.6136-1.3057-2.9216-2.9161-2.9216s-2.9161,1.3081-2.9161,2.9216c0,1.6136,1.3057,2.9216,2.9161,2.9216s2.9161-1.3081,2.9161-2.9216z" stroke="#000" stroke-linecap="butt" stroke-miterlimit="10" stroke-dasharray="none" stroke-width="1.09113777" fill="none"/><path stroke-linejoin="miter" d="m391.32,338.9c0-1.6135-1.3057-2.9216-2.9161-2.9216s-2.9161,1.308-2.9161,2.9216,1.3057,2.9216,2.9161,2.9216,2.9161-1.308,2.9161-2.9216z" stroke="#000" stroke-linecap="butt" stroke-miterlimit="10" stroke-dasharray="none" stroke-width="1.09113777" fill="none"/><path stroke-linejoin="miter" d="m398.21,340.35c0-1.6135-1.3057-2.9216-2.9161-2.9216-1.6107,0-2.9164,1.3081-2.9164,2.9216,0,1.6136,1.3057,2.9216,2.9164,2.9216,1.6104,0,2.9161-1.308,2.9161-2.9216z" stroke="#000" stroke-linecap="butt" stroke-miterlimit="10" stroke-dasharray="none" stroke-width="1.09113777" fill="none"/><path stroke-linejoin="miter" d="m405.11,346.88c0-1.6135-1.3057-2.9216-2.9161-2.9216-1.6107,0-2.9164,1.3082-2.9164,2.9216,0,1.6135,1.3057,2.9216,2.9164,2.9216,1.6104,0,2.9161-1.3081,2.9161-2.9216z" stroke="#000" stroke-linecap="butt" stroke-miterlimit="10" stroke-dasharray="none" stroke-width="1.09113777" fill="none"/><path stroke-linejoin="miter" d="m412,347.91c0-1.6136-1.3057-2.9216-2.9161-2.9216-1.6107,0-2.9164,1.3081-2.9164,2.9216s1.3057,2.9216,2.9164,2.9216c1.6104,0,2.9161-1.3081,2.9161-2.9216z" stroke="#000" stroke-linecap="butt" stroke-miterlimit="10" stroke-dasharray="none" stroke-width="1.09113777" fill="none"/><path stroke-linejoin="miter" d="m418.93,348.35c0-1.6135-1.3057-2.9216-2.9161-2.9216-1.6107,0-2.9164,1.3081-2.9164,2.9216s1.3057,2.9217,2.9164,2.9217c1.6104,0,2.9161-1.3082,2.9161-2.9217z" stroke="#000" stroke-linecap="butt" stroke-miterlimit="10" stroke-dasharray="none" stroke-width="1.09113777" fill="none"/><path stroke-linejoin="miter" d="m425.82,350.45c0-1.6135-1.3057-2.9216-2.9161-2.9216-1.6107,0-2.9164,1.3081-2.9164,2.9216,0,1.6136,1.3057,2.9217,2.9164,2.9217,1.6104,0,2.9161-1.3081,2.9161-2.9217z" stroke="#000" stroke-linecap="butt" stroke-miterlimit="10" stroke-dasharray="none" stroke-width="1.09113777" fill="none"/><path stroke-linejoin="miter" d="m432.72,352.17c0-1.6136-1.3057-2.9216-2.9161-2.9216-1.6107,0-2.9164,1.3081-2.9164,2.9216,0,1.6136,1.3057,2.9216,2.9164,2.9216,1.6104,0,2.9161-1.3081,2.9161-2.9216z" stroke="#000" stroke-linecap="butt" stroke-miterlimit="10" stroke-dasharray="none" stroke-width="1.09113777" fill="none"/><path stroke-linejoin="miter" d="m439.61,363.34c0-1.6136-1.3054-2.9216-2.9161-2.9216-1.6104,0-2.9161,1.3081-2.9161,2.9216,0,1.6136,1.3057,2.9216,2.9161,2.9216,1.6107,0,2.9161-1.3081,2.9161-2.9216z" stroke="#000" stroke-linecap="butt" stroke-miterlimit="10" stroke-dasharray="none" stroke-width="1.09113777" fill="none"/><path stroke-linejoin="miter" d="m446.53,365.03c0-1.6135-1.3057-2.9216-2.9161-2.9216-1.6107,0-2.9164,1.3081-2.9164,2.9216,0,1.6136,1.3057,2.9216,2.9164,2.9216,1.6104,0,2.9161-1.3081,2.9161-2.9216z" stroke="#000" stroke-linecap="butt" stroke-miterlimit="10" stroke-dasharray="none" stroke-width="1.09113777" fill="none"/><path stroke-linejoin="miter" d="m453.43,371.07c0-1.6136-1.3057-2.9216-2.9161-2.9216-1.6107,0-2.9164,1.3081-2.9164,2.9216s1.3057,2.9216,2.9164,2.9216c1.6104,0,2.9161-1.3081,2.9161-2.9216z" stroke="#000" stroke-linecap="butt" stroke-miterlimit="10" stroke-dasharray="none" stroke-width="1.09113777" fill="none"/><path stroke-linejoin="miter" d="m460.33,373.69c0-1.6135-1.3057-2.9216-2.9164-2.9216-1.6104,0-2.9161,1.3081-2.9161,2.9216,0,1.6136,1.3057,2.9216,2.9161,2.9216,1.6107,0,2.9164-1.3081,2.9164-2.9216z" stroke="#000" stroke-linecap="butt" stroke-miterlimit="10" stroke-dasharray="none" stroke-width="1.09113777" fill="none"/><path stroke-linejoin="miter" d="m467.22,378.49c0-1.6136-1.3054-2.9216-2.9161-2.9216-1.6104,0-2.9161,1.3081-2.9161,2.9216s1.3057,2.9216,2.9161,2.9216c1.6107,0,2.9161-1.3081,2.9161-2.9216z" stroke="#000" stroke-linecap="butt" stroke-miterlimit="10" stroke-dasharray="none" stroke-width="1.09113777" fill="none"/><path stroke-linejoin="miter" d="m474.12,383.33c0-1.6136-1.3054-2.9216-2.9161-2.9216-1.6104,0-2.9161,1.3081-2.9161,2.9216s1.3057,2.9217,2.9161,2.9217c1.6107,0,2.9161-1.3081,2.9161-2.9217z" stroke="#000" stroke-linecap="butt" stroke-miterlimit="10" stroke-dasharray="none" stroke-width="1.09113777" fill="none"/><path stroke-linejoin="miter" d="m481.04,383.33c0-1.6136-1.3054-2.9216-2.9161-2.9216-1.6104,0-2.9161,1.3081-2.9161,2.9216s1.3057,2.9217,2.9161,2.9217c1.6107,0,2.9161-1.3081,2.9161-2.9217z" stroke="#000" stroke-linecap="butt" stroke-miterlimit="10" stroke-dasharray="none" stroke-width="1.09113777" fill="none"/><path stroke-linejoin="miter" d="m487.93,405.23c0-1.6135-1.3054-2.9216-2.9161-2.9216-1.6104,0-2.9161,1.3081-2.9161,2.9216,0,1.6136,1.3057,2.9216,2.9161,2.9216,1.6107,0,2.9161-1.3081,2.9161-2.9216z" stroke="#000" stroke-linecap="butt" stroke-miterlimit="10" stroke-dasharray="none" stroke-width="1.09113777" fill="none"/><path stroke-linejoin="miter" d="m494.83,424.91c0-1.6135-1.3054-2.9216-2.9161-2.9216-1.6104,0-2.9161,1.3081-2.9161,2.9216,0,1.6136,1.3057,2.9217,2.9161,2.9217,1.6107,0,2.9161-1.3081,2.9161-2.9217z" stroke="#000" stroke-linecap="butt" stroke-miterlimit="10" stroke-dasharray="none" stroke-width="1.09113777" fill="none"/><path stroke-linejoin="miter" d="m501.72,434.36c0-1.6135-1.3057-2.9216-2.9161-2.9216-1.6107,0-2.9161,1.3081-2.9161,2.9216s1.3054,2.9216,2.9161,2.9216c1.6104,0,2.9161-1.3081,2.9161-2.9216z" stroke="#000" stroke-linecap="butt" stroke-miterlimit="10" stroke-dasharray="none" stroke-width="1.09113777" fill="none"/><path stroke-linejoin="miter" d="m508.65,447.52c0-1.6135-1.3057-2.9216-2.9164-2.9216-1.6104,0-2.9161,1.3081-2.9161,2.9216s1.3057,2.9216,2.9161,2.9216c1.6107,0,2.9164-1.3081,2.9164-2.9216z" stroke="#000" stroke-linecap="butt" stroke-miterlimit="10" stroke-dasharray="none" stroke-width="1.09113777" fill="none"/><path stroke-linejoin="miter" d="m515.54,462.21c0-1.6136-1.3057-2.9216-2.9161-2.9216s-2.9161,1.3081-2.9161,2.9216,1.3057,2.9216,2.9161,2.9216,2.9161-1.3081,2.9161-2.9216z" stroke="#000" stroke-linecap="butt" stroke-miterlimit="10" stroke-dasharray="none" stroke-width="1.09113777" fill="none"/><path stroke-linejoin="miter" d="m522.44,465.16c0-1.6135-1.3054-2.9216-2.9161-2.9216-1.6104,0-2.9161,1.3081-2.9161,2.9216,0,1.6136,1.3057,2.9216,2.9161,2.9216,1.6107,0,2.9161-1.308,2.9161-2.9216z" stroke="#000" stroke-linecap="butt" stroke-miterlimit="10" stroke-dasharray="none" stroke-width="1.09113777" fill="none"/><path stroke-linejoin="miter" d="m529.33,474.01c0-1.6136-1.3057-2.9216-2.9164-2.9216-1.6104,0-2.9161,1.3081-2.9161,2.9216,0,1.6136,1.3057,2.9216,2.9161,2.9216,1.6107,0,2.9164-1.3081,2.9164-2.9216z" stroke="#000" stroke-linecap="butt" stroke-miterlimit="10" stroke-dasharray="none" stroke-width="1.09113777" fill="none"/><text transform="scale(0.99906528,1.0009356)" font-size="18.72868538px" y="190.1916" x="254.84851"><tspan style="" fill-rule="nonzero" font-size="15.54886627px" font-variant="normal" y="190.1916" x="254.84851 260.89703 268.67145 276.44589 281.62366 285.94626 291.99475 295.88199 303.6564 310.56012 318.33453 326.10898 333.88342 337.77063 344.67432 352.44876" font-family="Nimbus Roman No9 L" fill="#000000">sports.yahoo.com</tspan></text>
<text transform="scale(0.99906528,1.0009356)" font-size="18.72868538px" y="213.37788" x="178.46893"><tspan style="" fill-rule="nonzero" font-size="15.54886627px" font-variant="normal" y="213.37788" x="178.46893 186.24335 193.14706 200.92148 208.69592 215.59961 219.92221 223.80942 230.7131 238.48755" font-family="Nimbus Roman No9 L" fill="#000000">paypal.com</tspan></text>
<text transform="scale(0.99906528,1.0009356)" font-size="18.72868538px" y="209.28447" x="269.03473"><tspan style="" fill-rule="nonzero" font-size="15.54886627px" font-variant="normal" y="209.28447" x="269.03473 273.3573 281.13174 288.03543 294.08395 300.98764 308.76208 313.93985 321.71429 327.76279 331.65002 338.55371 346.32816" font-family="Nimbus Roman No9 L" fill="#000000">thesaurus.com</tspan></text>
<text transform="scale(0.99906528,1.0009356)" font-size="18.72868538px" y="232.4735" x="197.56448"><tspan style="" fill-rule="nonzero" font-size="15.54886627px" font-variant="normal" y="232.4735" x="197.56448 201.88708 213.11337 217.43594 221.75854 226.08112 232.9848 237.3074 241.19461 248.0983 255.87274" font-family="Nimbus Roman No9 L" fill="#000000">twitter.com</tspan></text>
<text transform="scale(0.99906528,1.0009356)" font-size="18.72868538px" y="239.29134" x="283.49197"><tspan style="" fill-rule="nonzero" font-size="15.54886627px" font-variant="normal" y="239.29134" x="283.49197 291.26639 298.1701 305.94452 313.71896 321.49341 325.38062 332.2843 340.05875" font-family="Nimbus Roman No9 L" fill="#000000">yahoo.com</tspan></text>
<path stroke-linejoin="miter" d="m379.98,343.27-17.715,19.113" stroke="#000" stroke-linecap="butt" stroke-miterlimit="10" stroke-dasharray="none" stroke-width="1.09113777" fill="none"/><text transform="scale(0.99906528,1.0009356)" font-size="18.72868538px" y="367.2023" x="194.9606"><tspan style="" fill-rule="nonzero" font-size="15.54886627px" font-variant="normal" y="367.2023" x="194.9606 202.73505 210.50946 218.28391 225.18759 229.51019 236.41388 243.31757 247.64017 254.54385 266.20551 274.61743 281.52115 288.42484 295.32855 303.10297 310.87741 318.65182 330.31348 338.08792 342.41049 348.45901 352.78162" font-family="Nimbus Roman No9 L" fill="#000000">undetectedFacebookvisit</tspan></text>
</svg>
