<?xml version="1.0" encoding="UTF-8" standalone="no"?>
<!-- Created with Inkscape (http://www.inkscape.org/) -->

<svg
   xmlns:dc="http://purl.org/dc/elements/1.1/"
   xmlns:cc="http://creativecommons.org/ns#"
   xmlns:rdf="http://www.w3.org/1999/02/22-rdf-syntax-ns#"
   xmlns:svg="http://www.w3.org/2000/svg"
   xmlns="http://www.w3.org/2000/svg"
   xmlns:sodipodi="http://sodipodi.sourceforge.net/DTD/sodipodi-0.dtd"
   xmlns:inkscape="http://www.inkscape.org/namespaces/inkscape"
   id="svg2"
   version="1.1"
   inkscape:version="0.48.3.1 r9886"
   width="669.69482"
   height="621.71729"
   xml:space="preserve"
   sodipodi:docname="facebook-detect.pdf"><metadata
     id="metadata8"><rdf:RDF><cc:Work
         rdf:about=""><dc:format>image/svg+xml</dc:format><dc:type
           rdf:resource="http://purl.org/dc/dcmitype/StillImage" /><dc:title></dc:title></cc:Work></rdf:RDF></metadata><defs
     id="defs6"><clipPath
       clipPathUnits="userSpaceOnUse"
       id="clipPath18"><path
         d="M 0,0 715,0 715,499 0,499 0,0 z"
         id="path20"
         inkscape:connector-curvature="0" /></clipPath><clipPath
       clipPathUnits="userSpaceOnUse"
       id="clipPath28"><path
         d="m 89.33248,0 536.7101,0 0,498.375 -536.7101,0 0,-498.375 z"
         id="path30"
         inkscape:connector-curvature="0" /></clipPath></defs><sodipodi:namedview
     pagecolor="#ffffff"
     bordercolor="#666666"
     borderopacity="1"
     objecttolerance="10"
     gridtolerance="10"
     guidetolerance="10"
     inkscape:pageopacity="0"
     inkscape:pageshadow="2"
     inkscape:window-width="1920"
     inkscape:window-height="1021"
     id="namedview4"
     showgrid="false"
     fit-margin-top="1"
     fit-margin-left="1"
     fit-margin-right="1"
     fit-margin-bottom="1"
     inkscape:zoom="1"
     inkscape:cx="99.341969"
     inkscape:cy="299.11364"
     inkscape:window-x="0"
     inkscape:window-y="27"
     inkscape:window-maximized="1"
     inkscape:current-layer="g10" /><g
     id="g10"
     inkscape:groupmode="layer"
     inkscape:label="facebook-detect"
     transform="matrix(1.25,0,0,-1.25,-112.15803,622.43008)"><path
       d="m 524.497,488.3011 5.80505,0 0,5.8432 -5.80505,0 0,-5.8432 z"
       style="fill:#000000;fill-opacity:1;fill-rule:nonzero;stroke:none"
       id="path32"
       inkscape:connector-curvature="0" /><path
       d="m 530.3021,470.0342 c 0,1.6136 -1.3057,2.9217 -2.9162,2.9217 -1.6106,0 -2.9162,-1.3081 -2.9162,-2.9217 0,-1.6135 1.3056,-2.9216 2.9162,-2.9216 1.6105,0 2.9162,1.3081 2.9162,2.9216 z"
       style="fill:#000000;fill-opacity:1;fill-rule:nonzero;stroke:none"
       id="path34"
       inkscape:connector-curvature="0" /><path
       inkscape:connector-curvature="0"
       id="path38"
       style="fill:none;stroke:#000000;stroke-width:1.09113777;stroke-linecap:butt;stroke-linejoin:miter;stroke-miterlimit:10;stroke-opacity:1;stroke-dasharray:none"
       d="m 530.30198,451.76747 c 0,1.61343 -1.30568,2.92156 -2.9161,2.92156 -1.61069,0 -2.9161,-1.30813 -2.9161,-2.92156 0,-1.61344 1.30541,-2.92156 2.9161,-2.92156 1.61042,0 2.9161,1.30812 2.9161,2.92156 z" /><text
       id="text42"
       transform="scale(0.99906543,-1.0009354)"
       x="543.23077"
       y="-484.7554"
       style="font-size:21.02869987px"><tspan
         id="tspan44"
         sodipodi:role="line"
         y="-484.7554"
         x="543.23077 552.67572 560.42725 568.17877 575.9303 584.65948 593.38867 602.11786"
         style="font-size:17.45837784px;font-variant:normal;writing-mode:lr-tb;fill:#000000;fill-opacity:1;fill-rule:nonzero;stroke:none;font-family:Nimbus Roman No9 L;-inkscape-font-specification:NimbusRomNo9L-Regu">Facebook</tspan></text>
<text
       id="text48"
       transform="scale(0.99906543,-1.0009354)"
       x="543.23077"
       y="-466.12518"
       style="font-size:21.02869987px"><tspan
         id="tspan50"
         sodipodi:role="line"
         y="-466.12518"
         x="543.23077 552.93762 557.79102 571.37366 576.22711 581.08051 588.83203"
         style="font-size:17.45837784px;font-variant:normal;writing-mode:lr-tb;fill:#000000;fill-opacity:1;fill-rule:nonzero;stroke:none;font-family:Nimbus Roman No9 L;-inkscape-font-specification:NimbusRomNo9L-Regu">Similar</tspan></text>
<text
       id="text54"
       transform="scale(0.99906543,-1.0009354)"
       x="543.23077"
       y="-445.31012"
       style="font-size:21.02869987px"><tspan
         id="tspan56"
         sodipodi:role="line"
         y="-445.31012"
         x="543.23077 555.83569 560.68915 569.41833 577.16986"
         style="font-size:17.45837784px;font-variant:normal;writing-mode:lr-tb;fill:#000000;fill-opacity:1;fill-rule:nonzero;stroke:none;font-family:Nimbus Roman No9 L;-inkscape-font-specification:NimbusRomNo9L-Regu">Other</tspan></text>
<text
       id="text60"
       transform="matrix(0,1.0009356,0.99906526,0,0,0)"
       x="131.45125"
       y="105.51621"
       style="font-size:26.28587532px"><tspan
         id="tspan62"
         sodipodi:role="line"
         y="105.51621"
         x="131.45125 143.58481 154.49631 160.56308 167.83014 173.89693 183.58632 199.95355 206.02034 216.93181 227.84331 235.11035 246.02184 253.28889 264.20038 275.11185 284.80124 295.71274 301.77954 307.84631 313.91312 319.97989"
         style="font-size:21.82297134px;font-variant:normal;writing-mode:lr-tb;fill:#000000;fill-opacity:1;fill-rule:nonzero;stroke:none;font-family:Nimbus Roman No9 L;-inkscape-font-specification:NimbusRomNo9L-Regu">Shiftedlog-probability</tspan></text>
<text
       id="text66"
       transform="scale(0.99906543,-1.0009354)"
       x="118.03479"
       y="-3.8305862"
       style="font-size:21.02869987px"><tspan
         id="tspan68"
         y="-3.8305862"
         x="118.03479"
         style="font-size:17.45837784px;font-variant:normal;font-weight:normal;writing-mode:lr-tb;fill:#000000;fill-opacity:1;fill-rule:nonzero;stroke:none;font-family:Nimbus Roman No9 L;-inkscape-font-specification:Nimbus Roman No9 L">−</tspan></text>
<text
       id="text72"
       transform="scale(0.99906543,-1.0009354)"
       x="129.13795"
       y="-3.8305862"
       style="font-size:21.02869987px"><tspan
         id="tspan74"
         sodipodi:role="line"
         y="-3.8305862"
         x="129.13795 137.86714 146.59633 155.32552 159.69011 168.4193 177.14848"
         style="font-size:17.45837784px;font-variant:normal;writing-mode:lr-tb;fill:#000000;fill-opacity:1;fill-rule:nonzero;stroke:none;font-family:Nimbus Roman No9 L;-inkscape-font-specification:NimbusRomNo9L-Regu">300,000</tspan></text>
<text
       id="text78"
       transform="scale(0.99906543,-1.0009354)"
       x="126.76385"
       y="-159.34715"
       style="font-size:21.02869987px"><tspan
         id="tspan80"
         y="-159.34715"
         x="126.76385"
         style="font-size:17.45837784px;font-variant:normal;font-weight:normal;writing-mode:lr-tb;fill:#000000;fill-opacity:1;fill-rule:nonzero;stroke:none;font-family:Nimbus Roman No9 L;-inkscape-font-specification:Nimbus Roman No9 L">−</tspan></text>
<text
       id="text84"
       transform="scale(0.99906543,-1.0009354)"
       x="137.86876"
       y="-159.34715"
       style="font-size:21.02869987px"><tspan
         id="tspan86"
         sodipodi:role="line"
         y="-159.34715"
         x="137.86876 146.59795 155.32713 159.69173 168.42091 177.1501"
         style="font-size:17.45837784px;font-variant:normal;writing-mode:lr-tb;fill:#000000;fill-opacity:1;fill-rule:nonzero;stroke:none;font-family:Nimbus Roman No9 L;-inkscape-font-specification:NimbusRomNo9L-Regu">10,000</tspan></text>
<text
       id="text90"
       transform="scale(0.99906543,-1.0009354)"
       x="148.58665"
       y="-296.34036"
       style="font-size:21.02869987px"><tspan
         id="tspan92"
         y="-296.34036"
         x="148.58665"
         style="font-size:17.45837784px;font-variant:normal;font-weight:normal;writing-mode:lr-tb;fill:#000000;fill-opacity:1;fill-rule:nonzero;stroke:none;font-family:Nimbus Roman No9 L;-inkscape-font-specification:Nimbus Roman No9 L">−</tspan></text>
<text
       id="text96"
       transform="scale(0.99906543,-1.0009354)"
       x="159.69156"
       y="-296.34036"
       style="font-size:21.02869987px"><tspan
         id="tspan98"
         sodipodi:role="line"
         y="-296.34036"
         x="159.69156 168.42075 177.14995"
         style="font-size:17.45837784px;font-variant:normal;writing-mode:lr-tb;fill:#000000;fill-opacity:1;fill-rule:nonzero;stroke:none;font-family:Nimbus Roman No9 L;-inkscape-font-specification:NimbusRomNo9L-Regu">500</tspan></text>
<text
       id="text102"
       transform="scale(0.99906543,-1.0009354)"
       x="177.15062"
       y="-343.58923"
       style="font-size:21.02869987px"><tspan
         id="tspan104"
         y="-343.58923"
         x="177.15062"
         style="font-size:17.45837784px;font-variant:normal;writing-mode:lr-tb;fill:#000000;fill-opacity:1;fill-rule:nonzero;stroke:none;font-family:Nimbus Roman No9 L;-inkscape-font-specification:NimbusRomNo9L-Regu">0</tspan></text>
<text
       id="text108"
       transform="scale(0.99906543,-1.0009354)"
       x="159.6924"
       y="-390.86273"
       style="font-size:21.02869987px"><tspan
         id="tspan110"
         sodipodi:role="line"
         y="-390.86273"
         x="159.6924 168.42159 177.15077"
         style="font-size:17.45837784px;font-variant:normal;writing-mode:lr-tb;fill:#000000;fill-opacity:1;fill-rule:nonzero;stroke:none;font-family:Nimbus Roman No9 L;-inkscape-font-specification:NimbusRomNo9L-Regu">500</tspan></text>
<text
       id="text114"
       transform="scale(0.99906543,-1.0009354)"
       x="146.59875"
       y="-454.25821"
       style="font-size:21.02869987px"><tspan
         id="tspan116"
         sodipodi:role="line"
         y="-454.25821"
         x="146.59875 155.32794 159.69254 168.42172 177.15091"
         style="font-size:17.45837784px;font-variant:normal;writing-mode:lr-tb;fill:#000000;fill-opacity:1;fill-rule:nonzero;stroke:none;font-family:Nimbus Roman No9 L;-inkscape-font-specification:NimbusRomNo9L-Regu">2,000</tspan></text>
<path
       inkscape:connector-curvature="0"
       id="path120"
       style="fill:none;stroke:#000000;stroke-width:0.54556888;stroke-linecap:round;stroke-linejoin:miter;stroke-miterlimit:10;stroke-opacity:1;stroke-dasharray:none"
       d="m 193.01048,9.840939 9.86583,0" /><path
       inkscape:connector-curvature="0"
       id="path124"
       style="fill:none;stroke:#000000;stroke-width:0.54556888;stroke-linecap:round;stroke-linejoin:miter;stroke-miterlimit:10;stroke-opacity:1;stroke-dasharray:none"
       d="m 193.01048,165.505 9.86583,0" /><path
       inkscape:connector-curvature="0"
       id="path128"
       style="fill:none;stroke:#000000;stroke-width:0.54556888;stroke-linecap:round;stroke-linejoin:miter;stroke-miterlimit:10;stroke-opacity:1;stroke-dasharray:none"
       d="m 193.01048,302.62931 9.86583,0" /><path
       inkscape:connector-curvature="0"
       id="path132"
       style="fill:none;stroke:#000000;stroke-width:0.54556888;stroke-linecap:round;stroke-linejoin:miter;stroke-miterlimit:10;stroke-opacity:1;stroke-dasharray:none"
       d="m 193.01048,349.94841 9.86583,0" /><path
       inkscape:connector-curvature="0"
       id="path136"
       style="fill:none;stroke:#000000;stroke-width:0.54556888;stroke-linecap:round;stroke-linejoin:miter;stroke-miterlimit:10;stroke-opacity:1;stroke-dasharray:none"
       d="m 193.01048,397.26725 9.86583,0" /><path
       inkscape:connector-curvature="0"
       id="path140"
       style="fill:none;stroke:#000000;stroke-width:0.54556888;stroke-linecap:round;stroke-linejoin:miter;stroke-miterlimit:10;stroke-opacity:1;stroke-dasharray:none"
       d="m 193.01048,460.69604 9.86583,0" /><path
       inkscape:connector-curvature="0"
       id="path144"
       style="fill:none;stroke:#fafafa;stroke-width:1.63673413;stroke-linecap:butt;stroke-linejoin:miter;stroke-miterlimit:10;stroke-opacity:1;stroke-dasharray:none"
       d="m 202.87631,40.06723 420.9876,0" /><path
       inkscape:connector-curvature="0"
       id="path148"
       style="fill:none;stroke:#fafafa;stroke-width:1.63673413;stroke-linecap:butt;stroke-linejoin:miter;stroke-miterlimit:10;stroke-opacity:1;stroke-dasharray:none"
       d="m 202.87631,195.02137 420.9876,0" /><path
       inkscape:connector-curvature="0"
       id="path152"
       style="fill:none;stroke:#fafafa;stroke-width:1.63673413;stroke-linecap:butt;stroke-linejoin:miter;stroke-miterlimit:10;stroke-opacity:1;stroke-dasharray:none"
       d="m 202.87631,334.35727 420.9876,0" /><path
       inkscape:connector-curvature="0"
       id="path156"
       style="fill:none;stroke:#fafafa;stroke-width:1.63673413;stroke-linecap:butt;stroke-linejoin:miter;stroke-miterlimit:10;stroke-opacity:1;stroke-dasharray:none"
       d="m 202.87631,365.53929 420.9876,0" /><path
       inkscape:connector-curvature="0"
       id="path160"
       style="fill:none;stroke:#fafafa;stroke-width:1.63673413;stroke-linecap:butt;stroke-linejoin:miter;stroke-miterlimit:10;stroke-opacity:1;stroke-dasharray:none"
       d="m 202.87631,439.1801 301.07135,0" /><path
       inkscape:connector-curvature="0"
       id="path164"
       style="fill:none;stroke:#cccccc;stroke-width:0.54556888;stroke-linecap:butt;stroke-linejoin:miter;stroke-miterlimit:10;stroke-opacity:1;stroke-dasharray:none"
       d="m 202.87631,9.840939 420.9876,0" /><path
       inkscape:connector-curvature="0"
       id="path168"
       style="fill:none;stroke:#cccccc;stroke-width:0.54556888;stroke-linecap:butt;stroke-linejoin:miter;stroke-miterlimit:10;stroke-opacity:1;stroke-dasharray:none"
       d="m 202.87631,165.505 420.9876,0" /><path
       inkscape:connector-curvature="0"
       id="path172"
       style="fill:none;stroke:#cccccc;stroke-width:0.54556888;stroke-linecap:butt;stroke-linejoin:miter;stroke-miterlimit:10;stroke-opacity:1;stroke-dasharray:none"
       d="m 202.87631,302.62931 420.9876,0" /><path
       inkscape:connector-curvature="0"
       id="path176"
       style="fill:none;stroke:#cccccc;stroke-width:0.54556888;stroke-linecap:butt;stroke-linejoin:miter;stroke-miterlimit:10;stroke-opacity:1;stroke-dasharray:none"
       d="m 202.87631,349.94841 420.9876,0" /><path
       inkscape:connector-curvature="0"
       id="path180"
       style="fill:none;stroke:#cccccc;stroke-width:0.54556888;stroke-linecap:butt;stroke-linejoin:miter;stroke-miterlimit:10;stroke-opacity:1;stroke-dasharray:none"
       d="m 202.87631,397.26725 420.9876,0" /><path
       inkscape:connector-curvature="0"
       id="path184"
       style="fill:none;stroke:#cccccc;stroke-width:0.54556888;stroke-linecap:butt;stroke-linejoin:miter;stroke-miterlimit:10;stroke-opacity:1;stroke-dasharray:none"
       d="m 202.87631,460.69604 301.07135,0" /><path
       d="m 206.8553,462.3344 5.83228,0 0,5.81592 -5.83228,0 0,-5.81592 z"
       style="fill:#000000;fill-opacity:1;fill-rule:nonzero;stroke:none"
       id="path186"
       inkscape:connector-curvature="0" /><path
       d="m 213.7505,461.679 5.83231,0 0,5.81592 -5.83231,0 0,-5.81592 z"
       style="fill:#000000;fill-opacity:1;fill-rule:nonzero;stroke:none"
       id="path188"
       inkscape:connector-curvature="0" /><path
       d="m 220.673,460.1227 5.80504,0 0,5.8432 -5.80504,0 0,-5.8432 z"
       style="fill:#000000;fill-opacity:1;fill-rule:nonzero;stroke:none"
       id="path190"
       inkscape:connector-curvature="0" /><path
       d="m 227.5681,459.6858 5.80504,0 0,5.81595 -5.80504,0 0,-5.81595 z"
       style="fill:#000000;fill-opacity:1;fill-rule:nonzero;stroke:none"
       id="path192"
       inkscape:connector-curvature="0" /><path
       d="m 234.4633,458.9212 5.80508,0 0,5.81595 -5.80508,0 0,-5.81595 z"
       style="fill:#000000;fill-opacity:1;fill-rule:nonzero;stroke:none"
       id="path194"
       inkscape:connector-curvature="0" /><path
       d="m 241.3585,458.5936 5.83229,0 0,5.81595 -5.83229,0 0,-5.81595 z"
       style="fill:#000000;fill-opacity:1;fill-rule:nonzero;stroke:none"
       id="path196"
       inkscape:connector-curvature="0" /><path
       d="m 248.281,458.2659 5.80499,0 0,5.81595 -5.80499,0 0,-5.81595 z"
       style="fill:#000000;fill-opacity:1;fill-rule:nonzero;stroke:none"
       id="path198"
       inkscape:connector-curvature="0" /><path
       d="m 255.1761,457.6925 5.80496,0 0,5.81589 -5.80496,0 0,-5.81589 z"
       style="fill:#000000;fill-opacity:1;fill-rule:nonzero;stroke:none"
       id="path200"
       inkscape:connector-curvature="0" /><path
       d="m 262.0714,456.2454 5.80499,0 0,5.81586 -5.80499,0 0,-5.81586 z"
       style="fill:#000000;fill-opacity:1;fill-rule:nonzero;stroke:none"
       id="path202"
       inkscape:connector-curvature="0" /><path
       d="m 268.9665,456.1635 5.83227,0 0,5.81595 -5.83227,0 0,-5.81595 z"
       style="fill:#000000;fill-opacity:1;fill-rule:nonzero;stroke:none"
       id="path204"
       inkscape:connector-curvature="0" /><path
       d="m 275.8617,454.9348 5.83231,0 0,5.84317 -5.83231,0 0,-5.84317 z"
       style="fill:#000000;fill-opacity:1;fill-rule:nonzero;stroke:none"
       id="path206"
       inkscape:connector-curvature="0" /><path
       d="m 282.7841,453.2965 5.80505,0 0,5.81589 -5.80505,0 0,-5.81589 z"
       style="fill:#000000;fill-opacity:1;fill-rule:nonzero;stroke:none"
       id="path208"
       inkscape:connector-curvature="0" /><path
       d="m 289.6793,453.1327 5.80502,0 0,5.81589 -5.80502,0 0,-5.81589 z"
       style="fill:#000000;fill-opacity:1;fill-rule:nonzero;stroke:none"
       id="path210"
       inkscape:connector-curvature="0" /><path
       d="m 296.5745,450.7025 5.83231,0 0,5.8432 -5.83231,0 0,-5.8432 z"
       style="fill:#000000;fill-opacity:1;fill-rule:nonzero;stroke:none"
       id="path212"
       inkscape:connector-curvature="0" /><path
       d="m 303.4697,443.2483 5.83227,0 0,5.84323 -5.83227,0 0,-5.84323 z"
       style="fill:#000000;fill-opacity:1;fill-rule:nonzero;stroke:none"
       id="path214"
       inkscape:connector-curvature="0" /><path
       d="m 310.3921,434.7566 5.80502,0 0,5.8432 -5.80502,0 0,-5.8432 z"
       style="fill:#000000;fill-opacity:1;fill-rule:nonzero;stroke:none"
       id="path216"
       inkscape:connector-curvature="0" /><path
       d="m 317.2873,416.5444 5.80502,0 0,5.84317 -5.80502,0 0,-5.84317 z"
       style="fill:#000000;fill-opacity:1;fill-rule:nonzero;stroke:none"
       id="path218"
       inkscape:connector-curvature="0" /><path
       d="m 324.1824,415.0426 5.80505,0 0,5.81586 -5.80505,0 0,-5.81586 z"
       style="fill:#000000;fill-opacity:1;fill-rule:nonzero;stroke:none"
       id="path220"
       inkscape:connector-curvature="0" /><path
       d="m 331.0776,414.1962 5.83227,0 0,5.81592 -5.83227,0 0,-5.81592 z"
       style="fill:#000000;fill-opacity:1;fill-rule:nonzero;stroke:none"
       id="path222"
       inkscape:connector-curvature="0" /><path
       d="m 469.1176,156.276 5.80499,0 0,5.84323 -5.80499,0 0,-5.84323 z"
       style="fill:#000000;fill-opacity:1;fill-rule:nonzero;stroke:none"
       id="path224"
       inkscape:connector-curvature="0" /><path
       d="m 343.8051,305.387 c 0,1.6135 -1.3056,2.9216 -2.9162,2.9216 -1.6105,0 -2.9161,-1.3081 -2.9161,-2.9216 0,-1.6136 1.3056,-2.9217 2.9161,-2.9217 1.6106,0 2.9162,1.3081 2.9162,2.9217 z"
       style="fill:#000000;fill-opacity:1;fill-rule:nonzero;stroke:none"
       id="path226"
       inkscape:connector-curvature="0" /><path
       d="m 350.7003,286.0552 c 0,1.6136 -1.3056,2.9216 -2.9162,2.9216 -1.6105,0 -2.9161,-1.308 -2.9161,-2.9216 0,-1.6135 1.3056,-2.9216 2.9161,-2.9216 1.6106,0 2.9162,1.3081 2.9162,2.9216 z"
       style="fill:#000000;fill-opacity:1;fill-rule:nonzero;stroke:none"
       id="path228"
       inkscape:connector-curvature="0" /><path
       d="m 357.6227,284.9904 c 0,1.6135 -1.3056,2.9216 -2.9162,2.9216 -1.6105,0 -2.9161,-1.3081 -2.9161,-2.9216 0,-1.6136 1.3056,-2.9216 2.9161,-2.9216 1.6106,0 2.9162,1.308 2.9162,2.9216 z"
       style="fill:#000000;fill-opacity:1;fill-rule:nonzero;stroke:none"
       id="path230"
       inkscape:connector-curvature="0" /><path
       d="m 364.5179,275.6794 c 0,1.6136 -1.3056,2.9217 -2.9162,2.9217 -1.6105,0 -2.9162,-1.3081 -2.9162,-2.9217 0,-1.6135 1.3057,-2.9216 2.9162,-2.9216 1.6106,0 2.9162,1.3081 2.9162,2.9216 z"
       style="fill:#000000;fill-opacity:1;fill-rule:nonzero;stroke:none"
       id="path232"
       inkscape:connector-curvature="0" /><path
       d="m 371.4131,265.9863 c 0,1.6135 -1.3056,2.9216 -2.9162,2.9216 -1.6105,0 -2.9161,-1.3081 -2.9161,-2.9216 0,-1.6136 1.3056,-2.9217 2.9161,-2.9217 1.6106,0 2.9162,1.3081 2.9162,2.9217 z"
       style="fill:#000000;fill-opacity:1;fill-rule:nonzero;stroke:none"
       id="path234"
       inkscape:connector-curvature="0" /><path
       inkscape:connector-curvature="0"
       id="path238"
       style="fill:none;stroke:#000000;stroke-width:1.09113777;stroke-linecap:butt;stroke-linejoin:miter;stroke-miterlimit:10;stroke-opacity:1;stroke-dasharray:none"
       d="m 378.30836,238.49041 c 0,1.61371 -1.30567,2.92156 -2.91637,2.92156 -1.61042,0 -2.9161,-1.30785 -2.9161,-2.92156 0,-1.61343 1.30568,-2.92156 2.9161,-2.92156 1.6107,0 2.91637,1.30813 2.91637,2.92156 z" /><path
       inkscape:connector-curvature="0"
       id="path242"
       style="fill:none;stroke:#000000;stroke-width:1.09113777;stroke-linecap:butt;stroke-linejoin:miter;stroke-miterlimit:10;stroke-opacity:1;stroke-dasharray:none"
       d="m 385.23068,237.39825 c 0,1.61344 -1.30568,2.92156 -2.9161,2.92156 -1.61042,0 -2.9161,-1.30812 -2.9161,-2.92156 0,-1.61343 1.30568,-2.92156 2.9161,-2.92156 1.61042,0 2.9161,1.30813 2.9161,2.92156 z" /><path
       inkscape:connector-curvature="0"
       id="path246"
       style="fill:none;stroke:#000000;stroke-width:1.09113777;stroke-linecap:butt;stroke-linejoin:miter;stroke-miterlimit:10;stroke-opacity:1;stroke-dasharray:none"
       d="m 392.12592,221.28857 c 0,1.61343 -1.30568,2.92156 -2.9161,2.92156 -1.6107,0 -2.91638,-1.30813 -2.91638,-2.92156 0,-1.61371 1.30568,-2.92183 2.91638,-2.92183 1.61042,0 2.9161,1.30812 2.9161,2.92183 z" /><path
       inkscape:connector-curvature="0"
       id="path250"
       style="fill:none;stroke:#000000;stroke-width:1.09113777;stroke-linecap:butt;stroke-linejoin:miter;stroke-miterlimit:10;stroke-opacity:1;stroke-dasharray:none"
       d="m 399.02115,202.66668 c 0,1.61354 -1.30568,2.92164 -2.9161,2.92164 -1.61069,0 -2.91637,-1.3081 -2.91637,-2.92164 0,-1.61355 1.30568,-2.92164 2.91637,-2.92164 1.61042,0 2.9161,1.30809 2.9161,2.92164 z" /><path
       inkscape:connector-curvature="0"
       id="path254"
       style="fill:none;stroke:#000000;stroke-width:1.09113777;stroke-linecap:butt;stroke-linejoin:miter;stroke-miterlimit:10;stroke-opacity:1;stroke-dasharray:none"
       d="m 405.91611,194.99411 c 0,1.61354 -1.3054,2.92158 -2.9161,2.92158 -1.61042,0 -2.9161,-1.30804 -2.9161,-2.92158 0,-1.61358 1.30568,-2.92165 2.9161,-2.92165 1.6107,0 2.9161,1.30807 2.9161,2.92165 z" /><path
       inkscape:connector-curvature="0"
       id="path258"
       style="fill:none;stroke:#000000;stroke-width:1.09113777;stroke-linecap:butt;stroke-linejoin:miter;stroke-miterlimit:10;stroke-opacity:1;stroke-dasharray:none"
       d="m 412.81135,189.69696 c 0,1.61354 -1.30568,2.92164 -2.9161,2.92164 -1.61042,0 -2.9161,-1.3081 -2.9161,-2.92164 0,-1.61355 1.30568,-2.92164 2.9161,-2.92164 1.61042,0 2.9161,1.30809 2.9161,2.92164 z" /><path
       inkscape:connector-curvature="0"
       id="path262"
       style="fill:none;stroke:#000000;stroke-width:1.09113777;stroke-linecap:butt;stroke-linejoin:miter;stroke-miterlimit:10;stroke-opacity:1;stroke-dasharray:none"
       d="m 419.73394,187.18494 c 0,1.61357 -1.30568,2.92164 -2.9161,2.92164 -1.61069,0 -2.91637,-1.30807 -2.91637,-2.92164 0,-1.61355 1.30568,-2.92164 2.91637,-2.92164 1.61042,0 2.9161,1.30809 2.9161,2.92164 z" /><path
       inkscape:connector-curvature="0"
       id="path266"
       style="fill:none;stroke:#000000;stroke-width:1.09113777;stroke-linecap:butt;stroke-linejoin:miter;stroke-miterlimit:10;stroke-opacity:1;stroke-dasharray:none"
       d="m 426.62917,186.1747 c 0,1.61354 -1.30568,2.92158 -2.91637,2.92158 -1.61042,0 -2.9161,-1.30804 -2.9161,-2.92158 0,-1.6136 1.30568,-2.92164 2.9161,-2.92164 1.61069,0 2.91637,1.30804 2.91637,2.92164 z" /><path
       inkscape:connector-curvature="0"
       id="path270"
       style="fill:none;stroke:#000000;stroke-width:1.09113777;stroke-linecap:butt;stroke-linejoin:miter;stroke-miterlimit:10;stroke-opacity:1;stroke-dasharray:none"
       d="m 433.52413,181.64209 c 0,1.61354 -1.30567,2.92164 -2.9161,2.92164 -1.61042,0 -2.91609,-1.3081 -2.91609,-2.92164 0,-1.61354 1.30567,-2.92161 2.91609,-2.92161 1.61043,0 2.9161,1.30807 2.9161,2.92161 z" /><path
       inkscape:connector-curvature="0"
       id="path274"
       style="fill:none;stroke:#000000;stroke-width:1.09113777;stroke-linecap:butt;stroke-linejoin:miter;stroke-miterlimit:10;stroke-opacity:1;stroke-dasharray:none"
       d="m 440.41937,177.5464 c 0,1.61354 -1.30568,2.92158 -2.9161,2.92158 -1.61042,0 -2.9161,-1.30804 -2.9161,-2.92158 0,-1.61357 1.30568,-2.92164 2.9161,-2.92164 1.61042,0 2.9161,1.30807 2.9161,2.92164 z" /><path
       inkscape:connector-curvature="0"
       id="path278"
       style="fill:none;stroke:#000000;stroke-width:1.09113777;stroke-linecap:butt;stroke-linejoin:miter;stroke-miterlimit:10;stroke-opacity:1;stroke-dasharray:none"
       d="m 447.34196,165.42308 c 0,1.61355 -1.30568,2.92164 -2.91637,2.92164 -1.61042,0 -2.9161,-1.30809 -2.9161,-2.92164 0,-1.61351 1.30568,-2.92164 2.9161,-2.92164 1.61069,0 2.91637,1.30813 2.91637,2.92164 z" /><path
       inkscape:connector-curvature="0"
       id="path282"
       style="fill:none;stroke:#000000;stroke-width:1.09113777;stroke-linecap:butt;stroke-linejoin:miter;stroke-miterlimit:10;stroke-opacity:1;stroke-dasharray:none"
       d="m 454.23719,163.45717 c 0,1.61354 -1.30567,2.92161 -2.91637,2.92161 -1.61042,0 -2.9161,-1.30807 -2.9161,-2.92161 0,-1.61357 1.30568,-2.92167 2.9161,-2.92167 1.6107,0 2.91637,1.3081 2.91637,2.92167 z" /><path
       inkscape:connector-curvature="0"
       id="path286"
       style="fill:none;stroke:#000000;stroke-width:1.09113777;stroke-linecap:butt;stroke-linejoin:miter;stroke-miterlimit:10;stroke-opacity:1;stroke-dasharray:none"
       d="m 461.13216,163.4299 c 0,1.61349 -1.30541,2.92159 -2.9161,2.92159 -1.61042,0 -2.9161,-1.3081 -2.9161,-2.92159 0,-1.61357 1.30568,-2.92167 2.9161,-2.92167 1.61069,0 2.9161,1.3081 2.9161,2.92167 z" /><path
       inkscape:connector-curvature="0"
       id="path290"
       style="fill:none;stroke:#000000;stroke-width:1.09113777;stroke-linecap:butt;stroke-linejoin:miter;stroke-miterlimit:10;stroke-opacity:1;stroke-dasharray:none"
       d="m 468.02739,162.22844 c 0,1.61355 -1.30568,2.92162 -2.9161,2.92162 -1.61042,0 -2.9161,-1.30807 -2.9161,-2.92162 0,-1.61357 1.30568,-2.92164 2.9161,-2.92164 1.61042,0 2.9161,1.30807 2.9161,2.92164 z" /><path
       inkscape:connector-curvature="0"
       id="path294"
       style="fill:none;stroke:#000000;stroke-width:1.09113777;stroke-linecap:butt;stroke-linejoin:miter;stroke-miterlimit:10;stroke-opacity:1;stroke-dasharray:none"
       d="m 481.84494,158.242 c 0,1.61354 -1.30568,2.92158 -2.9161,2.92158 -1.61042,0 -2.9161,-1.30804 -2.9161,-2.92158 0,-1.6136 1.30568,-2.92165 2.9161,-2.92165 1.61042,0 2.9161,1.30805 2.9161,2.92165 z" /><path
       inkscape:connector-curvature="0"
       id="path298"
       style="fill:none;stroke:#000000;stroke-width:1.09113777;stroke-linecap:butt;stroke-linejoin:miter;stroke-miterlimit:10;stroke-opacity:1;stroke-dasharray:none"
       d="m 488.74018,156.79484 c 0,1.61351 -1.30568,2.92158 -2.9161,2.92158 -1.6107,0 -2.91638,-1.30807 -2.91638,-2.92158 0,-1.61355 1.30568,-2.92159 2.91638,-2.92159 1.61042,0 2.9161,1.30804 2.9161,2.92159 z" /><path
       inkscape:connector-curvature="0"
       id="path302"
       style="fill:none;stroke:#000000;stroke-width:1.09113777;stroke-linecap:butt;stroke-linejoin:miter;stroke-miterlimit:10;stroke-opacity:1;stroke-dasharray:none"
       d="m 495.63541,150.26899 c 0,1.61349 -1.30568,2.92164 -2.9161,2.92164 -1.61069,0 -2.91637,-1.30815 -2.91637,-2.92164 0,-1.61354 1.30568,-2.92161 2.91637,-2.92161 1.61042,0 2.9161,1.30807 2.9161,2.92161 z" /><path
       inkscape:connector-curvature="0"
       id="path306"
       style="fill:none;stroke:#000000;stroke-width:1.09113777;stroke-linecap:butt;stroke-linejoin:miter;stroke-miterlimit:10;stroke-opacity:1;stroke-dasharray:none"
       d="m 502.53065,149.2314 c 0,1.61357 -1.30568,2.92164 -2.9161,2.92164 -1.6107,0 -2.91638,-1.30807 -2.91638,-2.92164 0,-1.61352 1.30568,-2.92164 2.91638,-2.92164 1.61042,0 2.9161,1.30812 2.9161,2.92164 z" /><path
       inkscape:connector-curvature="0"
       id="path310"
       style="fill:none;stroke:#000000;stroke-width:1.09113777;stroke-linecap:butt;stroke-linejoin:miter;stroke-miterlimit:10;stroke-opacity:1;stroke-dasharray:none"
       d="m 509.45296,148.79454 c 0,1.61351 -1.30568,2.92161 -2.9161,2.92161 -1.61069,0 -2.91637,-1.3081 -2.91637,-2.92161 0,-1.61352 1.30568,-2.92167 2.91637,-2.92167 1.61042,0 2.9161,1.30815 2.9161,2.92167 z" /><path
       inkscape:connector-curvature="0"
       id="path314"
       style="fill:none;stroke:#000000;stroke-width:1.09113777;stroke-linecap:butt;stroke-linejoin:miter;stroke-miterlimit:10;stroke-opacity:1;stroke-dasharray:none"
       d="m 516.3482,146.69208 c 0,1.61352 -1.30568,2.92162 -2.9161,2.92162 -1.61069,0 -2.91637,-1.3081 -2.91637,-2.92162 0,-1.61357 1.30568,-2.92167 2.91637,-2.92167 1.61042,0 2.9161,1.3081 2.9161,2.92167 z" /><path
       inkscape:connector-curvature="0"
       id="path318"
       style="fill:none;stroke:#000000;stroke-width:1.09113777;stroke-linecap:butt;stroke-linejoin:miter;stroke-miterlimit:10;stroke-opacity:1;stroke-dasharray:none"
       d="m 523.24343,144.9719 c 0,1.61357 -1.30568,2.92164 -2.9161,2.92164 -1.61069,0 -2.91637,-1.30807 -2.91637,-2.92164 0,-1.61355 1.30568,-2.92164 2.91637,-2.92164 1.61042,0 2.9161,1.30809 2.9161,2.92164 z" /><path
       inkscape:connector-curvature="0"
       id="path322"
       style="fill:none;stroke:#000000;stroke-width:1.09113777;stroke-linecap:butt;stroke-linejoin:miter;stroke-miterlimit:10;stroke-opacity:1;stroke-dasharray:none"
       d="m 530.1384,133.80426 c 0,1.61357 -1.30541,2.92164 -2.9161,2.92164 -1.61042,0 -2.9161,-1.30807 -2.9161,-2.92164 0,-1.61355 1.30568,-2.92162 2.9161,-2.92162 1.61069,0 2.9161,1.30807 2.9161,2.92162 z" /><path
       inkscape:connector-curvature="0"
       id="path326"
       style="fill:none;stroke:#000000;stroke-width:1.09113777;stroke-linecap:butt;stroke-linejoin:miter;stroke-miterlimit:10;stroke-opacity:1;stroke-dasharray:none"
       d="m 537.06099,132.11137 c 0,1.61352 -1.30568,2.92161 -2.9161,2.92161 -1.6107,0 -2.91638,-1.30809 -2.91638,-2.92161 0,-1.61357 1.30568,-2.92164 2.91638,-2.92164 1.61042,0 2.9161,1.30807 2.9161,2.92164 z" /><path
       inkscape:connector-curvature="0"
       id="path330"
       style="fill:none;stroke:#000000;stroke-width:1.09113777;stroke-linecap:butt;stroke-linejoin:miter;stroke-miterlimit:10;stroke-opacity:1;stroke-dasharray:none"
       d="m 543.95622,126.07703 c 0,1.61358 -1.30568,2.92165 -2.9161,2.92165 -1.61069,0 -2.91637,-1.30807 -2.91637,-2.92165 0,-1.61351 1.30568,-2.92158 2.91637,-2.92158 1.61042,0 2.9161,1.30807 2.9161,2.92158 z" /><path
       inkscape:connector-curvature="0"
       id="path334"
       style="fill:none;stroke:#000000;stroke-width:1.09113777;stroke-linecap:butt;stroke-linejoin:miter;stroke-miterlimit:10;stroke-opacity:1;stroke-dasharray:none"
       d="m 550.85146,123.4558 c 0,1.61352 -1.30568,2.92164 -2.91638,2.92164 -1.61042,0 -2.9161,-1.30812 -2.9161,-2.92164 0,-1.61355 1.30568,-2.92161 2.9161,-2.92161 1.6107,0 2.91638,1.30806 2.91638,2.92161 z" /><path
       inkscape:connector-curvature="0"
       id="path338"
       style="fill:none;stroke:#000000;stroke-width:1.09113777;stroke-linecap:butt;stroke-linejoin:miter;stroke-miterlimit:10;stroke-opacity:1;stroke-dasharray:none"
       d="m 557.74642,118.65016 c 0,1.61358 -1.30541,2.92164 -2.9161,2.92164 -1.61042,0 -2.9161,-1.30806 -2.9161,-2.92164 0,-1.61354 1.30568,-2.92161 2.9161,-2.92161 1.61069,0 2.9161,1.30807 2.9161,2.92161 z" /><path
       inkscape:connector-curvature="0"
       id="path342"
       style="fill:none;stroke:#000000;stroke-width:1.09113777;stroke-linecap:butt;stroke-linejoin:miter;stroke-miterlimit:10;stroke-opacity:1;stroke-dasharray:none"
       d="m 564.64165,113.81723 c 0,1.61357 -1.3054,2.92164 -2.9161,2.92164 -1.61042,0 -2.9161,-1.30807 -2.9161,-2.92164 0,-1.61354 1.30568,-2.92167 2.9161,-2.92167 1.6107,0 2.9161,1.30813 2.9161,2.92167 z" /><path
       inkscape:connector-curvature="0"
       id="path346"
       style="fill:none;stroke:#000000;stroke-width:1.09113777;stroke-linecap:butt;stroke-linejoin:miter;stroke-miterlimit:10;stroke-opacity:1;stroke-dasharray:none"
       d="m 571.56397,113.81723 c 0,1.61357 -1.30541,2.92164 -2.9161,2.92164 -1.61042,0 -2.9161,-1.30807 -2.9161,-2.92164 0,-1.61354 1.30568,-2.92167 2.9161,-2.92167 1.61069,0 2.9161,1.30813 2.9161,2.92167 z" /><path
       inkscape:connector-curvature="0"
       id="path350"
       style="fill:none;stroke:#000000;stroke-width:1.09113777;stroke-linecap:butt;stroke-linejoin:miter;stroke-miterlimit:10;stroke-opacity:1;stroke-dasharray:none"
       d="m 578.4592,91.918863 c 0,1.613545 -1.3054,2.921614 -2.9161,2.921614 -1.61042,0 -2.9161,-1.308069 -2.9161,-2.921614 0,-1.613572 1.30568,-2.92164 2.9161,-2.92164 1.6107,0 2.9161,1.308068 2.9161,2.92164 z" /><path
       inkscape:connector-curvature="0"
       id="path354"
       style="fill:none;stroke:#000000;stroke-width:1.09113777;stroke-linecap:butt;stroke-linejoin:miter;stroke-miterlimit:10;stroke-opacity:1;stroke-dasharray:none"
       d="m 585.35444,72.232191 c 0,1.613544 -1.30541,2.921613 -2.9161,2.921613 -1.61042,0 -2.9161,-1.308069 -2.9161,-2.921613 0,-1.613599 1.30568,-2.921668 2.9161,-2.921668 1.61069,0 2.9161,1.308069 2.9161,2.921668 z" /><path
       inkscape:connector-curvature="0"
       id="path358"
       style="fill:none;stroke:#000000;stroke-width:1.09113777;stroke-linecap:butt;stroke-linejoin:miter;stroke-miterlimit:10;stroke-opacity:1;stroke-dasharray:none"
       d="m 592.24967,62.784731 c 0,1.613545 -1.30568,2.921614 -2.9161,2.921614 -1.61069,0 -2.9161,-1.308069 -2.9161,-2.921614 0,-1.613517 1.30541,-2.92164 2.9161,-2.92164 1.61042,0 2.9161,1.308123 2.9161,2.92164 z" /><path
       inkscape:connector-curvature="0"
       id="path362"
       style="fill:none;stroke:#000000;stroke-width:1.09113777;stroke-linecap:butt;stroke-linejoin:miter;stroke-miterlimit:10;stroke-opacity:1;stroke-dasharray:none"
       d="m 599.17226,49.623878 c 0,1.613517 -1.30568,2.92164 -2.91637,2.92164 -1.61042,0 -2.9161,-1.308123 -2.9161,-2.92164 0,-1.613517 1.30568,-2.921586 2.9161,-2.921586 1.61069,0 2.91637,1.308069 2.91637,2.921586 z" /><path
       inkscape:connector-curvature="0"
       id="path366"
       style="fill:none;stroke:#000000;stroke-width:1.09113777;stroke-linecap:butt;stroke-linejoin:miter;stroke-miterlimit:10;stroke-opacity:1;stroke-dasharray:none"
       d="m 606.06723,34.933947 c 0,1.613572 -1.30568,2.921641 -2.9161,2.921641 -1.61042,0 -2.9161,-1.308069 -2.9161,-2.921641 0,-1.613544 1.30568,-2.921613 2.9161,-2.921613 1.61042,0 2.9161,1.308069 2.9161,2.921613 z" /><path
       inkscape:connector-curvature="0"
       id="path370"
       style="fill:none;stroke:#000000;stroke-width:1.09113777;stroke-linecap:butt;stroke-linejoin:miter;stroke-miterlimit:10;stroke-opacity:1;stroke-dasharray:none"
       d="m 612.96246,31.985064 c 0,1.613517 -1.30541,2.921614 -2.9161,2.921614 -1.61042,0 -2.9161,-1.308097 -2.9161,-2.921614 0,-1.613572 1.30568,-2.921613 2.9161,-2.921613 1.61069,0 2.9161,1.308041 2.9161,2.921613 z" /><path
       inkscape:connector-curvature="0"
       id="path374"
       style="fill:none;stroke:#000000;stroke-width:1.09113777;stroke-linecap:butt;stroke-linejoin:miter;stroke-miterlimit:10;stroke-opacity:1;stroke-dasharray:none"
       d="m 619.85769,23.138306 c 0,1.613544 -1.30567,2.921613 -2.91637,2.921613 -1.61042,0 -2.9161,-1.308069 -2.9161,-2.921613 0,-1.613572 1.30568,-2.921641 2.9161,-2.921641 1.6107,0 2.91637,1.308069 2.91637,2.921641 z" /><text
       id="text378"
       transform="scale(0.99906529,-1.0009356)"
       x="345.45963"
       y="-306.48776"
       style="font-size:18.72868538px"><tspan
         id="tspan380"
         sodipodi:role="line"
         y="-306.48776"
         x="345.45963 351.50815 359.28256 367.05701 372.23477 376.55737 382.60587 386.4931 394.26752 401.17123 408.94565 416.72009 424.49454 428.38174 435.28543 443.05988"
         style="font-size:15.54886627px;font-variant:normal;writing-mode:lr-tb;fill:#000000;fill-opacity:1;fill-rule:nonzero;stroke:none;font-family:Nimbus Roman No9 L;-inkscape-font-specification:NimbusRomNo9L-Regu">sports.yahoo.com</tspan></text>
<text
       id="text384"
       transform="scale(0.99906529,-1.0009356)"
       x="269.08005"
       y="-283.30148"
       style="font-size:18.72868538px"><tspan
         id="tspan386"
         sodipodi:role="line"
         y="-283.30148"
         x="269.08005 276.85446 283.75818 291.53259 299.30704 306.21072 310.53333 314.42053 321.32422 329.09866"
         style="font-size:15.54886627px;font-variant:normal;writing-mode:lr-tb;fill:#000000;fill-opacity:1;fill-rule:nonzero;stroke:none;font-family:Nimbus Roman No9 L;-inkscape-font-specification:NimbusRomNo9L-Regu">paypal.com</tspan></text>
<text
       id="text390"
       transform="scale(0.99906529,-1.0009356)"
       x="359.64584"
       y="-287.3949"
       style="font-size:18.72868538px"><tspan
         id="tspan392"
         sodipodi:role="line"
         y="-287.3949"
         x="359.64584 363.96841 371.74286 378.64655 384.69507 391.59875 399.3732 404.55096 412.32541 418.3739 422.26114 429.16483 436.93927"
         style="font-size:15.54886627px;font-variant:normal;writing-mode:lr-tb;fill:#000000;fill-opacity:1;fill-rule:nonzero;stroke:none;font-family:Nimbus Roman No9 L;-inkscape-font-specification:NimbusRomNo9L-Regu">thesaurus.com</tspan></text>
<text
       id="text396"
       transform="scale(0.99906529,-1.0009356)"
       x="288.1756"
       y="-264.20587"
       style="font-size:18.72868538px"><tspan
         id="tspan398"
         sodipodi:role="line"
         y="-264.20587"
         x="288.1756 292.4982 303.72449 308.04706 312.36966 316.69223 323.59592 327.91852 331.80573 338.70941 346.48386"
         style="font-size:15.54886627px;font-variant:normal;writing-mode:lr-tb;fill:#000000;fill-opacity:1;fill-rule:nonzero;stroke:none;font-family:Nimbus Roman No9 L;-inkscape-font-specification:NimbusRomNo9L-Regu">twitter.com</tspan></text>
<text
       id="text402"
       transform="scale(0.99906529,-1.0009356)"
       x="374.10309"
       y="-257.38803"
       style="font-size:18.72868538px"><tspan
         id="tspan404"
         sodipodi:role="line"
         y="-257.38803"
         x="374.10309 381.8775 388.78122 396.55563 404.33008 412.10452 415.99173 422.89542 430.66986"
         style="font-size:15.54886627px;font-variant:normal;writing-mode:lr-tb;fill:#000000;fill-opacity:1;fill-rule:nonzero;stroke:none;font-family:Nimbus Roman No9 L;-inkscape-font-specification:NimbusRomNo9L-Regu">yahoo.com</tspan></text>
<path
       inkscape:connector-curvature="0"
       id="path408"
       style="fill:none;stroke:#000000;stroke-width:1.09113777;stroke-linecap:butt;stroke-linejoin:miter;stroke-miterlimit:10;stroke-opacity:1;stroke-dasharray:none"
       d="M 470.50744,153.87325 452.79255,134.75993" /><text
       id="text412"
       transform="scale(0.99906529,-1.0009356)"
       x="285.57172"
       y="-129.47707"
       style="font-size:18.72868538px"><tspan
         id="tspan414"
         sodipodi:role="line"
         y="-129.47707"
         x="285.57172 293.34616 301.12057 308.89502 315.79871 320.12131 327.02499 333.92868 338.25128 345.15497 356.81662 365.22855 372.13226 379.03595 385.93967 393.71408 401.48853 409.26294 420.92459 428.69904 433.02161 439.07013 443.39273"
         style="font-size:15.54886627px;font-variant:normal;writing-mode:lr-tb;fill:#000000;fill-opacity:1;fill-rule:nonzero;stroke:none;font-family:Nimbus Roman No9 L;-inkscape-font-specification:NimbusRomNo9L-Regu">undetectedFacebookvisit</tspan></text>
</g></svg>