<?xml version="1.0" encoding="UTF-8" standalone="no"?>
<!-- Created with Inkscape (http://www.inkscape.org/) -->

<svg
   xmlns:dc="http://purl.org/dc/elements/1.1/"
   xmlns:cc="http://creativecommons.org/ns#"
   xmlns:rdf="http://www.w3.org/1999/02/22-rdf-syntax-ns#"
   xmlns:svg="http://www.w3.org/2000/svg"
   xmlns="http://www.w3.org/2000/svg"
   xmlns:sodipodi="http://sodipodi.sourceforge.net/DTD/sodipodi-0.dtd"
   xmlns:inkscape="http://www.inkscape.org/namespaces/inkscape"
   id="svg10276"
   version="1.1"
   inkscape:version="0.48.3.1 r9886"
   width="862.93439"
   height="430.11441"
   xml:space="preserve"
   sodipodi:docname="performance.pdf"><metadata
     id="metadata10282"><rdf:RDF><cc:Work
         rdf:about=""><dc:format>image/svg+xml</dc:format><dc:type
           rdf:resource="http://purl.org/dc/dcmitype/StillImage" /><dc:title></dc:title></cc:Work></rdf:RDF></metadata><defs
     id="defs10280"><clipPath
       clipPathUnits="userSpaceOnUse"
       id="clipPath10292"><path
         d="M 0,0 715,0 715,393 0,393 0,0 z"
         id="path10294"
         inkscape:connector-curvature="0" /></clipPath><clipPath
       clipPathUnits="userSpaceOnUse"
       id="clipPath10302"><path
         d="m 0.6250394,15.42093 0,0 0,0 0,0 z"
         id="path10304"
         inkscape:connector-curvature="0" /></clipPath><clipPath
       clipPathUnits="userSpaceOnUse"
       id="clipPath10308"><path
         d="m 0.6250394,15.42092 714.1249006,0 0,361.9082 -714.1249006,0 0,-361.9082 z"
         id="path10310"
         inkscape:connector-curvature="0" /></clipPath><clipPath
       clipPathUnits="userSpaceOnUse"
       id="clipPath10768"><path
         d="m 0.6250394,15.42093 0,0 0,0 0,0 z"
         id="path10770"
         inkscape:connector-curvature="0" /></clipPath><clipPath
       clipPathUnits="userSpaceOnUse"
       id="clipPath10774"><path
         d="m 0.6250394,15.42092 714.1249006,0 0,361.9082 -714.1249006,0 0,-361.9082 z"
         id="path10776"
         inkscape:connector-curvature="0" /></clipPath><clipPath
       clipPathUnits="userSpaceOnUse"
       id="clipPath11234"><path
         d="m 0.6250394,15.42093 0,0 0,0 0,0 z"
         id="path11236"
         inkscape:connector-curvature="0" /></clipPath><clipPath
       clipPathUnits="userSpaceOnUse"
       id="clipPath11240"><path
         d="m 0.6250394,15.42092 714.1249006,0 0,361.9082 -714.1249006,0 0,-361.9082 z"
         id="path11242"
         inkscape:connector-curvature="0" /></clipPath><clipPath
       clipPathUnits="userSpaceOnUse"
       id="clipPath11700"><path
         d="m 0.6250394,15.42093 714.1249006,0 0,361.9082 -714.1249006,0 0,-361.9082 z"
         id="path11702"
         inkscape:connector-curvature="0" /></clipPath><clipPath
       clipPathUnits="userSpaceOnUse"
       id="clipPath12752"><path
         d="m 92.85703,92.17454 587.3596,0 0,268.1998 -587.3596,0 0,-268.1998 z"
         id="path12754"
         inkscape:connector-curvature="0" /></clipPath><clipPath
       clipPathUnits="userSpaceOnUse"
       id="clipPath12960"><path
         d="m 0.6250394,15.42093 714.1249006,0 0,361.9082 -714.1249006,0 0,-361.9082 z"
         id="path12962"
         inkscape:connector-curvature="0" /></clipPath></defs><sodipodi:namedview
     pagecolor="#ffffff"
     bordercolor="#666666"
     borderopacity="1"
     objecttolerance="10"
     gridtolerance="10"
     guidetolerance="10"
     inkscape:pageopacity="0"
     inkscape:pageshadow="2"
     inkscape:window-width="1781"
     inkscape:window-height="1000"
     id="namedview10278"
     showgrid="false"
     fit-margin-top="1"
     fit-margin-left="1"
     fit-margin-right="1"
     fit-margin-bottom="1"
     inkscape:zoom="1"
     inkscape:cx="561.13028"
     inkscape:cy="240.1042"
     inkscape:window-x="0"
     inkscape:window-y="27"
     inkscape:window-maximized="0"
     inkscape:current-layer="g10284" /><g
     id="g10284"
     inkscape:groupmode="layer"
     inkscape:label="performance"
     transform="matrix(1.25,0,0,-1.25,-13.42329,459.99719)"><path
       inkscape:connector-curvature="0"
       id="path12676"
       style="fill:none;stroke:#000000;stroke-width:0.64384228;stroke-linecap:round;stroke-linejoin:round;stroke-miterlimit:10;stroke-opacity:1;stroke-dasharray:none"
       d="m 92.85687,92.174561 0,268.199809" /><text
       id="text12680"
       transform="scale(1.0000019,-0.99999814)"
       x="59.680641"
       y="-86.477898"
       style="font-size:38.77594757px"><tspan
         id="tspan12682"
         y="-86.477898"
         x="59.680641"
         style="font-size:20.57109261px;font-variant:normal;writing-mode:lr-tb;fill:#000000;fill-opacity:1;fill-rule:nonzero;stroke:none;font-family:Nimbus Roman No9 L;-inkscape-font-specification:NimbusRomNo9L-Regu">0</tspan></text>
<text
       id="text12686"
       transform="scale(1.0000019,-0.99999814)"
       x="39.110001"
       y="-130.93518"
       style="font-size:38.77594757px"><tspan
         id="tspan12688"
         sodipodi:role="line"
         y="-130.93518"
         x="39.110001 49.39555 59.681095"
         style="font-size:20.57109261px;font-variant:normal;writing-mode:lr-tb;fill:#000000;fill-opacity:1;fill-rule:nonzero;stroke:none;font-family:Nimbus Roman No9 L;-inkscape-font-specification:NimbusRomNo9L-Regu">100</tspan></text>
<text
       id="text12692"
       transform="scale(1.0000019,-0.99999814)"
       x="39.110001"
       y="-175.36206"
       style="font-size:38.77594757px"><tspan
         id="tspan12694"
         sodipodi:role="line"
         y="-175.36206"
         x="39.110001 49.39555 59.681095"
         style="font-size:20.57109261px;font-variant:normal;writing-mode:lr-tb;fill:#000000;fill-opacity:1;fill-rule:nonzero;stroke:none;font-family:Nimbus Roman No9 L;-inkscape-font-specification:NimbusRomNo9L-Regu">200</tspan></text>
<text
       id="text12698"
       transform="scale(1.0000019,-0.99999814)"
       x="39.110001"
       y="-219.78638"
       style="font-size:38.77594757px"><tspan
         id="tspan12700"
         sodipodi:role="line"
         y="-219.78638"
         x="39.110001 49.39555 59.681095"
         style="font-size:20.57109261px;font-variant:normal;writing-mode:lr-tb;fill:#000000;fill-opacity:1;fill-rule:nonzero;stroke:none;font-family:Nimbus Roman No9 L;-inkscape-font-specification:NimbusRomNo9L-Regu">300</tspan></text>
<text
       id="text12704"
       transform="scale(1.0000019,-0.99999814)"
       x="39.110001"
       y="-264.24622"
       style="font-size:38.77594757px"><tspan
         id="tspan12706"
         sodipodi:role="line"
         y="-264.24622"
         x="39.110001 49.39555 59.681095"
         style="font-size:20.57109261px;font-variant:normal;writing-mode:lr-tb;fill:#000000;fill-opacity:1;fill-rule:nonzero;stroke:none;font-family:Nimbus Roman No9 L;-inkscape-font-specification:NimbusRomNo9L-Regu">400</tspan></text>
<text
       id="text12710"
       transform="scale(1.0000019,-0.99999814)"
       x="39.110001"
       y="-308.67053"
       style="font-size:38.77594757px"><tspan
         id="tspan12712"
         sodipodi:role="line"
         y="-308.67053"
         x="39.110001 49.39555 59.681095"
         style="font-size:20.57109261px;font-variant:normal;writing-mode:lr-tb;fill:#000000;fill-opacity:1;fill-rule:nonzero;stroke:none;font-family:Nimbus Roman No9 L;-inkscape-font-specification:NimbusRomNo9L-Regu">500</tspan></text>
<text
       id="text12716"
       transform="scale(1.0000019,-0.99999814)"
       x="39.110001"
       y="-353.12781"
       style="font-size:38.77594757px"><tspan
         id="tspan12718"
         sodipodi:role="line"
         y="-353.12781"
         x="39.110001 49.39555 59.681095"
         style="font-size:20.57109261px;font-variant:normal;writing-mode:lr-tb;fill:#000000;fill-opacity:1;fill-rule:nonzero;stroke:none;font-family:Nimbus Roman No9 L;-inkscape-font-specification:NimbusRomNo9L-Regu">600</tspan></text>
<path
       inkscape:connector-curvature="0"
       id="path12722"
       style="fill:none;stroke:#000000;stroke-width:0.64384228;stroke-linecap:round;stroke-linejoin:round;stroke-miterlimit:10;stroke-opacity:1;stroke-dasharray:none"
       d="m 79.139853,93.431546 13.717017,0" /><path
       inkscape:connector-curvature="0"
       id="path12726"
       style="fill:none;stroke:#000000;stroke-width:0.64384228;stroke-linecap:round;stroke-linejoin:round;stroke-miterlimit:10;stroke-opacity:1;stroke-dasharray:none"
       d="m 79.139853,137.88809 13.717017,0" /><path
       inkscape:connector-curvature="0"
       id="path12730"
       style="fill:none;stroke:#000000;stroke-width:0.64384228;stroke-linecap:round;stroke-linejoin:round;stroke-miterlimit:10;stroke-opacity:1;stroke-dasharray:none"
       d="m 79.139853,182.31555 13.717017,0" /><path
       inkscape:connector-curvature="0"
       id="path12734"
       style="fill:none;stroke:#000000;stroke-width:0.64384228;stroke-linecap:round;stroke-linejoin:round;stroke-miterlimit:10;stroke-opacity:1;stroke-dasharray:none"
       d="m 79.139853,226.74301 13.717017,0" /><path
       inkscape:connector-curvature="0"
       id="path12738"
       style="fill:none;stroke:#000000;stroke-width:0.64384228;stroke-linecap:round;stroke-linejoin:round;stroke-miterlimit:10;stroke-opacity:1;stroke-dasharray:none"
       d="m 79.139853,271.19955 13.717017,0" /><path
       inkscape:connector-curvature="0"
       id="path12742"
       style="fill:none;stroke:#000000;stroke-width:0.64384228;stroke-linecap:round;stroke-linejoin:round;stroke-miterlimit:10;stroke-opacity:1;stroke-dasharray:none"
       d="m 79.139853,315.62701 13.717017,0" /><path
       inkscape:connector-curvature="0"
       id="path12746"
       style="fill:none;stroke:#000000;stroke-width:0.64384228;stroke-linecap:round;stroke-linejoin:round;stroke-miterlimit:10;stroke-opacity:1;stroke-dasharray:none"
       d="m 79.139853,360.08355 13.717017,0" /><path
       inkscape:connector-curvature="0"
       id="path12758"
       style="fill:none;stroke:#f2f2f2;stroke-width:0.64384228;stroke-linecap:round;stroke-linejoin:round;stroke-miterlimit:10;stroke-opacity:1;stroke-dasharray:none"
       d="m 92.85687,115.64366 587.35976,0" /><path
       inkscape:connector-curvature="0"
       id="path12762"
       style="fill:none;stroke:#f2f2f2;stroke-width:0.64384228;stroke-linecap:round;stroke-linejoin:round;stroke-miterlimit:10;stroke-opacity:1;stroke-dasharray:none"
       d="m 92.85687,160.10343 587.35976,0" /><path
       inkscape:connector-curvature="0"
       id="path12766"
       style="fill:none;stroke:#f2f2f2;stroke-width:0.64384228;stroke-linecap:round;stroke-linejoin:round;stroke-miterlimit:10;stroke-opacity:1;stroke-dasharray:none"
       d="m 92.85687,204.52766 587.35976,0" /><path
       inkscape:connector-curvature="0"
       id="path12770"
       style="fill:none;stroke:#f2f2f2;stroke-width:0.64384228;stroke-linecap:round;stroke-linejoin:round;stroke-miterlimit:10;stroke-opacity:1;stroke-dasharray:none"
       d="m 92.85687,248.98744 587.35976,0" /><path
       inkscape:connector-curvature="0"
       id="path12774"
       style="fill:none;stroke:#f2f2f2;stroke-width:0.64384228;stroke-linecap:round;stroke-linejoin:round;stroke-miterlimit:10;stroke-opacity:1;stroke-dasharray:none"
       d="m 92.85687,293.41166 587.35976,0" /><path
       inkscape:connector-curvature="0"
       id="path12778"
       style="fill:none;stroke:#f2f2f2;stroke-width:0.64384228;stroke-linecap:round;stroke-linejoin:round;stroke-miterlimit:10;stroke-opacity:1;stroke-dasharray:none"
       d="m 92.85687,337.87144 587.35976,0" /><path
       inkscape:connector-curvature="0"
       id="path12782"
       style="fill:none;stroke:#f2f2f2;stroke-width:0.64384228;stroke-linecap:round;stroke-linejoin:round;stroke-miterlimit:10;stroke-opacity:1;stroke-dasharray:none"
       d="m 125.49982,92.174561 0,268.199809" /><path
       inkscape:connector-curvature="0"
       id="path12786"
       style="fill:none;stroke:#f2f2f2;stroke-width:0.64384228;stroke-linecap:round;stroke-linejoin:round;stroke-miterlimit:10;stroke-opacity:1;stroke-dasharray:none"
       d="m 190.7534,92.174561 0,268.199809" /><path
       inkscape:connector-curvature="0"
       id="path12790"
       style="fill:none;stroke:#f2f2f2;stroke-width:0.64384228;stroke-linecap:round;stroke-linejoin:round;stroke-miterlimit:10;stroke-opacity:1;stroke-dasharray:none"
       d="m 256.01021,92.174561 0,268.199809" /><path
       inkscape:connector-curvature="0"
       id="path12794"
       style="fill:none;stroke:#f2f2f2;stroke-width:0.64384228;stroke-linecap:round;stroke-linejoin:round;stroke-miterlimit:10;stroke-opacity:1;stroke-dasharray:none"
       d="m 321.2961,92.174561 0,268.199809" /><path
       inkscape:connector-curvature="0"
       id="path12798"
       style="fill:none;stroke:#f2f2f2;stroke-width:0.64384228;stroke-linecap:round;stroke-linejoin:round;stroke-miterlimit:10;stroke-opacity:1;stroke-dasharray:none"
       d="m 386.55291,92.174561 0,268.199809" /><path
       inkscape:connector-curvature="0"
       id="path12802"
       style="fill:none;stroke:#f2f2f2;stroke-width:0.64384228;stroke-linecap:round;stroke-linejoin:round;stroke-miterlimit:10;stroke-opacity:1;stroke-dasharray:none"
       d="m 451.80649,92.174561 0,268.199809" /><path
       inkscape:connector-curvature="0"
       id="path12806"
       style="fill:none;stroke:#f2f2f2;stroke-width:0.64384228;stroke-linecap:round;stroke-linejoin:round;stroke-miterlimit:10;stroke-opacity:1;stroke-dasharray:none"
       d="m 517.0633,92.174561 0,268.199809" /><path
       inkscape:connector-curvature="0"
       id="path12810"
       style="fill:none;stroke:#f2f2f2;stroke-width:0.64384228;stroke-linecap:round;stroke-linejoin:round;stroke-miterlimit:10;stroke-opacity:1;stroke-dasharray:none"
       d="m 582.31688,92.174561 0,268.199809" /><path
       inkscape:connector-curvature="0"
       id="path12814"
       style="fill:none;stroke:#f2f2f2;stroke-width:0.64384228;stroke-linecap:round;stroke-linejoin:round;stroke-miterlimit:10;stroke-opacity:1;stroke-dasharray:none"
       d="m 647.606,92.174561 0,268.199809" /><path
       inkscape:connector-curvature="0"
       id="path12818"
       style="fill:none;stroke:#e6e6e6;stroke-width:0.64384228;stroke-linecap:round;stroke-linejoin:round;stroke-miterlimit:10;stroke-opacity:1;stroke-dasharray:none"
       d="m 92.85687,93.431546 587.35976,0" /><path
       inkscape:connector-curvature="0"
       id="path12822"
       style="fill:none;stroke:#e6e6e6;stroke-width:0.64384228;stroke-linecap:round;stroke-linejoin:round;stroke-miterlimit:10;stroke-opacity:1;stroke-dasharray:none"
       d="m 92.85687,137.88809 587.35976,0" /><path
       inkscape:connector-curvature="0"
       id="path12826"
       style="fill:none;stroke:#e6e6e6;stroke-width:0.64384228;stroke-linecap:round;stroke-linejoin:round;stroke-miterlimit:10;stroke-opacity:1;stroke-dasharray:none"
       d="m 92.85687,182.31555 587.35976,0" /><path
       inkscape:connector-curvature="0"
       id="path12830"
       style="fill:none;stroke:#e6e6e6;stroke-width:0.64384228;stroke-linecap:round;stroke-linejoin:round;stroke-miterlimit:10;stroke-opacity:1;stroke-dasharray:none"
       d="m 92.85687,226.74301 587.35976,0" /><path
       inkscape:connector-curvature="0"
       id="path12834"
       style="fill:none;stroke:#e6e6e6;stroke-width:0.64384228;stroke-linecap:round;stroke-linejoin:round;stroke-miterlimit:10;stroke-opacity:1;stroke-dasharray:none"
       d="m 92.85687,271.19955 587.35976,0" /><path
       inkscape:connector-curvature="0"
       id="path12838"
       style="fill:none;stroke:#e6e6e6;stroke-width:0.64384228;stroke-linecap:round;stroke-linejoin:round;stroke-miterlimit:10;stroke-opacity:1;stroke-dasharray:none"
       d="m 92.85687,315.62701 587.35976,0" /><path
       inkscape:connector-curvature="0"
       id="path12842"
       style="fill:none;stroke:#e6e6e6;stroke-width:0.64384228;stroke-linecap:round;stroke-linejoin:round;stroke-miterlimit:10;stroke-opacity:1;stroke-dasharray:none"
       d="m 92.85687,360.08355 587.35976,0" /><path
       inkscape:connector-curvature="0"
       id="path12846"
       style="fill:none;stroke:#e6e6e6;stroke-width:0.64384228;stroke-linecap:round;stroke-linejoin:round;stroke-miterlimit:10;stroke-opacity:1;stroke-dasharray:none"
       d="m 92.85687,92.174561 0,268.199809" /><path
       inkscape:connector-curvature="0"
       id="path12850"
       style="fill:none;stroke:#e6e6e6;stroke-width:0.64384228;stroke-linecap:round;stroke-linejoin:round;stroke-miterlimit:10;stroke-opacity:1;stroke-dasharray:none"
       d="m 158.14276,92.174561 0,268.199809" /><path
       inkscape:connector-curvature="0"
       id="path12854"
       style="fill:none;stroke:#e6e6e6;stroke-width:0.64384228;stroke-linecap:round;stroke-linejoin:round;stroke-miterlimit:10;stroke-opacity:1;stroke-dasharray:none"
       d="m 223.39634,92.174561 0,268.199809" /><path
       inkscape:connector-curvature="0"
       id="path12858"
       style="fill:none;stroke:#e6e6e6;stroke-width:0.64384228;stroke-linecap:round;stroke-linejoin:round;stroke-miterlimit:10;stroke-opacity:1;stroke-dasharray:none"
       d="m 288.65315,92.174561 0,268.199809" /><path
       inkscape:connector-curvature="0"
       id="path12862"
       style="fill:none;stroke:#e6e6e6;stroke-width:0.64384228;stroke-linecap:round;stroke-linejoin:round;stroke-miterlimit:10;stroke-opacity:1;stroke-dasharray:none"
       d="m 353.90673,92.174561 0,268.199809" /><path
       inkscape:connector-curvature="0"
       id="path12866"
       style="fill:none;stroke:#e6e6e6;stroke-width:0.64384228;stroke-linecap:round;stroke-linejoin:round;stroke-miterlimit:10;stroke-opacity:1;stroke-dasharray:none"
       d="m 419.16354,92.174561 0,268.199809" /><path
       inkscape:connector-curvature="0"
       id="path12870"
       style="fill:none;stroke:#e6e6e6;stroke-width:0.64384228;stroke-linecap:round;stroke-linejoin:round;stroke-miterlimit:10;stroke-opacity:1;stroke-dasharray:none"
       d="m 484.45266,92.174561 0,268.199809" /><path
       inkscape:connector-curvature="0"
       id="path12874"
       style="fill:none;stroke:#e6e6e6;stroke-width:0.64384228;stroke-linecap:round;stroke-linejoin:round;stroke-miterlimit:10;stroke-opacity:1;stroke-dasharray:none"
       d="m 549.70624,92.174561 0,268.199809" /><path
       inkscape:connector-curvature="0"
       id="path12878"
       style="fill:none;stroke:#e6e6e6;stroke-width:0.64384228;stroke-linecap:round;stroke-linejoin:round;stroke-miterlimit:10;stroke-opacity:1;stroke-dasharray:none"
       d="m 614.96305,92.174561 0,268.199809" /><path
       inkscape:connector-curvature="0"
       id="path12882"
       style="fill:none;stroke:#e6e6e6;stroke-width:0.64384228;stroke-linecap:round;stroke-linejoin:round;stroke-miterlimit:10;stroke-opacity:1;stroke-dasharray:none"
       d="m 680.21663,92.174561 0,268.199809" /><path
       inkscape:connector-curvature="0"
       id="path12886"
       style="fill:none;stroke:#1c9e78;stroke-width:1.93155921;stroke-linecap:butt;stroke-linejoin:round;stroke-miterlimit:10;stroke-opacity:1;stroke-dasharray:none"
       d="m 92.85687,200.6016 65.28589,71.72568 65.25358,25.75365 65.25681,10.11081 65.25358,12.00759 65.25681,9.20604 65.28912,7.40296 65.25358,2.96312 65.25681,6.1169 65.25358,2.28454" /><path
       inkscape:connector-curvature="0"
       id="path12890"
       style="fill:none;stroke:#d95e03;stroke-width:1.93155921;stroke-linecap:butt;stroke-linejoin:round;stroke-miterlimit:10;stroke-opacity:1;stroke-dasharray:none"
       d="m 92.85687,188.49707 65.28589,63.67645 65.25358,33.41511 65.25681,-11.58752 65.25358,39.82282 65.25681,-1.77076 65.28912,14.51833 65.25358,0.73997 65.25681,14.19844 65.25358,-2.47843" /><path
       inkscape:connector-curvature="0"
       id="path12894"
       style="fill:none;stroke:#7570b2;stroke-width:1.93155921;stroke-linecap:butt;stroke-linejoin:round;stroke-miterlimit:10;stroke-opacity:1;stroke-dasharray:none"
       d="m 92.85687,104.37604 65.28589,0.38452 65.25358,0.99848 65.25681,-0.28758 65.25358,-0.61072 65.25681,0.0937 65.28912,0.0323 65.25358,0.19388 65.25681,0.35544 65.25358,0.12925" /><path
       d="m 98.00778,200.6016 c 0,2.8436 -2.30717,5.1507 -5.15075,5.1507 -2.8468,0 -5.15397,-2.3071 -5.15397,-5.1507 0,-2.8468 2.30717,-5.1507 5.15397,-5.1507 2.84358,0 5.15075,2.3039 5.15075,5.1507 z"
       style="fill:#1c9e78;fill-opacity:1;fill-rule:nonzero;stroke:none"
       id="path12896"
       inkscape:connector-curvature="0" /><path
       d="m 163.2937,272.3273 c 0,2.8435 -2.3072,5.1507 -5.1508,5.1507 -2.8436,0 -5.1507,-2.3072 -5.1507,-5.1507 0,-2.8436 2.3071,-5.1508 5.1507,-5.1508 2.8436,0 5.1508,2.3072 5.1508,5.1508 z"
       style="fill:#1c9e78;fill-opacity:1;fill-rule:nonzero;stroke:none"
       id="path12898"
       inkscape:connector-curvature="0" /><path
       d="m 228.5505,298.0809 c 0,2.8436 -2.3072,5.1508 -5.154,5.1508 -2.8436,0 -5.1475,-2.3072 -5.1475,-5.1508 0,-2.8436 2.3039,-5.1507 5.1475,-5.1507 2.8468,0 5.154,2.3071 5.154,5.1507 z"
       style="fill:#1c9e78;fill-opacity:1;fill-rule:nonzero;stroke:none"
       id="path12900"
       inkscape:connector-curvature="0" /><path
       d="m 293.804,308.1917 c 0,2.8436 -2.3071,5.1475 -5.1507,5.1475 -2.8435,0 -5.1507,-2.3039 -5.1507,-5.1475 0,-2.8468 2.3072,-5.1539 5.1507,-5.1539 2.8436,0 5.1507,2.3071 5.1507,5.1539 z"
       style="fill:#1c9e78;fill-opacity:1;fill-rule:nonzero;stroke:none"
       id="path12902"
       inkscape:connector-curvature="0" /><path
       d="m 359.0609,320.1993 c 0,2.8436 -2.3072,5.1507 -5.154,5.1507 -2.8436,0 -5.1475,-2.3071 -5.1475,-5.1507 0,-2.8468 2.3039,-5.1539 5.1475,-5.1539 2.8468,0 5.154,2.3071 5.154,5.1539 z"
       style="fill:#1c9e78;fill-opacity:1;fill-rule:nonzero;stroke:none"
       id="path12904"
       inkscape:connector-curvature="0" /><path
       d="m 424.3145,329.4054 c 0,2.8435 -2.3072,5.1507 -5.1508,5.1507 -2.8436,0 -5.1507,-2.3072 -5.1507,-5.1507 0,-2.8468 2.3071,-5.1508 5.1507,-5.1508 2.8436,0 5.1508,2.304 5.1508,5.1508 z"
       style="fill:#1c9e78;fill-opacity:1;fill-rule:nonzero;stroke:none"
       id="path12906"
       inkscape:connector-curvature="0" /><path
       d="m 489.6036,336.8083 c 0,2.8468 -2.3072,5.1508 -5.1508,5.1508 -2.8468,0 -5.1507,-2.304 -5.1507,-5.1508 0,-2.8436 2.3039,-5.1507 5.1507,-5.1507 2.8436,0 5.1508,2.3071 5.1508,5.1507 z"
       style="fill:#1c9e78;fill-opacity:1;fill-rule:nonzero;stroke:none"
       id="path12908"
       inkscape:connector-curvature="0" /><path
       d="m 554.8572,339.7715 c 0,2.8435 -2.304,5.1507 -5.1508,5.1507 -2.8435,0 -5.1507,-2.3072 -5.1507,-5.1507 0,-2.8468 2.3072,-5.1508 5.1507,-5.1508 2.8468,0 5.1508,2.304 5.1508,5.1508 z"
       style="fill:#1c9e78;fill-opacity:1;fill-rule:nonzero;stroke:none"
       id="path12910"
       inkscape:connector-curvature="0" /><path
       d="m 620.114,345.8883 c 0,2.8436 -2.3072,5.1508 -5.1508,5.1508 -2.8468,0 -5.1507,-2.3072 -5.1507,-5.1508 0,-2.8467 2.3039,-5.1507 5.1507,-5.1507 2.8436,0 5.1508,2.304 5.1508,5.1507 z"
       style="fill:#1c9e78;fill-opacity:1;fill-rule:nonzero;stroke:none"
       id="path12912"
       inkscape:connector-curvature="0" /><path
       d="m 685.3676,348.1729 c 0,2.8435 -2.3039,5.1507 -5.1508,5.1507 -2.8436,0 -5.1508,-2.3072 -5.1508,-5.1507 0,-2.8436 2.3072,-5.1507 5.1508,-5.1507 2.8469,0 5.1508,2.3071 5.1508,5.1507 z"
       style="fill:#1c9e78;fill-opacity:1;fill-rule:nonzero;stroke:none"
       id="path12914"
       inkscape:connector-curvature="0" /><path
       d="m 92.85703,196.4784 6.95384,-12.0076 -13.87859,0"
       style="fill:#d95e03;fill-opacity:1;fill-rule:nonzero;stroke:none"
       id="path12916"
       inkscape:connector-curvature="0" /><path
       d="m 158.1429,260.1904 6.9216,-12.0076 -13.8754,0"
       style="fill:#d95e03;fill-opacity:1;fill-rule:nonzero;stroke:none"
       id="path12918"
       inkscape:connector-curvature="0" /><path
       d="m 223.3965,293.6055 6.9247,-12.0076 -13.8785,0"
       style="fill:#d95e03;fill-opacity:1;fill-rule:nonzero;stroke:none"
       id="path12920"
       inkscape:connector-curvature="0" /><path
       d="m 288.6533,282.018 6.9216,-12.0076 -13.8754,0"
       style="fill:#d95e03;fill-opacity:1;fill-rule:nonzero;stroke:none"
       id="path12922"
       inkscape:connector-curvature="0" /><path
       d="m 353.9069,321.8408 6.9538,-12.0399 -13.8721,0"
       style="fill:#d95e03;fill-opacity:1;fill-rule:nonzero;stroke:none"
       id="path12924"
       inkscape:connector-curvature="0" /><path
       d="m 419.1637,320.07 6.9538,-12.0398 -13.8753,0"
       style="fill:#d95e03;fill-opacity:1;fill-rule:nonzero;stroke:none"
       id="path12926"
       inkscape:connector-curvature="0" /><path
       d="m 484.4528,334.5884 6.9183,-12.0399 -13.8721,0"
       style="fill:#d95e03;fill-opacity:1;fill-rule:nonzero;stroke:none"
       id="path12928"
       inkscape:connector-curvature="0" /><path
       d="m 549.7064,335.3284 6.9215,-12.0076 -13.8753,0"
       style="fill:#d95e03;fill-opacity:1;fill-rule:nonzero;stroke:none"
       id="path12930"
       inkscape:connector-curvature="0" /><path
       d="m 614.9632,349.4945 6.9215,-12.0076 -13.8753,0"
       style="fill:#d95e03;fill-opacity:1;fill-rule:nonzero;stroke:none"
       id="path12932"
       inkscape:connector-curvature="0" /><path
       d="m 680.2168,347.0484 6.9539,-12.0108 -13.8754,0"
       style="fill:#d95e03;fill-opacity:1;fill-rule:nonzero;stroke:none"
       id="path12934"
       inkscape:connector-curvature="0" /><path
       d="m 87.70306,99.22529 10.30241,0 0,10.3011 -10.30241,0 0,-10.3011 z"
       style="fill:#7570b2;fill-opacity:1;fill-rule:nonzero;stroke:none"
       id="path12936"
       inkscape:connector-curvature="0" /><path
       d="m 152.9599,99.61304 10.33397,0 0,10.3011 -10.33397,0 0,-10.3011 z"
       style="fill:#7570b2;fill-opacity:1;fill-rule:nonzero;stroke:none"
       id="path12938"
       inkscape:connector-curvature="0" /><path
       d="m 218.249,100.6083 10.30115,0 0,10.30237 -10.30115,0 0,-10.30237 z"
       style="fill:#7570b2;fill-opacity:1;fill-rule:nonzero;stroke:none"
       id="path12940"
       inkscape:connector-curvature="0" /><path
       d="m 283.5026,100.3207 10.30112,0 0,10.3011 -10.30112,0 0,-10.3011 z"
       style="fill:#7570b2;fill-opacity:1;fill-rule:nonzero;stroke:none"
       id="path12942"
       inkscape:connector-curvature="0" /><path
       d="m 348.7594,99.70676 10.30112,0 0,10.30237 -10.30112,0 0,-10.30237 z"
       style="fill:#7570b2;fill-opacity:1;fill-rule:nonzero;stroke:none"
       id="path12944"
       inkscape:connector-curvature="0" /><path
       d="m 414.013,99.8037 10.30115,0 0,10.33393 -10.30115,0 0,-10.33393 z"
       style="fill:#7570b2;fill-opacity:1;fill-rule:nonzero;stroke:none"
       id="path12946"
       inkscape:connector-curvature="0" /><path
       d="m 479.2698,99.83601 10.33395,0 0,10.30237 -10.33395,0 0,-10.30237 z"
       style="fill:#7570b2;fill-opacity:1;fill-rule:nonzero;stroke:none"
       id="path12948"
       inkscape:connector-curvature="0" /><path
       d="m 544.5557,100.0299 10.30237,0 0,10.30236 -10.30237,0 0,-10.30236 z"
       style="fill:#7570b2;fill-opacity:1;fill-rule:nonzero;stroke:none"
       id="path12950"
       inkscape:connector-curvature="0" /><path
       d="m 609.8125,100.3853 10.30237,0 0,10.3011 -10.30237,0 0,-10.3011 z"
       style="fill:#7570b2;fill-opacity:1;fill-rule:nonzero;stroke:none"
       id="path12952"
       inkscape:connector-curvature="0" /><path
       d="m 675.066,100.5146 10.30243,0 0,10.3011 -10.30243,0 0,-10.3011 z"
       style="fill:#7570b2;fill-opacity:1;fill-rule:nonzero;stroke:none"
       id="path12954"
       inkscape:connector-curvature="0" /><path
       inkscape:connector-curvature="0"
       id="path12966"
       style="fill:none;stroke:#000000;stroke-width:0.64384228;stroke-linecap:round;stroke-linejoin:round;stroke-miterlimit:10;stroke-opacity:1;stroke-dasharray:none"
       d="m 92.85687,92.174561 587.35976,0" /><text
       id="text12970"
       transform="scale(1.0000019,-0.99999814)"
       x="77.427101"
       y="-55.379589"
       style="font-size:38.77594757px"><tspan
         id="tspan12972"
         sodipodi:role="line"
         y="-55.379589"
         x="77.427101 87.712646 97.998192 142.71358 152.99913 163.28467 207.96713 218.25269 228.53824 273.22278 283.5083 293.79385 338.47635 348.76187 359.04742 403.72989 414.01541 424.30096 469.01636 479.30191 489.58749 534.27197 544.55756 554.84308 599.52557 609.8111 620.09668 659.63635 669.92188 680.2074 690.49298"
         style="font-size:20.57109261px;font-variant:normal;writing-mode:lr-tb;fill:#000000;fill-opacity:1;fill-rule:nonzero;stroke:none;font-family:Nimbus Roman No9 L;-inkscape-font-specification:NimbusRomNo9L-Regu">1002003004005006007008009001000</tspan></text>
<path
       inkscape:connector-curvature="0"
       id="path12976"
       style="fill:none;stroke:#000000;stroke-width:0.64384228;stroke-linecap:round;stroke-linejoin:round;stroke-miterlimit:10;stroke-opacity:1;stroke-dasharray:none"
       d="m 92.85687,78.460826 0,13.713735" /><path
       inkscape:connector-curvature="0"
       id="path12980"
       style="fill:none;stroke:#000000;stroke-width:0.64384228;stroke-linecap:round;stroke-linejoin:round;stroke-miterlimit:10;stroke-opacity:1;stroke-dasharray:none"
       d="m 158.14276,78.460826 0,13.713735" /><path
       inkscape:connector-curvature="0"
       id="path12984"
       style="fill:none;stroke:#000000;stroke-width:0.64384228;stroke-linecap:round;stroke-linejoin:round;stroke-miterlimit:10;stroke-opacity:1;stroke-dasharray:none"
       d="m 223.39634,78.460826 0,13.713735" /><path
       inkscape:connector-curvature="0"
       id="path12988"
       style="fill:none;stroke:#000000;stroke-width:0.64384228;stroke-linecap:round;stroke-linejoin:round;stroke-miterlimit:10;stroke-opacity:1;stroke-dasharray:none"
       d="m 288.65315,78.460826 0,13.713735" /><path
       inkscape:connector-curvature="0"
       id="path12992"
       style="fill:none;stroke:#000000;stroke-width:0.64384228;stroke-linecap:round;stroke-linejoin:round;stroke-miterlimit:10;stroke-opacity:1;stroke-dasharray:none"
       d="m 353.90673,78.460826 0,13.713735" /><path
       inkscape:connector-curvature="0"
       id="path12996"
       style="fill:none;stroke:#000000;stroke-width:0.64384228;stroke-linecap:round;stroke-linejoin:round;stroke-miterlimit:10;stroke-opacity:1;stroke-dasharray:none"
       d="m 419.16354,78.460826 0,13.713735" /><path
       inkscape:connector-curvature="0"
       id="path13000"
       style="fill:none;stroke:#000000;stroke-width:0.64384228;stroke-linecap:round;stroke-linejoin:round;stroke-miterlimit:10;stroke-opacity:1;stroke-dasharray:none"
       d="m 484.45266,78.460826 0,13.713735" /><path
       inkscape:connector-curvature="0"
       id="path13004"
       style="fill:none;stroke:#000000;stroke-width:0.64384228;stroke-linecap:round;stroke-linejoin:round;stroke-miterlimit:10;stroke-opacity:1;stroke-dasharray:none"
       d="m 549.70624,78.460826 0,13.713735" /><path
       inkscape:connector-curvature="0"
       id="path13008"
       style="fill:none;stroke:#000000;stroke-width:0.64384228;stroke-linecap:round;stroke-linejoin:round;stroke-miterlimit:10;stroke-opacity:1;stroke-dasharray:none"
       d="m 614.96305,78.460826 0,13.713735" /><path
       inkscape:connector-curvature="0"
       id="path13012"
       style="fill:none;stroke:#000000;stroke-width:0.64384228;stroke-linecap:round;stroke-linejoin:round;stroke-miterlimit:10;stroke-opacity:1;stroke-dasharray:none"
       d="m 680.21663,78.460826 0,13.713735" /><text
       id="text13016"
       transform="scale(1.0000019,-0.99999814)"
       x="316.35803"
       y="-29.270451"
       style="font-size:38.77594757px"><tspan
         id="tspan13018"
         sodipodi:role="line"
         y="-29.270451"
         x="316.35803 330.69522 337.86383 345.03244 362.92813 372.95901 380.12762 391.57675 409.47247 418.05933 430.95248 448.15195"
         style="font-size:25.78632927px;font-variant:normal;writing-mode:lr-tb;fill:#000000;fill-opacity:1;fill-rule:nonzero;stroke:none;font-family:Nimbus Roman No9 L;-inkscape-font-specification:NimbusRomNo9L-Regu">Filesize(kB)</tspan></text>
<text
       id="text13022"
       transform="matrix(0,0.99999814,1.0000019,0,0,0)"
       x="145.7728"
       y="30.336945"
       style="font-size:38.77594757px"><tspan
         id="tspan13024"
         sodipodi:role="line"
         y="30.336945"
         x="145.7728 164.39052 177.28369 190.17685 203.07002 215.96318 228.85634 242.47153 251.05836 263.95154"
         style="font-size:25.78632927px;font-variant:normal;writing-mode:lr-tb;fill:#000000;fill-opacity:1;fill-rule:nonzero;stroke:none;font-family:Nimbus Roman No9 L;-inkscape-font-specification:NimbusRomNo9L-Regu">Goodput(kB</tspan></text>
<text
       id="text13028"
       transform="matrix(0,0.99999814,1.0000019,0,0,0)"
       x="281.15286"
       y="30.336945"
       style="font-size:38.77594757px"><tspan
         id="tspan13030"
         y="30.336945"
         x="281.15286"
         style="font-size:25.78632927px;font-variant:normal;font-weight:normal;writing-mode:lr-tb;fill:#000000;fill-opacity:1;fill-rule:nonzero;stroke:none;font-family:rtxr;-inkscape-font-specification:rtxr">/</tspan></text>
<text
       id="text13034"
       transform="matrix(0,0.99999814,1.0000019,0,0,0)"
       x="288.18973"
       y="30.336945"
       style="font-size:38.77594757px"><tspan
         id="tspan13036"
         sodipodi:role="line"
         y="30.336945"
         x="288.18973 298.22061"
         style="font-size:25.78632927px;font-variant:normal;writing-mode:lr-tb;fill:#000000;fill-opacity:1;fill-rule:nonzero;stroke:none;font-family:Nimbus Roman No9 L;-inkscape-font-specification:NimbusRomNo9L-Regu">s)</tspan></text>
<path
       d="m 431.8823,178.3248 238.2605,0 0,79.83757 -238.2605,0 0,-79.83757 z"
       style="fill:#ffffff;fill-opacity:1;fill-rule:nonzero;stroke:none"
       id="path13038"
       inkscape:connector-curvature="0" /><path
       inkscape:connector-curvature="0"
       id="path13042"
       style="fill:none;stroke:#1c9e78;stroke-width:1.93155921;stroke-linecap:butt;stroke-linejoin:round;stroke-miterlimit:10;stroke-opacity:1;stroke-dasharray:none"
       d="m 448.42651,235.69054 22.31237,0" /><path
       d="m 464.7191,235.6905 c 0,2.8468 -2.3072,5.1507 -5.1508,5.1507 -2.8468,0 -5.154,-2.3039 -5.154,-5.1507 0,-2.8435 2.3072,-5.1507 5.154,-5.1507 2.8436,0 5.1508,2.3072 5.1508,5.1507 z"
       style="fill:#1c9e78;fill-opacity:1;fill-rule:nonzero;stroke:none"
       id="path13044"
       inkscape:connector-curvature="0" /><path
       inkscape:connector-curvature="0"
       id="path13048"
       style="fill:none;stroke:#d95e03;stroke-width:1.93155921;stroke-linecap:butt;stroke-linejoin:round;stroke-miterlimit:10;stroke-opacity:1;stroke-dasharray:none"
       d="m 448.42651,218.2414 22.31237,0" /><path
       d="m 459.5683,226.2583 6.9506,-12.0399 -13.8753,0"
       style="fill:#d95e03;fill-opacity:1;fill-rule:nonzero;stroke:none"
       id="path13050"
       inkscape:connector-curvature="0" /><path
       inkscape:connector-curvature="0"
       id="path13054"
       style="fill:none;stroke:#7570b2;stroke-width:1.93155921;stroke-linecap:butt;stroke-linejoin:round;stroke-miterlimit:10;stroke-opacity:1;stroke-dasharray:none"
       d="m 448.42651,200.79548 22.31237,0" /><path
       d="m 454.4143,195.6415 10.30118,0 0,10.30235 -10.30118,0 0,-10.30235 z"
       style="fill:#7570b2;fill-opacity:1;fill-rule:nonzero;stroke:none"
       id="path13056"
       inkscape:connector-curvature="0" /><text
       id="text13060"
       transform="scale(1.0000019,-0.99999814)"
       x="478.78079"
       y="-229.15399"
       style="font-size:38.77594757px"><tspan
         id="tspan13062"
         sodipodi:role="line"
         y="-229.15399"
         x="478.78079 489.08865 498.79474"
         style="font-size:19.41217804px;font-variant:normal;writing-mode:lr-tb;fill:#000000;fill-opacity:1;fill-rule:nonzero;stroke:none;font-family:Nimbus Roman No9 L;-inkscape-font-specification:NimbusRomNo9L-Regu">Tor</tspan></text>
<text
       id="text13066"
       transform="scale(1.0000019,-0.99999814)"
       x="478.78079"
       y="-211.70741"
       style="font-size:38.77594757px"><tspan
         id="tspan13068"
         sodipodi:role="line"
         y="-211.70741"
         x="478.78079 489.57394 494.97055 503.29837 513.00446 522.71051 533.01843 542.72449 549.18872 558.89484 571.29919 577.76349 586.38251 596.08856 605.79468 615.50073 625.20685 633.82587 640.2901"
         style="font-size:19.41217804px;font-variant:normal;writing-mode:lr-tb;fill:#000000;fill-opacity:1;fill-rule:nonzero;stroke:none;font-family:Nimbus Roman No9 L;-inkscape-font-specification:NimbusRomNo9L-Regu">StegoTorus(chopper)</tspan></text>
<text
       id="text13072"
       transform="scale(1.0000019,-0.99999814)"
       x="478.78079"
       y="-194.25822"
       style="font-size:38.77594757px"><tspan
         id="tspan13074"
         sodipodi:role="line"
         y="-194.25822"
         x="478.78079 489.57394 494.97055 503.29837 513.00446 522.71051 533.01843 542.72449 549.18872 558.89484 571.29919 577.76349 591.77905 603.63989 615.50073 626.29388"
         style="font-size:19.41217804px;font-variant:normal;writing-mode:lr-tb;fill:#000000;fill-opacity:1;fill-rule:nonzero;stroke:none;font-family:Nimbus Roman No9 L;-inkscape-font-specification:NimbusRomNo9L-Regu">StegoTorus(HTTP)</tspan></text>
</g></svg>