<?xml version="1.0" encoding="UTF-8" standalone="no"?>
<!-- Created with Inkscape (http://www.inkscape.org/) -->
<svg xmlns:rdf="http://www.w3.org/1999/02/22-rdf-syntax-ns#" xmlns="http://www.w3.org/2000/svg" xml:space="preserve" version="1.1" xmlns:cc="http://creativecommons.org/ns#" xmlns:dc="http://purl.org/dc/elements/1.1/" viewBox="0 0 688.75 342.49"><metadata><rdf:RDF><cc:Work rdf:about=""><dc:format>image/svg+xml</dc:format><dc:type rdf:resource="http://purl.org/dc/dcmitype/StillImage"/><dc:title/></cc:Work></rdf:RDF></metadata><defs>
</defs><path stroke-linejoin="round" d="m81.318,275.02,0-268.2" stroke="#000" stroke-linecap="round" stroke-miterlimit="10" stroke-dasharray="none" stroke-width="0.64384228" fill="none"/><text transform="scale(1.0000019,0.99999811)" font-size="38.77594757px" y="280.72055" x="48.142033"><tspan style="" fill-rule="nonzero" font-size="20.57109261px" font-variant="normal" y="280.72055" x="48.142033" font-family="Nimbus Roman No9 L" fill="#000000">0</tspan></text>
<text transform="scale(1.0000019,0.99999811)" font-size="38.77594757px" y="236.26324" x="27.57139"><tspan style="" fill-rule="nonzero" font-size="20.57109261px" font-variant="normal" y="236.26324" x="27.57139 37.856941 48.142487" font-family="Nimbus Roman No9 L" fill="#000000">100</tspan></text>
<text transform="scale(1.0000019,0.99999811)" font-size="38.77594757px" y="191.83638" x="27.57139"><tspan style="" fill-rule="nonzero" font-size="20.57109261px" font-variant="normal" y="191.83638" x="27.57139 37.856941 48.142487" font-family="Nimbus Roman No9 L" fill="#000000">200</tspan></text>
<text transform="scale(1.0000019,0.99999811)" font-size="38.77594757px" y="147.41206" x="27.57139"><tspan style="" fill-rule="nonzero" font-size="20.57109261px" font-variant="normal" y="147.41206" x="27.57139 37.856941 48.142487" font-family="Nimbus Roman No9 L" fill="#000000">300</tspan></text>
<text transform="scale(1.0000019,0.99999811)" font-size="38.77594757px" y="102.95222" x="27.57139"><tspan style="" fill-rule="nonzero" font-size="20.57109261px" font-variant="normal" y="102.95222" x="27.57139 37.856941 48.142487" font-family="Nimbus Roman No9 L" fill="#000000">400</tspan></text>
<text transform="scale(1.0000019,0.99999811)" font-size="38.77594757px" y="58.527908" x="27.57139"><tspan style="" fill-rule="nonzero" font-size="20.57109261px" font-variant="normal" y="58.527908" x="27.57139 37.856941 48.142487" font-family="Nimbus Roman No9 L" fill="#000000">500</tspan></text>
<text transform="scale(1.0000019,0.99999811)" font-size="38.77594757px" y="14.070627" x="27.57139"><tspan style="" fill-rule="nonzero" font-size="20.57109261px" font-variant="normal" y="14.070627" x="27.57139 37.856941 48.142487" font-family="Nimbus Roman No9 L" fill="#000000">600</tspan></text>
<path stroke-linejoin="round" d="m67.601,273.77,13.717,0" stroke="#000" stroke-linecap="round" stroke-miterlimit="10" stroke-dasharray="none" stroke-width="0.64384228" fill="none"/><path stroke-linejoin="round" d="m67.601,229.31,13.717,0" stroke="#000" stroke-linecap="round" stroke-miterlimit="10" stroke-dasharray="none" stroke-width="0.64384228" fill="none"/><path stroke-linejoin="round" d="m67.601,184.88,13.717,0" stroke="#000" stroke-linecap="round" stroke-miterlimit="10" stroke-dasharray="none" stroke-width="0.64384228" fill="none"/><path stroke-linejoin="round" d="m67.601,140.45,13.717,0" stroke="#000" stroke-linecap="round" stroke-miterlimit="10" stroke-dasharray="none" stroke-width="0.64384228" fill="none"/><path stroke-linejoin="round" d="m67.601,95.998,13.717,0" stroke="#000" stroke-linecap="round" stroke-miterlimit="10" stroke-dasharray="none" stroke-width="0.64384228" fill="none"/><path stroke-linejoin="round" d="m67.601,51.571,13.717,0" stroke="#000" stroke-linecap="round" stroke-miterlimit="10" stroke-dasharray="none" stroke-width="0.64384228" fill="none"/><path stroke-linejoin="round" d="m67.601,7.1142,13.717,0" stroke="#000" stroke-linecap="round" stroke-miterlimit="10" stroke-dasharray="none" stroke-width="0.64384228" fill="none"/><path stroke-linejoin="round" d="m81.318,251.55,587.36,0" stroke="#f2f2f2" stroke-linecap="round" stroke-miterlimit="10" stroke-dasharray="none" stroke-width="0.64384228" fill="none"/><path stroke-linejoin="round" d="m81.318,207.09,587.36,0" stroke="#f2f2f2" stroke-linecap="round" stroke-miterlimit="10" stroke-dasharray="none" stroke-width="0.64384228" fill="none"/><path stroke-linejoin="round" d="m81.318,162.67,587.36,0" stroke="#f2f2f2" stroke-linecap="round" stroke-miterlimit="10" stroke-dasharray="none" stroke-width="0.64384228" fill="none"/><path stroke-linejoin="round" d="m81.318,118.21,587.36,0" stroke="#f2f2f2" stroke-linecap="round" stroke-miterlimit="10" stroke-dasharray="none" stroke-width="0.64384228" fill="none"/><path stroke-linejoin="round" d="m81.318,73.786,587.36,0" stroke="#f2f2f2" stroke-linecap="round" stroke-miterlimit="10" stroke-dasharray="none" stroke-width="0.64384228" fill="none"/><path stroke-linejoin="round" d="m81.318,29.326,587.36,0" stroke="#f2f2f2" stroke-linecap="round" stroke-miterlimit="10" stroke-dasharray="none" stroke-width="0.64384228" fill="none"/><path stroke-linejoin="round" d="m113.96,275.02,0-268.2" stroke="#f2f2f2" stroke-linecap="round" stroke-miterlimit="10" stroke-dasharray="none" stroke-width="0.64384228" fill="none"/><path stroke-linejoin="round" d="m179.21,275.02,0-268.2" stroke="#f2f2f2" stroke-linecap="round" stroke-miterlimit="10" stroke-dasharray="none" stroke-width="0.64384228" fill="none"/><path stroke-linejoin="round" d="m244.47,275.02,0-268.2" stroke="#f2f2f2" stroke-linecap="round" stroke-miterlimit="10" stroke-dasharray="none" stroke-width="0.64384228" fill="none"/><path stroke-linejoin="round" d="m309.76,275.02,0-268.2" stroke="#f2f2f2" stroke-linecap="round" stroke-miterlimit="10" stroke-dasharray="none" stroke-width="0.64384228" fill="none"/><path stroke-linejoin="round" d="m375.01,275.02,0-268.2" stroke="#f2f2f2" stroke-linecap="round" stroke-miterlimit="10" stroke-dasharray="none" stroke-width="0.64384228" fill="none"/><path stroke-linejoin="round" d="m440.27,275.02,0-268.2" stroke="#f2f2f2" stroke-linecap="round" stroke-miterlimit="10" stroke-dasharray="none" stroke-width="0.64384228" fill="none"/><path stroke-linejoin="round" d="m505.52,275.02,0-268.2" stroke="#f2f2f2" stroke-linecap="round" stroke-miterlimit="10" stroke-dasharray="none" stroke-width="0.64384228" fill="none"/><path stroke-linejoin="round" d="m570.78,275.02,0-268.2" stroke="#f2f2f2" stroke-linecap="round" stroke-miterlimit="10" stroke-dasharray="none" stroke-width="0.64384228" fill="none"/><path stroke-linejoin="round" d="m636.07,275.02,0-268.2" stroke="#f2f2f2" stroke-linecap="round" stroke-miterlimit="10" stroke-dasharray="none" stroke-width="0.64384228" fill="none"/><path stroke-linejoin="round" d="m81.318,273.77,587.36,0" stroke="#e6e6e6" stroke-linecap="round" stroke-miterlimit="10" stroke-dasharray="none" stroke-width="0.64384228" fill="none"/><path stroke-linejoin="round" d="m81.318,229.31,587.36,0" stroke="#e6e6e6" stroke-linecap="round" stroke-miterlimit="10" stroke-dasharray="none" stroke-width="0.64384228" fill="none"/><path stroke-linejoin="round" d="m81.318,184.88,587.36,0" stroke="#e6e6e6" stroke-linecap="round" stroke-miterlimit="10" stroke-dasharray="none" stroke-width="0.64384228" fill="none"/><path stroke-linejoin="round" d="m81.318,140.45,587.36,0" stroke="#e6e6e6" stroke-linecap="round" stroke-miterlimit="10" stroke-dasharray="none" stroke-width="0.64384228" fill="none"/><path stroke-linejoin="round" d="m81.318,95.998,587.36,0" stroke="#e6e6e6" stroke-linecap="round" stroke-miterlimit="10" stroke-dasharray="none" stroke-width="0.64384228" fill="none"/><path stroke-linejoin="round" d="m81.318,51.571,587.36,0" stroke="#e6e6e6" stroke-linecap="round" stroke-miterlimit="10" stroke-dasharray="none" stroke-width="0.64384228" fill="none"/><path stroke-linejoin="round" d="m81.318,7.1142,587.36,0" stroke="#e6e6e6" stroke-linecap="round" stroke-miterlimit="10" stroke-dasharray="none" stroke-width="0.64384228" fill="none"/><path stroke-linejoin="round" d="m81.318,275.02,0-268.2" stroke="#e6e6e6" stroke-linecap="round" stroke-miterlimit="10" stroke-dasharray="none" stroke-width="0.64384228" fill="none"/><path stroke-linejoin="round" d="m146.6,275.02,0-268.2" stroke="#e6e6e6" stroke-linecap="round" stroke-miterlimit="10" stroke-dasharray="none" stroke-width="0.64384228" fill="none"/><path stroke-linejoin="round" d="m211.86,275.02,0-268.2" stroke="#e6e6e6" stroke-linecap="round" stroke-miterlimit="10" stroke-dasharray="none" stroke-width="0.64384228" fill="none"/><path stroke-linejoin="round" d="m277.11,275.02,0-268.2" stroke="#e6e6e6" stroke-linecap="round" stroke-miterlimit="10" stroke-dasharray="none" stroke-width="0.64384228" fill="none"/><path stroke-linejoin="round" d="m342.37,275.02,0-268.2" stroke="#e6e6e6" stroke-linecap="round" stroke-miterlimit="10" stroke-dasharray="none" stroke-width="0.64384228" fill="none"/><path stroke-linejoin="round" d="m407.62,275.02,0-268.2" stroke="#e6e6e6" stroke-linecap="round" stroke-miterlimit="10" stroke-dasharray="none" stroke-width="0.64384228" fill="none"/><path stroke-linejoin="round" d="m472.91,275.02,0-268.2" stroke="#e6e6e6" stroke-linecap="round" stroke-miterlimit="10" stroke-dasharray="none" stroke-width="0.64384228" fill="none"/><path stroke-linejoin="round" d="m538.17,275.02,0-268.2" stroke="#e6e6e6" stroke-linecap="round" stroke-miterlimit="10" stroke-dasharray="none" stroke-width="0.64384228" fill="none"/><path stroke-linejoin="round" d="m603.42,275.02,0-268.2" stroke="#e6e6e6" stroke-linecap="round" stroke-miterlimit="10" stroke-dasharray="none" stroke-width="0.64384228" fill="none"/><path stroke-linejoin="round" d="m668.68,275.02,0-268.2" stroke="#e6e6e6" stroke-linecap="round" stroke-miterlimit="10" stroke-dasharray="none" stroke-width="0.64384228" fill="none"/><path stroke-linejoin="round" d="m81.318,166.6,65.286-71.726,65.254-25.754,65.257-10.111,65.254-12.008,65.257-9.206,65.289-7.403,65.254-2.9631,65.257-6.1169,65.254-2.2845" stroke="#1c9e78" stroke-linecap="butt" stroke-miterlimit="10" stroke-dasharray="none" stroke-width="1.93155921" fill="none"/><path stroke-linejoin="round" d="m81.318,178.7,65.286-63.676,65.254-33.415,65.257,11.588,65.254-39.823,65.257,1.7708,65.289-14.518,65.254-0.73997,65.257-14.198,65.254,2.4784" stroke="#d95e03" stroke-linecap="butt" stroke-miterlimit="10" stroke-dasharray="none" stroke-width="1.93155921" fill="none"/><path stroke-linejoin="round" d="m81.318,262.82,65.286-0.38452,65.254-0.99848,65.257,0.28758,65.254,0.61072,65.257-0.0937,65.289-0.0323,65.254-0.19388,65.257-0.35544,65.254-0.12925" stroke="#7570b2" stroke-linecap="butt" stroke-miterlimit="10" stroke-dasharray="none" stroke-width="1.93155921" fill="none"/><path d="m86.469,166.6c0-2.8436-2.3072-5.1507-5.1508-5.1507-2.8468,0-5.154,2.3071-5.154,5.1507,0,2.8468,2.3072,5.1507,5.154,5.1507,2.8436,0,5.1508-2.3039,5.1508-5.1507z" fill-rule="nonzero" fill="#1c9e78"/><path d="m151.76,94.87c0-2.8435-2.3072-5.1507-5.1508-5.1507s-5.1507,2.3072-5.1507,5.1507c0,2.8436,2.3071,5.1508,5.1507,5.1508s5.1508-2.3072,5.1508-5.1508z" fill-rule="nonzero" fill="#1c9e78"/><path d="m217.01,69.117c0-2.8436-2.3072-5.1508-5.154-5.1508-2.8436,0-5.1475,2.3072-5.1475,5.1508s2.3039,5.1507,5.1475,5.1507c2.8468,0,5.154-2.3071,5.154-5.1507z" fill-rule="nonzero" fill="#1c9e78"/><path d="m282.27,59.006c0-2.8436-2.3071-5.1475-5.1507-5.1475-2.8435,0-5.1507,2.3039-5.1507,5.1475,0,2.8468,2.3072,5.1539,5.1507,5.1539,2.8436,0,5.1507-2.3071,5.1507-5.1539z" fill-rule="nonzero" fill="#1c9e78"/><path d="m347.52,46.998c0-2.8436-2.3072-5.1507-5.154-5.1507-2.8436,0-5.1475,2.3071-5.1475,5.1507,0,2.8468,2.3039,5.1539,5.1475,5.1539,2.8468,0,5.154-2.3071,5.154-5.1539z" fill-rule="nonzero" fill="#1c9e78"/><path d="m412.78,37.792c0-2.8435-2.3072-5.1507-5.1508-5.1507s-5.1507,2.3072-5.1507,5.1507c0,2.8468,2.3071,5.1508,5.1507,5.1508s5.1508-2.304,5.1508-5.1508z" fill-rule="nonzero" fill="#1c9e78"/><path d="m478.06,30.389c0-2.8468-2.3072-5.1508-5.1508-5.1508-2.8468,0-5.1507,2.304-5.1507,5.1508,0,2.8436,2.3039,5.1507,5.1507,5.1507,2.8436,0,5.1508-2.3071,5.1508-5.1507z" fill-rule="nonzero" fill="#1c9e78"/><path d="m543.32,27.426c0-2.8435-2.304-5.1507-5.1508-5.1507-2.8435,0-5.1507,2.3072-5.1507,5.1507,0,2.8468,2.3072,5.1508,5.1507,5.1508,2.8468,0,5.1508-2.304,5.1508-5.1508z" fill-rule="nonzero" fill="#1c9e78"/><path d="m608.58,21.309c0-2.8436-2.3072-5.1508-5.1508-5.1508-2.8468,0-5.1507,2.3072-5.1507,5.1508,0,2.8467,2.3039,5.1507,5.1507,5.1507,2.8436,0,5.1508-2.304,5.1508-5.1507z" fill-rule="nonzero" fill="#1c9e78"/><path d="m673.83,19.025c0-2.8435-2.3039-5.1507-5.1508-5.1507-2.8436,0-5.1508,2.3072-5.1508,5.1507,0,2.8436,2.3072,5.1507,5.1508,5.1507,2.8469,0,5.1508-2.3071,5.1508-5.1507z" fill-rule="nonzero" fill="#1c9e78"/><path d="m81.318,170.72,6.9538,12.008-13.879,0" fill-rule="nonzero" fill="#d95e03"/><path d="m146.6,107.01,6.9216,12.008-13.875,0" fill-rule="nonzero" fill="#d95e03"/><path d="m211.86,73.592,6.9247,12.008-13.878,0" fill-rule="nonzero" fill="#d95e03"/><path d="m277.11,85.18,6.9216,12.008-13.875,0" fill-rule="nonzero" fill="#d95e03"/><path d="m342.37,45.357,6.9538,12.04-13.872,0" fill-rule="nonzero" fill="#d95e03"/><path d="m407.63,47.128,6.9538,12.04-13.875,0" fill-rule="nonzero" fill="#d95e03"/><path d="m472.91,32.609,6.9183,12.04-13.872,0" fill-rule="nonzero" fill="#d95e03"/><path d="m538.17,31.869,6.9215,12.008-13.875,0" fill-rule="nonzero" fill="#d95e03"/><path d="m603.42,17.703,6.9215,12.008-13.875,0" fill-rule="nonzero" fill="#d95e03"/><path d="m668.68,20.149,6.9539,12.011-13.875,0" fill-rule="nonzero" fill="#d95e03"/><path d="m76.164,267.97,10.302,0,0-10.301-10.302,0,0,10.301z" fill-rule="nonzero" fill="#7570b2"/><path d="m141.42,267.58,10.334,0,0-10.301-10.334,0,0,10.301z" fill-rule="nonzero" fill="#7570b2"/><path d="m206.71,266.59,10.301,0,0-10.302-10.301,0,0,10.302z" fill-rule="nonzero" fill="#7570b2"/><path d="m271.96,266.88,10.301,0,0-10.301-10.301,0,0,10.301z" fill-rule="nonzero" fill="#7570b2"/><path d="m337.22,267.49,10.301,0,0-10.302-10.301,0,0,10.302z" fill-rule="nonzero" fill="#7570b2"/><path d="m402.47,267.39,10.301,0,0-10.334-10.301,0,0,10.334z" fill-rule="nonzero" fill="#7570b2"/><path d="m467.73,267.36,10.334,0,0-10.302-10.334,0,0,10.302z" fill-rule="nonzero" fill="#7570b2"/><path d="m533.02,267.17,10.302,0,0-10.302-10.302,0,0,10.302z" fill-rule="nonzero" fill="#7570b2"/><path d="m598.27,266.81,10.302,0,0-10.301-10.302,0,0,10.301z" fill-rule="nonzero" fill="#7570b2"/><path d="m663.53,266.68,10.302,0,0-10.301-10.302,0,0,10.301z" fill-rule="nonzero" fill="#7570b2"/><path stroke-linejoin="round" d="m81.318,275.02,587.36,0" stroke="#000" stroke-linecap="round" stroke-miterlimit="10" stroke-dasharray="none" stroke-width="0.64384228" fill="none"/><text transform="scale(1.0000019,0.99999811)" font-size="38.77594757px" y="311.81885" x="65.888489"><tspan style="" fill-rule="nonzero" font-size="20.57109261px" font-variant="normal" y="311.81885" x="65.888489 76.174034 86.459579 131.17497 141.46053 151.74606 196.42853 206.71408 216.99963 261.68417 271.9697 282.25525 326.93774 337.22327 347.50882 392.19128 402.47681 412.76236 457.47775 467.76331 478.04889 522.73334 533.01892 543.30444 587.98694 598.27246 608.55804 648.09772 658.38324 668.66876 678.95435" font-family="Nimbus Roman No9 L" fill="#000000">1002003004005006007008009001000</tspan></text>
<path stroke-linejoin="round" d="m81.318,288.74,0-13.714" stroke="#000" stroke-linecap="round" stroke-miterlimit="10" stroke-dasharray="none" stroke-width="0.64384228" fill="none"/><path stroke-linejoin="round" d="m146.6,288.74,0-13.714" stroke="#000" stroke-linecap="round" stroke-miterlimit="10" stroke-dasharray="none" stroke-width="0.64384228" fill="none"/><path stroke-linejoin="round" d="m211.86,288.74,0-13.714" stroke="#000" stroke-linecap="round" stroke-miterlimit="10" stroke-dasharray="none" stroke-width="0.64384228" fill="none"/><path stroke-linejoin="round" d="m277.11,288.74,0-13.714" stroke="#000" stroke-linecap="round" stroke-miterlimit="10" stroke-dasharray="none" stroke-width="0.64384228" fill="none"/><path stroke-linejoin="round" d="m342.37,288.74,0-13.714" stroke="#000" stroke-linecap="round" stroke-miterlimit="10" stroke-dasharray="none" stroke-width="0.64384228" fill="none"/><path stroke-linejoin="round" d="m407.62,288.74,0-13.714" stroke="#000" stroke-linecap="round" stroke-miterlimit="10" stroke-dasharray="none" stroke-width="0.64384228" fill="none"/><path stroke-linejoin="round" d="m472.91,288.74,0-13.714" stroke="#000" stroke-linecap="round" stroke-miterlimit="10" stroke-dasharray="none" stroke-width="0.64384228" fill="none"/><path stroke-linejoin="round" d="m538.17,288.74,0-13.714" stroke="#000" stroke-linecap="round" stroke-miterlimit="10" stroke-dasharray="none" stroke-width="0.64384228" fill="none"/><path stroke-linejoin="round" d="m603.42,288.74,0-13.714" stroke="#000" stroke-linecap="round" stroke-miterlimit="10" stroke-dasharray="none" stroke-width="0.64384228" fill="none"/><path stroke-linejoin="round" d="m668.68,288.74,0-13.714" stroke="#000" stroke-linecap="round" stroke-miterlimit="10" stroke-dasharray="none" stroke-width="0.64384228" fill="none"/><text transform="scale(1.0000019,0.99999811)" font-size="38.77594757px" y="337.92798" x="304.81943"><tspan style="" fill-rule="nonzero" font-size="25.78632927px" font-variant="normal" y="337.92798" x="304.81943 319.15662 326.32523 333.49384 351.38953 361.42041 368.58902 380.03815 397.93387 406.52072 419.41388 436.61334" font-family="Nimbus Roman No9 L" fill="#000000">Filesize(kB)</tspan></text>
<text transform="matrix(0,-0.99999811,1.0000019,0,0,0)" font-size="38.77594757px" y="18.798334" x="-221.42564"><tspan style="" fill-rule="nonzero" font-size="25.78632927px" font-variant="normal" y="18.798334" x="-221.42564 -202.80792 -189.91475 -177.02159 -164.12842 -151.23526 -138.3421 -124.72691 -116.14008 -103.2469" font-family="Nimbus Roman No9 L" fill="#000000">Goodput(kB</tspan></text>
<text transform="matrix(0,-0.99999811,1.0000019,0,0,0)" font-size="38.77594757px" y="18.798334" x="-86.045578"><tspan style="" font-weight="normal" fill-rule="nonzero" font-size="25.78632927px" font-variant="normal" y="18.798334" x="-86.045578" font-family="rtxr" fill="#000000">/</tspan></text>
<text transform="matrix(0,-0.99999811,1.0000019,0,0,0)" font-size="38.77594757px" y="18.798334" x="-79.008713"><tspan style="" fill-rule="nonzero" font-size="25.78632927px" font-variant="normal" y="18.798334" x="-79.008713 -68.977829" font-family="Nimbus Roman No9 L" fill="#000000">s)</tspan></text>
<path d="m420.34,188.87,238.26,0,0-79.838-238.26,0,0,79.838z" fill-rule="nonzero" fill="#FFF"/><path stroke-linejoin="round" d="m436.89,131.51,22.312,0" stroke="#1c9e78" stroke-linecap="butt" stroke-miterlimit="10" stroke-dasharray="none" stroke-width="1.93155921" fill="none"/><path d="m453.18,131.51c0-2.8468-2.3072-5.1507-5.1508-5.1507-2.8468,0-5.154,2.3039-5.154,5.1507,0,2.8435,2.3072,5.1507,5.154,5.1507,2.8436,0,5.1508-2.3072,5.1508-5.1507z" fill-rule="nonzero" fill="#1c9e78"/><path stroke-linejoin="round" d="m436.89,148.96,22.312,0" stroke="#d95e03" stroke-linecap="butt" stroke-miterlimit="10" stroke-dasharray="none" stroke-width="1.93155921" fill="none"/><path d="m448.03,140.94,6.9506,12.04-13.875,0" fill-rule="nonzero" fill="#d95e03"/><path stroke-linejoin="round" d="m436.89,166.4,22.312,0" stroke="#7570b2" stroke-linecap="butt" stroke-miterlimit="10" stroke-dasharray="none" stroke-width="1.93155921" fill="none"/><path d="m442.88,171.56,10.301,0,0-10.302-10.301,0,0,10.302z" fill-rule="nonzero" fill="#7570b2"/><text transform="scale(1.0000019,0.99999811)" font-size="38.77594757px" y="138.04445" x="467.24219"><tspan style="" fill-rule="nonzero" font-size="19.41217804px" font-variant="normal" y="138.04445" x="467.24219 477.55005 487.25613" font-family="Nimbus Roman No9 L" fill="#000000">Tor</tspan></text>
<text transform="scale(1.0000019,0.99999811)" font-size="38.77594757px" y="155.49103" x="467.24219"><tspan style="" fill-rule="nonzero" font-size="19.41217804px" font-variant="normal" y="155.49103" x="467.24219 478.03534 483.43195 491.75977 501.46585 511.17191 521.4798 531.18585 537.65009 547.3562 559.76056 566.22485 574.84387 584.54993 594.25604 603.9621 613.66821 622.28723 628.75146" font-family="Nimbus Roman No9 L" fill="#000000">StegoTorus(chopper)</tspan></text>
<text transform="scale(1.0000019,0.99999811)" font-size="38.77594757px" y="172.94022" x="467.24219"><tspan style="" fill-rule="nonzero" font-size="19.41217804px" font-variant="normal" y="172.94022" x="467.24219 478.03534 483.43195 491.75977 501.46585 511.17191 521.4798 531.18585 537.65009 547.3562 559.76056 566.22485 580.24042 592.10126 603.9621 614.75525" font-family="Nimbus Roman No9 L" fill="#000000">StegoTorus(HTTP)</tspan></text>
</svg>
