<?xml version="1.0"?>
<?xml-stylesheet type="text/css" href="r/fonts.css"?>
<svg xmlns="http://www.w3.org/2000/svg" version="1.1" viewBox="0 0 209 133">
<path stroke-linejoin="round" d="m23.574,113.81,0-109.57m-2.161,109.57,2.161,0m-2.161-21.914,2.161,0m-2.161-21.914,2.161,0m-2.161-21.916,2.161,0m-2.161-21.914,2.161,0m-2.161-21.914,2.161,0m0,109.57,182.01,0m-182.01,2.161,0-2.161m12.134,2.161,0-2.161m12.134,2.161,0-2.161m12.134,2.161,0-2.161m12.134,2.161,0-2.161m12.134,2.161,0-2.161m12.136,2.161,0-2.161m12.134,2.161,0-2.161m12.134,2.161,0-2.161m12.134,2.161,0-2.161m12.134,2.161,0-2.161m12.134,2.161,0-2.161m12.134,2.161,0-2.161m12.134,2.161,0-2.161m12.134,2.161,0-2.161m12.136,2.161,0-2.161" stroke="#000" stroke-linecap="round" stroke-miterlimit="10" stroke-dasharray="none" stroke-width="0.254235" fill="none"/><path stroke-linejoin="round" d="m23.574,18.535,12.134,3.5613,12.134,1.3927,12.134,0.51406,12.134,0.25221,12.134,1.3586,12.136,2.8484,12.134,1.7756,12.134,1.4796,12.134,1.3469,12.134,1.2056,12.134,1.0408,12.134,0.73474,12.134,1.0408,12.134,0.20847,12.136-0.07729" stroke="#000080" stroke-linecap="round" stroke-miterlimit="10" stroke-dasharray="none" stroke-width="0.254235" fill="none"/><path stroke-linejoin="round" d="m23.574,31.465,12.134,10.656,12.134,3.2771,12.134,2.2286,12.134,0.74491,12.134,2.6415,12.136,4.1334,12.134,3.0849,12.134,2.3791,12.134,2.1813,12.134,2.1229,12.134,1.9012,12.134,0.86999,12.134,1.5488,12.134,0.3061,12.136,0.31373" stroke="#F0F" stroke-linecap="round" stroke-miterlimit="10" stroke-dasharray="none" stroke-width="0.254235" fill="none"/><path stroke-linejoin="round" d="m23.574,106.52,12.134,2.4925,12.134,0.66712,12.134,0.30609,12.134,0.39102,12.134,0.48101,12.136,0.19474,12.134,0.22017,12.134,0.2883,12.134,0.21407,12.134,0.2344,12.134,0.16322,12.134,0.0575,12.134,0.0697,12.134,0.0458,12.136,0.11899" stroke="#008000" stroke-linecap="round" stroke-miterlimit="10" stroke-dasharray="none" stroke-width="0.254235" fill="none"/><path stroke-linejoin="miter" d="m23.574,17.263,1.2712,1.2712-1.2712,1.2712-1.2712-1.2712,1.2712-1.2712z" fill-rule="nonzero" stroke="#000080" stroke-linecap="square" stroke-miterlimit="10" stroke-dasharray="none" stroke-width="0.254235" fill="#000080"/><path stroke-linejoin="miter" d="m35.708,20.825,1.2712,1.2712-1.2712,1.2712-1.2712-1.2712,1.2712-1.2712z" fill-rule="nonzero" stroke="#000080" stroke-linecap="square" stroke-miterlimit="10" stroke-dasharray="none" stroke-width="0.254235" fill="#000080"/><path stroke-linejoin="miter" d="m47.842,22.217,1.2712,1.2712-1.2712,1.2712-1.2712-1.2712,1.2712-1.2712z" fill-rule="nonzero" stroke="#000080" stroke-linecap="square" stroke-miterlimit="10" stroke-dasharray="none" stroke-width="0.254235" fill="#000080"/><path stroke-linejoin="miter" d="m59.975,22.731,1.2712,1.2712-1.2712,1.2712-1.2712-1.2712,1.2712-1.2712z" fill-rule="nonzero" stroke="#000080" stroke-linecap="square" stroke-miterlimit="10" stroke-dasharray="none" stroke-width="0.254235" fill="#000080"/><path stroke-linejoin="miter" d="m72.11,22.984,1.2712,1.2712-1.2712,1.2712-1.2712-1.2712,1.2712-1.2712z" fill-rule="nonzero" stroke="#000080" stroke-linecap="square" stroke-miterlimit="10" stroke-dasharray="none" stroke-width="0.254235" fill="#000080"/><path stroke-linejoin="miter" d="m84.243,24.342,1.2712,1.2712-1.2712,1.2712-1.2712-1.2712,1.2712-1.2712z" fill-rule="nonzero" stroke="#000080" stroke-linecap="square" stroke-miterlimit="10" stroke-dasharray="none" stroke-width="0.254235" fill="#000080"/><path stroke-linejoin="miter" d="m96.379,27.191,1.2712,1.2712-1.2712,1.2712-1.2712-1.2712,1.2712-1.2712z" fill-rule="nonzero" stroke="#000080" stroke-linecap="square" stroke-miterlimit="10" stroke-dasharray="none" stroke-width="0.254235" fill="#000080"/><path stroke-linejoin="miter" d="m108.51,28.966,1.2712,1.2712-1.2712,1.2712-1.2712-1.2712,1.2712-1.2712z" fill-rule="nonzero" stroke="#000080" stroke-linecap="square" stroke-miterlimit="10" stroke-dasharray="none" stroke-width="0.254235" fill="#000080"/><path stroke-linejoin="miter" d="m120.65,30.446,1.2712,1.2712-1.2712,1.2712-1.2712-1.2712,1.2712-1.2712z" fill-rule="nonzero" stroke="#000080" stroke-linecap="square" stroke-miterlimit="10" stroke-dasharray="none" stroke-width="0.254235" fill="#000080"/><path stroke-linejoin="miter" d="m132.78,31.793,1.2712,1.2712-1.2712,1.2712-1.2712-1.2712,1.2712-1.2712z" fill-rule="nonzero" stroke="#000080" stroke-linecap="square" stroke-miterlimit="10" stroke-dasharray="none" stroke-width="0.254235" fill="#000080"/><path stroke-linejoin="miter" d="m144.91,32.999,1.2712,1.2712-1.2712,1.2712-1.2712-1.2712,1.2712-1.2712z" fill-rule="nonzero" stroke="#000080" stroke-linecap="square" stroke-miterlimit="10" stroke-dasharray="none" stroke-width="0.254235" fill="#000080"/><path stroke-linejoin="miter" d="m157.05,34.039,1.2712,1.2712-1.2712,1.2712-1.2712-1.2712,1.2712-1.2712z" fill-rule="nonzero" stroke="#000080" stroke-linecap="square" stroke-miterlimit="10" stroke-dasharray="none" stroke-width="0.254235" fill="#000080"/><path stroke-linejoin="miter" d="m169.18,34.774,1.2712,1.2712-1.2712,1.2712-1.2712-1.2712,1.2712-1.2712z" fill-rule="nonzero" stroke="#000080" stroke-linecap="square" stroke-miterlimit="10" stroke-dasharray="none" stroke-width="0.254235" fill="#000080"/><path stroke-linejoin="miter" d="m181.32,35.815,1.2712,1.2712-1.2712,1.2712-1.2712-1.2712,1.2712-1.2712z" fill-rule="nonzero" stroke="#000080" stroke-linecap="square" stroke-miterlimit="10" stroke-dasharray="none" stroke-width="0.254235" fill="#000080"/><path stroke-linejoin="miter" d="m193.45,36.023,1.2712,1.2712-1.2712,1.2712-1.2712-1.2712,1.2712-1.2712z" fill-rule="nonzero" stroke="#000080" stroke-linecap="square" stroke-miterlimit="10" stroke-dasharray="none" stroke-width="0.254235" fill="#000080"/><path stroke-linejoin="miter" d="m205.58,35.946,1.2712,1.2712-1.2712,1.2712-1.2712-1.2712,1.2712-1.2712z" fill-rule="nonzero" stroke="#000080" stroke-linecap="square" stroke-miterlimit="10" stroke-dasharray="none" stroke-width="0.254235" fill="#000080"/><path stroke-linejoin="miter" d="m22.303,30.194,2.5424,0,0,2.5424-2.5424,0,0-2.5424z" fill-rule="nonzero" stroke="#F0F" stroke-linecap="square" stroke-miterlimit="10" stroke-dasharray="none" stroke-width="0.254235" fill="#F0F"/><path stroke-linejoin="miter" d="m34.437,40.85,2.5424,0,0,2.5424-2.5424,0,0-2.5424z" fill-rule="nonzero" stroke="#F0F" stroke-linecap="square" stroke-miterlimit="10" stroke-dasharray="none" stroke-width="0.254235" fill="#F0F"/><path stroke-linejoin="miter" d="m46.571,44.127,2.5424,0,0,2.5424-2.5424,0,0-2.5424z" fill-rule="nonzero" stroke="#F0F" stroke-linecap="square" stroke-miterlimit="10" stroke-dasharray="none" stroke-width="0.254235" fill="#F0F"/><path stroke-linejoin="miter" d="m58.704,46.356,2.5424,0,0,2.5424-2.5424,0,0-2.5424z" fill-rule="nonzero" stroke="#F0F" stroke-linecap="square" stroke-miterlimit="10" stroke-dasharray="none" stroke-width="0.254235" fill="#F0F"/><path stroke-linejoin="miter" d="m70.838,47.1,2.5424,0,0,2.5424-2.5424,0,0-2.5424z" fill-rule="nonzero" stroke="#F0F" stroke-linecap="square" stroke-miterlimit="10" stroke-dasharray="none" stroke-width="0.254235" fill="#F0F"/><path stroke-linejoin="miter" d="m82.972,49.742,2.5424,0,0,2.5424-2.5424,0,0-2.5424z" fill-rule="nonzero" stroke="#F0F" stroke-linecap="square" stroke-miterlimit="10" stroke-dasharray="none" stroke-width="0.254235" fill="#F0F"/><path stroke-linejoin="miter" d="m95.108,53.875,2.5424,0,0,2.5424-2.5424,0,0-2.5424z" fill-rule="nonzero" stroke="#F0F" stroke-linecap="square" stroke-miterlimit="10" stroke-dasharray="none" stroke-width="0.254235" fill="#F0F"/><path stroke-linejoin="miter" d="m107.24,56.96,2.5424,0,0,2.5424-2.5424,0,0-2.5424z" fill-rule="nonzero" stroke="#F0F" stroke-linecap="square" stroke-miterlimit="10" stroke-dasharray="none" stroke-width="0.254235" fill="#F0F"/><path stroke-linejoin="miter" d="m119.38,59.339,2.5424,0,0,2.5424-2.5424,0,0-2.5424z" fill-rule="nonzero" stroke="#F0F" stroke-linecap="square" stroke-miterlimit="10" stroke-dasharray="none" stroke-width="0.254235" fill="#F0F"/><path stroke-linejoin="miter" d="m131.51,61.521,2.5424,0,0,2.5424-2.5424,0,0-2.5424z" fill-rule="nonzero" stroke="#F0F" stroke-linecap="square" stroke-miterlimit="10" stroke-dasharray="none" stroke-width="0.254235" fill="#F0F"/><path stroke-linejoin="miter" d="m143.64,63.644,2.5424,0,0,2.5424-2.5424,0,0-2.5424z" fill-rule="nonzero" stroke="#F0F" stroke-linecap="square" stroke-miterlimit="10" stroke-dasharray="none" stroke-width="0.254235" fill="#F0F"/><path stroke-linejoin="miter" d="m155.78,65.545,2.5424,0,0,2.5424-2.5424,0,0-2.5424z" fill-rule="nonzero" stroke="#F0F" stroke-linecap="square" stroke-miterlimit="10" stroke-dasharray="none" stroke-width="0.254235" fill="#F0F"/><path stroke-linejoin="miter" d="m167.91,66.414,2.5424,0,0,2.5424-2.5424,0,0-2.5424z" fill-rule="nonzero" stroke="#F0F" stroke-linecap="square" stroke-miterlimit="10" stroke-dasharray="none" stroke-width="0.254235" fill="#F0F"/><path stroke-linejoin="miter" d="m180.04,67.963,2.5424,0,0,2.5424-2.5424,0,0-2.5424z" fill-rule="nonzero" stroke="#F0F" stroke-linecap="square" stroke-miterlimit="10" stroke-dasharray="none" stroke-width="0.254235" fill="#F0F"/><path stroke-linejoin="miter" d="m192.18,68.27,2.5424,0,0,2.5424-2.5424,0,0-2.5424z" fill-rule="nonzero" stroke="#F0F" stroke-linecap="square" stroke-miterlimit="10" stroke-dasharray="none" stroke-width="0.254235" fill="#F0F"/><path stroke-linejoin="miter" d="m204.31,68.583,2.5424,0,0,2.5424-2.5424,0,0-2.5424z" fill-rule="nonzero" stroke="#F0F" stroke-linecap="square" stroke-miterlimit="10" stroke-dasharray="none" stroke-width="0.254235" fill="#F0F"/><path stroke-linejoin="miter" d="m23.574,105.25,1.2712,2.5424-2.5424,0,1.2712-2.5424z" fill-rule="nonzero" stroke="#008000" stroke-linecap="square" stroke-miterlimit="10" stroke-dasharray="none" stroke-width="0.254235" fill="#008000"/><path stroke-linejoin="miter" d="m35.708,107.74,1.2712,2.5424-2.5424,0,1.2712-2.5424z" fill-rule="nonzero" stroke="#008000" stroke-linecap="square" stroke-miterlimit="10" stroke-dasharray="none" stroke-width="0.254235" fill="#008000"/><path stroke-linejoin="miter" d="m47.842,108.41,1.2712,2.5424-2.5424,0,1.2712-2.5424z" fill-rule="nonzero" stroke="#008000" stroke-linecap="square" stroke-miterlimit="10" stroke-dasharray="none" stroke-width="0.254235" fill="#008000"/><path stroke-linejoin="miter" d="m59.975,108.71,1.2712,2.5424-2.5424,0,1.2712-2.5424z" fill-rule="nonzero" stroke="#008000" stroke-linecap="square" stroke-miterlimit="10" stroke-dasharray="none" stroke-width="0.254235" fill="#008000"/><path stroke-linejoin="miter" d="m72.11,109.11,1.2712,2.5424-2.5424,0,1.2712-2.5424z" fill-rule="nonzero" stroke="#008000" stroke-linecap="square" stroke-miterlimit="10" stroke-dasharray="none" stroke-width="0.254235" fill="#008000"/><path stroke-linejoin="miter" d="m84.243,109.59,1.2712,2.5424-2.5424,0,1.2712-2.5424z" fill-rule="nonzero" stroke="#008000" stroke-linecap="square" stroke-miterlimit="10" stroke-dasharray="none" stroke-width="0.254235" fill="#008000"/><path stroke-linejoin="miter" d="m96.379,109.78,1.2712,2.5424-2.5424,0,1.2712-2.5424z" fill-rule="nonzero" stroke="#008000" stroke-linecap="square" stroke-miterlimit="10" stroke-dasharray="none" stroke-width="0.254235" fill="#008000"/><path stroke-linejoin="miter" d="m108.51,110,1.2712,2.5424-2.5424,0,1.2712-2.5424z" fill-rule="nonzero" stroke="#008000" stroke-linecap="square" stroke-miterlimit="10" stroke-dasharray="none" stroke-width="0.254235" fill="#008000"/><path stroke-linejoin="miter" d="m120.65,110.29,1.2712,2.5424-2.5424,0,1.2712-2.5424z" fill-rule="nonzero" stroke="#008000" stroke-linecap="square" stroke-miterlimit="10" stroke-dasharray="none" stroke-width="0.254235" fill="#008000"/><path stroke-linejoin="miter" d="m132.78,110.5,1.2712,2.5424-2.5424,0,1.2712-2.5424z" fill-rule="nonzero" stroke="#008000" stroke-linecap="square" stroke-miterlimit="10" stroke-dasharray="none" stroke-width="0.254235" fill="#008000"/><path stroke-linejoin="miter" d="m144.91,110.74,1.2712,2.5424-2.5424,0,1.2712-2.5424z" fill-rule="nonzero" stroke="#008000" stroke-linecap="square" stroke-miterlimit="10" stroke-dasharray="none" stroke-width="0.254235" fill="#008000"/><path stroke-linejoin="miter" d="m157.05,110.9,1.2712,2.5424-2.5424,0,1.2712-2.5424z" fill-rule="nonzero" stroke="#008000" stroke-linecap="square" stroke-miterlimit="10" stroke-dasharray="none" stroke-width="0.254235" fill="#008000"/><path stroke-linejoin="miter" d="m169.18,110.96,1.2712,2.5424-2.5424,0,1.2712-2.5424z" fill-rule="nonzero" stroke="#008000" stroke-linecap="square" stroke-miterlimit="10" stroke-dasharray="none" stroke-width="0.254235" fill="#008000"/><path stroke-linejoin="miter" d="m181.32,111.03,1.2712,2.5424-2.5424,0,1.2712-2.5424z" fill-rule="nonzero" stroke="#008000" stroke-linecap="square" stroke-miterlimit="10" stroke-dasharray="none" stroke-width="0.254235" fill="#008000"/><path stroke-linejoin="miter" d="m193.45,111.07,1.2712,2.5424-2.5424,0,1.2712-2.5424z" fill-rule="nonzero" stroke="#008000" stroke-linecap="square" stroke-miterlimit="10" stroke-dasharray="none" stroke-width="0.254235" fill="#008000"/><path stroke-linejoin="miter" d="m205.58,111.19,1.2712,2.5424-2.5424,0,1.2712-2.5424z" fill-rule="nonzero" stroke="#008000" stroke-linecap="square" stroke-miterlimit="10" stroke-dasharray="none" stroke-width="0.254235" fill="#008000"/><path stroke-linejoin="miter" d="m144.15,7.3523,24.152,0" stroke="#000080" stroke-linecap="round" stroke-miterlimit="10" stroke-dasharray="none" stroke-width="0.254235" fill="none"/><path stroke-linejoin="miter" d="m156.22,6.0811,1.2712,1.2712-1.2712,1.2712-1.2712-1.2712,1.2712-1.2712z" fill-rule="nonzero" stroke="#000080" stroke-linecap="square" stroke-miterlimit="10" stroke-dasharray="none" stroke-width="0.254235" fill="#000080"/><path stroke-linejoin="miter" d="m144.15,14.709,24.152,0" stroke="#F0F" stroke-linecap="round" stroke-miterlimit="10" stroke-dasharray="none" stroke-width="0.254235" fill="none"/><path stroke-linejoin="miter" d="m154.95,13.438,2.5424,0,0,2.5424-2.5424,0,0-2.5424z" fill-rule="nonzero" stroke="#F0F" stroke-linecap="square" stroke-miterlimit="10" stroke-dasharray="none" stroke-width="0.254235" fill="#F0F"/><path stroke-linejoin="miter" d="m144.15,22.066,24.152,0" stroke="#008000" stroke-linecap="round" stroke-miterlimit="10" stroke-dasharray="none" stroke-width="0.254235" fill="none"/><path stroke-linejoin="miter" d="m156.22,20.795,1.2712,2.5424-2.5424,0,1.2712-2.5424z" fill-rule="nonzero" stroke="#008000" stroke-linecap="square" stroke-miterlimit="10" stroke-dasharray="none" stroke-width="0.254235" fill="#008000"/><text style="letter-spacing:0px;text-anchor:end;word-spacing:0px;text-align:end;" line-height="125%" font-weight="normal" font-size="6.4000001px" font-style="normal" font-stretch="normal" font-variant="normal" y="6.48" x="19.940899" font-family="Cabin" xml:space="preserve" fill="#000000"><tspan y="6.48" x="19.940899">1</tspan></text>
<text style="letter-spacing:0px;text-anchor:end;word-spacing:0px;text-align:end;" line-height="125%" font-weight="normal" font-size="6.4000001px" font-style="normal" font-stretch="normal" font-variant="normal" y="28.399998" x="19.940899" font-family="Cabin" xml:space="preserve" fill="#000000"><tspan y="28.399998" x="19.940899">0.8</tspan></text>
<text style="letter-spacing:0px;text-anchor:end;word-spacing:0px;text-align:end;" line-height="125%" font-weight="normal" font-size="6.4000001px" font-style="normal" font-stretch="normal" font-variant="normal" y="50.258396" x="19.940899" font-family="Cabin" xml:space="preserve" fill="#000000"><tspan y="50.258396" x="19.940899">0.6</tspan></text>
<text style="letter-spacing:0px;text-anchor:end;word-spacing:0px;text-align:end;" line-height="125%" font-weight="normal" font-size="6.4000001px" font-style="normal" font-stretch="normal" font-variant="normal" y="72.160004" x="19.940899" font-family="Cabin" xml:space="preserve" fill="#000000"><tspan y="72.160004" x="19.940899">0.4</tspan></text>
<text style="letter-spacing:0px;text-anchor:end;word-spacing:0px;text-align:end;" line-height="125%" font-weight="normal" font-size="6.4000001px" font-style="normal" font-stretch="normal" font-variant="normal" y="94.119202" x="19.940899" font-family="Cabin" xml:space="preserve" fill="#000000"><tspan y="94.119202" x="19.940899">0.2</tspan></text>
<text style="letter-spacing:0px;text-anchor:end;word-spacing:0px;text-align:end;" line-height="125%" font-weight="normal" font-size="6.4000001px" font-style="normal" font-stretch="normal" font-variant="normal" y="116.03279" x="19.940899" font-family="Cabin" xml:space="preserve" fill="#000000"><tspan y="116.03279" x="19.940899">0</tspan></text>
<text style="letter-spacing:0px;text-anchor:end;word-spacing:0px;text-align:end;" line-height="125%" font-weight="normal" font-size="6.4000001px" font-style="normal" font-stretch="normal" font-variant="normal" y="122.2406" x="23.540854" font-family="Cabin" xml:space="preserve" fill="#000000"><tspan y="122.2406" x="23.540854"/></text>
<text style="letter-spacing:0px;text-anchor:middle;word-spacing:0px;text-align:center;" line-height="125%" font-weight="normal" font-size="6.4000001px" font-style="normal" font-stretch="normal" font-variant="normal" y="121.62321" x="23.577951" font-family="Cabin" xml:space="preserve" fill="#000000"><tspan y="121.62321" x="23.577951">50</tspan></text>
<text style="letter-spacing:0px;text-anchor:middle;word-spacing:0px;text-align:center;" line-height="125%" font-weight="normal" font-size="6.4000001px" font-style="normal" font-stretch="normal" font-variant="normal" y="121.62321" x="47.842651" font-family="Cabin" xml:space="preserve" fill="#000000"><tspan y="121.62321" x="47.842651">150</tspan></text>
<text style="letter-spacing:0px;text-anchor:middle;word-spacing:0px;text-align:center;" line-height="125%" font-weight="normal" font-size="6.4000001px" font-style="normal" font-stretch="normal" font-variant="normal" y="121.62321" x="72.098549" font-family="Cabin" xml:space="preserve" fill="#000000"><tspan y="121.62321" x="72.098549">250</tspan></text>
<text style="letter-spacing:0px;text-anchor:middle;word-spacing:0px;text-align:center;" line-height="125%" font-weight="normal" font-size="6.4000001px" font-style="normal" font-stretch="normal" font-variant="normal" y="121.62321" x="96.374352" font-family="Cabin" xml:space="preserve" fill="#000000"><tspan y="121.62321" x="96.374352">350</tspan></text>
<text style="letter-spacing:0px;text-anchor:middle;word-spacing:0px;text-align:center;" line-height="125%" font-weight="normal" font-size="6.4000001px" font-style="normal" font-stretch="normal" font-variant="normal" y="121.62321" x="120.63024" font-family="Cabin" xml:space="preserve" fill="#000000"><tspan y="121.62321" x="120.63024">450</tspan></text>
<text style="letter-spacing:0px;text-anchor:middle;word-spacing:0px;text-align:center;" line-height="125%" font-weight="normal" font-size="6.4000001px" font-style="normal" font-stretch="normal" font-variant="normal" y="121.62321" x="144.91161" font-family="Cabin" xml:space="preserve" fill="#000000"><tspan y="121.62321" x="144.91161">550</tspan></text>
<text style="letter-spacing:0px;text-anchor:middle;word-spacing:0px;text-align:center;" line-height="125%" font-weight="normal" font-size="6.4000001px" font-style="normal" font-stretch="normal" font-variant="normal" y="121.62321" x="169.2303" font-family="Cabin" xml:space="preserve" fill="#000000"><tspan y="121.62321" x="169.2303">650</tspan></text>
<text style="letter-spacing:0px;text-anchor:middle;word-spacing:0px;text-align:center;" line-height="125%" font-weight="normal" font-size="6.4000001px" font-style="normal" font-stretch="normal" font-variant="normal" y="121.62321" x="193.4866" font-family="Cabin" xml:space="preserve" fill="#000000"><tspan y="121.62321" x="193.4866">750</tspan></text>
<text style="letter-spacing:0px;text-anchor:middle;word-spacing:0px;text-align:center;" line-height="125%" font-weight="normal" font-size="6.4000001px" font-style="normal" font-stretch="normal" font-variant="normal" y="129.59453" x="114.41013" font-family="Cabin" xml:space="preserve" fill="#000000"><tspan y="129.59453" x="114.41013">Number of web pages</tspan></text>
<text style="letter-spacing:0px;text-anchor:middle;word-spacing:0px;text-align:center;" font-weight="normal" transform="matrix(0,-1,1,0,0,0)" font-style="normal" line-height="125%" font-stretch="normal" xml:space="preserve" font-size="6.4000001px" font-variant="normal" y="6.5696001" x="-60.13512" font-family="Cabin" fill="#000000"><tspan y="6.5696001" x="-60.13512">Success rate</tspan></text>
<text style="letter-spacing:0px;text-anchor:start;word-spacing:0px;text-align:start;" line-height="125%" font-weight="normal" font-size="6.4000001px" font-style="normal" font-stretch="normal" font-variant="normal" y="9.5922813" x="170.63921" font-family="Cabin" xml:space="preserve" fill="#000000"><tspan y="9.5922813" x="170.63921">DLSVM</tspan></text>
<text style="letter-spacing:0px;text-anchor:start;word-spacing:0px;text-align:start;" line-height="125%" font-weight="normal" font-size="6.4000001px" font-style="normal" font-stretch="normal" font-variant="normal" y="17.064526" x="170.63921" font-family="Cabin" xml:space="preserve" fill="#000000"><tspan y="17.064526" x="170.63921">Ad hoc SVM</tspan></text>
<text style="letter-spacing:0px;text-anchor:start;word-spacing:0px;text-align:start;" line-height="125%" font-weight="normal" font-size="6.4000001px" font-style="normal" font-stretch="normal" font-variant="normal" y="23.531979" x="170.63921" font-family="Cabin" xml:space="preserve" fill="#000000"><tspan y="23.531979" x="170.63921">Naive Bayes</tspan></text>
</svg>
