<?xml version="1.0" encoding="UTF-8" standalone="no"?>
<?xml-stylesheet type="text/css" href="r/fonts.css"?>
<svg xmlns="http://www.w3.org/2000/svg" version="1.1" viewBox="0 0 226 164">
<text style="text-anchor:start;text-align:start;" font-family="Cabin" transform="matrix(0,-1,1,0,0,0)" font-style="normal" line-height="125%" font-stretch="normal" font-size="6px" font-variant="normal" y="5.9379177" x="-87.705116" font-weight="normal">accuracy</text>
<text style="text-anchor:start;text-align:start;" font-family="Cabin" font-size="6px" font-style="normal" line-height="125%" font-stretch="normal" font-variant="normal" y="162.13303" x="95.199905" font-weight="normal">number of sites</text>
<text style="text-anchor:start;text-align:start;" font-weight="normal" font-size="6px" font-style="normal" line-height="125%" font-stretch="normal" font-variant="normal" y="130.81693" x="159.08034" font-family="Cabin">Jaccard</text>
<text style="text-anchor:start;text-align:start;" font-family="Cabin" font-size="6px" font-style="normal" line-height="125%" font-stretch="normal" font-variant="normal" y="138.12289" x="161.80255" font-weight="normal">Bayes</text>
<text style="text-anchor:start;text-align:start;" font-family="Cabin" font-size="6px" font-style="normal" line-height="125%" font-stretch="normal" font-variant="normal" y="143.86806" x="17.013037" font-weight="normal">0</text>
<text style="text-anchor:start;text-align:start;" font-family="Cabin" font-size="6px" font-style="normal" line-height="125%" font-stretch="normal" font-variant="normal" y="116.53704" x="10.920179" font-weight="normal">0.2</text>
<text style="text-anchor:start;text-align:start;" font-family="Cabin" font-size="6px" font-style="normal" line-height="125%" font-stretch="normal" font-variant="normal" y="89.206169" x="10.920179" font-weight="normal">0.4</text>
<text style="text-anchor:start;text-align:start;" font-family="Cabin" font-size="6px" font-style="normal" line-height="125%" font-stretch="normal" font-variant="normal" y="61.841942" x="10.920179" font-weight="normal">0.6</text>
<text style="text-anchor:start;text-align:start;" font-family="Cabin" font-size="6px" font-style="normal" line-height="125%" font-stretch="normal" font-variant="normal" y="34.510933" x="10.920179" font-weight="normal">0.8</text>
<text style="text-anchor:start;text-align:start;" font-family="Cabin" font-size="6px" font-style="normal" line-height="125%" font-stretch="normal" font-variant="normal" y="7.1799402" x="17.013037" font-weight="normal">1</text>
<text style="text-anchor:start;text-align:start;" font-family="Cabin" font-size="6px" font-style="normal" line-height="125%" font-stretch="normal" font-variant="normal" y="151.17404" x="24.443018" font-weight="normal">0</text>
<text style="text-anchor:start;text-align:start;" font-family="Cabin" font-size="6px" font-style="normal" line-height="125%" font-stretch="normal" font-variant="normal" y="151.17404" x="39.310287" font-weight="normal">200</text>
<text style="text-anchor:start;text-align:start;" font-family="Cabin" font-size="6px" font-style="normal" line-height="125%" font-stretch="normal" font-variant="normal" y="151.17404" x="58.272827" font-weight="normal">400</text>
<text style="text-anchor:start;text-align:start;" font-family="Cabin" font-size="6px" font-style="normal" line-height="125%" font-stretch="normal" font-variant="normal" y="151.17404" x="77.201958" font-weight="normal">600</text>
<text style="text-anchor:start;text-align:start;" font-family="Cabin" font-size="6px" font-style="normal" line-height="125%" font-stretch="normal" font-variant="normal" y="151.17404" x="96.164291" font-weight="normal">800</text>
<text style="text-anchor:start;text-align:start;" font-family="Cabin" font-size="6px" font-style="normal" line-height="125%" font-stretch="normal" font-variant="normal" y="151.17404" x="113.06236" font-weight="normal">1000</text>
<text style="text-anchor:start;text-align:start;" font-family="Cabin" font-size="6px" font-style="normal" line-height="125%" font-stretch="normal" font-variant="normal" y="151.17404" x="131.99149" font-weight="normal">1200</text>
<text style="text-anchor:start;text-align:start;" font-family="Cabin" font-size="6px" font-style="normal" line-height="125%" font-stretch="normal" font-variant="normal" y="151.17404" x="150.95383" font-weight="normal">1400</text>
<text style="text-anchor:start;text-align:start;" font-family="Cabin" font-size="6px" font-style="normal" line-height="125%" font-stretch="normal" font-variant="normal" y="151.17404" x="169.88297" font-weight="normal">1600</text>
<text style="text-anchor:start;text-align:start;" font-family="Cabin" font-size="6px" font-style="normal" line-height="125%" font-stretch="normal" font-variant="normal" y="151.17404" x="188.84531" font-weight="normal">1800</text>
<text style="text-anchor:start;text-align:start;" font-family="Cabin" font-size="6px" font-style="normal" line-height="125%" font-stretch="normal" font-variant="normal" y="151.17404" x="207.77443" font-weight="normal">2000</text>
<path d="m25.458,4.7451v136.69h189.42" stroke="#000" stroke-width="0.33199999000000002" fill="none"/>
<path d="m25.458,143.51v-2.0922" stroke="#000" stroke-width="0.33199999000000002" fill="none"/>
<path d="m44.388,143.51v-2.0922" stroke="#000" stroke-width="0.33199999000000002" fill="none"/>
<path d="m63.35,143.51v-2.0922" stroke="#000" stroke-width="0.33199999000000002" fill="none"/>
<path d="m82.279,143.51v-2.0922" stroke="#000" stroke-width="0.33199999000000002" fill="none"/>
<path d="m101.25,143.51v-2.0922" stroke="#000" stroke-width="0.33199999000000002" fill="none"/>
<path d="m120.17,143.51v-2.0922" stroke="#000" stroke-width="0.33199999000000002" fill="none"/>
<path d="m139.1,143.51v-2.0922" stroke="#000" stroke-width="0.33199999000000002" fill="none"/>
<path d="m158.07,143.51v-2.0922" stroke="#000" stroke-width="0.33199999000000002" fill="none"/>
<path d="m177,143.51v-2.0922" stroke="#000" stroke-width="0.33199999000000002" fill="none"/>
<path d="m195.96,143.51v-2.0922" stroke="#000" stroke-width="0.33199999000000002" fill="none"/>
<path d="m214.89,143.51v-2.0922" stroke="#000" stroke-width="0.33199999000000002" fill="none"/>
<path d="m23.298,4.8851h2.0922" stroke="#000" stroke-width="0.33199999000000002" fill="none"/>
<path d="m23.298,32.075h2.0922" stroke="#000" stroke-width="0.33199999000000002" fill="none"/>
<path d="m23.298,59.405h2.0922" stroke="#000" stroke-width="0.33199999000000002" fill="none"/>
<path d="m23.298,86.775h2.0922" stroke="#000" stroke-width="0.33199999000000002" fill="none"/>
<path d="m23.298,114.11h2.0922" stroke="#000" stroke-width="0.33199999000000002" fill="none"/>
<path d="m23.298,141.43h2.0922" stroke="#000" stroke-width="0.33199999000000002" fill="none"/>
<path d="m34.923,22.085,9.4646,11.125,9.4978,1.9261,9.4646,2.1586,9.4646,0.63097,9.4646,1.6604,9.4646,1.5608,9.4978-0.26567,9.4646,1.4612,9.4646-0.29888,9.4646,0.59777,9.4646,0.83022,9.4978,0.66418,9.4646,0.69739,9.4646-0.59776,9.4646-0.16605,9.4646-0.0996,9.4978,1.2619,9.4646,0.59776,9.4646,0.16604" stroke="#F00" stroke-width="0.33199999000000002" fill="none"/>
<path d="m184.4,43.235,4.1179,0m7.4388,2.5571,0-1.0959m-2.059,1.0959,4.1179,0m-4.1179-1.0959,4.1179,0m7.4056,1.7269,0-1.1291m-2.059,1.1291,4.1179,0m-4.1179-1.1291,4.1179,0m7.4056,1.0627,0-0.73059m-2.059,0.73059,4.1179,0m-4.1179-0.73059,4.1179,0m-30.47,82.754h19.627m-19.627-1.0295,0,2.059m19.627-2.059,0,2.059m-171.2-105.71v-3.3541m-2.059,3.3541,4.1179,0m-4.1179-3.3541,4.1179,0m7.4056,14.512,0-3.3209m-2.059,3.3209,4.1179,0m-4.1179-3.3209,4.1179,0m7.4388,4.9814,0-2.7896m-2.059,2.7896,4.1179,0m-4.1179-2.7896,4.1179,0m7.4056,4.616,0-1.9261m-2.059,1.9261,4.1179,0m-4.1179-1.9261,4.1179,0m7.4056,2.3578,0-1.7933m-2.059,1.7933,4.1179,0m-4.1179-1.7933,4.1179,0m7.4056,3.2213,0-1.2952m-2.059,1.2952,4.1179,0m-4.1179-1.2952,4.1179,0m7.4056,2.7231,0-1.0627m-2.059,1.0627,4.1179,0m-4.1179-1.0627,4.1179,0m7.4388,0.92985,0-1.2287m-2.059,1.2287,4.1179,0m-4.1179-1.2287,4.1179,0m7.4056,2.9888,0-1.8929m-2.059,1.8929,4.1179,0m-4.1179-1.8929,4.1179,0m7.4056,1.2952,0-1.2952m-2.059,1.2952,4.1179,0m-4.1179-1.2952,4.1179,0m7.4056,1.9925,0-1.428m-2.059,1.428,4.1179,0m-4.1179-1.428,4.1179,0m7.4056,2.3578,0-1.4944m-2.059,1.4944,4.1179,0m-4.1179-1.4944,4.1179,0m7.4388,1.7269,0-0.79702m-2.059,0.79702,4.1179,0m-4.1179-0.79702,4.1179,0m7.4056,1.6604,0-1.0295m-2.059,1.0295,4.1179,0m-4.1179-1.0295,4.1179,0m7.4056,0.63097,0-1.6937m-2.059,1.6937,4.1179,0m-4.1179-1.6937,4.1179,0m7.4056,1.3284,0-1.262m-2.059,1.262,4.1179,0m-4.1179-1.262,4.1179,0m7.4056,1.262,0-1.3948m-2.059,1.3948,4.1179,0" stroke="#F00" stroke-width="0.33199999000000002" fill="none"/>
<path d="m34.923,28.195,9.4646,8.0698,9.4978,4.4832,9.4646,2.1254,9.4646,0.0664,9.4646,2.4907,9.4646,2.059,9.4978,2.0922,9.4646-1.7933,9.4646-1.1623,9.4646,3.653,9.4646-0.33209,9.4978,0.36529,9.4646,2.6567,9.4646-0.3653,9.4646-0.69738,9.4646-3.6862,9.4978,5.247,9.4646-0.33209,9.4646,0.23246" stroke-dashoffset="0" stroke="#0F0" stroke-miterlimit="4" stroke-dasharray="none" stroke-width="0.33199999000000002" fill="none"/>
<path d="m184.4,47.785,4.1179,0m7.4388,8.3355,0-5.4463m-2.059,5.4463,4.1179,0m-4.1179-5.4463,4.1179,0m7.4056,5.0478,0-4.9149m-2.059,4.9149,4.1179,0m-4.1179-4.9149,4.1179,0m7.4056,5.1142,0-4.9814m-2.059,4.9814,4.1179,0m-4.1179-4.9814,4.1179,0m-30.47,84.75h19.627m-19.627-1.0295,0,2.059m19.627-2.059,0,2.059m-171.2-106.4v-4.1179m-2.059,4.1179,4.1179,0m-4.1179-4.1179,4.1179,0m7.4056,13.516,0-5.8116m-2.059,5.8116,4.1179,0m-4.1179-5.8116,4.1179,0m7.4388,8.9664,0-4.1843m-2.059,4.1843,4.1179,0m-4.1179-4.1843,4.1179,0m7.4056,5.9444,0-3.3541m-2.059,3.3541,4.1179,0m-4.1179-3.3541,4.1179,0m7.4056,3.819,0-4.45m-2.059,4.45,4.1179,0m-4.1179-4.45,4.1179,0m7.4056,6.5422,0-3.6862m-2.059,3.6862,4.1179,0m-4.1179-3.6862,4.1179,0m7.4056,6.675,0-5.0146m-2.059,5.0146,4.1179,0m-4.1179-5.0146,4.1179,0m7.4388,6.5754,0-4.3504m-2.059,4.3504,4.1179,0m-4.1179-4.3504,4.1179,0m7.4056,2.8228,0-4.5828m-2.059,4.5828,4.1179,0m-4.1179-4.5828,4.1179,0m7.4056,3.0552,0-3.9519m-2.059,3.9519,4.1179,0m-4.1179-3.9519,4.1179,0m7.4056,7.3392,0-3.4869m-2.059,3.4869,4.1179,0m-4.1179-3.4869,4.1179,0m7.4056,4.0847,0-5.2138m-2.059,5.2138,4.1179,0m-4.1179-5.2138,4.1179,0m7.4388,4.8485,0-3.8854m-2.059,3.8854,4.1179,0m-4.1179-3.8854,4.1179,0m7.4056,6.7082,0-4.5164m-2.059,4.5164,4.1179,0m-4.1179-4.5164,4.1179,0m7.4056,4.8485,0-5.712m-2.059,5.712,4.1179,0m-4.1179-5.712,4.1179,0m7.4056,4.0183,0-3.8522m-2.059,3.8522,4.1179,0m-4.1179-3.8522,4.1179,0m7.4056-1.2287,0-0.89664m-2.059,0.89664,4.1179,0" stroke-dashoffset="0" stroke="#0F0" stroke-miterlimit="4" stroke-dasharray="none" stroke-width="0.33199999000000002" fill="none"/>
<path d="m44.388,38.355,0-4.1843" stroke="#0F0" stroke-width="0.33199999000000002" fill="none"/>
</svg>
