<?xml version="1.0"?>
<svg xmlns="http://www.w3.org/2000/svg" version="1.1"
     viewBox="0 0 226 164">
<g font-size="7.3px" font-family="Helvetica">
<text x="-87.705116" y="5.9379177" transform="rotate(-90)">accuracy</text>
<text x="95.199905" y="162.13303">number of sites</text>
<text x="156.52763" y="130.81693">Jaccard</text>
<text x="161.80255" y="138.12289">Bayes</text>
<text x="17.013037" y="143.86806">0</text>
<text x="10.920179" y="116.53704">0.2</text>
<text x="10.920179" y="89.206169">0.4</text>
<text x="10.920179" y="61.841942">0.6</text>
<text x="10.920179" y="34.510933">0.8</text>
<text x="17.013037" y="7.1799402">1</text>
<text x="24.443018" y="151.17404">0</text>
<text x="39.310287" y="151.17404">200</text>
<text x="58.272827" y="151.17404">400</text>
<text x="77.201958" y="151.17404">600</text>
<text x="96.164291" y="151.17404">800</text>
<text x="113.06236" y="151.17404">1000</text>
<text x="131.99149" y="151.17404">1200</text>
<text x="150.95383" y="151.17404">1400</text>
<text x="169.88297" y="151.17404">1600</text>
<text x="188.84531" y="151.17404">1800</text>
<text x="207.77443" y="151.17404">2000</text>
</g>
<g fill="none" stroke="#000" stroke-width="0.332">
<path d="m25.458,4.7451v136.69h189.42"/>
<path d="m25.458,143.51v-2.0922"/>
<path d="m44.388,143.51v-2.0922"/>
<path d="m63.35,143.51v-2.0922"/>
<path d="m82.279,143.51v-2.0922"/>
<path d="m101.25,143.51v-2.0922"/>
<path d="m120.17,143.51v-2.0922"/>
<path d="m139.1,143.51v-2.0922"/>
<path d="m158.07,143.51v-2.0922"/>
<path d="m177,143.51v-2.0922"/>
<path d="m195.96,143.51v-2.0922"/>
<path d="m214.89,143.51v-2.0922"/>
<path d="m23.298,4.8851h2.0922"/>
<path d="m23.298,32.075h2.0922"/>
<path d="m23.298,59.405h2.0922"/>
<path d="m23.298,86.775h2.0922"/>
<path d="m23.298,114.11h2.0922"/>
<path d="m23.298,141.43h2.0922"/>
<g stroke="#F00">
<path d="m186.49,128.38,19.627,0m-19.627-1.0295,0,2.059m19.627-2.059,0,2.059m-171.2-105.71v-3.3541m-2.059,3.3541,4.1179,0m-4.1179-3.3541,4.1179,0m7.4056,14.512,0-3.3209m-2.059,3.3209,4.1179,0m-4.1179-3.3209,4.1179,0m7.4388,4.9814,0-2.7896m-2.059,2.7896,4.1179,0m-4.1179-2.7896,4.1179,0m7.4056,4.616,0-1.9261m-2.059,1.9261,4.1179,0m-4.1179-1.9261,4.1179,0m7.4056,2.3578,0-1.7933m-2.059,1.7933,4.1179,0m-4.1179-1.7933,4.1179,0m7.4056,3.2213,0-1.2952m-2.059,1.2952,4.1179,0m-4.1179-1.2952,4.1179,0m7.4056,2.7231,0-1.0627m-2.059,1.0627,4.1179,0m-4.1179-1.0627,4.1179,0m7.4388,0.92985,0-1.2287m-2.059,1.2287,4.1179,0m-4.1179-1.2287,4.1179,0m7.4056,2.9888,0-1.8929m-2.059,1.8929,4.1179,0m-4.1179-1.8929,4.1179,0m7.4056,1.2952,0-1.2952m-2.059,1.2952,4.1179,0m-4.1179-1.2952,4.1179,0m7.4056,1.9925,0-1.428m-2.059,1.428,4.1179,0m-4.1179-1.428,4.1179,0m7.4056,2.3578,0-1.4944m-2.059,1.4944,4.1179,0m-4.1179-1.4944,4.1179,0m7.4388,1.7269,0-0.79702m-2.059,0.79702,4.1179,0m-4.1179-0.79702,4.1179,0m7.4056,1.6604,0-1.0295m-2.059,1.0295,4.1179,0m-4.1179-1.0295,4.1179,0m7.4056,0.63097,0-1.6937m-2.059,1.6937,4.1179,0m-4.1179-1.6937,4.1179,0m7.4056,1.3284,0-1.262m-2.059,1.262,4.1179,0m-4.1179-1.262,4.1179,0m7.4056,1.262,0-1.3948m-2.059,1.3948,4.1179,0"/>
<path d="m34.923,22.085,9.4646,11.125,9.4978,1.9261,9.4646,2.1586,9.4646,0.63097,9.4646,1.6604,9.4646,1.5608,9.4978-0.26567,9.4646,1.4612,9.4646-0.29888,9.4646,0.59777,9.4646,0.83022,9.4978,0.66418,9.4646,0.69739,9.4646-0.59776,9.4646-0.16605,9.4646-0.0996,9.4978,1.2619,9.4646,0.59776,9.4646,0.16604"/>
<path d="m184.4,43.235,4.1179,0m7.4388,2.5571,0-1.0959m-2.059,1.0959,4.1179,0m-4.1179-1.0959,4.1179,0m7.4056,1.7269,0-1.1291m-2.059,1.1291,4.1179,0m-4.1179-1.1291,4.1179,0m7.4056,1.0627,0-0.73059m-2.059,0.73059,4.1179,0m-4.1179-0.73059,4.1179,0"/>
<path d="m32.831,19.985,4.1843,4.1843"/>
<path d="m32.831,24.175,4.1843-4.1843"/>
<path d="m42.295,31.115,4.1843,4.1843"/>
<path d="m42.295,35.295,4.1843-4.1843"/>
<path d="m51.793,33.035,4.1843,4.1843"/>
<path d="m51.793,37.225,4.1843-4.1843"/>
<path d="m61.258,35.195,4.1843,4.1843"/>
<path d="m61.258,39.385,4.1843-4.1843"/>
<path d="m70.722,35.825,4.1843,4.1843"/>
<path d="m70.722,40.015,4.1843-4.1843"/>
<path d="m80.187,37.485,4.1843,4.1843"/>
<path d="m80.187,41.675,4.1843-4.1843"/>
<path d="m89.656,39.055,4.1843,4.1843"/>
<path d="m89.656,43.235,4.1843-4.1843"/>
<path d="m99.146,38.785,4.1843,4.1843"/>
<path d="m99.146,42.965,4.1843-4.1843"/>
<path d="m108.62,40.245,4.1843,4.1843"/>
<path d="m108.62,44.435,4.1843-4.1843"/>
<path d="m118.08,39.945,4.1843,4.1843"/>
<path d="m118.08,44.135,4.1843-4.1843"/>
<path d="m127.55,40.545,4.1843,4.1843"/>
<path d="m127.55,44.725,4.1843-4.1843"/>
<path d="m137.01,41.375,4.1843,4.1843"/>
<path d="m137.01,45.555,4.1843-4.1843"/>
<path d="m146.51,42.035,4.1843,4.1843"/>
<path d="m146.51,46.225,4.1843-4.1843"/>
<path d="m155.97,42.735,4.1843,4.1843"/>
<path d="m155.97,46.925,4.1843-4.1843"/>
<path d="m165.44,42.135,4.1843,4.1843"/>
<path d="m165.44,46.325,4.1843-4.1843"/>
<path d="m174.9,41.975,4.1843,4.1843"/>
<path d="m174.9,46.155,4.1843-4.1843"/>
<path d="m184.37,41.875,4.1843,4.1843"/>
<path d="m184.37,46.055,4.1843-4.1843"/>
<path d="m193.87,43.135,4.1843,4.1843"/>
<path d="m193.87,47.315,4.1843-4.1843"/>
<path d="m203.33,43.735,4.1843,4.1843"/>
<path d="m203.33,47.915,4.1843-4.1843"/>
<path d="m212.79,43.895,4.1843,4.1843"/>
<path d="m212.79,48.085,4.1843-4.1843"/>
<path d="m194.2,126.29,4.1843,4.1843"/>
<path d="m194.2,130.48,4.1843-4.1843"/>
</g>
<g stroke="#0F0">
<path d="m34.923,28.195,9.4646,8.0698,9.4978,4.4832,9.4646,2.1254,9.4646,0.0664,9.4646,2.4907,9.4646,2.059,9.4978,2.0922,9.4646-1.7933,9.4646-1.1623,9.4646,3.653,9.4646-0.33209,9.4978,0.36529,9.4646,2.6567,9.4646-0.3653,9.4646-0.69738,9.4646-3.6862,9.4978,5.247,9.4646-0.33209,9.4646,0.23246" stroke-dasharray="1.32836, 0.66418"/>
<path d="m186.49,135.69,19.627,0m-19.627-1.0295,0,2.059m19.627-2.059,0,2.059m-171.2-106.4v-4.1179m-2.059,4.1179,4.1179,0m-4.1179-4.1179,4.1179,0m7.4056,13.516,0-5.8116m-2.059,5.8116,4.1179,0m-4.1179-5.8116,4.1179,0m7.4388,8.9664,0-4.1843m-2.059,4.1843,4.1179,0m-4.1179-4.1843,4.1179,0m7.4056,5.9444,0-3.3541m-2.059,3.3541,4.1179,0m-4.1179-3.3541,4.1179,0m7.4056,3.819,0-4.45m-2.059,4.45,4.1179,0m-4.1179-4.45,4.1179,0m7.4056,6.5422,0-3.6862m-2.059,3.6862,4.1179,0m-4.1179-3.6862,4.1179,0m7.4056,6.675,0-5.0146m-2.059,5.0146,4.1179,0m-4.1179-5.0146,4.1179,0m7.4388,6.5754,0-4.3504m-2.059,4.3504,4.1179,0m-4.1179-4.3504,4.1179,0m7.4056,2.8228,0-4.5828m-2.059,4.5828,4.1179,0m-4.1179-4.5828,4.1179,0m7.4056,3.0552,0-3.9519m-2.059,3.9519,4.1179,0m-4.1179-3.9519,4.1179,0m7.4056,7.3392,0-3.4869m-2.059,3.4869,4.1179,0m-4.1179-3.4869,4.1179,0m7.4056,4.0847,0-5.2138m-2.059,5.2138,4.1179,0m-4.1179-5.2138,4.1179,0m7.4388,4.8485,0-3.8854m-2.059,3.8854,4.1179,0m-4.1179-3.8854,4.1179,0m7.4056,6.7082,0-4.5164m-2.059,4.5164,4.1179,0m-4.1179-4.5164,4.1179,0m7.4056,4.8485,0-5.712m-2.059,5.712,4.1179,0m-4.1179-5.712,4.1179,0m7.4056,4.0183,0-3.8522m-2.059,3.8522,4.1179,0m-4.1179-3.8522,4.1179,0m7.4056-1.2287,0-0.89664m-2.059,0.89664,4.1179,0" stroke-dasharray="1.32836, 0.66418"/>
<path d="m184.4,47.785,4.1179,0m7.4388,8.3355,0-5.4463m-2.059,5.4463,4.1179,0m-4.1179-5.4463,4.1179,0m7.4056,5.0478,0-4.9149m-2.059,4.9149,4.1179,0m-4.1179-4.9149,4.1179,0m7.4056,5.1142,0-4.9814m-2.059,4.9814,4.1179,0m-4.1179-4.9814,4.1179,0" stroke-dasharray="1.32836, 0.66418"/>
<path d="m34.923,30.285,0-4.1843"/>
<path d="m32.831,28.195,4.1843,0"/>
<path d="m32.831,26.095,4.1843,4.1843"/>
<path d="m32.831,30.285,4.184-4.19"/>
<path d="m44.388,38.355,0-4.1843"/>
<path d="m42.295,36.265,4.1843,0"/>
<path d="m42.295,34.165,4.1843,4.1843"/>
<path d="m42.295,38.355,4.1843-4.1843"/>
<path d="m53.885,42.835,0-4.1843"/>
<path d="m51.793,40.745,4.1843,0"/>
<path d="m51.793,38.655,4.1843,4.1843"/>
<path d="m51.793,42.835,4.1843-4.1843"/>
<path d="m63.35,44.965,0-4.1843"/>
<path d="m61.258,42.865,4.1843,0"/>
<path d="m61.258,40.775,4.1843,4.1843"/>
<path d="m61.258,44.965,4.1843-4.1843"/>
<path d="m72.815,45.025,0-4.1843"/>
<path d="m70.722,42.935,4.1843,0"/>
<path d="m70.722,40.845,4.1843,4.1843"/>
<path d="m70.722,45.025,4.1843-4.1843"/>
<path d="m82.279,47.515,0-4.1843"/>
<path d="m80.187,45.425,4.1843,0"/>
<path d="m80.187,43.335,4.1843,4.1843"/>
<path d="m80.187,47.515,4.1843-4.1843"/>
<path d="m91.746,49.575,0-4.1843"/>
<path d="m89.656,47.485,4.1843,0"/>
<path d="m89.656,45.395,4.1843,4.1843"/>
<path d="m89.656,49.575,4.1843-4.1843"/>
<path d="m101.25,51.665,0-4.1843"/>
<path d="m99.146,49.575,4.1843,0"/>
<path d="m99.146,47.485,4.1843,4.1843"/>
<path d="m99.146,51.665,4.1843-4.1843"/>
<path d="m110.71,49.875,0-4.1843"/>
<path d="m108.62,47.785,4.1843,0"/>
<path d="m108.62,45.695,4.1843,4.1843"/>
<path d="m108.62,49.875,4.1843-4.1843"/>
<path d="m120.17,48.715,0-4.1843"/>
<path d="m118.08,46.625,4.1843,0"/>
<path d="m118.08,44.525,4.1843,4.1843"/>
<path d="m118.08,48.715,4.1843-4.1843"/>
<path d="m129.64,52.365,0-4.1843"/>
<path d="m127.55,50.275,4.1843,0"/>
<path d="m127.55,48.185,4.1843,4.1843"/>
<path d="m127.55,52.365,4.1843-4.1843"/>
<path d="m139.1,52.035,0-4.1843"/>
<path d="m137.01,49.945,4.1843,0"/>
<path d="m137.01,47.855,4.1843,4.1843"/>
<path d="m137.01,52.035,4.1843-4.1843"/>
<path d="m148.6,52.405,0-4.1843"/>
<path d="m146.51,50.305,4.1843,0"/>
<path d="m146.51,48.215,4.1843,4.1843"/>
<path d="m146.51,52.405,4.1843-4.1843"/>
<path d="m158.07,55.055,0-4.1843"/>
<path d="m155.97,52.965,4.1843,0"/>
<path d="m155.97,50.875,4.1843,4.1843"/>
<path d="m155.97,55.055,4.1843-4.1843"/>
<path d="m167.53,54.695,0-4.1843"/>
<path d="m165.44,52.595,4.1843,0"/>
<path d="m165.44,50.505,4.1843,4.1843"/>
<path d="m165.44,54.695,4.1843-4.1843"/>
<path d="m177,53.995,0-4.1843"/>
<path d="m174.9,51.905,4.1843,0"/>
<path d="m174.9,49.815,4.1843,4.1843"/>
<path d="m174.9,53.995,4.1843-4.1843"/>
<path d="m186.46,50.305,0-4.1843"/>
<path d="m184.37,48.215,4.1843,0"/>
<path d="m184.37,46.125,4.1843,4.1843"/>
<path d="m184.37,50.305,4.1843-4.1843"/>
<path d="m195.96,55.555,0-4.1843"/>
<path d="m193.87,53.465,4.1843,0"/>
<path d="m193.87,51.375,4.1843,4.1843"/>
<path d="m193.87,55.555,4.1843-4.1843"/>
<path d="m205.42,55.225,0-4.1843"/>
<path d="m203.33,53.135,4.1843,0"/>
<path d="m203.33,51.035,4.1843,4.1843"/>
<path d="m203.33,55.225,4.1843-4.1843"/>
<path d="m214.89,55.455,0-4.1843"/>
<path d="m212.79,53.365,4.1843,0"/>
<path d="m212.79,51.275,4.1843,4.1843"/>
<path d="m212.79,55.455,4.1843-4.1843"/>
<path d="m196.29,137.78,0-4.1843"/>
<path d="m194.2,135.69,4.1843,0"/>
<path d="m194.2,133.6,4.1843,4.1843"/>
<path d="m194.2,137.78,4.1843-4.1843"/>
</g>
</g>
</svg>
