<?xml version="1.0" encoding="UTF-8" standalone="no"?>
<!-- Created with Inkscape (http://www.inkscape.org/) -->
<svg xmlns:rdf="http://www.w3.org/1999/02/22-rdf-syntax-ns#" xmlns="http://www.w3.org/2000/svg" version="1.1" xmlns:cc="http://creativecommons.org/ns#" xmlns:dc="http://purl.org/dc/elements/1.1/" viewBox="0 0 290.38 204.38">
<metadata>
<rdf:RDF>
<cc:Work rdf:about="">
<dc:format>image/svg+xml</dc:format>
<dc:type rdf:resource="http://purl.org/dc/dcmitype/StillImage"/>
<dc:title/>
</cc:Work>
</rdf:RDF>
</metadata>
<g transform="translate(2.0000002,2.0000001)">
<path stroke-linejoin="miter" d="m39.323,3.4321,0,170.86,236.78,0" stroke="#000" stroke-linecap="butt" stroke-miterlimit="10" stroke-dasharray="none" stroke-width="0.4151125" fill="none"/>
<path stroke-linejoin="miter" d="m36.723,174.29,2.6152,0" stroke="#000" stroke-linecap="butt" stroke-miterlimit="10" stroke-dasharray="none" stroke-width="0.4151125" fill="none"/>
<text y="177.33504" x="28.766283" font-size="9.96269989px">
<tspan style="writing-mode:lr-tb;" font-weight="normal" fill-rule="nonzero" font-size="9.1324749px" font-variant="normal" y="177.33504" x="28.766283" font-family="Helvetica" fill="#000000">0</tspan>
</text>
<path stroke-linejoin="miter" d="m36.723,140.13,2.6152,0" stroke="#000" stroke-linecap="butt" stroke-miterlimit="10" stroke-dasharray="none" stroke-width="0.4151125" fill="none"/>
<text y="143.1713" x="21.150202" font-size="9.96269989px">
<tspan style="writing-mode:lr-tb;" font-weight="normal" fill-rule="nonzero" font-size="9.1324749px" font-variant="normal" y="143.1713" x="21.150202 26.227869 28.766703" font-family="Helvetica" fill="#000000">0.2</tspan>
</text>
<path stroke-linejoin="miter" d="m36.723,105.96,2.6152,0" stroke="#000" stroke-linecap="butt" stroke-miterlimit="10" stroke-dasharray="none" stroke-width="0.4151125" fill="none"/>
<text y="109.00771" x="21.150202" font-size="9.96269989px">
<tspan style="writing-mode:lr-tb;" font-weight="normal" fill-rule="nonzero" font-size="9.1324749px" font-variant="normal" y="109.00771" x="21.150202 26.227869 28.766703" font-family="Helvetica" fill="#000000">0.4</tspan>
</text>
<path stroke-linejoin="miter" d="m36.723,71.76,2.6152,0" stroke="#000" stroke-linecap="butt" stroke-miterlimit="10" stroke-dasharray="none" stroke-width="0.4151125" fill="none"/>
<text y="74.802429" x="21.150202" font-size="9.96269989px">
<tspan style="writing-mode:lr-tb;" font-weight="normal" fill-rule="nonzero" font-size="9.1324749px" font-variant="normal" y="74.802429" x="21.150202 26.227869 28.766703" font-family="Helvetica" fill="#000000">0.6</tspan>
</text>
<path stroke-linejoin="miter" d="m36.723,37.596,2.6152,0" stroke="#000" stroke-linecap="butt" stroke-miterlimit="10" stroke-dasharray="none" stroke-width="0.4151125" fill="none"/>
<text y="40.638687" x="21.150202" font-size="9.96269989px">
<tspan style="writing-mode:lr-tb;" font-weight="normal" fill-rule="nonzero" font-size="9.1324749px" font-variant="normal" y="40.638687" x="21.150202 26.227869 28.766703" font-family="Helvetica" fill="#000000">0.8</tspan>
</text>
<path stroke-linejoin="miter" d="m36.723,3.4321,2.6152,0" stroke="#000" stroke-linecap="butt" stroke-miterlimit="10" stroke-dasharray="none" stroke-width="0.4151125" fill="none"/>
<text y="6.4749246" x="28.766283" font-size="9.96269989px">
<tspan style="writing-mode:lr-tb;" font-weight="normal" fill-rule="nonzero" font-size="9.1324749px" font-variant="normal" y="6.4749246" x="28.766283" font-family="Helvetica" fill="#000000">1</tspan>
</text>
<path stroke-linejoin="miter" d="m276.1,176.89,0-2.6152" stroke="#000" stroke-linecap="butt" stroke-miterlimit="10" stroke-dasharray="none" stroke-width="0.4151125" fill="none"/>
<text font-size="7.47202492px" font-weight="normal" fill-rule="nonzero" font-variant="normal" y="185.91559" x="274.02588" font-family="Helvetica" fill="#000000">
<tspan style="writing-mode:lr-tb;" y="185.91559" x="274.02588">4</tspan>
<tspan style="writing-mode:lr-tb;" y="193.38763" x="265.51541 270.91022 275.06467 279.21909 282.95514">weeks</tspan>
</text>
<path stroke-linejoin="miter" d="m156.63,176.89,0-2.6152" stroke="#000" stroke-linecap="butt" stroke-miterlimit="10" stroke-dasharray="none" stroke-width="0.4151125" fill="none"/>
<text y="185.91559" x="142.93086" font-size="9.96269989px">
<tspan style="writing-mode:lr-tb;" font-weight="normal" fill-rule="nonzero" font-size="7.47202492px" font-variant="normal" y="185.91559" x="142.93086 147.0853 149.16252 154.55734 158.71178 162.86621 166.6022" font-family="Helvetica" fill="#000000">2 weeks</tspan>
</text>
<path stroke-linejoin="miter" d="m96.899,176.89,0-2.6152" stroke="#000" stroke-linecap="butt" stroke-miterlimit="10" stroke-dasharray="none" stroke-width="0.4151125" fill="none"/>
<text font-size="7.47202492px" font-weight="normal" fill-rule="nonzero" font-variant="normal" y="185.91559" x="94.821808" font-family="Helvetica" fill="#000000">
<tspan style="writing-mode:lr-tb;" y="185.91559" x="94.821808">1</tspan>
<tspan style="writing-mode:lr-tb;" y="193.38763" x="88.179352 93.574135 97.728607 101.88304">week</tspan>
</text>
<path stroke-linejoin="miter" d="m62.777,176.89,0-2.6152" stroke="#000" stroke-linecap="butt" stroke-miterlimit="10" stroke-dasharray="none" stroke-width="0.4151125" fill="none"/>
<text font-size="7.47202492px" font-weight="normal" fill-rule="nonzero" font-variant="normal" y="185.91559" x="60.699535" font-family="Helvetica" fill="#000000">
<tspan style="writing-mode:lr-tb;" y="185.91559" x="60.699535">3</tspan>
<tspan style="writing-mode:lr-tb;" y="193.38763" x="54.886356 59.040791 63.195263 66.931259">days</tspan>
</text>
<path stroke-linejoin="miter" d="m45.716,176.89,0-2.6152" stroke="#000" stroke-linecap="butt" stroke-miterlimit="10" stroke-dasharray="none" stroke-width="0.4151125" fill="none"/>
<text font-size="7.47202492px" font-weight="normal" fill-rule="nonzero" font-variant="normal" y="185.91559" x="43.638458" font-family="Helvetica" fill="#000000">
<tspan style="writing-mode:lr-tb;" y="185.91559" x="43.638458">1</tspan>
<tspan style="writing-mode:lr-tb;" y="193.38763" x="39.69326 43.847694 48.002129">day</tspan>
</text>
<text font-size="9.96269989px" transform="matrix(0,-1,1,0,0,0)" y="4.9224038" x="-107.13142">
<tspan style="writing-mode:lr-tb;" font-weight="normal" fill-rule="nonzero" font-size="9.1324749px" font-variant="normal" y="4.9224038" x="-107.13142 -102.05375 -97.487518 -92.921288 -87.84362 -84.802505 -79.724838 -75.158607" font-family="Helvetica" fill="#000000">accuracy</tspan>
</text>
<text y="200.16628" x="147.81425" font-size="9.96269989px">
<tspan style="writing-mode:lr-tb;" font-weight="normal" fill-rule="nonzero" font-size="9.1324749px" font-variant="normal" y="200.16628" x="147.81425 152.89188 157.96954 159.99695 162.53578" font-family="Helvetica" fill="#000000">delta</tspan>
</text>
<path stroke-linejoin="miter" d="m45.716,49.717,17.061,4.9814,34.122-0.3736,59.735,3.819,119.47,7.555" stroke="#F00" stroke-linecap="butt" stroke-miterlimit="10" stroke-dasharray="none" stroke-width="0.4151125" fill="none"/>
<text y="13.65636" x="203.15952" font-size="9.96269989px">
<tspan style="writing-mode:lr-tb;" font-weight="normal" fill-rule="nonzero" font-size="9.1324749px" font-variant="normal" y="13.65636" x="203.15952 207.72577 212.80342 217.36964 221.93588 227.01355 230.05466" font-family="Helvetica" fill="#000000">Jaccard</tspan>
</text>
<path stroke-linejoin="miter" d="m240.61,10.614,24.533,0m-24.533-1.2869,0,2.5737m24.533-2.5737,0,2.5737m-219.42,38.231v-0.83022m-2.5737,0.83022,5.1474,0m-5.1474-0.83022,5.1474,0m14.487,11.789,0-10.17m-2.5737,10.17,5.1474,0m-5.1474-10.17,5.1474,0m31.549,4.4417,0-1.9925m-2.5737,1.9925,5.1474,0m-5.1474-1.9925,5.1474,0m57.161,5.9776,0-2.5322m-2.5737,2.5322,5.1474,0m-5.1474-2.5322,5.1474,0m116.9,10.004,0-2.2831m-2.5737,2.2831,5.1474,0m-5.1474-2.2831,5.1474,0" stroke="#F00" stroke-linecap="butt" stroke-miterlimit="10" stroke-dasharray="none" stroke-width="0.4151125" fill="none"/>
<path stroke-linejoin="miter" d="m45.716,52.332,0-5.2304" stroke="#F00" stroke-linecap="butt" stroke-miterlimit="10" stroke-dasharray="none" stroke-width="0.4151125" fill="none"/>
<path stroke-linejoin="miter" d="m43.1,49.717,5.2304,0" stroke="#F00" stroke-linecap="butt" stroke-miterlimit="10" stroke-dasharray="none" stroke-width="0.4151125" fill="none"/>
<path stroke-linejoin="miter" d="m62.777,57.314,0-5.2304" stroke="#F00" stroke-linecap="butt" stroke-miterlimit="10" stroke-dasharray="none" stroke-width="0.4151125" fill="none"/>
<path stroke-linejoin="miter" d="m60.162,54.699,5.2304,0" stroke="#F00" stroke-linecap="butt" stroke-miterlimit="10" stroke-dasharray="none" stroke-width="0.4151125" fill="none"/>
<path stroke-linejoin="miter" d="m96.899,56.94,0-5.2304" stroke="#F00" stroke-linecap="butt" stroke-miterlimit="10" stroke-dasharray="none" stroke-width="0.4151125" fill="none"/>
<path stroke-linejoin="miter" d="m94.284,54.325,5.2304,0" stroke="#F00" stroke-linecap="butt" stroke-miterlimit="10" stroke-dasharray="none" stroke-width="0.4151125" fill="none"/>
<path stroke-linejoin="miter" d="m156.63,60.759,0-5.2304" stroke="#F00" stroke-linecap="butt" stroke-miterlimit="10" stroke-dasharray="none" stroke-width="0.4151125" fill="none"/>
<path stroke-linejoin="miter" d="m154.02,58.144,5.2304,0" stroke="#F00" stroke-linecap="butt" stroke-miterlimit="10" stroke-dasharray="none" stroke-width="0.4151125" fill="none"/>
<path stroke-linejoin="miter" d="m276.1,68.314,0-5.2304" stroke="#F00" stroke-linecap="butt" stroke-miterlimit="10" stroke-dasharray="none" stroke-width="0.4151125" fill="none"/>
<path stroke-linejoin="miter" d="m273.49,65.699,5.2304,0" stroke="#F00" stroke-linecap="butt" stroke-miterlimit="10" stroke-dasharray="none" stroke-width="0.4151125" fill="none"/>
<path stroke-linejoin="miter" d="m252.86,13.229,0-5.2304" stroke="#F00" stroke-linecap="butt" stroke-miterlimit="10" stroke-dasharray="none" stroke-width="0.4151125" fill="none"/>
<path stroke-linejoin="miter" d="m250.24,10.614,5.2304,0" stroke="#F00" stroke-linecap="butt" stroke-miterlimit="10" stroke-dasharray="none" stroke-width="0.4151125" fill="none"/>
<path stroke-linejoin="miter" d="m45.716,58.393,17.061,4.1096,34.122,0.58116,59.735,6.0606,119.47,14.321" stroke-dashoffset="0" stroke="#0F0" stroke-linecap="butt" stroke-miterlimit="10" stroke-dasharray="1.66045, 0.830225" stroke-width="0.4151125" fill="none"/>
<text y="22.788839" x="209.75319" font-size="9.96269989px">
<tspan style="writing-mode:lr-tb;" font-weight="normal" fill-rule="nonzero" font-size="9.1324749px" font-variant="normal" y="22.788839" x="209.75319 215.84453 220.9222 225.48843 230.5661" font-family="Helvetica" fill="#000000">Bayes</tspan>
</text>
<path stroke-linejoin="miter" d="m240.61,19.746,24.533,0m-24.533-1.2868,0,2.5737m24.533-2.5737,0,2.5737m-219.43,40.141,0-5.6455m-2.5737,5.6455,5.1474,0m-5.1474-5.6455,5.1474,0m14.487,13.159,0-10.834m-2.5737,10.834,5.1474,0m-5.1474-10.834,5.1474,0m31.549,7.5966,0-4.6908m-2.5737,4.6908,5.1474,0m-5.1474-4.6908,5.1474,0m57.161,11,0-5.1474m-2.5737,5.1474,5.1474,0m-5.1474-5.1474,5.1474,0m116.9,19.884,0-6.1852m-2.5737,6.1852,5.1474,0m-5.1474-6.1852,5.1474,0" stroke-dashoffset="0" stroke="#0F0" stroke-linecap="butt" stroke-miterlimit="10" stroke-dasharray="1.66045, 0.830225" stroke-width="0.4151125" fill="none"/>
<path stroke-linejoin="miter" d="m43.1,55.778,5.2304,5.2304" stroke="#0F0" stroke-linecap="butt" stroke-miterlimit="10" stroke-dasharray="none" stroke-width="0.4151125" fill="none"/>
<path stroke-linejoin="miter" d="m43.1,61.008,5.2304-5.2304" stroke="#0F0" stroke-linecap="butt" stroke-miterlimit="10" stroke-dasharray="none" stroke-width="0.4151125" fill="none"/>
<path stroke-linejoin="miter" d="m60.162,59.887,5.2304,5.2304" stroke="#0F0" stroke-linecap="butt" stroke-miterlimit="10" stroke-dasharray="none" stroke-width="0.4151125" fill="none"/>
<path stroke-linejoin="miter" d="M60.162,65.118,65.392,59.887" stroke="#0F0" stroke-linecap="butt" stroke-miterlimit="10" stroke-dasharray="none" stroke-width="0.4151125" fill="none"/>
<path stroke-linejoin="miter" d="m94.284,60.469,5.2304,5.2304" stroke="#0F0" stroke-linecap="butt" stroke-miterlimit="10" stroke-dasharray="none" stroke-width="0.4151125" fill="none"/>
<path stroke-linejoin="miter" d="M94.284,65.699,99.514,60.469" stroke="#0F0" stroke-linecap="butt" stroke-miterlimit="10" stroke-dasharray="none" stroke-width="0.4151125" fill="none"/>
<path stroke-linejoin="miter" d="m154.02,66.529,5.2304,5.2304" stroke="#0F0" stroke-linecap="butt" stroke-miterlimit="10" stroke-dasharray="none" stroke-width="0.4151125" fill="none"/>
<path stroke-linejoin="miter" d="m154.02,71.76,5.2304-5.2304" stroke="#0F0" stroke-linecap="butt" stroke-miterlimit="10" stroke-dasharray="none" stroke-width="0.4151125" fill="none"/>
<path stroke-linejoin="miter" d="m273.49,80.851,5.2304,5.2304" stroke="#0F0" stroke-linecap="butt" stroke-miterlimit="10" stroke-dasharray="none" stroke-width="0.4151125" fill="none"/>
<path stroke-linejoin="miter" d="m273.49,86.081,5.2304-5.2304" stroke="#0F0" stroke-linecap="butt" stroke-miterlimit="10" stroke-dasharray="none" stroke-width="0.4151125" fill="none"/>
<path stroke-linejoin="miter" d="m250.24,17.131,5.2304,5.2304" stroke="#0F0" stroke-linecap="butt" stroke-miterlimit="10" stroke-dasharray="none" stroke-width="0.4151125" fill="none"/>
<path stroke-linejoin="miter" d="M250.24,22.361,255.47,17.131" stroke="#0F0" stroke-linecap="butt" stroke-miterlimit="10" stroke-dasharray="none" stroke-width="0.4151125" fill="none"/>
</g>
</svg>
