<?xml version="1.0" encoding="UTF-8" standalone="no"?>
<!-- Created with Inkscape (http://www.inkscape.org/) -->
<svg xmlns:rdf="http://www.w3.org/1999/02/22-rdf-syntax-ns#" xmlns="http://www.w3.org/2000/svg" version="1.1" xmlns:cc="http://creativecommons.org/ns#" xmlns:dc="http://purl.org/dc/elements/1.1/" viewBox="0 0 286.05 206.16">
<metadata>
<rdf:RDF>
<cc:Work rdf:about="">
<dc:format>image/svg+xml</dc:format>
<dc:type rdf:resource="http://purl.org/dc/dcmitype/StillImage"/>
<dc:title/>
</cc:Work>
</rdf:RDF>
</metadata>
<g transform="translate(2.0000002,2.0000001)">
<path stroke-linejoin="miter" d="m39.323,3.4322,0,170.86,236.78,0" stroke="#000" stroke-linecap="butt" stroke-miterlimit="10" stroke-dasharray="none" stroke-width="0.4151125" fill="none"/>
<path stroke-linejoin="miter" d="m36.723,174.29,2.6152,0" stroke="#000" stroke-linecap="butt" stroke-miterlimit="10" stroke-dasharray="none" stroke-width="0.4151125" fill="none"/>
<text y="177.3351" x="28.766336" font-size="9.96269989px">
<tspan style="writing-mode:lr-tb;" font-weight="normal" fill-rule="nonzero" font-size="9.1324749px" font-variant="normal" y="177.3351" x="28.766336" font-family="Helvetica" fill="#000000">0</tspan>
</text>
<path stroke-linejoin="miter" d="m36.723,140.13,2.6152,0" stroke="#000" stroke-linecap="butt" stroke-miterlimit="10" stroke-dasharray="none" stroke-width="0.4151125" fill="none"/>
<text y="143.17128" x="21.150248" font-size="9.96269989px">
<tspan style="writing-mode:lr-tb;" font-weight="normal" fill-rule="nonzero" font-size="9.1324749px" font-variant="normal" y="143.17128" x="21.150248" font-family="Helvetica" fill="#000000">0.2</tspan>
</text>
<path stroke-linejoin="miter" d="m36.723,105.96,2.6152,0" stroke="#000" stroke-linecap="butt" stroke-miterlimit="10" stroke-dasharray="none" stroke-width="0.4151125" fill="none"/>
<text y="109.0077" x="21.150248" font-size="9.96269989px">
<tspan style="writing-mode:lr-tb;" font-weight="normal" fill-rule="nonzero" font-size="9.1324749px" font-variant="normal" y="109.0077" x="21.150248" font-family="Helvetica" fill="#000000">0.4</tspan>
</text>
<path stroke-linejoin="miter" d="m36.723,71.76,2.6152,0" stroke="#000" stroke-linecap="butt" stroke-miterlimit="10" stroke-dasharray="none" stroke-width="0.4151125" fill="none"/>
<text y="74.802498" x="21.150248" font-size="9.96269989px">
<tspan style="writing-mode:lr-tb;" font-weight="normal" fill-rule="nonzero" font-size="9.1324749px" font-variant="normal" y="74.802498" x="21.150248" font-family="Helvetica" fill="#000000">0.6</tspan>
</text>
<path stroke-linejoin="miter" d="m36.723,37.596,2.6152,0" stroke="#000" stroke-linecap="butt" stroke-miterlimit="10" stroke-dasharray="none" stroke-width="0.4151125" fill="none"/>
<text y="40.638744" x="21.150248" font-size="9.96269989px">
<tspan style="writing-mode:lr-tb;" font-weight="normal" fill-rule="nonzero" font-size="9.1324749px" font-variant="normal" y="40.638744" x="21.150248" font-family="Helvetica" fill="#000000">0.8</tspan>
</text>
<path stroke-linejoin="miter" d="m36.723,3.4322,2.6152,0" stroke="#000" stroke-linecap="butt" stroke-miterlimit="10" stroke-dasharray="none" stroke-width="0.4151125" fill="none"/>
<text y="6.4749246" x="28.766336" font-size="9.96269989px">
<tspan style="writing-mode:lr-tb;" font-weight="normal" fill-rule="nonzero" font-size="9.1324749px" font-variant="normal" y="6.4749246" x="28.766336" font-family="Helvetica" fill="#000000">1</tspan>
</text>
<path stroke-linejoin="miter" d="m39.323,176.89,0-2.6152" stroke="#000" stroke-linecap="butt" stroke-miterlimit="10" stroke-dasharray="none" stroke-width="0.4151125" fill="none"/>
<text y="186.46754" x="38.053814" font-size="9.96269989px">
<tspan style="writing-mode:lr-tb;" font-weight="normal" fill-rule="nonzero" font-size="9.1324749px" font-variant="normal" y="186.46754" x="38.053814" font-family="Helvetica" fill="#000000">0</tspan>
</text>
<path stroke-linejoin="miter" d="m78.8,176.89,0-2.6152" stroke="#000" stroke-linecap="butt" stroke-miterlimit="10" stroke-dasharray="none" stroke-width="0.4151125" fill="none"/>
<text y="186.46754" x="77.530983" font-size="9.96269989px">
<tspan style="writing-mode:lr-tb;" font-weight="normal" fill-rule="nonzero" font-size="9.1324749px" font-variant="normal" y="186.46754" x="77.530983" font-family="Helvetica" fill="#000000">2</tspan>
</text>
<path stroke-linejoin="miter" d="m118.24,176.89,0-2.6152" stroke="#000" stroke-linecap="butt" stroke-miterlimit="10" stroke-dasharray="none" stroke-width="0.4151125" fill="none"/>
<text y="186.46754" x="116.96647" font-size="9.96269989px">
<tspan style="writing-mode:lr-tb;" font-weight="normal" fill-rule="nonzero" font-size="9.1324749px" font-variant="normal" y="186.46754" x="116.96647" font-family="Helvetica" fill="#000000">4</tspan>
</text>
<path stroke-linejoin="miter" d="m157.71,176.89,0-2.6152" stroke="#000" stroke-linecap="butt" stroke-miterlimit="10" stroke-dasharray="none" stroke-width="0.4151125" fill="none"/>
<text y="186.46754" x="156.44365" font-size="9.96269989px">
<tspan style="writing-mode:lr-tb;" font-weight="normal" fill-rule="nonzero" font-size="9.1324749px" font-variant="normal" y="186.46754" x="156.44365" font-family="Helvetica" fill="#000000">6</tspan>
</text>
<path stroke-linejoin="miter" d="m197.19,176.89,0-2.6152" stroke="#000" stroke-linecap="butt" stroke-miterlimit="10" stroke-dasharray="none" stroke-width="0.4151125" fill="none"/>
<text y="186.46754" x="195.92082" font-size="9.96269989px">
<tspan style="writing-mode:lr-tb;" font-weight="normal" fill-rule="nonzero" font-size="9.1324749px" font-variant="normal" y="186.46754" x="195.92082" font-family="Helvetica" fill="#000000">8</tspan>
</text>
<path stroke-linejoin="miter" d="m236.63,176.89,0-2.6152" stroke="#000" stroke-linecap="butt" stroke-miterlimit="10" stroke-dasharray="none" stroke-width="0.4151125" fill="none"/>
<text y="186.46754" x="232.81767" font-size="9.96269989px">
<tspan style="writing-mode:lr-tb;" font-weight="normal" fill-rule="nonzero" font-size="9.1324749px" font-variant="normal" y="186.46754" x="232.81767" font-family="Helvetica" fill="#000000">10</tspan>
</text>
<path stroke-linejoin="miter" d="m276.1,176.89,0-2.6152" stroke="#000" stroke-linecap="butt" stroke-miterlimit="10" stroke-dasharray="none" stroke-width="0.4151125" fill="none"/>
<text y="186.46754" x="272.29489" font-size="9.96269989px">
<tspan style="writing-mode:lr-tb;" font-weight="normal" fill-rule="nonzero" font-size="9.1324749px" font-variant="normal" y="186.46754" x="272.29489" font-family="Helvetica" fill="#000000">12</tspan>
</text>
<text font-size="9.96269989px" transform="matrix(0,-1,1,0,0,0)" y="4.9224038" x="-107.13148">
<tspan style="writing-mode:lr-tb;" font-weight="normal" fill-rule="nonzero" font-size="9.1324749px" font-variant="normal" y="4.9224038" x="-107.13148" font-family="Helvetica" fill="#000000">accuracy</tspan>
</text>
<text y="200.16628" x="120.41355" font-size="9.96269989px">
<tspan style="writing-mode:lr-tb;" font-weight="normal" fill-rule="nonzero" font-size="9.1324749px" font-variant="normal" y="200.16628" x="120.41355" font-family="Helvetica" fill="#000000">training set size</tspan>
</text>
<path stroke-linejoin="miter" d="m59.041,60.552,19.759-2.3246,39.436-7.1814,78.954-2.034,39.436-1.3699,39.477,0.29058" stroke="#F00" stroke-linecap="butt" stroke-miterlimit="10" stroke-dasharray="none" stroke-width="0.4151125" fill="none"/>
<text y="13.656383" x="203.15953" font-size="9.96269989px">
<tspan style="writing-mode:lr-tb;" font-weight="normal" fill-rule="nonzero" font-size="9.1324749px" font-variant="normal" y="13.656383" x="203.15953" font-family="Helvetica" fill="#000000">Jaccard</tspan>
</text>
<path stroke-linejoin="miter" d="m240.61,10.614,24.533,0m-24.533-1.2869,0,2.5737m24.533-2.5737,0,2.5737m-206.1,49.689,0-2.1586m-2.5737,2.1586,5.1474,0m-5.1474-2.1586,5.1474,0m17.186,0.24906,0-2.9473m-2.5737,2.9473,5.1474,0m-5.1474-2.9473,5.1474,0m36.862-5.0644,0-1.2038m-2.5737,1.2038,5.1474,0m-5.1474-1.2038,5.1474,0m76.381-0.45663,0-2.2416m-2.5737,2.2416,5.1474,0m-5.1474-2.2416,5.1474,0m36.862,0.87174,0-2.0756m-2.5737,2.0756,5.1474,0m-5.1474-2.0756,5.1474,0m36.904,1.9095,0-1.0378m-2.5737,1.0378,5.1474,0m-5.1474-1.0378,5.1474,0" stroke="#F00" stroke-linecap="butt" stroke-miterlimit="10" stroke-dasharray="none" stroke-width="0.4151125" fill="none"/>
<path stroke-linejoin="miter" d="m59.041,63.167,0-5.2304" stroke="#F00" stroke-linecap="butt" stroke-miterlimit="10" stroke-dasharray="none" stroke-width="0.4151125" fill="none"/>
<path stroke-linejoin="miter" d="m56.426,60.552,5.2304,0" stroke="#F00" stroke-linecap="butt" stroke-miterlimit="10" stroke-dasharray="none" stroke-width="0.4151125" fill="none"/>
<path stroke-linejoin="miter" d="m78.8,60.842,0-5.2304" stroke="#F00" stroke-linecap="butt" stroke-miterlimit="10" stroke-dasharray="none" stroke-width="0.4151125" fill="none"/>
<path stroke-linejoin="miter" d="m76.185,58.227,5.2304,0" stroke="#F00" stroke-linecap="butt" stroke-miterlimit="10" stroke-dasharray="none" stroke-width="0.4151125" fill="none"/>
<path stroke-linejoin="miter" d="m118.24,53.661,0-5.2304" stroke="#F00" stroke-linecap="butt" stroke-miterlimit="10" stroke-dasharray="none" stroke-width="0.4151125" fill="none"/>
<path stroke-linejoin="miter" d="m115.62,51.046,5.2304,0" stroke="#F00" stroke-linecap="butt" stroke-miterlimit="10" stroke-dasharray="none" stroke-width="0.4151125" fill="none"/>
<path stroke-linejoin="miter" d="m197.19,51.627,0-5.2304" stroke="#F00" stroke-linecap="butt" stroke-miterlimit="10" stroke-dasharray="none" stroke-width="0.4151125" fill="none"/>
<path stroke-linejoin="miter" d="m194.58,49.012,5.2304,0" stroke="#F00" stroke-linecap="butt" stroke-miterlimit="10" stroke-dasharray="none" stroke-width="0.4151125" fill="none"/>
<path stroke-linejoin="miter" d="m236.63,50.257,0-5.2304" stroke="#F00" stroke-linecap="butt" stroke-miterlimit="10" stroke-dasharray="none" stroke-width="0.4151125" fill="none"/>
<path stroke-linejoin="miter" d="m234.01,47.642,5.2304,0" stroke="#F00" stroke-linecap="butt" stroke-miterlimit="10" stroke-dasharray="none" stroke-width="0.4151125" fill="none"/>
<path stroke-linejoin="miter" d="m276.1,50.547,0-5.2304" stroke="#F00" stroke-linecap="butt" stroke-miterlimit="10" stroke-dasharray="none" stroke-width="0.4151125" fill="none"/>
<path stroke-linejoin="miter" d="m273.49,47.932,5.2304,0" stroke="#F00" stroke-linecap="butt" stroke-miterlimit="10" stroke-dasharray="none" stroke-width="0.4151125" fill="none"/>
<path stroke-linejoin="miter" d="m252.86,13.229,0-5.2304" stroke="#F00" stroke-linecap="butt" stroke-miterlimit="10" stroke-dasharray="none" stroke-width="0.4151125" fill="none"/>
<path stroke-linejoin="miter" d="m250.24,10.614,5.2304,0" stroke="#F00" stroke-linecap="butt" stroke-miterlimit="10" stroke-dasharray="none" stroke-width="0.4151125" fill="none"/>
<path stroke-linejoin="miter" d="m59.041,95.753,19.759-9.8381,39.436-27.854,78.954-9.0079,39.436-3.9851,39.477-0.0415" stroke-dashoffset="0" stroke="#0F0" stroke-linecap="butt" stroke-miterlimit="10" stroke-dasharray="1.66045, 0.830225" stroke-width="0.4151125" fill="none"/>
<text y="22.788889" x="209.75322" font-size="9.96269989px">
<tspan style="writing-mode:lr-tb;" font-weight="normal" fill-rule="nonzero" font-size="9.1324749px" font-variant="normal" y="22.788889" x="209.75322" font-family="Helvetica" fill="#000000">Bayes</tspan>
</text>
<path stroke-linejoin="miter" d="m240.61,19.746,24.533,0m-24.533-1.2868,0,2.5737m24.533-2.5737,0,2.5737m-206.1,77.086,0-4.8983m-2.5737,4.8983,5.1474,0m-5.1474-4.8983,5.1474,0m17.186-4.6908,0-5.0644m-2.5737,5.0644,5.1474,0m-5.1474-5.0644,5.1474,0m36.862-23.08,0-4.6493m-2.5737,4.6493,5.1474,0m-5.1474-4.6493,5.1474,0m76.381-4.5662,0-4.5662m-2.5737,4.5662,5.1474,0m-5.1474-4.5662,5.1474,0m36.862-0.16605,0-2.8228m-2.5737,2.8228,5.1474,0m-5.1474-2.8228,5.1474,0m36.904,2.2001,0-1.6189m-2.5737,1.6189,5.1474,0m-5.1474-1.6189,5.1474,0" stroke-dashoffset="0" stroke="#0F0" stroke-linecap="butt" stroke-miterlimit="10" stroke-dasharray="1.66045, 0.830225" stroke-width="0.4151125" fill="none"/>
<path stroke-linejoin="miter" d="m56.426,93.138,5.2304,5.2305" stroke="#0F0" stroke-linecap="butt" stroke-miterlimit="10" stroke-dasharray="none" stroke-width="0.4151125" fill="none"/>
<path stroke-linejoin="miter" d="m56.426,98.368,5.2304-5.2305" stroke="#0F0" stroke-linecap="butt" stroke-miterlimit="10" stroke-dasharray="none" stroke-width="0.4151125" fill="none"/>
<path stroke-linejoin="miter" d="m76.185,83.3,5.2304,5.2304" stroke="#0F0" stroke-linecap="butt" stroke-miterlimit="10" stroke-dasharray="none" stroke-width="0.4151125" fill="none"/>
<path stroke-linejoin="miter" d="m76.185,88.53,5.2304-5.2304" stroke="#0F0" stroke-linecap="butt" stroke-miterlimit="10" stroke-dasharray="none" stroke-width="0.4151125" fill="none"/>
<path stroke-linejoin="miter" d="m115.62,55.446,5.2304,5.2304" stroke="#0F0" stroke-linecap="butt" stroke-miterlimit="10" stroke-dasharray="none" stroke-width="0.4151125" fill="none"/>
<path stroke-linejoin="miter" d="m115.62,60.676,5.2304-5.2304" stroke="#0F0" stroke-linecap="butt" stroke-miterlimit="10" stroke-dasharray="none" stroke-width="0.4151125" fill="none"/>
<path stroke-linejoin="miter" d="m194.58,46.438,5.2304,5.2304" stroke="#0F0" stroke-linecap="butt" stroke-miterlimit="10" stroke-dasharray="none" stroke-width="0.4151125" fill="none"/>
<path stroke-linejoin="miter" d="m194.58,51.668,5.2304-5.2304" stroke="#0F0" stroke-linecap="butt" stroke-miterlimit="10" stroke-dasharray="none" stroke-width="0.4151125" fill="none"/>
<path stroke-linejoin="miter" d="m234.01,42.453,5.2304,5.2304" stroke="#0F0" stroke-linecap="butt" stroke-miterlimit="10" stroke-dasharray="none" stroke-width="0.4151125" fill="none"/>
<path stroke-linejoin="miter" d="m234.01,47.683,5.2304-5.2304" stroke="#0F0" stroke-linecap="butt" stroke-miterlimit="10" stroke-dasharray="none" stroke-width="0.4151125" fill="none"/>
<path stroke-linejoin="miter" d="m273.49,42.411,5.2304,5.2304" stroke="#0F0" stroke-linecap="butt" stroke-miterlimit="10" stroke-dasharray="none" stroke-width="0.4151125" fill="none"/>
<path stroke-linejoin="miter" d="m273.49,47.642,5.2304-5.2304" stroke="#0F0" stroke-linecap="butt" stroke-miterlimit="10" stroke-dasharray="none" stroke-width="0.4151125" fill="none"/>
<path stroke-linejoin="miter" d="m250.24,17.131,5.2304,5.2304" stroke="#0F0" stroke-linecap="butt" stroke-miterlimit="10" stroke-dasharray="none" stroke-width="0.4151125" fill="none"/>
<path stroke-linejoin="miter" d="m250.24,22.361,5.2304-5.2304" stroke="#0F0" stroke-linecap="butt" stroke-miterlimit="10" stroke-dasharray="none" stroke-width="0.4151125" fill="none"/>
</g>
</svg>
