<?xml version="1.0"?>
<svg xmlns="http://www.w3.org/2000/svg" version="1.1" viewBox="0 0 235.06712 165.72573">
<g font-family="Helvetica" font-size="7.3px">
<text x="30.784763" y="143.86806">0</text>
<text x="20.630051" y="128.69154">0.01</text>
<text x="20.630051" y="113.48181">0.02</text>
<text x="20.630051" y="98.305305">0.03</text>
<text x="20.630051" y="83.128929">0.04</text>
<text x="20.630051" y="67.919205">0.05</text>
<text x="20.630051" y="52.742683">0.06</text>
<text x="20.630051" y="37.566170">0.07</text>
<text x="20.630051" y="22.356453">0.08</text>
<text x="20.630051" y="7.1799397">0.09</text>
<text x="38.214748" y="151.17403">0</text>
<text x="57.266354" y="151.17403">200</text>
<text x="80.413223" y="151.17403">400</text>
<text x="103.52669" y="151.17403">600</text>
<text x="126.67336" y="151.17403">800</text>
<text x="147.75575" y="151.17403">1000</text>
<text x="170.90244" y="151.17403">1200</text>
<text x="194.01590" y="151.17403">1400</text>
<text x="217.16257" y="151.17403">1600</text>
<text x="-104.55876" y="7.3260593" transform="rotate(-90)">prob(packet length)</text>
<text x="110.02369" y="162.13303">packet length</text>
<text x="143.99213" y="12.924966">server to client</text>
<text x="143.99185" y="20.231071">client to server</text>
</g>
<g fill="none" stroke="#000" stroke-width="0.166">
<path d="m224.27,143.51,0.00002-2.0781c-62.427-0.002-124.85-0.002-187.28-0.002m164.13,2.0797,0-2.0922m-23.113,2.0922,0-2.0922m-23.147,2.0922,0-2.0922m-23.113,2.0922,0-2.0922m-23.147,2.0922,0-2.0922m-23.113,2.0922,0-2.0922m-23.147,2.0922,0-2.0922m-23.113,2.0922c0.000523-46.256,0.0011-92.512,0.0016-138.77h-2.242m0.000028,15.177,2.0922,0m-2.0922,15.21,2.0922,0m-2.0922,15.177,2.0922,0m-2.0922,15.177,2.0922,0m-2.0922,15.21,2.0922,0m-2.0922,15.177,2.0922,0m-2.0922,15.177,2.0922,0m-2.0922,15.21,2.0922,0"/>
<path d="m187.28,137.78,0-2.9224,0.89664,0,0,2.7896,0.92985,0,0-4.8153,0.92986,0,0,4.4168,0.92985,0,0-2.9224,0.92985,0,0,3.7858,0.92985,0,0-4.4168,0.92985,0,0,2.1254,0.89665,0,0-1.9925,0.92985,0,0,4.1511,0.92985,0,0-4.6493,0.92985,0,0,4.6493,0.92985,0,0-6.9739,0.92986,0,0,5.7784,0.92985,0,0-1.594,0.89664,0,0,2.6235,0.92985,0,0-3.6198,0.92986,0,0,1.3948,0.92985,0,0-1.1291,0.92985,0,0,3.6862,0.92985,0,0-3.4869,0.92985,0,0,3.2545,0.92986,0,0-5.9444,0.89664,0,0,6.2101,0.92985,0,0-4.4168,0.92985,0,0,4.6493,0.92985,0,0-4.4832,0.92986,0,0-41.08,0.92985,0,0,48.585m-74.023-4.5828,0-2.8892,0.92985,0,0,2.9224,0.92985,0,0-2.6567,0.89664,0,0,2.0922,0.92986,0,0-2.0257,0.92985,0,0,2.8892,0.92985,0,0-3.5534,0.92985,0,0,3.5866,0.92985,0,0-3.3541,0.92986,0,0,3.7194,0.89664,0,0-2.9224,0.92985,0,0,1.9593,0.92985,0,0-2.2582,0.92986,0,0,2.9556,0.92985,0,0-3.1216,0.92985,0,0,3.3873,0.92985,0,0-3.1549,0.89664,0,0,2.6235,0.92986,0,0-3.0552,0.92985,0,0,3.7526,0.92985,0,0-3.5866,0.92985,0,0,3.2877,0.92985,0,0-4.1843,0.92986,0,0,3.4205,0.92985,0,0-3.0884,0.89664,0,0,3.6862,0.92985,0,0-2.9224,0.92986,0,0,2.5903,0.92985,0,0-2.225,0.92985,0,0,2.7231,0.92985,0,0-3.3209,0.92985,0,0,3.5202,0.89665,0,0-3.7858,0.92985,0,0,3.5534,0.92985,0,0-3.7194,0.92985,0,0,3.6862,0.92985,0,0-2.1586,0.92986,0,0,2.391,0.92985,0,0-3.9851,0.89664,0,0,3.9519,0.92985,0,0-3.022,0.92986,0,0,2.9888,0.92985,0,0-3.3873,0.92985,0,0,3.4869,0.92985,0,0-3.2545,0.92985,0,0,3.1216,0.89665,0,0-4.7157,0.92985,0,0,5.2138,0.92985,0,0-4.7489,0.92985,0,0,4.6161,0.92985,0,0-3.8522,0.92986,0,0,3.7526,0.92985,0m-96.24-2.7563,0-3.8855,0.92985,0,0,3.8522,0.92985,0,0-4.6161,0.92985,0,0,4.5828,0.92985,0,0-3.2545,0.89665,0,0,3.819,0.92985,0,0-4.9149,0.92985,0,0,4.7821,0.92985,0,0-4.5496,0.92986,0,0,5.081,0.92985,0,0-4.7157,0.92985,0,0,5.2138,0.89664,0,0-5.0146,0.92985,0,0,4.6161,0.92986,0,0-4.7157,0.92985,0,0,4.2175,0.92985,0,0-4.0847,0.92985,0,0,4.7157,0.92985,0,0-4.3172,0.89665,0,0,4.6825,0.92985,0,0-5.4463,0.92985,0,0,5.0146,0.92985,0,0-4.1843,0.92986,0,0,4.1511,0.92985,0,0-4.5496,0.92985,0,0,5.2802,0.92985,0,0-3.4869,0.89664,0,0,3.3873,0.92986,0,0-4.3504,0.92985,0,0,4.3836,0.92985,0,0-4.45,0.92985,0,0,4.284,0.92985,0,0-3.2545,0.92986,0,0,3.2213,0.89664,0,0-3.0884,0.92985,0,0,2.856,0.92985,0,0-2.9888,0.92985,0,0,3.4869,0.92986,0,0-3.4537,0.92985,0,0,3.5202,0.92985,0,0-4.284,0.89664,0,0,4.5164,0.92986,0,0-3.2213,0.92985,0,0,2.391,0.92985,0,0-2.6235,0.92985,0,0,3.2545,0.92985,0,0-3.7858,0.92986,0,0,3.6862,0.89664,0,0-2.6235,0.92985,0,0,2.6899,0.92985,0,0-3.4205,0.92986,0,0,3.4205,0.92985,0m56.721-126.36,19.627,0m-170.9,130.95v-55.823h0.92985v47.954h0.92985v4.3836h0.86343v3.4869h0.46493v-10.129h0.53134v-29.124h0.89664v1.0627h0.92985v-17.865h0.92985v37.526h0.92985v-6.509h0.92985v15.974h0.92985v-20.988h0.92985v10.959h0.89664v9.531h0.92985v2.7896h0.92985v-6.3429h0.92985v-10.859h0.92985v9.531h0.92985v5.3466h0.92985v4.1843h0.89664v-2.4243h0.92985v-4.8485h0.92985v-2.6899h0.92985v6.8743h0.92985v-0.13284h0.92985v3.5866h0.92985v-4.8153h0.92985v3.819h0.89664v-1.0627h0.92985v0.23246h0.92985v-1.3948h0.92985v1.6937h0.92985v-2.225h0.92985v2.8228h0.92985v-0.49814h0.89664v0.79702h0.92985v-3.1881h0.92985v-0.33209h0.92985v1.7269h0.92985v-1.4612h0.92985v1.8929h0.92985v-1.9261h0.89664v1.3948h0.92985v-4.1179h0.92985v5.0478h0.92985v-2.6899h0.92985v2.059h0.92985v-5.5127h0.92985v6.3761h0.89664v-6.1769h0.92985v5.6787h0.92985"/>
<path d="m187.28,141.2,0-0.99627,0.89664,0,0,1.0295,0.92985,0,0-1.2287,0.92986,0,0,1.2287,0.92985,0,0-1.2287,0.92985,0,0,1.2287,0.92985,0,0-1.6604,0.92985,0,0,1.6604,0.89665,0,0-2.8228,0.92985,0,0,2.856,0.92985,0,0-3.4869,0.92985,0,0,3.4869,0.92985,0,0-4.2508,0.92986,0,0,4.2175,0.92985,0,0-3.9851,0.89664,0,0,3.9851,0.92985,0,0-3.5202,0.92986,0,0,3.5534,0.92985,0,0-3.6198,0.92985,0,0,3.6198,0.92985,0,0-3.5202,0.92985,0,0,3.5202,0.92986,0,0-3.653,0.89664,0,0,3.653,0.92985,0,0-3.1549,0.92985,0,0,3.1216,0.92985,0,0-3.0552,0.92986,0,0-24.176,0.92985,0,0,27.431m-74.023-0.49814,0-3.6198,0.92985,0,0,3.6862,0.92985,0,0-7.2396,0.89664,0,0,7.2064,0.92986,0,0-8.8336,0.92985,0,0,8.8336,0.92985,0,0-26.866,0.92985,0,0,26.866,0.92985,0,0-16.937,0.92986,0,0,16.804,0.89664,0,0-26.932,0.92985,0,0,27.065,0.92985,0,0-13.217,0.92986,0,0,13.35,0.92985,0,0-18.663,0.92985,0,0,18.597,0.92985,0,0-11.291,0.89664,0,0,11.291,0.92986,0,0-11.756,0.92985,0,0,11.789,0.92985,0,0-5.9776,0.92985,0,0,6.0772,0.92985,0,0-8.269,0.92986,0,0,8.2358,0.92985,0,0-5.6787,0.89664,0,0,5.7119,0.92985,0,0-5.6123,0.92986,0,0,5.6123,0.92985,0,0-3.1881,0.92985,0,0,3.1549,0.92985,0,0-4.0847,0.92985,0,0,4.1843,0.89665,0,0-2.7563,0.92985,0,0,2.7231,0.92985,0,0-3.1881,0.92985,0,0,3.1549,0.92985,0,0-2.391,0.92986,0,0,2.4243,0.92985,0,0-2.4243,0.89664,0,0,2.4575,0.92985,0,0-1.594,0.92986,0,0,1.5608,0.92985,0,0-2.1918,0.92985,0,0,2.2582,0.92985,0,0-1.2287,0.92985,0,0,1.1955,0.89665,0,0-1.5276,0.92985,0,0,1.5276,0.92985,0,0-1.0295,0.92985,0,0,1.0627,0.92985,0,0-1.2619,0.92986,0,0,1.1955,0.92985,0m-96.24-0.79702,0-50.511,0.92985,0,0,50.146,0.92985,0,0-42.84,0.92985,0,0,43.072,0.92985,0,0-74.587,0.89665,0,0,74.488,0.92985,0,0-77.842,0.92985,0,0,78.141,0.92985,0,0-112.38,0.92986,0,0,112.15,0.92985,0,0-40.781,0.92985,0,0,41.113,0.89664,0,0-37.991,0.92985,0,0,38.058,0.92986,0,0-35.534,0.92985,0,0,35.5,0.92985,0,0-24.741,0.92985,0,0,24.674,0.92985,0,0-17.966,0.89665,0,0,18.132,0.92985,0,0-18.464,0.92985,0,0,18.531,0.92985,0,0-16.903,0.92986,0,0,17.069,0.92985,0,0-10.66,0.92985,0,0,10.627,0.92985,0,0-8.7672,0.89664,0,0,8.7672,0.92986,0,0-6.0108,0.92985,0,0,6.0108,0.92985,0,0-6.3761,0.92985,0,0,6.4758,0.92985,0,0-6.9407,0.92986,0,0,7.0071,0.89664,0,0-3.9851,0.92985,0,0,3.9851,0.92985,0,0-3.9187,0.92985,0,0,3.9187,0.92986,0,0-3.5534,0.92985,0,0,3.5202,0.92985,0,0-2.7231,0.89664,0,0,2.6567,0.92986,0,0-3.1216,0.92985,0,0,3.1549,0.92985,0,0-2.9556,0.92985,0,0,2.9888,0.92985,0,0-2.6567,0.92986,0,0,2.5903,0.89664,0,0-3.3541,0.92985,0,0,3.3209,0.92985,0,0-2.1918,0.92986,0,0,2.1918,0.92985,0m56.721-123.14,19.627,0m-170.9,123.64v-134.46h0.92985v131.87h0.92985v2.4575h0.92985v-2.5239h0.92985v-72.137h0.79702v74.787h0.46493v-1.9593h0.56455v-36.928h0.92985v36.862h0.92985v-66.878h0.92985v67.049h0.92985v0.66418h0.92985v-0.66418h0.89664v-134.83h0.92985v135.03h0.92985v1.3284h0.92985v-0.96306h0.92985v-13.084h0.92985v12.52h0.92985v1.2619h0.89664v-0.7306h0.92985v-7.7045h0.92985v7.7045h0.92985v1.1955h0.92985v-0.83022h0.92985v0.0332h0.92985v-0.0332h0.92985v0.86343h0.89664v-1.0959h0.92985v-0.66418h0.92985v0.86343h0.92985v-1.3616h0.92985v1.594h0.92985v0.13284h0.92985v-0.0996h0.89664v0.66418h0.92985v-1.3284h0.92985v1.1955h0.92985v-1.0627h0.92985v1.1291h0.92985v-1.3284h0.92985v1.3284h0.89664v-1.0295h0.92985v1.0959h0.92985v-1.2619h0.92985v1.1623h0.92985v-0.86343h0.92985v0.89664h0.92985v-1.2287h0.89664v-55.003h0.92985v55.326h0.92985" stroke-dasharray="0.33209, 0.498135"/>
</g>
</svg>
 