<?xml version="1.0" encoding="UTF-8" standalone="no"?>
<?xml-stylesheet type="text/css" href="r/fonts.css"?>
<svg xmlns="http://www.w3.org/2000/svg" version="1.1" viewBox="0 0 221 159">
<text style="font:5px Cabin;text-anchor:end;text-align:end" y="142.39301" x="24.462097">0</text>
<text style="font:5px Cabin;text-anchor:end;text-align:end" y="127.212" x="24.462097">0.01</text>
<text style="font:5px Cabin;text-anchor:end;text-align:end" y="112.002" x="24.462097">0.02</text>
<text style="font:5px Cabin;text-anchor:end;text-align:end" y="96.625" x="24.462097">0.03</text>
<text style="font:5px Cabin;text-anchor:end;text-align:end" y="81.348999" x="24.462097">0.04</text>
<text style="font:5px Cabin;text-anchor:end;text-align:end" y="66.439003" x="24.462097">0.05</text>
<text style="font:5px Cabin;text-anchor:end;text-align:end" y="51.163002" x="24.462097">0.06</text>
<text style="font:5px Cabin;text-anchor:end;text-align:end" y="35.986" x="24.462097">0.07</text>
<text style="font:5px Cabin;text-anchor:end;text-align:end" y="20.775999" x="24.462097">0.08</text>
<text style="font:5px Cabin;text-anchor:end;text-align:end" y="5.5700002" x="24.462097">0.09</text>
<text style="font:5px Cabin;text-anchor:middle;text-align:center" y="148.09399" x="28.335419">0</text>
<text style="font:5px Cabin;text-anchor:middle;text-align:center" y="148.09399" x="51.547501">200</text>
<text style="font:5px Cabin;text-anchor:middle;text-align:center" y="148.09399" x="74.617172">400</text>
<text style="font:5px Cabin;text-anchor:middle;text-align:center" y="148.09399" x="97.686844">600</text>
<text style="font:5px Cabin;text-anchor:middle;text-align:center" y="148.09399" x="120.89892">800</text>
<text style="font:5px Cabin;text-anchor:middle;text-align:center" y="148.09399" x="143.9686">1000</text>
<text style="font:5px Cabin;text-anchor:middle;text-align:center" y="148.09399" x="167.03825">1200</text>
<text style="font:5px Cabin;text-anchor:middle;text-align:center" y="148.09399" x="190.25032">1400</text>
<text style="font:5px Cabin;text-anchor:middle;text-align:center" y="148.09399" x="213.4624">1600</text>
<text style="font:6px Cabin;text-anchor:middle;text-align:center" transform="rotate(-90)" font-size="6px" y="6.5" x="-73.399643">prob(packet length)</text>
<text style="font:6px Cabin;text-anchor:middle;text-align:center" y="155.35303" x="119.79017">packet length</text>
<text style="font:6px Cabin;text-anchor:end;text-align:end" line-height="125%" y="12.440001" x="182.15718">server to client</text>
<text style="font:6px Cabin;text-anchor:end;text-align:end" line-height="125%" y="19.939999" x="182.15691">client to server</text>
<path d="m213.44,142.73,0.00002-2.0781c-62.427-0.002-124.85-0.002-187.28-0.002m164.13,2.0797,0-2.0922m-23.113,2.0922,0-2.0922m-23.147,2.0922,0-2.0922m-23.113,2.0922,0-2.0922m-23.147,2.0922,0-2.0922m-23.113,2.0922,0-2.0922m-23.147,2.0922,0-2.0922m-23.113,2.0922c0.00053-46.256,0.001-92.512,0.002-138.77h-2.242m0.00003,15.177,2.0922,0m-2.0922,15.21,2.0922,0m-2.0922,15.177,2.0922,0m-2.0922,15.177,2.0922,0m-2.0922,15.21,2.0922,0m-2.0922,15.177,2.0922,0m-2.0922,15.177,2.0922,0m-2.0922,15.21,2.0922,0" stroke="#000" stroke-width="0.16599999" fill="none"/>
<path fill="#000" d="m33.782,140.66,0-55.823,0.92985,0,0,47.954,0.92985,0,0,4.3836,0.86343,0,0,3.4869,0.46493,0,0-10.129,0.53134,0,0-29.124,0.89664,0,0,1.0627,0.92985,0,0-17.865,0.92985,0,0,37.526,0.92985,0,0-6.509,0.92985,0,0,15.974,0.92985,0,0-20.988,0.92985,0,0,10.959,0.89664,0,0,9.531,0.92985,0,0,2.7896,0.92985,0,0-6.3429,0.92985,0,0-10.859,0.92985,0,0,9.531,0.92985,0,0,5.3466,0.92985,0,0,4.1843,0.89664,0,0-2.4243,0.92985,0,0-4.8485,0.92985,0,0-2.6899,0.92985,0,0,6.8743,0.92985,0,0-0.13284,0.92985,0,0,3.5866,0.92985,0,0-4.8153,0.92985,0,0,3.819,0.89664,0,0-1.0627,0.92985,0,0,0.23246,0.92985,0,0-1.3948,0.92985,0,0,1.6937,0.92985,0,0-2.225,0.92985,0,0,2.8228,0.92985,0,0-0.49814,0.89664,0,0,0.79702,0.92985,0,0-3.1881,0.92985,0,0-0.33209,0.92985,0,0,1.7269,0.92985,0,0-1.4612,0.92985,0,0,1.8929,0.92985,0,0-1.9261,0.89664,0,0,1.3948,0.92985,0,0-4.1179,0.92985,0,0,5.0478,0.92985,0,0-2.6899,0.92985,0,0,2.059,0.92985,0,0-5.5127,0.92985,0,0,6.3761,0.89664,0,0-6.1769,0.92985,0,0,5.6791,1.102,0,0-3.8968,0.92985,0,0,3.8522,0.92985,0,0-4.6161,0.92985,0,0,4.5828,0.92985,0,0-3.2545,0.89665,0,0,3.819,0.92985,0,0-4.9149,0.92985,0,0,4.7821,0.92985,0,0-4.5496,0.92986,0,0,5.081,0.92985,0,0-4.7157,0.92985,0,0,5.2138,0.89664,0,0-5.0146,0.92985,0,0,4.6161,0.92986,0,0-4.7157,0.92985,0,0,4.2175,0.92985,0,0-4.0847,0.92985,0,0,4.7157,0.92985,0,0-4.3172,0.89665,0,0,4.6825,0.92985,0,0-5.4463,0.92985,0,0,5.0146,0.92985,0,0-4.1843,0.92986,0,0,4.1511,0.92985,0,0-4.5496,0.92985,0,0,5.2802,0.92985,0,0-3.4869,0.89664,0,0,3.3873,0.92986,0,0-4.3504,0.92985,0,0,4.3836,0.92985,0,0-4.45,0.92985,0,0,4.284,0.92985,0,0-3.2545,0.92986,0,0,3.2213,0.89664,0,0-3.0884,0.92985,0,0,2.856,0.92985,0,0-2.9888,0.92985,0,0,3.4869,0.92986,0,0-3.4537,0.92985,0,0,3.5202,0.92985,0,0-4.284,0.89664,0,0,4.5164,0.92986,0,0-3.2213,0.92985,0,0,2.391,0.92985,0,0-2.6235,0.92985,0,0,3.2545,0.92985,0,0-3.7858,0.92986,0,0,3.6862,0.89664,0,0-2.6235,0.92985,0,0,2.6899,0.92985,0,0-3.4205,0.92986,0,0,3.4205,0.93001,0,0.00016-2.8892,0.92985,0,0,2.9224,0.92985,0,0-2.6567,0.89664,0,0,2.0922,0.92986,0,0-2.0257,0.92985,0,0,2.8892,0.92985,0,0-3.5534,0.92985,0,0,3.5866,0.92985,0,0-3.3541,0.92986,0,0,3.7194,0.89664,0,0-2.9224,0.92985,0,0,1.9593,0.92985,0,0-2.2582,0.92986,0,0,2.9556,0.92985,0,0-3.1216,0.92985,0,0,3.3873,0.92985,0,0-3.1549,0.89664,0,0,2.6235,0.92986,0,0-3.0552,0.92985,0,0,3.7526,0.92985,0,0-3.5866,0.92985,0,0,3.2877,0.92985,0,0-4.1843,0.92986,0,0,3.4205,0.92985,0,0-3.0884,0.89664,0,0,3.6862,0.92985,0,0-2.9224,0.92986,0,0,2.5903,0.92985,0,0-2.225,0.92985,0,0,2.7231,0.92985,0,0-3.3209,0.92985,0,0,3.5202,0.89665,0,0-3.7858,0.92985,0,0,3.5534,0.92985,0,0-3.7194,0.92985,0,0,3.6862,0.92985,0,0-2.1586,0.92986,0,0,2.391,0.92985,0,0-3.9851,0.89664,0,0,3.9519,0.92985,0,0-3.022,0.92986,0,0,2.9888,0.92985,0,0-3.3873,0.92985,0,0,3.4869,0.92985,0,0-3.2545,0.92985,0,0,3.1216,0.89665,0,0-4.7157,0.92985,0,0,5.2138,0.92985,0,0-4.7489,0.92985,0,0,4.6161,0.92985,0,0-3.8522,0.92986,0,0,3.7526,0.92992-0.00005,0.00007-2.9224,0.89664,0,0,2.7896,0.92985,0,0-4.8153,0.92986,0,0,4.4168,0.92985,0,0-2.9224,0.92985,0,0,3.7858,0.92985,0,0-4.4168,0.92985,0,0,2.1254,0.89665,0,0-1.9925,0.92985,0,0,4.1511,0.92985,0,0-4.6493,0.92985,0,0,4.6493,0.92985,0,0-6.9739,0.92986,0,0,5.7784,0.92985,0,0-1.594,0.89664,0,0,2.6235,0.92985,0,0-3.6198,0.92986,0,0,1.3948,0.92985,0,0-1.1291,0.92985,0,0,3.6862,0.92985,0,0-3.4869,0.92985,0,0,3.2545,0.92986,0,0-5.9444,0.89664,0,0,6.2101,0.92985,0,0-4.4168,0.92985,0,0,4.6493,0.92985,0,0-4.4832,0.92986,0,0-41.08,0.92985,0,0,48.507"/>
<path d="m33.782,140.57,0-134.37,0.92985,0,0,131.87,0.92985,0,0,2.4575,0.92985,0,0-2.5239,0.92985,0,0-72.137,0.79702,0,0,74.787,0.46493,0,0-1.9593,0.56455,0,0-36.928,0.92985,0,0,36.862,0.92985,0,0-66.878,0.92985,0,0,67.049,0.92985,0,0,0.66418,0.92985,0,0-0.66418,0.89664,0,0-134.83,0.92985,0,0,135.03,0.92985,0,0,1.3284,0.92985,0,0-0.96306,0.92985,0,0-13.084,0.92985,0,0,12.52,0.92985,0,0,1.2619,0.89664,0,0-0.7306,0.92985,0,0-7.7045,0.92985,0,0,7.7045,0.92985,0,0,1.1955,0.92985,0,0-0.83022,0.92985,0,0,0.0332,0.92985,0,0-0.0332,0.92985,0,0,0.86343,0.89664,0,0-1.0959,0.92985,0,0-0.66418,0.92985,0,0,0.86343,0.92985,0,0-1.3616,0.92985,0,0,1.594,0.92985,0,0,0.13284,0.92985,0,0-0.0996,0.89664,0,0,0.66418,0.92985,0,0-1.3284,0.92985,0,0,1.1955,0.92985,0,0-1.0627,0.92985,0,0,1.1291,0.92985,0,0-1.3284,0.92985,0,0,1.3284,0.89664,0,0-1.0295,0.92985,0,0,1.0959,0.92985,0,0-1.2619,0.92985,0,0,1.1623,0.92985,0,0-0.86343,0.92985,0,0,0.89664,0.92985,0,0-1.2287,0.89664,0,0-55.003,0.92985,0,0,55.326,1.102,0.004,0-50.511,0.92985,0,0,50.146,0.92985,0,0-42.84,0.92985,0,0,43.072,0.92985,0,0-74.587,0.89665,0,0,74.488,0.92985,0,0-77.842,0.92985,0,0,78.141,0.92985,0,0-112.38,0.92986,0,0,112.15,0.92985,0,0-40.781,0.92985,0,0,41.113,0.89664,0,0-37.991,0.92985,0,0,38.058,0.92986,0,0-35.534,0.92985,0,0,35.5,0.92985,0,0-24.741,0.92985,0,0,24.674,0.92985,0,0-17.966,0.89665,0,0,18.132,0.92985,0,0-18.464,0.92985,0,0,18.531,0.92985,0,0-16.903,0.92986,0,0,17.069,0.92985,0,0-10.66,0.92985,0,0,10.627,0.92985,0,0-8.7672,0.89664,0,0,8.7672,0.92986,0,0-6.0108,0.92985,0,0,6.0108,0.92985,0,0-6.3761,0.92985,0,0,6.4758,0.92985,0,0-6.9407,0.92986,0,0,7.0071,0.89664,0,0-3.9851,0.92985,0,0,3.9851,0.92985,0,0-3.9187,0.92985,0,0,3.9187,0.92986,0,0-3.5534,0.92985,0,0,3.5202,0.92985,0,0-2.7231,0.89664,0,0,2.6567,0.92986,0,0-3.1216,0.92985,0,0,3.1549,0.92985,0,0-2.9556,0.92985,0,0,2.9888,0.92985,0,0-2.6567,0.92986,0,0,2.5903,0.89664,0,0-3.3541,0.92985,0,0,3.3209,0.92985,0,0-2.1918,0.92986,0,0,2.1918,0.93001-0.002,0.00016-3.6216,0.92985,0,0,3.6862,0.92985,0,0-7.2396,0.89664,0,0,7.2064,0.92986,0,0-8.8336,0.92985,0,0,8.8336,0.92985,0,0-26.866,0.92985,0,0,26.866,0.92985,0,0-16.937,0.92986,0,0,16.804,0.89664,0,0-26.932,0.92985,0,0,27.065,0.92985,0,0-13.217,0.92986,0,0,13.35,0.92985,0,0-18.663,0.92985,0,0,18.597,0.92985,0,0-11.291,0.89664,0,0,11.291,0.92986,0,0-11.756,0.92985,0,0,11.789,0.92985,0,0-5.9776,0.92985,0,0,6.0772,0.92985,0,0-8.269,0.92986,0,0,8.2358,0.92985,0,0-5.6787,0.89664,0,0,5.7119,0.92985,0,0-5.6123,0.92986,0,0,5.6123,0.92985,0,0-3.1881,0.92985,0,0,3.1549,0.92985,0,0-4.0847,0.92985,0,0,4.1843,0.89665,0,0-2.7563,0.92985,0,0,2.7231,0.92985,0,0-3.1881,0.92985,0,0,3.1549,0.92985,0,0-2.391,0.92986,0,0,2.4243,0.92985,0,0-2.4243,0.89664,0,0,2.4575,0.92985,0,0-1.594,0.92986,0,0,1.5608,0.92985,0,0-2.1918,0.92985,0,0,2.2582,0.92985,0,0-1.2287,0.92985,0,0,1.1955,0.89665,0,0-1.5276,0.92985,0,0,1.5276,0.92985,0,0-1.0295,0.92985,0,0,1.0627,0.92985,0,0-1.2619,0.92986,0,0,1.1955,0.92992-0.00028,0.00007-0.99654,0.89664,0,0,1.0295,0.92985,0,0-1.2287,0.92986,0,0,1.2287,0.92985,0,0-1.2287,0.92985,0,0,1.2287,0.92985,0,0-1.6604,0.92985,0,0,1.6604,0.89665,0,0-2.8228,0.92985,0,0,2.856,0.92985,0,0-3.4869,0.92985,0,0,3.4869,0.92985,0,0-4.2508,0.92986,0,0,4.2175,0.92985,0,0-3.9851,0.89664,0,0,3.9851,0.92985,0,0-3.5202,0.92986,0,0,3.5534,0.92985,0,0-3.6198,0.92985,0,0,3.6198,0.92985,0,0-3.5202,0.92985,0,0,3.5202,0.92986,0,0-3.653,0.89664,0,0,3.653,0.92985,0,0-3.1549,0.92985,0,0,3.1216,0.92985,0,0-3.0552,0.92986,0,0-24.176,0.92985,0,0,27.341" fill-opacity="0.82969432" fill="#d40000"/>
<rect fill-opacity="0.82969" height="2.5" width="17" y="16.47" x="185.92" fill="#d40000"/>
<rect height="2.5" width="17" y="8.97" x="185.92" fill="#000"/>
</svg>
