<?xml version="1.0"?>
<svg xmlns="http://www.w3.org/2000/svg" version="1.1" viewBox="0 0 235 166">
<g transform="translate(2,2)">
<g font-family="Helvetica" font-size="7.3px">
  <text x="24.401176" y="141.86803">0</text>
  <text x="18.308321" y="122.34115">0.1</text>
  <text x="18.308321" y="102.81426">0.2</text>
  <text x="18.308321" y="83.287498">0.3</text>
  <text x="18.308321" y="63.760593">0.4</text>
  <text x="18.308321" y="44.233707">0.5</text>
  <text x="18.308321" y="24.706821">0.6</text>
  <text x="18.308321" y="5.1799397">0.7</text>
  <text x="31.831158" y="149.17401">0</text>
  <text x="51.447315" y="149.17401">200</text>
  <text x="75.125526" y="149.17401">400</text>
  <text x="98.803551" y="149.17401">600</text>
  <text x="122.48155" y="149.17401">800</text>
  <text x="144.12852" y="149.17401">1000</text>
  <text x="167.80653" y="149.17401">1200</text>
  <text x="191.48454" y="149.17401">1400</text>
  <text x="215.16257" y="149.17401">1600</text>
  <text x="141.99213" y="10.924966">server to client</text>
  <text x="141.99185" y="18.231071">client to server</text>
  <text x="105.8319"  y="160.13301">packet length</text>
  <text x="-102.55875" y="5.3260593" transform="rotate(-90)">prob(packet length)</text>
</g>
<g fill="none" stroke="#000" stroke-width="0.166">
  <path d="m32.846,2.7457v136.69h189.42"/>
  <path d="m222.27,141.43,0-2.0922m-23.678,2.0922,0-2.0922m-23.678,2.0922,0-2.0922m-23.678,2.0922,0-2.0922m-23.678,2.0922,0-2.0922m-23.678,2.0922,0-2.0922m-23.678,2.0922,0-2.0922m-23.678,2.0922,0-2.0922m-23.678,2.0922,0-2.0922"/>
  <path d="m30.846,2.7457,2.0922,0m-2.0922,19.527,2.0922,0m-2.0922,19.527,2.0922,0m-2.0922,19.527,2.0922,0m-2.0922,19.527,2.0922,0m-2.0922,19.527,2.0922,0m-2.0922,19.527,2.0922,0m-2.0922,19.527,2.0922,0"/>
  <path d="m193.88,8.4909,19.627,0m-174.98,130.94v-17.069h0.96306v16.837h0.92985v0.16605h0.89664v0.0664h0.46493v-0.43172h0.53134v-7.7709h0.96306v-11.357h0.92985v9.1989h0.96306v5.6787h0.92985v3.2545h0.96306v1.1623h0.92985v-4.4832h0.96306v3.6862h0.92985v0.76381h0.96306v0.13283h0.92985v-0.99627h0.96306v-0.69739h0.92985v1.1291h0.96306v0.39851h0.92985v0.19925h0.96306v-0.0332h0.96306v-0.39851h0.92985v-0.16604h0.96306v0.43172h0.92985v0.0664h0.96306v0.13283h0.92985v-0.16604h0.96306v0.13283h0.92985v-0.0332h0.96306v-0.0332h1.8929v0.0332h0.92985v-0.0332h0.96306v0.0332h0.92985v0.0332h0.96306v-0.0332h0.92985v-0.0332h0.96306v-0.13283h0.92985v0.16604h0.96306v-0.0996h0.92985v0.0996h0.96306v-0.26567h0.92985v0.26567h0.96306v-0.29888h0.92985v0.33209h0.96306v-0.19925h0.96306v0.16604h0.92985v-0.26567h0.96306v0.29888h0.92985v-0.3653h0.96306v0.33209h0.92985v-0.16604"/>
  <path d="m85.881,139.1,0.96306,0,0,0.16604,0.92985,0,0-0.16604,0.96306,0,0,0.16604,0.92985,0,0-0.16604,0.96306,0,0,0.19925,0.92985,0,0-0.23246,0.96306,0,0,0.23246,0.92985,0,0-0.16605,0.96306,0,0,0.16605,0.92986,0,0-0.16605,0.96306,0,0,0.16605,0.92985,0,0-0.13284,0.96306,0,0,0.13284,0.92985,0,0-0.13284,0.96306,0,0,0.13284,0.92986,0,0-0.13284,0.96306,0,0,0.13284,0.92985,0,0-0.13284,0.96306,0,0,0.16605,0.96306,0,0-0.26567,0.92985,0,0,0.23246,0.96306,0,0-0.13284,0.92986,0,0,0.13284,0.96306,0,0-0.26567,0.92985,0,0,0.29888,0.96306,0,0-0.0996,0.92985,0,0,0.0996,0.96306,0,0-0.13284,0.92985,0,0,0.13284,0.96307,0,0-0.16605,0.92985,0,0,0.13284,0.96306,0,0-0.0664,0.92985,0,0,0.0996,0.96306,0,0-0.13284,0.92985,0,0,0.0996,0.96306,0,0-0.0996,0.92986,0,0,0.13284,0.96306,0,0-0.13284,0.92985,0,0,0.13284,0.96306,0,0-0.13284,0.92985,0,0,0.13284,0.96306,0,0-0.0996,0.92986,0,0,0.0664,0.96306,0,0-0.0664,0.96306,0,0,0.0996,0.92985,0,0-0.13284,0.96306,0,0,0.13284,0.92985,0,0-0.0996,0.96306,0,0,0.0996,0.92986,0,0-0.13284,0.96306,0,0,0.13284,0.92985,0,0-0.0996"/>
  <path d="m135.13,139.23,0.96306,0,0,0.0996,0.92985,0,0-0.0996,0.96306,0,0,0.0996,0.92985,0,0-0.0996,0.96306,0,0,0.0996,0.92986,0,0-0.0996,0.96306,0,0,0.0996,0.92985,0,0-0.0996,0.96306,0,0,0.0996,0.92985,0,0-0.0664,0.96306,0,0,0.0664,0.92986,0,0-0.0664,0.96306,0,0,0.0664,0.92985,0,0-0.0996,0.96306,0,0,0.0996,0.92985,0,0-0.0996,0.96306,0,0,0.0996,0.96306,0,0-0.0996,0.92986,0,0,0.13284,0.96306,0,0-0.0996,0.92985,0,0,0.0664,0.96306,0,0-0.13284,0.92985,0,0,0.0996,0.96306,0,0-0.0332,0.92986,0,0,0.0664,0.96306,0,0-0.0664,0.92985,0,0,0.0664,0.96306,0,0-0.0664,0.92985,0,0,0.0664,0.96306,0,0-0.0664,0.92985,0,0,0.0664,0.96307,0,0-0.0996,0.92985,0,0,0.0996,0.96306,0,0-0.13283,0.92985,0,0,0.13283,0.96306,0,0-0.0664,0.92985,0,0,0.0664,0.96306,0,0-0.0996,0.92986,0,0,0.0996,0.96306,0,0-0.0664,0.92985,0,0,0.0664,0.96306,0,0-0.0664,0.96306,0,0,0.0664,0.92985,0,0-0.0664,0.96306,0,0,0.0664,0.92986,0,0-0.0996,0.96306,0,0,0.13284,0.92985,0,0-0.13284,0.96306,0,0,0.13284,0.92985,0,0-0.13284,0.96306,0,0,0.0996,0.92986,0,0-0.0664" stroke="#000"/>
  <path d="m184.38,139.27,0.96306,0,0,0.0664,0.92985,0,0-0.19925,0.96306,0,0,0.16604,0.92985,0,0-0.0332,0.96306,0,0,0.0664,0.92985,0,0-0.0996,1.8929,0,0-0.0332,0.96306,0,0,0.13284,0.92985,0,0-0.0996,0.96306,0,0,0.13283,0.92985,0,0-0.3653,0.96306,0,0,0.23247,0.92986,0,0,0.0664,0.96306,0,0,0.0332,0.96306,0,0-0.0664,0.92985,0,0-0.26567,0.96306,0,0,0.19925,0.92985,0,0,0.16604,0.96306,0,0-0.0996,1.8929,0,0-0.83022,0.92985,0,0,0.92985,0.96306,0,0-0.26567,0.92985,0,0,0.26567,0.96306,0,0-0.13283,0.92986,0,0-91.092,0.96306,0,0,91.292"/>
  <path d="m193.88,15.797,19.627,0m-174.98,123.63v-126.06h0.96306v126.03h0.92985v0.0332h0.96306v-0.0332h0.92985v-4.7489h0.83022v4.7821h0.46493v-0.0332h0.59776v-1.8265h0.96306v1.8265h0.92985v-4.45h0.96306v4.45h2.8228v-17.435h0.96306v17.435h0.92985v0.0332h0.96306v-0.0332h0.92985v-0.29889h0.96306v0.29889h0.92985v0.0332h0.96306v-0.0332h0.96306v-0.16605h0.92985v0.16605h0.96306v0.0332h4.7157v-0.0332h1.8929v0.0332h0.96306v-0.0332h0.92985v0.0332h3.7858v-0.0332h0.96306v0.0332h0.92985v-0.0332h0.96306v0.0332h0.92985v-0.0332h0.96306v0.0332h0.92985v-0.0332h0.96306v0.0332h0.92985v-0.0332h0.96306v0.0332h2.856v-0.0332h0.92985v-0.83023h0.96306v0.86343h0.92985v-0.92985h0.96306v0.89665h0.92985v-1.9593h0.96306v1.9593h0.92985v-6.8743h0.96306v6.8743h0.92985" stroke-dasharray="0.33209, 0.498135"/>
  <path d="m91.56,139.4,0-7.3724,0.96306,0,0,7.4056,0.92985,0,0-5.081,0.96306,0,0,5.0478,0.92986,0,0-2.0922,0.96306,0,0,2.1254,0.92985,0,0-1.7269,0.96306,0,0,1.7269,0.92985,0,0-1.6937,0.96306,0,0,1.6937,0.92986,0,0-0.89665,0.96306,0,0,0.89665,0.92985,0,0-0.59777,0.96306,0,0,0.59777,0.96306,0,0-0.46493,0.92985,0,0,0.46493,0.96306,0,0-0.53135,0.92986,0,0,0.53135,0.96306,0,0-0.23247,0.92985,0,0,0.23247,0.96306,0,0-0.16605,0.92985,0,0,0.16605,0.96306,0,0-0.16605,0.92985,0,0,0.16605,0.96307,0,0-0.13284,0.92985,0,0,0.13284,0.96306,0,0-0.13284,0.92985,0,0,0.13284,0.96306,0,0-0.0664,0.92985,0,0,0.0664,0.96306,0,0-0.0664,0.92986,0,0,0.0664,0.96306,0,0-0.0664,0.92985,0,0,0.0664,0.96306,0,0-0.0664,0.92985,0,0,0.0664,0.96306,0,0-0.0664,0.92986,0,0,0.0664,0.96306,0,0-0.0664,0.96306,0,0,0.0664,0.92985,0,0-0.0664,0.96306,0,0,0.0664,0.92985,0,0-0.0664,0.96306,0,0,0.0664,0.92986,0,0-0.0332,0.96306,0,0,0.0332,0.92985,0,0-0.0664,0.96306,0,0,0.0664,0.92985,0,0-0.19926,0.96306,0,0,0.19926,0.92985,0,0-0.16605,0.96306,0,0,0.16605,0.92986,0" stroke-dasharray="0.33209, 0.498135"/>
  <path d="m140.81,139.43,0-0.7306,0.96306,0,0,0.7306,0.92985,0,0-0.3653,0.96306,0,0,0.3653,0.92985,0,0-0.83023,0.96306,0,0,0.83023,0.92986,0,0-0.29889,0.96306,0,0,0.29889,0.92985,0,0-0.43172,0.96306,0,0,0.43172,0.92985,0,0-0.23247,0.96306,0,0,0.23247,0.96306,0,0-0.29889,0.92986,0,0,0.29889,0.96306,0,0-0.0996,0.92985,0,0,0.0996,0.96306,0,0-0.16605,0.92985,0,0,0.16605,0.96306,0,0-0.13284,0.92986,0,0,0.13284,0.96306,0,0-0.0996,0.92985,0,0,0.0996,0.96306,0,0-0.0664,0.92985,0,0,0.0664,0.96306,0,0-0.0996,0.92985,0,0,0.0996,0.96307,0,0-0.0332,0.92985,0,0,0.0332,0.96306,0,0-0.0664,0.92985,0,0,0.0664,0.96306,0,0-0.0332,0.92985,0,0,0.0332,0.96306,0,0-0.0332,0.92986,0,0,0.0332,0.96306,0,0-0.0332,0.92985,0,0,0.0332,0.96306,0,0-0.0332,0.96306,0,0,0.0332,0.92985,0,0-0.0332,0.96306,0,0,0.0332,0.92986,0,0-0.0332,0.96306,0,0,0.0332,0.92985,0,0-0.0332,0.96306,0,0,0.0332,0.92985,0,0-0.0332,0.96306,0,0,0.0332,0.92986,0,0-0.0332,0.96306,0,0,0.0332,0.92985,0,0-0.0332,0.96306,0,0,0.0332,0.92985,0,0-0.0332,0.96306,0,0,0.0332,0.92985,0" stroke-dasharray="0.33209, 0.498135"/>
  <path d="m190.06,139.43,0-0.0332,0.96307,0,0,0.0332,0.92985,0,0-0.0332,0.96306,0,0,0.0332,0.92985,0,0-0.0664,0.96306,0,0,0.0664,0.92985,0,0-0.0664,0.96306,0,0,0.0664,0.92986,0,0-0.0664,0.96306,0,0,0.0664,0.96306,0,0-0.0664,0.92985,0,0,0.0664,0.96306,0,0-0.0664,0.92985,0,0,0.0664,0.96306,0,0-0.0664,0.92986,0,0,0.0664,0.96306,0,0-0.0664,0.92985,0,0,0.0664,0.96306,0,0-0.0664,0.92985,0,0,0.0664,0.96306,0,0-0.0332,0.92986,0,0-1.1291,0.96306,0,0,1.1623" stroke-dasharray="0.33209, 0.498135"/>
</g>
</g>
</svg>
