<?xml version="1.0" encoding="UTF-8" standalone="no"?>
<?xml-stylesheet type="text/css" href="r/fonts.css"?>
<svg xmlns:rdf="http://www.w3.org/1999/02/22-rdf-syntax-ns#" xmlns="http://www.w3.org/2000/svg" height="100%" width="100%" version="1.1" xmlns:cc="http://creativecommons.org/ns#" xmlns:dc="http://purl.org/dc/elements/1.1/" viewBox="0 0 856.252 110.8308">
<metadata>
<rdf:RDF>
<cc:Work rdf:about="">
<dc:format>image/svg+xml</dc:format>
<dc:type rdf:resource="http://purl.org/dc/dcmitype/StillImage"/>
<dc:title/>
</cc:Work>
</rdf:RDF>
</metadata>
<defs>
<clipPath id="clipPath3881" clipPathUnits="userSpaceOnUse">
<rect height="128" width="907.85" y="-15.558" x="-30.845"/>
</clipPath>
</defs>
<g transform="translate(-1.6000001,-1.611)" clip-path="url(#clipPath3881)">
<path fill="#e3e3e3" d="m34.115,556.31h823.71v-93.863h-823.7zm0-111.66h823.71v-93.863h-823.7zm0-111.66h823.71v-93.863h-823.7zm0-111.66h823.71v-93.863h-823.7zm0-111.66h823.71v-93.863h-823.7z"/>
<path fill="#CCC" d="m34.115,462.45h823.71v-14.199h-823.7zm0-111.66h823.71v-14.199h-823.7zm0-111.66h823.71v-14.199h-823.7zm0-111.66h823.71v-14.199h-823.7zm0-111.66h823.71v-14.199h-823.7z"/>
<path d="M768.65,556.31v-93.863m-162.15,93.863v-93.863m-162.15,93.863v-93.863m-162.15,93.863v-93.863m-162.15,93.863v-93.863m-85.941,14.492h823.71m-823.71,24.352h823.71m-823.71,24.355h823.71m-823.71,24.352h823.71m-89.18-105.35v-93.863m-162.15,93.863v-93.863m-162.15,93.863v-93.863m-162.15,93.863v-93.863m-162.15,93.863v-93.863m-85.941,14.496h823.71m-823.71,24.352h823.71m-823.71,24.352h823.71m-823.71,24.352h823.71m-89.18-105.35v-93.863m-162.15,93.863v-93.863m-162.15,93.863v-93.863m-162.15,93.863v-93.863m-162.15,93.863v-93.856m-85.943,14.496h823.71m-823.71,24.352h823.71m-823.71,24.352h823.71m-823.71,24.352h823.71m-89.18-105.35v-93.863m-162.15,93.863v-93.863m-162.15,93.863v-93.863m-162.15,93.863v-93.863m-162.15,93.863v-93.863m-85.941,14.492h823.71m-823.71,24.36h823.71m-823.71,24.352h823.71m-823.71,24.352h823.71m-89.18-105.35v-93.859m-162.11,93.873v-93.845m-162.15,93.863v-93.865m-162.15,93.863v-93.865m-162.15,93.863v-93.865m-85.945,14.496h823.71m-823.72,24.352h823.71m-823.72,24.352h823.71m-823.7,24.353h823.71" stroke="#f0f0f0" stroke-width="0.53100002" fill="none"/>
<path d="m29.865,91.174h4.25m-4.25-24.352h4.25m-4.25-24.352h4.25m-4.25-24.352h4.25m-4.25,184.72h4.25m-4.25-24.352h4.25m-4.25-24.355h4.25m-4.25-24.352h4.25m-4.25,184.72h4.25m-4.25-24.352h4.25m-4.25-24.352h4.25m-4.25-24.352h4.25m-4.25,184.72h4.25m-4.25-24.352h4.25m-4.25-24.352h4.25m-4.25-24.352h4.25m-4.25,184.72h4.25m-4.25-24.352h4.25m-4.25-24.355h4.25m-4.25-24.352h4.25m4.8672,95.797v-4.25m162.15,4.25v-4.25m162.15,4.25v-4.25m162.15,4.25v-4.25m162.15,4.25v-4.25m162.15,4.25v-4.25" stroke="#7d7d7d" stroke-width="1.05999994" fill="none"/>
<path d="M849.72,556.31v-93.863m-162.15,93.863v-93.863m-162.15,93.863v-93.863m-162.15,93.863v-93.863m-162.15,93.863v-93.863m-162.15,93.863v-93.863m-4.8672,2.3164h823.71m-823.71,24.352h823.71m-823.7,24.36h823.71m-823.71,24.352h823.71m-8.1055-93.176v-93.863m-162.15,93.863v-93.863m-162.15,93.863v-93.863m-162.15,93.863v-93.863m-162.15,93.863v-93.863m-162.15,93.863v-93.863m-4.8672,2.3203h823.71m-823.71,24.352h823.71m-823.71,24.352h823.71m-823.71,24.352h823.71m-8.1055-93.176v-93.863m-162.15,93.863v-93.863m-162.15,93.863v-93.863m-162.15,93.863v-93.863m-162.15,93.863v-93.863m-162.15,93.863v-93.863m-4.8672,2.3203h823.71m-823.71,24.352h823.71m-823.71,24.352h823.71m-823.71,24.352h823.71m-8.1055-93.172v-93.863m-162.15,93.863v-93.863m-162.15,93.863v-93.863m-162.15,93.863v-93.863m-162.15,93.863v-93.863m-162.15,93.863v-93.863m-4.8672,2.3164h823.71m-823.71,24.352h823.71m-823.71,24.355h823.71m-823.71,24.352h823.71m-8.1055-93.176v-93.863m-162.15,93.863v-93.863m-162.15,93.863v-93.863m-162.15,93.863v-93.863m-162.15,93.863v-93.863m-162.07,93.873v-93.863m-4.8672,2.3203h823.71m-823.71,24.352h823.71m-823.71,24.352h823.71m-823.71,24.352h823.71" stroke="#FFF" stroke-width="1.05999994" fill="none"/>
<path d="m849.72,537.83v-71.109m-3.2461,71.109v-14.223m-3.2422,14.223v-28.445m-3.2422,28.445v-14.223m-3.2422,14.223v-28.445m-3.2422,28.445v-14.223m-3.2461,14.223v-14.223m-3.2422,14.223v11.414m-3.2422-11.414v-3.0586m-3.2422,3.0586v-28.445m-3.2422,28.445v-14.223m-3.2461,14.223v-28.445m-3.2422,28.445v-14.223m-3.2422,14.223v-37.191m-3.2422,37.191v-42.668m-3.2422,42.668v-28.445m-3.2461,28.445v-28.445m-3.2422,28.445v-56.887m-3.2422,56.887v-28.445m-3.2422,28.445v-28.445m-3.2422,28.445v-14.223m-3.2461,14.223v5.707m-3.2422-5.707v-14.223m-3.2422,14.223v-42.668m-3.2422,42.668v-42.668m-3.2422,42.668v-14.223m-3.2461,14.223v-14.223m-3.2422,14.223v-27.488m-3.2422,27.488v-28.445m-3.2422,28.445v-14.223m-3.2422,14.223v-14.223m-3.2461,14.223v-14.223m-3.2422,14.223v-42.668m-3.2422,42.668v-14.223m-3.2422,14.223v11.414m-3.2422-11.414v-14.223m-3.2461,14.223v-14.223m-3.2422,14.223v-14.223m-3.2422,14.223v-42.668m-3.2422,42.668v-28.445m-3.2422,28.445v-14.223m-3.2461,14.223v-14.223m-3.2422,14.223v-28.445m-3.2422,28.445v-14.223m-3.2422,14.223v-42.668m-3.2422,42.668v-28.445m-3.2461,28.445v-14.223m-3.2422,14.223v-14.223m-3.2422,14.223v-14.223m-3.2422,14.223v-14.223m-3.2422,14.223v-14.223m-3.2461,14.223v-14.223m-3.2422,14.223v11.414m-3.2422-11.414v-1.2852m-3.2422,1.2852v-14.223m-3.2422,14.223v-14.213m-3.3,14.223v-14.223m-3.2422,14.223v-28.445m-3.2422,28.445v-14.223m-3.2422,14.223v5.707m-3.2422-5.707v-14.223m-3.2461,14.223v-14.223m-3.2422,14.223v-14.223m-3.2422,14.223v-5.7109m-3.2422,5.7109v5.707m-3.2422-5.707v-14.223m-3.2461,14.223v-56.887m-3.2422,56.887v-14.223m-3.2422,14.223v-14.223m-3.2422,14.223v-14.223m-3.2422,14.223v-5.7109m-3.2461,5.7109v11.414m-3.2422-11.414v-11.574m-3.2422,11.574v5.707m-3.2422-5.707v-5.7109m-3.2422,5.7109v-14.223m-3.2461,14.223v-28.445m-3.2422,28.445v-14.223m-3.2422,14.223v-14.223m-3.2422,14.223v-45.355m-3.2422,45.355v-28.445m-3.2461,28.445v-28.445m-3.2422,28.445v-14.223m-3.2422,14.223v-14.223m-3.2422,14.223v-14.223m-3.2422,14.223v-28.445m-3.2461,28.445v-14.223m-3.2422,14.223v-14.223m-3.2422,14.223v5.707m-3.2422-5.707v-14.223m-3.2422,14.223v-28.445m-3.2461,28.445v-14.223m-3.2422,14.223v-14.223m-3.2422,14.223v-42.668m-3.2422,42.668v-28.445m-3.2422,28.445v-14.223m-3.2461,14.223v-28.445m-3.2422,28.445v-42.668m-3.2422,42.668v-28.445m-3.2422,28.445v-28.445m-3.2422,28.445v-14.223m-3.2461,14.223v5.707m-3.2422-5.707v-14.223m-3.2422,14.223v11.414m-3.2422-11.414v-14.223m-3.2422,14.223v-28.988m-3.2461,28.988v-14.223m-3.2422,14.223v-28.445m-3.2422,28.445v-28.445m-3.2422,28.445v-14.223m-3.2422,14.223v-28.445m-3.2461,28.445v-14.223m-3.2422,14.223v-28.445m-3.2422,28.445v5.707m-3.2422-5.707v-14.223m-3.2422,14.223v-14.223m-3.2461,14.223v-14.223m-3.2422,14.223v-16.074m-3.2422,16.074v-28.445m-3.2422,28.445v-14.223m-3.2422,14.223v-28.445m-3.2461,28.445v-14.223m-3.2422,14.223v-28.445m-3.2422,28.445v5.707m-3.2422-5.707v-14.223m-3.2422,14.223v-14.223m-3.2461,14.223v-14.223m-3.2422,14.223v-13.152m-3.2422,13.152v-14.223m-3.2422,14.223v5.707m-3.2422-5.707v-5.7109m-3.2461,5.7109v-14.223m-3.2422,14.223v-71.109m-3.2422,71.109v-14.223m-3.2422,14.223v5.707m-3.2422-5.707v-14.223m-3.2461,14.223v-5.7109m-3.2422,5.7109v0.71875m-3.32-0.71v-2.9531m-3.2422,2.9531v2.8438m-3.2422-2.8438v-0.89844m-3.2461,0.89844v-14.105m-3.2422,14.105v1.293m-3.2422-1.293v-2.4375m-3.2422,2.4375v-10.22m-3.2422,10.23v-14.223m-3.2461,14.223v-28.445m-3.2422,28.445v-14.223m-3.2422,14.223v-14.223m-3.2422,14.223v-14.223m-3.2422,14.223v-14.223m-3.2461,14.223v-22.504m-3.2422,22.504v-14.223m-3.2422,14.223v-28.445m-3.2422,28.445v-14.223m-3.2422,14.223v5.707m-3.2461-5.707v1.9258m-3.2422-1.9258v-14.223m-3.2422,14.223v-14.223m-3.2422,14.223v-9m-3.2422,9v-14.223m-3.2461,14.223v-14.223m-3.2422,14.223v-14.223m-3.2422,14.223v-14.223m-3.2422,14.223v-14.223m-3.2422,14.223v-13.016m-3.2461,13.016v-14.213m-3.27,14.223v-14.223m-3.2422,14.223v-14.223m-3.2422,14.223v-14.223m-3.2422,14.223v-14.223m-3.2461,14.223v-0.85937m-3.2422,0.85937v-14.223m-3.2422,14.223v-14.223m-3.2422,14.223v-14.223m-3.2422,14.223v-14.223m-3.2461,14.223v1.3711m-3.2422-1.3711v-5.7109m-3.2422,5.7109v-5.7109m-3.2422,5.7109v5.707m-3.2422-5.707v-13.715m-3.2461,13.715v-14.223m-3.2422,14.223v-14.223m-3.2422,14.223v-14.223m-3.2422,14.223v-14.223m-3.2422,14.223v-8.1445m-3.2461,8.1445v5.707m-3.2422-5.707v-14.223m-3.2422,14.223v-14.223m-3.2422,14.223v-14.223m-3.2422,14.223v-14.223m-3.2461,14.223v-28.445m-3.2422,28.445v-14.223m-3.2422,14.223v-14.223m-3.2422,14.223v-8.0078m-3.2422,8.0078v-14.223m-3.2461,14.223v-14.223m-3.2422,14.223v5.707m-3.2422-5.707v-14.223m-3.2422,14.223v-14.223m-3.2422,14.223v-5.7109m-3.2461,5.7109v5.707m-3.2422-5.707v12.875m-3.2422-12.875v-8.7109m-3.2422,8.7109v-14.223m-3.2422,14.223v14.219m-3.29-14.23v-14.223m-3.2422,14.223v-14.223m-3.2422,14.223v5.707m-3.2422-5.707v-5.7109m-3.2422,5.7109v5.707m-3.2461-5.707v-5.7109m-3.2422,5.7109v13.598m-3.2422-13.598v14.219m-3.2422-14.219v5.707m-3.2422-5.707v0.0977m-3.2461-0.0977v14.219m-3.25-14.22v14.219m-3.2422-14.219v5.707m-3.2422-5.707v-9.3516m-3.2422,9.3516v-14.223m-3.2461,14.223v-14.223m-3.2422,14.223v-5.7109m-3.2422,5.7109v-5.7109m-3.2422,5.7109v-5.7109m-3.2422,5.7109v5.707m-3.2461-5.707v-5.7109m-3.2422,5.7109v1.4609m-3.25-1.46v14.219m-3.2422-14.219v5.707m-3.2422-5.707v5.707m-3.2461-5.707v-5.7109m-3.2422,5.7109v5.707m-3.2422-5.707v-5.7109m-3.2422,5.7109v-10.695m-3.2422,10.695v-5.7109m-3.2461,5.7109v5.707m-3.2422-5.707v-11.418m-3.2422,11.418v-5.7109m-3.245,5.7v5.707m-3.2422-5.707v-5.7109m-3.2461,5.7109v5.707m-3.2422-5.707v-5.7109m-3.2422,5.7109v-5.7109m-3.2422,5.7109v-11.418m-3.2422,11.418v-5.7109m-3.2461,5.7109v11.414m-3.243-11.41v5.707m-3.2422-5.707v11.414m-3.243-11.41v5.707m807.27-117.37v-14.105m-3.2461,14.105v-13.129m-3.2422,13.129v-14.105m-3.2422,14.105v-14.105m-3.2422,14.105v14.105m-3.2422-14.105v-27.234m-3.2461,27.234v-14.105m-3.2422,14.105v-27.234m-3.2422,27.234v-14.105m-3.2422,14.105v-27.234m-3.2422,27.234v-14.105m-3.2461,14.105v-27.234m-3.2422,27.234v-14.105m-3.2422,14.105v-13.129m-3.2422,13.129v-28.211m-3.2422,28.211v-28.27m-3.2461,28.27v-14.105m-3.2422,14.105v-12.098m-3.2422,12.098v-28.211m-3.2422,28.211v-7.7344m-3.2422,7.7344v-28.211m-3.2461,28.211v-3.7031m-3.2422,3.7031v-28.211m-3.2422,28.211v-14.105m-3.2422,14.105v14.105m-3.2422-14.105v-27.234m-3.2461,27.234v-14.105m-3.2422,14.105v5.707m-3.2422-5.707v-27.234m-3.2422,27.234v-14.105m-3.2422,14.105v-27.234m-3.2461,27.234v-14.105m-3.2422,14.105v-27.234m-3.2422,27.234v-14.105m-3.2422,14.105v-7.4219m-3.2422,7.4219v-28.211m-3.2461,28.211v-5.707m-3.2422,5.707v11.418m-3.2422-11.418v-21.391m-3.2422,21.391v-21.391m-3.2422,21.391v-7.2852m-3.2461,7.2852v-14.105m-3.2422,14.105v-21.391m-3.2422,21.391v-13.129m-3.2422,13.129v-28.211m-3.2422,28.211v-7.2852m-3.2461,7.2852v-14.105m-3.2422,14.105v-7.2852m-3.2422,7.2852v-14.105m-3.2422,14.105v-27.234m-3.2422,27.234v-14.105m-3.2461,14.105v-27.234m-3.2422,27.234v-14.105m-3.2422,14.105v-9.1758m-3.2422,9.1758v-14.105m-3.2422,14.105v-14.105m-3.2461,14.105v-3.7031m-3.2422,3.7031v-28.211m-3.2422,28.211v-14.105m-3.2422,14.105v-27.234m-3.2422,27.234v-14.105m-3.2461,14.105v5.707m-3.2422-5.707v-13.129m-3.2422,13.129v-14.105m-3.2422,14.105v-14.105m-3.2422,14.105v-23.281m-3.2461,23.281v-14.105m-3.2422,14.105v-3.7031m-3.2422,3.7031v-28.211m-3.2422,28.211v-14.105m-3.2422,14.105v-27.234m-3.2461,27.234v-14.105m-3.2422,14.105v-27.234m-3.2422,27.234v-14.105m-3.2422,14.105v-30.645m-3.2422,30.645v-2.2969m-3.2461,2.2969v-14.105m-3.2422,14.105v-5.707m-3.2422,5.707v11.418m-3.2422-11.418v-11.008m-3.2422,11.008v-31.91m-3.2461,31.91v-14.105m-3.2422,14.105v-7.2852m-3.2422,7.2852v-14.105m-3.2422,14.105v-27.234m-3.2422,27.234v-14.105m-3.2461,14.105v-23.281m-3.2422,23.281v-14.105m-3.2422,14.105v-31.91m-3.2422,31.91v-14.105m-3.2422,14.105v-35.945m-3.2461,35.945v-3.7031m-3.2422,3.7031v-28.211m-3.2422,28.211v5.707m-3.2422-5.707v-14.105m-3.2422,14.105v-23.281m-3.2461,23.281v-14.105m-3.2422,14.105v-31.91m-3.2422,31.91v-14.105m-3.2422,14.105v-27.234m-3.2422,27.234v-14.105m-3.2461,14.105v-13.129m-3.2422,13.129v-28.211m-3.2422,28.211v-22.246m-3.2422,22.246v-14.105m-3.2422,14.105v-5.707m-3.2461,5.707v5.707m-3.2422-5.707v8.3398m-3.2422-8.3398v-5.707m-3.2422,5.707v14.105m-3.2422-14.105v-15.996m-3.2461,15.996v-17.805m-3.2422,17.805v-14.105m-3.2422,14.105v-14.105m-3.2422,14.105v14.105m-3.2422-14.105v-27.234m-3.2461,27.234v-14.105m-3.2422,14.105v14.105m-3.2422-14.105v-22.246m-3.2422,22.246v-14.105m-3.2422,14.105v-5.707m-3.2461,5.707v5.707m-3.2422-5.707v12.273m-3.2422-12.273v14.105m-3.2422-14.105v-2.2773m-3.2422,2.2773v5.707m-3.2461-5.707v-22.832m-3.2422,22.832v-14.105m-3.2422,14.105v-14.105m-3.2422,14.105v-14.105m-3.2422,14.105v-14.105m-3.2461,14.105v-17.223m-3.2422,17.223v-28.211m-3.2422,28.211v-16.285m-3.2422,16.285v-28.211m-3.2422,28.211v-25.52m-3.2461,25.52v-14.105m-3.2422,14.105v-8.6094m-3.2422,8.6094v-14.105m-3.2422,14.105v-22.246m-3.2422,22.246v-14.105m-3.2461,14.105v-5.707m-3.2422,5.707v11.555m-3.2422-11.555v14.105m-3.2422-14.105v5.707m-3.2422-5.707v-2.2969m-3.2461,2.2969v-14.105m-3.2422,14.105v-5.707m-3.2422,5.707v8.7266m-3.2422-8.7266v-5.707m-3.2422,5.707v14.105m-3.2461-14.105v-8.0078m-3.2422,8.0078v-14.105m-3.2422,14.105v5.707m-3.2422-5.707v-5.707m-3.2422,5.707v5.707m-3.2461-5.707v-5.707m-3.2422,5.707v5.707m-3.2422-5.707v5.707m-3.2422-5.707v-5.707m-3.2422,5.707v8.7266m-3.2461-8.7266v14.105m-3.2422-14.105v-3.1562m-3.2422,3.1562v-14.105m-3.2422,14.105v-14.105m-3.2422,14.105v5.707m-3.2461-5.707v-2.4336m-3.2422,2.4336v-14.105m-3.2422,14.105v-14.105m-3.2422,14.105v-5.707m-3.2422,5.707v11.418m-3.2461-11.418v-3.0195m-3.2422,3.0195v-14.105m-3.2422,14.105v5.707m-3.2422-5.707v-22.246m-3.2422,22.246v-14.105m-3.2461,14.105v-5.707m-3.2422,5.707v8.8633m-3.2422-8.8633v14.105m-3.2422-14.105v14.105m-3.2422-14.105v-22.246m-3.2461,22.246v-14.105m-3.2422,14.105v5.707m-3.2422-5.707v-5.707m-3.2422,5.707v5.707m-3.2422-5.707v5.707m-3.2461-5.707v-22.246m-3.2422,22.246v-14.105m-3.2422,14.105v-35.633m-3.2422,35.633v-2.2969m-3.2422,2.2969v-14.105m-3.2461,14.105v-5.707m-3.2422,5.707v5.707m-3.2422-5.707v12.273m-3.2422-12.273v-4.9883m-3.2422,4.9883v-28.211m-3.2461,28.211v-14.105m-3.2422,14.105v-14.105m-3.2422,14.105v14.105m-3.2422-14.105v5.707m-3.2422-5.707v-30.391m-3.2461,30.391v-14.105m-3.2422,14.105v-12.02m-3.2422,12.02v-14.105m-3.2422,14.105v-14.105m-3.2422,14.105v-22.246m-3.2461,22.246v-14.105m-3.2422,14.105v-5.707m-3.2422,5.707v-5.707m-3.2422,5.707v10.695m-3.2422-10.695v5.707m-3.2461-5.707v-5.707m-3.2422,5.707v-7.2852m-3.2422,7.2852v-14.105m-3.2422,14.105v-5.707m-3.2422,5.707v5.707m-3.2461-5.707v5.707m-3.2422-5.707v-5.707m-3.2422,5.707v10.695m-3.2422-10.695v5.707m-3.2422-5.707v-5.2422m-3.2461,5.2422v-14.105m-3.2422,14.105v-2.9023m-3.2422,2.9023v-14.105m-3.2422,14.105v-17.262m-3.2422,17.262v-14.105m-3.2461,14.105v-5.707m-3.2422,5.707v-17.262m-3.2422,17.262v-14.105m-3.2422,14.105v-5.707m-3.2422,5.707v5.707m-3.2461-5.707v-25.656m-3.2422,25.656v-5.707m-3.2422,5.707v-5.707m-3.2422,5.707v5.707m-3.2422-5.707v5.707m-3.2461-5.707v-11.418m-3.2422,11.418v5.707m-3.2422-5.707v-5.707m-3.2422,5.707v5.707m-3.2422-5.707v-5.707m-3.2461,5.707v3.0195m-3.2422-3.0195v14.105m-3.2422-14.105v5.707m-3.2422-5.707v5.707m-3.2422-5.707v-5.707m-3.2461,5.707v5.707m-3.2422-5.707v-5.707m-3.2422,5.707v5.707m-3.2422-5.707v5.707m807.5-117.37v-16.402m-3.2461,16.402v-27.23m-3.2422,27.234v-14.102m-3.2422,14.102v-27.23m-3.2422,27.234v-14.102m-3.2422,14.102v-23.277m-3.2461,23.277v-14.102m-3.2422,14.102v-17.805m-3.2422,17.805v-28.207m-3.2422,28.207v-27.23m-3.2422,27.234v-14.102m-3.2461,14.102v-27.23m-3.2422,27.234v-14.102m-3.2422,14.102v-12.273m-3.2422,12.273v-14.102m-3.2422,14.102v5.7109m-3.2461-5.7109v-16.539m-3.2422,16.539v-14.102m-3.2422,14.102v-2.2969m-3.2422,2.2969v-14.102m-3.2422,14.102v-5.707m-3.2461,5.707v-26.086m-3.2422,26.086v-14.102m-3.2422,14.102v-56.418m-3.2422,56.418v-28.207m-3.2422,28.207v11.418m-3.2461-11.418v-28.207m-3.2422,28.207v-65.145m-3.2422,65.145v-14.102m-3.2422,14.102v-39.898m-3.2422,39.898v-14.102m-3.2461,14.102v-23.297m-3.2422,23.297v-14.102m-3.2422,14.102v-28.207m-3.2422,28.207v-28.207m-3.2422,28.207v5.7109m-3.2461-5.7109v-51.039m-3.2422,51.039v-27m-3.2422,27v-14.102m-3.2422,14.102v-4.5977m-3.2422,4.5977v-28.207m-3.2461,28.207v-25.52m-3.2422,25.52v-14.102m-3.2422,14.102v-6.4453m-3.2422,6.4453v-14.102m-3.2422,14.102v-2.2969m-3.2461,2.2969v-14.102m-3.2422,14.102v-5.707m-3.2422,5.707v-23.219m-3.2422,23.219v-26.125m-3.2422,26.125v-14.102m-3.2461,14.102v-22.246m-3.2422,22.246v-14.102m-3.2422,14.102v-5.707m-3.2422,5.707v-7.2852m-3.2422,7.2852v-14.102m-3.2461,14.102v-22.246m-3.2422,22.246v-14.102m-3.2422,14.102v-17.258m-3.2422,17.258v-14.102m-3.2422,14.102v-13.129m-3.2461,13.129v-28.207m-3.2422,28.207v5.7109m-3.2422-5.7109v-27.23m-3.2422,27.234v-14.102m-3.2422,14.102v-13.305m-3.2461,13.305v-14.102m-3.2422,14.102v-12.098m-3.2422,12.098v-28.207m-3.2422,28.207v-5.707m-3.2422,5.707v5.7109m-3.2461-5.7109v-25.656m-3.2422,25.656v-5.707m-3.2422,5.707v-5.6289m-3.2422,5.6289v-28.207m-3.2422,28.207v-22.832m-3.2461,22.832v-42.312m-3.2422,42.312v-28.207m-3.2422,28.207v5.7109m-3.2422-5.7109v-28.207m-3.2422,28.207v-14.102m-3.2461,14.102v-14.102m-3.2422,14.102v-17.492m-3.2422,17.492v-42.312m-3.2422,42.312v-14.102m-3.2422,14.102v-36.938m-3.2461,36.938v-14.102m-3.2422,14.102v-14.102m-3.2422,14.102v-14.102m-3.2422,14.102v-45.703m-3.2422,45.703v-25.52m-3.2461,25.52v-14.102m-3.2422,14.102v-22.852m-3.2422,22.852v-14.102m-3.2422,14.102v-5.707m-3.2422,5.707v6.0391m-3.2461-6.0391v14.105m-3.2422-14.105v14.105m-3.2422-14.105v-12.273m-3.2422,12.273v-14.102m-3.2422,14.102v-41.34m-3.2461,41.34v-35.629m-3.2422,35.629v-17.43m-3.2422,17.434v-31.91m-3.2422,31.91v-14.102m-3.2422,14.102v-37.383m-3.2461,37.383v-17.805m-3.2422,17.805v-14.102m-3.2422,14.102v-14.102m-3.2422,14.102v-27.23m-3.2422,27.234v-14.102m-3.2461,14.102v-13.129m-3.2422,13.129v5.7109m-3.2422-5.7109v-28.207m-3.2422,28.207v-22.246m-3.2422,22.246v-14.102m-3.2461,14.102v-30.645m-3.2422,30.645v-5.707m-3.2422,5.707v5.7109m-3.2422-5.7109v-22.383m-3.2422,22.383v-28.207m-3.2461,28.207v-14.102m-3.2422,14.102v-28.207m-3.2422,28.207v-14.102m-3.2422,14.102v-28.207m-3.2422,28.207v-28.207m-3.2461,28.207v-23.84m-3.2422,23.844v-14.102m-3.2422,14.102v-14.102m-3.2422,14.102v-14.102m-3.2422,14.102v5.7109m-3.2461-5.7109v-52.25m-3.2422,52.25v-28.207m-3.2422,28.207v-14.102m-3.2422,14.102v-14.102m-3.2422,14.102v-18.973m-3.2461,18.973v-14.102m-3.2422,14.102v-26.125m-3.2422,26.125v-28.207m-3.2422,28.207v-14.102m-3.2422,14.102v-2.4336m-3.2461,2.4336v-28.207m-3.2422,28.207v-5.707m-3.2422,5.707v5.7109m-3.2422-5.7109v-11.41m-3.2422,11.414v-5.707m-3.2461,5.707v5.7109m-3.2422-5.7109v8.7305m-3.2422-8.7305v14.105m-3.2422-14.105v5.7109m-3.2422-5.7109v-22.246m-3.2461,22.246v-14.102m-3.2422,14.102v-5.707m-3.2422,5.707v5.7109m-3.2422-5.7109v-5.707m-3.2422,5.707v5.7109m-3.2461-5.7109v-5.707m-3.2422,5.707v-3.0195m-3.2422,3.0195v-14.102m-3.2422,14.102v-5.707m-3.2422,5.707v6.5664m-3.2461-6.5664v14.105m-3.2422-14.105v5.7109m-3.2422-5.7109v-8.7266m-3.2422,8.7266v-14.102m-3.2422,14.102v-22.246m-3.2461,22.246v-14.102m-3.2422,14.102v-5.707m-3.2422,5.707v5.7109m-3.63-5.71v5.7109m-3.2422-5.7109v-22.246m-3.2461,22.246v-14.102m-3.2422,14.102v-5.707m-3.2422,5.707v11.418m-3.2422-11.418v-15.68m-3.2422,15.68v-5.707m-3.2461,5.707v11.418m-3.2422-11.418v5.7109m-3.2422-5.7109v-3.0195m-3.2422,3.0195v-14.102m-3.2422,14.102v-5.707m-3.2461,5.707v2.3008m-3.2422-2.3008v14.105m-3.2422-14.105v-2.2969m-3.2422,2.2969v-14.102m-3.2422,14.102v5.7109m-3.2461-5.7109v-5.707m-3.2422,5.707v5.7109m-3.2422-5.7109v-5.707m-3.2422,5.707v7.2891m-3.2422-7.2891v14.105m-3.2461-14.105v-7.2852m-3.2422,7.2852v-14.102m-3.2422,14.102v5.7109m-3.2422-5.7109v-5.707m-3.2422,5.707v5.7109m-3.2461-5.7109v0.33203m-3.26-0.33v14.105m-3.2422-14.105v14.105m-3.2422-14.105v3.0195m-3.2422-3.0195v-1.8281m-3.2461,1.8281v-14.102m-3.2422,14.102v-14.102m-3.2422,14.102v14.105m-3.2422-14.105v5.7109m-3.2422-5.7109v-16.285m-3.2461,16.285v-28.207m-3.2422,28.207v-26.125m-3.2422,26.125v-14.102m-3.2422,14.102v-22.246m-3.2422,22.246v-14.102m-3.2461,14.102v-5.707m-3.2422,5.707v5.7109m-3.2422-5.7109v-5.707m-3.2422,5.707v5.7109m-3.2422-5.7109v-7.2852m-3.2461,7.2852v-14.102m-3.2422,14.102v-5.707m-3.2422,5.707v5.7109m-3.2422-5.7109v5.7109m-3.2422-5.7109v-7.2852m-3.2461,7.2852v-14.102m-3.2422,14.102v-5.707m-3.2422,5.707v-5.707m-3.2422,5.707v5.7109m-3.2422-5.7109v-5.707m-3.2461,5.707v5.7109m-3.2422-5.7109v-5.707m-3.2422,5.707v5.7109m-3.2422-5.7109v-5.707m-3.2422,5.707v5.7109m-3.2461-5.7109v-5.707m-3.2422,5.707v5.7109m-3.2422-5.7109v5.7109m-3.2422-5.7109v-0.25m-3.2422,0.25v-14.102m-3.2461,14.102v-2.9024m-3.2422,2.9024v-14.102m-3.2422,14.102v5.7109m-3.2422-5.7109v-11.551m-3.2422,11.551v-14.102m-3.2461,14.102v-5.707m-3.2422,5.707v-5.707m-3.2422,5.707v-5.707m-3.2422,5.707v5.7109m-3.2422-5.7109v-5.707m-3.2461,5.707v5.7109m-3.282-5.71v-5.707m-3.2422,5.707v5.7109m-3.2422-5.7109v5.7109m807.5-117.37v-14.105m-3.2461,14.105v5.707m-3.2422-5.707v-14.105m-3.2422,14.105v-42.316m-3.2422,42.316v-14.105m-3.2422,14.105v-14.105m-3.2461,14.105v-14.105m-3.2422,14.105v-28.211m-3.2422,28.211v-14.105m-3.2422,14.105v-14.105m-3.2422,14.105v-14.105m-3.2461,14.105v-70.523m-3.2422,70.523v-24.957m-3.2422,24.957v-14.105m-3.2422,14.105v5.707m-3.2422-5.707v-19.348m-3.2461,19.348v-14.105m-3.2422,14.105v-28.211m-3.2422,28.211v-14.105m-3.2422,14.105v5.707m-3.2422-5.707v-42.316m-3.2461,42.316v-14.105m-3.2422,14.105v-14.105m-3.2422,14.105v-28.211m-3.2422,28.211v-14.105m-3.2422,14.105v-14.105m-3.2461,14.105v-14.105m-3.2422,14.105v-14.105m-3.2422,14.105v-14.105m-3.2422,14.105v-14.105m-3.2422,14.105v-14.105m-3.2461,14.105v5.707m-3.2422-5.707v-14.105m-3.2422,14.105v-10.852m-3.2422,10.852v-14.105m-3.2422,14.105v-14.105m-3.2461,14.105v-19.348m-3.2422,19.348v-14.105m-3.2422,14.105v-14.105m-3.2422,14.105v-28.211m-3.2422,28.211v11.414m-3.2461-11.414v-28.211m-3.2422,28.211v-28.211m-3.2422,28.211v-28.211m-3.2422,28.211v-14.105m-3.2422,14.105v-14.105m-3.2461,14.105v-14.105m-3.2422,14.105v-14.105m-3.2422,14.105v5.707m-3.2422-5.707v-14.105m-3.2422,14.105v-28.211m-3.2461,28.211v-28.211m-3.2422,28.211v-24.957m-3.2422,24.957v-14.105m-3.2422,14.105v5.707m-3.2422-5.707v-8.0469m-3.2461,8.0469v-28.211m-3.2422,28.211v-14.105m-3.2422,14.105v-28.211m-3.2422,28.211v-14.105m-3.2422,14.105v-28.211m-3.2461,28.211v-28.211m-3.2422,28.211v-14.105m-3.2422,14.105v5.707m-3.2422-5.707v-11.301m-3.2422,11.301v-28.211m-3.2461,28.211v-14.105m-3.2422,14.105v-14.105m-3.2422,14.105v-14.105m-3.2422,14.105v-14.105m-3.2422,14.105v-14.105m-3.2461,14.105v-14.105m-3.2422,14.105v-24.957m-3.2422,24.957v-14.105m-3.2422,14.105v5.707m-3.2422-5.707v-5.2422m-3.2461,5.2422v-14.105m-3.2422,14.105v-14.105m-3.2422,14.105v-56.422m-3.2422,56.422v-28.211m-3.2422,28.211v-14.105m-3.2461,14.105v5.707m-3.2422-5.707v-14.105m-3.2422,14.105v-28.211m-3.2422,28.211v-14.105m-3.2422,14.105v-14.105m-3.2461,14.105v-14.105m-3.2422,14.105v-42.316m-3.2422,42.316v-28.211m-3.2422,28.211v-24.957m-3.2422,24.957v-14.105m-3.2461,14.105v5.707m-3.2422-5.707v-33.449m-3.2422,33.449v-14.105m-3.2422,14.105v-14.105m-3.2422,14.105v-14.105m-3.2461,14.105v-70.523m-3.2422,70.523v-28.211m-3.2422,28.211v-14.105m-3.2422,14.105v-14.105m-3.2422,14.105v-14.105m-3.2461,14.105v5.707m-3.2422-5.707v-56.422m-3.2422,56.422v-14.105m-3.2422,14.105v-24.957m-3.2422,24.957v-14.105m-3.2461,14.105v5.707m-3.2422-5.707v-33.449m-3.2422,33.449v-14.105m-3.2422,14.105v-14.105m-3.2422,14.105v-14.105m-3.2461,14.105v-14.105m-3.2422,14.105v-14.105m-3.2422,14.105v-28.211m-3.2422,28.211v-14.105m-3.2422,14.105v-28.211m-3.2461,28.211v-14.105m-3.2422,14.105v5.707m-3.2422-5.707v-14.105m-3.2422,14.105v-14.105m-3.2422,14.105v-70.523m-3.2461,70.523v-24.957m-3.2422,24.957v-14.105m-3.2422,14.105v3.0195m-3.2422-3.0195v14.105m-3.2422-14.105v5.707m-3.2461-5.707v-19.348m-3.2422,19.348v-14.105m-3.2422,14.105v6.0391m-3.2422-6.0391v14.105m-3.2422-14.105v-14.105m-3.2461,14.105v-56.422m-3.2422,56.422v-28.211m-3.2422,28.211v-14.105m-3.2422,14.105v-28.211m-3.2422,28.211v-14.105m-3.2461,14.105v14.105m-3.2422-14.105v-14.105m-3.2422,14.105v-14.105m-3.2422,14.105v5.707m-3.2422-5.707v-14.105m-3.2461,14.105v-56.422m-3.2422,56.422v-10.852m-3.2422,10.852v-14.105m-3.2422,14.105v-14.105m-3.2422,14.105v-8.0469m-3.2461,8.0469v-28.211m-3.2422,28.211v-14.105m-3.2422,14.105v-42.316m-3.2422,42.316v-42.316m-3.2422,42.316v-14.105m-3.2461,14.105v-14.105m-3.2422,14.105v-5.7109m-3.2422,5.7109v5.707m-3.2422-5.707v5.707m-3.2422-5.707v-11.555m-3.2461,11.555v-14.105m-3.2422,14.105v5.707m-3.2422-5.707v-8.0469m-3.2422,8.0469v-28.211m-3.2422,28.211v2.2969m-3.2461-2.2969v-14.105m-3.2422,14.105v14.105m-3.2422-14.105v-56.422m-3.2422,56.422v-14.105m-3.2422,14.105v-28.211m-3.2461,28.211v-14.105m-3.2422,14.105v5.707m-3.2422-5.707v-5.7109m-3.2422,5.7109v6.0391m-3.2422-6.0391v14.105m-3.2461-14.105v14.105m-3.2422-14.105v-7.3086m-3.2422,7.3086v5.707m-3.2422-5.707v-14.105m-3.2422,14.105v-14.105m-3.2461,14.105v-28.211m-3.2422,28.211v-14.105m-3.2422,14.105v-14.105m-3.2422,14.105v-5.7109m-3.2422,5.7109v-11.555m-3.2461,11.555v-14.105m-3.2422,14.105v-5.7109m-3.2422,5.7109v-5.7109m-3.2422,5.7109v5.707m-3.2422-5.707v-5.7109m-3.2461,5.7109v10.695m-3.2422-10.695v5.707m-3.2422-5.707v5.707m-3.2422-5.707v5.707m-3.2422-5.707v-5.7109m-3.2461,5.7109v5.707m-3.2422-5.707v-5.7109m-3.2422,5.7109v5.707m-3.2422-5.707v-5.7109m-3.2422,5.7109v5.707m-3.2461-5.707v5.707m-3.2422-5.707v-1.5781m-3.2422,1.5781v-14.105m-3.2422,14.105v-5.7109m-3.2422,5.7109v5.707m-3.2461-5.707v-5.7109m-3.2422,5.7109v5.707m-3.2422-5.707v-5.7109m-3.2422,5.7109v5.707m-3.2422-5.707v-9.8594m-3.2461,9.8594v5.707m-3.2422-5.707v-14.105m-3.2422,14.105v-28.211m-3.2422,28.211v-14.105m-3.2422,14.105v-5.7109m-3.2461,5.7109v5.707m-3.2422-5.707v-6.5664m-3.2422,6.5664v-14.105m-3.2422,14.105v5.707m-3.2422-5.707v-5.7109m-3.2461,5.7109v5.707m-3.2422-5.707v12.273m-3.2422-12.273v14.105m-3.2422-14.105v5.707m-3.2422-5.707v-1.5781m-3.2461,1.5781v-14.105m-3.2422,14.105v-5.7109m-3.2422,5.7109v10.695m-3.2422-10.695v5.707m-3.2422-5.707v-5.7109m-3.2461,5.7109v5.707m-3.2422-5.707v-9.8594m-3.2422,9.8594v5.707m-3.2422-5.707v-14.105m-3.2422,14.105v-14.105m-3.2461,14.105v-14.105m-3.2422,14.105v-14.105m-3.2422,14.105v-5.7109m-3.2422,5.7109v-5.7109m-3.2422,5.7109v5.707m-3.2461-5.707v-5.7109m-3.2422,5.7109v5.707m-3.2422-5.707v-5.7109m-3.2422,5.7109v5.707m-3.2422-5.707v-5.7109m-3.2461,5.7109v5.707m-3.2422-5.707v5.707m-3.2422-5.707v-5.7109m-3.2422,5.7109v5.707m-3.2422-5.707v-5.7109m-3.2461,5.7109v5.707m-3.2422-5.707v5.707m-3.2422-5.707v-5.7109m-3.2422,5.7109v-5.7109m806.81-105.96v-28.433m-3.2461,28.441v-14.223m-3.2422,14.223v11.418m-3.46-11.422v-14.223m-3.2422,14.223v-14.223m-3.2422,14.223v-28.441m-3.2461,28.441v-14.223m-3.2422,14.223v-56.887m-3.2422,56.887v-28.441m-3.2422,28.441v-14.223m-3.25,14.223v-28.441m-3.2461,28.441v-28.441m-3.2422,28.441v-14.223m-3.2422,14.223v8.6094m-3.2422-8.6094v14.223m-3.25-14.222v-14.223m-3.24,14.223v-42.664m-3.2422,42.664v-14.223m-3.2422,14.223v-28.441m-3.2422,28.441v-14.223m-3.2422,14.223v-42.664m-3.2461,42.664v-14.223m-3.2422,14.223v-14.223m-3.2422,14.223v-28.441m-3.2422,28.441v5.707m-3.2422-5.707v-14.223m-3.2461,14.223v-28.441m-3.25,28.441v-28.441m-3.2422,28.441v-14.223m-3.2422,14.223v-42.664m-3.2422,42.664v-28.441m-3.2461,28.441v-14.223m-3.2422,14.223v-14.223m-3.2422,14.223v5.707m-3.2422-5.707v-14.223m-3.2422,14.223v-28.441m-3.2461,28.441v-14.223m-3.2422,14.223v-28.441m-3.26,28.441v-14.223m-3.2422,14.223v-14.223m-3.2422,14.223v-28.441m-3.2461,28.441v-14.223m-3.2422,14.223v-28.441m-3.2422,28.441v-14.223m-3.2422,14.223v-14.223m-3.2422,14.223v-28.441m-3.2461,28.441v5.707m-3.2422-5.707v-14.223m-3.2422,14.223v-14.223m-3.25,14.223v-14.223m-3.2422,14.223v-14.223m-3.2461,14.223v-14.223m-3.2422,14.223v-14.223m-3.2422,14.223v-14.223m-3.2422,14.223v-14.223m-3.2422,14.223v-28.441m-3.2461,28.441v-14.223m-3.2422,14.223v5.707m-3.2422-5.707v-42.664m-3.2422,42.664v-14.223m-3.25,14.223v-14.223m-3.2461,14.223v-5.707m-3.2422,5.707v-17.707m-3.2422,17.707v5.707m-3.2422-5.707v-14.223m-3.2422,14.223v-28.441m-3.25,28.441v-14.223m-3.2422,14.223v-14.223m-3.2422,14.223v-14.223m-3.2422,14.223v-14.223m-3.2422,14.223v-14.223m-3.2461,14.223v-14.223m-3.2422,14.223v5.707m-3.2422-5.707v-14.223m-3.2422,14.223v-14.223m-3.2422,14.223v-14.223m-3.2461,14.223v-14.223m-3.25,14.223v-14.223m-3.2422,14.223v-14.223m-3.2422,14.223v-14.223m-3.2422,14.223v5.707m-3.2461-5.707v-14.223m-3.2422,14.223v-14.223m-3.2422,14.223v-14.223m-3.2422,14.223v-24.996m-3.2422,24.996v-14.223m-3.2461,14.223v-28.441m-3.2422,28.441v-14.223m-3.26,14.223v-28.441m-3.2422,28.441v-14.223m-3.2422,14.223v-14.223m-3.2461,14.223v-28.441m-3.2422,28.441v-28.441m-3.2422,28.441v-14.223m-3.2422,14.223v5.707m-3.2422-5.707v-14.223m-3.2461,14.223v-14.223m-3.2422,14.223v-28.441m-3.2422,28.441v-14.223m-3.25,14.223v-28.441m-3.2422,28.441v-14.223m-3.2461,14.223v-7.8516m-3.2422,7.8516v-14.223m-3.2422,14.223v5.707m-3.2422-5.707v-56.887m-3.2422,56.887v-14.223m-3.2461,14.223v-28.441m-3.2422,28.441v-14.223m-3.2422,14.223v-14.223m-3.2422,14.223v-14.223m-3.25,14.223v-14.223m-3.2461,14.223v-14.223m-3.2422,14.223v-28.441m-3.2422,28.441v-14.223m-3.2422,14.223v-28.441m-3.2422,28.441v-14.223m-3.25,14.223v-14.223m-3.2422,14.223v-14.223m-3.2422,14.223v-3.6445m-3.2422,3.6445v-14.223m-3.2422,14.223v-14.223m-3.2461,14.223v-5.707m-3.2422,5.707v-5.707m-3.2422,5.707v5.707m-3.2422-5.707v-11.414m-3.2422,11.414v5.1836m-3.2461-5.1836v14.223m-3.25-14.222v-11.609m-3.2422,11.609v14.223m-3.25-14.222v-14.223m-3.2422,14.223v-14.223m-3.2461,14.223v14.223m-3.2422-14.223v14.223m-3.24-14.222v-14.223m-3.2422,14.223v7.2656m-3.24-7.266v-14.223m-3.2461,14.223v-0.21484m-3.2422,0.21484v14.223m-3.24-14.222v14.223m-3.2422-14.223v14.223m-3.25-14.222v-14.223m-3.2461,14.223v-14.223m-3.2422,14.223v-14.223m-3.2422,14.223v-14.223m-3.2422,14.223v5.707m-3.2422-5.707v-14.223m-3.2461,14.223v-1.5781m-3.2422,1.5781v-14.223m-3.2422,14.223v5.707m-3.25-5.707v-14.223m-3.2422,14.223v-14.223m-3.2461,14.223v-14.223m-3.2422,14.223v-9.3516m-3.2422,9.3516v-14.223m-3.2422,14.223v-14.223m-3.2422,14.223v-5.707m-3.2461,5.707v5.707m-3.2422-5.707v5.707m-3.2422-5.707v-5.707m-3.2422,5.707v0.19531m-3.25-0.195v14.223m-3.2461-14.223v-7.4023m-3.2422,7.4023v14.223m-3.2422-14.223v14.223m-3.2422-14.223v14.223m-3.24-14.222v-14.223m-3.25,14.223v-14.223m-3.2422,14.223v-14.223m-3.2422,14.223v0.09766m-3.25-0.098v-14.223m-3.2422,14.223v-14.223m-3.2461,14.223v-14.223m-3.2422,14.223v14.223m-3.24-14.222v-14.223m-3.2422,14.223v-1.0312m-3.2422,1.0312v14.223m-3.25-14.222v-14.223m-3.24,14.223v-14.223m-3.2422,14.223v-14.223m-3.2422,14.223v-14.223m-3.2422,14.223v-14.223m-3.2461,14.223v5.707m-3.2422-5.707v-14.223m-3.2422,14.223v-14.223m-3.2422,14.223v-5.9414m-3.2422,5.9414v-28.441m-3.2461,28.441v-14.223m-3.2422,14.223v-14.223m-3.25,14.223v-14.223m-3.2422,14.223v-14.223m-3.2422,14.223v2.9023m-3.2461-2.9023v-4.4609m-3.2422,4.4609v-14.223m-3.2422,14.223v14.223m-3.25-14.222v-14.223m-3.2422,14.223v-14.223m-3.2461,14.223v5.707m-3.2422-5.707v-14.223m-3.2422,14.223v-13.617m-3.24,13.617v-28.441m-3.2422,28.441v-5.707m-3.2461,5.707v5.707m-3.2422-5.707v5.707m-3.2422-5.707v-5.707m-3.2422,5.707v11.418m-3.2422-11.418v-0.11719m-3.2461,0.11719v5.707m-3.2422-5.707v-14.227m-3.2422,14.223v-14.223m-3.2422,14.223v-14.223m-3.2422,14.223v-5.707m-3.2461,5.707v5.707m-3.2422-5.707v-5.707m-3.2422,5.707v5.707m-3.2422-5.707v-5.707m-3.2422,5.707v5.707m-3.2461-5.707v5.707m-3.2422-5.707v-11.414m-3.2422,11.414v-5.707m-3.2422,5.707v5.707m-3.2422-5.707v-5.707m-3.2461,5.707v-5.707m-3.2422,5.707v5.707m-3.2422-5.707v5.707m-3.2422-5.707v5.707m-3.2422-5.707v5.707m-3.2461-5.707v5.707m-3.27-5.707v-5.707m-3.2422,5.707v0.72266m-3.24-0.723v-2.9492m-3.2422,2.9492v2.8438m-3.253-2.844v-1.0508m-3.242,1.0508v-14.105m-3.2422,14.105v1.2969m-3.242-1.297v-2.4336m-3.2422,2.4336v1.9297m-3.247-1.93v-9.0508m-3.2422,9.0508v5.707m-3.242-5.707v-5.707m-3.2422,5.707v5.707m-3.2422-5.707v5.707m-3.2461-5.707v-5.707m-3.2422,5.707v5.707m-3.2422-5.707v-5.707m-3.2422,5.707v5.707m-3.2422-5.707v5.707m-3.2461-5.707v-5.707m-3.2422,5.707v5.707m-3.2422-5.707v5.707m-3.244-5.707v5.707" stroke="#000" stroke-width="1.05999994" fill="none"/>
<g font-size="9.60000038px" style="text-anchor:middle;text-align:center;" font-family="Cabin" text-align="center">
<text y="11.368258" x="444.50461">amazon</text>
<text y="123.13016" x="444.21228">readwriteweb</text>
<text y="234.69249" x="444.26807">twitter splash page</text>
<text y="346.44318" x="444.53342">twitter login</text>
<text y="458.11044" x="444.58667">xkcd</text>
<g fill="#7d7d7d">
<text y="569.66968" x="38.985928">0</text>
<text y="569.66968" x="201.19197">50</text>
<text y="569.66968" x="363.422">100</text>
<text y="569.66968" x="525.57043">150</text>
<text y="569.66968" x="687.64209">200</text>
<text y="569.66968" x="849.79053">250</text>
<g style="text-anchor:end;text-align:end;" text-align="end">
<text y="21.479532" x="26.891651">7500</text>
<text y="45.831093" x="26.891651">5000</text>
<text y="70.182655" x="26.891651">2500</text>
<text y="94.534218" x="26.891651">0</text>
<text y="133.13969" x="26.891651">7500</text>
<text y="157.49126" x="26.891651">5000</text>
<text y="181.84673" x="26.891651">2500</text>
<text y="206.19829" x="26.891651">0</text>
<text y="244.80376" x="26.891651">7500</text>
<text y="269.1553" x="26.891651">5000</text>
<text y="293.50687" x="26.891651">2500</text>
<text y="317.85846" x="26.891651">0</text>
<text y="356.4678" x="26.891651">7500</text>
<text y="380.81937" x="26.891651">5000</text>
<text y="405.17096" x="26.891651">2500</text>
<text y="429.52249" x="26.891651">0</text>
<text y="468.12799" x="26.891651">7500</text>
<text y="492.47952" x="26.891651">5000</text>
<text y="516.83496" x="26.891651">2500</text>
<text y="541.18652" x="26.891651">0</text>
</g>
</g>
</g>
</g>
</svg>
