<?xml version="1.0"?>
<?xml-stylesheet type="text/css" href="r/fonts.css"?>
<svg xmlns="http://www.w3.org/2000/svg" version="1.1" viewBox="0 0 221 161">
<text style="font:5px Cabin;text-anchor:end;text-align:end" y="142.55168" x="20.582262">0</text>
<text style="font:5px Cabin;text-anchor:end;text-align:end" y="123.02469" x="20.582262">0.1</text>
<text style="font:5px Cabin;text-anchor:end;text-align:end" y="103.49769" x="20.582262">0.2</text>
<text style="font:5px Cabin;text-anchor:end;text-align:end" y="83.970688" x="20.582262">0.3</text>
<text style="font:5px Cabin;text-anchor:end;text-align:end" y="64.443687" x="20.582262">0.4</text>
<text style="font:5px Cabin;text-anchor:end;text-align:end" y="44.916691" x="20.582262">0.5</text>
<text style="font:5px Cabin;text-anchor:end;text-align:end" y="25.38969" x="20.582262">0.6</text>
<text style="font:5px Cabin;text-anchor:end;text-align:end" y="5.86269" x="20.582262">0.7</text>
<text style="font:5px Cabin;text-anchor:middle;text-align:center" y="148.541" x="23.62211">0</text>
<text style="font:5px Cabin;text-anchor:middle;text-align:center" y="148.541" x="47.332611">200</text>
<text style="font:5px Cabin;text-anchor:middle;text-align:center" y="148.541" x="71.100609">400</text>
<text style="font:5px Cabin;text-anchor:middle;text-align:center" y="148.541" x="94.658615">600</text>
<text style="font:5px Cabin;text-anchor:middle;text-align:center" y="148.541" x="118.34412">800</text>
<text style="font:5px Cabin;text-anchor:middle;text-align:center" y="148.541" x="142.08461">1000</text>
<text style="font:5px Cabin;text-anchor:middle;text-align:center" y="148.541" x="165.76262">1200</text>
<text style="font:5px Cabin;text-anchor:middle;text-align:center" y="148.541" x="189.44061">1400</text>
<text style="font:5px Cabin;text-anchor:middle;text-align:center" y="148.541" x="213.11861">1600</text>
<text style="font:5px Cabin;text-anchor:end;text-align:end" y="12.249364" x="181.26585">server to client</text>
<text style="font:5px Cabin;text-anchor:end;text-align:end" y="19.598063" x="181.26585">client to server</text>
<text style="font:6px Cabin;text-anchor:start;text-align:start" y="157.5" x="101.31014">packet length</text>
<text transform="rotate(-90)" style="font:6px Cabin;text-anchor:start;text-align:start" y="6.5" x="-96.857735">prob(packet length)</text>
<path d="m47.298,142.87,0-1.9943m23.678,1.9943,0-1.9943m23.678,1.9943,0-1.9943m23.678,1.9943,0-1.9943m23.678,1.9943,0-1.9943m23.678,1.9943,0-1.9943m23.678,1.9943,0-1.9943m23.678,1.9943-0.002-1.9932c-63.809,0.001-127.62,0.002-191.43,0.00007m0-19.527,2.002,0m-2.002-19.527,2.002,0m-2.002-19.527,2.002,0m-2.002-19.527,2.002,0m-2.002-19.527,2.002,0m-2.002-19.527,2.002,0m-2.002-19.527,2.002,0c0.000241,46.228,0,92.454,0,138.68" stroke="#000" stroke-width="0.166" fill="none"/>
<path d="m184.65,9.858v1.0829h19.6v-1.0829z" fill="#000"/>
<path d="m184.65,18.262v-1.0829h19.6v1.0829z" fill="#d40000" fill-opacity="0.82969"/>
<path d="m29.301,140.8,0-17.069,0.96306,0,0,16.837,0.92985,0,0,0.16605,0.89664,0,0,0.0664,0.46493,0,0-0.43172,0.53134,0,0-7.7709,0.96306,0,0-11.357,0.92985,0,0,9.1989,0.96306,0,0,5.6787,0.92985,0,0,3.2545,0.96306,0,0,1.1623,0.92985,0,0-4.4832,0.96306,0,0,3.6862,0.92985,0,0,0.76381,0.96306,0,0,0.13283,0.92985,0,0-0.99627,0.96306,0,0-0.69739,0.92985,0,0,1.1291,0.96306,0,0,0.39851,0.92985,0,0,0.19925,0.96306,0,0-0.0332,0.96306,0,0-0.39851,0.92985,0,0-0.16604,0.96306,0,0,0.43172,0.92985,0,0,0.0664,0.96306,0,0,0.13283,0.92985,0,0-0.16604,0.96306,0,0,0.13283,0.92985,0,0-0.0332,0.96306,0,0-0.0332,1.8929,0,0,0.0332,0.92985,0,0-0.0332,0.96306,0,0,0.0332,0.92985,0,0,0.0332,0.96306,0,0-0.0332,0.92985,0,0-0.0332,0.96306,0,0-0.13283,0.92985,0,0,0.16604,0.96306,0,0-0.0996,0.92985,0,0,0.0996,0.96306,0,0-0.26567,0.92985,0,0,0.26567,0.96306,0,0-0.29888,0.92985,0,0,0.33209,0.96306,0,0-0.19925,0.96306,0,0,0.16604,0.92985,0,0-0.26567,0.96306,0,0,0.29888,0.92985,0,0-0.3653,0.96306,0,0,0.33209,0.92985,0-0.000975-0.16591,0.96208,0.00014,0,0.16604,0.92985,0,0-0.16604,0.96306,0,0,0.16604,0.92985,0,0-0.16604,0.96306,0,0,0.19925,0.92985,0,0-0.23246,0.96306,0,0,0.23246,0.92985,0,0-0.16605,0.96306,0,0,0.16605,0.92986,0,0-0.16605,0.96306,0,0,0.16605,0.92985,0,0-0.13284,0.96306,0,0,0.13284,0.92985,0,0-0.13284,0.96306,0,0,0.13284,0.92986,0,0-0.13284,0.96306,0,0,0.13284,0.92985,0,0-0.13284,0.96306,0,0,0.16605,0.96306,0,0-0.26567,0.92985,0,0,0.23246,0.96306,0,0-0.13284,0.92986,0,0,0.13284,0.96306,0,0-0.26567,0.92985,0,0,0.29888,0.96306,0,0-0.0996,0.92985,0,0,0.0996,0.96306,0,0-0.13284,0.92985,0,0,0.13284,0.96307,0,0-0.16605,0.92985,0,0,0.13284,0.96306,0,0-0.0664,0.92985,0,0,0.0996,0.96306,0,0-0.13284,0.92985,0,0,0.0996,0.96306,0,0-0.0996,0.92986,0,0,0.13284,0.96306,0,0-0.13284,0.92985,0,0,0.13284,0.96306,0,0-0.13284,0.92985,0,0,0.13284,0.96306,0,0-0.0996,0.92986,0,0,0.0664,0.96306,0,0-0.0664,0.96306,0,0,0.0996,0.92985,0,0-0.13284,0.96306,0,0,0.13284,0.92985,0,0-0.0996,0.96306,0,0,0.0996,0.92986,0,0-0.13284,0.96306,0,0,0.13284,0.92985,0,0.00003-0.1011,0.96309-0.001,0,0.0996,0.92985,0,0-0.0996,0.96306,0,0,0.0996,0.92985,0,0-0.0996,0.96306,0,0,0.0996,0.92986,0,0-0.0996,0.96306,0,0,0.0996,0.92985,0,0-0.0996,0.96306,0,0,0.0996,0.92985,0,0-0.0664,0.96306,0,0,0.0664,0.92986,0,0-0.0664,0.96306,0,0,0.0664,0.92985,0,0-0.0996,0.96306,0,0,0.0996,0.92985,0,0-0.0996,0.96306,0,0,0.0996,0.96306,0,0-0.0996,0.92986,0,0,0.13284,0.96306,0,0-0.0996,0.92985,0,0,0.0664,0.96306,0,0-0.13284,0.92985,0,0,0.0996,0.96306,0,0-0.0332,0.92986,0,0,0.0664,0.96306,0,0-0.0664,0.92985,0,0,0.0664,0.96306,0,0-0.0664,0.92985,0,0,0.0664,0.96306,0,0-0.0664,0.92985,0,0,0.0664,0.96307,0,0-0.0996,0.92985,0,0,0.0996,0.96306,0,0-0.13283,0.92985,0,0,0.13283,0.96306,0,0-0.0664,0.92985,0,0,0.0664,0.96306,0,0-0.0996,0.92986,0,0,0.0996,0.96306,0,0-0.0664,0.92985,0,0,0.0664,0.96306,0,0-0.0664,0.96306,0,0,0.0664,0.92985,0,0-0.0664,0.96306,0,0,0.0664,0.92986,0,0-0.0996,0.96306,0,0,0.13284,0.92985,0,0-0.13284,0.96306,0,0,0.13284,0.92985,0,0-0.13284,0.96306,0,0,0.0996,0.92986,0,0.00053-0.0629,0.96358,0.003,0,0.0664,0.92985,0,0-0.19925,0.96306,0,0,0.16604,0.92985,0,0-0.0332,0.96306,0,0,0.0664,0.92985,0,0-0.0996,1.8929,0,0-0.0332,0.96306,0,0,0.13284,0.92985,0,0-0.0996,0.96306,0,0,0.13283,0.92985,0,0-0.3653,0.96306,0,0,0.23247,0.92986,0,0,0.0664,0.96306,0,0,0.0332,0.96306,0,0-0.0664,0.92985,0,0-0.26567,0.96306,0,0,0.19925,0.92985,0,0,0.16604,0.96306,0,0-0.0996,1.8929,0,0-0.83022,0.92985,0,0,0.92985,0.96306,0,0-0.26567,0.92985,0,0,0.26567,0.96306,0,0-0.13283,0.92986,0,0-91.092,0.96306,0,0,91.292" fill="#000"/>
<path d="m29.301,140.8,0-126.06,0.96306,0,0,126.03,0.92985,0,0,0.0332,0.96306,0,0-0.0332,0.92985,0,0-4.7489,0.83022,0,0,4.7821,0.46493,0,0-0.0332,0.59776,0,0-1.8265,0.96306,0,0,1.8265,0.92985,0,0-4.45,0.96306,0,0,4.45,2.8228,0,0-17.435,0.96306,0,0,17.435,0.92985,0,0,0.0332,0.96306,0,0-0.0332,0.92985,0,0-0.29889,0.96306,0,0,0.29889,0.92985,0,0,0.0332,0.96306,0,0-0.0332,0.96306,0,0-0.16605,0.92985,0,0,0.16605,0.96306,0,0,0.0332,4.7157,0,0-0.0332,1.8929,0,0,0.0332,0.96306,0,0-0.0332,0.92985,0,0,0.0332,3.7858,0,0-0.0332,0.96306,0,0,0.0332,0.92985,0,0-0.0332,0.96306,0,0,0.0332,0.92985,0,0-0.0332,0.96306,0,0,0.0332,0.92985,0,0-0.0332,0.96306,0,0,0.0332,0.92985,0,0-0.0332,0.96306,0,0,0.0332,2.856,0,0-0.0332,0.92985,0,0-0.83023,0.96306,0,0,0.86343,0.92985,0,0-0.92985,0.96306,0,0,0.89665,0.92985,0,0-1.9593,0.96306,0,0,1.9593,0.92985,0,0-6.8743,0.96306,0,0,6.8743,0.92897,0.002-0.00088-7.3709,0.96306,0,0,7.4056,0.92985,0,0-5.081,0.96306,0,0,5.0478,0.92986,0,0-2.0922,0.96306,0,0,2.1254,0.92985,0,0-1.7269,0.96306,0,0,1.7269,0.92985,0,0-1.6937,0.96306,0,0,1.6937,0.92986,0,0-0.89665,0.96306,0,0,0.89665,0.92985,0,0-0.59777,0.96306,0,0,0.59777,0.96306,0,0-0.46493,0.92985,0,0,0.46493,0.96306,0,0-0.53135,0.92986,0,0,0.53135,0.96306,0,0-0.23247,0.92985,0,0,0.23247,0.96306,0,0-0.16605,0.92985,0,0,0.16605,0.96306,0,0-0.16605,0.92985,0,0,0.16605,0.96307,0,0-0.13284,0.92985,0,0,0.13284,0.96306,0,0-0.13284,0.92985,0,0,0.13284,0.96306,0,0-0.0664,0.92985,0,0,0.0664,0.96306,0,0-0.0664,0.92986,0,0,0.0664,0.96306,0,0-0.0664,0.92985,0,0,0.0664,0.96306,0,0-0.0664,0.92985,0,0,0.0664,0.96306,0,0-0.0664,0.92986,0,0,0.0664,0.96306,0,0-0.0664,0.96306,0,0,0.0664,0.92985,0,0-0.0664,0.96306,0,0,0.0664,0.92985,0,0-0.0664,0.96306,0,0,0.0664,0.92986,0,0-0.0332,0.96306,0,0,0.0332,0.92985,0,0-0.0664,0.96306,0,0,0.0664,0.92985,0,0-0.19926,0.96306,0,0,0.19926,0.92985,0,0-0.16605,0.96306,0,0,0.16605,0.93039-0.002,0.00052-0.73245,0.96306,0,0,0.7306,0.92985,0,0-0.3653,0.96306,0,0,0.3653,0.92985,0,0-0.83023,0.96306,0,0,0.83023,0.92986,0,0-0.29889,0.96306,0,0,0.29889,0.92985,0,0-0.43172,0.96306,0,0,0.43172,0.92985,0,0-0.23247,0.96306,0,0,0.23247,0.96306,0,0-0.29889,0.92986,0,0,0.29889,0.96306,0,0-0.0996,0.92985,0,0,0.0996,0.96306,0,0-0.16605,0.92985,0,0,0.16605,0.96306,0,0-0.13284,0.92986,0,0,0.13284,0.96306,0,0-0.0996,0.92985,0,0,0.0996,0.96306,0,0-0.0664,0.92985,0,0,0.0664,0.96306,0,0-0.0996,0.92985,0,0,0.0996,0.96307,0,0-0.0332,0.92985,0,0,0.0332,0.96306,0,0-0.0664,0.92985,0,0,0.0664,0.96306,0,0-0.0332,0.92985,0,0,0.0332,0.96306,0,0-0.0332,0.92986,0,0,0.0332,0.96306,0,0-0.0332,0.92985,0,0,0.0332,0.96306,0,0-0.0332,0.96306,0,0,0.0332,0.92985,0,0-0.0332,0.96306,0,0,0.0332,0.92986,0,0-0.0332,0.96306,0,0,0.0332,0.92985,0,0-0.0332,0.96306,0,0,0.0332,0.92985,0,0-0.0332,0.96306,0,0,0.0332,0.92986,0,0-0.0332,0.96306,0,0,0.0332,0.92985,0,0-0.0332,0.96306,0,0,0.0332,0.92985,0,0-0.0332,0.96306,0,0,0.0332,0.93038,0.00008,0.00053-0.0331,0.96307,0,0,0.0332,0.92985,0,0-0.0332,0.96306,0,0,0.0332,0.92985,0,0-0.0664,0.96306,0,0,0.0664,0.92985,0,0-0.0664,0.96306,0,0,0.0664,0.92986,0,0-0.0664,0.96306,0,0,0.0664,0.96306,0,0-0.0664,0.92985,0,0,0.0664,0.96306,0,0-0.0664,0.92985,0,0,0.0664,0.96306,0,0-0.0664,0.92986,0,0,0.0664,0.96306,0,0-0.0664,0.92985,0,0,0.0664,0.96306,0,0-0.0664,0.92985,0,0,0.0664,0.96306,0,0-0.0332,0.92986,0,0-1.1291,0.96306,0,0,1.1623" fill="#d40000" fill-opacity="0.82969"/>
</svg>
