<?xml version="1.0"?>
<svg xmlns="http://www.w3.org/2000/svg" version="1.1" viewBox="0 0 760 180">
<path fill="#888" d="m633.28-0.15625v109.19h-0.46875v-54.594h-1.4375v54.594h-0.125v-54.594h-1.5937v54.594h-0.125v-27.312h-0.8125v27.312h-0.125v-27.312h-0.8125v27.312h-1.0623v-27.312h-0.8125v27.312h-0.15625v-27.312h-0.78125v27.312h-0.15625v-29.312h-0.78125v-25.281h-2.1875v27.281h-0.15625v-54.562h-0.78125v54.562h-0.3125v-54.562h-0.8125v81.875h-0.125v-27.312h-1.28125v22.188h-0.3125v5.125h-0.2812v-27.312h-1.125v27.312h-0.46875v5.375h-0.125v-34.781h-0.8125v29.406h-1.4061v16.312h-0.15625v-16.312h-0.78125v27.281h-0.3125v-16.531h-0.3125v-10.75h-0.3125v-13.25h-0.625v-41.344h-0.78125v54.594h-3.28115v-27.312h-1.125v27.312h-0.125v-27.312h-1.125v27.312h-0.28125v-44.344h-0.8125v44.344h-4.6871v-27.312h-1.09375v27.312h-4.53105v-27.312h-1.28125v27.312h-0.74995v-27.312h-0.8125v27.312h-3.28085v5.375h-0.15625v10.938h-0.46875v-10.938h-0.78125v10.938h-0.15625v10.969h-0.15625v-6.6562h-0.15625v-75.219h-0.78125v27.281h-1.40625v27.312h-0.3125v-81.875h-0.8125v54.562h-1.0625v-27.281h-0.8125v54.594h-0.28125v-25.719h-0.3125v-1.5938h-1.28125v27.312h-0.7499v-27.312h-0.8125v27.312h-0.93745v16.312h-0.15625v2.5625h-0.125v-46.188h-0.8125v27.312h-0.3125v-27.312h-0.78125v27.312h-1.09375v-27.312h-0.78125v27.312h-2.34375v-27.312h-0.8125v27.312h-0.28125v-27.312h-1.5937v27.312h-0.125v-27.312h-0.96875v27.312h-0.125v-54.594h-0.8125v54.594h-2.3121v-3.1875h-0.1875v-24.125h-0.9375v-54.562h-1.40625v27.281h-0.3125v27.281h-1.40625v27.312h-0.15625v-27.312h-1.25v27.312h-1.7499v16.312h-0.125v-16.312h-1.7186v-27.312h-0.8125v27.312h-0.2812v-9.1875h-0.625v-18.125h-1.125v27.312h-0.62495v-27.312h-0.78125v27.312h-1.25v16.312h-0.78125v-16.312h-0.15625v-27.312h-0.78125v27.312h-0.625v-27.312h-0.78125v27.312h-0.625v-3.25h-0.8125v3.25h-1.87485v16.312h-0.125v-18.75h-0.15625v-24.875h-0.96875v27.312h-0.2812v-27.312h-0.15625v-27.281h-0.8125v27.281h-0.15625v27.312h-3.7497v5.375h-0.3125v-5.375h-3.4375v16.312h-0.15625v-11.125h-0.15625v-5.1875h-0.96875v5.375h-0.15625v10.938h-1.25v10.969h-0.2812v-21.906h-0.46875v-5.375h-1.5937v16.312h-0.90625v-5.5625h-0.46875v-10.75h-0.8125v16.312h-0.15625v10.969h-0.78125v-10.969h-2.96875v10.969h-0.3125v-10.969h-0.78125v10.969h-0.46875v-10.969h-1.4061v-16.312h-0.8125v16.312h-0.28125v-0.4375h-0.15625v-43.188h-0.8125v27.312h-1.8748v16.312h-0.15625v10.969h-0.4374v-10.969h-0.625v-16.312h-0.3125v-27.312h-0.8125v27.312h-0.625v-16.125h-0.15625v-11.188h-1.5625v27.312h-0.46875v-27.312h-0.78125v27.312h-0.9375v-35.188h-0.8125v7.875h-0.9375v27.312h-3.4057v-27.312h-1.4375v27.312h-0.125v-54.594h-0.8125v27.281h-1.40625v27.312h-0.46875v-27.312h-0.46875v-27.281h-0.78125v27.281h-0.9375v-54.562h-0.78125v54.562h-0.625v-27.281h-1.4375v27.281h-0.59375v-27.281h-0.8125v27.281h-2.4998v27.312h-0.74985v-27.312h-0.46875v-27.281h-0.8125v47.875h-0.3125v-20.594h-0.78125v27.312h-2.1875v-20.688h-0.3125v-6.625h-2.8125v-54.562h-0.8125v54.562h-0.3125v27.312h-0.125v-27.312h-1.125v27.312h-0.93745v5.375h-0.28125v-0.375h-0.3125v-5.0h-4.71865v16.312h-0.3125v-3.25h-0.625v-13.062h-3.125v-27.312h-0.8125v27.312h-1.37485v-27.312h-0.8125v43.625h-0.4375v-16.312h-1.125v16.312h-0.4375v-10.938h-0.8125v10.938h-0.625v10.969h-0.125v-10.969h-0.8125v-16.094h-0.78125v9.6875h-0.625v6.4062h-2.96875v10.969h-0.46875v-7.7188h-0.3125v-19.344h-0.15625v-27.062h-0.8125v43.156h-1.375v-16.094h-0.8125v9.5938h-0.625v6.5h-5.46855v10.969h-0.15625v-10.969h-3.43745v-10.938h-0.8125v10.938h-1.37495v-10.938h-0.8125v10.938h-0.4375v-2.7812h-0.15625v-13.531h-0.8125v11.875h-0.3125v14.531h-0.125v-4.9375h-0.15625v-20.688h-0.8125v11.094h-0.3125v14.531h-0.4375v-4.9375h-0.15625v-20.688h-0.8125v11.25h-0.3125v0.375h-0.46875v14.0h-0.625v-4.9375h-0.15625v-20.688h-1.40625v11.25h-0.15625v0.375h-0.3125v14.0h-0.78125v-4.9375h-0.15625v-20.688h-1.4375v15.531h-0.28125v-5.9062h-0.15625v-10.406h-0.15625v-27.312h-0.8125v27.312h-0.5936v-27.312h-0.8125v27.312h-0.90615v-27.312h-0.8125v27.312h-0.4375v-27.312h-0.8125v27.312h-0.78125v-81.875h-0.78125v54.562h-0.15625v27.312h-0.3125v16.312h-0.15625v-16.312h-0.3125v-27.312h-0.78125v27.312h-0.46875v-27.312h-1.09375v27.312h-0.3125v-27.312h-1.40625v27.312h-1.4374v16.312h-0.78125v10.75h-0.28125v-27.062h-1.125v6.75h-0.125v-1.1562h-0.15625v-32.438h-0.3125v-81.219h-0.8125v87.438h-0.15625v20.844h-0.15625v11.625h-0.125v-11.625h-0.93745v-54.125h-0.8125v27.062h-0.15625v27.062h-0.15625v16.094h-0.625v-9.25h-0.15625v-7.0625h-1.25v-27.312h-0.9375v27.312h-0.46875v-27.312h-1.09375v27.312h-0.15625v-27.312h-0.8125v43.625h-0.75v-16.312h-0.8125v10.469h-0.125v-10.469h-2.68735v16.312h-0.15625v10.75h-0.28125v-27.062h-1.0937v-12.562h-0.8125v12.562h-0.3125v16.312h-0.46875v10.969h-0.9375v-23.344h-0.15625v-3.9375h-0.78125v16.312h-0.625v-16.312h-0.46875v-5.625h-0.78125v5.625h-0.15625v10.75h-0.15625v-10.75h-0.78125v-26.906h-0.8125v0.0625h-0.9375v8.625h-0.15625v18.438h-0.15625v16.094h-0.59375v-85.688h-0.8125v42.531h-0.4375v-19.312h-0.625v-7.75h-0.8125v30.906h-0.3125v23.0h-0.75v-34.531h-0.78125v-46.469h-0.8125v54.156h-0.15625v-27.062h-0.78125v54.125h-0.46875v16.094h-0.625v-58.594h-0.78125v15.438h-0.3125v-27.062h-0.78125v54.125h-0.625v-27.062h-0.96875v3.8438h-0.15625v23.219h-0.15625v23.875h-0.125v-132.16h-0.8125v54.156h-0.46875v27.062h-0.125v-27.062h-0.8125v27.062h-0.15625v17.125h-0.28125v-17.125h-1.7187v-0.90625h-0.46875v-53.25h-0.8125v81.219h-0.625v-41.438h-0.78125v41.438h-0.15625v-81.219h-0.78125v54.156h-0.625v-27.062h-0.78125v27.062h-0.78125v27.062h-0.46875v-81.219h-0.8125v54.156h-1.40625v27.062h-0.125v-32.906h-0.625v-21.219h-0.8125v23.625h-0.4375v-23.625h-0.8125v27.062h-0.15625v27.062h-0.75v-27.062h-0.3125v-27.062h-0.8125v27.062h-0.15625v6.2188h-0.15625v20.844h-0.15625v11.625h-0.125v-38.688h-0.5v-54.156h-0.78125v54.156h-0.15625v27.062h-1.25v-54.125h-0.78125v54.125h-0.15625v-27.062h-0.78125v6.2188h-0.3125v-33.281h-0.78125v54.125h-0.3125v27.062h-0.15625v-108.28h-0.8125v54.156h-0.3125v27.062h-0.125v-27.062h-0.96875v27.062h-0.46875v27.062h-0.5936v-15.438h-0.15625v-38.688h-0.78125v-54.156h-1.5937v60.375h-0.3125v20.844h-0.15625v17.0h-0.125v-17.0h-0.15625v-54.125h-0.8125v27.062h-0.78125v-27.062h-0.78125v54.125h-0.3125v-27.062h-0.46875v-27.062h-0.78125v27.062h-0.15625v3.8438h-0.15625v23.219h-0.15625v6.5312h-0.46875v9.5625h-0.3125v10.969h-0.15625v-2.8438h-0.15625v-24.219h-0.3125v-27.062h-1.87495v-54.156h-0.8125v81.219h-0.46875v11.625h-0.125v-11.625h-0.15625v-27.062h-1.7187v-54.156h-0.8125v60.375h-0.3125v1.5312h-0.59375v-7.75h-0.96875v3.8438h-0.15625v23.219h-0.625v16.094h-0.9375v6.5h-0.3125v-22.594h-0.15625v-27.062h-0.9375v27.062h-0.15625v16.094h-0.78125v-23.125h-0.625v-20.031h-1.28125v27.062h-0.2812v-81.219h-0.8125v60.375h-0.15625v20.844h-0.15625v27.062h-0.906v-15.438h-0.15625v-11.625h-0.625v-54.125h-0.8125v27.062h-0.15625v27.062h-0.3125v16.094h-0.78125v4.875h-0.125v-20.969h-0.15625v-27.062h-0.96875v27.062h-0.28125v-27.062h-0.8125v27.062h-0.15625v-5.4062h-0.46875v-75.812h-0.78125v54.156h-0.15625v27.062h-0.3125v-81.219h-0.78125v54.156h-1.71875v27.062h-0.15625v16.094h-0.8125v10.969h-0.125v-31.031h-0.625v-23.094h-0.78125v-54.156h-2.2187v81.219h-0.125v-54.125h-0.8125v33.281h-0.15625v10.781h-0.125v-17.0h-0.15625v-81.219h-0.8125v54.156h-0.78125v27.062h-0.15625v6.2188h-0.15625v20.844h-0.15625v-27.062h-0.46875v-54.156h-0.78125v81.219h-0.46875v16.094h-0.15625v10.969h-0.15625v-8.625h-0.15625v-99.656h-0.78125v27.094h-1.09375v33.281h-0.3125v-16.281h-0.8125v10.062h-1.0625v-54.156h-0.8125v60.375h-0.3125v10.781h-0.59375v-17.0h-0.15625v-54.156h-0.8125v54.156h-0.28125v-81.219h-0.8125v87.438h-0.15625v20.844h-0.125v-54.125h-0.8125v27.062h-0.46875v27.062h-0.125v-27.062h-0.3125v-27.062h-0.8125v27.062h-0.15625v6.2188h-0.15625v-6.2188h-0.78125v-27.062h-0.78125v54.125h-0.3125v-54.125h-0.78125v33.281h-0.15625v20.844h-0.15625v-54.125h-0.78125v27.062h-0.46875v5.375h-0.46875v-59.531h-0.8125v54.156h-0.75v-27.062h-1.4375v27.062h-0.15625v6.2188h-0.3125v20.844h-0.125v-27.062h-0.78125v-54.156h-0.625v-27.062h-0.8125v65.781h-0.625v15.438h-0.125v-27.062h-0.8125v5.375h-0.15625v-32.469h-0.78125v60.375h-0.15625v-6.2188h-0.46875v-81.219h-0.78125v54.156h-0.15625v-54.156h-0.78125v71.156h-0.78125v37.125h-0.46875v-27.062h-0.78125v27.062h-0.15625v-81.219h-0.8125v54.156h-0.28125v-81.219h-0.8125v81.219h-1.4062v6.2188h-0.15625v20.844h-0.125v-27.062h-0.625v-27.062h-0.8125v27.062h-0.93745v27.062h-0.78115v-27.062h-0.78125v27.062h-1.71875v-27.062h-0.78125v27.062h-0.625v-27.062h-0.15625v-81.219h-0.78125v81.219h-0.3125v27.062h-0.15625v-81.219h-0.78125v54.156h-0.46875v-27.062h-0.8125v27.062h-0.4375v-81.219h-0.8125v87.438h-0.125v-6.2188h-0.46875v-27.062h-0.8125v27.062h-0.46875v27.062h-1.2185v-10.062h-0.46875v-17.0h-1.4375v27.062h-0.3125v-27.062h-3.125v27.062h-0.3125v-20.844h-0.78125v20.844h-0.15625v-81.219h-0.8125v54.156h-0.59375v-27.062h-0.8125v17.0h-0.59375v-71.156h-0.8125v81.219h-0.125v-54.156h-0.8125v44.094h-0.78125v37.125h-0.125v-27.062h-1.09375v-81.219h-0.8125v87.438h-0.15625v10.781h-0.78125v-71.156h-0.78125v54.156h-0.46875v27.062h-0.3125v-81.219h-0.78125v54.156h-0.3125v-27.062h-0.9375v54.125h-0.78125v-27.062h-0.625v-54.156h-0.8125v54.156h-0.3125v27.062h-0.15625v16.094h-0.125v-3.0625h-0.3125v-13.031h-0.3125v-27.062h-0.8125v27.062h-0.78125v16.094h-1.8437v-16.094h-0.8125v16.094h-0.28125v-7.9375h-0.3125v-8.1562h-0.1875v-27.062h-0.78125v27.062h-0.78125v16.094h-0.3125v7.9375h-0.15625v-24.031h-0.78125v16.094h-0.15625v-7.9375h-0.3125v-8.1562h-1.25v16.094h-2.18735v-16.094h-1.5937v16.094h-0.125v-7.9375h-0.3125v-35.219h-0.8125v27.062h-0.3125v16.094h-1.8749v7.9375h-0.125v-24.031h-0.8125v16.094h-0.15625v-7.9375h-0.3125v-35.219h-0.78125v27.062h-0.3125v16.094h-0.78125v6.5625h-0.15625v-22.656h-0.78125v16.094h-0.15625v-22.156h-0.78125v6.0625h-0.9375v16.094h-2.6874v10.969h-1.2184v-32.875h-0.8125v5.8125h-0.78125v6.5312h-0.46875v9.5625h-0.125v-16.094h-0.15625v-16.781h-0.8125v16.781h-0.15625v13.062h-0.125v-13.062h-0.8125v16.094h-0.15625v-16.094h-0.15625v-3.0312h-0.78125v3.0312h-0.78125v-3.0312h-0.78125v3.0312h-0.3125v5.1562h-0.625v10.938h-0.15625v10.969h-1.25v-41.062h-0.3125v-11.219h-1.09375v-1.8438h-1.24995v-14.844h-0.8125v7.7188h-0.15625v20.188h-0.125v-27.312h-0.8125v41.312h-0.28125v-54.125h-1.28125v36.5h-0.28125v-9.4375h-0.8125v1.8438h-0.15625v-1.8438h-0.78125v4.875h-0.625v18.0h-0.46875v-18.875h-0.78125v7.4375h-0.46875v15.625h-0.15625v5.1562h-0.46875v10.938h-0.78125v10.969h-0.15625v-5.8125h-0.15625v-21.25h-0.78125v16.094h-0.62495v-10.938h-0.46875v-27.812h-0.8125v18.469h-0.46875v4.1875h-0.28125v-15.625h-0.8125v9.5625h-0.625v6.0625h-0.15625v16.094h-0.59375v-10.938h-1.5937v10.938h-0.625v-22.156h-0.46875v-11.562h-0.3125v-16.562h-0.78125v12.0h-0.625v-3.0312h-0.3125v-19.469h-0.78125v19.469h-0.625v-1.8438h-0.15625v-14.844h-0.78125v16.688h-0.78125v25.219h-0.15625v-22.188h-0.8125v14.531h-0.125v-17.562h-1.40625v-8.9688h-0.8125v8.9688h-1.25v12.625h-0.3125v20.594h-0.125v-35.062h-0.8125v27.062h-0.125v-58.312h-0.8125v35.25h-0.15625v7.4375h-0.3125v15.625h-0.15625v16.094h-1.09375v-9.5625h-0.15625v-31.75h-0.78125v9.5938h-0.3125v-2.0h-0.3125v-16.562h-0.78125v8.9688h-0.46875v-8.9688h-0.78125v8.9688h-0.15625v-1.375h-0.78125v-0.46875h-0.8125v1.8438h-0.46875v9.5938h-0.3125v15.625h-0.28125v-14.656h-0.46875v-12.406h-0.8125v27.062h-0.43745v-25.219h-0.78125v-8.9688h-0.8125v8.9688h-0.625v7.5938h-0.28125v-5.5938h-0.3125v-9.125h-0.15625v-1.8438h-0.8125v34.188h-0.46875v-54.125h-0.78125v27.062h-0.46875v-81.875h-0.78125v81.875h-0.3125v-54.812h-0.78125v27.75h-0.3125v26.375h-0.46875v0.6875h-0.15625v3.0312h-0.65625v8.4062h-0.625v15.625h-0.15625v16.094h-0.59375v-13.812h-0.3125v-2.2812h-0.3125v-4.6875h-0.8125v4.6875h-0.15625v16.094h-0.125v-34.938h-0.15625v-8.2188h-0.9375v-54.156h-1.5937v27.094h-1.21875v-0.6875h-0.8125v27.75h-0.3125v-0.6875h-0.78125v0.6875h-0.15625v4.875h-0.78125v-1.375h-0.78125v-1.6562h-0.78125v11.219h-0.3125v14.0h-0.3125v-25.219h-1.40625v-1.8438h-0.15625v-0.125h-0.8125v0.125h-1.09375v1.8438h-1.2187v-1.8438h-0.8125v13.062h-0.59375v-13.062h-0.8125v1.8438h-1.09375v25.219h-0.15625v-27.062h-0.78125v1.8438h-0.3125v25.219h-0.15625v-17.625h-0.46875v-9.4375h-0.78125v1.8438h-0.15625v-6.5312h-0.78125v31.75h-0.15625v-34.188h-0.78125v8.9688h-0.46875v-8.9688h-0.3125v-7.7188h-0.8125v14.844h-0.28125v-7.125h-0.8125v7.125h-0.78125v11.438h-0.15625v15.625h-0.15625v16.094h-0.125v-19.719h-0.15625v-3.5h-0.625v-18.094h-0.8125v9.5938h-0.46875v15.625h-0.15625v16.094h-0.15625v6.5938h-0.125v-39.438h-0.8125v10.75h-0.125v-21.062h-1.125v5.1562h-0.15625v6.2812h-0.625v15.625h-0.15625v16.094h-0.15625v-16.094h-0.78125v11.688h-0.15625v-11.688h-0.78125v16.094h-0.9375v-16.094h-1.71875v-15.625h-0.8125v15.625h-0.125v-15.625h-0.8125v15.625h-0.125v-15.625h-0.3125v-25.688h-0.8125v41.312h-0.28125v-27.062h-0.78125v-4.1875h-0.8125v15.625h-0.78125v15.625h-0.15625v16.094h-0.125v-3.0312h-0.15625v-13.062h-0.8125v16.094h-0.46875v-16.094h-0.46875v-6.0625h-1.09375v-16.125h-0.78125v27.344h-0.78125v10.938h-4.21875v-16.094h-0.8125v9.6875h-0.625v6.4062h-5.78125v-30.344h-0.78125v14.25h-0.15625v-0.21875h-0.9375v16.312h-0.9375v-43.156h-0.8125v43.156h-1.40625v5.3125h-0.4375v-21.406h-0.78125v-0.21875h-0.8125v21.312h-0.3125v1.2812h-0.28125v-22.375h-0.8125v9.4688h-0.625v0.21875h-0.625v17.375h-0.125v-10.969h-1.75v10.969h-0.15625v-33.125h-0.3125v-9.5625h-0.3125v-9.5938h-0.78125v9.5938h-0.3125v15.625h-0.3125v-4.1875h-0.78125v4.1875h-0.3125v-15.625h-0.78125v15.625h-0.15625v16.094h-0.3125v-3.0312h-0.15625v-13.062h-0.15625v-15.625h-0.78125v-9.5938h-1.09375v-6.5312h-0.8125v6.5312h-0.75v-1.375h-0.3125v-0.59375h-0.46875v-7.0h-0.8125v7.5938h-0.3125v1.375h-0.90625v-8.9688h-0.8125v15.438h-0.15625v-66.656h-0.78125v12.188h-0.3125v14.906h-0.625v35.25h-0.15625v7.4375h-0.15625v-16.125h-0.15625v-1.9688h-0.15625v-16.562h-0.78125v28.094h-0.15625v-19.844h-0.78125v8.9688h-0.78125v6.0h-0.625v19.594h-0.625v-9.0625h-0.3125v-10.531h-0.78125v-16.531h-0.8125v43.594h-0.125v-57.156h-0.8125v41.531h-0.59375v-6.5625h-0.46875v-3.0312h-0.8125v25.219h-0.125v-25.219h-1.59375v-1.8438h-0.78125v1.8438h-0.46875v20.531h-0.78125v-18.312h-0.3125v-58.219h-0.625v-16.719h-0.78125v48.438h-0.3125v22.438h-0.3125v-43.812h-0.78125v43.812h-0.625v5.1562h-0.1875v21.906h-0.28125v-17.5h-0.15625v-5.5625h-0.8125v7.4375h-1.0625v-11.438h-0.8125v1.8438h-0.28125v-1.8438h-0.8125v4.875h-0.125v-4.875h-0.3125v-27.062h-0.8125v27.062h-0.28125v-27.062h-0.8125v10.312h-0.15625v-16.844h-0.78125v38.75h-0.15625v5.125h-0.3125v16.781h-0.15625v3.5h-0.15625v-3.5h-0.15625v-52.281h-0.78125v7.5938h-0.78125v19.469h-0.46875v-1.8438h-0.46875v-4.6875h-0.78125v4.6875h-1.4375v8.375h-0.125v-54.531h-0.8125v46.156h-0.15625v4.0h-0.125v-4.0h-1.28125v32.219h-0.46875v10.938h-0.125v-31.719h-0.8125v15.625h-0.15625v16.094h-0.28125v-16.094h-0.8125v10.312h-0.125v-10.312h-0.15625v-15.625h-1.59375v12.594h-0.625v3.0312h-1.5625v16.094h-0.3125v-3.0312h-0.15625v-13.062h-0.78125v16.094h-0.3125v10.969h-0.15625v-3.5312h-0.15625v-23.531h-0.625v-4.1875h-0.15625v-22.875h-0.8125v4.0h-0.15625v7.4375h-0.3125v15.625h-0.15625v13.062h-0.125v-13.062h-1.59375v16.094h-1.375v-16.094h-1.59375v16.094h-5.15625v-2.125h-0.15625v-9.9688h-0.15625v-4.0h-2.21875v16.094h-2.9375v-4.6562h-0.15625v-11.438h-0.78125v-6.0625h-0.8125v6.0625h-0.15625v16.094h-0.9375v10.969h-0.3125v10.938h2.53125v-10.938h0.125v10.938h0.46875v16.125h0.8125v-16.125h3.4375v-10.938h0.625v10.938h3.125v16.125h0.78125v-16.125h2.0625v-10.938h0.125v10.938h4.875v-10.938h0.4375v10.938h0.15625v16.125h1.75v-16.125h0.3125v16.125h0.78125v-13.094h0.15625v-3.0312h0.3125v16.125h0.78125v-16.125h0.15625v10.969h1.25v-10.969h0.78125v-10.938h0.15625v10.938h0.15625v16.125h0.8125v-14.469h0.15625v-1.6562h1.0625v16.125h0.8125v-10.312h0.15625v-5.8125h0.625v-10.938h1.21875v10.938h0.8125v-10.938h1.09375v10.938h0.78125v-10.938h0.15625v10.938h0.78125v-10.938h1.5625v27.062h0.9375v-15.469h0.15625v-11.594h1.875v10.938h0.8125v-10.938h0.4375v10.938h0.8125v-10.938h0.4375v10.938h0.8125v-10.938h3.4375v10.938h0.78125v-10.938h0.78125v21.906h0.78125v-21.906h0.78125v10.938h0.78125v-10.938h2.1875v21.906h0.8125v-21.906h0.59375v10.938h0.8125v-10.938h0.4375v10.938h0.8125v-10.938h1.21875v10.938h0.8125v-10.938h1.40625v10.938h1.5625v-10.938h0.3125v10.938h0.78125v-10.938h0.3125v10.938h0.78125v-10.938h0.46875v10.938h1.4375v-10.938h1.21875v10.938h0.8125v-10.938h1.53125v10.938h0.8125v-10.938h0.75v10.938h1.09375v16.125h0.8125v-16.125h0.78125v-10.938h0.3125v21.906h0.78125v-21.906h1.25v10.938h2.84375v-7.25h1.375v1.7812h0.8125v-3.0h0.59375v3.0h0.3125v5.4688h0.8125v-5.4688h0.4375v5.4688h5.96875v9.5938h0.78125v-9.5938h4.71875v-7.25h0.4375v1.7812h0.625v5.4688h3.15625v16.125h0.78125v-16.125h1.875v-10.938h0.9375v10.938h0.15625v9.5938h0.78125v-9.5938h0.62495v9.5938h0.8125v-20.531h0.7498v10.938h0.15625v16.125h0.8125v-3.5h0.78125v-12.625h0.15625v-10.938h0.2812v10.938h0.9375v16.125h0.96875v-10.062h0.15625v-6.0625h0.28125v10.969h0.8125v-10.969h0.625v16.125h0.78125v-10.312h0.15625v-5.8125h0.78125v16.125h0.78125v-10.312h0.3125v10.312h0.78125v-4.9062h0.15625v-22.156h1.8748v10.938h0.3125v16.125h0.8125v-3.5h0.125v3.5h2.06245v-11.062h0.3125v-5.0625h0.15625v-10.938h1.2184v10.938h0.8125v-10.938h1.5625v21.906h0.78125v-21.906h1.875v10.938h0.78125v-10.938h2.9682v21.906h0.8125v-21.906h0.7498v10.938h0.46875v16.125h0.8125v-27.062h2.3432v27.062h0.78125v-27.062h1.09375v27.062h0.78125v-27.062h0.3125v14.625h0.78125v-14.625h0.15625v10.938h0.78125v-10.938h0.9375v10.938h0.8125v-10.938h1.0622v10.938h0.8125v-10.938h0.5936v27.062h0.8125v-21.281h0.28125v5.1562h0.78125v16.125h1.7499v-1.875h0.625v-25.188h0.46875v10.938h1.5625v-10.938h0.3125v10.938h0.78125v-10.938h0.9375v21.906h0.78125v-21.906h2.6555v21.906h0.8125v-21.906h1.2184v21.906h0.8125v-21.906h0.5936v10.938h0.8125v-10.938h3.4373v21.906h0.78125v-10.969h2.21875v-10.938h0.4375v10.938h0.8125v-10.938h0.125v10.938h1.28125v-10.938h1.3746v10.938h0.8125v-10.938h1.687v10.938h1.4375v-10.938h1.875v10.938h0.78125v-10.938h0.78125v10.938h0.625v16.125h1.75v-5.1562h0.46875v-10.969h0.90615v16.125h0.8125v-13.094h0.46875v-3.0312h0.625v-10.938h0.2812v21.906h0.8125v-10.969h0.75v16.125h0.8125v-16.125h0.15625v16.125h1.875v-16.125h1.40625v-10.938h0.78125v10.938h0.78125v-10.938h0.15625v10.938h0.8125v-10.938h1.8432v10.938h0.8125v-10.938h0.906v10.938h0.8125v-10.938h1.8432v27.062h2.375v-21.281h0.15625v5.1562h0.625v16.125h0.9375v-26.438h0.15625v21.281h0.78125v-21.906h0.15625v10.938h1.09375v9.5938h0.8125v-20.531h0.125v10.938h0.8125v-10.938h0.5936v10.938h0.15625v9.5938h0.8125v-9.5938h0.125v16.125h1.28125v-16.125h3.12475v-10.938h0.15625v10.938h0.9375v9.5938h0.78125v-9.5938h2.5v9.5938h1.5937v-9.5938h2.93725v9.5938h1.5937v-20.531h0.125v10.938h2.6874v-10.938h0.3125v10.938h0.78125v9.5938h0.78125v6.5312h0.78125v-3.5h0.15625v-12.625h4.06235v9.5938h0.8125v-9.5938h0.3125v-10.938h0.906v10.938h0.3125v16.125h0.96875v-15.469h0.15625v-0.65625h0.28125v16.125h0.8125v-16.125h1.40625v-10.938h1.40625v10.938h0.46875v16.125h0.78125v-27.062h0.3125v27.062h1.5625v-21.281h0.15625v-5.7812h0.15625v10.938h0.8125v-10.938h0.906v10.938h1.5937v-10.938h0.7498v10.938h0.8125v-10.938h0.7498v10.938h0.8125v-10.938h0.3125v10.938h0.78125v-10.938h0.9375v10.938h0.78125v-10.938h0.625v10.938h0.78125v-10.938h0.15625v10.938h0.78125v-10.938h0.46875v21.906h0.8125v-21.906h0.5936v10.938h0.8125v-10.938h1.0622v10.938h1.5937v-10.938h1.2184v10.938h0.8125v-10.938h0.46875v10.938h0.78125v-10.938h0.46875v10.938h0.78125v-10.938h0.625v10.938h0.3125v16.125h0.78125v-27.062h0.625v16.75h0.78125v-16.75h0.46875v27.062h0.8125v-21.281h0.15625v-5.7812h1.2184v10.938h0.8125v-10.938h0.125v10.938h0.8125v-10.938h0.7498v10.938h0.8125v-10.938h0.125v10.938h0.8125v-10.938h2.0312v10.938h1.5625v-10.938h0.78125v10.938h0.9375v16.125h0.78125v-27.062h0.3125v23.562h0.8125v-12.625h0.625v-10.938h0.125v10.938h0.8125v-10.938h0.4374v10.938h0.15625v10.969h0.8125v-10.969h0.625v-10.938h0.5936v10.938h0.8125v-10.938h1.0623v10.938h0.8125v-10.938h0.78125v10.938h0.78125v-10.938h0.15625v10.938h0.78125v-10.938h1.09375v10.938h0.78125v-10.938h0.3125v10.938h0.8125v-10.938h0.5936v10.938h1.28125v-10.938h1.0622v10.938h0.15625v16.125h1.28125v-16.125h0.3125v-10.938h1.3746v10.938h1.59375v-10.938h0.78125v10.938h0.46875v16.125h0.9375v-5.9062h0.15625v-10.219h0.3125v-10.938h0.78125v10.938h0.15625v16.125h0.78125v-13.094h0.1875v-13.969h0.906v10.938h1.28125v-10.938h0.906v10.938h0.8125v-10.938h1.5308v10.938h0.3125v16.125h1.125v-11.062h0.15625v-5.0625h0.46875v-10.938h0.46875v10.938h1.5625v-10.938h0.625v10.938h0.78125v-10.938h0.15625v10.938h0.15625v16.125h0.78125v-21.281h0.15625v5.1562h0.9375v-10.938h0.4687v10.938h1.90615v-10.938h0.906v10.938h0.15625v16.125h1.9061v-20.625h0.125v4.5h0.8125v-10.938h0.78115v10.938h2.5v16.125h1.25v-16.125h1.09375v-10.938h0.78125v10.938h2.9999v-10.938h0.5936v21.906h0.15625v5.1562h0.8125v-16.125h0.3125v-10.938h1.0622v10.938h0.15625v16.125h0.96875v-27.062h0.15625v14.25h0.3125v12.812h0.9375v-5.1562h0.78125v-21.906h0.15625v10.938h1.40625v-10.938h0.3125v10.938h0.78125v-10.938h0.9375v10.938h2.06245v-10.938h0.2812v21.906h0.625v5.1562h1.75v-21.281h0.15625v-5.7812h1.0622v10.938h0.3125v16.125h1.4375v-2.3438h0.78125v-24.719h0.15625v10.938h0.78125v-10.938h0.9375v10.938h0.46875v10.969h0.78125v-10.969h0.15625v-10.938h0.46875v10.938h0.15625v16.125h0.8125v-3.5h0.3125v-12.625h0.15625v-10.938h0.4374v10.938h0.15625v16.125h0.96875v-18.25h0.4375v2.125h0.8125v-10.938h0.4374v10.938h0.8125v-10.938h1.0622v10.938h0.5v16.125h0.78125v-27.062h0.3125v5.7812h0.78125v-5.7812h0.9375v10.938h0.15625v16.125h0.78125v-14.469h0.46875v-1.6562h0.46875v16.125h0.78125v-11.688h0.5v-4.4375h0.3125v-10.938h1.3746v10.938h0.8125v-10.938h0.5936v10.938h1.5937v-10.938h0.7498v10.938h1.28125v-10.938h0.125v10.938h0.8125v-10.938h0.46875v10.938h0.15625v16.125h0.9375v-4.5312h0.78125v-0.625h0.625v-10.969h0.46875v-10.938h1.09375v10.938h0.8125v-10.938h0.74985v10.938h0.8125v-10.938h0.2812v10.938h1.28125v-10.938h0.4374v10.938h0.625v16.344h0.8125v-16.344h0.46875v-10.938h0.125v10.938h2.68745v-10.938h0.3125v10.938h1.875v16.344h0.9375v-16.344h0.96875v-10.938h0.4375v10.938h0.3125v16.344h0.8125v-10.75h0.125v5.375h0.8125v-10.969h0.74995v16.344h0.8125v-23.094h0.15625v-4.1875h0.4374v21.906h0.8125v-10.969h0.28125v16.344h0.8125v-5.375h0.78125v-21.906h0.15625v10.938h0.78125v-10.938h2.8125v10.938h1.71875v-10.938h0.625v10.938h0.46875v16.344h0.8125v-16.344h0.3125v-8.125h0.15625v-2.8125h0.2812v10.938h1.56245v16.344h1.125v-24.281h0.125v7.9375h0.8125v-10.938h0.125v10.938h0.8125v-10.938h0.78125v10.938h0.78125v-10.938h1.09375v10.938h0.78125v-10.938h0.3125v10.938h1.09375v-10.938h0.46875v10.938h0.8125v-10.938h0.125v10.938h0.8125v-10.938h0.2812v21.906h0.8125v-21.906h0.4374v10.938h0.8125v-10.938h1.8432v10.938h1.28125v-8.3125h0.9375v-0.0312h0.15625v3.1875h0.46875v0.375h0.78125v-3.5312h1.40625v-0.0312h0.15625v3.1875h0.46875v0.375h0.78125v-3.5312h0.15625v8.3125h0.78125v9.5938h0.8125v-9.5938h0.625v-8.3125h0.3125v-0.0312h0.125v3.7188h0.8125v-3.75h0.125v8.375h0.15625v16.344h0.8125v-14.906h0.15625v-1.4375h0.5937v16.125h0.8125v-14.469h0.15625v-1.6562h1.0937v16.344h0.78125v-16.344h0.78125v16.344h0.78125v-16.344h7.37475v-7.25h0.59375v1.7812h0.625v5.4688h1.74995v-8.375h0.9375v8.375h3.90625v-7.25h0.3125v1.7812h0.625v5.4688h3.43735v10.969h0.8125v-10.969h0.9062v16.344h0.8125v-21.719h0.46875v-5.5625h0.5936v10.938h0.8125v-10.938h0.15625v27.281h1.25v-27.094h0.46875v27.094h1.40625v-16.344h0.625v-10.938h0.46875v10.938h1.40625v16.344h2.84365v-16.344h0.46875v-10.938h2.3118v10.938h0.8125v-10.938h0.625v10.938h0.78125v-10.938h1.40625v10.938h0.78125v-10.938h0.46875v10.938h0.78125v-10.938h0.625v10.938h0.8125v-10.938h0.125v10.938h0.8125v-10.938h0.906v10.938h0.8125v-10.938h1.2184v10.938h0.8125v-10.938h0.5936v10.938h0.8125v-10.938h0.7812v27.281h0.78125v-10.75h0.15625v-16.531h0.9375v21.906h0.78125v-21.906h0.9375v10.938h0.78125v-10.938h0.9375v10.938h0.15625v16.344h1.5937v-27.281h0.125v27.281h0.8125v-15.969h0.46875v-11.312h0.125v27.281h0.8125v-27.281h0.2812v5.5625h0.8125v-5.5625h1.3746v10.938h0.15625v16.344h0.8125v-10.75h0.78125v-5.5938h1.40625v-10.938h1.71875v10.938h0.15625v16.344h0.78125v-24.469h0.65625v-2.8125h0.7498v10.938h0.15625v16.344h1.125v-16.344h0.46875v-10.938h0.7498v10.938h0.8125v-10.938h0.125v27.281h0.96875v-18.906h0.15625v-8.375h1.3746v10.938h0.46875v16.344h0.8125v-5.3438h0.15625v-11.0h0.15625v16.344h0.78125v-5.3438h0.15625v-11.0h3.75v16.344h1.4375v-5.375h0.46875v-10.969h0.4375v16.344h1.125v-5.375h0.59375v5.375h1.4375v-5.375h0.78125v-21.906h0.2812v10.938h1.125v-10.938h0.46875v10.938h0.78125v-10.938h0.15625v20.531h0.78125v-20.531h0.15625v10.938h0.3125v9.5938h0.78125v1.375h0.78125v-21.906h0.15625v27.281h1.125v-16.156h0.15625v-11.125h0.7498v21.906h0.8125v-21.906h0.4374v10.938h0.15625v16.344h0.96875v-16.156h0.78125v-0.1875h0.74995v16.344h0.8125v-27.281h0.4374v15.125h0.8125v-15.125h0.78125v10.938h0.625v16.344h0.9375v-9.3438h0.625v9.3438h1.09375v-16.344h0.78125v-10.938h0.3125v10.938h0.8125v-10.938h0.906v21.906h0.78125v5.375h0.96875v-27.281h0.125v27.281h0.8125v-18.875h0.28125v2.5312h0.625v16.344h0.8125v-14.906h0.15625v-12.375h0.78105v10.938h0.78125v-10.938h2.34375v10.938h0.78125v-10.938h0.46875v27.281h0.78125v-21.719h0.3125v16.344h0.8125v-21.906h1.8432v10.938h0.625v16.344h0.8125v-27.281h0.125v5.5625h0.8125v-5.5625h1.687v10.938h0.8125v10.969h0.78125v-21.906h0.46875v10.938h0.78125v-10.938h0.15625v10.938h0.78125v-10.938h1.09375v10.938h0.78125v-10.938h0.9375v10.938h0.15625v16.344h0.96875v-17.531h0.15625v-9.75h1.687v10.938h0.8125v-10.938h0.4374v21.906h0.8125v-21.906h1.0622v10.938h0.8125v-10.938h0.78115v10.938h0.78125v-10.938h1.40625v10.938h0.3125v16.344h0.78125v-12.156h0.15625v5.4062h0.78125v-20.531h0.93745v10.938h0.3125v10.969h0.8125v-21.906h1.2184v10.938h0.625v16.344h0.96875v-27.281h0.125v0.1875h0.8125v-0.1875h1.0622v10.938h1.28125v-10.938h0.15625v10.938h0.78125v-10.938h0.15625v27.281h1.09375v-27.094h0.625v-0.1875h0.9375v21.906h0.78125v-21.906h0.9374v10.938h0.8125v-10.938h0.125v27.281h1.125v-27.094h0.46875v-0.1875h0.7498v10.938h0.8125v-10.938h0.7498v10.938h0.8125v-10.938h0.7498v10.938h0.8125v-10.938h1.40625v10.938h0.78125v-10.938h0.15625v27.281h1.25v-27.094h0.15625v10.75h0.3125v16.344h2.06245v-16.344h0.46875v-10.938h0.5936v21.906h0.3125v5.375h0.8125v-16.344h1.09375v-10.938h1.2184v10.938h0.46875v16.344h0.96875v-27.281h0.125v24.75h0.8125v-24.75h0.3125v27.281h0.9375v-7.9688h0.3125v-19.312h0.46875v10.938h0.625v16.344h0.9375v-9.3438h0.46875v-17.938h0.15625v10.938h0.46875v16.344h0.78125v-21.719h0.8125v-5.5625h1.3746v21.906h0.8125v-21.906h0.906v10.938h0.8125v-10.938h1.0622v10.938h0.8125v-10.938h0.625v10.938h1.40625v-10.938h2.5v10.938h0.78125v-10.938h2.0309v10.938h0.8125v-10.938h2.3118v10.938h0.8125v-10.938h0.906v27.281h1.125v-1.0h0.15625v-23.688h0.15625v-2.5938h0.46875v3.6875h0.78125v-3.6875h0.3125v10.938h0.78125v-8.4688h0.78125v-2.4688h0.625v5.4688h0.15625v5.4688h0.15625v16.344h0.78125v-16.344h1.40625v16.344h0.8125v-16.344h0.625v-10.938h0.4374v10.938h0.15625v16.344h1.28125v-0.96875h0.3125v-15.375h0.15625v-10.938h0.5936v10.938h2.3749v16.344h0.9375v-16.156h0.15625v-0.1875h0.3125v-10.938h0.15625v10.938h0.78125v-10.938h0.3125v21.906h0.78125v-10.969h0.3125v-10.938h0.15625v10.938h0.78125v-10.938h0.46865v10.938h2.1874v16.344h1.74995v-5.1875h0.3125v-11.156h0.7499v16.344h1.5937v-15.969h0.3125v-0.375h0.15625v16.344h0.78125v-24.469h0.15625v-2.8125h3.59375v10.938h0.8125v-10.938h1.53085v10.938h0.93745v9.5938h0.3125v6.75h0.8125v-14.906h0.15625v-1.4375h1.3747v16.344h1.125v-16.344h0.46875v-10.938h0.2812v10.938h2.21875v10.969h1.09375v-10.969h2.03125v16.344h0.78125v-16.344h0.5v-10.938h0.2812v10.938h0.15625v16.344h1.4375v-1.1875h0.15625v-15.156h0.28125v16.344h0.8125v-2.5625h0.46875v-13.781h0.78125v-10.938h0.906v10.938h0.8125v-10.938h0.3125v10.938h0.78125v-8.3125h0.46875v-2.625h2.34375v3.6875h0.15625v7.25h0.78125v-10.938h1.25v2.4688h0.46875v3.0h0.78125v5.4688h1.5937v-10.938h0.125v10.938h0.8125v-10.938h0.7498v10.938h0.8125v-10.938h0.7498v21.906h0.8125v-10.969h0.3125v-10.938h1.25v10.938h0.78125v-10.938h1.5625v10.938h0.3125v10.969h0.78125v-21.906h0.3125v10.938h1.5937v-10.938h0.2812v21.906h0.8125v-21.906h1.9994v21.906h0.8125v-21.906h1.2184v10.938h0.8125v-10.938h1.40615v21.906h0.78125v-21.906h1.40625v27.281h0.78125v-21.719h0.625v-5.5625h0.625v10.938h0.8125v-10.938h1.0622v21.906h0.8125v-21.906h1.0622v10.938h0.8125v-10.938h0.906v27.281h1.125v-14.719h0.78125v-12.562h2.1875v27.281h0.78125v-21.719h0.46875v-5.5625h1.40625v10.938h0.8125v-10.938h0.7498v21.906h0.8125v-21.906h0.125v10.938h1.0937v10.969h0.8125v-21.906h2.468v10.938h0.8125v-10.938h1.5625v10.938h0.78125v-10.938h0.78125v10.938h1.40625v-10.938h0.15625v10.938h6.9058v-10.938h0.15625v-10.969h-3.59365v-16.312h-1.4375v16.312h-0.4375v-4.1875h-0.1875v-12.125h-0.78125v15.812h-0.15625v-15.812h-0.78125v-54.594h-0.78125v54.594h-0.15625v-27.312h-1.25v-27.281h-0.78125v27.281h-0.15625v27.312h-0.3125v-21.594h-0.15625v-5.7188h-0.625v-27.281h-0.8125v27.281h-0.3125v27.312h-0.28125v-27.312h-1.125v27.312h-0.125v-27.312h-0.8125v27.312h-0.46875v16.312h-0.28125v-4.1875h-0.15625v-12.125h-0.78125v-48.875h-0.8125v21.562h-0.59375v-54.562h-1.4375v81.875h-0.15625v-54.594h-1.09375v54.594h-0.625v-81.875h-1.25v54.562h-0.46875v-54.562h-0.78125v54.562h-1.5937v27.312h-0.125v-27.312h-1.7187v-38.156h-0.8125v38.156h-1.3749v-54.562h-0.8125v27.281h-0.46875v27.281h-1.09375v-27.281h-0.625v-27.281h-0.78125v81.875h-0.46875v-54.594h-0.15625v-54.594h-0.78125v81.875h-1.25v-16.781h-0.15625v-10.5h-0.46875v-27.281h-0.78125v54.562h-0.15625v-27.281h-0.96875v27.281h-0.4375v-27.281h-0.8125v54.594h-0.125v-54.594h-0.8125v27.281h-0.125v-27.281h-0.8125v27.281h-0.15625v27.312h-1.0623v-27.312h-0.8125v27.312h-0.62495v-81.875h-0.78125v81.875h-0.46875v5.0625h-0.15625v-5.0625h-0.15625v-27.312h-0.46875v-32.438h-0.78125v32.438h-1.40625v-27.281h-1.40625v27.281h-0.3125v27.312h-0.15625v-28.344h-0.8125v1.0312h-1.0937v23.75h-0.125v-23.75h-1.4375v27.312h-0.74995v-109.19h-0.8125v109.19h-0.46875v16.312h-0.125v-16.094h-0.625v-0.21875h-0.15625v-27.312h-0.8125v11.406h-0.3125v-11.406h-0.78125v27.312h-3.4375v0.96875h-0.15625v-0.96875h-1.56235v-27.312h-0.8125v27.312h-2.4999v16.312h-0.625v10.969h-0.4374v-17.938h-0.15625v-9.3438h-0.96875v16.312h-1.24995v-9.5625h-0.46875v-1.375h-0.78125v10.938h-0.3125v-10.938h-0.78125v10.938h-2.8125v-16.312h-0.8125v16.312h-0.15625v10.969h-0.4374v-10.969h-0.8125v10.969h-0.2812v-10.969h-0.8125v10.969h-0.906v-23.156h-0.15625v-31.438h-1.74995v27.312h-0.5937v-27.312h-2.84375v27.312h-0.9375v-27.312h-0.78125v27.312h-0.625v16.312h-1.28125v10.781h-0.125v-27.094h-0.96875v16.312h-0.74995v-10.938h-0.8125v5.375h-0.125v-10.75h-0.8125v16.312h-0.9062v-10.938h-0.625v-5.375h-3.3124v-27.312h-0.78125v27.312h-0.9375v16.312h-0.78125v-10.938h-0.78125v10.938h-0.62495v-30.781h-0.8125v14.469h-1.7185v16.312h-0.625v10.969h-0.125v-25.094h-0.15625v-2.1875h-1.4375v16.312h-0.46875v10.969h-0.125v-5.625h-0.3125v-21.656h-0.96875v16.312h-0.46875v5.3125h-0.46875v4.2188h-0.15625v-25.625h-0.3125v-54.812h-0.78125v27.281h-0.3125v27.312h-0.78125v-54.594h-0.78125v54.594h-0.3125v-27.312h-0.78125v27.312h-0.625v16.312h-0.15625v10.969h-0.15625v-33.625h-0.46875v-102.84h-0.8125v81.875h-0.3125v27.312h-8.43605v-27.312h-0.9375v-22.312h-0.3125v-59.562z"/>
<path d="m22.714036,32.5v65.5h-0.31902v32.75h-0.38281v-32.75h-0.850719v32.75h-0.957049v19.59375h-0.08507v-13.15625h-0.467896v-0.4375h-0.297752v-6.0h-1.488752v32.25h-0.170144v0.46875h-0.0638v-32.71875h-2.743541v19.59375h-0.552963v-3.90625h-0.552968v17.03125h-0.08507v-32.71875h-3.126352v-32.75h-0.552967v32.75h-1.637615v-32.75h-0.552968v52.34375h-0.616765v12.875h-0.08507v-32.46875h-0.850719v19.59375h-0.72311v-13.15625h-0.531699v13.15625h-0.638035v13.125h-0.40408v-13.125h-0.531699v6.34375h-0.233948v-25.6875h-0.552968v26.875h-0.08507v-15.21875h-0.531699v7.6875h-1.573822v13.125h-0.467896v13.15625h2.424532v-8.6875h0.319019v-1.46875h0.233948v3.5625h0.531699v-4.875h0.08507v11.46875h2.892421v-13.15625h0.25521v13.15625h0.297752v13.15625h0.552967v-13.15625h0.467896v-13.15625h0.23394v13.15625h0.467895v19.59375h0.552968v-26.0625h0.467895v-6.6875h0.87196v13.15625h0.5317v-13.15625h0.40408v32.75h1.020861v-32.75h0.08507v0.25h0.5317v-0.25h0.08507v32.75h1.169732v-19.59375h0.638038v-13.15625h0.70182v13.15625h0.552967v-13.15625h0.0638v13.15625h0.552968v-13.15625h0.23394v32.75h0.871987v-16.0h0.233947v16.0h1.488753v-19.59375h0.467895v-13.15625h2.59461v13.15625h0.531699v-13.15625h0.87196v13.15625h0.552968v-13.15625h1.63758v13.15625h0.552968v-13.15625h0.70182v13.15625h0.552967v-13.15625h0.85069v13.15625h0.552967v-13.15625h0.40408v13.15625h0.531699v-13.15625h1.19097v13.15625h0.531699v-13.15625h1.48871v13.15625h0.552967v-13.15625h0.87196v13.15625h0.5317v-13.15625h1.02083v32.75h0.552967v-12.90625h0.148876v-19.84375h1.19097v26.3125h0.531699v-26.3125h0.31902v-65.46875h-0.531699v32.75h-0.25521v-32.75h-0.297752v-65.5h-0.552967v65.5h-0.638034v32.75h-0.23394v-65.5h-0.5317v32.75h-0.08507v-32.75h-0.552967v32.75h-0.871983v-32.75h-0.5317v32.75h-0.170144v32.75h-0.23394v-32.75h-2.105524v32.75h-1.020836v-32.75h-0.467896v-32.75h-0.552967v65.5h-0.08507v-8.03125h-0.467896v-24.71875h-0.531699v32.75h-2.445758v-24.8125h-0.319019v-7.9375h-1.467488v32.75h-0.25521v-32.75h-0.850719v32.75h-0.233946v-98.25h-0.552967z" transform="scale(1,.8325)">
  <animateTransform attributeName="transform" type="translate" additive="sum" fill="freeze"
                    from="0 0" to="456 0" begin="click" dur="5s"/>
</path>

</svg>
